G04 #@! TF.GenerationSoftware,KiCad,Pcbnew,(5.1.2)-1*
G04 #@! TF.CreationDate,2022-05-17T10:22:14-05:00*
G04 #@! TF.ProjectId,jtag_gpio_breakout,6a746167-5f67-4706-996f-5f627265616b,rev?*
G04 #@! TF.SameCoordinates,Original*
G04 #@! TF.FileFunction,Legend,Bot*
G04 #@! TF.FilePolarity,Positive*
%FSLAX46Y46*%
G04 Gerber Fmt 4.6, Leading zero omitted, Abs format (unit mm)*
G04 Created by KiCad (PCBNEW (5.1.2)-1) date 2022-05-17 10:22:14*
%MOMM*%
%LPD*%
G04 APERTURE LIST*
%ADD10C,0.150000*%
%ADD11C,0.300000*%
%ADD12C,0.200000*%
%ADD13C,0.120000*%
G04 APERTURE END LIST*
D10*
X149788095Y-111288095D02*
X149788095Y-112088095D01*
X150092857Y-112088095D01*
X150169047Y-112050000D01*
X150207142Y-112011904D01*
X150245238Y-111935714D01*
X150245238Y-111821428D01*
X150207142Y-111745238D01*
X150169047Y-111707142D01*
X150092857Y-111669047D01*
X149788095Y-111669047D01*
X150740476Y-112088095D02*
X150816666Y-112088095D01*
X150892857Y-112050000D01*
X150930952Y-112011904D01*
X150969047Y-111935714D01*
X151007142Y-111783333D01*
X151007142Y-111592857D01*
X150969047Y-111440476D01*
X150930952Y-111364285D01*
X150892857Y-111326190D01*
X150816666Y-111288095D01*
X150740476Y-111288095D01*
X150664285Y-111326190D01*
X150626190Y-111364285D01*
X150588095Y-111440476D01*
X150550000Y-111592857D01*
X150550000Y-111783333D01*
X150588095Y-111935714D01*
X150626190Y-112011904D01*
X150664285Y-112050000D01*
X150740476Y-112088095D01*
X151350000Y-111364285D02*
X151388095Y-111326190D01*
X151350000Y-111288095D01*
X151311904Y-111326190D01*
X151350000Y-111364285D01*
X151350000Y-111288095D01*
X151692857Y-112011904D02*
X151730952Y-112050000D01*
X151807142Y-112088095D01*
X151997619Y-112088095D01*
X152073809Y-112050000D01*
X152111904Y-112011904D01*
X152150000Y-111935714D01*
X152150000Y-111859523D01*
X152111904Y-111745238D01*
X151654761Y-111288095D01*
X152150000Y-111288095D01*
D11*
X138000000Y-108600000D02*
X137700000Y-108600000D01*
X138000000Y-104000000D02*
X137700000Y-104000000D01*
X138000000Y-104000000D02*
X138000000Y-108600000D01*
X137700000Y-92950000D02*
X137700000Y-119350000D01*
D12*
X146502380Y-138916666D02*
X147311904Y-138916666D01*
X147407142Y-138964285D01*
X147454761Y-139011904D01*
X147502380Y-139107142D01*
X147502380Y-139297619D01*
X147454761Y-139392857D01*
X147407142Y-139440476D01*
X147311904Y-139488095D01*
X146502380Y-139488095D01*
X147216666Y-139916666D02*
X147216666Y-140392857D01*
X147502380Y-139821428D02*
X146502380Y-140154761D01*
X147502380Y-140488095D01*
X147502380Y-141392857D02*
X147026190Y-141059523D01*
X147502380Y-140821428D02*
X146502380Y-140821428D01*
X146502380Y-141202380D01*
X146550000Y-141297619D01*
X146597619Y-141345238D01*
X146692857Y-141392857D01*
X146835714Y-141392857D01*
X146930952Y-141345238D01*
X146978571Y-141297619D01*
X147026190Y-141202380D01*
X147026190Y-140821428D01*
X146502380Y-141678571D02*
X146502380Y-142250000D01*
X147502380Y-141964285D02*
X146502380Y-141964285D01*
X147454761Y-142535714D02*
X147502380Y-142678571D01*
X147502380Y-142916666D01*
X147454761Y-143011904D01*
X147407142Y-143059523D01*
X147311904Y-143107142D01*
X147216666Y-143107142D01*
X147121428Y-143059523D01*
X147073809Y-143011904D01*
X147026190Y-142916666D01*
X146978571Y-142726190D01*
X146930952Y-142630952D01*
X146883333Y-142583333D01*
X146788095Y-142535714D01*
X146692857Y-142535714D01*
X146597619Y-142583333D01*
X146550000Y-142630952D01*
X146502380Y-142726190D01*
X146502380Y-142964285D01*
X146550000Y-143107142D01*
X147502380Y-143535714D02*
X146502380Y-143535714D01*
X147502380Y-144011904D02*
X146502380Y-144011904D01*
X147502380Y-144583333D01*
X146502380Y-144583333D01*
X144102380Y-138750000D02*
X144911904Y-138750000D01*
X145007142Y-138797619D01*
X145054761Y-138845238D01*
X145102380Y-138940476D01*
X145102380Y-139130952D01*
X145054761Y-139226190D01*
X145007142Y-139273809D01*
X144911904Y-139321428D01*
X144102380Y-139321428D01*
X144816666Y-139750000D02*
X144816666Y-140226190D01*
X145102380Y-139654761D02*
X144102380Y-139988095D01*
X145102380Y-140321428D01*
X145102380Y-141226190D02*
X144626190Y-140892857D01*
X145102380Y-140654761D02*
X144102380Y-140654761D01*
X144102380Y-141035714D01*
X144150000Y-141130952D01*
X144197619Y-141178571D01*
X144292857Y-141226190D01*
X144435714Y-141226190D01*
X144530952Y-141178571D01*
X144578571Y-141130952D01*
X144626190Y-141035714D01*
X144626190Y-140654761D01*
X144102380Y-141511904D02*
X144102380Y-142083333D01*
X145102380Y-141797619D02*
X144102380Y-141797619D01*
X145054761Y-142369047D02*
X145102380Y-142511904D01*
X145102380Y-142750000D01*
X145054761Y-142845238D01*
X145007142Y-142892857D01*
X144911904Y-142940476D01*
X144816666Y-142940476D01*
X144721428Y-142892857D01*
X144673809Y-142845238D01*
X144626190Y-142750000D01*
X144578571Y-142559523D01*
X144530952Y-142464285D01*
X144483333Y-142416666D01*
X144388095Y-142369047D01*
X144292857Y-142369047D01*
X144197619Y-142416666D01*
X144150000Y-142464285D01*
X144102380Y-142559523D01*
X144102380Y-142797619D01*
X144150000Y-142940476D01*
X144102380Y-143559523D02*
X144102380Y-143750000D01*
X144150000Y-143845238D01*
X144245238Y-143940476D01*
X144435714Y-143988095D01*
X144769047Y-143988095D01*
X144959523Y-143940476D01*
X145054761Y-143845238D01*
X145102380Y-143750000D01*
X145102380Y-143559523D01*
X145054761Y-143464285D01*
X144959523Y-143369047D01*
X144769047Y-143321428D01*
X144435714Y-143321428D01*
X144245238Y-143369047D01*
X144150000Y-143464285D01*
X144102380Y-143559523D01*
X144102380Y-144416666D02*
X144911904Y-144416666D01*
X145007142Y-144464285D01*
X145054761Y-144511904D01*
X145102380Y-144607142D01*
X145102380Y-144797619D01*
X145054761Y-144892857D01*
X145007142Y-144940476D01*
X144911904Y-144988095D01*
X144102380Y-144988095D01*
X144102380Y-145321428D02*
X144102380Y-145892857D01*
X145102380Y-145607142D02*
X144102380Y-145607142D01*
D10*
X149088095Y-140350000D02*
X148992857Y-140397619D01*
X148850000Y-140397619D01*
X148707142Y-140350000D01*
X148611904Y-140254761D01*
X148564285Y-140159523D01*
X148516666Y-139969047D01*
X148516666Y-139826190D01*
X148564285Y-139635714D01*
X148611904Y-139540476D01*
X148707142Y-139445238D01*
X148850000Y-139397619D01*
X148945238Y-139397619D01*
X149088095Y-139445238D01*
X149135714Y-139492857D01*
X149135714Y-139826190D01*
X148945238Y-139826190D01*
X149564285Y-139397619D02*
X149564285Y-140397619D01*
X150135714Y-139397619D01*
X150135714Y-140397619D01*
X150611904Y-139397619D02*
X150611904Y-140397619D01*
X150850000Y-140397619D01*
X150992857Y-140350000D01*
X151088095Y-140254761D01*
X151135714Y-140159523D01*
X151183333Y-139969047D01*
X151183333Y-139826190D01*
X151135714Y-139635714D01*
X151088095Y-139540476D01*
X150992857Y-139445238D01*
X150850000Y-139397619D01*
X150611904Y-139397619D01*
X132216666Y-138873809D02*
X132216666Y-139350000D01*
X132502380Y-138778571D02*
X131502380Y-139111904D01*
X132502380Y-139445238D01*
X132502380Y-139778571D02*
X131502380Y-139778571D01*
X132502380Y-140254761D02*
X131502380Y-140254761D01*
X132502380Y-140826190D01*
X131502380Y-140826190D01*
X131597619Y-141254761D02*
X131550000Y-141302380D01*
X131502380Y-141397619D01*
X131502380Y-141635714D01*
X131550000Y-141730952D01*
X131597619Y-141778571D01*
X131692857Y-141826190D01*
X131788095Y-141826190D01*
X131930952Y-141778571D01*
X132502380Y-141207142D01*
X132502380Y-141826190D01*
X135016666Y-138923809D02*
X135016666Y-139400000D01*
X135302380Y-138828571D02*
X134302380Y-139161904D01*
X135302380Y-139495238D01*
X135302380Y-139828571D02*
X134302380Y-139828571D01*
X135302380Y-140304761D02*
X134302380Y-140304761D01*
X135302380Y-140876190D01*
X134302380Y-140876190D01*
X134302380Y-141257142D02*
X134302380Y-141876190D01*
X134683333Y-141542857D01*
X134683333Y-141685714D01*
X134730952Y-141780952D01*
X134778571Y-141828571D01*
X134873809Y-141876190D01*
X135111904Y-141876190D01*
X135207142Y-141828571D01*
X135254761Y-141780952D01*
X135302380Y-141685714D01*
X135302380Y-141400000D01*
X135254761Y-141304761D01*
X135207142Y-141257142D01*
X137316666Y-138973809D02*
X137316666Y-139450000D01*
X137602380Y-138878571D02*
X136602380Y-139211904D01*
X137602380Y-139545238D01*
X137602380Y-139878571D02*
X136602380Y-139878571D01*
X137602380Y-140354761D02*
X136602380Y-140354761D01*
X137602380Y-140926190D01*
X136602380Y-140926190D01*
X136602380Y-141878571D02*
X136602380Y-141402380D01*
X137078571Y-141354761D01*
X137030952Y-141402380D01*
X136983333Y-141497619D01*
X136983333Y-141735714D01*
X137030952Y-141830952D01*
X137078571Y-141878571D01*
X137173809Y-141926190D01*
X137411904Y-141926190D01*
X137507142Y-141878571D01*
X137554761Y-141830952D01*
X137602380Y-141735714D01*
X137602380Y-141497619D01*
X137554761Y-141402380D01*
X137507142Y-141354761D01*
X139666666Y-138823809D02*
X139666666Y-139300000D01*
X139952380Y-138728571D02*
X138952380Y-139061904D01*
X139952380Y-139395238D01*
X139952380Y-139728571D02*
X138952380Y-139728571D01*
X139952380Y-140204761D02*
X138952380Y-140204761D01*
X139952380Y-140776190D01*
X138952380Y-140776190D01*
X138952380Y-141680952D02*
X138952380Y-141490476D01*
X139000000Y-141395238D01*
X139047619Y-141347619D01*
X139190476Y-141252380D01*
X139380952Y-141204761D01*
X139761904Y-141204761D01*
X139857142Y-141252380D01*
X139904761Y-141300000D01*
X139952380Y-141395238D01*
X139952380Y-141585714D01*
X139904761Y-141680952D01*
X139857142Y-141728571D01*
X139761904Y-141776190D01*
X139523809Y-141776190D01*
X139428571Y-141728571D01*
X139380952Y-141680952D01*
X139333333Y-141585714D01*
X139333333Y-141395238D01*
X139380952Y-141300000D01*
X139428571Y-141252380D01*
X139523809Y-141204761D01*
X142552380Y-138797619D02*
X141552380Y-138797619D01*
X141552380Y-139178571D01*
X141600000Y-139273809D01*
X141647619Y-139321428D01*
X141742857Y-139369047D01*
X141885714Y-139369047D01*
X141980952Y-139321428D01*
X142028571Y-139273809D01*
X142076190Y-139178571D01*
X142076190Y-138797619D01*
X141647619Y-139750000D02*
X141600000Y-139797619D01*
X141552380Y-139892857D01*
X141552380Y-140130952D01*
X141600000Y-140226190D01*
X141647619Y-140273809D01*
X141742857Y-140321428D01*
X141838095Y-140321428D01*
X141980952Y-140273809D01*
X142552380Y-139702380D01*
X142552380Y-140321428D01*
X142457142Y-140750000D02*
X142504761Y-140797619D01*
X142552380Y-140750000D01*
X142504761Y-140702380D01*
X142457142Y-140750000D01*
X142552380Y-140750000D01*
X141885714Y-141654761D02*
X142552380Y-141654761D01*
X141504761Y-141416666D02*
X142219047Y-141178571D01*
X142219047Y-141797619D01*
X149769047Y-99216666D02*
X150150000Y-99216666D01*
X149692857Y-98988095D02*
X149959523Y-99788095D01*
X150226190Y-98988095D01*
X150492857Y-98988095D02*
X150492857Y-99788095D01*
X150873809Y-98988095D02*
X150873809Y-99788095D01*
X151330952Y-98988095D01*
X151330952Y-99788095D01*
X152130952Y-98988095D02*
X151673809Y-98988095D01*
X151902380Y-98988095D02*
X151902380Y-99788095D01*
X151826190Y-99673809D01*
X151750000Y-99597619D01*
X151673809Y-99559523D01*
X149819047Y-101516666D02*
X150200000Y-101516666D01*
X149742857Y-101288095D02*
X150009523Y-102088095D01*
X150276190Y-101288095D01*
X150542857Y-101288095D02*
X150542857Y-102088095D01*
X150923809Y-101288095D02*
X150923809Y-102088095D01*
X151380952Y-101288095D01*
X151380952Y-102088095D01*
X151914285Y-102088095D02*
X151990476Y-102088095D01*
X152066666Y-102050000D01*
X152104761Y-102011904D01*
X152142857Y-101935714D01*
X152180952Y-101783333D01*
X152180952Y-101592857D01*
X152142857Y-101440476D01*
X152104761Y-101364285D01*
X152066666Y-101326190D01*
X151990476Y-101288095D01*
X151914285Y-101288095D01*
X151838095Y-101326190D01*
X151800000Y-101364285D01*
X151761904Y-101440476D01*
X151723809Y-101592857D01*
X151723809Y-101783333D01*
X151761904Y-101935714D01*
X151800000Y-102011904D01*
X151838095Y-102050000D01*
X151914285Y-102088095D01*
X149938095Y-103938095D02*
X149938095Y-104738095D01*
X150242857Y-104738095D01*
X150319047Y-104700000D01*
X150357142Y-104661904D01*
X150395238Y-104585714D01*
X150395238Y-104471428D01*
X150357142Y-104395238D01*
X150319047Y-104357142D01*
X150242857Y-104319047D01*
X149938095Y-104319047D01*
X150890476Y-104738095D02*
X150966666Y-104738095D01*
X151042857Y-104700000D01*
X151080952Y-104661904D01*
X151119047Y-104585714D01*
X151157142Y-104433333D01*
X151157142Y-104242857D01*
X151119047Y-104090476D01*
X151080952Y-104014285D01*
X151042857Y-103976190D01*
X150966666Y-103938095D01*
X150890476Y-103938095D01*
X150814285Y-103976190D01*
X150776190Y-104014285D01*
X150738095Y-104090476D01*
X150700000Y-104242857D01*
X150700000Y-104433333D01*
X150738095Y-104585714D01*
X150776190Y-104661904D01*
X150814285Y-104700000D01*
X150890476Y-104738095D01*
X151500000Y-104014285D02*
X151538095Y-103976190D01*
X151500000Y-103938095D01*
X151461904Y-103976190D01*
X151500000Y-104014285D01*
X151500000Y-103938095D01*
X152261904Y-104738095D02*
X151880952Y-104738095D01*
X151842857Y-104357142D01*
X151880952Y-104395238D01*
X151957142Y-104433333D01*
X152147619Y-104433333D01*
X152223809Y-104395238D01*
X152261904Y-104357142D01*
X152300000Y-104280952D01*
X152300000Y-104090476D01*
X152261904Y-104014285D01*
X152223809Y-103976190D01*
X152147619Y-103938095D01*
X151957142Y-103938095D01*
X151880952Y-103976190D01*
X151842857Y-104014285D01*
X149938095Y-106438095D02*
X149938095Y-107238095D01*
X150242857Y-107238095D01*
X150319047Y-107200000D01*
X150357142Y-107161904D01*
X150395238Y-107085714D01*
X150395238Y-106971428D01*
X150357142Y-106895238D01*
X150319047Y-106857142D01*
X150242857Y-106819047D01*
X149938095Y-106819047D01*
X150890476Y-107238095D02*
X150966666Y-107238095D01*
X151042857Y-107200000D01*
X151080952Y-107161904D01*
X151119047Y-107085714D01*
X151157142Y-106933333D01*
X151157142Y-106742857D01*
X151119047Y-106590476D01*
X151080952Y-106514285D01*
X151042857Y-106476190D01*
X150966666Y-106438095D01*
X150890476Y-106438095D01*
X150814285Y-106476190D01*
X150776190Y-106514285D01*
X150738095Y-106590476D01*
X150700000Y-106742857D01*
X150700000Y-106933333D01*
X150738095Y-107085714D01*
X150776190Y-107161904D01*
X150814285Y-107200000D01*
X150890476Y-107238095D01*
X151500000Y-106514285D02*
X151538095Y-106476190D01*
X151500000Y-106438095D01*
X151461904Y-106476190D01*
X151500000Y-106514285D01*
X151500000Y-106438095D01*
X152223809Y-106971428D02*
X152223809Y-106438095D01*
X152033333Y-107276190D02*
X151842857Y-106704761D01*
X152338095Y-106704761D01*
X149838095Y-109030795D02*
X149838095Y-109830795D01*
X150142857Y-109830795D01*
X150219047Y-109792700D01*
X150257142Y-109754604D01*
X150295238Y-109678414D01*
X150295238Y-109564128D01*
X150257142Y-109487938D01*
X150219047Y-109449842D01*
X150142857Y-109411747D01*
X149838095Y-109411747D01*
X150790476Y-109830795D02*
X150866666Y-109830795D01*
X150942857Y-109792700D01*
X150980952Y-109754604D01*
X151019047Y-109678414D01*
X151057142Y-109526033D01*
X151057142Y-109335557D01*
X151019047Y-109183176D01*
X150980952Y-109106985D01*
X150942857Y-109068890D01*
X150866666Y-109030795D01*
X150790476Y-109030795D01*
X150714285Y-109068890D01*
X150676190Y-109106985D01*
X150638095Y-109183176D01*
X150600000Y-109335557D01*
X150600000Y-109526033D01*
X150638095Y-109678414D01*
X150676190Y-109754604D01*
X150714285Y-109792700D01*
X150790476Y-109830795D01*
X151400000Y-109106985D02*
X151438095Y-109068890D01*
X151400000Y-109030795D01*
X151361904Y-109068890D01*
X151400000Y-109106985D01*
X151400000Y-109030795D01*
X151704761Y-109830795D02*
X152200000Y-109830795D01*
X151933333Y-109526033D01*
X152047619Y-109526033D01*
X152123809Y-109487938D01*
X152161904Y-109449842D01*
X152200000Y-109373652D01*
X152200000Y-109183176D01*
X152161904Y-109106985D01*
X152123809Y-109068890D01*
X152047619Y-109030795D01*
X151819047Y-109030795D01*
X151742857Y-109068890D01*
X151704761Y-109106985D01*
X149738095Y-114038095D02*
X149738095Y-114838095D01*
X150042857Y-114838095D01*
X150119047Y-114800000D01*
X150157142Y-114761904D01*
X150195238Y-114685714D01*
X150195238Y-114571428D01*
X150157142Y-114495238D01*
X150119047Y-114457142D01*
X150042857Y-114419047D01*
X149738095Y-114419047D01*
X150690476Y-114838095D02*
X150766666Y-114838095D01*
X150842857Y-114800000D01*
X150880952Y-114761904D01*
X150919047Y-114685714D01*
X150957142Y-114533333D01*
X150957142Y-114342857D01*
X150919047Y-114190476D01*
X150880952Y-114114285D01*
X150842857Y-114076190D01*
X150766666Y-114038095D01*
X150690476Y-114038095D01*
X150614285Y-114076190D01*
X150576190Y-114114285D01*
X150538095Y-114190476D01*
X150500000Y-114342857D01*
X150500000Y-114533333D01*
X150538095Y-114685714D01*
X150576190Y-114761904D01*
X150614285Y-114800000D01*
X150690476Y-114838095D01*
X151300000Y-114114285D02*
X151338095Y-114076190D01*
X151300000Y-114038095D01*
X151261904Y-114076190D01*
X151300000Y-114114285D01*
X151300000Y-114038095D01*
X152100000Y-114038095D02*
X151642857Y-114038095D01*
X151871428Y-114038095D02*
X151871428Y-114838095D01*
X151795238Y-114723809D01*
X151719047Y-114647619D01*
X151642857Y-114609523D01*
X149738095Y-116438095D02*
X149738095Y-117238095D01*
X150042857Y-117238095D01*
X150119047Y-117200000D01*
X150157142Y-117161904D01*
X150195238Y-117085714D01*
X150195238Y-116971428D01*
X150157142Y-116895238D01*
X150119047Y-116857142D01*
X150042857Y-116819047D01*
X149738095Y-116819047D01*
X150690476Y-117238095D02*
X150766666Y-117238095D01*
X150842857Y-117200000D01*
X150880952Y-117161904D01*
X150919047Y-117085714D01*
X150957142Y-116933333D01*
X150957142Y-116742857D01*
X150919047Y-116590476D01*
X150880952Y-116514285D01*
X150842857Y-116476190D01*
X150766666Y-116438095D01*
X150690476Y-116438095D01*
X150614285Y-116476190D01*
X150576190Y-116514285D01*
X150538095Y-116590476D01*
X150500000Y-116742857D01*
X150500000Y-116933333D01*
X150538095Y-117085714D01*
X150576190Y-117161904D01*
X150614285Y-117200000D01*
X150690476Y-117238095D01*
X151300000Y-116514285D02*
X151338095Y-116476190D01*
X151300000Y-116438095D01*
X151261904Y-116476190D01*
X151300000Y-116514285D01*
X151300000Y-116438095D01*
X151833333Y-117238095D02*
X151909523Y-117238095D01*
X151985714Y-117200000D01*
X152023809Y-117161904D01*
X152061904Y-117085714D01*
X152100000Y-116933333D01*
X152100000Y-116742857D01*
X152061904Y-116590476D01*
X152023809Y-116514285D01*
X151985714Y-116476190D01*
X151909523Y-116438095D01*
X151833333Y-116438095D01*
X151757142Y-116476190D01*
X151719047Y-116514285D01*
X151680952Y-116590476D01*
X151642857Y-116742857D01*
X151642857Y-116933333D01*
X151680952Y-117085714D01*
X151719047Y-117161904D01*
X151757142Y-117200000D01*
X151833333Y-117238095D01*
X149745238Y-118838095D02*
X149745238Y-119638095D01*
X150050000Y-119638095D01*
X150126190Y-119600000D01*
X150164285Y-119561904D01*
X150202380Y-119485714D01*
X150202380Y-119371428D01*
X150164285Y-119295238D01*
X150126190Y-119257142D01*
X150050000Y-119219047D01*
X149745238Y-119219047D01*
X150469047Y-119638095D02*
X150659523Y-118838095D01*
X150811904Y-119409523D01*
X150964285Y-118838095D01*
X151154761Y-119638095D01*
X151459523Y-118838095D02*
X151459523Y-119638095D01*
X151726190Y-119066666D01*
X151992857Y-119638095D01*
X151992857Y-118838095D01*
X152792857Y-118838095D02*
X152335714Y-118838095D01*
X152564285Y-118838095D02*
X152564285Y-119638095D01*
X152488095Y-119523809D01*
X152411904Y-119447619D01*
X152335714Y-119409523D01*
X149695238Y-121588095D02*
X149695238Y-122388095D01*
X150000000Y-122388095D01*
X150076190Y-122350000D01*
X150114285Y-122311904D01*
X150152380Y-122235714D01*
X150152380Y-122121428D01*
X150114285Y-122045238D01*
X150076190Y-122007142D01*
X150000000Y-121969047D01*
X149695238Y-121969047D01*
X150419047Y-122388095D02*
X150609523Y-121588095D01*
X150761904Y-122159523D01*
X150914285Y-121588095D01*
X151104761Y-122388095D01*
X151409523Y-121588095D02*
X151409523Y-122388095D01*
X151676190Y-121816666D01*
X151942857Y-122388095D01*
X151942857Y-121588095D01*
X152476190Y-122388095D02*
X152552380Y-122388095D01*
X152628571Y-122350000D01*
X152666666Y-122311904D01*
X152704761Y-122235714D01*
X152742857Y-122083333D01*
X152742857Y-121892857D01*
X152704761Y-121740476D01*
X152666666Y-121664285D01*
X152628571Y-121626190D01*
X152552380Y-121588095D01*
X152476190Y-121588095D01*
X152400000Y-121626190D01*
X152361904Y-121664285D01*
X152323809Y-121740476D01*
X152285714Y-121892857D01*
X152285714Y-122083333D01*
X152323809Y-122235714D01*
X152361904Y-122311904D01*
X152400000Y-122350000D01*
X152476190Y-122388095D01*
X139388095Y-112488095D02*
X139654761Y-111688095D01*
X139921428Y-112488095D01*
X140454761Y-112107142D02*
X140569047Y-112069047D01*
X140607142Y-112030952D01*
X140645238Y-111954761D01*
X140645238Y-111840476D01*
X140607142Y-111764285D01*
X140569047Y-111726190D01*
X140492857Y-111688095D01*
X140188095Y-111688095D01*
X140188095Y-112488095D01*
X140454761Y-112488095D01*
X140530952Y-112450000D01*
X140569047Y-112411904D01*
X140607142Y-112335714D01*
X140607142Y-112259523D01*
X140569047Y-112183333D01*
X140530952Y-112145238D01*
X140454761Y-112107142D01*
X140188095Y-112107142D01*
X140988095Y-111688095D02*
X140988095Y-112488095D01*
X141330952Y-111916666D02*
X141711904Y-111916666D01*
X141254761Y-111688095D02*
X141521428Y-112488095D01*
X141788095Y-111688095D01*
X142016666Y-111726190D02*
X142130952Y-111688095D01*
X142321428Y-111688095D01*
X142397619Y-111726190D01*
X142435714Y-111764285D01*
X142473809Y-111840476D01*
X142473809Y-111916666D01*
X142435714Y-111992857D01*
X142397619Y-112030952D01*
X142321428Y-112069047D01*
X142169047Y-112107142D01*
X142092857Y-112145238D01*
X142054761Y-112183333D01*
X142016666Y-112259523D01*
X142016666Y-112335714D01*
X142054761Y-112411904D01*
X142092857Y-112450000D01*
X142169047Y-112488095D01*
X142359523Y-112488095D01*
X142473809Y-112450000D01*
X143235714Y-111688095D02*
X142778571Y-111688095D01*
X143007142Y-111688095D02*
X143007142Y-112488095D01*
X142930952Y-112373809D01*
X142854761Y-112297619D01*
X142778571Y-112259523D01*
X138940476Y-109888095D02*
X139207142Y-109088095D01*
X139473809Y-109888095D01*
X139664285Y-109888095D02*
X140197619Y-109888095D01*
X139664285Y-109088095D01*
X140197619Y-109088095D01*
X140502380Y-109507142D02*
X140769047Y-109507142D01*
X140883333Y-109088095D02*
X140502380Y-109088095D01*
X140502380Y-109888095D01*
X140883333Y-109888095D01*
X141683333Y-109088095D02*
X141416666Y-109469047D01*
X141226190Y-109088095D02*
X141226190Y-109888095D01*
X141530952Y-109888095D01*
X141607142Y-109850000D01*
X141645238Y-109811904D01*
X141683333Y-109735714D01*
X141683333Y-109621428D01*
X141645238Y-109545238D01*
X141607142Y-109507142D01*
X141530952Y-109469047D01*
X141226190Y-109469047D01*
X142178571Y-109888095D02*
X142330952Y-109888095D01*
X142407142Y-109850000D01*
X142483333Y-109773809D01*
X142521428Y-109621428D01*
X142521428Y-109354761D01*
X142483333Y-109202380D01*
X142407142Y-109126190D01*
X142330952Y-109088095D01*
X142178571Y-109088095D01*
X142102380Y-109126190D01*
X142026190Y-109202380D01*
X141988095Y-109354761D01*
X141988095Y-109621428D01*
X142026190Y-109773809D01*
X142102380Y-109850000D01*
X142178571Y-109888095D01*
X143283333Y-109088095D02*
X142826190Y-109088095D01*
X143054761Y-109088095D02*
X143054761Y-109888095D01*
X142978571Y-109773809D01*
X142902380Y-109697619D01*
X142826190Y-109659523D01*
X140538095Y-98888095D02*
X140538095Y-99688095D01*
X140842857Y-99688095D01*
X140919047Y-99650000D01*
X140957142Y-99611904D01*
X140995238Y-99535714D01*
X140995238Y-99421428D01*
X140957142Y-99345238D01*
X140919047Y-99307142D01*
X140842857Y-99269047D01*
X140538095Y-99269047D01*
X141757142Y-98888095D02*
X141300000Y-98888095D01*
X141528571Y-98888095D02*
X141528571Y-99688095D01*
X141452380Y-99573809D01*
X141376190Y-99497619D01*
X141300000Y-99459523D01*
X142100000Y-98964285D02*
X142138095Y-98926190D01*
X142100000Y-98888095D01*
X142061904Y-98926190D01*
X142100000Y-98964285D01*
X142100000Y-98888095D01*
X142861904Y-99688095D02*
X142480952Y-99688095D01*
X142442857Y-99307142D01*
X142480952Y-99345238D01*
X142557142Y-99383333D01*
X142747619Y-99383333D01*
X142823809Y-99345238D01*
X142861904Y-99307142D01*
X142900000Y-99230952D01*
X142900000Y-99040476D01*
X142861904Y-98964285D01*
X142823809Y-98926190D01*
X142747619Y-98888095D01*
X142557142Y-98888095D01*
X142480952Y-98926190D01*
X142442857Y-98964285D01*
X140788095Y-101538095D02*
X140788095Y-102338095D01*
X141092857Y-102338095D01*
X141169047Y-102300000D01*
X141207142Y-102261904D01*
X141245238Y-102185714D01*
X141245238Y-102071428D01*
X141207142Y-101995238D01*
X141169047Y-101957142D01*
X141092857Y-101919047D01*
X140788095Y-101919047D01*
X142007142Y-101538095D02*
X141550000Y-101538095D01*
X141778571Y-101538095D02*
X141778571Y-102338095D01*
X141702380Y-102223809D01*
X141626190Y-102147619D01*
X141550000Y-102109523D01*
X142350000Y-101614285D02*
X142388095Y-101576190D01*
X142350000Y-101538095D01*
X142311904Y-101576190D01*
X142350000Y-101614285D01*
X142350000Y-101538095D01*
X143073809Y-102071428D02*
X143073809Y-101538095D01*
X142883333Y-102376190D02*
X142692857Y-101804761D01*
X143188095Y-101804761D01*
X140788095Y-103788095D02*
X140788095Y-104588095D01*
X141092857Y-104588095D01*
X141169047Y-104550000D01*
X141207142Y-104511904D01*
X141245238Y-104435714D01*
X141245238Y-104321428D01*
X141207142Y-104245238D01*
X141169047Y-104207142D01*
X141092857Y-104169047D01*
X140788095Y-104169047D01*
X142007142Y-103788095D02*
X141550000Y-103788095D01*
X141778571Y-103788095D02*
X141778571Y-104588095D01*
X141702380Y-104473809D01*
X141626190Y-104397619D01*
X141550000Y-104359523D01*
X142350000Y-103864285D02*
X142388095Y-103826190D01*
X142350000Y-103788095D01*
X142311904Y-103826190D01*
X142350000Y-103864285D01*
X142350000Y-103788095D01*
X142654761Y-104588095D02*
X143150000Y-104588095D01*
X142883333Y-104283333D01*
X142997619Y-104283333D01*
X143073809Y-104245238D01*
X143111904Y-104207142D01*
X143150000Y-104130952D01*
X143150000Y-103940476D01*
X143111904Y-103864285D01*
X143073809Y-103826190D01*
X142997619Y-103788095D01*
X142769047Y-103788095D01*
X142692857Y-103826190D01*
X142654761Y-103864285D01*
X140738095Y-106488095D02*
X140738095Y-107288095D01*
X141042857Y-107288095D01*
X141119047Y-107250000D01*
X141157142Y-107211904D01*
X141195238Y-107135714D01*
X141195238Y-107021428D01*
X141157142Y-106945238D01*
X141119047Y-106907142D01*
X141042857Y-106869047D01*
X140738095Y-106869047D01*
X141957142Y-106488095D02*
X141500000Y-106488095D01*
X141728571Y-106488095D02*
X141728571Y-107288095D01*
X141652380Y-107173809D01*
X141576190Y-107097619D01*
X141500000Y-107059523D01*
X142300000Y-106564285D02*
X142338095Y-106526190D01*
X142300000Y-106488095D01*
X142261904Y-106526190D01*
X142300000Y-106564285D01*
X142300000Y-106488095D01*
X142642857Y-107211904D02*
X142680952Y-107250000D01*
X142757142Y-107288095D01*
X142947619Y-107288095D01*
X143023809Y-107250000D01*
X143061904Y-107211904D01*
X143100000Y-107135714D01*
X143100000Y-107059523D01*
X143061904Y-106945238D01*
X142604761Y-106488095D01*
X143100000Y-106488095D01*
X138890476Y-115038095D02*
X139157142Y-114238095D01*
X139423809Y-115038095D01*
X139614285Y-115038095D02*
X140147619Y-115038095D01*
X139614285Y-114238095D01*
X140147619Y-114238095D01*
X140452380Y-114657142D02*
X140719047Y-114657142D01*
X140833333Y-114238095D02*
X140452380Y-114238095D01*
X140452380Y-115038095D01*
X140833333Y-115038095D01*
X141633333Y-114238095D02*
X141366666Y-114619047D01*
X141176190Y-114238095D02*
X141176190Y-115038095D01*
X141480952Y-115038095D01*
X141557142Y-115000000D01*
X141595238Y-114961904D01*
X141633333Y-114885714D01*
X141633333Y-114771428D01*
X141595238Y-114695238D01*
X141557142Y-114657142D01*
X141480952Y-114619047D01*
X141176190Y-114619047D01*
X142128571Y-115038095D02*
X142280952Y-115038095D01*
X142357142Y-115000000D01*
X142433333Y-114923809D01*
X142471428Y-114771428D01*
X142471428Y-114504761D01*
X142433333Y-114352380D01*
X142357142Y-114276190D01*
X142280952Y-114238095D01*
X142128571Y-114238095D01*
X142052380Y-114276190D01*
X141976190Y-114352380D01*
X141938095Y-114504761D01*
X141938095Y-114771428D01*
X141976190Y-114923809D01*
X142052380Y-115000000D01*
X142128571Y-115038095D01*
X142966666Y-115038095D02*
X143042857Y-115038095D01*
X143119047Y-115000000D01*
X143157142Y-114961904D01*
X143195238Y-114885714D01*
X143233333Y-114733333D01*
X143233333Y-114542857D01*
X143195238Y-114390476D01*
X143157142Y-114314285D01*
X143119047Y-114276190D01*
X143042857Y-114238095D01*
X142966666Y-114238095D01*
X142890476Y-114276190D01*
X142852380Y-114314285D01*
X142814285Y-114390476D01*
X142776190Y-114542857D01*
X142776190Y-114733333D01*
X142814285Y-114885714D01*
X142852380Y-114961904D01*
X142890476Y-115000000D01*
X142966666Y-115038095D01*
X139188095Y-117588095D02*
X139454761Y-116788095D01*
X139721428Y-117588095D01*
X140254761Y-117207142D02*
X140369047Y-117169047D01*
X140407142Y-117130952D01*
X140445238Y-117054761D01*
X140445238Y-116940476D01*
X140407142Y-116864285D01*
X140369047Y-116826190D01*
X140292857Y-116788095D01*
X139988095Y-116788095D01*
X139988095Y-117588095D01*
X140254761Y-117588095D01*
X140330952Y-117550000D01*
X140369047Y-117511904D01*
X140407142Y-117435714D01*
X140407142Y-117359523D01*
X140369047Y-117283333D01*
X140330952Y-117245238D01*
X140254761Y-117207142D01*
X139988095Y-117207142D01*
X140788095Y-116788095D02*
X140788095Y-117588095D01*
X141130952Y-117016666D02*
X141511904Y-117016666D01*
X141054761Y-116788095D02*
X141321428Y-117588095D01*
X141588095Y-116788095D01*
X141816666Y-116826190D02*
X141930952Y-116788095D01*
X142121428Y-116788095D01*
X142197619Y-116826190D01*
X142235714Y-116864285D01*
X142273809Y-116940476D01*
X142273809Y-117016666D01*
X142235714Y-117092857D01*
X142197619Y-117130952D01*
X142121428Y-117169047D01*
X141969047Y-117207142D01*
X141892857Y-117245238D01*
X141854761Y-117283333D01*
X141816666Y-117359523D01*
X141816666Y-117435714D01*
X141854761Y-117511904D01*
X141892857Y-117550000D01*
X141969047Y-117588095D01*
X142159523Y-117588095D01*
X142273809Y-117550000D01*
X142769047Y-117588095D02*
X142845238Y-117588095D01*
X142921428Y-117550000D01*
X142959523Y-117511904D01*
X142997619Y-117435714D01*
X143035714Y-117283333D01*
X143035714Y-117092857D01*
X142997619Y-116940476D01*
X142959523Y-116864285D01*
X142921428Y-116826190D01*
X142845238Y-116788095D01*
X142769047Y-116788095D01*
X142692857Y-116826190D01*
X142654761Y-116864285D01*
X142616666Y-116940476D01*
X142578571Y-117092857D01*
X142578571Y-117283333D01*
X142616666Y-117435714D01*
X142654761Y-117511904D01*
X142692857Y-117550000D01*
X142769047Y-117588095D01*
X140464285Y-119757142D02*
X140578571Y-119719047D01*
X140616666Y-119680952D01*
X140654761Y-119604761D01*
X140654761Y-119490476D01*
X140616666Y-119414285D01*
X140578571Y-119376190D01*
X140502380Y-119338095D01*
X140197619Y-119338095D01*
X140197619Y-120138095D01*
X140464285Y-120138095D01*
X140540476Y-120100000D01*
X140578571Y-120061904D01*
X140616666Y-119985714D01*
X140616666Y-119909523D01*
X140578571Y-119833333D01*
X140540476Y-119795238D01*
X140464285Y-119757142D01*
X140197619Y-119757142D01*
X141150000Y-120138095D02*
X141302380Y-120138095D01*
X141378571Y-120100000D01*
X141454761Y-120023809D01*
X141492857Y-119871428D01*
X141492857Y-119604761D01*
X141454761Y-119452380D01*
X141378571Y-119376190D01*
X141302380Y-119338095D01*
X141150000Y-119338095D01*
X141073809Y-119376190D01*
X140997619Y-119452380D01*
X140959523Y-119604761D01*
X140959523Y-119871428D01*
X140997619Y-120023809D01*
X141073809Y-120100000D01*
X141150000Y-120138095D01*
X141988095Y-120138095D02*
X142140476Y-120138095D01*
X142216666Y-120100000D01*
X142292857Y-120023809D01*
X142330952Y-119871428D01*
X142330952Y-119604761D01*
X142292857Y-119452380D01*
X142216666Y-119376190D01*
X142140476Y-119338095D01*
X141988095Y-119338095D01*
X141911904Y-119376190D01*
X141835714Y-119452380D01*
X141797619Y-119604761D01*
X141797619Y-119871428D01*
X141835714Y-120023809D01*
X141911904Y-120100000D01*
X141988095Y-120138095D01*
X142559523Y-120138095D02*
X143016666Y-120138095D01*
X142788095Y-119338095D02*
X142788095Y-120138095D01*
X138185714Y-122026190D02*
X138300000Y-121988095D01*
X138490476Y-121988095D01*
X138566666Y-122026190D01*
X138604761Y-122064285D01*
X138642857Y-122140476D01*
X138642857Y-122216666D01*
X138604761Y-122292857D01*
X138566666Y-122330952D01*
X138490476Y-122369047D01*
X138338095Y-122407142D01*
X138261904Y-122445238D01*
X138223809Y-122483333D01*
X138185714Y-122559523D01*
X138185714Y-122635714D01*
X138223809Y-122711904D01*
X138261904Y-122750000D01*
X138338095Y-122788095D01*
X138528571Y-122788095D01*
X138642857Y-122750000D01*
X139138095Y-122369047D02*
X139138095Y-121988095D01*
X138871428Y-122788095D02*
X139138095Y-122369047D01*
X139404761Y-122788095D01*
X139633333Y-122026190D02*
X139747619Y-121988095D01*
X139938095Y-121988095D01*
X140014285Y-122026190D01*
X140052380Y-122064285D01*
X140090476Y-122140476D01*
X140090476Y-122216666D01*
X140052380Y-122292857D01*
X140014285Y-122330952D01*
X139938095Y-122369047D01*
X139785714Y-122407142D01*
X139709523Y-122445238D01*
X139671428Y-122483333D01*
X139633333Y-122559523D01*
X139633333Y-122635714D01*
X139671428Y-122711904D01*
X139709523Y-122750000D01*
X139785714Y-122788095D01*
X139976190Y-122788095D01*
X140090476Y-122750000D01*
X140357142Y-122788095D02*
X140547619Y-121988095D01*
X140700000Y-122559523D01*
X140852380Y-121988095D01*
X141042857Y-122788095D01*
X141309523Y-122216666D02*
X141690476Y-122216666D01*
X141233333Y-121988095D02*
X141500000Y-122788095D01*
X141766666Y-121988095D01*
X142033333Y-121988095D02*
X142033333Y-122788095D01*
X142490476Y-121988095D02*
X142147619Y-122445238D01*
X142490476Y-122788095D02*
X142033333Y-122330952D01*
X142833333Y-122407142D02*
X143100000Y-122407142D01*
X143214285Y-121988095D02*
X142833333Y-121988095D01*
X142833333Y-122788095D01*
X143214285Y-122788095D01*
D13*
X136630000Y-118890000D02*
X131430000Y-118890000D01*
X136630000Y-95970000D02*
X136630000Y-118890000D01*
X131430000Y-93370000D02*
X131430000Y-118890000D01*
X136630000Y-95970000D02*
X134030000Y-95970000D01*
X134030000Y-95970000D02*
X134030000Y-93370000D01*
X134030000Y-93370000D02*
X131430000Y-93370000D01*
X136630000Y-94700000D02*
X136630000Y-93370000D01*
X136630000Y-93370000D02*
X135300000Y-93370000D01*
X150980000Y-135120000D02*
X150980000Y-137780000D01*
X133140000Y-135120000D02*
X150980000Y-135120000D01*
X133140000Y-137780000D02*
X150980000Y-137780000D01*
X133140000Y-135120000D02*
X133140000Y-137780000D01*
X131870000Y-135120000D02*
X130540000Y-135120000D01*
X130540000Y-135120000D02*
X130540000Y-136450000D01*
X143860000Y-123330000D02*
X145190000Y-123330000D01*
X143860000Y-122000000D02*
X143860000Y-123330000D01*
X146460000Y-123330000D02*
X149060000Y-123330000D01*
X146460000Y-120730000D02*
X146460000Y-123330000D01*
X143860000Y-120730000D02*
X146460000Y-120730000D01*
X149060000Y-123330000D02*
X149060000Y-97810000D01*
X143860000Y-120730000D02*
X143860000Y-97810000D01*
X143860000Y-97810000D02*
X149060000Y-97810000D01*
D10*
X134363333Y-91822380D02*
X134363333Y-92536666D01*
X134410952Y-92679523D01*
X134506190Y-92774761D01*
X134649047Y-92822380D01*
X134744285Y-92822380D01*
X133363333Y-92822380D02*
X133934761Y-92822380D01*
X133649047Y-92822380D02*
X133649047Y-91822380D01*
X133744285Y-91965238D01*
X133839523Y-92060476D01*
X133934761Y-92108095D01*
X152202380Y-136366666D02*
X152916666Y-136366666D01*
X153059523Y-136319047D01*
X153154761Y-136223809D01*
X153202380Y-136080952D01*
X153202380Y-135985714D01*
X152202380Y-136747619D02*
X152202380Y-137366666D01*
X152583333Y-137033333D01*
X152583333Y-137176190D01*
X152630952Y-137271428D01*
X152678571Y-137319047D01*
X152773809Y-137366666D01*
X153011904Y-137366666D01*
X153107142Y-137319047D01*
X153154761Y-137271428D01*
X153202380Y-137176190D01*
X153202380Y-136890476D01*
X153154761Y-136795238D01*
X153107142Y-136747619D01*
X146793333Y-123782380D02*
X146793333Y-124496666D01*
X146840952Y-124639523D01*
X146936190Y-124734761D01*
X147079047Y-124782380D01*
X147174285Y-124782380D01*
X145888571Y-124115714D02*
X145888571Y-124782380D01*
X146126666Y-123734761D02*
X146364761Y-124449047D01*
X145745714Y-124449047D01*
M02*
