G04 #@! TF.GenerationSoftware,KiCad,Pcbnew,(5.1.2)-1*
G04 #@! TF.CreationDate,2022-05-17T10:22:14-05:00*
G04 #@! TF.ProjectId,jtag_gpio_breakout,6a746167-5f67-4706-996f-5f627265616b,rev?*
G04 #@! TF.SameCoordinates,Original*
G04 #@! TF.FileFunction,Soldermask,Top*
G04 #@! TF.FilePolarity,Negative*
%FSLAX46Y46*%
G04 Gerber Fmt 4.6, Leading zero omitted, Abs format (unit mm)*
G04 Created by KiCad (PCBNEW (5.1.2)-1) date 2022-05-17 10:22:14*
%MOMM*%
%LPD*%
G04 APERTURE LIST*
%ADD10C,0.100000*%
G04 APERTURE END LIST*
D10*
G36*
X150770099Y-144347033D02*
G01*
X151234351Y-144539332D01*
X151234353Y-144539333D01*
X151652169Y-144818509D01*
X152007492Y-145173832D01*
X152286668Y-145591648D01*
X152286669Y-145591650D01*
X152478968Y-146055902D01*
X152577001Y-146548747D01*
X152577001Y-147051253D01*
X152478968Y-147544098D01*
X152286669Y-148008350D01*
X152286668Y-148008352D01*
X152007492Y-148426168D01*
X151652169Y-148781491D01*
X151234353Y-149060667D01*
X151234352Y-149060668D01*
X151234351Y-149060668D01*
X150770099Y-149252967D01*
X150277254Y-149351000D01*
X149774748Y-149351000D01*
X149281903Y-149252967D01*
X148817651Y-149060668D01*
X148817650Y-149060668D01*
X148817649Y-149060667D01*
X148399833Y-148781491D01*
X148044510Y-148426168D01*
X147765334Y-148008352D01*
X147765333Y-148008350D01*
X147573034Y-147544098D01*
X147475001Y-147051253D01*
X147475001Y-146548747D01*
X147573034Y-146055902D01*
X147765333Y-145591650D01*
X147765334Y-145591648D01*
X148044510Y-145173832D01*
X148399833Y-144818509D01*
X148817649Y-144539333D01*
X148817651Y-144539332D01*
X149281903Y-144347033D01*
X149774748Y-144249000D01*
X150277254Y-144249000D01*
X150770099Y-144347033D01*
X150770099Y-144347033D01*
G37*
G36*
X133718097Y-144347033D02*
G01*
X134182349Y-144539332D01*
X134182351Y-144539333D01*
X134600167Y-144818509D01*
X134955490Y-145173832D01*
X135234666Y-145591648D01*
X135234667Y-145591650D01*
X135426966Y-146055902D01*
X135524999Y-146548747D01*
X135524999Y-147051253D01*
X135426966Y-147544098D01*
X135234667Y-148008350D01*
X135234666Y-148008352D01*
X134955490Y-148426168D01*
X134600167Y-148781491D01*
X134182351Y-149060667D01*
X134182350Y-149060668D01*
X134182349Y-149060668D01*
X133718097Y-149252967D01*
X133225252Y-149351000D01*
X132722746Y-149351000D01*
X132229901Y-149252967D01*
X131765649Y-149060668D01*
X131765648Y-149060668D01*
X131765647Y-149060667D01*
X131347831Y-148781491D01*
X130992508Y-148426168D01*
X130713332Y-148008352D01*
X130713331Y-148008350D01*
X130521032Y-147544098D01*
X130422999Y-147051253D01*
X130422999Y-146548747D01*
X130521032Y-146055902D01*
X130713331Y-145591650D01*
X130713332Y-145591648D01*
X130992508Y-145173832D01*
X131347831Y-144818509D01*
X131765647Y-144539333D01*
X131765649Y-144539332D01*
X132229901Y-144347033D01*
X132722746Y-144249000D01*
X133225252Y-144249000D01*
X133718097Y-144347033D01*
X133718097Y-144347033D01*
G37*
G36*
X132771000Y-137351000D02*
G01*
X130969000Y-137351000D01*
X130969000Y-135549000D01*
X132771000Y-135549000D01*
X132771000Y-137351000D01*
X132771000Y-137351000D01*
G37*
G36*
X137060443Y-135555519D02*
G01*
X137126627Y-135562037D01*
X137296466Y-135613557D01*
X137452991Y-135697222D01*
X137488729Y-135726552D01*
X137590186Y-135809814D01*
X137673448Y-135911271D01*
X137702778Y-135947009D01*
X137786443Y-136103534D01*
X137837963Y-136273373D01*
X137855359Y-136450000D01*
X137837963Y-136626627D01*
X137786443Y-136796466D01*
X137702778Y-136952991D01*
X137673448Y-136988729D01*
X137590186Y-137090186D01*
X137488729Y-137173448D01*
X137452991Y-137202778D01*
X137296466Y-137286443D01*
X137126627Y-137337963D01*
X137060442Y-137344482D01*
X136994260Y-137351000D01*
X136905740Y-137351000D01*
X136839558Y-137344482D01*
X136773373Y-137337963D01*
X136603534Y-137286443D01*
X136447009Y-137202778D01*
X136411271Y-137173448D01*
X136309814Y-137090186D01*
X136226552Y-136988729D01*
X136197222Y-136952991D01*
X136113557Y-136796466D01*
X136062037Y-136626627D01*
X136044641Y-136450000D01*
X136062037Y-136273373D01*
X136113557Y-136103534D01*
X136197222Y-135947009D01*
X136226552Y-135911271D01*
X136309814Y-135809814D01*
X136411271Y-135726552D01*
X136447009Y-135697222D01*
X136603534Y-135613557D01*
X136773373Y-135562037D01*
X136839557Y-135555519D01*
X136905740Y-135549000D01*
X136994260Y-135549000D01*
X137060443Y-135555519D01*
X137060443Y-135555519D01*
G37*
G36*
X139600443Y-135555519D02*
G01*
X139666627Y-135562037D01*
X139836466Y-135613557D01*
X139992991Y-135697222D01*
X140028729Y-135726552D01*
X140130186Y-135809814D01*
X140213448Y-135911271D01*
X140242778Y-135947009D01*
X140326443Y-136103534D01*
X140377963Y-136273373D01*
X140395359Y-136450000D01*
X140377963Y-136626627D01*
X140326443Y-136796466D01*
X140242778Y-136952991D01*
X140213448Y-136988729D01*
X140130186Y-137090186D01*
X140028729Y-137173448D01*
X139992991Y-137202778D01*
X139836466Y-137286443D01*
X139666627Y-137337963D01*
X139600442Y-137344482D01*
X139534260Y-137351000D01*
X139445740Y-137351000D01*
X139379558Y-137344482D01*
X139313373Y-137337963D01*
X139143534Y-137286443D01*
X138987009Y-137202778D01*
X138951271Y-137173448D01*
X138849814Y-137090186D01*
X138766552Y-136988729D01*
X138737222Y-136952991D01*
X138653557Y-136796466D01*
X138602037Y-136626627D01*
X138584641Y-136450000D01*
X138602037Y-136273373D01*
X138653557Y-136103534D01*
X138737222Y-135947009D01*
X138766552Y-135911271D01*
X138849814Y-135809814D01*
X138951271Y-135726552D01*
X138987009Y-135697222D01*
X139143534Y-135613557D01*
X139313373Y-135562037D01*
X139379557Y-135555519D01*
X139445740Y-135549000D01*
X139534260Y-135549000D01*
X139600443Y-135555519D01*
X139600443Y-135555519D01*
G37*
G36*
X142140443Y-135555519D02*
G01*
X142206627Y-135562037D01*
X142376466Y-135613557D01*
X142532991Y-135697222D01*
X142568729Y-135726552D01*
X142670186Y-135809814D01*
X142753448Y-135911271D01*
X142782778Y-135947009D01*
X142866443Y-136103534D01*
X142917963Y-136273373D01*
X142935359Y-136450000D01*
X142917963Y-136626627D01*
X142866443Y-136796466D01*
X142782778Y-136952991D01*
X142753448Y-136988729D01*
X142670186Y-137090186D01*
X142568729Y-137173448D01*
X142532991Y-137202778D01*
X142376466Y-137286443D01*
X142206627Y-137337963D01*
X142140442Y-137344482D01*
X142074260Y-137351000D01*
X141985740Y-137351000D01*
X141919558Y-137344482D01*
X141853373Y-137337963D01*
X141683534Y-137286443D01*
X141527009Y-137202778D01*
X141491271Y-137173448D01*
X141389814Y-137090186D01*
X141306552Y-136988729D01*
X141277222Y-136952991D01*
X141193557Y-136796466D01*
X141142037Y-136626627D01*
X141124641Y-136450000D01*
X141142037Y-136273373D01*
X141193557Y-136103534D01*
X141277222Y-135947009D01*
X141306552Y-135911271D01*
X141389814Y-135809814D01*
X141491271Y-135726552D01*
X141527009Y-135697222D01*
X141683534Y-135613557D01*
X141853373Y-135562037D01*
X141919557Y-135555519D01*
X141985740Y-135549000D01*
X142074260Y-135549000D01*
X142140443Y-135555519D01*
X142140443Y-135555519D01*
G37*
G36*
X144680443Y-135555519D02*
G01*
X144746627Y-135562037D01*
X144916466Y-135613557D01*
X145072991Y-135697222D01*
X145108729Y-135726552D01*
X145210186Y-135809814D01*
X145293448Y-135911271D01*
X145322778Y-135947009D01*
X145406443Y-136103534D01*
X145457963Y-136273373D01*
X145475359Y-136450000D01*
X145457963Y-136626627D01*
X145406443Y-136796466D01*
X145322778Y-136952991D01*
X145293448Y-136988729D01*
X145210186Y-137090186D01*
X145108729Y-137173448D01*
X145072991Y-137202778D01*
X144916466Y-137286443D01*
X144746627Y-137337963D01*
X144680442Y-137344482D01*
X144614260Y-137351000D01*
X144525740Y-137351000D01*
X144459558Y-137344482D01*
X144393373Y-137337963D01*
X144223534Y-137286443D01*
X144067009Y-137202778D01*
X144031271Y-137173448D01*
X143929814Y-137090186D01*
X143846552Y-136988729D01*
X143817222Y-136952991D01*
X143733557Y-136796466D01*
X143682037Y-136626627D01*
X143664641Y-136450000D01*
X143682037Y-136273373D01*
X143733557Y-136103534D01*
X143817222Y-135947009D01*
X143846552Y-135911271D01*
X143929814Y-135809814D01*
X144031271Y-135726552D01*
X144067009Y-135697222D01*
X144223534Y-135613557D01*
X144393373Y-135562037D01*
X144459557Y-135555519D01*
X144525740Y-135549000D01*
X144614260Y-135549000D01*
X144680443Y-135555519D01*
X144680443Y-135555519D01*
G37*
G36*
X147220443Y-135555519D02*
G01*
X147286627Y-135562037D01*
X147456466Y-135613557D01*
X147612991Y-135697222D01*
X147648729Y-135726552D01*
X147750186Y-135809814D01*
X147833448Y-135911271D01*
X147862778Y-135947009D01*
X147946443Y-136103534D01*
X147997963Y-136273373D01*
X148015359Y-136450000D01*
X147997963Y-136626627D01*
X147946443Y-136796466D01*
X147862778Y-136952991D01*
X147833448Y-136988729D01*
X147750186Y-137090186D01*
X147648729Y-137173448D01*
X147612991Y-137202778D01*
X147456466Y-137286443D01*
X147286627Y-137337963D01*
X147220442Y-137344482D01*
X147154260Y-137351000D01*
X147065740Y-137351000D01*
X146999558Y-137344482D01*
X146933373Y-137337963D01*
X146763534Y-137286443D01*
X146607009Y-137202778D01*
X146571271Y-137173448D01*
X146469814Y-137090186D01*
X146386552Y-136988729D01*
X146357222Y-136952991D01*
X146273557Y-136796466D01*
X146222037Y-136626627D01*
X146204641Y-136450000D01*
X146222037Y-136273373D01*
X146273557Y-136103534D01*
X146357222Y-135947009D01*
X146386552Y-135911271D01*
X146469814Y-135809814D01*
X146571271Y-135726552D01*
X146607009Y-135697222D01*
X146763534Y-135613557D01*
X146933373Y-135562037D01*
X146999557Y-135555519D01*
X147065740Y-135549000D01*
X147154260Y-135549000D01*
X147220443Y-135555519D01*
X147220443Y-135555519D01*
G37*
G36*
X149760443Y-135555519D02*
G01*
X149826627Y-135562037D01*
X149996466Y-135613557D01*
X150152991Y-135697222D01*
X150188729Y-135726552D01*
X150290186Y-135809814D01*
X150373448Y-135911271D01*
X150402778Y-135947009D01*
X150486443Y-136103534D01*
X150537963Y-136273373D01*
X150555359Y-136450000D01*
X150537963Y-136626627D01*
X150486443Y-136796466D01*
X150402778Y-136952991D01*
X150373448Y-136988729D01*
X150290186Y-137090186D01*
X150188729Y-137173448D01*
X150152991Y-137202778D01*
X149996466Y-137286443D01*
X149826627Y-137337963D01*
X149760442Y-137344482D01*
X149694260Y-137351000D01*
X149605740Y-137351000D01*
X149539558Y-137344482D01*
X149473373Y-137337963D01*
X149303534Y-137286443D01*
X149147009Y-137202778D01*
X149111271Y-137173448D01*
X149009814Y-137090186D01*
X148926552Y-136988729D01*
X148897222Y-136952991D01*
X148813557Y-136796466D01*
X148762037Y-136626627D01*
X148744641Y-136450000D01*
X148762037Y-136273373D01*
X148813557Y-136103534D01*
X148897222Y-135947009D01*
X148926552Y-135911271D01*
X149009814Y-135809814D01*
X149111271Y-135726552D01*
X149147009Y-135697222D01*
X149303534Y-135613557D01*
X149473373Y-135562037D01*
X149539557Y-135555519D01*
X149605740Y-135549000D01*
X149694260Y-135549000D01*
X149760443Y-135555519D01*
X149760443Y-135555519D01*
G37*
G36*
X134520443Y-135555519D02*
G01*
X134586627Y-135562037D01*
X134756466Y-135613557D01*
X134912991Y-135697222D01*
X134948729Y-135726552D01*
X135050186Y-135809814D01*
X135133448Y-135911271D01*
X135162778Y-135947009D01*
X135246443Y-136103534D01*
X135297963Y-136273373D01*
X135315359Y-136450000D01*
X135297963Y-136626627D01*
X135246443Y-136796466D01*
X135162778Y-136952991D01*
X135133448Y-136988729D01*
X135050186Y-137090186D01*
X134948729Y-137173448D01*
X134912991Y-137202778D01*
X134756466Y-137286443D01*
X134586627Y-137337963D01*
X134520442Y-137344482D01*
X134454260Y-137351000D01*
X134365740Y-137351000D01*
X134299558Y-137344482D01*
X134233373Y-137337963D01*
X134063534Y-137286443D01*
X133907009Y-137202778D01*
X133871271Y-137173448D01*
X133769814Y-137090186D01*
X133686552Y-136988729D01*
X133657222Y-136952991D01*
X133573557Y-136796466D01*
X133522037Y-136626627D01*
X133504641Y-136450000D01*
X133522037Y-136273373D01*
X133573557Y-136103534D01*
X133657222Y-135947009D01*
X133686552Y-135911271D01*
X133769814Y-135809814D01*
X133871271Y-135726552D01*
X133907009Y-135697222D01*
X134063534Y-135613557D01*
X134233373Y-135562037D01*
X134299557Y-135555519D01*
X134365740Y-135549000D01*
X134454260Y-135549000D01*
X134520443Y-135555519D01*
X134520443Y-135555519D01*
G37*
G36*
X147266000Y-131741000D02*
G01*
X135832000Y-131741000D01*
X135832000Y-130539000D01*
X147266000Y-130539000D01*
X147266000Y-131741000D01*
X147266000Y-131741000D01*
G37*
G36*
X147264000Y-130241000D02*
G01*
X135832000Y-130241000D01*
X135832000Y-129039000D01*
X147264000Y-129039000D01*
X147264000Y-130241000D01*
X147264000Y-130241000D01*
G37*
G36*
X146091000Y-122901000D02*
G01*
X144289000Y-122901000D01*
X144289000Y-121099000D01*
X146091000Y-121099000D01*
X146091000Y-122901000D01*
X146091000Y-122901000D01*
G37*
G36*
X147840442Y-121105518D02*
G01*
X147906627Y-121112037D01*
X148076466Y-121163557D01*
X148232991Y-121247222D01*
X148268729Y-121276552D01*
X148370186Y-121359814D01*
X148453448Y-121461271D01*
X148482778Y-121497009D01*
X148566443Y-121653534D01*
X148617963Y-121823373D01*
X148635359Y-122000000D01*
X148617963Y-122176627D01*
X148566443Y-122346466D01*
X148482778Y-122502991D01*
X148453448Y-122538729D01*
X148370186Y-122640186D01*
X148268729Y-122723448D01*
X148232991Y-122752778D01*
X148076466Y-122836443D01*
X147906627Y-122887963D01*
X147840442Y-122894482D01*
X147774260Y-122901000D01*
X147685740Y-122901000D01*
X147619558Y-122894482D01*
X147553373Y-122887963D01*
X147383534Y-122836443D01*
X147227009Y-122752778D01*
X147191271Y-122723448D01*
X147089814Y-122640186D01*
X147006552Y-122538729D01*
X146977222Y-122502991D01*
X146893557Y-122346466D01*
X146842037Y-122176627D01*
X146824641Y-122000000D01*
X146842037Y-121823373D01*
X146893557Y-121653534D01*
X146977222Y-121497009D01*
X147006552Y-121461271D01*
X147089814Y-121359814D01*
X147191271Y-121276552D01*
X147227009Y-121247222D01*
X147383534Y-121163557D01*
X147553373Y-121112037D01*
X147619558Y-121105518D01*
X147685740Y-121099000D01*
X147774260Y-121099000D01*
X147840442Y-121105518D01*
X147840442Y-121105518D01*
G37*
G36*
X145300442Y-118565518D02*
G01*
X145366627Y-118572037D01*
X145536466Y-118623557D01*
X145692991Y-118707222D01*
X145728729Y-118736552D01*
X145830186Y-118819814D01*
X145913448Y-118921271D01*
X145942778Y-118957009D01*
X146026443Y-119113534D01*
X146077963Y-119283373D01*
X146095359Y-119460000D01*
X146077963Y-119636627D01*
X146026443Y-119806466D01*
X145942778Y-119962991D01*
X145913448Y-119998729D01*
X145830186Y-120100186D01*
X145728729Y-120183448D01*
X145692991Y-120212778D01*
X145536466Y-120296443D01*
X145366627Y-120347963D01*
X145300442Y-120354482D01*
X145234260Y-120361000D01*
X145145740Y-120361000D01*
X145079558Y-120354482D01*
X145013373Y-120347963D01*
X144843534Y-120296443D01*
X144687009Y-120212778D01*
X144651271Y-120183448D01*
X144549814Y-120100186D01*
X144466552Y-119998729D01*
X144437222Y-119962991D01*
X144353557Y-119806466D01*
X144302037Y-119636627D01*
X144284641Y-119460000D01*
X144302037Y-119283373D01*
X144353557Y-119113534D01*
X144437222Y-118957009D01*
X144466552Y-118921271D01*
X144549814Y-118819814D01*
X144651271Y-118736552D01*
X144687009Y-118707222D01*
X144843534Y-118623557D01*
X145013373Y-118572037D01*
X145079558Y-118565518D01*
X145145740Y-118559000D01*
X145234260Y-118559000D01*
X145300442Y-118565518D01*
X145300442Y-118565518D01*
G37*
G36*
X147840442Y-118565518D02*
G01*
X147906627Y-118572037D01*
X148076466Y-118623557D01*
X148232991Y-118707222D01*
X148268729Y-118736552D01*
X148370186Y-118819814D01*
X148453448Y-118921271D01*
X148482778Y-118957009D01*
X148566443Y-119113534D01*
X148617963Y-119283373D01*
X148635359Y-119460000D01*
X148617963Y-119636627D01*
X148566443Y-119806466D01*
X148482778Y-119962991D01*
X148453448Y-119998729D01*
X148370186Y-120100186D01*
X148268729Y-120183448D01*
X148232991Y-120212778D01*
X148076466Y-120296443D01*
X147906627Y-120347963D01*
X147840442Y-120354482D01*
X147774260Y-120361000D01*
X147685740Y-120361000D01*
X147619558Y-120354482D01*
X147553373Y-120347963D01*
X147383534Y-120296443D01*
X147227009Y-120212778D01*
X147191271Y-120183448D01*
X147089814Y-120100186D01*
X147006552Y-119998729D01*
X146977222Y-119962991D01*
X146893557Y-119806466D01*
X146842037Y-119636627D01*
X146824641Y-119460000D01*
X146842037Y-119283373D01*
X146893557Y-119113534D01*
X146977222Y-118957009D01*
X147006552Y-118921271D01*
X147089814Y-118819814D01*
X147191271Y-118736552D01*
X147227009Y-118707222D01*
X147383534Y-118623557D01*
X147553373Y-118572037D01*
X147619558Y-118565518D01*
X147685740Y-118559000D01*
X147774260Y-118559000D01*
X147840442Y-118565518D01*
X147840442Y-118565518D01*
G37*
G36*
X135410443Y-116665519D02*
G01*
X135476627Y-116672037D01*
X135646466Y-116723557D01*
X135802991Y-116807222D01*
X135838729Y-116836552D01*
X135940186Y-116919814D01*
X136023448Y-117021271D01*
X136052778Y-117057009D01*
X136136443Y-117213534D01*
X136187963Y-117383373D01*
X136205359Y-117560000D01*
X136187963Y-117736627D01*
X136136443Y-117906466D01*
X136052778Y-118062991D01*
X136023448Y-118098729D01*
X135940186Y-118200186D01*
X135838729Y-118283448D01*
X135802991Y-118312778D01*
X135646466Y-118396443D01*
X135476627Y-118447963D01*
X135410442Y-118454482D01*
X135344260Y-118461000D01*
X135255740Y-118461000D01*
X135189558Y-118454482D01*
X135123373Y-118447963D01*
X134953534Y-118396443D01*
X134797009Y-118312778D01*
X134761271Y-118283448D01*
X134659814Y-118200186D01*
X134576552Y-118098729D01*
X134547222Y-118062991D01*
X134463557Y-117906466D01*
X134412037Y-117736627D01*
X134394641Y-117560000D01*
X134412037Y-117383373D01*
X134463557Y-117213534D01*
X134547222Y-117057009D01*
X134576552Y-117021271D01*
X134659814Y-116919814D01*
X134761271Y-116836552D01*
X134797009Y-116807222D01*
X134953534Y-116723557D01*
X135123373Y-116672037D01*
X135189557Y-116665519D01*
X135255740Y-116659000D01*
X135344260Y-116659000D01*
X135410443Y-116665519D01*
X135410443Y-116665519D01*
G37*
G36*
X132870443Y-116665519D02*
G01*
X132936627Y-116672037D01*
X133106466Y-116723557D01*
X133262991Y-116807222D01*
X133298729Y-116836552D01*
X133400186Y-116919814D01*
X133483448Y-117021271D01*
X133512778Y-117057009D01*
X133596443Y-117213534D01*
X133647963Y-117383373D01*
X133665359Y-117560000D01*
X133647963Y-117736627D01*
X133596443Y-117906466D01*
X133512778Y-118062991D01*
X133483448Y-118098729D01*
X133400186Y-118200186D01*
X133298729Y-118283448D01*
X133262991Y-118312778D01*
X133106466Y-118396443D01*
X132936627Y-118447963D01*
X132870442Y-118454482D01*
X132804260Y-118461000D01*
X132715740Y-118461000D01*
X132649558Y-118454482D01*
X132583373Y-118447963D01*
X132413534Y-118396443D01*
X132257009Y-118312778D01*
X132221271Y-118283448D01*
X132119814Y-118200186D01*
X132036552Y-118098729D01*
X132007222Y-118062991D01*
X131923557Y-117906466D01*
X131872037Y-117736627D01*
X131854641Y-117560000D01*
X131872037Y-117383373D01*
X131923557Y-117213534D01*
X132007222Y-117057009D01*
X132036552Y-117021271D01*
X132119814Y-116919814D01*
X132221271Y-116836552D01*
X132257009Y-116807222D01*
X132413534Y-116723557D01*
X132583373Y-116672037D01*
X132649557Y-116665519D01*
X132715740Y-116659000D01*
X132804260Y-116659000D01*
X132870443Y-116665519D01*
X132870443Y-116665519D01*
G37*
G36*
X147840443Y-116025519D02*
G01*
X147906627Y-116032037D01*
X148076466Y-116083557D01*
X148232991Y-116167222D01*
X148268729Y-116196552D01*
X148370186Y-116279814D01*
X148453448Y-116381271D01*
X148482778Y-116417009D01*
X148566443Y-116573534D01*
X148617963Y-116743373D01*
X148635359Y-116920000D01*
X148617963Y-117096627D01*
X148566443Y-117266466D01*
X148482778Y-117422991D01*
X148453448Y-117458729D01*
X148370186Y-117560186D01*
X148268729Y-117643448D01*
X148232991Y-117672778D01*
X148076466Y-117756443D01*
X147906627Y-117807963D01*
X147840443Y-117814481D01*
X147774260Y-117821000D01*
X147685740Y-117821000D01*
X147619557Y-117814481D01*
X147553373Y-117807963D01*
X147383534Y-117756443D01*
X147227009Y-117672778D01*
X147191271Y-117643448D01*
X147089814Y-117560186D01*
X147006552Y-117458729D01*
X146977222Y-117422991D01*
X146893557Y-117266466D01*
X146842037Y-117096627D01*
X146824641Y-116920000D01*
X146842037Y-116743373D01*
X146893557Y-116573534D01*
X146977222Y-116417009D01*
X147006552Y-116381271D01*
X147089814Y-116279814D01*
X147191271Y-116196552D01*
X147227009Y-116167222D01*
X147383534Y-116083557D01*
X147553373Y-116032037D01*
X147619557Y-116025519D01*
X147685740Y-116019000D01*
X147774260Y-116019000D01*
X147840443Y-116025519D01*
X147840443Y-116025519D01*
G37*
G36*
X145300443Y-116025519D02*
G01*
X145366627Y-116032037D01*
X145536466Y-116083557D01*
X145692991Y-116167222D01*
X145728729Y-116196552D01*
X145830186Y-116279814D01*
X145913448Y-116381271D01*
X145942778Y-116417009D01*
X146026443Y-116573534D01*
X146077963Y-116743373D01*
X146095359Y-116920000D01*
X146077963Y-117096627D01*
X146026443Y-117266466D01*
X145942778Y-117422991D01*
X145913448Y-117458729D01*
X145830186Y-117560186D01*
X145728729Y-117643448D01*
X145692991Y-117672778D01*
X145536466Y-117756443D01*
X145366627Y-117807963D01*
X145300443Y-117814481D01*
X145234260Y-117821000D01*
X145145740Y-117821000D01*
X145079557Y-117814481D01*
X145013373Y-117807963D01*
X144843534Y-117756443D01*
X144687009Y-117672778D01*
X144651271Y-117643448D01*
X144549814Y-117560186D01*
X144466552Y-117458729D01*
X144437222Y-117422991D01*
X144353557Y-117266466D01*
X144302037Y-117096627D01*
X144284641Y-116920000D01*
X144302037Y-116743373D01*
X144353557Y-116573534D01*
X144437222Y-116417009D01*
X144466552Y-116381271D01*
X144549814Y-116279814D01*
X144651271Y-116196552D01*
X144687009Y-116167222D01*
X144843534Y-116083557D01*
X145013373Y-116032037D01*
X145079557Y-116025519D01*
X145145740Y-116019000D01*
X145234260Y-116019000D01*
X145300443Y-116025519D01*
X145300443Y-116025519D01*
G37*
G36*
X132870443Y-114125519D02*
G01*
X132936627Y-114132037D01*
X133106466Y-114183557D01*
X133262991Y-114267222D01*
X133298729Y-114296552D01*
X133400186Y-114379814D01*
X133483448Y-114481271D01*
X133512778Y-114517009D01*
X133596443Y-114673534D01*
X133647963Y-114843373D01*
X133665359Y-115020000D01*
X133647963Y-115196627D01*
X133596443Y-115366466D01*
X133512778Y-115522991D01*
X133483448Y-115558729D01*
X133400186Y-115660186D01*
X133298729Y-115743448D01*
X133262991Y-115772778D01*
X133106466Y-115856443D01*
X132936627Y-115907963D01*
X132870443Y-115914481D01*
X132804260Y-115921000D01*
X132715740Y-115921000D01*
X132649557Y-115914481D01*
X132583373Y-115907963D01*
X132413534Y-115856443D01*
X132257009Y-115772778D01*
X132221271Y-115743448D01*
X132119814Y-115660186D01*
X132036552Y-115558729D01*
X132007222Y-115522991D01*
X131923557Y-115366466D01*
X131872037Y-115196627D01*
X131854641Y-115020000D01*
X131872037Y-114843373D01*
X131923557Y-114673534D01*
X132007222Y-114517009D01*
X132036552Y-114481271D01*
X132119814Y-114379814D01*
X132221271Y-114296552D01*
X132257009Y-114267222D01*
X132413534Y-114183557D01*
X132583373Y-114132037D01*
X132649557Y-114125519D01*
X132715740Y-114119000D01*
X132804260Y-114119000D01*
X132870443Y-114125519D01*
X132870443Y-114125519D01*
G37*
G36*
X135410443Y-114125519D02*
G01*
X135476627Y-114132037D01*
X135646466Y-114183557D01*
X135802991Y-114267222D01*
X135838729Y-114296552D01*
X135940186Y-114379814D01*
X136023448Y-114481271D01*
X136052778Y-114517009D01*
X136136443Y-114673534D01*
X136187963Y-114843373D01*
X136205359Y-115020000D01*
X136187963Y-115196627D01*
X136136443Y-115366466D01*
X136052778Y-115522991D01*
X136023448Y-115558729D01*
X135940186Y-115660186D01*
X135838729Y-115743448D01*
X135802991Y-115772778D01*
X135646466Y-115856443D01*
X135476627Y-115907963D01*
X135410443Y-115914481D01*
X135344260Y-115921000D01*
X135255740Y-115921000D01*
X135189557Y-115914481D01*
X135123373Y-115907963D01*
X134953534Y-115856443D01*
X134797009Y-115772778D01*
X134761271Y-115743448D01*
X134659814Y-115660186D01*
X134576552Y-115558729D01*
X134547222Y-115522991D01*
X134463557Y-115366466D01*
X134412037Y-115196627D01*
X134394641Y-115020000D01*
X134412037Y-114843373D01*
X134463557Y-114673534D01*
X134547222Y-114517009D01*
X134576552Y-114481271D01*
X134659814Y-114379814D01*
X134761271Y-114296552D01*
X134797009Y-114267222D01*
X134953534Y-114183557D01*
X135123373Y-114132037D01*
X135189557Y-114125519D01*
X135255740Y-114119000D01*
X135344260Y-114119000D01*
X135410443Y-114125519D01*
X135410443Y-114125519D01*
G37*
G36*
X147840443Y-113485519D02*
G01*
X147906627Y-113492037D01*
X148076466Y-113543557D01*
X148232991Y-113627222D01*
X148268729Y-113656552D01*
X148370186Y-113739814D01*
X148453448Y-113841271D01*
X148482778Y-113877009D01*
X148566443Y-114033534D01*
X148617963Y-114203373D01*
X148635359Y-114380000D01*
X148617963Y-114556627D01*
X148566443Y-114726466D01*
X148482778Y-114882991D01*
X148453448Y-114918729D01*
X148370186Y-115020186D01*
X148268729Y-115103448D01*
X148232991Y-115132778D01*
X148076466Y-115216443D01*
X147906627Y-115267963D01*
X147840442Y-115274482D01*
X147774260Y-115281000D01*
X147685740Y-115281000D01*
X147619558Y-115274482D01*
X147553373Y-115267963D01*
X147383534Y-115216443D01*
X147227009Y-115132778D01*
X147191271Y-115103448D01*
X147089814Y-115020186D01*
X147006552Y-114918729D01*
X146977222Y-114882991D01*
X146893557Y-114726466D01*
X146842037Y-114556627D01*
X146824641Y-114380000D01*
X146842037Y-114203373D01*
X146893557Y-114033534D01*
X146977222Y-113877009D01*
X147006552Y-113841271D01*
X147089814Y-113739814D01*
X147191271Y-113656552D01*
X147227009Y-113627222D01*
X147383534Y-113543557D01*
X147553373Y-113492037D01*
X147619557Y-113485519D01*
X147685740Y-113479000D01*
X147774260Y-113479000D01*
X147840443Y-113485519D01*
X147840443Y-113485519D01*
G37*
G36*
X145300443Y-113485519D02*
G01*
X145366627Y-113492037D01*
X145536466Y-113543557D01*
X145692991Y-113627222D01*
X145728729Y-113656552D01*
X145830186Y-113739814D01*
X145913448Y-113841271D01*
X145942778Y-113877009D01*
X146026443Y-114033534D01*
X146077963Y-114203373D01*
X146095359Y-114380000D01*
X146077963Y-114556627D01*
X146026443Y-114726466D01*
X145942778Y-114882991D01*
X145913448Y-114918729D01*
X145830186Y-115020186D01*
X145728729Y-115103448D01*
X145692991Y-115132778D01*
X145536466Y-115216443D01*
X145366627Y-115267963D01*
X145300442Y-115274482D01*
X145234260Y-115281000D01*
X145145740Y-115281000D01*
X145079558Y-115274482D01*
X145013373Y-115267963D01*
X144843534Y-115216443D01*
X144687009Y-115132778D01*
X144651271Y-115103448D01*
X144549814Y-115020186D01*
X144466552Y-114918729D01*
X144437222Y-114882991D01*
X144353557Y-114726466D01*
X144302037Y-114556627D01*
X144284641Y-114380000D01*
X144302037Y-114203373D01*
X144353557Y-114033534D01*
X144437222Y-113877009D01*
X144466552Y-113841271D01*
X144549814Y-113739814D01*
X144651271Y-113656552D01*
X144687009Y-113627222D01*
X144843534Y-113543557D01*
X145013373Y-113492037D01*
X145079557Y-113485519D01*
X145145740Y-113479000D01*
X145234260Y-113479000D01*
X145300443Y-113485519D01*
X145300443Y-113485519D01*
G37*
G36*
X132870443Y-111585519D02*
G01*
X132936627Y-111592037D01*
X133106466Y-111643557D01*
X133262991Y-111727222D01*
X133298729Y-111756552D01*
X133400186Y-111839814D01*
X133483448Y-111941271D01*
X133512778Y-111977009D01*
X133596443Y-112133534D01*
X133647963Y-112303373D01*
X133665359Y-112480000D01*
X133647963Y-112656627D01*
X133596443Y-112826466D01*
X133512778Y-112982991D01*
X133483448Y-113018729D01*
X133400186Y-113120186D01*
X133298729Y-113203448D01*
X133262991Y-113232778D01*
X133106466Y-113316443D01*
X132936627Y-113367963D01*
X132870443Y-113374481D01*
X132804260Y-113381000D01*
X132715740Y-113381000D01*
X132649557Y-113374481D01*
X132583373Y-113367963D01*
X132413534Y-113316443D01*
X132257009Y-113232778D01*
X132221271Y-113203448D01*
X132119814Y-113120186D01*
X132036552Y-113018729D01*
X132007222Y-112982991D01*
X131923557Y-112826466D01*
X131872037Y-112656627D01*
X131854641Y-112480000D01*
X131872037Y-112303373D01*
X131923557Y-112133534D01*
X132007222Y-111977009D01*
X132036552Y-111941271D01*
X132119814Y-111839814D01*
X132221271Y-111756552D01*
X132257009Y-111727222D01*
X132413534Y-111643557D01*
X132583373Y-111592037D01*
X132649557Y-111585519D01*
X132715740Y-111579000D01*
X132804260Y-111579000D01*
X132870443Y-111585519D01*
X132870443Y-111585519D01*
G37*
G36*
X135410443Y-111585519D02*
G01*
X135476627Y-111592037D01*
X135646466Y-111643557D01*
X135802991Y-111727222D01*
X135838729Y-111756552D01*
X135940186Y-111839814D01*
X136023448Y-111941271D01*
X136052778Y-111977009D01*
X136136443Y-112133534D01*
X136187963Y-112303373D01*
X136205359Y-112480000D01*
X136187963Y-112656627D01*
X136136443Y-112826466D01*
X136052778Y-112982991D01*
X136023448Y-113018729D01*
X135940186Y-113120186D01*
X135838729Y-113203448D01*
X135802991Y-113232778D01*
X135646466Y-113316443D01*
X135476627Y-113367963D01*
X135410443Y-113374481D01*
X135344260Y-113381000D01*
X135255740Y-113381000D01*
X135189557Y-113374481D01*
X135123373Y-113367963D01*
X134953534Y-113316443D01*
X134797009Y-113232778D01*
X134761271Y-113203448D01*
X134659814Y-113120186D01*
X134576552Y-113018729D01*
X134547222Y-112982991D01*
X134463557Y-112826466D01*
X134412037Y-112656627D01*
X134394641Y-112480000D01*
X134412037Y-112303373D01*
X134463557Y-112133534D01*
X134547222Y-111977009D01*
X134576552Y-111941271D01*
X134659814Y-111839814D01*
X134761271Y-111756552D01*
X134797009Y-111727222D01*
X134953534Y-111643557D01*
X135123373Y-111592037D01*
X135189557Y-111585519D01*
X135255740Y-111579000D01*
X135344260Y-111579000D01*
X135410443Y-111585519D01*
X135410443Y-111585519D01*
G37*
G36*
X145300442Y-110945518D02*
G01*
X145366627Y-110952037D01*
X145536466Y-111003557D01*
X145692991Y-111087222D01*
X145728729Y-111116552D01*
X145830186Y-111199814D01*
X145913448Y-111301271D01*
X145942778Y-111337009D01*
X146026443Y-111493534D01*
X146077963Y-111663373D01*
X146095359Y-111840000D01*
X146077963Y-112016627D01*
X146026443Y-112186466D01*
X145942778Y-112342991D01*
X145913448Y-112378729D01*
X145830186Y-112480186D01*
X145728729Y-112563448D01*
X145692991Y-112592778D01*
X145536466Y-112676443D01*
X145366627Y-112727963D01*
X145300443Y-112734481D01*
X145234260Y-112741000D01*
X145145740Y-112741000D01*
X145079557Y-112734481D01*
X145013373Y-112727963D01*
X144843534Y-112676443D01*
X144687009Y-112592778D01*
X144651271Y-112563448D01*
X144549814Y-112480186D01*
X144466552Y-112378729D01*
X144437222Y-112342991D01*
X144353557Y-112186466D01*
X144302037Y-112016627D01*
X144284641Y-111840000D01*
X144302037Y-111663373D01*
X144353557Y-111493534D01*
X144437222Y-111337009D01*
X144466552Y-111301271D01*
X144549814Y-111199814D01*
X144651271Y-111116552D01*
X144687009Y-111087222D01*
X144843534Y-111003557D01*
X145013373Y-110952037D01*
X145079558Y-110945518D01*
X145145740Y-110939000D01*
X145234260Y-110939000D01*
X145300442Y-110945518D01*
X145300442Y-110945518D01*
G37*
G36*
X147840442Y-110945518D02*
G01*
X147906627Y-110952037D01*
X148076466Y-111003557D01*
X148232991Y-111087222D01*
X148268729Y-111116552D01*
X148370186Y-111199814D01*
X148453448Y-111301271D01*
X148482778Y-111337009D01*
X148566443Y-111493534D01*
X148617963Y-111663373D01*
X148635359Y-111840000D01*
X148617963Y-112016627D01*
X148566443Y-112186466D01*
X148482778Y-112342991D01*
X148453448Y-112378729D01*
X148370186Y-112480186D01*
X148268729Y-112563448D01*
X148232991Y-112592778D01*
X148076466Y-112676443D01*
X147906627Y-112727963D01*
X147840443Y-112734481D01*
X147774260Y-112741000D01*
X147685740Y-112741000D01*
X147619557Y-112734481D01*
X147553373Y-112727963D01*
X147383534Y-112676443D01*
X147227009Y-112592778D01*
X147191271Y-112563448D01*
X147089814Y-112480186D01*
X147006552Y-112378729D01*
X146977222Y-112342991D01*
X146893557Y-112186466D01*
X146842037Y-112016627D01*
X146824641Y-111840000D01*
X146842037Y-111663373D01*
X146893557Y-111493534D01*
X146977222Y-111337009D01*
X147006552Y-111301271D01*
X147089814Y-111199814D01*
X147191271Y-111116552D01*
X147227009Y-111087222D01*
X147383534Y-111003557D01*
X147553373Y-110952037D01*
X147619558Y-110945518D01*
X147685740Y-110939000D01*
X147774260Y-110939000D01*
X147840442Y-110945518D01*
X147840442Y-110945518D01*
G37*
G36*
X135410442Y-109045518D02*
G01*
X135476627Y-109052037D01*
X135646466Y-109103557D01*
X135802991Y-109187222D01*
X135838729Y-109216552D01*
X135940186Y-109299814D01*
X136023448Y-109401271D01*
X136052778Y-109437009D01*
X136136443Y-109593534D01*
X136187963Y-109763373D01*
X136205359Y-109940000D01*
X136187963Y-110116627D01*
X136136443Y-110286466D01*
X136052778Y-110442991D01*
X136023448Y-110478729D01*
X135940186Y-110580186D01*
X135838729Y-110663448D01*
X135802991Y-110692778D01*
X135646466Y-110776443D01*
X135476627Y-110827963D01*
X135410443Y-110834481D01*
X135344260Y-110841000D01*
X135255740Y-110841000D01*
X135189557Y-110834481D01*
X135123373Y-110827963D01*
X134953534Y-110776443D01*
X134797009Y-110692778D01*
X134761271Y-110663448D01*
X134659814Y-110580186D01*
X134576552Y-110478729D01*
X134547222Y-110442991D01*
X134463557Y-110286466D01*
X134412037Y-110116627D01*
X134394641Y-109940000D01*
X134412037Y-109763373D01*
X134463557Y-109593534D01*
X134547222Y-109437009D01*
X134576552Y-109401271D01*
X134659814Y-109299814D01*
X134761271Y-109216552D01*
X134797009Y-109187222D01*
X134953534Y-109103557D01*
X135123373Y-109052037D01*
X135189558Y-109045518D01*
X135255740Y-109039000D01*
X135344260Y-109039000D01*
X135410442Y-109045518D01*
X135410442Y-109045518D01*
G37*
G36*
X132870442Y-109045518D02*
G01*
X132936627Y-109052037D01*
X133106466Y-109103557D01*
X133262991Y-109187222D01*
X133298729Y-109216552D01*
X133400186Y-109299814D01*
X133483448Y-109401271D01*
X133512778Y-109437009D01*
X133596443Y-109593534D01*
X133647963Y-109763373D01*
X133665359Y-109940000D01*
X133647963Y-110116627D01*
X133596443Y-110286466D01*
X133512778Y-110442991D01*
X133483448Y-110478729D01*
X133400186Y-110580186D01*
X133298729Y-110663448D01*
X133262991Y-110692778D01*
X133106466Y-110776443D01*
X132936627Y-110827963D01*
X132870443Y-110834481D01*
X132804260Y-110841000D01*
X132715740Y-110841000D01*
X132649557Y-110834481D01*
X132583373Y-110827963D01*
X132413534Y-110776443D01*
X132257009Y-110692778D01*
X132221271Y-110663448D01*
X132119814Y-110580186D01*
X132036552Y-110478729D01*
X132007222Y-110442991D01*
X131923557Y-110286466D01*
X131872037Y-110116627D01*
X131854641Y-109940000D01*
X131872037Y-109763373D01*
X131923557Y-109593534D01*
X132007222Y-109437009D01*
X132036552Y-109401271D01*
X132119814Y-109299814D01*
X132221271Y-109216552D01*
X132257009Y-109187222D01*
X132413534Y-109103557D01*
X132583373Y-109052037D01*
X132649558Y-109045518D01*
X132715740Y-109039000D01*
X132804260Y-109039000D01*
X132870442Y-109045518D01*
X132870442Y-109045518D01*
G37*
G36*
X147840442Y-108405518D02*
G01*
X147906627Y-108412037D01*
X148076466Y-108463557D01*
X148232991Y-108547222D01*
X148268729Y-108576552D01*
X148370186Y-108659814D01*
X148453448Y-108761271D01*
X148482778Y-108797009D01*
X148566443Y-108953534D01*
X148617963Y-109123373D01*
X148635359Y-109300000D01*
X148617963Y-109476627D01*
X148566443Y-109646466D01*
X148482778Y-109802991D01*
X148453448Y-109838729D01*
X148370186Y-109940186D01*
X148268729Y-110023448D01*
X148232991Y-110052778D01*
X148076466Y-110136443D01*
X147906627Y-110187963D01*
X147840443Y-110194481D01*
X147774260Y-110201000D01*
X147685740Y-110201000D01*
X147619557Y-110194481D01*
X147553373Y-110187963D01*
X147383534Y-110136443D01*
X147227009Y-110052778D01*
X147191271Y-110023448D01*
X147089814Y-109940186D01*
X147006552Y-109838729D01*
X146977222Y-109802991D01*
X146893557Y-109646466D01*
X146842037Y-109476627D01*
X146824641Y-109300000D01*
X146842037Y-109123373D01*
X146893557Y-108953534D01*
X146977222Y-108797009D01*
X147006552Y-108761271D01*
X147089814Y-108659814D01*
X147191271Y-108576552D01*
X147227009Y-108547222D01*
X147383534Y-108463557D01*
X147553373Y-108412037D01*
X147619558Y-108405518D01*
X147685740Y-108399000D01*
X147774260Y-108399000D01*
X147840442Y-108405518D01*
X147840442Y-108405518D01*
G37*
G36*
X145300442Y-108405518D02*
G01*
X145366627Y-108412037D01*
X145536466Y-108463557D01*
X145692991Y-108547222D01*
X145728729Y-108576552D01*
X145830186Y-108659814D01*
X145913448Y-108761271D01*
X145942778Y-108797009D01*
X146026443Y-108953534D01*
X146077963Y-109123373D01*
X146095359Y-109300000D01*
X146077963Y-109476627D01*
X146026443Y-109646466D01*
X145942778Y-109802991D01*
X145913448Y-109838729D01*
X145830186Y-109940186D01*
X145728729Y-110023448D01*
X145692991Y-110052778D01*
X145536466Y-110136443D01*
X145366627Y-110187963D01*
X145300443Y-110194481D01*
X145234260Y-110201000D01*
X145145740Y-110201000D01*
X145079557Y-110194481D01*
X145013373Y-110187963D01*
X144843534Y-110136443D01*
X144687009Y-110052778D01*
X144651271Y-110023448D01*
X144549814Y-109940186D01*
X144466552Y-109838729D01*
X144437222Y-109802991D01*
X144353557Y-109646466D01*
X144302037Y-109476627D01*
X144284641Y-109300000D01*
X144302037Y-109123373D01*
X144353557Y-108953534D01*
X144437222Y-108797009D01*
X144466552Y-108761271D01*
X144549814Y-108659814D01*
X144651271Y-108576552D01*
X144687009Y-108547222D01*
X144843534Y-108463557D01*
X145013373Y-108412037D01*
X145079558Y-108405518D01*
X145145740Y-108399000D01*
X145234260Y-108399000D01*
X145300442Y-108405518D01*
X145300442Y-108405518D01*
G37*
G36*
X132870442Y-106505518D02*
G01*
X132936627Y-106512037D01*
X133106466Y-106563557D01*
X133262991Y-106647222D01*
X133298729Y-106676552D01*
X133400186Y-106759814D01*
X133483448Y-106861271D01*
X133512778Y-106897009D01*
X133596443Y-107053534D01*
X133647963Y-107223373D01*
X133665359Y-107400000D01*
X133647963Y-107576627D01*
X133596443Y-107746466D01*
X133512778Y-107902991D01*
X133483448Y-107938729D01*
X133400186Y-108040186D01*
X133298729Y-108123448D01*
X133262991Y-108152778D01*
X133106466Y-108236443D01*
X132936627Y-108287963D01*
X132870443Y-108294481D01*
X132804260Y-108301000D01*
X132715740Y-108301000D01*
X132649557Y-108294481D01*
X132583373Y-108287963D01*
X132413534Y-108236443D01*
X132257009Y-108152778D01*
X132221271Y-108123448D01*
X132119814Y-108040186D01*
X132036552Y-107938729D01*
X132007222Y-107902991D01*
X131923557Y-107746466D01*
X131872037Y-107576627D01*
X131854641Y-107400000D01*
X131872037Y-107223373D01*
X131923557Y-107053534D01*
X132007222Y-106897009D01*
X132036552Y-106861271D01*
X132119814Y-106759814D01*
X132221271Y-106676552D01*
X132257009Y-106647222D01*
X132413534Y-106563557D01*
X132583373Y-106512037D01*
X132649558Y-106505518D01*
X132715740Y-106499000D01*
X132804260Y-106499000D01*
X132870442Y-106505518D01*
X132870442Y-106505518D01*
G37*
G36*
X135410442Y-106505518D02*
G01*
X135476627Y-106512037D01*
X135646466Y-106563557D01*
X135802991Y-106647222D01*
X135838729Y-106676552D01*
X135940186Y-106759814D01*
X136023448Y-106861271D01*
X136052778Y-106897009D01*
X136136443Y-107053534D01*
X136187963Y-107223373D01*
X136205359Y-107400000D01*
X136187963Y-107576627D01*
X136136443Y-107746466D01*
X136052778Y-107902991D01*
X136023448Y-107938729D01*
X135940186Y-108040186D01*
X135838729Y-108123448D01*
X135802991Y-108152778D01*
X135646466Y-108236443D01*
X135476627Y-108287963D01*
X135410443Y-108294481D01*
X135344260Y-108301000D01*
X135255740Y-108301000D01*
X135189557Y-108294481D01*
X135123373Y-108287963D01*
X134953534Y-108236443D01*
X134797009Y-108152778D01*
X134761271Y-108123448D01*
X134659814Y-108040186D01*
X134576552Y-107938729D01*
X134547222Y-107902991D01*
X134463557Y-107746466D01*
X134412037Y-107576627D01*
X134394641Y-107400000D01*
X134412037Y-107223373D01*
X134463557Y-107053534D01*
X134547222Y-106897009D01*
X134576552Y-106861271D01*
X134659814Y-106759814D01*
X134761271Y-106676552D01*
X134797009Y-106647222D01*
X134953534Y-106563557D01*
X135123373Y-106512037D01*
X135189558Y-106505518D01*
X135255740Y-106499000D01*
X135344260Y-106499000D01*
X135410442Y-106505518D01*
X135410442Y-106505518D01*
G37*
G36*
X147840442Y-105865518D02*
G01*
X147906627Y-105872037D01*
X148076466Y-105923557D01*
X148232991Y-106007222D01*
X148268729Y-106036552D01*
X148370186Y-106119814D01*
X148453448Y-106221271D01*
X148482778Y-106257009D01*
X148566443Y-106413534D01*
X148617963Y-106583373D01*
X148635359Y-106760000D01*
X148617963Y-106936627D01*
X148566443Y-107106466D01*
X148482778Y-107262991D01*
X148453448Y-107298729D01*
X148370186Y-107400186D01*
X148268729Y-107483448D01*
X148232991Y-107512778D01*
X148076466Y-107596443D01*
X147906627Y-107647963D01*
X147840442Y-107654482D01*
X147774260Y-107661000D01*
X147685740Y-107661000D01*
X147619558Y-107654482D01*
X147553373Y-107647963D01*
X147383534Y-107596443D01*
X147227009Y-107512778D01*
X147191271Y-107483448D01*
X147089814Y-107400186D01*
X147006552Y-107298729D01*
X146977222Y-107262991D01*
X146893557Y-107106466D01*
X146842037Y-106936627D01*
X146824641Y-106760000D01*
X146842037Y-106583373D01*
X146893557Y-106413534D01*
X146977222Y-106257009D01*
X147006552Y-106221271D01*
X147089814Y-106119814D01*
X147191271Y-106036552D01*
X147227009Y-106007222D01*
X147383534Y-105923557D01*
X147553373Y-105872037D01*
X147619558Y-105865518D01*
X147685740Y-105859000D01*
X147774260Y-105859000D01*
X147840442Y-105865518D01*
X147840442Y-105865518D01*
G37*
G36*
X145300442Y-105865518D02*
G01*
X145366627Y-105872037D01*
X145536466Y-105923557D01*
X145692991Y-106007222D01*
X145728729Y-106036552D01*
X145830186Y-106119814D01*
X145913448Y-106221271D01*
X145942778Y-106257009D01*
X146026443Y-106413534D01*
X146077963Y-106583373D01*
X146095359Y-106760000D01*
X146077963Y-106936627D01*
X146026443Y-107106466D01*
X145942778Y-107262991D01*
X145913448Y-107298729D01*
X145830186Y-107400186D01*
X145728729Y-107483448D01*
X145692991Y-107512778D01*
X145536466Y-107596443D01*
X145366627Y-107647963D01*
X145300442Y-107654482D01*
X145234260Y-107661000D01*
X145145740Y-107661000D01*
X145079558Y-107654482D01*
X145013373Y-107647963D01*
X144843534Y-107596443D01*
X144687009Y-107512778D01*
X144651271Y-107483448D01*
X144549814Y-107400186D01*
X144466552Y-107298729D01*
X144437222Y-107262991D01*
X144353557Y-107106466D01*
X144302037Y-106936627D01*
X144284641Y-106760000D01*
X144302037Y-106583373D01*
X144353557Y-106413534D01*
X144437222Y-106257009D01*
X144466552Y-106221271D01*
X144549814Y-106119814D01*
X144651271Y-106036552D01*
X144687009Y-106007222D01*
X144843534Y-105923557D01*
X145013373Y-105872037D01*
X145079558Y-105865518D01*
X145145740Y-105859000D01*
X145234260Y-105859000D01*
X145300442Y-105865518D01*
X145300442Y-105865518D01*
G37*
G36*
X132870443Y-103965519D02*
G01*
X132936627Y-103972037D01*
X133106466Y-104023557D01*
X133262991Y-104107222D01*
X133298729Y-104136552D01*
X133400186Y-104219814D01*
X133483448Y-104321271D01*
X133512778Y-104357009D01*
X133596443Y-104513534D01*
X133647963Y-104683373D01*
X133665359Y-104860000D01*
X133647963Y-105036627D01*
X133596443Y-105206466D01*
X133512778Y-105362991D01*
X133483448Y-105398729D01*
X133400186Y-105500186D01*
X133298729Y-105583448D01*
X133262991Y-105612778D01*
X133106466Y-105696443D01*
X132936627Y-105747963D01*
X132870442Y-105754482D01*
X132804260Y-105761000D01*
X132715740Y-105761000D01*
X132649558Y-105754482D01*
X132583373Y-105747963D01*
X132413534Y-105696443D01*
X132257009Y-105612778D01*
X132221271Y-105583448D01*
X132119814Y-105500186D01*
X132036552Y-105398729D01*
X132007222Y-105362991D01*
X131923557Y-105206466D01*
X131872037Y-105036627D01*
X131854641Y-104860000D01*
X131872037Y-104683373D01*
X131923557Y-104513534D01*
X132007222Y-104357009D01*
X132036552Y-104321271D01*
X132119814Y-104219814D01*
X132221271Y-104136552D01*
X132257009Y-104107222D01*
X132413534Y-104023557D01*
X132583373Y-103972037D01*
X132649557Y-103965519D01*
X132715740Y-103959000D01*
X132804260Y-103959000D01*
X132870443Y-103965519D01*
X132870443Y-103965519D01*
G37*
G36*
X135410443Y-103965519D02*
G01*
X135476627Y-103972037D01*
X135646466Y-104023557D01*
X135802991Y-104107222D01*
X135838729Y-104136552D01*
X135940186Y-104219814D01*
X136023448Y-104321271D01*
X136052778Y-104357009D01*
X136136443Y-104513534D01*
X136187963Y-104683373D01*
X136205359Y-104860000D01*
X136187963Y-105036627D01*
X136136443Y-105206466D01*
X136052778Y-105362991D01*
X136023448Y-105398729D01*
X135940186Y-105500186D01*
X135838729Y-105583448D01*
X135802991Y-105612778D01*
X135646466Y-105696443D01*
X135476627Y-105747963D01*
X135410442Y-105754482D01*
X135344260Y-105761000D01*
X135255740Y-105761000D01*
X135189558Y-105754482D01*
X135123373Y-105747963D01*
X134953534Y-105696443D01*
X134797009Y-105612778D01*
X134761271Y-105583448D01*
X134659814Y-105500186D01*
X134576552Y-105398729D01*
X134547222Y-105362991D01*
X134463557Y-105206466D01*
X134412037Y-105036627D01*
X134394641Y-104860000D01*
X134412037Y-104683373D01*
X134463557Y-104513534D01*
X134547222Y-104357009D01*
X134576552Y-104321271D01*
X134659814Y-104219814D01*
X134761271Y-104136552D01*
X134797009Y-104107222D01*
X134953534Y-104023557D01*
X135123373Y-103972037D01*
X135189557Y-103965519D01*
X135255740Y-103959000D01*
X135344260Y-103959000D01*
X135410443Y-103965519D01*
X135410443Y-103965519D01*
G37*
G36*
X145300443Y-103325519D02*
G01*
X145366627Y-103332037D01*
X145536466Y-103383557D01*
X145692991Y-103467222D01*
X145728729Y-103496552D01*
X145830186Y-103579814D01*
X145913448Y-103681271D01*
X145942778Y-103717009D01*
X146026443Y-103873534D01*
X146077963Y-104043373D01*
X146095359Y-104220000D01*
X146077963Y-104396627D01*
X146026443Y-104566466D01*
X145942778Y-104722991D01*
X145913448Y-104758729D01*
X145830186Y-104860186D01*
X145728729Y-104943448D01*
X145692991Y-104972778D01*
X145536466Y-105056443D01*
X145366627Y-105107963D01*
X145300443Y-105114481D01*
X145234260Y-105121000D01*
X145145740Y-105121000D01*
X145079558Y-105114482D01*
X145013373Y-105107963D01*
X144843534Y-105056443D01*
X144687009Y-104972778D01*
X144651271Y-104943448D01*
X144549814Y-104860186D01*
X144466552Y-104758729D01*
X144437222Y-104722991D01*
X144353557Y-104566466D01*
X144302037Y-104396627D01*
X144284641Y-104220000D01*
X144302037Y-104043373D01*
X144353557Y-103873534D01*
X144437222Y-103717009D01*
X144466552Y-103681271D01*
X144549814Y-103579814D01*
X144651271Y-103496552D01*
X144687009Y-103467222D01*
X144843534Y-103383557D01*
X145013373Y-103332037D01*
X145079557Y-103325519D01*
X145145740Y-103319000D01*
X145234260Y-103319000D01*
X145300443Y-103325519D01*
X145300443Y-103325519D01*
G37*
G36*
X147840443Y-103325519D02*
G01*
X147906627Y-103332037D01*
X148076466Y-103383557D01*
X148232991Y-103467222D01*
X148268729Y-103496552D01*
X148370186Y-103579814D01*
X148453448Y-103681271D01*
X148482778Y-103717009D01*
X148566443Y-103873534D01*
X148617963Y-104043373D01*
X148635359Y-104220000D01*
X148617963Y-104396627D01*
X148566443Y-104566466D01*
X148482778Y-104722991D01*
X148453448Y-104758729D01*
X148370186Y-104860186D01*
X148268729Y-104943448D01*
X148232991Y-104972778D01*
X148076466Y-105056443D01*
X147906627Y-105107963D01*
X147840443Y-105114481D01*
X147774260Y-105121000D01*
X147685740Y-105121000D01*
X147619558Y-105114482D01*
X147553373Y-105107963D01*
X147383534Y-105056443D01*
X147227009Y-104972778D01*
X147191271Y-104943448D01*
X147089814Y-104860186D01*
X147006552Y-104758729D01*
X146977222Y-104722991D01*
X146893557Y-104566466D01*
X146842037Y-104396627D01*
X146824641Y-104220000D01*
X146842037Y-104043373D01*
X146893557Y-103873534D01*
X146977222Y-103717009D01*
X147006552Y-103681271D01*
X147089814Y-103579814D01*
X147191271Y-103496552D01*
X147227009Y-103467222D01*
X147383534Y-103383557D01*
X147553373Y-103332037D01*
X147619557Y-103325519D01*
X147685740Y-103319000D01*
X147774260Y-103319000D01*
X147840443Y-103325519D01*
X147840443Y-103325519D01*
G37*
G36*
X132870442Y-101425518D02*
G01*
X132936627Y-101432037D01*
X133106466Y-101483557D01*
X133262991Y-101567222D01*
X133298729Y-101596552D01*
X133400186Y-101679814D01*
X133483448Y-101781271D01*
X133512778Y-101817009D01*
X133596443Y-101973534D01*
X133647963Y-102143373D01*
X133665359Y-102320000D01*
X133647963Y-102496627D01*
X133596443Y-102666466D01*
X133512778Y-102822991D01*
X133483448Y-102858729D01*
X133400186Y-102960186D01*
X133298729Y-103043448D01*
X133262991Y-103072778D01*
X133106466Y-103156443D01*
X132936627Y-103207963D01*
X132870443Y-103214481D01*
X132804260Y-103221000D01*
X132715740Y-103221000D01*
X132649558Y-103214482D01*
X132583373Y-103207963D01*
X132413534Y-103156443D01*
X132257009Y-103072778D01*
X132221271Y-103043448D01*
X132119814Y-102960186D01*
X132036552Y-102858729D01*
X132007222Y-102822991D01*
X131923557Y-102666466D01*
X131872037Y-102496627D01*
X131854641Y-102320000D01*
X131872037Y-102143373D01*
X131923557Y-101973534D01*
X132007222Y-101817009D01*
X132036552Y-101781271D01*
X132119814Y-101679814D01*
X132221271Y-101596552D01*
X132257009Y-101567222D01*
X132413534Y-101483557D01*
X132583373Y-101432037D01*
X132649558Y-101425518D01*
X132715740Y-101419000D01*
X132804260Y-101419000D01*
X132870442Y-101425518D01*
X132870442Y-101425518D01*
G37*
G36*
X135410442Y-101425518D02*
G01*
X135476627Y-101432037D01*
X135646466Y-101483557D01*
X135802991Y-101567222D01*
X135838729Y-101596552D01*
X135940186Y-101679814D01*
X136023448Y-101781271D01*
X136052778Y-101817009D01*
X136136443Y-101973534D01*
X136187963Y-102143373D01*
X136205359Y-102320000D01*
X136187963Y-102496627D01*
X136136443Y-102666466D01*
X136052778Y-102822991D01*
X136023448Y-102858729D01*
X135940186Y-102960186D01*
X135838729Y-103043448D01*
X135802991Y-103072778D01*
X135646466Y-103156443D01*
X135476627Y-103207963D01*
X135410443Y-103214481D01*
X135344260Y-103221000D01*
X135255740Y-103221000D01*
X135189558Y-103214482D01*
X135123373Y-103207963D01*
X134953534Y-103156443D01*
X134797009Y-103072778D01*
X134761271Y-103043448D01*
X134659814Y-102960186D01*
X134576552Y-102858729D01*
X134547222Y-102822991D01*
X134463557Y-102666466D01*
X134412037Y-102496627D01*
X134394641Y-102320000D01*
X134412037Y-102143373D01*
X134463557Y-101973534D01*
X134547222Y-101817009D01*
X134576552Y-101781271D01*
X134659814Y-101679814D01*
X134761271Y-101596552D01*
X134797009Y-101567222D01*
X134953534Y-101483557D01*
X135123373Y-101432037D01*
X135189558Y-101425518D01*
X135255740Y-101419000D01*
X135344260Y-101419000D01*
X135410442Y-101425518D01*
X135410442Y-101425518D01*
G37*
G36*
X147840442Y-100785518D02*
G01*
X147906627Y-100792037D01*
X148076466Y-100843557D01*
X148232991Y-100927222D01*
X148268729Y-100956552D01*
X148370186Y-101039814D01*
X148453448Y-101141271D01*
X148482778Y-101177009D01*
X148566443Y-101333534D01*
X148617963Y-101503373D01*
X148635359Y-101680000D01*
X148617963Y-101856627D01*
X148566443Y-102026466D01*
X148482778Y-102182991D01*
X148453448Y-102218729D01*
X148370186Y-102320186D01*
X148268729Y-102403448D01*
X148232991Y-102432778D01*
X148076466Y-102516443D01*
X147906627Y-102567963D01*
X147840443Y-102574481D01*
X147774260Y-102581000D01*
X147685740Y-102581000D01*
X147619557Y-102574481D01*
X147553373Y-102567963D01*
X147383534Y-102516443D01*
X147227009Y-102432778D01*
X147191271Y-102403448D01*
X147089814Y-102320186D01*
X147006552Y-102218729D01*
X146977222Y-102182991D01*
X146893557Y-102026466D01*
X146842037Y-101856627D01*
X146824641Y-101680000D01*
X146842037Y-101503373D01*
X146893557Y-101333534D01*
X146977222Y-101177009D01*
X147006552Y-101141271D01*
X147089814Y-101039814D01*
X147191271Y-100956552D01*
X147227009Y-100927222D01*
X147383534Y-100843557D01*
X147553373Y-100792037D01*
X147619558Y-100785518D01*
X147685740Y-100779000D01*
X147774260Y-100779000D01*
X147840442Y-100785518D01*
X147840442Y-100785518D01*
G37*
G36*
X145300442Y-100785518D02*
G01*
X145366627Y-100792037D01*
X145536466Y-100843557D01*
X145692991Y-100927222D01*
X145728729Y-100956552D01*
X145830186Y-101039814D01*
X145913448Y-101141271D01*
X145942778Y-101177009D01*
X146026443Y-101333534D01*
X146077963Y-101503373D01*
X146095359Y-101680000D01*
X146077963Y-101856627D01*
X146026443Y-102026466D01*
X145942778Y-102182991D01*
X145913448Y-102218729D01*
X145830186Y-102320186D01*
X145728729Y-102403448D01*
X145692991Y-102432778D01*
X145536466Y-102516443D01*
X145366627Y-102567963D01*
X145300443Y-102574481D01*
X145234260Y-102581000D01*
X145145740Y-102581000D01*
X145079557Y-102574481D01*
X145013373Y-102567963D01*
X144843534Y-102516443D01*
X144687009Y-102432778D01*
X144651271Y-102403448D01*
X144549814Y-102320186D01*
X144466552Y-102218729D01*
X144437222Y-102182991D01*
X144353557Y-102026466D01*
X144302037Y-101856627D01*
X144284641Y-101680000D01*
X144302037Y-101503373D01*
X144353557Y-101333534D01*
X144437222Y-101177009D01*
X144466552Y-101141271D01*
X144549814Y-101039814D01*
X144651271Y-100956552D01*
X144687009Y-100927222D01*
X144843534Y-100843557D01*
X145013373Y-100792037D01*
X145079558Y-100785518D01*
X145145740Y-100779000D01*
X145234260Y-100779000D01*
X145300442Y-100785518D01*
X145300442Y-100785518D01*
G37*
G36*
X135410443Y-98885519D02*
G01*
X135476627Y-98892037D01*
X135646466Y-98943557D01*
X135802991Y-99027222D01*
X135838729Y-99056552D01*
X135940186Y-99139814D01*
X136023448Y-99241271D01*
X136052778Y-99277009D01*
X136136443Y-99433534D01*
X136187963Y-99603373D01*
X136205359Y-99780000D01*
X136187963Y-99956627D01*
X136136443Y-100126466D01*
X136052778Y-100282991D01*
X136023448Y-100318729D01*
X135940186Y-100420186D01*
X135838729Y-100503448D01*
X135802991Y-100532778D01*
X135646466Y-100616443D01*
X135476627Y-100667963D01*
X135410443Y-100674481D01*
X135344260Y-100681000D01*
X135255740Y-100681000D01*
X135189557Y-100674481D01*
X135123373Y-100667963D01*
X134953534Y-100616443D01*
X134797009Y-100532778D01*
X134761271Y-100503448D01*
X134659814Y-100420186D01*
X134576552Y-100318729D01*
X134547222Y-100282991D01*
X134463557Y-100126466D01*
X134412037Y-99956627D01*
X134394641Y-99780000D01*
X134412037Y-99603373D01*
X134463557Y-99433534D01*
X134547222Y-99277009D01*
X134576552Y-99241271D01*
X134659814Y-99139814D01*
X134761271Y-99056552D01*
X134797009Y-99027222D01*
X134953534Y-98943557D01*
X135123373Y-98892037D01*
X135189558Y-98885518D01*
X135255740Y-98879000D01*
X135344260Y-98879000D01*
X135410443Y-98885519D01*
X135410443Y-98885519D01*
G37*
G36*
X132870443Y-98885519D02*
G01*
X132936627Y-98892037D01*
X133106466Y-98943557D01*
X133262991Y-99027222D01*
X133298729Y-99056552D01*
X133400186Y-99139814D01*
X133483448Y-99241271D01*
X133512778Y-99277009D01*
X133596443Y-99433534D01*
X133647963Y-99603373D01*
X133665359Y-99780000D01*
X133647963Y-99956627D01*
X133596443Y-100126466D01*
X133512778Y-100282991D01*
X133483448Y-100318729D01*
X133400186Y-100420186D01*
X133298729Y-100503448D01*
X133262991Y-100532778D01*
X133106466Y-100616443D01*
X132936627Y-100667963D01*
X132870443Y-100674481D01*
X132804260Y-100681000D01*
X132715740Y-100681000D01*
X132649557Y-100674481D01*
X132583373Y-100667963D01*
X132413534Y-100616443D01*
X132257009Y-100532778D01*
X132221271Y-100503448D01*
X132119814Y-100420186D01*
X132036552Y-100318729D01*
X132007222Y-100282991D01*
X131923557Y-100126466D01*
X131872037Y-99956627D01*
X131854641Y-99780000D01*
X131872037Y-99603373D01*
X131923557Y-99433534D01*
X132007222Y-99277009D01*
X132036552Y-99241271D01*
X132119814Y-99139814D01*
X132221271Y-99056552D01*
X132257009Y-99027222D01*
X132413534Y-98943557D01*
X132583373Y-98892037D01*
X132649558Y-98885518D01*
X132715740Y-98879000D01*
X132804260Y-98879000D01*
X132870443Y-98885519D01*
X132870443Y-98885519D01*
G37*
G36*
X145300443Y-98245519D02*
G01*
X145366627Y-98252037D01*
X145536466Y-98303557D01*
X145692991Y-98387222D01*
X145728729Y-98416552D01*
X145830186Y-98499814D01*
X145913448Y-98601271D01*
X145942778Y-98637009D01*
X146026443Y-98793534D01*
X146077963Y-98963373D01*
X146095359Y-99140000D01*
X146077963Y-99316627D01*
X146026443Y-99486466D01*
X145942778Y-99642991D01*
X145913448Y-99678729D01*
X145830186Y-99780186D01*
X145728729Y-99863448D01*
X145692991Y-99892778D01*
X145536466Y-99976443D01*
X145366627Y-100027963D01*
X145300443Y-100034481D01*
X145234260Y-100041000D01*
X145145740Y-100041000D01*
X145079557Y-100034481D01*
X145013373Y-100027963D01*
X144843534Y-99976443D01*
X144687009Y-99892778D01*
X144651271Y-99863448D01*
X144549814Y-99780186D01*
X144466552Y-99678729D01*
X144437222Y-99642991D01*
X144353557Y-99486466D01*
X144302037Y-99316627D01*
X144284641Y-99140000D01*
X144302037Y-98963373D01*
X144353557Y-98793534D01*
X144437222Y-98637009D01*
X144466552Y-98601271D01*
X144549814Y-98499814D01*
X144651271Y-98416552D01*
X144687009Y-98387222D01*
X144843534Y-98303557D01*
X145013373Y-98252037D01*
X145079558Y-98245518D01*
X145145740Y-98239000D01*
X145234260Y-98239000D01*
X145300443Y-98245519D01*
X145300443Y-98245519D01*
G37*
G36*
X147840443Y-98245519D02*
G01*
X147906627Y-98252037D01*
X148076466Y-98303557D01*
X148232991Y-98387222D01*
X148268729Y-98416552D01*
X148370186Y-98499814D01*
X148453448Y-98601271D01*
X148482778Y-98637009D01*
X148566443Y-98793534D01*
X148617963Y-98963373D01*
X148635359Y-99140000D01*
X148617963Y-99316627D01*
X148566443Y-99486466D01*
X148482778Y-99642991D01*
X148453448Y-99678729D01*
X148370186Y-99780186D01*
X148268729Y-99863448D01*
X148232991Y-99892778D01*
X148076466Y-99976443D01*
X147906627Y-100027963D01*
X147840443Y-100034481D01*
X147774260Y-100041000D01*
X147685740Y-100041000D01*
X147619557Y-100034481D01*
X147553373Y-100027963D01*
X147383534Y-99976443D01*
X147227009Y-99892778D01*
X147191271Y-99863448D01*
X147089814Y-99780186D01*
X147006552Y-99678729D01*
X146977222Y-99642991D01*
X146893557Y-99486466D01*
X146842037Y-99316627D01*
X146824641Y-99140000D01*
X146842037Y-98963373D01*
X146893557Y-98793534D01*
X146977222Y-98637009D01*
X147006552Y-98601271D01*
X147089814Y-98499814D01*
X147191271Y-98416552D01*
X147227009Y-98387222D01*
X147383534Y-98303557D01*
X147553373Y-98252037D01*
X147619558Y-98245518D01*
X147685740Y-98239000D01*
X147774260Y-98239000D01*
X147840443Y-98245519D01*
X147840443Y-98245519D01*
G37*
G36*
X132870442Y-96345518D02*
G01*
X132936627Y-96352037D01*
X133106466Y-96403557D01*
X133262991Y-96487222D01*
X133298729Y-96516552D01*
X133400186Y-96599814D01*
X133483448Y-96701271D01*
X133512778Y-96737009D01*
X133596443Y-96893534D01*
X133647963Y-97063373D01*
X133665359Y-97240000D01*
X133647963Y-97416627D01*
X133596443Y-97586466D01*
X133512778Y-97742991D01*
X133483448Y-97778729D01*
X133400186Y-97880186D01*
X133298729Y-97963448D01*
X133262991Y-97992778D01*
X133106466Y-98076443D01*
X132936627Y-98127963D01*
X132870443Y-98134481D01*
X132804260Y-98141000D01*
X132715740Y-98141000D01*
X132649557Y-98134481D01*
X132583373Y-98127963D01*
X132413534Y-98076443D01*
X132257009Y-97992778D01*
X132221271Y-97963448D01*
X132119814Y-97880186D01*
X132036552Y-97778729D01*
X132007222Y-97742991D01*
X131923557Y-97586466D01*
X131872037Y-97416627D01*
X131854641Y-97240000D01*
X131872037Y-97063373D01*
X131923557Y-96893534D01*
X132007222Y-96737009D01*
X132036552Y-96701271D01*
X132119814Y-96599814D01*
X132221271Y-96516552D01*
X132257009Y-96487222D01*
X132413534Y-96403557D01*
X132583373Y-96352037D01*
X132649558Y-96345518D01*
X132715740Y-96339000D01*
X132804260Y-96339000D01*
X132870442Y-96345518D01*
X132870442Y-96345518D01*
G37*
G36*
X135410442Y-96345518D02*
G01*
X135476627Y-96352037D01*
X135646466Y-96403557D01*
X135802991Y-96487222D01*
X135838729Y-96516552D01*
X135940186Y-96599814D01*
X136023448Y-96701271D01*
X136052778Y-96737009D01*
X136136443Y-96893534D01*
X136187963Y-97063373D01*
X136205359Y-97240000D01*
X136187963Y-97416627D01*
X136136443Y-97586466D01*
X136052778Y-97742991D01*
X136023448Y-97778729D01*
X135940186Y-97880186D01*
X135838729Y-97963448D01*
X135802991Y-97992778D01*
X135646466Y-98076443D01*
X135476627Y-98127963D01*
X135410443Y-98134481D01*
X135344260Y-98141000D01*
X135255740Y-98141000D01*
X135189557Y-98134481D01*
X135123373Y-98127963D01*
X134953534Y-98076443D01*
X134797009Y-97992778D01*
X134761271Y-97963448D01*
X134659814Y-97880186D01*
X134576552Y-97778729D01*
X134547222Y-97742991D01*
X134463557Y-97586466D01*
X134412037Y-97416627D01*
X134394641Y-97240000D01*
X134412037Y-97063373D01*
X134463557Y-96893534D01*
X134547222Y-96737009D01*
X134576552Y-96701271D01*
X134659814Y-96599814D01*
X134761271Y-96516552D01*
X134797009Y-96487222D01*
X134953534Y-96403557D01*
X135123373Y-96352037D01*
X135189558Y-96345518D01*
X135255740Y-96339000D01*
X135344260Y-96339000D01*
X135410442Y-96345518D01*
X135410442Y-96345518D01*
G37*
G36*
X142244098Y-91747033D02*
G01*
X142708350Y-91939332D01*
X142708352Y-91939333D01*
X143126168Y-92218509D01*
X143481491Y-92573832D01*
X143760667Y-92991648D01*
X143760668Y-92991650D01*
X143952967Y-93455902D01*
X144051000Y-93948747D01*
X144051000Y-94451253D01*
X143952967Y-94944098D01*
X143910564Y-95046468D01*
X143760667Y-95408352D01*
X143481491Y-95826168D01*
X143126168Y-96181491D01*
X142708352Y-96460667D01*
X142708351Y-96460668D01*
X142708350Y-96460668D01*
X142244098Y-96652967D01*
X141751253Y-96751000D01*
X141248747Y-96751000D01*
X140755902Y-96652967D01*
X140291650Y-96460668D01*
X140291649Y-96460668D01*
X140291648Y-96460667D01*
X139873832Y-96181491D01*
X139518509Y-95826168D01*
X139239333Y-95408352D01*
X139089436Y-95046468D01*
X139047033Y-94944098D01*
X138949000Y-94451253D01*
X138949000Y-93948747D01*
X139047033Y-93455902D01*
X139239332Y-92991650D01*
X139239333Y-92991648D01*
X139518509Y-92573832D01*
X139873832Y-92218509D01*
X140291648Y-91939333D01*
X140291650Y-91939332D01*
X140755902Y-91747033D01*
X141248747Y-91649000D01*
X141751253Y-91649000D01*
X142244098Y-91747033D01*
X142244098Y-91747033D01*
G37*
G36*
X136201000Y-95601000D02*
G01*
X134399000Y-95601000D01*
X134399000Y-93799000D01*
X136201000Y-93799000D01*
X136201000Y-95601000D01*
X136201000Y-95601000D01*
G37*
G36*
X132870443Y-93805519D02*
G01*
X132936627Y-93812037D01*
X133106466Y-93863557D01*
X133262991Y-93947222D01*
X133264850Y-93948748D01*
X133400186Y-94059814D01*
X133483448Y-94161271D01*
X133512778Y-94197009D01*
X133596443Y-94353534D01*
X133647963Y-94523373D01*
X133665359Y-94700000D01*
X133647963Y-94876627D01*
X133596443Y-95046466D01*
X133512778Y-95202991D01*
X133483448Y-95238729D01*
X133400186Y-95340186D01*
X133317124Y-95408352D01*
X133262991Y-95452778D01*
X133106466Y-95536443D01*
X132936627Y-95587963D01*
X132870442Y-95594482D01*
X132804260Y-95601000D01*
X132715740Y-95601000D01*
X132649558Y-95594482D01*
X132583373Y-95587963D01*
X132413534Y-95536443D01*
X132257009Y-95452778D01*
X132202876Y-95408352D01*
X132119814Y-95340186D01*
X132036552Y-95238729D01*
X132007222Y-95202991D01*
X131923557Y-95046466D01*
X131872037Y-94876627D01*
X131854641Y-94700000D01*
X131872037Y-94523373D01*
X131923557Y-94353534D01*
X132007222Y-94197009D01*
X132036552Y-94161271D01*
X132119814Y-94059814D01*
X132255150Y-93948748D01*
X132257009Y-93947222D01*
X132413534Y-93863557D01*
X132583373Y-93812037D01*
X132649557Y-93805519D01*
X132715740Y-93799000D01*
X132804260Y-93799000D01*
X132870443Y-93805519D01*
X132870443Y-93805519D01*
G37*
M02*
