G04 #@! TF.GenerationSoftware,KiCad,Pcbnew,(5.1.2)-1*
G04 #@! TF.CreationDate,2022-05-17T10:22:14-05:00*
G04 #@! TF.ProjectId,jtag_gpio_breakout,6a746167-5f67-4706-996f-5f627265616b,rev?*
G04 #@! TF.SameCoordinates,Original*
G04 #@! TF.FileFunction,Copper,L2,Bot*
G04 #@! TF.FilePolarity,Positive*
%FSLAX46Y46*%
G04 Gerber Fmt 4.6, Leading zero omitted, Abs format (unit mm)*
G04 Created by KiCad (PCBNEW (5.1.2)-1) date 2022-05-17 10:22:14*
%MOMM*%
%LPD*%
G04 APERTURE LIST*
%ADD10C,5.000000*%
%ADD11R,1.700000X1.700000*%
%ADD12O,1.700000X1.700000*%
%ADD13C,0.406400*%
%ADD14C,0.203200*%
%ADD15C,0.254000*%
G04 APERTURE END LIST*
D10*
X132973999Y-146800000D03*
X141500000Y-94200000D03*
X150026001Y-146800000D03*
D11*
X135300000Y-94700000D03*
D12*
X132760000Y-94700000D03*
X135300000Y-97240000D03*
X132760000Y-97240000D03*
X135300000Y-99780000D03*
X132760000Y-99780000D03*
X135300000Y-102320000D03*
X132760000Y-102320000D03*
X135300000Y-104860000D03*
X132760000Y-104860000D03*
X135300000Y-107400000D03*
X132760000Y-107400000D03*
X135300000Y-109940000D03*
X132760000Y-109940000D03*
X135300000Y-112480000D03*
X132760000Y-112480000D03*
X135300000Y-115020000D03*
X132760000Y-115020000D03*
X135300000Y-117560000D03*
X132760000Y-117560000D03*
D11*
X131870000Y-136450000D03*
D12*
X134410000Y-136450000D03*
X136950000Y-136450000D03*
X139490000Y-136450000D03*
X142030000Y-136450000D03*
X144570000Y-136450000D03*
X147110000Y-136450000D03*
X149650000Y-136450000D03*
X147730000Y-99140000D03*
X145190000Y-99140000D03*
X147730000Y-101680000D03*
X145190000Y-101680000D03*
X147730000Y-104220000D03*
X145190000Y-104220000D03*
X147730000Y-106760000D03*
X145190000Y-106760000D03*
X147730000Y-109300000D03*
X145190000Y-109300000D03*
X147730000Y-111840000D03*
X145190000Y-111840000D03*
X147730000Y-114380000D03*
X145190000Y-114380000D03*
X147730000Y-116920000D03*
X145190000Y-116920000D03*
X147730000Y-119460000D03*
X145190000Y-119460000D03*
X147730000Y-122000000D03*
D11*
X145190000Y-122000000D03*
D13*
X150550000Y-123350000D03*
X146500000Y-126300000D03*
X147850000Y-126550000D03*
X139950000Y-134500000D03*
X139100000Y-126300000D03*
X131200000Y-131650000D03*
X130450000Y-127600000D03*
X141100000Y-123150000D03*
X139969000Y-128200000D03*
X134100000Y-118650000D03*
X134700000Y-124350000D03*
X130750000Y-119700000D03*
X130050000Y-103550000D03*
X137650000Y-126400000D03*
X131650000Y-119200000D03*
X130850000Y-101200000D03*
X139150000Y-127450000D03*
X139350000Y-133800000D03*
X140050000Y-132900000D03*
X141200000Y-133300000D03*
X152700000Y-133300000D03*
X152950000Y-131850000D03*
X144600000Y-125200000D03*
X150050000Y-121750000D03*
X147650000Y-125200000D03*
X129500000Y-128600000D03*
X130550000Y-132850000D03*
X135000000Y-127200000D03*
X141550000Y-128050000D03*
X137300000Y-121450000D03*
X138200000Y-105550000D03*
X137350000Y-127850000D03*
X136000000Y-126050000D03*
X149550000Y-123650000D03*
X150000000Y-132150000D03*
X136650000Y-123400000D03*
X133150000Y-123950000D03*
X151350000Y-131350000D03*
X141550000Y-126750000D03*
X143000000Y-103400000D03*
X139050000Y-120550000D03*
X139300000Y-122650000D03*
X141950000Y-127600000D03*
X142200000Y-126350000D03*
X142950000Y-128250000D03*
X151350000Y-128400000D03*
X144050000Y-125550000D03*
X151850000Y-124800000D03*
X143900000Y-124650000D03*
X150050000Y-124750000D03*
X150500000Y-122700000D03*
X142300000Y-123950000D03*
X142300000Y-121550000D03*
X146450000Y-122300000D03*
X148400000Y-123250000D03*
X150200000Y-120450000D03*
X151350000Y-115550000D03*
X133900000Y-130700000D03*
X141150000Y-134650000D03*
X140850000Y-138400000D03*
X136550000Y-128250000D03*
X132200000Y-132600000D03*
X131700000Y-106200000D03*
X130450000Y-104800000D03*
X141150000Y-110650000D03*
X138800000Y-106550000D03*
X138300000Y-128050000D03*
X139350000Y-100500000D03*
X144550000Y-132150000D03*
X150650000Y-131500000D03*
X130150000Y-97950000D03*
X130200000Y-100550000D03*
X131450000Y-104900000D03*
X138550000Y-97100000D03*
X141400000Y-113500000D03*
X138650000Y-119550000D03*
X135950000Y-120250000D03*
X134850000Y-119400000D03*
X136900000Y-125100000D03*
X136750000Y-126400000D03*
X133150000Y-125150000D03*
X132550000Y-120350000D03*
X140250000Y-126650000D03*
D14*
X143700000Y-118400000D02*
X144150000Y-117950000D01*
X144160000Y-117950000D02*
X145190000Y-116920000D01*
X143700000Y-120250000D02*
X143700000Y-118400000D01*
X150550000Y-123350000D02*
X149200000Y-122000000D01*
X144150000Y-117950000D02*
X144160000Y-117950000D01*
X149200000Y-122000000D02*
X149200000Y-121700000D01*
X149200000Y-121700000D02*
X148300000Y-120800000D01*
X148300000Y-120750000D02*
X144200000Y-120750000D01*
X148300000Y-120800000D02*
X148300000Y-120750000D01*
X144200000Y-120750000D02*
X143700000Y-120250000D01*
X146500000Y-126300000D02*
X143500000Y-126300000D01*
X143150000Y-113880000D02*
X145190000Y-111840000D01*
X143150000Y-120150000D02*
X143150000Y-113880000D01*
X143420590Y-120420590D02*
X143150000Y-120150000D01*
X143420590Y-124620590D02*
X143420590Y-120420590D01*
X143500000Y-124700000D02*
X143420590Y-124620590D01*
X143500000Y-126300000D02*
X143500000Y-124700000D01*
X147562632Y-126550000D02*
X147850000Y-126550000D01*
X147362632Y-126750000D02*
X147562632Y-126550000D01*
X143050000Y-126750000D02*
X147362632Y-126750000D01*
X142700000Y-126400000D02*
X143050000Y-126750000D01*
X142700000Y-111790000D02*
X142700000Y-126400000D01*
X145190000Y-109300000D02*
X142700000Y-111790000D01*
X136360000Y-134500000D02*
X134410000Y-136450000D01*
X139950000Y-134500000D02*
X136360000Y-134500000D01*
X141870000Y-139150000D02*
X144570000Y-136450000D01*
X132000000Y-139150000D02*
X141870000Y-139150000D01*
X130600000Y-137750000D02*
X132000000Y-139150000D01*
X130600000Y-137200042D02*
X130600000Y-137750000D01*
X130450000Y-137050042D02*
X130600000Y-137200042D01*
X138768999Y-126631001D02*
X138768999Y-132818999D01*
X139100000Y-126300000D02*
X138768999Y-126631001D01*
X138768999Y-132818999D02*
X138137998Y-133450000D01*
X130700000Y-133450000D02*
X130450000Y-133700000D01*
X130450000Y-133700000D02*
X130450000Y-137050042D01*
X131200000Y-133250000D02*
X131400000Y-133450000D01*
X131200000Y-131650000D02*
X131200000Y-133250000D01*
X138137998Y-133450000D02*
X131400000Y-133450000D01*
X131400000Y-133450000D02*
X130700000Y-133450000D01*
X130050000Y-116550000D02*
X130050000Y-126200000D01*
X130300000Y-116300000D02*
X130050000Y-116550000D01*
X135300000Y-115020000D02*
X134020000Y-116300000D01*
X134020000Y-116300000D02*
X130300000Y-116300000D01*
X130050000Y-126200000D02*
X130050000Y-127200000D01*
X130050000Y-127200000D02*
X130450000Y-127600000D01*
X140812632Y-123150000D02*
X137300000Y-119637368D01*
X141100000Y-123150000D02*
X140812632Y-123150000D01*
X137300000Y-114480000D02*
X135300000Y-112480000D01*
X137300000Y-119637368D02*
X137300000Y-114480000D01*
X139969000Y-127912632D02*
X139969000Y-128200000D01*
X139800000Y-127743632D02*
X139969000Y-127912632D01*
X139800000Y-125600000D02*
X139800000Y-127743632D01*
X134100000Y-119900000D02*
X139800000Y-125600000D01*
X134100000Y-118650000D02*
X134100000Y-119900000D01*
X134496801Y-124146801D02*
X134496801Y-121196801D01*
X134700000Y-124350000D02*
X134496801Y-124146801D01*
X134496801Y-121196801D02*
X131750000Y-118450000D01*
X131750000Y-118450000D02*
X130750000Y-119450000D01*
X130750000Y-119450000D02*
X130750000Y-119700000D01*
X134070000Y-103550000D02*
X134310000Y-103310000D01*
X130050000Y-103550000D02*
X134070000Y-103550000D01*
X134310000Y-103310000D02*
X135300000Y-102320000D01*
X147110000Y-136450000D02*
X142510000Y-141050000D01*
X142510000Y-141050000D02*
X132050000Y-141050000D01*
X132050000Y-141050000D02*
X129850000Y-138850000D01*
X129850000Y-138850000D02*
X129850000Y-129700000D01*
X136750000Y-125500000D02*
X136700000Y-125500000D01*
X137650000Y-126400000D02*
X136750000Y-125500000D01*
X134050000Y-125500000D02*
X136700000Y-125500000D01*
X131575000Y-119275000D02*
X131650000Y-119200000D01*
X131575000Y-127975000D02*
X131575000Y-119275000D01*
X131575000Y-127975000D02*
X134050000Y-125500000D01*
X129850000Y-129700000D02*
X131575000Y-127975000D01*
X131137368Y-101200000D02*
X131237368Y-101100000D01*
X130850000Y-101200000D02*
X131137368Y-101200000D01*
X133980000Y-101100000D02*
X135300000Y-99780000D01*
X131237368Y-101100000D02*
X133980000Y-101100000D01*
X139500000Y-127800000D02*
X139150000Y-127450000D01*
X139500000Y-133100000D02*
X139500000Y-127800000D01*
X140500000Y-134100000D02*
X139500000Y-133100000D01*
X139490000Y-136450000D02*
X140500000Y-135440000D01*
X140500000Y-135440000D02*
X140500000Y-134100000D01*
X131870000Y-135396800D02*
X131870000Y-136450000D01*
X133466800Y-133800000D02*
X131870000Y-135396800D01*
X139350000Y-133800000D02*
X133466800Y-133800000D01*
X147730000Y-99140000D02*
X152360000Y-99140000D01*
X152360000Y-99140000D02*
X153500000Y-100280000D01*
X153500000Y-100280000D02*
X153500000Y-132600000D01*
X140337368Y-132900000D02*
X140587368Y-132650000D01*
X140050000Y-132900000D02*
X140337368Y-132900000D01*
X153450000Y-132650000D02*
X153500000Y-132600000D01*
X140587368Y-132650000D02*
X153450000Y-132650000D01*
X141200000Y-133300000D02*
X152700000Y-133300000D01*
X152580000Y-101680000D02*
X147730000Y-101680000D01*
X152950000Y-131850000D02*
X152950000Y-102050000D01*
X152950000Y-102050000D02*
X152580000Y-101680000D01*
X147760000Y-119460000D02*
X147730000Y-119460000D01*
X150050000Y-121750000D02*
X147760000Y-119460000D01*
X144600000Y-125200000D02*
X144887368Y-125200000D01*
X144887368Y-125200000D02*
X147650000Y-125200000D01*
X144340001Y-98290001D02*
X137809999Y-98290001D01*
X145190000Y-99140000D02*
X144340001Y-98290001D01*
X137809999Y-98290001D02*
X137650000Y-98450000D01*
X137650000Y-98450000D02*
X136400000Y-98450000D01*
X136400000Y-98450000D02*
X136350000Y-98500000D01*
X136350000Y-98500000D02*
X131350000Y-98500000D01*
X131350000Y-98500000D02*
X130468999Y-99381001D01*
X130468999Y-99381001D02*
X129500000Y-100350000D01*
X129500000Y-100350000D02*
X129500000Y-102950000D01*
X129500000Y-102950000D02*
X129500000Y-120550000D01*
X129500000Y-120550000D02*
X129500000Y-128600000D01*
X130550000Y-131100000D02*
X133950000Y-127700000D01*
X130550000Y-132850000D02*
X130550000Y-131100000D01*
X133950000Y-127700000D02*
X134050000Y-127700000D01*
X134212632Y-127700000D02*
X133950000Y-127700000D01*
X134712632Y-127200000D02*
X134212632Y-127700000D01*
X135000000Y-127200000D02*
X134712632Y-127200000D01*
X141346801Y-127846801D02*
X141246801Y-127846801D01*
X141550000Y-128050000D02*
X141346801Y-127846801D01*
X141246801Y-127846801D02*
X141050000Y-127650000D01*
X141050000Y-127650000D02*
X140900000Y-127650000D01*
X140900000Y-127650000D02*
X140650000Y-127400000D01*
X140650000Y-127400000D02*
X140650000Y-124800000D01*
X140650000Y-124800000D02*
X137300000Y-121450000D01*
X138200000Y-105262632D02*
X138450000Y-105012632D01*
X138200000Y-105550000D02*
X138200000Y-105262632D01*
X138450000Y-105012632D02*
X138450000Y-104150000D01*
X140920000Y-101680000D02*
X145190000Y-101680000D01*
X138450000Y-104150000D02*
X140920000Y-101680000D01*
X137350000Y-127850000D02*
X136000000Y-126500000D01*
X136000000Y-126500000D02*
X136000000Y-126050000D01*
X149753199Y-123853199D02*
X150896801Y-123853199D01*
X149550000Y-123650000D02*
X149753199Y-123853199D01*
X150896801Y-123853199D02*
X151600000Y-123150000D01*
X151600000Y-123150000D02*
X151600000Y-123000000D01*
X151600000Y-123000000D02*
X152500000Y-122100000D01*
X152500000Y-122100000D02*
X152500000Y-105650000D01*
X152300000Y-105450000D02*
X152500000Y-105650000D01*
X146500000Y-105450000D02*
X152300000Y-105450000D01*
X145190000Y-106760000D02*
X146500000Y-105450000D01*
X145190000Y-123053200D02*
X145190000Y-122000000D01*
X146286800Y-124150000D02*
X145190000Y-123053200D01*
X152100000Y-124150000D02*
X146286800Y-124150000D01*
X150000000Y-132150000D02*
X151450000Y-132150000D01*
X151450000Y-132150000D02*
X152250000Y-131350000D01*
X152250000Y-131350000D02*
X152250000Y-126300000D01*
X152250000Y-126300000D02*
X152550000Y-126000000D01*
X152550000Y-124600000D02*
X152100000Y-124150000D01*
X152550000Y-126000000D02*
X152550000Y-124600000D01*
X136650000Y-123400000D02*
X136650000Y-124200000D01*
X136650000Y-124200000D02*
X135900000Y-124950000D01*
X135900000Y-124950000D02*
X134150000Y-124950000D01*
X134150000Y-124950000D02*
X133150000Y-123950000D01*
X151553199Y-131146801D02*
X151350000Y-131350000D01*
X151553199Y-130446801D02*
X151553199Y-131146801D01*
X151850000Y-130150000D02*
X151553199Y-130446801D01*
X151850000Y-126750000D02*
X151850000Y-130150000D01*
X141550000Y-126750000D02*
X141550000Y-127037368D01*
X141550000Y-127037368D02*
X141612632Y-127100000D01*
X141612632Y-127100000D02*
X149000000Y-127100000D01*
X149000000Y-127100000D02*
X149550000Y-126550000D01*
X149550000Y-126550000D02*
X151650000Y-126550000D01*
X151650000Y-126550000D02*
X151850000Y-126750000D01*
X143000000Y-103687368D02*
X139050000Y-107637368D01*
X143000000Y-103400000D02*
X143000000Y-103687368D01*
X139050000Y-107637368D02*
X139050000Y-120250000D01*
X139050000Y-120250000D02*
X139050000Y-120550000D01*
X139503199Y-122853199D02*
X139503199Y-123003199D01*
X139300000Y-122650000D02*
X139503199Y-122853199D01*
X139503199Y-123003199D02*
X141250000Y-124750000D01*
X141250000Y-124750000D02*
X141250000Y-126150000D01*
X141662632Y-127600000D02*
X141412632Y-127350000D01*
X141950000Y-127600000D02*
X141662632Y-127600000D01*
X141412632Y-127350000D02*
X141250000Y-127350000D01*
X141250000Y-127350000D02*
X141100000Y-127200000D01*
X141100000Y-126300000D02*
X141250000Y-126150000D01*
X141100000Y-127200000D02*
X141100000Y-126300000D01*
X146880001Y-107609999D02*
X146390001Y-107609999D01*
X147730000Y-106760000D02*
X146880001Y-107609999D01*
X146390001Y-107609999D02*
X146000000Y-108000000D01*
X139950000Y-108150000D02*
X139950000Y-121000000D01*
X139950000Y-121000000D02*
X141750000Y-122800000D01*
X140350000Y-108150000D02*
X140500000Y-108000000D01*
X139950000Y-108150000D02*
X140350000Y-108150000D01*
X146000000Y-108000000D02*
X140500000Y-108000000D01*
X141996801Y-126096801D02*
X141750000Y-125850000D01*
X141996801Y-126146801D02*
X141996801Y-126096801D01*
X142200000Y-126350000D02*
X141996801Y-126146801D01*
X141750000Y-122800000D02*
X141750000Y-125850000D01*
X143237368Y-128250000D02*
X143337368Y-128150000D01*
X142950000Y-128250000D02*
X143237368Y-128250000D01*
X143337368Y-128150000D02*
X148650000Y-128150000D01*
X148650000Y-128150000D02*
X151100000Y-128150000D01*
X151100000Y-128150000D02*
X151350000Y-128400000D01*
X144253199Y-125753199D02*
X144050000Y-125550000D01*
X151346801Y-125753199D02*
X144253199Y-125753199D01*
X151546801Y-125553199D02*
X151346801Y-125753199D01*
X151546801Y-125103199D02*
X151546801Y-125553199D01*
X151850000Y-124800000D02*
X151546801Y-125103199D01*
X144187368Y-124650000D02*
X144387368Y-124450000D01*
X143900000Y-124650000D02*
X144187368Y-124650000D01*
X144387368Y-124450000D02*
X145800000Y-124450000D01*
X145800000Y-124450000D02*
X146100000Y-124750000D01*
X146100000Y-124750000D02*
X149400000Y-124750000D01*
X149400000Y-124750000D02*
X150050000Y-124750000D01*
X150703199Y-122496801D02*
X150753199Y-122496801D01*
X150500000Y-122700000D02*
X150703199Y-122496801D01*
X150753199Y-122496801D02*
X151950000Y-121300000D01*
X151950000Y-121300000D02*
X151950000Y-115600000D01*
X150730000Y-114380000D02*
X147730000Y-114380000D01*
X151950000Y-115600000D02*
X150730000Y-114380000D01*
X142300000Y-123950000D02*
X142300000Y-121550000D01*
X146450000Y-122587368D02*
X147212632Y-123350000D01*
X146450000Y-122300000D02*
X146450000Y-122587368D01*
X147212632Y-123350000D02*
X148300000Y-123350000D01*
X148300000Y-123350000D02*
X148400000Y-123250000D01*
X150200000Y-120450000D02*
X151350000Y-119300000D01*
X151350000Y-119300000D02*
X151350000Y-115550000D01*
X141150000Y-134650000D02*
X140850000Y-134950000D01*
X140850000Y-134950000D02*
X140850000Y-138400000D01*
X133900000Y-130700000D02*
X132200000Y-132400000D01*
X132200000Y-132400000D02*
X132200000Y-132600000D01*
X131700000Y-106200000D02*
X131700000Y-106050000D01*
X131700000Y-106050000D02*
X130450000Y-104800000D01*
X138450000Y-106200000D02*
X131700000Y-106200000D01*
X138800000Y-106550000D02*
X138450000Y-106200000D01*
X144550000Y-132150000D02*
X149150000Y-132150000D01*
X149150000Y-132150000D02*
X149800000Y-131500000D01*
X149800000Y-131500000D02*
X150650000Y-131500000D01*
X132760000Y-97240000D02*
X130860000Y-97240000D01*
X130860000Y-97240000D02*
X130150000Y-97950000D01*
X131990000Y-100550000D02*
X132760000Y-99780000D01*
X130200000Y-100550000D02*
X131990000Y-100550000D01*
X132760000Y-104860000D02*
X131490000Y-104860000D01*
X131490000Y-104860000D02*
X131450000Y-104900000D01*
X135950000Y-120250000D02*
X135700000Y-120250000D01*
X135700000Y-120250000D02*
X134850000Y-119400000D01*
X138300000Y-128050000D02*
X138300000Y-125350000D01*
X138300000Y-125350000D02*
X138050000Y-125100000D01*
X138050000Y-125100000D02*
X136900000Y-125100000D01*
X133150000Y-124862632D02*
X132550000Y-124262632D01*
X133150000Y-125150000D02*
X133150000Y-124862632D01*
X132550000Y-124262632D02*
X132550000Y-120350000D01*
X142050000Y-128586118D02*
X141036118Y-128586118D01*
X141036118Y-128586118D02*
X140250000Y-127800000D01*
X140250000Y-127800000D02*
X140250000Y-126650000D01*
D15*
G36*
X153523000Y-153413000D02*
G01*
X129477000Y-153413000D01*
X129477000Y-146511716D01*
X130046999Y-146511716D01*
X130046999Y-147088284D01*
X130159481Y-147653775D01*
X130380125Y-148186455D01*
X130700449Y-148665854D01*
X131108145Y-149073550D01*
X131587544Y-149393874D01*
X132120224Y-149614518D01*
X132685715Y-149727000D01*
X133262283Y-149727000D01*
X133827774Y-149614518D01*
X134360454Y-149393874D01*
X134839853Y-149073550D01*
X135247549Y-148665854D01*
X135567873Y-148186455D01*
X135788517Y-147653775D01*
X135900999Y-147088284D01*
X135900999Y-146511716D01*
X147099001Y-146511716D01*
X147099001Y-147088284D01*
X147211483Y-147653775D01*
X147432127Y-148186455D01*
X147752451Y-148665854D01*
X148160147Y-149073550D01*
X148639546Y-149393874D01*
X149172226Y-149614518D01*
X149737717Y-149727000D01*
X150314285Y-149727000D01*
X150879776Y-149614518D01*
X151412456Y-149393874D01*
X151891855Y-149073550D01*
X152299551Y-148665854D01*
X152619875Y-148186455D01*
X152840519Y-147653775D01*
X152953001Y-147088284D01*
X152953001Y-146511716D01*
X152840519Y-145946225D01*
X152619875Y-145413545D01*
X152299551Y-144934146D01*
X151891855Y-144526450D01*
X151412456Y-144206126D01*
X150879776Y-143985482D01*
X150314285Y-143873000D01*
X149737717Y-143873000D01*
X149172226Y-143985482D01*
X148639546Y-144206126D01*
X148160147Y-144526450D01*
X147752451Y-144934146D01*
X147432127Y-145413545D01*
X147211483Y-145946225D01*
X147099001Y-146511716D01*
X135900999Y-146511716D01*
X135788517Y-145946225D01*
X135567873Y-145413545D01*
X135247549Y-144934146D01*
X134839853Y-144526450D01*
X134360454Y-144206126D01*
X133827774Y-143985482D01*
X133262283Y-143873000D01*
X132685715Y-143873000D01*
X132120224Y-143985482D01*
X131587544Y-144206126D01*
X131108145Y-144526450D01*
X130700449Y-144934146D01*
X130380125Y-145413545D01*
X130159481Y-145946225D01*
X130046999Y-146511716D01*
X129477000Y-146511716D01*
X129477000Y-139227706D01*
X129494590Y-139242142D01*
X131657862Y-141405415D01*
X131674415Y-141425585D01*
X131754905Y-141491641D01*
X131846735Y-141540725D01*
X131946376Y-141570951D01*
X132050000Y-141581157D01*
X132075962Y-141578600D01*
X142484038Y-141578600D01*
X142510000Y-141581157D01*
X142535962Y-141578600D01*
X142613624Y-141570951D01*
X142713265Y-141540725D01*
X142805095Y-141491641D01*
X142885585Y-141425585D01*
X142902142Y-141405410D01*
X146659692Y-137647861D01*
X146859664Y-137708522D01*
X147047274Y-137727000D01*
X147172726Y-137727000D01*
X147360336Y-137708522D01*
X147601051Y-137635502D01*
X147822896Y-137516924D01*
X148017344Y-137357344D01*
X148176924Y-137162896D01*
X148271824Y-136985350D01*
X148305843Y-137081252D01*
X148454822Y-137331355D01*
X148649731Y-137547588D01*
X148883080Y-137721641D01*
X149145901Y-137846825D01*
X149293110Y-137891476D01*
X149523000Y-137770155D01*
X149523000Y-136577000D01*
X149777000Y-136577000D01*
X149777000Y-137770155D01*
X150006890Y-137891476D01*
X150154099Y-137846825D01*
X150416920Y-137721641D01*
X150650269Y-137547588D01*
X150845178Y-137331355D01*
X150994157Y-137081252D01*
X151091481Y-136806891D01*
X150970814Y-136577000D01*
X149777000Y-136577000D01*
X149523000Y-136577000D01*
X149503000Y-136577000D01*
X149503000Y-136323000D01*
X149523000Y-136323000D01*
X149523000Y-135129845D01*
X149777000Y-135129845D01*
X149777000Y-136323000D01*
X150970814Y-136323000D01*
X151091481Y-136093109D01*
X150994157Y-135818748D01*
X150845178Y-135568645D01*
X150650269Y-135352412D01*
X150416920Y-135178359D01*
X150154099Y-135053175D01*
X150006890Y-135008524D01*
X149777000Y-135129845D01*
X149523000Y-135129845D01*
X149293110Y-135008524D01*
X149145901Y-135053175D01*
X148883080Y-135178359D01*
X148649731Y-135352412D01*
X148454822Y-135568645D01*
X148305843Y-135818748D01*
X148271824Y-135914650D01*
X148176924Y-135737104D01*
X148017344Y-135542656D01*
X147822896Y-135383076D01*
X147601051Y-135264498D01*
X147360336Y-135191478D01*
X147172726Y-135173000D01*
X147047274Y-135173000D01*
X146859664Y-135191478D01*
X146618949Y-135264498D01*
X146397104Y-135383076D01*
X146202656Y-135542656D01*
X146043076Y-135737104D01*
X145924498Y-135958949D01*
X145851478Y-136199664D01*
X145840000Y-136316202D01*
X145828522Y-136199664D01*
X145755502Y-135958949D01*
X145636924Y-135737104D01*
X145477344Y-135542656D01*
X145282896Y-135383076D01*
X145061051Y-135264498D01*
X144820336Y-135191478D01*
X144632726Y-135173000D01*
X144507274Y-135173000D01*
X144319664Y-135191478D01*
X144078949Y-135264498D01*
X143857104Y-135383076D01*
X143662656Y-135542656D01*
X143503076Y-135737104D01*
X143384498Y-135958949D01*
X143311478Y-136199664D01*
X143300000Y-136316202D01*
X143288522Y-136199664D01*
X143215502Y-135958949D01*
X143096924Y-135737104D01*
X142937344Y-135542656D01*
X142742896Y-135383076D01*
X142521051Y-135264498D01*
X142280336Y-135191478D01*
X142092726Y-135173000D01*
X141967274Y-135173000D01*
X141779664Y-135191478D01*
X141538949Y-135264498D01*
X141378600Y-135350206D01*
X141378600Y-135237434D01*
X141448512Y-135208476D01*
X141551729Y-135139508D01*
X141639508Y-135051729D01*
X141708476Y-134948512D01*
X141755982Y-134833822D01*
X141780200Y-134712069D01*
X141780200Y-134587931D01*
X141755982Y-134466178D01*
X141708476Y-134351488D01*
X141639508Y-134248271D01*
X141551729Y-134160492D01*
X141448512Y-134091524D01*
X141333822Y-134044018D01*
X141212069Y-134019800D01*
X141087931Y-134019800D01*
X141024501Y-134032417D01*
X141020951Y-133996376D01*
X140990725Y-133896735D01*
X140989835Y-133895071D01*
X141016178Y-133905982D01*
X141137931Y-133930200D01*
X141262069Y-133930200D01*
X141383822Y-133905982D01*
X141498512Y-133858476D01*
X141543224Y-133828600D01*
X152356776Y-133828600D01*
X152401488Y-133858476D01*
X152516178Y-133905982D01*
X152637931Y-133930200D01*
X152762069Y-133930200D01*
X152883822Y-133905982D01*
X152998512Y-133858476D01*
X153101729Y-133789508D01*
X153189508Y-133701729D01*
X153258476Y-133598512D01*
X153305982Y-133483822D01*
X153330200Y-133362069D01*
X153330200Y-133237931D01*
X153318398Y-133178600D01*
X153424038Y-133178600D01*
X153450000Y-133181157D01*
X153475962Y-133178600D01*
X153523000Y-133173967D01*
X153523000Y-153413000D01*
X153523000Y-153413000D01*
G37*
X153523000Y-153413000D02*
X129477000Y-153413000D01*
X129477000Y-146511716D01*
X130046999Y-146511716D01*
X130046999Y-147088284D01*
X130159481Y-147653775D01*
X130380125Y-148186455D01*
X130700449Y-148665854D01*
X131108145Y-149073550D01*
X131587544Y-149393874D01*
X132120224Y-149614518D01*
X132685715Y-149727000D01*
X133262283Y-149727000D01*
X133827774Y-149614518D01*
X134360454Y-149393874D01*
X134839853Y-149073550D01*
X135247549Y-148665854D01*
X135567873Y-148186455D01*
X135788517Y-147653775D01*
X135900999Y-147088284D01*
X135900999Y-146511716D01*
X147099001Y-146511716D01*
X147099001Y-147088284D01*
X147211483Y-147653775D01*
X147432127Y-148186455D01*
X147752451Y-148665854D01*
X148160147Y-149073550D01*
X148639546Y-149393874D01*
X149172226Y-149614518D01*
X149737717Y-149727000D01*
X150314285Y-149727000D01*
X150879776Y-149614518D01*
X151412456Y-149393874D01*
X151891855Y-149073550D01*
X152299551Y-148665854D01*
X152619875Y-148186455D01*
X152840519Y-147653775D01*
X152953001Y-147088284D01*
X152953001Y-146511716D01*
X152840519Y-145946225D01*
X152619875Y-145413545D01*
X152299551Y-144934146D01*
X151891855Y-144526450D01*
X151412456Y-144206126D01*
X150879776Y-143985482D01*
X150314285Y-143873000D01*
X149737717Y-143873000D01*
X149172226Y-143985482D01*
X148639546Y-144206126D01*
X148160147Y-144526450D01*
X147752451Y-144934146D01*
X147432127Y-145413545D01*
X147211483Y-145946225D01*
X147099001Y-146511716D01*
X135900999Y-146511716D01*
X135788517Y-145946225D01*
X135567873Y-145413545D01*
X135247549Y-144934146D01*
X134839853Y-144526450D01*
X134360454Y-144206126D01*
X133827774Y-143985482D01*
X133262283Y-143873000D01*
X132685715Y-143873000D01*
X132120224Y-143985482D01*
X131587544Y-144206126D01*
X131108145Y-144526450D01*
X130700449Y-144934146D01*
X130380125Y-145413545D01*
X130159481Y-145946225D01*
X130046999Y-146511716D01*
X129477000Y-146511716D01*
X129477000Y-139227706D01*
X129494590Y-139242142D01*
X131657862Y-141405415D01*
X131674415Y-141425585D01*
X131754905Y-141491641D01*
X131846735Y-141540725D01*
X131946376Y-141570951D01*
X132050000Y-141581157D01*
X132075962Y-141578600D01*
X142484038Y-141578600D01*
X142510000Y-141581157D01*
X142535962Y-141578600D01*
X142613624Y-141570951D01*
X142713265Y-141540725D01*
X142805095Y-141491641D01*
X142885585Y-141425585D01*
X142902142Y-141405410D01*
X146659692Y-137647861D01*
X146859664Y-137708522D01*
X147047274Y-137727000D01*
X147172726Y-137727000D01*
X147360336Y-137708522D01*
X147601051Y-137635502D01*
X147822896Y-137516924D01*
X148017344Y-137357344D01*
X148176924Y-137162896D01*
X148271824Y-136985350D01*
X148305843Y-137081252D01*
X148454822Y-137331355D01*
X148649731Y-137547588D01*
X148883080Y-137721641D01*
X149145901Y-137846825D01*
X149293110Y-137891476D01*
X149523000Y-137770155D01*
X149523000Y-136577000D01*
X149777000Y-136577000D01*
X149777000Y-137770155D01*
X150006890Y-137891476D01*
X150154099Y-137846825D01*
X150416920Y-137721641D01*
X150650269Y-137547588D01*
X150845178Y-137331355D01*
X150994157Y-137081252D01*
X151091481Y-136806891D01*
X150970814Y-136577000D01*
X149777000Y-136577000D01*
X149523000Y-136577000D01*
X149503000Y-136577000D01*
X149503000Y-136323000D01*
X149523000Y-136323000D01*
X149523000Y-135129845D01*
X149777000Y-135129845D01*
X149777000Y-136323000D01*
X150970814Y-136323000D01*
X151091481Y-136093109D01*
X150994157Y-135818748D01*
X150845178Y-135568645D01*
X150650269Y-135352412D01*
X150416920Y-135178359D01*
X150154099Y-135053175D01*
X150006890Y-135008524D01*
X149777000Y-135129845D01*
X149523000Y-135129845D01*
X149293110Y-135008524D01*
X149145901Y-135053175D01*
X148883080Y-135178359D01*
X148649731Y-135352412D01*
X148454822Y-135568645D01*
X148305843Y-135818748D01*
X148271824Y-135914650D01*
X148176924Y-135737104D01*
X148017344Y-135542656D01*
X147822896Y-135383076D01*
X147601051Y-135264498D01*
X147360336Y-135191478D01*
X147172726Y-135173000D01*
X147047274Y-135173000D01*
X146859664Y-135191478D01*
X146618949Y-135264498D01*
X146397104Y-135383076D01*
X146202656Y-135542656D01*
X146043076Y-135737104D01*
X145924498Y-135958949D01*
X145851478Y-136199664D01*
X145840000Y-136316202D01*
X145828522Y-136199664D01*
X145755502Y-135958949D01*
X145636924Y-135737104D01*
X145477344Y-135542656D01*
X145282896Y-135383076D01*
X145061051Y-135264498D01*
X144820336Y-135191478D01*
X144632726Y-135173000D01*
X144507274Y-135173000D01*
X144319664Y-135191478D01*
X144078949Y-135264498D01*
X143857104Y-135383076D01*
X143662656Y-135542656D01*
X143503076Y-135737104D01*
X143384498Y-135958949D01*
X143311478Y-136199664D01*
X143300000Y-136316202D01*
X143288522Y-136199664D01*
X143215502Y-135958949D01*
X143096924Y-135737104D01*
X142937344Y-135542656D01*
X142742896Y-135383076D01*
X142521051Y-135264498D01*
X142280336Y-135191478D01*
X142092726Y-135173000D01*
X141967274Y-135173000D01*
X141779664Y-135191478D01*
X141538949Y-135264498D01*
X141378600Y-135350206D01*
X141378600Y-135237434D01*
X141448512Y-135208476D01*
X141551729Y-135139508D01*
X141639508Y-135051729D01*
X141708476Y-134948512D01*
X141755982Y-134833822D01*
X141780200Y-134712069D01*
X141780200Y-134587931D01*
X141755982Y-134466178D01*
X141708476Y-134351488D01*
X141639508Y-134248271D01*
X141551729Y-134160492D01*
X141448512Y-134091524D01*
X141333822Y-134044018D01*
X141212069Y-134019800D01*
X141087931Y-134019800D01*
X141024501Y-134032417D01*
X141020951Y-133996376D01*
X140990725Y-133896735D01*
X140989835Y-133895071D01*
X141016178Y-133905982D01*
X141137931Y-133930200D01*
X141262069Y-133930200D01*
X141383822Y-133905982D01*
X141498512Y-133858476D01*
X141543224Y-133828600D01*
X152356776Y-133828600D01*
X152401488Y-133858476D01*
X152516178Y-133905982D01*
X152637931Y-133930200D01*
X152762069Y-133930200D01*
X152883822Y-133905982D01*
X152998512Y-133858476D01*
X153101729Y-133789508D01*
X153189508Y-133701729D01*
X153258476Y-133598512D01*
X153305982Y-133483822D01*
X153330200Y-133362069D01*
X153330200Y-133237931D01*
X153318398Y-133178600D01*
X153424038Y-133178600D01*
X153450000Y-133181157D01*
X153475962Y-133178600D01*
X153523000Y-133173967D01*
X153523000Y-153413000D01*
G36*
X135369800Y-126112069D02*
G01*
X135394018Y-126233822D01*
X135441524Y-126348512D01*
X135471400Y-126393224D01*
X135471400Y-126474038D01*
X135468843Y-126500000D01*
X135476629Y-126579049D01*
X135479049Y-126603623D01*
X135509275Y-126703264D01*
X135558359Y-126795095D01*
X135624415Y-126875585D01*
X135644590Y-126892142D01*
X136391440Y-127638993D01*
X136366178Y-127644018D01*
X136251488Y-127691524D01*
X136148271Y-127760492D01*
X136060492Y-127848271D01*
X135991524Y-127951488D01*
X135944018Y-128066178D01*
X135919800Y-128187931D01*
X135919800Y-128312069D01*
X135944018Y-128433822D01*
X135991524Y-128548512D01*
X136060492Y-128651729D01*
X136148271Y-128739508D01*
X136251488Y-128808476D01*
X136366178Y-128855982D01*
X136487931Y-128880200D01*
X136612069Y-128880200D01*
X136733822Y-128855982D01*
X136848512Y-128808476D01*
X136951729Y-128739508D01*
X137039508Y-128651729D01*
X137108476Y-128548512D01*
X137149640Y-128449132D01*
X137166178Y-128455982D01*
X137287931Y-128480200D01*
X137412069Y-128480200D01*
X137533822Y-128455982D01*
X137648512Y-128408476D01*
X137751729Y-128339508D01*
X137839508Y-128251729D01*
X137908476Y-128148512D01*
X137955982Y-128033822D01*
X137980200Y-127912069D01*
X137980200Y-127787931D01*
X137955982Y-127666178D01*
X137908476Y-127551488D01*
X137839508Y-127448271D01*
X137751729Y-127360492D01*
X137648512Y-127291524D01*
X137533822Y-127244018D01*
X137481080Y-127233527D01*
X136569485Y-126321933D01*
X136605982Y-126233822D01*
X136627598Y-126125150D01*
X137033527Y-126531080D01*
X137044018Y-126583822D01*
X137091524Y-126698512D01*
X137160492Y-126801729D01*
X137248271Y-126889508D01*
X137351488Y-126958476D01*
X137466178Y-127005982D01*
X137587931Y-127030200D01*
X137712069Y-127030200D01*
X137833822Y-127005982D01*
X137948512Y-126958476D01*
X138051729Y-126889508D01*
X138139508Y-126801729D01*
X138208476Y-126698512D01*
X138238279Y-126626560D01*
X138237842Y-126631001D01*
X138240399Y-126656963D01*
X138240400Y-132600045D01*
X137919046Y-132921400D01*
X132743183Y-132921400D01*
X132758476Y-132898512D01*
X132805982Y-132783822D01*
X132830200Y-132662069D01*
X132830200Y-132537931D01*
X132826786Y-132520766D01*
X134031080Y-131316473D01*
X134083822Y-131305982D01*
X134198512Y-131258476D01*
X134301729Y-131189508D01*
X134389508Y-131101729D01*
X134458476Y-130998512D01*
X134505982Y-130883822D01*
X134530200Y-130762069D01*
X134530200Y-130637931D01*
X134505982Y-130516178D01*
X134458476Y-130401488D01*
X134389508Y-130298271D01*
X134301729Y-130210492D01*
X134198512Y-130141524D01*
X134083822Y-130094018D01*
X133962069Y-130069800D01*
X133837931Y-130069800D01*
X133716178Y-130094018D01*
X133601488Y-130141524D01*
X133498271Y-130210492D01*
X133410492Y-130298271D01*
X133341524Y-130401488D01*
X133294018Y-130516178D01*
X133283527Y-130568920D01*
X131844590Y-132007858D01*
X131824415Y-132024415D01*
X131758359Y-132104905D01*
X131735051Y-132148512D01*
X131728600Y-132160581D01*
X131728600Y-131993224D01*
X131758476Y-131948512D01*
X131805982Y-131833822D01*
X131830200Y-131712069D01*
X131830200Y-131587931D01*
X131805982Y-131466178D01*
X131758476Y-131351488D01*
X131689508Y-131248271D01*
X131601729Y-131160492D01*
X131498512Y-131091524D01*
X131383822Y-131044018D01*
X131358559Y-131038993D01*
X134168953Y-128228600D01*
X134186670Y-128228600D01*
X134212632Y-128231157D01*
X134238594Y-128228600D01*
X134316256Y-128220951D01*
X134415897Y-128190725D01*
X134507727Y-128141641D01*
X134588217Y-128075585D01*
X134604774Y-128055410D01*
X134847894Y-127812291D01*
X134937931Y-127830200D01*
X135062069Y-127830200D01*
X135183822Y-127805982D01*
X135298512Y-127758476D01*
X135401729Y-127689508D01*
X135489508Y-127601729D01*
X135558476Y-127498512D01*
X135605982Y-127383822D01*
X135630200Y-127262069D01*
X135630200Y-127137931D01*
X135605982Y-127016178D01*
X135558476Y-126901488D01*
X135489508Y-126798271D01*
X135401729Y-126710492D01*
X135298512Y-126641524D01*
X135183822Y-126594018D01*
X135062069Y-126569800D01*
X134937931Y-126569800D01*
X134816178Y-126594018D01*
X134701488Y-126641524D01*
X134651608Y-126674853D01*
X134609008Y-126679049D01*
X134509367Y-126709275D01*
X134417537Y-126758359D01*
X134337047Y-126824415D01*
X134320494Y-126844585D01*
X133993680Y-127171400D01*
X133975958Y-127171400D01*
X133949999Y-127168843D01*
X133924040Y-127171400D01*
X133924038Y-127171400D01*
X133846376Y-127179049D01*
X133746735Y-127209275D01*
X133654905Y-127258359D01*
X133574415Y-127324415D01*
X133557862Y-127344585D01*
X130378600Y-130523848D01*
X130378600Y-129918952D01*
X131930420Y-128367134D01*
X131950585Y-128350585D01*
X131967142Y-128330410D01*
X134268953Y-126028600D01*
X135369800Y-126028600D01*
X135369800Y-126112069D01*
X135369800Y-126112069D01*
G37*
X135369800Y-126112069D02*
X135394018Y-126233822D01*
X135441524Y-126348512D01*
X135471400Y-126393224D01*
X135471400Y-126474038D01*
X135468843Y-126500000D01*
X135476629Y-126579049D01*
X135479049Y-126603623D01*
X135509275Y-126703264D01*
X135558359Y-126795095D01*
X135624415Y-126875585D01*
X135644590Y-126892142D01*
X136391440Y-127638993D01*
X136366178Y-127644018D01*
X136251488Y-127691524D01*
X136148271Y-127760492D01*
X136060492Y-127848271D01*
X135991524Y-127951488D01*
X135944018Y-128066178D01*
X135919800Y-128187931D01*
X135919800Y-128312069D01*
X135944018Y-128433822D01*
X135991524Y-128548512D01*
X136060492Y-128651729D01*
X136148271Y-128739508D01*
X136251488Y-128808476D01*
X136366178Y-128855982D01*
X136487931Y-128880200D01*
X136612069Y-128880200D01*
X136733822Y-128855982D01*
X136848512Y-128808476D01*
X136951729Y-128739508D01*
X137039508Y-128651729D01*
X137108476Y-128548512D01*
X137149640Y-128449132D01*
X137166178Y-128455982D01*
X137287931Y-128480200D01*
X137412069Y-128480200D01*
X137533822Y-128455982D01*
X137648512Y-128408476D01*
X137751729Y-128339508D01*
X137839508Y-128251729D01*
X137908476Y-128148512D01*
X137955982Y-128033822D01*
X137980200Y-127912069D01*
X137980200Y-127787931D01*
X137955982Y-127666178D01*
X137908476Y-127551488D01*
X137839508Y-127448271D01*
X137751729Y-127360492D01*
X137648512Y-127291524D01*
X137533822Y-127244018D01*
X137481080Y-127233527D01*
X136569485Y-126321933D01*
X136605982Y-126233822D01*
X136627598Y-126125150D01*
X137033527Y-126531080D01*
X137044018Y-126583822D01*
X137091524Y-126698512D01*
X137160492Y-126801729D01*
X137248271Y-126889508D01*
X137351488Y-126958476D01*
X137466178Y-127005982D01*
X137587931Y-127030200D01*
X137712069Y-127030200D01*
X137833822Y-127005982D01*
X137948512Y-126958476D01*
X138051729Y-126889508D01*
X138139508Y-126801729D01*
X138208476Y-126698512D01*
X138238279Y-126626560D01*
X138237842Y-126631001D01*
X138240399Y-126656963D01*
X138240400Y-132600045D01*
X137919046Y-132921400D01*
X132743183Y-132921400D01*
X132758476Y-132898512D01*
X132805982Y-132783822D01*
X132830200Y-132662069D01*
X132830200Y-132537931D01*
X132826786Y-132520766D01*
X134031080Y-131316473D01*
X134083822Y-131305982D01*
X134198512Y-131258476D01*
X134301729Y-131189508D01*
X134389508Y-131101729D01*
X134458476Y-130998512D01*
X134505982Y-130883822D01*
X134530200Y-130762069D01*
X134530200Y-130637931D01*
X134505982Y-130516178D01*
X134458476Y-130401488D01*
X134389508Y-130298271D01*
X134301729Y-130210492D01*
X134198512Y-130141524D01*
X134083822Y-130094018D01*
X133962069Y-130069800D01*
X133837931Y-130069800D01*
X133716178Y-130094018D01*
X133601488Y-130141524D01*
X133498271Y-130210492D01*
X133410492Y-130298271D01*
X133341524Y-130401488D01*
X133294018Y-130516178D01*
X133283527Y-130568920D01*
X131844590Y-132007858D01*
X131824415Y-132024415D01*
X131758359Y-132104905D01*
X131735051Y-132148512D01*
X131728600Y-132160581D01*
X131728600Y-131993224D01*
X131758476Y-131948512D01*
X131805982Y-131833822D01*
X131830200Y-131712069D01*
X131830200Y-131587931D01*
X131805982Y-131466178D01*
X131758476Y-131351488D01*
X131689508Y-131248271D01*
X131601729Y-131160492D01*
X131498512Y-131091524D01*
X131383822Y-131044018D01*
X131358559Y-131038993D01*
X134168953Y-128228600D01*
X134186670Y-128228600D01*
X134212632Y-128231157D01*
X134238594Y-128228600D01*
X134316256Y-128220951D01*
X134415897Y-128190725D01*
X134507727Y-128141641D01*
X134588217Y-128075585D01*
X134604774Y-128055410D01*
X134847894Y-127812291D01*
X134937931Y-127830200D01*
X135062069Y-127830200D01*
X135183822Y-127805982D01*
X135298512Y-127758476D01*
X135401729Y-127689508D01*
X135489508Y-127601729D01*
X135558476Y-127498512D01*
X135605982Y-127383822D01*
X135630200Y-127262069D01*
X135630200Y-127137931D01*
X135605982Y-127016178D01*
X135558476Y-126901488D01*
X135489508Y-126798271D01*
X135401729Y-126710492D01*
X135298512Y-126641524D01*
X135183822Y-126594018D01*
X135062069Y-126569800D01*
X134937931Y-126569800D01*
X134816178Y-126594018D01*
X134701488Y-126641524D01*
X134651608Y-126674853D01*
X134609008Y-126679049D01*
X134509367Y-126709275D01*
X134417537Y-126758359D01*
X134337047Y-126824415D01*
X134320494Y-126844585D01*
X133993680Y-127171400D01*
X133975958Y-127171400D01*
X133949999Y-127168843D01*
X133924040Y-127171400D01*
X133924038Y-127171400D01*
X133846376Y-127179049D01*
X133746735Y-127209275D01*
X133654905Y-127258359D01*
X133574415Y-127324415D01*
X133557862Y-127344585D01*
X130378600Y-130523848D01*
X130378600Y-129918952D01*
X131930420Y-128367134D01*
X131950585Y-128350585D01*
X131967142Y-128330410D01*
X134268953Y-126028600D01*
X135369800Y-126028600D01*
X135369800Y-126112069D01*
G36*
X140604905Y-128091641D02*
G01*
X140696735Y-128140725D01*
X140796376Y-128170951D01*
X140826351Y-128173903D01*
X140854659Y-128202211D01*
X140871216Y-128222386D01*
X140951706Y-128288442D01*
X140970890Y-128298696D01*
X140991524Y-128348512D01*
X141060492Y-128451729D01*
X141148271Y-128539508D01*
X141251488Y-128608476D01*
X141366178Y-128655982D01*
X141487931Y-128680200D01*
X141612069Y-128680200D01*
X141733822Y-128655982D01*
X141848512Y-128608476D01*
X141850721Y-128607000D01*
X142430605Y-128607000D01*
X142460492Y-128651729D01*
X142548271Y-128739508D01*
X142651488Y-128808476D01*
X142766178Y-128855982D01*
X142887931Y-128880200D01*
X143012069Y-128880200D01*
X143133822Y-128855982D01*
X143248512Y-128808476D01*
X143298392Y-128775147D01*
X143340992Y-128770951D01*
X143440633Y-128740725D01*
X143532463Y-128691641D01*
X143548354Y-128678600D01*
X150783276Y-128678600D01*
X150791524Y-128698512D01*
X150860492Y-128801729D01*
X150948271Y-128889508D01*
X151051488Y-128958476D01*
X151166178Y-129005982D01*
X151287931Y-129030200D01*
X151321401Y-129030200D01*
X151321401Y-129931047D01*
X151197789Y-130054659D01*
X151177614Y-130071216D01*
X151111558Y-130151706D01*
X151080787Y-130209276D01*
X151062474Y-130243537D01*
X151032248Y-130343178D01*
X151022042Y-130446801D01*
X151024599Y-130472763D01*
X151024599Y-130809491D01*
X150948271Y-130860492D01*
X150860492Y-130948271D01*
X150791524Y-131051488D01*
X150744018Y-131166178D01*
X150719800Y-131287931D01*
X150719800Y-131412069D01*
X150744018Y-131533822D01*
X150780294Y-131621400D01*
X150343224Y-131621400D01*
X150298512Y-131591524D01*
X150183822Y-131544018D01*
X150062069Y-131519800D01*
X149937931Y-131519800D01*
X149816178Y-131544018D01*
X149701488Y-131591524D01*
X149598271Y-131660492D01*
X149510492Y-131748271D01*
X149441524Y-131851488D01*
X149394018Y-131966178D01*
X149369800Y-132087931D01*
X149369800Y-132121400D01*
X140613326Y-132121400D01*
X140587367Y-132118843D01*
X140561408Y-132121400D01*
X140561406Y-132121400D01*
X140483744Y-132129049D01*
X140384103Y-132159275D01*
X140292273Y-132208359D01*
X140211783Y-132274415D01*
X140201046Y-132287498D01*
X140112069Y-132269800D01*
X140028600Y-132269800D01*
X140028600Y-128830200D01*
X140031069Y-128830200D01*
X140152822Y-128805982D01*
X140267512Y-128758476D01*
X140370729Y-128689508D01*
X140458508Y-128601729D01*
X140527476Y-128498512D01*
X140574982Y-128383822D01*
X140599200Y-128262069D01*
X140599200Y-128137931D01*
X140587083Y-128077015D01*
X140604905Y-128091641D01*
X140604905Y-128091641D01*
G37*
X140604905Y-128091641D02*
X140696735Y-128140725D01*
X140796376Y-128170951D01*
X140826351Y-128173903D01*
X140854659Y-128202211D01*
X140871216Y-128222386D01*
X140951706Y-128288442D01*
X140970890Y-128298696D01*
X140991524Y-128348512D01*
X141060492Y-128451729D01*
X141148271Y-128539508D01*
X141251488Y-128608476D01*
X141366178Y-128655982D01*
X141487931Y-128680200D01*
X141612069Y-128680200D01*
X141733822Y-128655982D01*
X141848512Y-128608476D01*
X141850721Y-128607000D01*
X142430605Y-128607000D01*
X142460492Y-128651729D01*
X142548271Y-128739508D01*
X142651488Y-128808476D01*
X142766178Y-128855982D01*
X142887931Y-128880200D01*
X143012069Y-128880200D01*
X143133822Y-128855982D01*
X143248512Y-128808476D01*
X143298392Y-128775147D01*
X143340992Y-128770951D01*
X143440633Y-128740725D01*
X143532463Y-128691641D01*
X143548354Y-128678600D01*
X150783276Y-128678600D01*
X150791524Y-128698512D01*
X150860492Y-128801729D01*
X150948271Y-128889508D01*
X151051488Y-128958476D01*
X151166178Y-129005982D01*
X151287931Y-129030200D01*
X151321401Y-129030200D01*
X151321401Y-129931047D01*
X151197789Y-130054659D01*
X151177614Y-130071216D01*
X151111558Y-130151706D01*
X151080787Y-130209276D01*
X151062474Y-130243537D01*
X151032248Y-130343178D01*
X151022042Y-130446801D01*
X151024599Y-130472763D01*
X151024599Y-130809491D01*
X150948271Y-130860492D01*
X150860492Y-130948271D01*
X150791524Y-131051488D01*
X150744018Y-131166178D01*
X150719800Y-131287931D01*
X150719800Y-131412069D01*
X150744018Y-131533822D01*
X150780294Y-131621400D01*
X150343224Y-131621400D01*
X150298512Y-131591524D01*
X150183822Y-131544018D01*
X150062069Y-131519800D01*
X149937931Y-131519800D01*
X149816178Y-131544018D01*
X149701488Y-131591524D01*
X149598271Y-131660492D01*
X149510492Y-131748271D01*
X149441524Y-131851488D01*
X149394018Y-131966178D01*
X149369800Y-132087931D01*
X149369800Y-132121400D01*
X140613326Y-132121400D01*
X140587367Y-132118843D01*
X140561408Y-132121400D01*
X140561406Y-132121400D01*
X140483744Y-132129049D01*
X140384103Y-132159275D01*
X140292273Y-132208359D01*
X140211783Y-132274415D01*
X140201046Y-132287498D01*
X140112069Y-132269800D01*
X140028600Y-132269800D01*
X140028600Y-128830200D01*
X140031069Y-128830200D01*
X140152822Y-128805982D01*
X140267512Y-128758476D01*
X140370729Y-128689508D01*
X140458508Y-128601729D01*
X140527476Y-128498512D01*
X140574982Y-128383822D01*
X140599200Y-128262069D01*
X140599200Y-128137931D01*
X140587083Y-128077015D01*
X140604905Y-128091641D01*
G36*
X133968202Y-121415755D02*
G01*
X133968201Y-124020649D01*
X133766473Y-123818921D01*
X133755982Y-123766178D01*
X133708476Y-123651488D01*
X133639508Y-123548271D01*
X133551729Y-123460492D01*
X133448512Y-123391524D01*
X133333822Y-123344018D01*
X133212069Y-123319800D01*
X133087931Y-123319800D01*
X132966178Y-123344018D01*
X132851488Y-123391524D01*
X132748271Y-123460492D01*
X132660492Y-123548271D01*
X132591524Y-123651488D01*
X132544018Y-123766178D01*
X132519800Y-123887931D01*
X132519800Y-124012069D01*
X132544018Y-124133822D01*
X132591524Y-124248512D01*
X132660492Y-124351729D01*
X132748271Y-124439508D01*
X132851488Y-124508476D01*
X132966178Y-124555982D01*
X133018921Y-124566473D01*
X133627447Y-125175000D01*
X132103600Y-126698848D01*
X132103600Y-119637637D01*
X132139508Y-119601729D01*
X132145383Y-119592936D01*
X133968202Y-121415755D01*
X133968202Y-121415755D01*
G37*
X133968202Y-121415755D02*
X133968201Y-124020649D01*
X133766473Y-123818921D01*
X133755982Y-123766178D01*
X133708476Y-123651488D01*
X133639508Y-123548271D01*
X133551729Y-123460492D01*
X133448512Y-123391524D01*
X133333822Y-123344018D01*
X133212069Y-123319800D01*
X133087931Y-123319800D01*
X132966178Y-123344018D01*
X132851488Y-123391524D01*
X132748271Y-123460492D01*
X132660492Y-123548271D01*
X132591524Y-123651488D01*
X132544018Y-123766178D01*
X132519800Y-123887931D01*
X132519800Y-124012069D01*
X132544018Y-124133822D01*
X132591524Y-124248512D01*
X132660492Y-124351729D01*
X132748271Y-124439508D01*
X132851488Y-124508476D01*
X132966178Y-124555982D01*
X133018921Y-124566473D01*
X133627447Y-125175000D01*
X132103600Y-126698848D01*
X132103600Y-119637637D01*
X132139508Y-119601729D01*
X132145383Y-119592936D01*
X133968202Y-121415755D01*
G36*
X139122247Y-125669800D02*
G01*
X139037931Y-125669800D01*
X138916178Y-125694018D01*
X138801488Y-125741524D01*
X138698271Y-125810492D01*
X138610492Y-125898271D01*
X138541524Y-126001488D01*
X138494018Y-126116178D01*
X138483527Y-126168921D01*
X138413589Y-126238859D01*
X138393414Y-126255416D01*
X138327358Y-126335906D01*
X138286649Y-126412069D01*
X138280200Y-126424134D01*
X138280200Y-126337931D01*
X138255982Y-126216178D01*
X138208476Y-126101488D01*
X138139508Y-125998271D01*
X138051729Y-125910492D01*
X137948512Y-125841524D01*
X137833822Y-125794018D01*
X137781080Y-125783527D01*
X137142142Y-125144590D01*
X137125585Y-125124415D01*
X137045095Y-125058359D01*
X136953265Y-125009275D01*
X136853624Y-124979049D01*
X136775962Y-124971400D01*
X136750000Y-124968843D01*
X136724038Y-124971400D01*
X136626152Y-124971400D01*
X137005415Y-124592138D01*
X137025585Y-124575585D01*
X137091641Y-124495095D01*
X137140725Y-124403265D01*
X137170951Y-124303624D01*
X137178600Y-124225962D01*
X137178600Y-124225960D01*
X137181157Y-124200001D01*
X137178600Y-124174042D01*
X137178600Y-123743224D01*
X137185438Y-123732991D01*
X139122247Y-125669800D01*
X139122247Y-125669800D01*
G37*
X139122247Y-125669800D02*
X139037931Y-125669800D01*
X138916178Y-125694018D01*
X138801488Y-125741524D01*
X138698271Y-125810492D01*
X138610492Y-125898271D01*
X138541524Y-126001488D01*
X138494018Y-126116178D01*
X138483527Y-126168921D01*
X138413589Y-126238859D01*
X138393414Y-126255416D01*
X138327358Y-126335906D01*
X138286649Y-126412069D01*
X138280200Y-126424134D01*
X138280200Y-126337931D01*
X138255982Y-126216178D01*
X138208476Y-126101488D01*
X138139508Y-125998271D01*
X138051729Y-125910492D01*
X137948512Y-125841524D01*
X137833822Y-125794018D01*
X137781080Y-125783527D01*
X137142142Y-125144590D01*
X137125585Y-125124415D01*
X137045095Y-125058359D01*
X136953265Y-125009275D01*
X136853624Y-124979049D01*
X136775962Y-124971400D01*
X136750000Y-124968843D01*
X136724038Y-124971400D01*
X136626152Y-124971400D01*
X137005415Y-124592138D01*
X137025585Y-124575585D01*
X137091641Y-124495095D01*
X137140725Y-124403265D01*
X137170951Y-124303624D01*
X137178600Y-124225962D01*
X137178600Y-124225960D01*
X137181157Y-124200001D01*
X137178600Y-124174042D01*
X137178600Y-123743224D01*
X137185438Y-123732991D01*
X139122247Y-125669800D01*
G36*
X136771401Y-114698954D02*
G01*
X136771400Y-119611406D01*
X136768843Y-119637368D01*
X136771400Y-119663329D01*
X136779049Y-119740991D01*
X136809275Y-119840632D01*
X136858359Y-119932463D01*
X136924415Y-120012953D01*
X136944590Y-120029510D01*
X139005105Y-122090026D01*
X139001488Y-122091524D01*
X138898271Y-122160492D01*
X138828158Y-122230605D01*
X137916473Y-121318921D01*
X137905982Y-121266178D01*
X137858476Y-121151488D01*
X137789508Y-121048271D01*
X137701729Y-120960492D01*
X137598512Y-120891524D01*
X137483822Y-120844018D01*
X137362069Y-120819800D01*
X137237931Y-120819800D01*
X137116178Y-120844018D01*
X137001488Y-120891524D01*
X136898271Y-120960492D01*
X136810492Y-121048271D01*
X136741524Y-121151488D01*
X136694018Y-121266178D01*
X136669800Y-121387931D01*
X136669800Y-121512069D01*
X136694018Y-121633822D01*
X136741524Y-121748512D01*
X136810492Y-121851729D01*
X136898271Y-121939508D01*
X137001488Y-122008476D01*
X137116178Y-122055982D01*
X137168921Y-122066473D01*
X140121401Y-125018955D01*
X140121401Y-125173848D01*
X134628600Y-119681048D01*
X134628600Y-118993224D01*
X134658476Y-118948512D01*
X134705982Y-118833822D01*
X134730200Y-118712069D01*
X134730200Y-118703410D01*
X134808949Y-118745502D01*
X135049664Y-118818522D01*
X135237274Y-118837000D01*
X135362726Y-118837000D01*
X135550336Y-118818522D01*
X135791051Y-118745502D01*
X136012896Y-118626924D01*
X136207344Y-118467344D01*
X136366924Y-118272896D01*
X136485502Y-118051051D01*
X136558522Y-117810336D01*
X136583178Y-117560000D01*
X136558522Y-117309664D01*
X136485502Y-117068949D01*
X136366924Y-116847104D01*
X136207344Y-116652656D01*
X136012896Y-116493076D01*
X135791051Y-116374498D01*
X135550336Y-116301478D01*
X135433798Y-116290000D01*
X135550336Y-116278522D01*
X135791051Y-116205502D01*
X136012896Y-116086924D01*
X136207344Y-115927344D01*
X136366924Y-115732896D01*
X136485502Y-115511051D01*
X136558522Y-115270336D01*
X136583178Y-115020000D01*
X136558522Y-114769664D01*
X136485502Y-114528949D01*
X136366924Y-114307104D01*
X136309133Y-114236685D01*
X136771401Y-114698954D01*
X136771401Y-114698954D01*
G37*
X136771401Y-114698954D02*
X136771400Y-119611406D01*
X136768843Y-119637368D01*
X136771400Y-119663329D01*
X136779049Y-119740991D01*
X136809275Y-119840632D01*
X136858359Y-119932463D01*
X136924415Y-120012953D01*
X136944590Y-120029510D01*
X139005105Y-122090026D01*
X139001488Y-122091524D01*
X138898271Y-122160492D01*
X138828158Y-122230605D01*
X137916473Y-121318921D01*
X137905982Y-121266178D01*
X137858476Y-121151488D01*
X137789508Y-121048271D01*
X137701729Y-120960492D01*
X137598512Y-120891524D01*
X137483822Y-120844018D01*
X137362069Y-120819800D01*
X137237931Y-120819800D01*
X137116178Y-120844018D01*
X137001488Y-120891524D01*
X136898271Y-120960492D01*
X136810492Y-121048271D01*
X136741524Y-121151488D01*
X136694018Y-121266178D01*
X136669800Y-121387931D01*
X136669800Y-121512069D01*
X136694018Y-121633822D01*
X136741524Y-121748512D01*
X136810492Y-121851729D01*
X136898271Y-121939508D01*
X137001488Y-122008476D01*
X137116178Y-122055982D01*
X137168921Y-122066473D01*
X140121401Y-125018955D01*
X140121401Y-125173848D01*
X134628600Y-119681048D01*
X134628600Y-118993224D01*
X134658476Y-118948512D01*
X134705982Y-118833822D01*
X134730200Y-118712069D01*
X134730200Y-118703410D01*
X134808949Y-118745502D01*
X135049664Y-118818522D01*
X135237274Y-118837000D01*
X135362726Y-118837000D01*
X135550336Y-118818522D01*
X135791051Y-118745502D01*
X136012896Y-118626924D01*
X136207344Y-118467344D01*
X136366924Y-118272896D01*
X136485502Y-118051051D01*
X136558522Y-117810336D01*
X136583178Y-117560000D01*
X136558522Y-117309664D01*
X136485502Y-117068949D01*
X136366924Y-116847104D01*
X136207344Y-116652656D01*
X136012896Y-116493076D01*
X135791051Y-116374498D01*
X135550336Y-116301478D01*
X135433798Y-116290000D01*
X135550336Y-116278522D01*
X135791051Y-116205502D01*
X136012896Y-116086924D01*
X136207344Y-115927344D01*
X136366924Y-115732896D01*
X136485502Y-115511051D01*
X136558522Y-115270336D01*
X136583178Y-115020000D01*
X136558522Y-114769664D01*
X136485502Y-114528949D01*
X136366924Y-114307104D01*
X136309133Y-114236685D01*
X136771401Y-114698954D01*
G36*
X144123076Y-108587104D02*
G01*
X144004498Y-108808949D01*
X143931478Y-109049664D01*
X143906822Y-109300000D01*
X143931478Y-109550336D01*
X143992139Y-109750308D01*
X142344590Y-111397858D01*
X142324415Y-111414415D01*
X142258359Y-111494905D01*
X142216801Y-111572656D01*
X142209275Y-111586736D01*
X142179049Y-111686377D01*
X142168843Y-111790000D01*
X142171400Y-111815962D01*
X142171401Y-120933034D01*
X142116178Y-120944018D01*
X142001488Y-120991524D01*
X141898271Y-121060492D01*
X141810492Y-121148271D01*
X141741524Y-121251488D01*
X141694018Y-121366178D01*
X141669800Y-121487931D01*
X141669800Y-121612069D01*
X141694018Y-121733822D01*
X141741524Y-121848512D01*
X141771401Y-121893225D01*
X141771401Y-122073847D01*
X140478600Y-120781048D01*
X140478600Y-110587931D01*
X140519800Y-110587931D01*
X140519800Y-110712069D01*
X140544018Y-110833822D01*
X140591524Y-110948512D01*
X140660492Y-111051729D01*
X140748271Y-111139508D01*
X140851488Y-111208476D01*
X140966178Y-111255982D01*
X141087931Y-111280200D01*
X141212069Y-111280200D01*
X141333822Y-111255982D01*
X141448512Y-111208476D01*
X141551729Y-111139508D01*
X141639508Y-111051729D01*
X141708476Y-110948512D01*
X141755982Y-110833822D01*
X141780200Y-110712069D01*
X141780200Y-110587931D01*
X141755982Y-110466178D01*
X141708476Y-110351488D01*
X141639508Y-110248271D01*
X141551729Y-110160492D01*
X141448512Y-110091524D01*
X141333822Y-110044018D01*
X141212069Y-110019800D01*
X141087931Y-110019800D01*
X140966178Y-110044018D01*
X140851488Y-110091524D01*
X140748271Y-110160492D01*
X140660492Y-110248271D01*
X140591524Y-110351488D01*
X140544018Y-110466178D01*
X140519800Y-110587931D01*
X140478600Y-110587931D01*
X140478600Y-108663375D01*
X140553265Y-108640725D01*
X140645095Y-108591641D01*
X140721911Y-108528600D01*
X144171089Y-108528600D01*
X144123076Y-108587104D01*
X144123076Y-108587104D01*
G37*
X144123076Y-108587104D02*
X144004498Y-108808949D01*
X143931478Y-109049664D01*
X143906822Y-109300000D01*
X143931478Y-109550336D01*
X143992139Y-109750308D01*
X142344590Y-111397858D01*
X142324415Y-111414415D01*
X142258359Y-111494905D01*
X142216801Y-111572656D01*
X142209275Y-111586736D01*
X142179049Y-111686377D01*
X142168843Y-111790000D01*
X142171400Y-111815962D01*
X142171401Y-120933034D01*
X142116178Y-120944018D01*
X142001488Y-120991524D01*
X141898271Y-121060492D01*
X141810492Y-121148271D01*
X141741524Y-121251488D01*
X141694018Y-121366178D01*
X141669800Y-121487931D01*
X141669800Y-121612069D01*
X141694018Y-121733822D01*
X141741524Y-121848512D01*
X141771401Y-121893225D01*
X141771401Y-122073847D01*
X140478600Y-120781048D01*
X140478600Y-110587931D01*
X140519800Y-110587931D01*
X140519800Y-110712069D01*
X140544018Y-110833822D01*
X140591524Y-110948512D01*
X140660492Y-111051729D01*
X140748271Y-111139508D01*
X140851488Y-111208476D01*
X140966178Y-111255982D01*
X141087931Y-111280200D01*
X141212069Y-111280200D01*
X141333822Y-111255982D01*
X141448512Y-111208476D01*
X141551729Y-111139508D01*
X141639508Y-111051729D01*
X141708476Y-110948512D01*
X141755982Y-110833822D01*
X141780200Y-110712069D01*
X141780200Y-110587931D01*
X141755982Y-110466178D01*
X141708476Y-110351488D01*
X141639508Y-110248271D01*
X141551729Y-110160492D01*
X141448512Y-110091524D01*
X141333822Y-110044018D01*
X141212069Y-110019800D01*
X141087931Y-110019800D01*
X140966178Y-110044018D01*
X140851488Y-110091524D01*
X140748271Y-110160492D01*
X140660492Y-110248271D01*
X140591524Y-110351488D01*
X140544018Y-110466178D01*
X140519800Y-110587931D01*
X140478600Y-110587931D01*
X140478600Y-108663375D01*
X140553265Y-108640725D01*
X140645095Y-108591641D01*
X140721911Y-108528600D01*
X144171089Y-108528600D01*
X144123076Y-108587104D01*
G36*
X138194018Y-106733822D02*
G01*
X138241524Y-106848512D01*
X138310492Y-106951729D01*
X138398271Y-107039508D01*
X138501488Y-107108476D01*
X138616178Y-107155982D01*
X138737931Y-107180200D01*
X138759616Y-107180200D01*
X138694590Y-107245226D01*
X138674415Y-107261783D01*
X138608359Y-107342273D01*
X138573904Y-107406735D01*
X138559275Y-107434104D01*
X138529049Y-107533745D01*
X138518843Y-107637368D01*
X138521400Y-107663330D01*
X138521401Y-120111217D01*
X137828600Y-119418416D01*
X137828600Y-114505958D01*
X137831157Y-114479999D01*
X137828600Y-114454038D01*
X137820951Y-114376376D01*
X137790725Y-114276735D01*
X137741641Y-114184905D01*
X137675585Y-114104415D01*
X137655415Y-114087862D01*
X136497861Y-112930309D01*
X136558522Y-112730336D01*
X136583178Y-112480000D01*
X136558522Y-112229664D01*
X136485502Y-111988949D01*
X136366924Y-111767104D01*
X136207344Y-111572656D01*
X136012896Y-111413076D01*
X135791051Y-111294498D01*
X135550336Y-111221478D01*
X135433798Y-111210000D01*
X135550336Y-111198522D01*
X135791051Y-111125502D01*
X136012896Y-111006924D01*
X136207344Y-110847344D01*
X136366924Y-110652896D01*
X136485502Y-110431051D01*
X136558522Y-110190336D01*
X136583178Y-109940000D01*
X136558522Y-109689664D01*
X136485502Y-109448949D01*
X136366924Y-109227104D01*
X136207344Y-109032656D01*
X136012896Y-108873076D01*
X135791051Y-108754498D01*
X135550336Y-108681478D01*
X135433798Y-108670000D01*
X135550336Y-108658522D01*
X135791051Y-108585502D01*
X136012896Y-108466924D01*
X136207344Y-108307344D01*
X136366924Y-108112896D01*
X136485502Y-107891051D01*
X136558522Y-107650336D01*
X136583178Y-107400000D01*
X136558522Y-107149664D01*
X136485502Y-106908949D01*
X136389104Y-106728600D01*
X138192979Y-106728600D01*
X138194018Y-106733822D01*
X138194018Y-106733822D01*
G37*
X138194018Y-106733822D02*
X138241524Y-106848512D01*
X138310492Y-106951729D01*
X138398271Y-107039508D01*
X138501488Y-107108476D01*
X138616178Y-107155982D01*
X138737931Y-107180200D01*
X138759616Y-107180200D01*
X138694590Y-107245226D01*
X138674415Y-107261783D01*
X138608359Y-107342273D01*
X138573904Y-107406735D01*
X138559275Y-107434104D01*
X138529049Y-107533745D01*
X138518843Y-107637368D01*
X138521400Y-107663330D01*
X138521401Y-120111217D01*
X137828600Y-119418416D01*
X137828600Y-114505958D01*
X137831157Y-114479999D01*
X137828600Y-114454038D01*
X137820951Y-114376376D01*
X137790725Y-114276735D01*
X137741641Y-114184905D01*
X137675585Y-114104415D01*
X137655415Y-114087862D01*
X136497861Y-112930309D01*
X136558522Y-112730336D01*
X136583178Y-112480000D01*
X136558522Y-112229664D01*
X136485502Y-111988949D01*
X136366924Y-111767104D01*
X136207344Y-111572656D01*
X136012896Y-111413076D01*
X135791051Y-111294498D01*
X135550336Y-111221478D01*
X135433798Y-111210000D01*
X135550336Y-111198522D01*
X135791051Y-111125502D01*
X136012896Y-111006924D01*
X136207344Y-110847344D01*
X136366924Y-110652896D01*
X136485502Y-110431051D01*
X136558522Y-110190336D01*
X136583178Y-109940000D01*
X136558522Y-109689664D01*
X136485502Y-109448949D01*
X136366924Y-109227104D01*
X136207344Y-109032656D01*
X136012896Y-108873076D01*
X135791051Y-108754498D01*
X135550336Y-108681478D01*
X135433798Y-108670000D01*
X135550336Y-108658522D01*
X135791051Y-108585502D01*
X136012896Y-108466924D01*
X136207344Y-108307344D01*
X136366924Y-108112896D01*
X136485502Y-107891051D01*
X136558522Y-107650336D01*
X136583178Y-107400000D01*
X136558522Y-107149664D01*
X136485502Y-106908949D01*
X136389104Y-106728600D01*
X138192979Y-106728600D01*
X138194018Y-106733822D01*
G36*
X131363175Y-117055901D02*
G01*
X131318524Y-117203110D01*
X131439845Y-117433000D01*
X132633000Y-117433000D01*
X132633000Y-117413000D01*
X132887000Y-117413000D01*
X132887000Y-117433000D01*
X132907000Y-117433000D01*
X132907000Y-117687000D01*
X132887000Y-117687000D01*
X132887000Y-117707000D01*
X132633000Y-117707000D01*
X132633000Y-117687000D01*
X131439845Y-117687000D01*
X131318524Y-117916890D01*
X131363175Y-118064099D01*
X131370413Y-118079294D01*
X131357871Y-118094576D01*
X130578600Y-118873848D01*
X130578600Y-116828600D01*
X131471441Y-116828600D01*
X131363175Y-117055901D01*
X131363175Y-117055901D01*
G37*
X131363175Y-117055901D02*
X131318524Y-117203110D01*
X131439845Y-117433000D01*
X132633000Y-117433000D01*
X132633000Y-117413000D01*
X132887000Y-117413000D01*
X132887000Y-117433000D01*
X132907000Y-117433000D01*
X132907000Y-117687000D01*
X132887000Y-117687000D01*
X132887000Y-117707000D01*
X132633000Y-117707000D01*
X132633000Y-117687000D01*
X131439845Y-117687000D01*
X131318524Y-117916890D01*
X131363175Y-118064099D01*
X131370413Y-118079294D01*
X131357871Y-118094576D01*
X130578600Y-118873848D01*
X130578600Y-116828600D01*
X131471441Y-116828600D01*
X131363175Y-117055901D01*
G36*
X130048271Y-105289508D02*
G01*
X130151488Y-105358476D01*
X130266178Y-105405982D01*
X130318921Y-105416473D01*
X131069800Y-106167353D01*
X131069800Y-106262069D01*
X131094018Y-106383822D01*
X131141524Y-106498512D01*
X131210492Y-106601729D01*
X131298271Y-106689508D01*
X131401488Y-106758476D01*
X131424159Y-106767867D01*
X131363175Y-106895901D01*
X131318524Y-107043110D01*
X131439845Y-107273000D01*
X132633000Y-107273000D01*
X132633000Y-107253000D01*
X132887000Y-107253000D01*
X132887000Y-107273000D01*
X132907000Y-107273000D01*
X132907000Y-107527000D01*
X132887000Y-107527000D01*
X132887000Y-109813000D01*
X132907000Y-109813000D01*
X132907000Y-110067000D01*
X132887000Y-110067000D01*
X132887000Y-112353000D01*
X132907000Y-112353000D01*
X132907000Y-112607000D01*
X132887000Y-112607000D01*
X132887000Y-114893000D01*
X132907000Y-114893000D01*
X132907000Y-115147000D01*
X132887000Y-115147000D01*
X132887000Y-115167000D01*
X132633000Y-115167000D01*
X132633000Y-115147000D01*
X131439845Y-115147000D01*
X131318524Y-115376890D01*
X131363175Y-115524099D01*
X131480967Y-115771400D01*
X130325958Y-115771400D01*
X130299999Y-115768843D01*
X130274040Y-115771400D01*
X130274038Y-115771400D01*
X130196376Y-115779049D01*
X130096735Y-115809275D01*
X130028600Y-115845694D01*
X130028600Y-112836890D01*
X131318524Y-112836890D01*
X131363175Y-112984099D01*
X131488359Y-113246920D01*
X131662412Y-113480269D01*
X131878645Y-113675178D01*
X132004255Y-113750000D01*
X131878645Y-113824822D01*
X131662412Y-114019731D01*
X131488359Y-114253080D01*
X131363175Y-114515901D01*
X131318524Y-114663110D01*
X131439845Y-114893000D01*
X132633000Y-114893000D01*
X132633000Y-112607000D01*
X131439845Y-112607000D01*
X131318524Y-112836890D01*
X130028600Y-112836890D01*
X130028600Y-110296890D01*
X131318524Y-110296890D01*
X131363175Y-110444099D01*
X131488359Y-110706920D01*
X131662412Y-110940269D01*
X131878645Y-111135178D01*
X132004255Y-111210000D01*
X131878645Y-111284822D01*
X131662412Y-111479731D01*
X131488359Y-111713080D01*
X131363175Y-111975901D01*
X131318524Y-112123110D01*
X131439845Y-112353000D01*
X132633000Y-112353000D01*
X132633000Y-110067000D01*
X131439845Y-110067000D01*
X131318524Y-110296890D01*
X130028600Y-110296890D01*
X130028600Y-107756890D01*
X131318524Y-107756890D01*
X131363175Y-107904099D01*
X131488359Y-108166920D01*
X131662412Y-108400269D01*
X131878645Y-108595178D01*
X132004255Y-108670000D01*
X131878645Y-108744822D01*
X131662412Y-108939731D01*
X131488359Y-109173080D01*
X131363175Y-109435901D01*
X131318524Y-109583110D01*
X131439845Y-109813000D01*
X132633000Y-109813000D01*
X132633000Y-107527000D01*
X131439845Y-107527000D01*
X131318524Y-107756890D01*
X130028600Y-107756890D01*
X130028600Y-105269837D01*
X130048271Y-105289508D01*
X130048271Y-105289508D01*
G37*
X130048271Y-105289508D02*
X130151488Y-105358476D01*
X130266178Y-105405982D01*
X130318921Y-105416473D01*
X131069800Y-106167353D01*
X131069800Y-106262069D01*
X131094018Y-106383822D01*
X131141524Y-106498512D01*
X131210492Y-106601729D01*
X131298271Y-106689508D01*
X131401488Y-106758476D01*
X131424159Y-106767867D01*
X131363175Y-106895901D01*
X131318524Y-107043110D01*
X131439845Y-107273000D01*
X132633000Y-107273000D01*
X132633000Y-107253000D01*
X132887000Y-107253000D01*
X132887000Y-107273000D01*
X132907000Y-107273000D01*
X132907000Y-107527000D01*
X132887000Y-107527000D01*
X132887000Y-109813000D01*
X132907000Y-109813000D01*
X132907000Y-110067000D01*
X132887000Y-110067000D01*
X132887000Y-112353000D01*
X132907000Y-112353000D01*
X132907000Y-112607000D01*
X132887000Y-112607000D01*
X132887000Y-114893000D01*
X132907000Y-114893000D01*
X132907000Y-115147000D01*
X132887000Y-115147000D01*
X132887000Y-115167000D01*
X132633000Y-115167000D01*
X132633000Y-115147000D01*
X131439845Y-115147000D01*
X131318524Y-115376890D01*
X131363175Y-115524099D01*
X131480967Y-115771400D01*
X130325958Y-115771400D01*
X130299999Y-115768843D01*
X130274040Y-115771400D01*
X130274038Y-115771400D01*
X130196376Y-115779049D01*
X130096735Y-115809275D01*
X130028600Y-115845694D01*
X130028600Y-112836890D01*
X131318524Y-112836890D01*
X131363175Y-112984099D01*
X131488359Y-113246920D01*
X131662412Y-113480269D01*
X131878645Y-113675178D01*
X132004255Y-113750000D01*
X131878645Y-113824822D01*
X131662412Y-114019731D01*
X131488359Y-114253080D01*
X131363175Y-114515901D01*
X131318524Y-114663110D01*
X131439845Y-114893000D01*
X132633000Y-114893000D01*
X132633000Y-112607000D01*
X131439845Y-112607000D01*
X131318524Y-112836890D01*
X130028600Y-112836890D01*
X130028600Y-110296890D01*
X131318524Y-110296890D01*
X131363175Y-110444099D01*
X131488359Y-110706920D01*
X131662412Y-110940269D01*
X131878645Y-111135178D01*
X132004255Y-111210000D01*
X131878645Y-111284822D01*
X131662412Y-111479731D01*
X131488359Y-111713080D01*
X131363175Y-111975901D01*
X131318524Y-112123110D01*
X131439845Y-112353000D01*
X132633000Y-112353000D01*
X132633000Y-110067000D01*
X131439845Y-110067000D01*
X131318524Y-110296890D01*
X130028600Y-110296890D01*
X130028600Y-107756890D01*
X131318524Y-107756890D01*
X131363175Y-107904099D01*
X131488359Y-108166920D01*
X131662412Y-108400269D01*
X131878645Y-108595178D01*
X132004255Y-108670000D01*
X131878645Y-108744822D01*
X131662412Y-108939731D01*
X131488359Y-109173080D01*
X131363175Y-109435901D01*
X131318524Y-109583110D01*
X131439845Y-109813000D01*
X132633000Y-109813000D01*
X132633000Y-107527000D01*
X131439845Y-107527000D01*
X131318524Y-107756890D01*
X130028600Y-107756890D01*
X130028600Y-105269837D01*
X130048271Y-105289508D01*
G36*
X143931478Y-98889664D02*
G01*
X143906822Y-99140000D01*
X143931478Y-99390336D01*
X144004498Y-99631051D01*
X144123076Y-99852896D01*
X144282656Y-100047344D01*
X144477104Y-100206924D01*
X144698949Y-100325502D01*
X144939664Y-100398522D01*
X145056202Y-100410000D01*
X144939664Y-100421478D01*
X144698949Y-100494498D01*
X144477104Y-100613076D01*
X144282656Y-100772656D01*
X144123076Y-100967104D01*
X144024568Y-101151400D01*
X140945958Y-101151400D01*
X140919999Y-101148843D01*
X140894040Y-101151400D01*
X140894038Y-101151400D01*
X140816376Y-101159049D01*
X140716735Y-101189275D01*
X140624905Y-101238359D01*
X140544415Y-101304415D01*
X140527867Y-101324579D01*
X138094586Y-103757862D01*
X138074416Y-103774415D01*
X138021055Y-103839436D01*
X138008359Y-103854906D01*
X137959275Y-103946736D01*
X137929049Y-104046377D01*
X137918843Y-104150000D01*
X137921400Y-104175962D01*
X137921400Y-104793680D01*
X137844585Y-104870495D01*
X137824416Y-104887047D01*
X137771055Y-104952068D01*
X137758359Y-104967538D01*
X137709275Y-105059368D01*
X137692018Y-105116256D01*
X137680294Y-105154906D01*
X137679049Y-105159009D01*
X137674853Y-105201607D01*
X137641524Y-105251488D01*
X137594018Y-105366178D01*
X137569800Y-105487931D01*
X137569800Y-105612069D01*
X137581602Y-105671400D01*
X136286084Y-105671400D01*
X136366924Y-105572896D01*
X136485502Y-105351051D01*
X136558522Y-105110336D01*
X136583178Y-104860000D01*
X136558522Y-104609664D01*
X136485502Y-104368949D01*
X136366924Y-104147104D01*
X136207344Y-103952656D01*
X136012896Y-103793076D01*
X135791051Y-103674498D01*
X135550336Y-103601478D01*
X135433798Y-103590000D01*
X135550336Y-103578522D01*
X135791051Y-103505502D01*
X136012896Y-103386924D01*
X136207344Y-103227344D01*
X136366924Y-103032896D01*
X136485502Y-102811051D01*
X136558522Y-102570336D01*
X136583178Y-102320000D01*
X136558522Y-102069664D01*
X136485502Y-101828949D01*
X136366924Y-101607104D01*
X136207344Y-101412656D01*
X136012896Y-101253076D01*
X135791051Y-101134498D01*
X135550336Y-101061478D01*
X135433798Y-101050000D01*
X135550336Y-101038522D01*
X135791051Y-100965502D01*
X136012896Y-100846924D01*
X136207344Y-100687344D01*
X136366924Y-100492896D01*
X136485502Y-100271051D01*
X136558522Y-100030336D01*
X136583178Y-99780000D01*
X136558522Y-99529664D01*
X136485502Y-99288949D01*
X136366924Y-99067104D01*
X136336317Y-99029809D01*
X136350000Y-99031157D01*
X136375962Y-99028600D01*
X136453624Y-99020951D01*
X136553265Y-98990725D01*
X136575949Y-98978600D01*
X137624038Y-98978600D01*
X137650000Y-98981157D01*
X137675962Y-98978600D01*
X137753624Y-98970951D01*
X137853265Y-98940725D01*
X137945095Y-98891641D01*
X138025585Y-98825585D01*
X138031317Y-98818601D01*
X143953035Y-98818601D01*
X143931478Y-98889664D01*
X143931478Y-98889664D01*
G37*
X143931478Y-98889664D02*
X143906822Y-99140000D01*
X143931478Y-99390336D01*
X144004498Y-99631051D01*
X144123076Y-99852896D01*
X144282656Y-100047344D01*
X144477104Y-100206924D01*
X144698949Y-100325502D01*
X144939664Y-100398522D01*
X145056202Y-100410000D01*
X144939664Y-100421478D01*
X144698949Y-100494498D01*
X144477104Y-100613076D01*
X144282656Y-100772656D01*
X144123076Y-100967104D01*
X144024568Y-101151400D01*
X140945958Y-101151400D01*
X140919999Y-101148843D01*
X140894040Y-101151400D01*
X140894038Y-101151400D01*
X140816376Y-101159049D01*
X140716735Y-101189275D01*
X140624905Y-101238359D01*
X140544415Y-101304415D01*
X140527867Y-101324579D01*
X138094586Y-103757862D01*
X138074416Y-103774415D01*
X138021055Y-103839436D01*
X138008359Y-103854906D01*
X137959275Y-103946736D01*
X137929049Y-104046377D01*
X137918843Y-104150000D01*
X137921400Y-104175962D01*
X137921400Y-104793680D01*
X137844585Y-104870495D01*
X137824416Y-104887047D01*
X137771055Y-104952068D01*
X137758359Y-104967538D01*
X137709275Y-105059368D01*
X137692018Y-105116256D01*
X137680294Y-105154906D01*
X137679049Y-105159009D01*
X137674853Y-105201607D01*
X137641524Y-105251488D01*
X137594018Y-105366178D01*
X137569800Y-105487931D01*
X137569800Y-105612069D01*
X137581602Y-105671400D01*
X136286084Y-105671400D01*
X136366924Y-105572896D01*
X136485502Y-105351051D01*
X136558522Y-105110336D01*
X136583178Y-104860000D01*
X136558522Y-104609664D01*
X136485502Y-104368949D01*
X136366924Y-104147104D01*
X136207344Y-103952656D01*
X136012896Y-103793076D01*
X135791051Y-103674498D01*
X135550336Y-103601478D01*
X135433798Y-103590000D01*
X135550336Y-103578522D01*
X135791051Y-103505502D01*
X136012896Y-103386924D01*
X136207344Y-103227344D01*
X136366924Y-103032896D01*
X136485502Y-102811051D01*
X136558522Y-102570336D01*
X136583178Y-102320000D01*
X136558522Y-102069664D01*
X136485502Y-101828949D01*
X136366924Y-101607104D01*
X136207344Y-101412656D01*
X136012896Y-101253076D01*
X135791051Y-101134498D01*
X135550336Y-101061478D01*
X135433798Y-101050000D01*
X135550336Y-101038522D01*
X135791051Y-100965502D01*
X136012896Y-100846924D01*
X136207344Y-100687344D01*
X136366924Y-100492896D01*
X136485502Y-100271051D01*
X136558522Y-100030336D01*
X136583178Y-99780000D01*
X136558522Y-99529664D01*
X136485502Y-99288949D01*
X136366924Y-99067104D01*
X136336317Y-99029809D01*
X136350000Y-99031157D01*
X136375962Y-99028600D01*
X136453624Y-99020951D01*
X136553265Y-98990725D01*
X136575949Y-98978600D01*
X137624038Y-98978600D01*
X137650000Y-98981157D01*
X137675962Y-98978600D01*
X137753624Y-98970951D01*
X137853265Y-98940725D01*
X137945095Y-98891641D01*
X138025585Y-98825585D01*
X138031317Y-98818601D01*
X143953035Y-98818601D01*
X143931478Y-98889664D01*
G36*
X131488359Y-104093080D02*
G01*
X131363175Y-104355901D01*
X131318524Y-104503110D01*
X131439845Y-104733000D01*
X132633000Y-104733000D01*
X132633000Y-104713000D01*
X132887000Y-104713000D01*
X132887000Y-104733000D01*
X132907000Y-104733000D01*
X132907000Y-104987000D01*
X132887000Y-104987000D01*
X132887000Y-105007000D01*
X132633000Y-105007000D01*
X132633000Y-104987000D01*
X131439845Y-104987000D01*
X131420745Y-105023192D01*
X131066473Y-104668921D01*
X131055982Y-104616178D01*
X131008476Y-104501488D01*
X130939508Y-104398271D01*
X130851729Y-104310492D01*
X130748512Y-104241524D01*
X130633822Y-104194018D01*
X130512069Y-104169800D01*
X130387931Y-104169800D01*
X130266178Y-104194018D01*
X130151488Y-104241524D01*
X130048271Y-104310492D01*
X130028600Y-104330163D01*
X130028600Y-104180200D01*
X130112069Y-104180200D01*
X130233822Y-104155982D01*
X130348512Y-104108476D01*
X130393224Y-104078600D01*
X131499160Y-104078600D01*
X131488359Y-104093080D01*
X131488359Y-104093080D01*
G37*
X131488359Y-104093080D02*
X131363175Y-104355901D01*
X131318524Y-104503110D01*
X131439845Y-104733000D01*
X132633000Y-104733000D01*
X132633000Y-104713000D01*
X132887000Y-104713000D01*
X132887000Y-104733000D01*
X132907000Y-104733000D01*
X132907000Y-104987000D01*
X132887000Y-104987000D01*
X132887000Y-105007000D01*
X132633000Y-105007000D01*
X132633000Y-104987000D01*
X131439845Y-104987000D01*
X131420745Y-105023192D01*
X131066473Y-104668921D01*
X131055982Y-104616178D01*
X131008476Y-104501488D01*
X130939508Y-104398271D01*
X130851729Y-104310492D01*
X130748512Y-104241524D01*
X130633822Y-104194018D01*
X130512069Y-104169800D01*
X130387931Y-104169800D01*
X130266178Y-104194018D01*
X130151488Y-104241524D01*
X130048271Y-104310492D01*
X130028600Y-104330163D01*
X130028600Y-104180200D01*
X130112069Y-104180200D01*
X130233822Y-104155982D01*
X130348512Y-104108476D01*
X130393224Y-104078600D01*
X131499160Y-104078600D01*
X131488359Y-104093080D01*
G36*
X131363175Y-99275901D02*
G01*
X131318524Y-99423110D01*
X131439845Y-99653000D01*
X132633000Y-99653000D01*
X132633000Y-99633000D01*
X132887000Y-99633000D01*
X132887000Y-99653000D01*
X132907000Y-99653000D01*
X132907000Y-99907000D01*
X132887000Y-99907000D01*
X132887000Y-99927000D01*
X132633000Y-99927000D01*
X132633000Y-99907000D01*
X131439845Y-99907000D01*
X131318524Y-100136890D01*
X131363175Y-100284099D01*
X131488359Y-100546920D01*
X131506618Y-100571400D01*
X131263326Y-100571400D01*
X131237367Y-100568843D01*
X131211408Y-100571400D01*
X131211406Y-100571400D01*
X131133744Y-100579049D01*
X131055203Y-100602874D01*
X131033822Y-100594018D01*
X130912069Y-100569800D01*
X130787931Y-100569800D01*
X130666178Y-100594018D01*
X130551488Y-100641524D01*
X130448271Y-100710492D01*
X130360492Y-100798271D01*
X130291524Y-100901488D01*
X130244018Y-101016178D01*
X130219800Y-101137931D01*
X130219800Y-101262069D01*
X130244018Y-101383822D01*
X130291524Y-101498512D01*
X130360492Y-101601729D01*
X130448271Y-101689508D01*
X130551488Y-101758476D01*
X130666178Y-101805982D01*
X130787931Y-101830200D01*
X130912069Y-101830200D01*
X131033822Y-101805982D01*
X131148512Y-101758476D01*
X131198392Y-101725147D01*
X131240992Y-101720951D01*
X131340633Y-101690725D01*
X131432463Y-101641641D01*
X131448354Y-101628600D01*
X131452388Y-101628600D01*
X131363175Y-101815901D01*
X131318524Y-101963110D01*
X131439845Y-102193000D01*
X132633000Y-102193000D01*
X132633000Y-102173000D01*
X132887000Y-102173000D01*
X132887000Y-102193000D01*
X132907000Y-102193000D01*
X132907000Y-102447000D01*
X132887000Y-102447000D01*
X132887000Y-102467000D01*
X132633000Y-102467000D01*
X132633000Y-102447000D01*
X131439845Y-102447000D01*
X131318524Y-102676890D01*
X131363175Y-102824099D01*
X131457151Y-103021400D01*
X130393224Y-103021400D01*
X130348512Y-102991524D01*
X130233822Y-102944018D01*
X130112069Y-102919800D01*
X130028600Y-102919800D01*
X130028600Y-100568952D01*
X130861133Y-99736420D01*
X130861137Y-99736415D01*
X131400941Y-99196611D01*
X131363175Y-99275901D01*
X131363175Y-99275901D01*
G37*
X131363175Y-99275901D02*
X131318524Y-99423110D01*
X131439845Y-99653000D01*
X132633000Y-99653000D01*
X132633000Y-99633000D01*
X132887000Y-99633000D01*
X132887000Y-99653000D01*
X132907000Y-99653000D01*
X132907000Y-99907000D01*
X132887000Y-99907000D01*
X132887000Y-99927000D01*
X132633000Y-99927000D01*
X132633000Y-99907000D01*
X131439845Y-99907000D01*
X131318524Y-100136890D01*
X131363175Y-100284099D01*
X131488359Y-100546920D01*
X131506618Y-100571400D01*
X131263326Y-100571400D01*
X131237367Y-100568843D01*
X131211408Y-100571400D01*
X131211406Y-100571400D01*
X131133744Y-100579049D01*
X131055203Y-100602874D01*
X131033822Y-100594018D01*
X130912069Y-100569800D01*
X130787931Y-100569800D01*
X130666178Y-100594018D01*
X130551488Y-100641524D01*
X130448271Y-100710492D01*
X130360492Y-100798271D01*
X130291524Y-100901488D01*
X130244018Y-101016178D01*
X130219800Y-101137931D01*
X130219800Y-101262069D01*
X130244018Y-101383822D01*
X130291524Y-101498512D01*
X130360492Y-101601729D01*
X130448271Y-101689508D01*
X130551488Y-101758476D01*
X130666178Y-101805982D01*
X130787931Y-101830200D01*
X130912069Y-101830200D01*
X131033822Y-101805982D01*
X131148512Y-101758476D01*
X131198392Y-101725147D01*
X131240992Y-101720951D01*
X131340633Y-101690725D01*
X131432463Y-101641641D01*
X131448354Y-101628600D01*
X131452388Y-101628600D01*
X131363175Y-101815901D01*
X131318524Y-101963110D01*
X131439845Y-102193000D01*
X132633000Y-102193000D01*
X132633000Y-102173000D01*
X132887000Y-102173000D01*
X132887000Y-102193000D01*
X132907000Y-102193000D01*
X132907000Y-102447000D01*
X132887000Y-102447000D01*
X132887000Y-102467000D01*
X132633000Y-102467000D01*
X132633000Y-102447000D01*
X131439845Y-102447000D01*
X131318524Y-102676890D01*
X131363175Y-102824099D01*
X131457151Y-103021400D01*
X130393224Y-103021400D01*
X130348512Y-102991524D01*
X130233822Y-102944018D01*
X130112069Y-102919800D01*
X130028600Y-102919800D01*
X130028600Y-100568952D01*
X130861133Y-99736420D01*
X130861137Y-99736415D01*
X131400941Y-99196611D01*
X131363175Y-99275901D01*
G36*
X153523001Y-99555447D02*
G01*
X152752142Y-98784590D01*
X152735585Y-98764415D01*
X152655095Y-98698359D01*
X152563265Y-98649275D01*
X152463624Y-98619049D01*
X152385962Y-98611400D01*
X152360000Y-98608843D01*
X152334038Y-98611400D01*
X148895432Y-98611400D01*
X148796924Y-98427104D01*
X148637344Y-98232656D01*
X148442896Y-98073076D01*
X148221051Y-97954498D01*
X147980336Y-97881478D01*
X147792726Y-97863000D01*
X147667274Y-97863000D01*
X147479664Y-97881478D01*
X147238949Y-97954498D01*
X147017104Y-98073076D01*
X146822656Y-98232656D01*
X146663076Y-98427104D01*
X146544498Y-98648949D01*
X146471478Y-98889664D01*
X146460000Y-99006202D01*
X146448522Y-98889664D01*
X146375502Y-98648949D01*
X146256924Y-98427104D01*
X146097344Y-98232656D01*
X145902896Y-98073076D01*
X145681051Y-97954498D01*
X145440336Y-97881478D01*
X145252726Y-97863000D01*
X145127274Y-97863000D01*
X144939664Y-97881478D01*
X144739691Y-97942139D01*
X144732143Y-97934591D01*
X144715586Y-97914416D01*
X144635096Y-97848360D01*
X144543266Y-97799276D01*
X144443625Y-97769050D01*
X144365963Y-97761401D01*
X144340001Y-97758844D01*
X144314039Y-97761401D01*
X137835961Y-97761401D01*
X137809999Y-97758844D01*
X137784037Y-97761401D01*
X137706375Y-97769050D01*
X137606734Y-97799276D01*
X137514904Y-97848360D01*
X137434414Y-97914416D01*
X137428682Y-97921400D01*
X136425962Y-97921400D01*
X136400000Y-97918843D01*
X136384299Y-97920389D01*
X136485502Y-97731051D01*
X136558522Y-97490336D01*
X136583178Y-97240000D01*
X136558522Y-96989664D01*
X136485502Y-96748949D01*
X136366924Y-96527104D01*
X136207344Y-96332656D01*
X136012896Y-96173076D01*
X135791051Y-96054498D01*
X135550336Y-95981478D01*
X135525847Y-95979066D01*
X136150000Y-95979066D01*
X136233707Y-95970822D01*
X136314196Y-95946405D01*
X136388376Y-95906755D01*
X136453395Y-95853395D01*
X136506755Y-95788376D01*
X136546405Y-95714196D01*
X136570822Y-95633707D01*
X136579066Y-95550000D01*
X136579066Y-93911716D01*
X138573000Y-93911716D01*
X138573000Y-94488284D01*
X138685482Y-95053775D01*
X138906126Y-95586455D01*
X139226450Y-96065854D01*
X139634146Y-96473550D01*
X140113545Y-96793874D01*
X140646225Y-97014518D01*
X141211716Y-97127000D01*
X141788284Y-97127000D01*
X142353775Y-97014518D01*
X142886455Y-96793874D01*
X143365854Y-96473550D01*
X143773550Y-96065854D01*
X144093874Y-95586455D01*
X144314518Y-95053775D01*
X144427000Y-94488284D01*
X144427000Y-93911716D01*
X144314518Y-93346225D01*
X144093874Y-92813545D01*
X143773550Y-92334146D01*
X143365854Y-91926450D01*
X142886455Y-91606126D01*
X142353775Y-91385482D01*
X141788284Y-91273000D01*
X141211716Y-91273000D01*
X140646225Y-91385482D01*
X140113545Y-91606126D01*
X139634146Y-91926450D01*
X139226450Y-92334146D01*
X138906126Y-92813545D01*
X138685482Y-93346225D01*
X138573000Y-93911716D01*
X136579066Y-93911716D01*
X136579066Y-93850000D01*
X136570822Y-93766293D01*
X136546405Y-93685804D01*
X136506755Y-93611624D01*
X136453395Y-93546605D01*
X136388376Y-93493245D01*
X136314196Y-93453595D01*
X136233707Y-93429178D01*
X136150000Y-93420934D01*
X134450000Y-93420934D01*
X134366293Y-93429178D01*
X134285804Y-93453595D01*
X134211624Y-93493245D01*
X134146605Y-93546605D01*
X134093245Y-93611624D01*
X134053595Y-93685804D01*
X134029178Y-93766293D01*
X134020934Y-93850000D01*
X134020934Y-94474153D01*
X134018522Y-94449664D01*
X133945502Y-94208949D01*
X133826924Y-93987104D01*
X133667344Y-93792656D01*
X133472896Y-93633076D01*
X133251051Y-93514498D01*
X133010336Y-93441478D01*
X132822726Y-93423000D01*
X132697274Y-93423000D01*
X132509664Y-93441478D01*
X132268949Y-93514498D01*
X132047104Y-93633076D01*
X131852656Y-93792656D01*
X131693076Y-93987104D01*
X131574498Y-94208949D01*
X131501478Y-94449664D01*
X131476822Y-94700000D01*
X131501478Y-94950336D01*
X131574498Y-95191051D01*
X131693076Y-95412896D01*
X131852656Y-95607344D01*
X132047104Y-95766924D01*
X132224650Y-95861824D01*
X132128748Y-95895843D01*
X131878645Y-96044822D01*
X131662412Y-96239731D01*
X131488359Y-96473080D01*
X131363175Y-96735901D01*
X131318524Y-96883110D01*
X131439845Y-97113000D01*
X132633000Y-97113000D01*
X132633000Y-97093000D01*
X132887000Y-97093000D01*
X132887000Y-97113000D01*
X132907000Y-97113000D01*
X132907000Y-97367000D01*
X132887000Y-97367000D01*
X132887000Y-97387000D01*
X132633000Y-97387000D01*
X132633000Y-97367000D01*
X131439845Y-97367000D01*
X131318524Y-97596890D01*
X131363175Y-97744099D01*
X131471441Y-97971400D01*
X131375962Y-97971400D01*
X131350000Y-97968843D01*
X131324038Y-97971400D01*
X131246376Y-97979049D01*
X131146735Y-98009275D01*
X131054905Y-98058359D01*
X130974415Y-98124415D01*
X130957862Y-98144585D01*
X130113585Y-98988863D01*
X130113580Y-98988867D01*
X129477000Y-99625448D01*
X129477000Y-86727000D01*
X153523001Y-86727000D01*
X153523001Y-99555447D01*
X153523001Y-99555447D01*
G37*
X153523001Y-99555447D02*
X152752142Y-98784590D01*
X152735585Y-98764415D01*
X152655095Y-98698359D01*
X152563265Y-98649275D01*
X152463624Y-98619049D01*
X152385962Y-98611400D01*
X152360000Y-98608843D01*
X152334038Y-98611400D01*
X148895432Y-98611400D01*
X148796924Y-98427104D01*
X148637344Y-98232656D01*
X148442896Y-98073076D01*
X148221051Y-97954498D01*
X147980336Y-97881478D01*
X147792726Y-97863000D01*
X147667274Y-97863000D01*
X147479664Y-97881478D01*
X147238949Y-97954498D01*
X147017104Y-98073076D01*
X146822656Y-98232656D01*
X146663076Y-98427104D01*
X146544498Y-98648949D01*
X146471478Y-98889664D01*
X146460000Y-99006202D01*
X146448522Y-98889664D01*
X146375502Y-98648949D01*
X146256924Y-98427104D01*
X146097344Y-98232656D01*
X145902896Y-98073076D01*
X145681051Y-97954498D01*
X145440336Y-97881478D01*
X145252726Y-97863000D01*
X145127274Y-97863000D01*
X144939664Y-97881478D01*
X144739691Y-97942139D01*
X144732143Y-97934591D01*
X144715586Y-97914416D01*
X144635096Y-97848360D01*
X144543266Y-97799276D01*
X144443625Y-97769050D01*
X144365963Y-97761401D01*
X144340001Y-97758844D01*
X144314039Y-97761401D01*
X137835961Y-97761401D01*
X137809999Y-97758844D01*
X137784037Y-97761401D01*
X137706375Y-97769050D01*
X137606734Y-97799276D01*
X137514904Y-97848360D01*
X137434414Y-97914416D01*
X137428682Y-97921400D01*
X136425962Y-97921400D01*
X136400000Y-97918843D01*
X136384299Y-97920389D01*
X136485502Y-97731051D01*
X136558522Y-97490336D01*
X136583178Y-97240000D01*
X136558522Y-96989664D01*
X136485502Y-96748949D01*
X136366924Y-96527104D01*
X136207344Y-96332656D01*
X136012896Y-96173076D01*
X135791051Y-96054498D01*
X135550336Y-95981478D01*
X135525847Y-95979066D01*
X136150000Y-95979066D01*
X136233707Y-95970822D01*
X136314196Y-95946405D01*
X136388376Y-95906755D01*
X136453395Y-95853395D01*
X136506755Y-95788376D01*
X136546405Y-95714196D01*
X136570822Y-95633707D01*
X136579066Y-95550000D01*
X136579066Y-93911716D01*
X138573000Y-93911716D01*
X138573000Y-94488284D01*
X138685482Y-95053775D01*
X138906126Y-95586455D01*
X139226450Y-96065854D01*
X139634146Y-96473550D01*
X140113545Y-96793874D01*
X140646225Y-97014518D01*
X141211716Y-97127000D01*
X141788284Y-97127000D01*
X142353775Y-97014518D01*
X142886455Y-96793874D01*
X143365854Y-96473550D01*
X143773550Y-96065854D01*
X144093874Y-95586455D01*
X144314518Y-95053775D01*
X144427000Y-94488284D01*
X144427000Y-93911716D01*
X144314518Y-93346225D01*
X144093874Y-92813545D01*
X143773550Y-92334146D01*
X143365854Y-91926450D01*
X142886455Y-91606126D01*
X142353775Y-91385482D01*
X141788284Y-91273000D01*
X141211716Y-91273000D01*
X140646225Y-91385482D01*
X140113545Y-91606126D01*
X139634146Y-91926450D01*
X139226450Y-92334146D01*
X138906126Y-92813545D01*
X138685482Y-93346225D01*
X138573000Y-93911716D01*
X136579066Y-93911716D01*
X136579066Y-93850000D01*
X136570822Y-93766293D01*
X136546405Y-93685804D01*
X136506755Y-93611624D01*
X136453395Y-93546605D01*
X136388376Y-93493245D01*
X136314196Y-93453595D01*
X136233707Y-93429178D01*
X136150000Y-93420934D01*
X134450000Y-93420934D01*
X134366293Y-93429178D01*
X134285804Y-93453595D01*
X134211624Y-93493245D01*
X134146605Y-93546605D01*
X134093245Y-93611624D01*
X134053595Y-93685804D01*
X134029178Y-93766293D01*
X134020934Y-93850000D01*
X134020934Y-94474153D01*
X134018522Y-94449664D01*
X133945502Y-94208949D01*
X133826924Y-93987104D01*
X133667344Y-93792656D01*
X133472896Y-93633076D01*
X133251051Y-93514498D01*
X133010336Y-93441478D01*
X132822726Y-93423000D01*
X132697274Y-93423000D01*
X132509664Y-93441478D01*
X132268949Y-93514498D01*
X132047104Y-93633076D01*
X131852656Y-93792656D01*
X131693076Y-93987104D01*
X131574498Y-94208949D01*
X131501478Y-94449664D01*
X131476822Y-94700000D01*
X131501478Y-94950336D01*
X131574498Y-95191051D01*
X131693076Y-95412896D01*
X131852656Y-95607344D01*
X132047104Y-95766924D01*
X132224650Y-95861824D01*
X132128748Y-95895843D01*
X131878645Y-96044822D01*
X131662412Y-96239731D01*
X131488359Y-96473080D01*
X131363175Y-96735901D01*
X131318524Y-96883110D01*
X131439845Y-97113000D01*
X132633000Y-97113000D01*
X132633000Y-97093000D01*
X132887000Y-97093000D01*
X132887000Y-97113000D01*
X132907000Y-97113000D01*
X132907000Y-97367000D01*
X132887000Y-97367000D01*
X132887000Y-97387000D01*
X132633000Y-97387000D01*
X132633000Y-97367000D01*
X131439845Y-97367000D01*
X131318524Y-97596890D01*
X131363175Y-97744099D01*
X131471441Y-97971400D01*
X131375962Y-97971400D01*
X131350000Y-97968843D01*
X131324038Y-97971400D01*
X131246376Y-97979049D01*
X131146735Y-98009275D01*
X131054905Y-98058359D01*
X130974415Y-98124415D01*
X130957862Y-98144585D01*
X130113585Y-98988863D01*
X130113580Y-98988867D01*
X129477000Y-99625448D01*
X129477000Y-86727000D01*
X153523001Y-86727000D01*
X153523001Y-99555447D01*
M02*
