M48
; DRILL file {KiCad (5.1.2)-1} date 5/17/2022 10:22:16 AM
; FORMAT={-:-/ absolute / metric / decimal}
; #@! TF.CreationDate,2022-05-17T10:22:16-05:00
; #@! TF.GenerationSoftware,Kicad,Pcbnew,(5.1.2)-1
; #@! TF.FileFunction,Plated,1,2,PTH
FMAT,2
METRIC
T1C0.305
T2C1.000
T3C3.200
%
G90
G05
T1
X129.5Y-128.6
X130.05Y-103.55
X130.15Y-97.95
X130.2Y-100.55
X130.45Y-104.8
X130.45Y-127.6
X130.55Y-132.85
X130.75Y-119.7
X130.85Y-101.2
X131.2Y-131.65
X131.45Y-104.9
X131.65Y-119.2
X131.7Y-106.2
X132.2Y-132.6
X132.55Y-120.35
X133.15Y-123.95
X133.15Y-125.15
X133.9Y-130.7
X134.1Y-118.65
X134.7Y-124.35
X134.85Y-119.4
X135.0Y-127.2
X135.95Y-120.25
X136.0Y-126.05
X136.55Y-128.25
X136.65Y-123.4
X136.75Y-126.4
X136.9Y-125.1
X137.3Y-121.45
X137.35Y-127.85
X137.65Y-126.4
X138.2Y-105.55
X138.3Y-128.05
X138.55Y-97.1
X138.65Y-119.55
X138.8Y-106.55
X139.05Y-120.55
X139.1Y-126.3
X139.15Y-127.45
X139.3Y-122.65
X139.35Y-100.5
X139.35Y-133.8
X139.95Y-134.5
X139.969Y-128.2
X140.05Y-132.9
X140.25Y-126.65
X140.85Y-138.4
X141.1Y-123.15
X141.15Y-110.65
X141.15Y-134.65
X141.2Y-133.3
X141.4Y-113.5
X141.55Y-126.75
X141.55Y-128.05
X141.95Y-127.6
X142.2Y-126.35
X142.3Y-121.55
X142.3Y-123.95
X142.95Y-128.25
X143.0Y-103.4
X143.9Y-124.65
X144.05Y-125.55
X144.55Y-132.15
X144.6Y-125.2
X146.45Y-122.3
X146.5Y-126.3
X147.65Y-125.2
X147.85Y-126.55
X148.4Y-123.25
X149.55Y-123.65
X150.0Y-132.15
X150.05Y-121.75
X150.05Y-124.75
X150.2Y-120.45
X150.5Y-122.7
X150.55Y-123.35
X150.65Y-131.5
X151.35Y-115.55
X151.35Y-128.4
X151.35Y-131.35
X151.85Y-124.8
X152.7Y-133.3
X152.95Y-131.85
T2
X132.76Y-94.7
X132.76Y-97.24
X132.76Y-99.78
X132.76Y-102.32
X132.76Y-104.86
X132.76Y-107.4
X132.76Y-109.94
X132.76Y-112.48
X132.76Y-115.02
X132.76Y-117.56
X135.3Y-94.7
X135.3Y-97.24
X135.3Y-99.78
X135.3Y-102.32
X135.3Y-104.86
X135.3Y-107.4
X135.3Y-109.94
X135.3Y-112.48
X135.3Y-115.02
X135.3Y-117.56
X131.87Y-136.45
X134.41Y-136.45
X136.95Y-136.45
X139.49Y-136.45
X142.03Y-136.45
X144.57Y-136.45
X147.11Y-136.45
X149.65Y-136.45
X145.19Y-99.14
X145.19Y-101.68
X145.19Y-104.22
X145.19Y-106.76
X145.19Y-109.3
X145.19Y-111.84
X145.19Y-114.38
X145.19Y-116.92
X145.19Y-119.46
X145.19Y-122.0
X147.73Y-99.14
X147.73Y-101.68
X147.73Y-104.22
X147.73Y-106.76
X147.73Y-109.3
X147.73Y-111.84
X147.73Y-114.38
X147.73Y-116.92
X147.73Y-119.46
X147.73Y-122.0
T3
X141.5Y-94.2
X150.026Y-146.8
X132.974Y-146.8
T0
M30
