M48
; DRILL file {KiCad (5.1.9)-1} date 01/18/22 11:13:17
; FORMAT={-:-/ absolute / inch / decimal}
; #@! TF.CreationDate,2022-01-18T11:13:17-06:00
; #@! TF.GenerationSoftware,Kicad,Pcbnew,(5.1.9)-1
; #@! TF.FileFunction,Plated,1,4,PTH
FMAT,2
INCH
T1C0.0060
T2C0.0100
T3C0.0197
T4C0.0394
T5C0.1260
%
G90
G05
T1
X5.4232Y-4.749
X5.4331Y-4.7795
X5.439Y-4.9882
X5.4394Y-4.6772
X5.4547Y-5.0043
X5.4744Y-4.748
X5.4843Y-4.5157
X5.4862Y-4.9882
X5.502Y-5.0043
X5.5118Y-4.4724
X5.5177Y-4.9685
X5.5259Y-4.8091
X5.5335Y-4.6736
X5.5335Y-4.9882
X5.5492Y-5.0043
X5.5512Y-4.4665
X5.565Y-4.9685
X5.5717Y-4.6366
X5.5787Y-4.4862
X5.5807Y-4.9882
X5.5882Y-4.6787
X5.5925Y-4.4213
X5.5965Y-5.0043
X5.5984Y-4.5118
X5.5984Y-4.7717
X5.6063Y-4.5315
X5.6087Y-4.6173
X5.6091Y-4.637
X5.6122Y-4.9685
X5.6161Y-4.4213
X5.6161Y-4.7441
X5.6161Y-5.2087
X5.637Y-4.5035
X5.6398Y-5.2087
X5.6437Y-4.9882
X5.6575Y-4.5276
X5.6594Y-5.0043
X5.6673Y-5.2067
X5.6752Y-4.9685
X5.6772Y-4.5177
X5.689Y-5.1063
X5.6929Y-5.2067
X5.6988Y-4.5177
X5.7067Y-5.0898
X5.7146Y-4.5315
X5.7283Y-4.5472
X5.7441Y-4.563
X5.7598Y-5.2736
X5.7598Y-5.2992
X5.7972Y-4.5669
T2
X5.1154Y-6.0161
X5.1165Y-3.4402
X5.1165Y-3.5402
X5.1165Y-3.6402
X5.1165Y-4.2232
X5.1165Y-4.3232
X5.1165Y-4.4232
X5.1165Y-4.5173
X5.1165Y-4.6173
X5.1165Y-4.6705
X5.1165Y-4.7736
X5.1165Y-5.0701
X5.1165Y-5.1701
X5.1165Y-5.2701
X5.1165Y-5.3701
X5.1165Y-5.4701
X5.1165Y-5.5701
X5.1795Y-4.1248
X5.2Y-5.2606
X5.2004Y-5.0909
X5.2028Y-4.4106
X5.2126Y-4.2087
X5.2136Y-3.8888
X5.2136Y-3.9547
X5.2213Y-5.4701
X5.2213Y-6.0161
X5.2224Y-3.4402
X5.2224Y-3.5402
X5.2224Y-3.6402
X5.25Y-5.2677
X5.2543Y-4.4106
X5.2543Y-4.9953
X5.2567Y-5.1315
X5.2598Y-5.2197
X5.2618Y-4.7835
X5.2687Y-4.6644
X5.2795Y-4.2441
X5.2795Y-4.6024
X5.2795Y-4.8799
X5.3063Y-4.4106
X5.313Y-3.8888
X5.313Y-3.9547
X5.3169Y-5.2185
X5.3181Y-4.5543
X5.3213Y-5.4701
X5.3213Y-5.5701
X5.3213Y-6.0161
X5.3224Y-3.4402
X5.3224Y-3.5402
X5.3224Y-3.6402
X5.3327Y-5.1053
X5.3327Y-5.2618
X5.3376Y-4.873
X5.3504Y-4.0984
X5.3579Y-4.4106
X5.3642Y-5.0921
X5.3878Y-4.6035
X5.3906Y-4.6291
X5.3917Y-4.8307
X5.3976Y-4.6713
X5.4059Y-5.2622
X5.4094Y-4.3205
X5.4094Y-4.4106
X5.4154Y-4.5846
X5.4169Y-4.4398
X5.4213Y-5.1169
X5.4213Y-5.4701
X5.4213Y-5.5701
X5.4224Y-3.4402
X5.4224Y-3.5402
X5.435Y-4.3012
X5.4406Y-5.0984
X5.4457Y-5.2508
X5.4484Y-4.9228
X5.4705Y-5.1079
X5.4839Y-5.2406
X5.4945Y-5.098
X5.5079Y-4.5965
X5.5157Y-4.6575
X5.5177Y-5.098
X5.5181Y-5.2287
X5.5213Y-5.4701
X5.5213Y-5.8161
X5.5213Y-5.9161
X5.5213Y-6.0161
X5.5224Y-3.4402
X5.5224Y-3.5402
X5.5224Y-3.8665
X5.5295Y-4.6181
X5.5402Y-5.7169
X5.5413Y-5.1232
X5.5465Y-5.213
X5.5531Y-4.2795
X5.5709Y-4.1457
X5.5787Y-5.3
X5.5807Y-5.7102
X5.5846Y-4.8071
X5.5925Y-4.2795
X5.613Y-4.6575
X5.6213Y-5.4701
X5.6213Y-5.5701
X5.6213Y-5.8161
X5.6213Y-5.9161
X5.6213Y-6.0161
X5.622Y-5.3346
X5.6224Y-3.4402
X5.6224Y-3.5402
X5.6224Y-3.8665
X5.628Y-5.0913
X5.6319Y-4.6457
X5.6486Y-5.1171
X5.6504Y-4.8012
X5.6551Y-4.7768
X5.6555Y-5.3799
X5.6594Y-5.311
X5.6602Y-4.7559
X5.6614Y-4.4213
X5.6673Y-5.2854
X5.6713Y-4.9055
X5.6906Y-4.6205
X5.6909Y-4.6571
X5.6969Y-4.7559
X5.6996Y-4.7043
X5.6996Y-4.728
X5.7087Y-4.4213
X5.7087Y-4.6378
X5.7102Y-4.9441
X5.7106Y-4.3012
X5.7213Y-5.3102
X5.7224Y-3.4402
X5.7224Y-3.5402
X5.7303Y-5.3769
X5.7315Y-4.3205
X5.7323Y-4.9323
X5.7575Y-4.4079
X5.7795Y-4.0433
X5.7894Y-4.6862
X5.8031Y-4.6516
X5.8091Y-4.4079
X5.8213Y-6.0161
X5.8224Y-3.4402
X5.8224Y-3.5402
X5.8224Y-3.6402
X5.8248Y-5.1417
X5.8248Y-5.2087
X5.8248Y-5.2598
X5.8248Y-5.2992
X5.8268Y-5.1811
X5.8307Y-3.8888
X5.8307Y-4.2343
X5.8315Y-4.6303
X5.8335Y-4.5146
X5.8346Y-4.2815
X5.848Y-4.9378
X5.8484Y-3.9665
X5.8579Y-4.6169
X5.8598Y-4.5114
X5.8606Y-4.4071
X5.8657Y-4.4858
X5.872Y-5.189
X5.8917Y-5.2461
X5.8937Y-4.1791
X5.8937Y-4.2224
X5.8941Y-4.4807
X5.9126Y-4.4067
X5.9213Y-6.0161
X5.9224Y-3.4402
X5.9224Y-3.5402
X5.9224Y-3.6402
X5.9291Y-3.8888
X5.935Y-4.061
X5.935Y-4.1181
X5.937Y-5.2972
X5.9382Y-4.4516
X5.9382Y-4.49
X5.9606Y-5.5714
X5.9811Y-4.4378
X5.9843Y-5.5202
X5.998Y-5.4016
X6.002Y-5.5827
X6.0039Y-4.878
X6.0264Y-3.4402
X6.0264Y-3.5402
X6.0264Y-3.6402
X6.0264Y-4.1236
X6.0264Y-4.2236
X6.0264Y-4.3236
X6.0264Y-4.4232
X6.0264Y-4.9114
X6.0264Y-5.0701
X6.0264Y-5.1701
X6.0264Y-6.0161
X6.0339Y-4.6244
X6.0343Y-4.7118
T4
X5.1622Y-3.8185
X5.2622Y-3.8185
X5.3622Y-3.8185
X5.7803Y-3.8185
X5.8803Y-3.8185
X5.9803Y-3.8185
T5
X5.2352Y-5.7795
X5.5709Y-3.7087
X5.9065Y-5.7795
T3
G00X5.3941Y-5.9795
M15
G01X5.3941Y-6.0031
M16
G05
G00X5.4083Y-5.7453
M15
G01X5.4083Y-5.7689
M16
G05
G00X5.7335Y-5.7453
M15
G01X5.7335Y-5.7689
M16
G05
G00X5.7476Y-5.9795
M15
G01X5.7476Y-6.0031
M16
G05
T0
M30
