G04 #@! TF.GenerationSoftware,KiCad,Pcbnew,(5.1.4)-1*
G04 #@! TF.CreationDate,2020-02-13T13:02:53-06:00*
G04 #@! TF.ProjectId,aducm_board,61647563-6d5f-4626-9f61-72642e6b6963,rev?*
G04 #@! TF.SameCoordinates,Original*
G04 #@! TF.FileFunction,Soldermask,Top*
G04 #@! TF.FilePolarity,Negative*
%FSLAX46Y46*%
G04 Gerber Fmt 4.6, Leading zero omitted, Abs format (unit mm)*
G04 Created by KiCad (PCBNEW (5.1.4)-1) date 2020-02-13 13:02:53*
%MOMM*%
%LPD*%
G04 APERTURE LIST*
%ADD10C,0.100000*%
G04 APERTURE END LIST*
D10*
G36*
X165501000Y-124676000D02*
G01*
X164099000Y-124676000D01*
X164099000Y-123024000D01*
X165501000Y-123024000D01*
X165501000Y-124676000D01*
X165501000Y-124676000D01*
G37*
G36*
X161001000Y-124676000D02*
G01*
X159599000Y-124676000D01*
X159599000Y-123024000D01*
X161001000Y-123024000D01*
X161001000Y-124676000D01*
X161001000Y-124676000D01*
G37*
G36*
X148950442Y-115905518D02*
G01*
X149016627Y-115912037D01*
X149186466Y-115963557D01*
X149342991Y-116047222D01*
X149373596Y-116072339D01*
X149480186Y-116159814D01*
X149563448Y-116261271D01*
X149592778Y-116297009D01*
X149676443Y-116453534D01*
X149727963Y-116623373D01*
X149745359Y-116800000D01*
X149727963Y-116976627D01*
X149676443Y-117146466D01*
X149592778Y-117302991D01*
X149563448Y-117338729D01*
X149480186Y-117440186D01*
X149378729Y-117523448D01*
X149342991Y-117552778D01*
X149186466Y-117636443D01*
X149016627Y-117687963D01*
X148950443Y-117694481D01*
X148884260Y-117701000D01*
X148795740Y-117701000D01*
X148729557Y-117694481D01*
X148663373Y-117687963D01*
X148493534Y-117636443D01*
X148337009Y-117552778D01*
X148301271Y-117523448D01*
X148199814Y-117440186D01*
X148116552Y-117338729D01*
X148087222Y-117302991D01*
X148003557Y-117146466D01*
X147952037Y-116976627D01*
X147934641Y-116800000D01*
X147952037Y-116623373D01*
X148003557Y-116453534D01*
X148087222Y-116297009D01*
X148116552Y-116261271D01*
X148199814Y-116159814D01*
X148306404Y-116072339D01*
X148337009Y-116047222D01*
X148493534Y-115963557D01*
X148663373Y-115912037D01*
X148729558Y-115905518D01*
X148795740Y-115899000D01*
X148884260Y-115899000D01*
X148950442Y-115905518D01*
X148950442Y-115905518D01*
G37*
G36*
X151490442Y-115905518D02*
G01*
X151556627Y-115912037D01*
X151726466Y-115963557D01*
X151882991Y-116047222D01*
X151913596Y-116072339D01*
X152020186Y-116159814D01*
X152103448Y-116261271D01*
X152132778Y-116297009D01*
X152216443Y-116453534D01*
X152267963Y-116623373D01*
X152285359Y-116800000D01*
X152267963Y-116976627D01*
X152216443Y-117146466D01*
X152132778Y-117302991D01*
X152103448Y-117338729D01*
X152020186Y-117440186D01*
X151918729Y-117523448D01*
X151882991Y-117552778D01*
X151726466Y-117636443D01*
X151556627Y-117687963D01*
X151490443Y-117694481D01*
X151424260Y-117701000D01*
X151335740Y-117701000D01*
X151269557Y-117694481D01*
X151203373Y-117687963D01*
X151033534Y-117636443D01*
X150877009Y-117552778D01*
X150841271Y-117523448D01*
X150739814Y-117440186D01*
X150656552Y-117338729D01*
X150627222Y-117302991D01*
X150543557Y-117146466D01*
X150492037Y-116976627D01*
X150474641Y-116800000D01*
X150492037Y-116623373D01*
X150543557Y-116453534D01*
X150627222Y-116297009D01*
X150656552Y-116261271D01*
X150739814Y-116159814D01*
X150846404Y-116072339D01*
X150877009Y-116047222D01*
X151033534Y-115963557D01*
X151203373Y-115912037D01*
X151269558Y-115905518D01*
X151335740Y-115899000D01*
X151424260Y-115899000D01*
X151490442Y-115905518D01*
X151490442Y-115905518D01*
G37*
G36*
X143870442Y-115905518D02*
G01*
X143936627Y-115912037D01*
X144106466Y-115963557D01*
X144262991Y-116047222D01*
X144293596Y-116072339D01*
X144400186Y-116159814D01*
X144483448Y-116261271D01*
X144512778Y-116297009D01*
X144596443Y-116453534D01*
X144647963Y-116623373D01*
X144665359Y-116800000D01*
X144647963Y-116976627D01*
X144596443Y-117146466D01*
X144512778Y-117302991D01*
X144483448Y-117338729D01*
X144400186Y-117440186D01*
X144298729Y-117523448D01*
X144262991Y-117552778D01*
X144106466Y-117636443D01*
X143936627Y-117687963D01*
X143870443Y-117694481D01*
X143804260Y-117701000D01*
X143715740Y-117701000D01*
X143649557Y-117694481D01*
X143583373Y-117687963D01*
X143413534Y-117636443D01*
X143257009Y-117552778D01*
X143221271Y-117523448D01*
X143119814Y-117440186D01*
X143036552Y-117338729D01*
X143007222Y-117302991D01*
X142923557Y-117146466D01*
X142872037Y-116976627D01*
X142854641Y-116800000D01*
X142872037Y-116623373D01*
X142923557Y-116453534D01*
X143007222Y-116297009D01*
X143036552Y-116261271D01*
X143119814Y-116159814D01*
X143226404Y-116072339D01*
X143257009Y-116047222D01*
X143413534Y-115963557D01*
X143583373Y-115912037D01*
X143649558Y-115905518D01*
X143715740Y-115899000D01*
X143804260Y-115899000D01*
X143870442Y-115905518D01*
X143870442Y-115905518D01*
G37*
G36*
X146410442Y-115905518D02*
G01*
X146476627Y-115912037D01*
X146646466Y-115963557D01*
X146802991Y-116047222D01*
X146833596Y-116072339D01*
X146940186Y-116159814D01*
X147023448Y-116261271D01*
X147052778Y-116297009D01*
X147136443Y-116453534D01*
X147187963Y-116623373D01*
X147205359Y-116800000D01*
X147187963Y-116976627D01*
X147136443Y-117146466D01*
X147052778Y-117302991D01*
X147023448Y-117338729D01*
X146940186Y-117440186D01*
X146838729Y-117523448D01*
X146802991Y-117552778D01*
X146646466Y-117636443D01*
X146476627Y-117687963D01*
X146410443Y-117694481D01*
X146344260Y-117701000D01*
X146255740Y-117701000D01*
X146189557Y-117694481D01*
X146123373Y-117687963D01*
X145953534Y-117636443D01*
X145797009Y-117552778D01*
X145761271Y-117523448D01*
X145659814Y-117440186D01*
X145576552Y-117338729D01*
X145547222Y-117302991D01*
X145463557Y-117146466D01*
X145412037Y-116976627D01*
X145394641Y-116800000D01*
X145412037Y-116623373D01*
X145463557Y-116453534D01*
X145547222Y-116297009D01*
X145576552Y-116261271D01*
X145659814Y-116159814D01*
X145766404Y-116072339D01*
X145797009Y-116047222D01*
X145953534Y-115963557D01*
X146123373Y-115912037D01*
X146189558Y-115905518D01*
X146255740Y-115899000D01*
X146344260Y-115899000D01*
X146410442Y-115905518D01*
X146410442Y-115905518D01*
G37*
G36*
X165501000Y-116726000D02*
G01*
X164099000Y-116726000D01*
X164099000Y-115074000D01*
X165501000Y-115074000D01*
X165501000Y-116726000D01*
X165501000Y-116726000D01*
G37*
G36*
X161001000Y-116726000D02*
G01*
X159599000Y-116726000D01*
X159599000Y-115074000D01*
X161001000Y-115074000D01*
X161001000Y-116726000D01*
X161001000Y-116726000D01*
G37*
G36*
X139029591Y-115078085D02*
G01*
X139063569Y-115088393D01*
X139094890Y-115105134D01*
X139122339Y-115127661D01*
X139144866Y-115155110D01*
X139161607Y-115186431D01*
X139171915Y-115220409D01*
X139176000Y-115261890D01*
X139176000Y-115938110D01*
X139171915Y-115979591D01*
X139161607Y-116013569D01*
X139144866Y-116044890D01*
X139122339Y-116072339D01*
X139094890Y-116094866D01*
X139063569Y-116111607D01*
X139029591Y-116121915D01*
X138988110Y-116126000D01*
X138386890Y-116126000D01*
X138345409Y-116121915D01*
X138311431Y-116111607D01*
X138280110Y-116094866D01*
X138252661Y-116072339D01*
X138230134Y-116044890D01*
X138213393Y-116013569D01*
X138203085Y-115979591D01*
X138199000Y-115938110D01*
X138199000Y-115261890D01*
X138203085Y-115220409D01*
X138213393Y-115186431D01*
X138230134Y-115155110D01*
X138252661Y-115127661D01*
X138280110Y-115105134D01*
X138311431Y-115088393D01*
X138345409Y-115078085D01*
X138386890Y-115074000D01*
X138988110Y-115074000D01*
X139029591Y-115078085D01*
X139029591Y-115078085D01*
G37*
G36*
X137454591Y-115078085D02*
G01*
X137488569Y-115088393D01*
X137519890Y-115105134D01*
X137547339Y-115127661D01*
X137569866Y-115155110D01*
X137586607Y-115186431D01*
X137596915Y-115220409D01*
X137601000Y-115261890D01*
X137601000Y-115938110D01*
X137596915Y-115979591D01*
X137586607Y-116013569D01*
X137569866Y-116044890D01*
X137547339Y-116072339D01*
X137519890Y-116094866D01*
X137488569Y-116111607D01*
X137454591Y-116121915D01*
X137413110Y-116126000D01*
X136811890Y-116126000D01*
X136770409Y-116121915D01*
X136736431Y-116111607D01*
X136705110Y-116094866D01*
X136677661Y-116072339D01*
X136655134Y-116044890D01*
X136638393Y-116013569D01*
X136628085Y-115979591D01*
X136624000Y-115938110D01*
X136624000Y-115261890D01*
X136628085Y-115220409D01*
X136638393Y-115186431D01*
X136655134Y-115155110D01*
X136677661Y-115127661D01*
X136705110Y-115105134D01*
X136736431Y-115088393D01*
X136770409Y-115078085D01*
X136811890Y-115074000D01*
X137413110Y-115074000D01*
X137454591Y-115078085D01*
X137454591Y-115078085D01*
G37*
G36*
X143870442Y-113365518D02*
G01*
X143936627Y-113372037D01*
X144106466Y-113423557D01*
X144262991Y-113507222D01*
X144298729Y-113536552D01*
X144400186Y-113619814D01*
X144483448Y-113721271D01*
X144512778Y-113757009D01*
X144596443Y-113913534D01*
X144647963Y-114083373D01*
X144665359Y-114260000D01*
X144647963Y-114436627D01*
X144596443Y-114606466D01*
X144512778Y-114762991D01*
X144483448Y-114798729D01*
X144400186Y-114900186D01*
X144298729Y-114983448D01*
X144262991Y-115012778D01*
X144106466Y-115096443D01*
X143936627Y-115147963D01*
X143870442Y-115154482D01*
X143804260Y-115161000D01*
X143715740Y-115161000D01*
X143649558Y-115154482D01*
X143583373Y-115147963D01*
X143413534Y-115096443D01*
X143257009Y-115012778D01*
X143221271Y-114983448D01*
X143119814Y-114900186D01*
X143036552Y-114798729D01*
X143007222Y-114762991D01*
X142923557Y-114606466D01*
X142872037Y-114436627D01*
X142854641Y-114260000D01*
X142872037Y-114083373D01*
X142923557Y-113913534D01*
X143007222Y-113757009D01*
X143036552Y-113721271D01*
X143119814Y-113619814D01*
X143221271Y-113536552D01*
X143257009Y-113507222D01*
X143413534Y-113423557D01*
X143583373Y-113372037D01*
X143649558Y-113365518D01*
X143715740Y-113359000D01*
X143804260Y-113359000D01*
X143870442Y-113365518D01*
X143870442Y-113365518D01*
G37*
G36*
X152281000Y-115161000D02*
G01*
X150479000Y-115161000D01*
X150479000Y-113359000D01*
X152281000Y-113359000D01*
X152281000Y-115161000D01*
X152281000Y-115161000D01*
G37*
G36*
X146410442Y-113365518D02*
G01*
X146476627Y-113372037D01*
X146646466Y-113423557D01*
X146802991Y-113507222D01*
X146838729Y-113536552D01*
X146940186Y-113619814D01*
X147023448Y-113721271D01*
X147052778Y-113757009D01*
X147136443Y-113913534D01*
X147187963Y-114083373D01*
X147205359Y-114260000D01*
X147187963Y-114436627D01*
X147136443Y-114606466D01*
X147052778Y-114762991D01*
X147023448Y-114798729D01*
X146940186Y-114900186D01*
X146838729Y-114983448D01*
X146802991Y-115012778D01*
X146646466Y-115096443D01*
X146476627Y-115147963D01*
X146410442Y-115154482D01*
X146344260Y-115161000D01*
X146255740Y-115161000D01*
X146189558Y-115154482D01*
X146123373Y-115147963D01*
X145953534Y-115096443D01*
X145797009Y-115012778D01*
X145761271Y-114983448D01*
X145659814Y-114900186D01*
X145576552Y-114798729D01*
X145547222Y-114762991D01*
X145463557Y-114606466D01*
X145412037Y-114436627D01*
X145394641Y-114260000D01*
X145412037Y-114083373D01*
X145463557Y-113913534D01*
X145547222Y-113757009D01*
X145576552Y-113721271D01*
X145659814Y-113619814D01*
X145761271Y-113536552D01*
X145797009Y-113507222D01*
X145953534Y-113423557D01*
X146123373Y-113372037D01*
X146189558Y-113365518D01*
X146255740Y-113359000D01*
X146344260Y-113359000D01*
X146410442Y-113365518D01*
X146410442Y-113365518D01*
G37*
G36*
X148950442Y-113365518D02*
G01*
X149016627Y-113372037D01*
X149186466Y-113423557D01*
X149342991Y-113507222D01*
X149378729Y-113536552D01*
X149480186Y-113619814D01*
X149563448Y-113721271D01*
X149592778Y-113757009D01*
X149676443Y-113913534D01*
X149727963Y-114083373D01*
X149745359Y-114260000D01*
X149727963Y-114436627D01*
X149676443Y-114606466D01*
X149592778Y-114762991D01*
X149563448Y-114798729D01*
X149480186Y-114900186D01*
X149378729Y-114983448D01*
X149342991Y-115012778D01*
X149186466Y-115096443D01*
X149016627Y-115147963D01*
X148950442Y-115154482D01*
X148884260Y-115161000D01*
X148795740Y-115161000D01*
X148729558Y-115154482D01*
X148663373Y-115147963D01*
X148493534Y-115096443D01*
X148337009Y-115012778D01*
X148301271Y-114983448D01*
X148199814Y-114900186D01*
X148116552Y-114798729D01*
X148087222Y-114762991D01*
X148003557Y-114606466D01*
X147952037Y-114436627D01*
X147934641Y-114260000D01*
X147952037Y-114083373D01*
X148003557Y-113913534D01*
X148087222Y-113757009D01*
X148116552Y-113721271D01*
X148199814Y-113619814D01*
X148301271Y-113536552D01*
X148337009Y-113507222D01*
X148493534Y-113423557D01*
X148663373Y-113372037D01*
X148729558Y-113365518D01*
X148795740Y-113359000D01*
X148884260Y-113359000D01*
X148950442Y-113365518D01*
X148950442Y-113365518D01*
G37*
G36*
X163529591Y-111778085D02*
G01*
X163563569Y-111788393D01*
X163594890Y-111805134D01*
X163622339Y-111827661D01*
X163644866Y-111855110D01*
X163661607Y-111886431D01*
X163671915Y-111920409D01*
X163676000Y-111961890D01*
X163676000Y-112638110D01*
X163671915Y-112679591D01*
X163661607Y-112713569D01*
X163644866Y-112744890D01*
X163622339Y-112772339D01*
X163594890Y-112794866D01*
X163563569Y-112811607D01*
X163529591Y-112821915D01*
X163488110Y-112826000D01*
X162886890Y-112826000D01*
X162845409Y-112821915D01*
X162811431Y-112811607D01*
X162780110Y-112794866D01*
X162752661Y-112772339D01*
X162730134Y-112744890D01*
X162713393Y-112713569D01*
X162703085Y-112679591D01*
X162699000Y-112638110D01*
X162699000Y-111961890D01*
X162703085Y-111920409D01*
X162713393Y-111886431D01*
X162730134Y-111855110D01*
X162752661Y-111827661D01*
X162780110Y-111805134D01*
X162811431Y-111788393D01*
X162845409Y-111778085D01*
X162886890Y-111774000D01*
X163488110Y-111774000D01*
X163529591Y-111778085D01*
X163529591Y-111778085D01*
G37*
G36*
X139117091Y-111778085D02*
G01*
X139151069Y-111788393D01*
X139182390Y-111805134D01*
X139209839Y-111827661D01*
X139232366Y-111855110D01*
X139249107Y-111886431D01*
X139259415Y-111920409D01*
X139263500Y-111961890D01*
X139263500Y-112638110D01*
X139259415Y-112679591D01*
X139249107Y-112713569D01*
X139232366Y-112744890D01*
X139209839Y-112772339D01*
X139182390Y-112794866D01*
X139151069Y-112811607D01*
X139117091Y-112821915D01*
X139075610Y-112826000D01*
X138474390Y-112826000D01*
X138432909Y-112821915D01*
X138398931Y-112811607D01*
X138367610Y-112794866D01*
X138340161Y-112772339D01*
X138317634Y-112744890D01*
X138300893Y-112713569D01*
X138290585Y-112679591D01*
X138286500Y-112638110D01*
X138286500Y-111961890D01*
X138290585Y-111920409D01*
X138300893Y-111886431D01*
X138317634Y-111855110D01*
X138340161Y-111827661D01*
X138367610Y-111805134D01*
X138398931Y-111788393D01*
X138432909Y-111778085D01*
X138474390Y-111774000D01*
X139075610Y-111774000D01*
X139117091Y-111778085D01*
X139117091Y-111778085D01*
G37*
G36*
X137542091Y-111778085D02*
G01*
X137576069Y-111788393D01*
X137607390Y-111805134D01*
X137634839Y-111827661D01*
X137657366Y-111855110D01*
X137674107Y-111886431D01*
X137684415Y-111920409D01*
X137688500Y-111961890D01*
X137688500Y-112638110D01*
X137684415Y-112679591D01*
X137674107Y-112713569D01*
X137657366Y-112744890D01*
X137634839Y-112772339D01*
X137607390Y-112794866D01*
X137576069Y-112811607D01*
X137542091Y-112821915D01*
X137500610Y-112826000D01*
X136899390Y-112826000D01*
X136857909Y-112821915D01*
X136823931Y-112811607D01*
X136792610Y-112794866D01*
X136765161Y-112772339D01*
X136742634Y-112744890D01*
X136725893Y-112713569D01*
X136715585Y-112679591D01*
X136711500Y-112638110D01*
X136711500Y-111961890D01*
X136715585Y-111920409D01*
X136725893Y-111886431D01*
X136742634Y-111855110D01*
X136765161Y-111827661D01*
X136792610Y-111805134D01*
X136823931Y-111788393D01*
X136857909Y-111778085D01*
X136899390Y-111774000D01*
X137500610Y-111774000D01*
X137542091Y-111778085D01*
X137542091Y-111778085D01*
G37*
G36*
X161954591Y-111778085D02*
G01*
X161988569Y-111788393D01*
X162019890Y-111805134D01*
X162047339Y-111827661D01*
X162069866Y-111855110D01*
X162086607Y-111886431D01*
X162096915Y-111920409D01*
X162101000Y-111961890D01*
X162101000Y-112638110D01*
X162096915Y-112679591D01*
X162086607Y-112713569D01*
X162069866Y-112744890D01*
X162047339Y-112772339D01*
X162019890Y-112794866D01*
X161988569Y-112811607D01*
X161954591Y-112821915D01*
X161913110Y-112826000D01*
X161311890Y-112826000D01*
X161270409Y-112821915D01*
X161236431Y-112811607D01*
X161205110Y-112794866D01*
X161177661Y-112772339D01*
X161155134Y-112744890D01*
X161138393Y-112713569D01*
X161128085Y-112679591D01*
X161124000Y-112638110D01*
X161124000Y-111961890D01*
X161128085Y-111920409D01*
X161138393Y-111886431D01*
X161155134Y-111855110D01*
X161177661Y-111827661D01*
X161205110Y-111805134D01*
X161236431Y-111788393D01*
X161270409Y-111778085D01*
X161311890Y-111774000D01*
X161913110Y-111774000D01*
X161954591Y-111778085D01*
X161954591Y-111778085D01*
G37*
G36*
X156454591Y-109978085D02*
G01*
X156488569Y-109988393D01*
X156519890Y-110005134D01*
X156547339Y-110027661D01*
X156569866Y-110055110D01*
X156586607Y-110086431D01*
X156596915Y-110120409D01*
X156601000Y-110161890D01*
X156601000Y-110838110D01*
X156596915Y-110879591D01*
X156586607Y-110913569D01*
X156569866Y-110944890D01*
X156547339Y-110972339D01*
X156519890Y-110994866D01*
X156488569Y-111011607D01*
X156454591Y-111021915D01*
X156413110Y-111026000D01*
X155811890Y-111026000D01*
X155770409Y-111021915D01*
X155736431Y-111011607D01*
X155705110Y-110994866D01*
X155677661Y-110972339D01*
X155655134Y-110944890D01*
X155638393Y-110913569D01*
X155628085Y-110879591D01*
X155624000Y-110838110D01*
X155624000Y-110161890D01*
X155628085Y-110120409D01*
X155638393Y-110086431D01*
X155655134Y-110055110D01*
X155677661Y-110027661D01*
X155705110Y-110005134D01*
X155736431Y-109988393D01*
X155770409Y-109978085D01*
X155811890Y-109974000D01*
X156413110Y-109974000D01*
X156454591Y-109978085D01*
X156454591Y-109978085D01*
G37*
G36*
X158029591Y-109978085D02*
G01*
X158063569Y-109988393D01*
X158094890Y-110005134D01*
X158122339Y-110027661D01*
X158144866Y-110055110D01*
X158161607Y-110086431D01*
X158171915Y-110120409D01*
X158176000Y-110161890D01*
X158176000Y-110838110D01*
X158171915Y-110879591D01*
X158161607Y-110913569D01*
X158144866Y-110944890D01*
X158122339Y-110972339D01*
X158094890Y-110994866D01*
X158063569Y-111011607D01*
X158029591Y-111021915D01*
X157988110Y-111026000D01*
X157386890Y-111026000D01*
X157345409Y-111021915D01*
X157311431Y-111011607D01*
X157280110Y-110994866D01*
X157252661Y-110972339D01*
X157230134Y-110944890D01*
X157213393Y-110913569D01*
X157203085Y-110879591D01*
X157199000Y-110838110D01*
X157199000Y-110161890D01*
X157203085Y-110120409D01*
X157213393Y-110086431D01*
X157230134Y-110055110D01*
X157252661Y-110027661D01*
X157280110Y-110005134D01*
X157311431Y-109988393D01*
X157345409Y-109978085D01*
X157386890Y-109974000D01*
X157988110Y-109974000D01*
X158029591Y-109978085D01*
X158029591Y-109978085D01*
G37*
G36*
X135617091Y-109078085D02*
G01*
X135651069Y-109088393D01*
X135682390Y-109105134D01*
X135709839Y-109127661D01*
X135732366Y-109155110D01*
X135749107Y-109186431D01*
X135759415Y-109220409D01*
X135763500Y-109261890D01*
X135763500Y-109938110D01*
X135759415Y-109979591D01*
X135749107Y-110013569D01*
X135732366Y-110044890D01*
X135709839Y-110072339D01*
X135682390Y-110094866D01*
X135651069Y-110111607D01*
X135617091Y-110121915D01*
X135575610Y-110126000D01*
X134974390Y-110126000D01*
X134932909Y-110121915D01*
X134898931Y-110111607D01*
X134867610Y-110094866D01*
X134840161Y-110072339D01*
X134817634Y-110044890D01*
X134800893Y-110013569D01*
X134790585Y-109979591D01*
X134786500Y-109938110D01*
X134786500Y-109261890D01*
X134790585Y-109220409D01*
X134800893Y-109186431D01*
X134817634Y-109155110D01*
X134840161Y-109127661D01*
X134867610Y-109105134D01*
X134898931Y-109088393D01*
X134932909Y-109078085D01*
X134974390Y-109074000D01*
X135575610Y-109074000D01*
X135617091Y-109078085D01*
X135617091Y-109078085D01*
G37*
G36*
X134042091Y-109078085D02*
G01*
X134076069Y-109088393D01*
X134107390Y-109105134D01*
X134134839Y-109127661D01*
X134157366Y-109155110D01*
X134174107Y-109186431D01*
X134184415Y-109220409D01*
X134188500Y-109261890D01*
X134188500Y-109938110D01*
X134184415Y-109979591D01*
X134174107Y-110013569D01*
X134157366Y-110044890D01*
X134134839Y-110072339D01*
X134107390Y-110094866D01*
X134076069Y-110111607D01*
X134042091Y-110121915D01*
X134000610Y-110126000D01*
X133399390Y-110126000D01*
X133357909Y-110121915D01*
X133323931Y-110111607D01*
X133292610Y-110094866D01*
X133265161Y-110072339D01*
X133242634Y-110044890D01*
X133225893Y-110013569D01*
X133215585Y-109979591D01*
X133211500Y-109938110D01*
X133211500Y-109261890D01*
X133215585Y-109220409D01*
X133225893Y-109186431D01*
X133242634Y-109155110D01*
X133265161Y-109127661D01*
X133292610Y-109105134D01*
X133323931Y-109088393D01*
X133357909Y-109078085D01*
X133399390Y-109074000D01*
X134000610Y-109074000D01*
X134042091Y-109078085D01*
X134042091Y-109078085D01*
G37*
G36*
X161954591Y-108778085D02*
G01*
X161988569Y-108788393D01*
X162019890Y-108805134D01*
X162047339Y-108827661D01*
X162069866Y-108855110D01*
X162086607Y-108886431D01*
X162096915Y-108920409D01*
X162101000Y-108961890D01*
X162101000Y-109638110D01*
X162096915Y-109679591D01*
X162086607Y-109713569D01*
X162069866Y-109744890D01*
X162047339Y-109772339D01*
X162019890Y-109794866D01*
X161988569Y-109811607D01*
X161954591Y-109821915D01*
X161913110Y-109826000D01*
X161311890Y-109826000D01*
X161270409Y-109821915D01*
X161236431Y-109811607D01*
X161205110Y-109794866D01*
X161177661Y-109772339D01*
X161155134Y-109744890D01*
X161138393Y-109713569D01*
X161128085Y-109679591D01*
X161124000Y-109638110D01*
X161124000Y-108961890D01*
X161128085Y-108920409D01*
X161138393Y-108886431D01*
X161155134Y-108855110D01*
X161177661Y-108827661D01*
X161205110Y-108805134D01*
X161236431Y-108788393D01*
X161270409Y-108778085D01*
X161311890Y-108774000D01*
X161913110Y-108774000D01*
X161954591Y-108778085D01*
X161954591Y-108778085D01*
G37*
G36*
X163529591Y-108778085D02*
G01*
X163563569Y-108788393D01*
X163594890Y-108805134D01*
X163622339Y-108827661D01*
X163644866Y-108855110D01*
X163661607Y-108886431D01*
X163671915Y-108920409D01*
X163676000Y-108961890D01*
X163676000Y-109638110D01*
X163671915Y-109679591D01*
X163661607Y-109713569D01*
X163644866Y-109744890D01*
X163622339Y-109772339D01*
X163594890Y-109794866D01*
X163563569Y-109811607D01*
X163529591Y-109821915D01*
X163488110Y-109826000D01*
X162886890Y-109826000D01*
X162845409Y-109821915D01*
X162811431Y-109811607D01*
X162780110Y-109794866D01*
X162752661Y-109772339D01*
X162730134Y-109744890D01*
X162713393Y-109713569D01*
X162703085Y-109679591D01*
X162699000Y-109638110D01*
X162699000Y-108961890D01*
X162703085Y-108920409D01*
X162713393Y-108886431D01*
X162730134Y-108855110D01*
X162752661Y-108827661D01*
X162780110Y-108805134D01*
X162811431Y-108788393D01*
X162845409Y-108778085D01*
X162886890Y-108774000D01*
X163488110Y-108774000D01*
X163529591Y-108778085D01*
X163529591Y-108778085D01*
G37*
G36*
X139401000Y-108751000D02*
G01*
X138499000Y-108751000D01*
X138499000Y-107749000D01*
X139401000Y-107749000D01*
X139401000Y-108751000D01*
X139401000Y-108751000D01*
G37*
G36*
X138151000Y-108751000D02*
G01*
X137249000Y-108751000D01*
X137249000Y-107749000D01*
X138151000Y-107749000D01*
X138151000Y-108751000D01*
X138151000Y-108751000D01*
G37*
G36*
X157242091Y-106678085D02*
G01*
X157276069Y-106688393D01*
X157307390Y-106705134D01*
X157334839Y-106727661D01*
X157357366Y-106755110D01*
X157374107Y-106786431D01*
X157384415Y-106820409D01*
X157388500Y-106861890D01*
X157388500Y-107538110D01*
X157384415Y-107579591D01*
X157374107Y-107613569D01*
X157357366Y-107644890D01*
X157334839Y-107672339D01*
X157307390Y-107694866D01*
X157276069Y-107711607D01*
X157242091Y-107721915D01*
X157200610Y-107726000D01*
X156599390Y-107726000D01*
X156557909Y-107721915D01*
X156523931Y-107711607D01*
X156492610Y-107694866D01*
X156465161Y-107672339D01*
X156442634Y-107644890D01*
X156425893Y-107613569D01*
X156415585Y-107579591D01*
X156411500Y-107538110D01*
X156411500Y-106861890D01*
X156415585Y-106820409D01*
X156425893Y-106786431D01*
X156442634Y-106755110D01*
X156465161Y-106727661D01*
X156492610Y-106705134D01*
X156523931Y-106688393D01*
X156557909Y-106678085D01*
X156599390Y-106674000D01*
X157200610Y-106674000D01*
X157242091Y-106678085D01*
X157242091Y-106678085D01*
G37*
G36*
X155667091Y-106678085D02*
G01*
X155701069Y-106688393D01*
X155732390Y-106705134D01*
X155759839Y-106727661D01*
X155782366Y-106755110D01*
X155799107Y-106786431D01*
X155809415Y-106820409D01*
X155813500Y-106861890D01*
X155813500Y-107538110D01*
X155809415Y-107579591D01*
X155799107Y-107613569D01*
X155782366Y-107644890D01*
X155759839Y-107672339D01*
X155732390Y-107694866D01*
X155701069Y-107711607D01*
X155667091Y-107721915D01*
X155625610Y-107726000D01*
X155024390Y-107726000D01*
X154982909Y-107721915D01*
X154948931Y-107711607D01*
X154917610Y-107694866D01*
X154890161Y-107672339D01*
X154867634Y-107644890D01*
X154850893Y-107613569D01*
X154840585Y-107579591D01*
X154836500Y-107538110D01*
X154836500Y-106861890D01*
X154840585Y-106820409D01*
X154850893Y-106786431D01*
X154867634Y-106755110D01*
X154890161Y-106727661D01*
X154917610Y-106705134D01*
X154948931Y-106688393D01*
X154982909Y-106678085D01*
X155024390Y-106674000D01*
X155625610Y-106674000D01*
X155667091Y-106678085D01*
X155667091Y-106678085D01*
G37*
G36*
X139401000Y-107101000D02*
G01*
X138499000Y-107101000D01*
X138499000Y-106099000D01*
X139401000Y-106099000D01*
X139401000Y-107101000D01*
X139401000Y-107101000D01*
G37*
G36*
X138151000Y-107101000D02*
G01*
X137249000Y-107101000D01*
X137249000Y-106099000D01*
X138151000Y-106099000D01*
X138151000Y-107101000D01*
X138151000Y-107101000D01*
G37*
G36*
X134067091Y-105878085D02*
G01*
X134101069Y-105888393D01*
X134132390Y-105905134D01*
X134159839Y-105927661D01*
X134182366Y-105955110D01*
X134199107Y-105986431D01*
X134209415Y-106020409D01*
X134213500Y-106061890D01*
X134213500Y-106738110D01*
X134209415Y-106779591D01*
X134199107Y-106813569D01*
X134182366Y-106844890D01*
X134159839Y-106872339D01*
X134132390Y-106894866D01*
X134101069Y-106911607D01*
X134067091Y-106921915D01*
X134025610Y-106926000D01*
X133424390Y-106926000D01*
X133382909Y-106921915D01*
X133348931Y-106911607D01*
X133317610Y-106894866D01*
X133290161Y-106872339D01*
X133267634Y-106844890D01*
X133250893Y-106813569D01*
X133240585Y-106779591D01*
X133236500Y-106738110D01*
X133236500Y-106061890D01*
X133240585Y-106020409D01*
X133250893Y-105986431D01*
X133267634Y-105955110D01*
X133290161Y-105927661D01*
X133317610Y-105905134D01*
X133348931Y-105888393D01*
X133382909Y-105878085D01*
X133424390Y-105874000D01*
X134025610Y-105874000D01*
X134067091Y-105878085D01*
X134067091Y-105878085D01*
G37*
G36*
X135642091Y-105878085D02*
G01*
X135676069Y-105888393D01*
X135707390Y-105905134D01*
X135734839Y-105927661D01*
X135757366Y-105955110D01*
X135774107Y-105986431D01*
X135784415Y-106020409D01*
X135788500Y-106061890D01*
X135788500Y-106738110D01*
X135784415Y-106779591D01*
X135774107Y-106813569D01*
X135757366Y-106844890D01*
X135734839Y-106872339D01*
X135707390Y-106894866D01*
X135676069Y-106911607D01*
X135642091Y-106921915D01*
X135600610Y-106926000D01*
X134999390Y-106926000D01*
X134957909Y-106921915D01*
X134923931Y-106911607D01*
X134892610Y-106894866D01*
X134865161Y-106872339D01*
X134842634Y-106844890D01*
X134825893Y-106813569D01*
X134815585Y-106779591D01*
X134811500Y-106738110D01*
X134811500Y-106061890D01*
X134815585Y-106020409D01*
X134825893Y-105986431D01*
X134842634Y-105955110D01*
X134865161Y-105927661D01*
X134892610Y-105905134D01*
X134923931Y-105888393D01*
X134957909Y-105878085D01*
X134999390Y-105874000D01*
X135600610Y-105874000D01*
X135642091Y-105878085D01*
X135642091Y-105878085D01*
G37*
G36*
X163528791Y-105684485D02*
G01*
X163562769Y-105694793D01*
X163594090Y-105711534D01*
X163621539Y-105734061D01*
X163644066Y-105761510D01*
X163660807Y-105792831D01*
X163671115Y-105826809D01*
X163675200Y-105868290D01*
X163675200Y-106544510D01*
X163671115Y-106585991D01*
X163660807Y-106619969D01*
X163644066Y-106651290D01*
X163621539Y-106678739D01*
X163594090Y-106701266D01*
X163562769Y-106718007D01*
X163528791Y-106728315D01*
X163487310Y-106732400D01*
X162886090Y-106732400D01*
X162844609Y-106728315D01*
X162810631Y-106718007D01*
X162779310Y-106701266D01*
X162751861Y-106678739D01*
X162729334Y-106651290D01*
X162712593Y-106619969D01*
X162702285Y-106585991D01*
X162698200Y-106544510D01*
X162698200Y-105868290D01*
X162702285Y-105826809D01*
X162712593Y-105792831D01*
X162729334Y-105761510D01*
X162751861Y-105734061D01*
X162779310Y-105711534D01*
X162810631Y-105694793D01*
X162844609Y-105684485D01*
X162886090Y-105680400D01*
X163487310Y-105680400D01*
X163528791Y-105684485D01*
X163528791Y-105684485D01*
G37*
G36*
X161953791Y-105684485D02*
G01*
X161987769Y-105694793D01*
X162019090Y-105711534D01*
X162046539Y-105734061D01*
X162069066Y-105761510D01*
X162085807Y-105792831D01*
X162096115Y-105826809D01*
X162100200Y-105868290D01*
X162100200Y-106544510D01*
X162096115Y-106585991D01*
X162085807Y-106619969D01*
X162069066Y-106651290D01*
X162046539Y-106678739D01*
X162019090Y-106701266D01*
X161987769Y-106718007D01*
X161953791Y-106728315D01*
X161912310Y-106732400D01*
X161311090Y-106732400D01*
X161269609Y-106728315D01*
X161235631Y-106718007D01*
X161204310Y-106701266D01*
X161176861Y-106678739D01*
X161154334Y-106651290D01*
X161137593Y-106619969D01*
X161127285Y-106585991D01*
X161123200Y-106544510D01*
X161123200Y-105868290D01*
X161127285Y-105826809D01*
X161137593Y-105792831D01*
X161154334Y-105761510D01*
X161176861Y-105734061D01*
X161204310Y-105711534D01*
X161235631Y-105694793D01*
X161269609Y-105684485D01*
X161311090Y-105680400D01*
X161912310Y-105680400D01*
X161953791Y-105684485D01*
X161953791Y-105684485D01*
G37*
G36*
X129942091Y-103478085D02*
G01*
X129976069Y-103488393D01*
X130007390Y-103505134D01*
X130034839Y-103527661D01*
X130057366Y-103555110D01*
X130074107Y-103586431D01*
X130084415Y-103620409D01*
X130088500Y-103661890D01*
X130088500Y-104338110D01*
X130084415Y-104379591D01*
X130074107Y-104413569D01*
X130057366Y-104444890D01*
X130034839Y-104472339D01*
X130007390Y-104494866D01*
X129976069Y-104511607D01*
X129942091Y-104521915D01*
X129900610Y-104526000D01*
X129299390Y-104526000D01*
X129257909Y-104521915D01*
X129223931Y-104511607D01*
X129192610Y-104494866D01*
X129165161Y-104472339D01*
X129142634Y-104444890D01*
X129125893Y-104413569D01*
X129115585Y-104379591D01*
X129111500Y-104338110D01*
X129111500Y-103661890D01*
X129115585Y-103620409D01*
X129125893Y-103586431D01*
X129142634Y-103555110D01*
X129165161Y-103527661D01*
X129192610Y-103505134D01*
X129223931Y-103488393D01*
X129257909Y-103478085D01*
X129299390Y-103474000D01*
X129900610Y-103474000D01*
X129942091Y-103478085D01*
X129942091Y-103478085D01*
G37*
G36*
X131517091Y-103478085D02*
G01*
X131551069Y-103488393D01*
X131582390Y-103505134D01*
X131609839Y-103527661D01*
X131632366Y-103555110D01*
X131649107Y-103586431D01*
X131659415Y-103620409D01*
X131663500Y-103661890D01*
X131663500Y-104338110D01*
X131659415Y-104379591D01*
X131649107Y-104413569D01*
X131632366Y-104444890D01*
X131609839Y-104472339D01*
X131582390Y-104494866D01*
X131551069Y-104511607D01*
X131517091Y-104521915D01*
X131475610Y-104526000D01*
X130874390Y-104526000D01*
X130832909Y-104521915D01*
X130798931Y-104511607D01*
X130767610Y-104494866D01*
X130740161Y-104472339D01*
X130717634Y-104444890D01*
X130700893Y-104413569D01*
X130690585Y-104379591D01*
X130686500Y-104338110D01*
X130686500Y-103661890D01*
X130690585Y-103620409D01*
X130700893Y-103586431D01*
X130717634Y-103555110D01*
X130740161Y-103527661D01*
X130767610Y-103505134D01*
X130798931Y-103488393D01*
X130832909Y-103478085D01*
X130874390Y-103474000D01*
X131475610Y-103474000D01*
X131517091Y-103478085D01*
X131517091Y-103478085D01*
G37*
G36*
X135517091Y-101278085D02*
G01*
X135551069Y-101288393D01*
X135582390Y-101305134D01*
X135609839Y-101327661D01*
X135632366Y-101355110D01*
X135649107Y-101386431D01*
X135659415Y-101420409D01*
X135663500Y-101461890D01*
X135663500Y-102138110D01*
X135659415Y-102179591D01*
X135649107Y-102213569D01*
X135632366Y-102244890D01*
X135609839Y-102272339D01*
X135582390Y-102294866D01*
X135551069Y-102311607D01*
X135517091Y-102321915D01*
X135475610Y-102326000D01*
X134874390Y-102326000D01*
X134832909Y-102321915D01*
X134798931Y-102311607D01*
X134767610Y-102294866D01*
X134740161Y-102272339D01*
X134717634Y-102244890D01*
X134700893Y-102213569D01*
X134690585Y-102179591D01*
X134686500Y-102138110D01*
X134686500Y-101461890D01*
X134690585Y-101420409D01*
X134700893Y-101386431D01*
X134717634Y-101355110D01*
X134740161Y-101327661D01*
X134767610Y-101305134D01*
X134798931Y-101288393D01*
X134832909Y-101278085D01*
X134874390Y-101274000D01*
X135475610Y-101274000D01*
X135517091Y-101278085D01*
X135517091Y-101278085D01*
G37*
G36*
X133942091Y-101278085D02*
G01*
X133976069Y-101288393D01*
X134007390Y-101305134D01*
X134034839Y-101327661D01*
X134057366Y-101355110D01*
X134074107Y-101386431D01*
X134084415Y-101420409D01*
X134088500Y-101461890D01*
X134088500Y-102138110D01*
X134084415Y-102179591D01*
X134074107Y-102213569D01*
X134057366Y-102244890D01*
X134034839Y-102272339D01*
X134007390Y-102294866D01*
X133976069Y-102311607D01*
X133942091Y-102321915D01*
X133900610Y-102326000D01*
X133299390Y-102326000D01*
X133257909Y-102321915D01*
X133223931Y-102311607D01*
X133192610Y-102294866D01*
X133165161Y-102272339D01*
X133142634Y-102244890D01*
X133125893Y-102213569D01*
X133115585Y-102179591D01*
X133111500Y-102138110D01*
X133111500Y-101461890D01*
X133115585Y-101420409D01*
X133125893Y-101386431D01*
X133142634Y-101355110D01*
X133165161Y-101327661D01*
X133192610Y-101305134D01*
X133223931Y-101288393D01*
X133257909Y-101278085D01*
X133299390Y-101274000D01*
X133900610Y-101274000D01*
X133942091Y-101278085D01*
X133942091Y-101278085D01*
G37*
G36*
X168070391Y-101141085D02*
G01*
X168104369Y-101151393D01*
X168135690Y-101168134D01*
X168163139Y-101190661D01*
X168185666Y-101218110D01*
X168202407Y-101249431D01*
X168212715Y-101283409D01*
X168216800Y-101324890D01*
X168216800Y-101926110D01*
X168212715Y-101967591D01*
X168202407Y-102001569D01*
X168185666Y-102032890D01*
X168163139Y-102060339D01*
X168135690Y-102082866D01*
X168104369Y-102099607D01*
X168070391Y-102109915D01*
X168028910Y-102114000D01*
X167352690Y-102114000D01*
X167311209Y-102109915D01*
X167277231Y-102099607D01*
X167245910Y-102082866D01*
X167218461Y-102060339D01*
X167195934Y-102032890D01*
X167179193Y-102001569D01*
X167168885Y-101967591D01*
X167164800Y-101926110D01*
X167164800Y-101324890D01*
X167168885Y-101283409D01*
X167179193Y-101249431D01*
X167195934Y-101218110D01*
X167218461Y-101190661D01*
X167245910Y-101168134D01*
X167277231Y-101151393D01*
X167311209Y-101141085D01*
X167352690Y-101137000D01*
X168028910Y-101137000D01*
X168070391Y-101141085D01*
X168070391Y-101141085D01*
G37*
G36*
X164819191Y-101064785D02*
G01*
X164853169Y-101075093D01*
X164884490Y-101091834D01*
X164911939Y-101114361D01*
X164934466Y-101141810D01*
X164951207Y-101173131D01*
X164961515Y-101207109D01*
X164965600Y-101248590D01*
X164965600Y-101849810D01*
X164961515Y-101891291D01*
X164951207Y-101925269D01*
X164934466Y-101956590D01*
X164911939Y-101984039D01*
X164884490Y-102006566D01*
X164853169Y-102023307D01*
X164819191Y-102033615D01*
X164777710Y-102037700D01*
X164101490Y-102037700D01*
X164060009Y-102033615D01*
X164026031Y-102023307D01*
X163994710Y-102006566D01*
X163967261Y-101984039D01*
X163944734Y-101956590D01*
X163927993Y-101925269D01*
X163917685Y-101891291D01*
X163913600Y-101849810D01*
X163913600Y-101248590D01*
X163917685Y-101207109D01*
X163927993Y-101173131D01*
X163944734Y-101141810D01*
X163967261Y-101114361D01*
X163994710Y-101091834D01*
X164026031Y-101075093D01*
X164060009Y-101064785D01*
X164101490Y-101060700D01*
X164777710Y-101060700D01*
X164819191Y-101064785D01*
X164819191Y-101064785D01*
G37*
G36*
X129817091Y-100378085D02*
G01*
X129851069Y-100388393D01*
X129882390Y-100405134D01*
X129909839Y-100427661D01*
X129932366Y-100455110D01*
X129949107Y-100486431D01*
X129959415Y-100520409D01*
X129963500Y-100561890D01*
X129963500Y-101238110D01*
X129959415Y-101279591D01*
X129949107Y-101313569D01*
X129932366Y-101344890D01*
X129909839Y-101372339D01*
X129882390Y-101394866D01*
X129851069Y-101411607D01*
X129817091Y-101421915D01*
X129775610Y-101426000D01*
X129174390Y-101426000D01*
X129132909Y-101421915D01*
X129098931Y-101411607D01*
X129067610Y-101394866D01*
X129040161Y-101372339D01*
X129017634Y-101344890D01*
X129000893Y-101313569D01*
X128990585Y-101279591D01*
X128986500Y-101238110D01*
X128986500Y-100561890D01*
X128990585Y-100520409D01*
X129000893Y-100486431D01*
X129017634Y-100455110D01*
X129040161Y-100427661D01*
X129067610Y-100405134D01*
X129098931Y-100388393D01*
X129132909Y-100378085D01*
X129174390Y-100374000D01*
X129775610Y-100374000D01*
X129817091Y-100378085D01*
X129817091Y-100378085D01*
G37*
G36*
X128242091Y-100378085D02*
G01*
X128276069Y-100388393D01*
X128307390Y-100405134D01*
X128334839Y-100427661D01*
X128357366Y-100455110D01*
X128374107Y-100486431D01*
X128384415Y-100520409D01*
X128388500Y-100561890D01*
X128388500Y-101238110D01*
X128384415Y-101279591D01*
X128374107Y-101313569D01*
X128357366Y-101344890D01*
X128334839Y-101372339D01*
X128307390Y-101394866D01*
X128276069Y-101411607D01*
X128242091Y-101421915D01*
X128200610Y-101426000D01*
X127599390Y-101426000D01*
X127557909Y-101421915D01*
X127523931Y-101411607D01*
X127492610Y-101394866D01*
X127465161Y-101372339D01*
X127442634Y-101344890D01*
X127425893Y-101313569D01*
X127415585Y-101279591D01*
X127411500Y-101238110D01*
X127411500Y-100561890D01*
X127415585Y-100520409D01*
X127425893Y-100486431D01*
X127442634Y-100455110D01*
X127465161Y-100427661D01*
X127492610Y-100405134D01*
X127523931Y-100388393D01*
X127557909Y-100378085D01*
X127599390Y-100374000D01*
X128200610Y-100374000D01*
X128242091Y-100378085D01*
X128242091Y-100378085D01*
G37*
G36*
X168070391Y-99566085D02*
G01*
X168104369Y-99576393D01*
X168135690Y-99593134D01*
X168163139Y-99615661D01*
X168185666Y-99643110D01*
X168202407Y-99674431D01*
X168212715Y-99708409D01*
X168216800Y-99749890D01*
X168216800Y-100351110D01*
X168212715Y-100392591D01*
X168202407Y-100426569D01*
X168185666Y-100457890D01*
X168163139Y-100485339D01*
X168135690Y-100507866D01*
X168104369Y-100524607D01*
X168070391Y-100534915D01*
X168028910Y-100539000D01*
X167352690Y-100539000D01*
X167311209Y-100534915D01*
X167277231Y-100524607D01*
X167245910Y-100507866D01*
X167218461Y-100485339D01*
X167195934Y-100457890D01*
X167179193Y-100426569D01*
X167168885Y-100392591D01*
X167164800Y-100351110D01*
X167164800Y-99749890D01*
X167168885Y-99708409D01*
X167179193Y-99674431D01*
X167195934Y-99643110D01*
X167218461Y-99615661D01*
X167245910Y-99593134D01*
X167277231Y-99576393D01*
X167311209Y-99566085D01*
X167352690Y-99562000D01*
X168028910Y-99562000D01*
X168070391Y-99566085D01*
X168070391Y-99566085D01*
G37*
G36*
X164819191Y-99489785D02*
G01*
X164853169Y-99500093D01*
X164884490Y-99516834D01*
X164911939Y-99539361D01*
X164934466Y-99566810D01*
X164951207Y-99598131D01*
X164961515Y-99632109D01*
X164965600Y-99673590D01*
X164965600Y-100274810D01*
X164961515Y-100316291D01*
X164951207Y-100350269D01*
X164934466Y-100381590D01*
X164911939Y-100409039D01*
X164884490Y-100431566D01*
X164853169Y-100448307D01*
X164819191Y-100458615D01*
X164777710Y-100462700D01*
X164101490Y-100462700D01*
X164060009Y-100458615D01*
X164026031Y-100448307D01*
X163994710Y-100431566D01*
X163967261Y-100409039D01*
X163944734Y-100381590D01*
X163927993Y-100350269D01*
X163917685Y-100316291D01*
X163913600Y-100274810D01*
X163913600Y-99673590D01*
X163917685Y-99632109D01*
X163927993Y-99598131D01*
X163944734Y-99566810D01*
X163967261Y-99539361D01*
X163994710Y-99516834D01*
X164026031Y-99500093D01*
X164060009Y-99489785D01*
X164101490Y-99485700D01*
X164777710Y-99485700D01*
X164819191Y-99489785D01*
X164819191Y-99489785D01*
G37*
G36*
X149680400Y-98855000D02*
G01*
X144248400Y-98855000D01*
X144248400Y-95423999D01*
X145108400Y-95423999D01*
X145108400Y-97870001D01*
X145110802Y-97894387D01*
X145117915Y-97917836D01*
X145129466Y-97939447D01*
X145145011Y-97958389D01*
X145163953Y-97973934D01*
X145185564Y-97985485D01*
X145209013Y-97992598D01*
X145233399Y-97995000D01*
X148695401Y-97995000D01*
X148719787Y-97992598D01*
X148743236Y-97985485D01*
X148764847Y-97973934D01*
X148783789Y-97958389D01*
X148799334Y-97939447D01*
X148810885Y-97917836D01*
X148817998Y-97894387D01*
X148820400Y-97870001D01*
X148820400Y-95423999D01*
X148817998Y-95399613D01*
X148810885Y-95376164D01*
X148799334Y-95354553D01*
X148783789Y-95335611D01*
X148764847Y-95320066D01*
X148743236Y-95308515D01*
X148719787Y-95301402D01*
X148695401Y-95299000D01*
X145233399Y-95299000D01*
X145209013Y-95301402D01*
X145185564Y-95308515D01*
X145163953Y-95320066D01*
X145145011Y-95335611D01*
X145129466Y-95354553D01*
X145117915Y-95376164D01*
X145110802Y-95399613D01*
X145108400Y-95423999D01*
X144248400Y-95423999D01*
X144248400Y-94439000D01*
X149680400Y-94439000D01*
X149680400Y-98855000D01*
X149680400Y-98855000D01*
G37*
G36*
X147648400Y-97331000D02*
G01*
X146280400Y-97331000D01*
X146280400Y-96439999D01*
X146632400Y-96439999D01*
X146632400Y-96854001D01*
X146634802Y-96878387D01*
X146641915Y-96901836D01*
X146653466Y-96923447D01*
X146669011Y-96942389D01*
X146687953Y-96957934D01*
X146709564Y-96969485D01*
X146733013Y-96976598D01*
X146757399Y-96979000D01*
X147171401Y-96979000D01*
X147195787Y-96976598D01*
X147219236Y-96969485D01*
X147240847Y-96957934D01*
X147259789Y-96942389D01*
X147275334Y-96923447D01*
X147286885Y-96901836D01*
X147293998Y-96878387D01*
X147296400Y-96854001D01*
X147296400Y-96439999D01*
X147293998Y-96415613D01*
X147286885Y-96392164D01*
X147275334Y-96370553D01*
X147259789Y-96351611D01*
X147240847Y-96336066D01*
X147219236Y-96324515D01*
X147195787Y-96317402D01*
X147171401Y-96315000D01*
X146757399Y-96315000D01*
X146733013Y-96317402D01*
X146709564Y-96324515D01*
X146687953Y-96336066D01*
X146669011Y-96351611D01*
X146653466Y-96370553D01*
X146641915Y-96392164D01*
X146634802Y-96415613D01*
X146632400Y-96439999D01*
X146280400Y-96439999D01*
X146280400Y-95963000D01*
X147648400Y-95963000D01*
X147648400Y-97331000D01*
X147648400Y-97331000D01*
G37*
G36*
X164768391Y-97839085D02*
G01*
X164802369Y-97849393D01*
X164833690Y-97866134D01*
X164861139Y-97888661D01*
X164883666Y-97916110D01*
X164900407Y-97947431D01*
X164910715Y-97981409D01*
X164914800Y-98022890D01*
X164914800Y-98624110D01*
X164910715Y-98665591D01*
X164900407Y-98699569D01*
X164883666Y-98730890D01*
X164861139Y-98758339D01*
X164833690Y-98780866D01*
X164802369Y-98797607D01*
X164768391Y-98807915D01*
X164726910Y-98812000D01*
X164050690Y-98812000D01*
X164009209Y-98807915D01*
X163975231Y-98797607D01*
X163943910Y-98780866D01*
X163916461Y-98758339D01*
X163893934Y-98730890D01*
X163877193Y-98699569D01*
X163866885Y-98665591D01*
X163862800Y-98624110D01*
X163862800Y-98022890D01*
X163866885Y-97981409D01*
X163877193Y-97947431D01*
X163893934Y-97916110D01*
X163916461Y-97888661D01*
X163943910Y-97866134D01*
X163975231Y-97849393D01*
X164009209Y-97839085D01*
X164050690Y-97835000D01*
X164726910Y-97835000D01*
X164768391Y-97839085D01*
X164768391Y-97839085D01*
G37*
G36*
X131654591Y-96778085D02*
G01*
X131688569Y-96788393D01*
X131719890Y-96805134D01*
X131747339Y-96827661D01*
X131769866Y-96855110D01*
X131786607Y-96886431D01*
X131796915Y-96920409D01*
X131801000Y-96961890D01*
X131801000Y-97638110D01*
X131796915Y-97679591D01*
X131786607Y-97713569D01*
X131769866Y-97744890D01*
X131747339Y-97772339D01*
X131719890Y-97794866D01*
X131688569Y-97811607D01*
X131654591Y-97821915D01*
X131613110Y-97826000D01*
X131011890Y-97826000D01*
X130970409Y-97821915D01*
X130936431Y-97811607D01*
X130905110Y-97794866D01*
X130877661Y-97772339D01*
X130855134Y-97744890D01*
X130838393Y-97713569D01*
X130828085Y-97679591D01*
X130824000Y-97638110D01*
X130824000Y-96961890D01*
X130828085Y-96920409D01*
X130838393Y-96886431D01*
X130855134Y-96855110D01*
X130877661Y-96827661D01*
X130905110Y-96805134D01*
X130936431Y-96788393D01*
X130970409Y-96778085D01*
X131011890Y-96774000D01*
X131613110Y-96774000D01*
X131654591Y-96778085D01*
X131654591Y-96778085D01*
G37*
G36*
X133229591Y-96778085D02*
G01*
X133263569Y-96788393D01*
X133294890Y-96805134D01*
X133322339Y-96827661D01*
X133344866Y-96855110D01*
X133361607Y-96886431D01*
X133371915Y-96920409D01*
X133376000Y-96961890D01*
X133376000Y-97638110D01*
X133371915Y-97679591D01*
X133361607Y-97713569D01*
X133344866Y-97744890D01*
X133322339Y-97772339D01*
X133294890Y-97794866D01*
X133263569Y-97811607D01*
X133229591Y-97821915D01*
X133188110Y-97826000D01*
X132586890Y-97826000D01*
X132545409Y-97821915D01*
X132511431Y-97811607D01*
X132480110Y-97794866D01*
X132452661Y-97772339D01*
X132430134Y-97744890D01*
X132413393Y-97713569D01*
X132403085Y-97679591D01*
X132399000Y-97638110D01*
X132399000Y-96961890D01*
X132403085Y-96920409D01*
X132413393Y-96886431D01*
X132430134Y-96855110D01*
X132452661Y-96827661D01*
X132480110Y-96805134D01*
X132511431Y-96788393D01*
X132545409Y-96778085D01*
X132586890Y-96774000D01*
X133188110Y-96774000D01*
X133229591Y-96778085D01*
X133229591Y-96778085D01*
G37*
G36*
X164768391Y-96264085D02*
G01*
X164802369Y-96274393D01*
X164833690Y-96291134D01*
X164861139Y-96313661D01*
X164883666Y-96341110D01*
X164900407Y-96372431D01*
X164910715Y-96406409D01*
X164914800Y-96447890D01*
X164914800Y-97049110D01*
X164910715Y-97090591D01*
X164900407Y-97124569D01*
X164883666Y-97155890D01*
X164861139Y-97183339D01*
X164833690Y-97205866D01*
X164802369Y-97222607D01*
X164768391Y-97232915D01*
X164726910Y-97237000D01*
X164050690Y-97237000D01*
X164009209Y-97232915D01*
X163975231Y-97222607D01*
X163943910Y-97205866D01*
X163916461Y-97183339D01*
X163893934Y-97155890D01*
X163877193Y-97124569D01*
X163866885Y-97090591D01*
X163862800Y-97049110D01*
X163862800Y-96447890D01*
X163866885Y-96406409D01*
X163877193Y-96372431D01*
X163893934Y-96341110D01*
X163916461Y-96313661D01*
X163943910Y-96291134D01*
X163975231Y-96274393D01*
X164009209Y-96264085D01*
X164050690Y-96260000D01*
X164726910Y-96260000D01*
X164768391Y-96264085D01*
X164768391Y-96264085D01*
G37*
G36*
X131879591Y-95015585D02*
G01*
X131913569Y-95025893D01*
X131944890Y-95042634D01*
X131972339Y-95065161D01*
X131994866Y-95092610D01*
X132011607Y-95123931D01*
X132021915Y-95157909D01*
X132026000Y-95199390D01*
X132026000Y-95800610D01*
X132021915Y-95842091D01*
X132011607Y-95876069D01*
X131994866Y-95907390D01*
X131972339Y-95934839D01*
X131944890Y-95957366D01*
X131913569Y-95974107D01*
X131879591Y-95984415D01*
X131838110Y-95988500D01*
X131161890Y-95988500D01*
X131120409Y-95984415D01*
X131086431Y-95974107D01*
X131055110Y-95957366D01*
X131027661Y-95934839D01*
X131005134Y-95907390D01*
X130988393Y-95876069D01*
X130978085Y-95842091D01*
X130974000Y-95800610D01*
X130974000Y-95199390D01*
X130978085Y-95157909D01*
X130988393Y-95123931D01*
X131005134Y-95092610D01*
X131027661Y-95065161D01*
X131055110Y-95042634D01*
X131086431Y-95025893D01*
X131120409Y-95015585D01*
X131161890Y-95011500D01*
X131838110Y-95011500D01*
X131879591Y-95015585D01*
X131879591Y-95015585D01*
G37*
G36*
X129417091Y-94878085D02*
G01*
X129451069Y-94888393D01*
X129482390Y-94905134D01*
X129509839Y-94927661D01*
X129532366Y-94955110D01*
X129549107Y-94986431D01*
X129559415Y-95020409D01*
X129563500Y-95061890D01*
X129563500Y-95738110D01*
X129559415Y-95779591D01*
X129549107Y-95813569D01*
X129532366Y-95844890D01*
X129509839Y-95872339D01*
X129482390Y-95894866D01*
X129451069Y-95911607D01*
X129417091Y-95921915D01*
X129375610Y-95926000D01*
X128774390Y-95926000D01*
X128732909Y-95921915D01*
X128698931Y-95911607D01*
X128667610Y-95894866D01*
X128640161Y-95872339D01*
X128617634Y-95844890D01*
X128600893Y-95813569D01*
X128590585Y-95779591D01*
X128586500Y-95738110D01*
X128586500Y-95061890D01*
X128590585Y-95020409D01*
X128600893Y-94986431D01*
X128617634Y-94955110D01*
X128640161Y-94927661D01*
X128667610Y-94905134D01*
X128698931Y-94888393D01*
X128732909Y-94878085D01*
X128774390Y-94874000D01*
X129375610Y-94874000D01*
X129417091Y-94878085D01*
X129417091Y-94878085D01*
G37*
G36*
X127842091Y-94878085D02*
G01*
X127876069Y-94888393D01*
X127907390Y-94905134D01*
X127934839Y-94927661D01*
X127957366Y-94955110D01*
X127974107Y-94986431D01*
X127984415Y-95020409D01*
X127988500Y-95061890D01*
X127988500Y-95738110D01*
X127984415Y-95779591D01*
X127974107Y-95813569D01*
X127957366Y-95844890D01*
X127934839Y-95872339D01*
X127907390Y-95894866D01*
X127876069Y-95911607D01*
X127842091Y-95921915D01*
X127800610Y-95926000D01*
X127199390Y-95926000D01*
X127157909Y-95921915D01*
X127123931Y-95911607D01*
X127092610Y-95894866D01*
X127065161Y-95872339D01*
X127042634Y-95844890D01*
X127025893Y-95813569D01*
X127015585Y-95779591D01*
X127011500Y-95738110D01*
X127011500Y-95061890D01*
X127015585Y-95020409D01*
X127025893Y-94986431D01*
X127042634Y-94955110D01*
X127065161Y-94927661D01*
X127092610Y-94905134D01*
X127123931Y-94888393D01*
X127157909Y-94878085D01*
X127199390Y-94874000D01*
X127800610Y-94874000D01*
X127842091Y-94878085D01*
X127842091Y-94878085D01*
G37*
G36*
X164641391Y-94181385D02*
G01*
X164675369Y-94191693D01*
X164706690Y-94208434D01*
X164734139Y-94230961D01*
X164756666Y-94258410D01*
X164773407Y-94289731D01*
X164783715Y-94323709D01*
X164787800Y-94365190D01*
X164787800Y-94966410D01*
X164783715Y-95007891D01*
X164773407Y-95041869D01*
X164756666Y-95073190D01*
X164734139Y-95100639D01*
X164706690Y-95123166D01*
X164675369Y-95139907D01*
X164641391Y-95150215D01*
X164599910Y-95154300D01*
X163923690Y-95154300D01*
X163882209Y-95150215D01*
X163848231Y-95139907D01*
X163816910Y-95123166D01*
X163789461Y-95100639D01*
X163766934Y-95073190D01*
X163750193Y-95041869D01*
X163739885Y-95007891D01*
X163735800Y-94966410D01*
X163735800Y-94365190D01*
X163739885Y-94323709D01*
X163750193Y-94289731D01*
X163766934Y-94258410D01*
X163789461Y-94230961D01*
X163816910Y-94208434D01*
X163848231Y-94191693D01*
X163882209Y-94181385D01*
X163923690Y-94177300D01*
X164599910Y-94177300D01*
X164641391Y-94181385D01*
X164641391Y-94181385D01*
G37*
G36*
X131879591Y-93440585D02*
G01*
X131913569Y-93450893D01*
X131944890Y-93467634D01*
X131972339Y-93490161D01*
X131994866Y-93517610D01*
X132011607Y-93548931D01*
X132021915Y-93582909D01*
X132026000Y-93624390D01*
X132026000Y-94225610D01*
X132021915Y-94267091D01*
X132011607Y-94301069D01*
X131994866Y-94332390D01*
X131972339Y-94359839D01*
X131944890Y-94382366D01*
X131913569Y-94399107D01*
X131879591Y-94409415D01*
X131838110Y-94413500D01*
X131161890Y-94413500D01*
X131120409Y-94409415D01*
X131086431Y-94399107D01*
X131055110Y-94382366D01*
X131027661Y-94359839D01*
X131005134Y-94332390D01*
X130988393Y-94301069D01*
X130978085Y-94267091D01*
X130974000Y-94225610D01*
X130974000Y-93624390D01*
X130978085Y-93582909D01*
X130988393Y-93548931D01*
X131005134Y-93517610D01*
X131027661Y-93490161D01*
X131055110Y-93467634D01*
X131086431Y-93450893D01*
X131120409Y-93440585D01*
X131161890Y-93436500D01*
X131838110Y-93436500D01*
X131879591Y-93440585D01*
X131879591Y-93440585D01*
G37*
G36*
X164641391Y-92606385D02*
G01*
X164675369Y-92616693D01*
X164706690Y-92633434D01*
X164734139Y-92655961D01*
X164756666Y-92683410D01*
X164773407Y-92714731D01*
X164783715Y-92748709D01*
X164787800Y-92790190D01*
X164787800Y-93391410D01*
X164783715Y-93432891D01*
X164773407Y-93466869D01*
X164756666Y-93498190D01*
X164734139Y-93525639D01*
X164706690Y-93548166D01*
X164675369Y-93564907D01*
X164641391Y-93575215D01*
X164599910Y-93579300D01*
X163923690Y-93579300D01*
X163882209Y-93575215D01*
X163848231Y-93564907D01*
X163816910Y-93548166D01*
X163789461Y-93525639D01*
X163766934Y-93498190D01*
X163750193Y-93466869D01*
X163739885Y-93432891D01*
X163735800Y-93391410D01*
X163735800Y-92790190D01*
X163739885Y-92748709D01*
X163750193Y-92714731D01*
X163766934Y-92683410D01*
X163789461Y-92655961D01*
X163816910Y-92633434D01*
X163848231Y-92616693D01*
X163882209Y-92606385D01*
X163923690Y-92602300D01*
X164599910Y-92602300D01*
X164641391Y-92606385D01*
X164641391Y-92606385D01*
G37*
G36*
X123467091Y-91978085D02*
G01*
X123501069Y-91988393D01*
X123532390Y-92005134D01*
X123559839Y-92027661D01*
X123582366Y-92055110D01*
X123599107Y-92086431D01*
X123609415Y-92120409D01*
X123613500Y-92161890D01*
X123613500Y-92838110D01*
X123609415Y-92879591D01*
X123599107Y-92913569D01*
X123582366Y-92944890D01*
X123559839Y-92972339D01*
X123532390Y-92994866D01*
X123501069Y-93011607D01*
X123467091Y-93021915D01*
X123425610Y-93026000D01*
X122824390Y-93026000D01*
X122782909Y-93021915D01*
X122748931Y-93011607D01*
X122717610Y-92994866D01*
X122690161Y-92972339D01*
X122667634Y-92944890D01*
X122650893Y-92913569D01*
X122640585Y-92879591D01*
X122636500Y-92838110D01*
X122636500Y-92161890D01*
X122640585Y-92120409D01*
X122650893Y-92086431D01*
X122667634Y-92055110D01*
X122690161Y-92027661D01*
X122717610Y-92005134D01*
X122748931Y-91988393D01*
X122782909Y-91978085D01*
X122824390Y-91974000D01*
X123425610Y-91974000D01*
X123467091Y-91978085D01*
X123467091Y-91978085D01*
G37*
G36*
X125042091Y-91978085D02*
G01*
X125076069Y-91988393D01*
X125107390Y-92005134D01*
X125134839Y-92027661D01*
X125157366Y-92055110D01*
X125174107Y-92086431D01*
X125184415Y-92120409D01*
X125188500Y-92161890D01*
X125188500Y-92838110D01*
X125184415Y-92879591D01*
X125174107Y-92913569D01*
X125157366Y-92944890D01*
X125134839Y-92972339D01*
X125107390Y-92994866D01*
X125076069Y-93011607D01*
X125042091Y-93021915D01*
X125000610Y-93026000D01*
X124399390Y-93026000D01*
X124357909Y-93021915D01*
X124323931Y-93011607D01*
X124292610Y-92994866D01*
X124265161Y-92972339D01*
X124242634Y-92944890D01*
X124225893Y-92913569D01*
X124215585Y-92879591D01*
X124211500Y-92838110D01*
X124211500Y-92161890D01*
X124215585Y-92120409D01*
X124225893Y-92086431D01*
X124242634Y-92055110D01*
X124265161Y-92027661D01*
X124292610Y-92005134D01*
X124323931Y-91988393D01*
X124357909Y-91978085D01*
X124399390Y-91974000D01*
X125000610Y-91974000D01*
X125042091Y-91978085D01*
X125042091Y-91978085D01*
G37*
G36*
X128751000Y-91801000D02*
G01*
X127849000Y-91801000D01*
X127849000Y-90799000D01*
X128751000Y-90799000D01*
X128751000Y-91801000D01*
X128751000Y-91801000D01*
G37*
G36*
X123379591Y-90115585D02*
G01*
X123413569Y-90125893D01*
X123444890Y-90142634D01*
X123472339Y-90165161D01*
X123494866Y-90192610D01*
X123511607Y-90223931D01*
X123521915Y-90257909D01*
X123526000Y-90299390D01*
X123526000Y-90900610D01*
X123521915Y-90942091D01*
X123511607Y-90976069D01*
X123494866Y-91007390D01*
X123472339Y-91034839D01*
X123444890Y-91057366D01*
X123413569Y-91074107D01*
X123379591Y-91084415D01*
X123338110Y-91088500D01*
X122661890Y-91088500D01*
X122620409Y-91084415D01*
X122586431Y-91074107D01*
X122555110Y-91057366D01*
X122527661Y-91034839D01*
X122505134Y-91007390D01*
X122488393Y-90976069D01*
X122478085Y-90942091D01*
X122474000Y-90900610D01*
X122474000Y-90299390D01*
X122478085Y-90257909D01*
X122488393Y-90223931D01*
X122505134Y-90192610D01*
X122527661Y-90165161D01*
X122555110Y-90142634D01*
X122586431Y-90125893D01*
X122620409Y-90115585D01*
X122661890Y-90111500D01*
X123338110Y-90111500D01*
X123379591Y-90115585D01*
X123379591Y-90115585D01*
G37*
G36*
X155579591Y-89990585D02*
G01*
X155613569Y-90000893D01*
X155644890Y-90017634D01*
X155672339Y-90040161D01*
X155694866Y-90067610D01*
X155711607Y-90098931D01*
X155721915Y-90132909D01*
X155726000Y-90174390D01*
X155726000Y-90775610D01*
X155721915Y-90817091D01*
X155711607Y-90851069D01*
X155694866Y-90882390D01*
X155672339Y-90909839D01*
X155644890Y-90932366D01*
X155613569Y-90949107D01*
X155579591Y-90959415D01*
X155538110Y-90963500D01*
X154861890Y-90963500D01*
X154820409Y-90959415D01*
X154786431Y-90949107D01*
X154755110Y-90932366D01*
X154727661Y-90909839D01*
X154705134Y-90882390D01*
X154688393Y-90851069D01*
X154678085Y-90817091D01*
X154674000Y-90775610D01*
X154674000Y-90174390D01*
X154678085Y-90132909D01*
X154688393Y-90098931D01*
X154705134Y-90067610D01*
X154727661Y-90040161D01*
X154755110Y-90017634D01*
X154786431Y-90000893D01*
X154820409Y-89990585D01*
X154861890Y-89986500D01*
X155538110Y-89986500D01*
X155579591Y-89990585D01*
X155579591Y-89990585D01*
G37*
G36*
X134967091Y-89478085D02*
G01*
X135001069Y-89488393D01*
X135032390Y-89505134D01*
X135059839Y-89527661D01*
X135082366Y-89555110D01*
X135099107Y-89586431D01*
X135109415Y-89620409D01*
X135113500Y-89661890D01*
X135113500Y-90338110D01*
X135109415Y-90379591D01*
X135099107Y-90413569D01*
X135082366Y-90444890D01*
X135059839Y-90472339D01*
X135032390Y-90494866D01*
X135001069Y-90511607D01*
X134967091Y-90521915D01*
X134925610Y-90526000D01*
X134324390Y-90526000D01*
X134282909Y-90521915D01*
X134248931Y-90511607D01*
X134217610Y-90494866D01*
X134190161Y-90472339D01*
X134167634Y-90444890D01*
X134150893Y-90413569D01*
X134140585Y-90379591D01*
X134136500Y-90338110D01*
X134136500Y-89661890D01*
X134140585Y-89620409D01*
X134150893Y-89586431D01*
X134167634Y-89555110D01*
X134190161Y-89527661D01*
X134217610Y-89505134D01*
X134248931Y-89488393D01*
X134282909Y-89478085D01*
X134324390Y-89474000D01*
X134925610Y-89474000D01*
X134967091Y-89478085D01*
X134967091Y-89478085D01*
G37*
G36*
X136542091Y-89478085D02*
G01*
X136576069Y-89488393D01*
X136607390Y-89505134D01*
X136634839Y-89527661D01*
X136657366Y-89555110D01*
X136674107Y-89586431D01*
X136684415Y-89620409D01*
X136688500Y-89661890D01*
X136688500Y-90338110D01*
X136684415Y-90379591D01*
X136674107Y-90413569D01*
X136657366Y-90444890D01*
X136634839Y-90472339D01*
X136607390Y-90494866D01*
X136576069Y-90511607D01*
X136542091Y-90521915D01*
X136500610Y-90526000D01*
X135899390Y-90526000D01*
X135857909Y-90521915D01*
X135823931Y-90511607D01*
X135792610Y-90494866D01*
X135765161Y-90472339D01*
X135742634Y-90444890D01*
X135725893Y-90413569D01*
X135715585Y-90379591D01*
X135711500Y-90338110D01*
X135711500Y-89661890D01*
X135715585Y-89620409D01*
X135725893Y-89586431D01*
X135742634Y-89555110D01*
X135765161Y-89527661D01*
X135792610Y-89505134D01*
X135823931Y-89488393D01*
X135857909Y-89478085D01*
X135899390Y-89474000D01*
X136500610Y-89474000D01*
X136542091Y-89478085D01*
X136542091Y-89478085D01*
G37*
G36*
X146479591Y-88990585D02*
G01*
X146513569Y-89000893D01*
X146544890Y-89017634D01*
X146572339Y-89040161D01*
X146594866Y-89067610D01*
X146611607Y-89098931D01*
X146621915Y-89132909D01*
X146626000Y-89174390D01*
X146626000Y-89775610D01*
X146621915Y-89817091D01*
X146611607Y-89851069D01*
X146594866Y-89882390D01*
X146572339Y-89909839D01*
X146544890Y-89932366D01*
X146513569Y-89949107D01*
X146479591Y-89959415D01*
X146438110Y-89963500D01*
X145761890Y-89963500D01*
X145720409Y-89959415D01*
X145686431Y-89949107D01*
X145655110Y-89932366D01*
X145627661Y-89909839D01*
X145605134Y-89882390D01*
X145588393Y-89851069D01*
X145578085Y-89817091D01*
X145574000Y-89775610D01*
X145574000Y-89174390D01*
X145578085Y-89132909D01*
X145588393Y-89098931D01*
X145605134Y-89067610D01*
X145627661Y-89040161D01*
X145655110Y-89017634D01*
X145686431Y-89000893D01*
X145720409Y-88990585D01*
X145761890Y-88986500D01*
X146438110Y-88986500D01*
X146479591Y-88990585D01*
X146479591Y-88990585D01*
G37*
G36*
X129701000Y-89801000D02*
G01*
X128799000Y-89801000D01*
X128799000Y-88799000D01*
X129701000Y-88799000D01*
X129701000Y-89801000D01*
X129701000Y-89801000D01*
G37*
G36*
X127801000Y-89801000D02*
G01*
X126899000Y-89801000D01*
X126899000Y-88799000D01*
X127801000Y-88799000D01*
X127801000Y-89801000D01*
X127801000Y-89801000D01*
G37*
G36*
X123379591Y-88540585D02*
G01*
X123413569Y-88550893D01*
X123444890Y-88567634D01*
X123472339Y-88590161D01*
X123494866Y-88617610D01*
X123511607Y-88648931D01*
X123521915Y-88682909D01*
X123526000Y-88724390D01*
X123526000Y-89325610D01*
X123521915Y-89367091D01*
X123511607Y-89401069D01*
X123494866Y-89432390D01*
X123472339Y-89459839D01*
X123444890Y-89482366D01*
X123413569Y-89499107D01*
X123379591Y-89509415D01*
X123338110Y-89513500D01*
X122661890Y-89513500D01*
X122620409Y-89509415D01*
X122586431Y-89499107D01*
X122555110Y-89482366D01*
X122527661Y-89459839D01*
X122505134Y-89432390D01*
X122488393Y-89401069D01*
X122478085Y-89367091D01*
X122474000Y-89325610D01*
X122474000Y-88724390D01*
X122478085Y-88682909D01*
X122488393Y-88648931D01*
X122505134Y-88617610D01*
X122527661Y-88590161D01*
X122555110Y-88567634D01*
X122586431Y-88550893D01*
X122620409Y-88540585D01*
X122661890Y-88536500D01*
X123338110Y-88536500D01*
X123379591Y-88540585D01*
X123379591Y-88540585D01*
G37*
G36*
X155579591Y-88415585D02*
G01*
X155613569Y-88425893D01*
X155644890Y-88442634D01*
X155672339Y-88465161D01*
X155694866Y-88492610D01*
X155711607Y-88523931D01*
X155721915Y-88557909D01*
X155726000Y-88599390D01*
X155726000Y-89200610D01*
X155721915Y-89242091D01*
X155711607Y-89276069D01*
X155694866Y-89307390D01*
X155672339Y-89334839D01*
X155644890Y-89357366D01*
X155613569Y-89374107D01*
X155579591Y-89384415D01*
X155538110Y-89388500D01*
X154861890Y-89388500D01*
X154820409Y-89384415D01*
X154786431Y-89374107D01*
X154755110Y-89357366D01*
X154727661Y-89334839D01*
X154705134Y-89307390D01*
X154688393Y-89276069D01*
X154678085Y-89242091D01*
X154674000Y-89200610D01*
X154674000Y-88599390D01*
X154678085Y-88557909D01*
X154688393Y-88523931D01*
X154705134Y-88492610D01*
X154727661Y-88465161D01*
X154755110Y-88442634D01*
X154786431Y-88425893D01*
X154820409Y-88415585D01*
X154861890Y-88411500D01*
X155538110Y-88411500D01*
X155579591Y-88415585D01*
X155579591Y-88415585D01*
G37*
G36*
X159542091Y-87578085D02*
G01*
X159576069Y-87588393D01*
X159607390Y-87605134D01*
X159634839Y-87627661D01*
X159657366Y-87655110D01*
X159674107Y-87686431D01*
X159684415Y-87720409D01*
X159688500Y-87761890D01*
X159688500Y-88438110D01*
X159684415Y-88479591D01*
X159674107Y-88513569D01*
X159657366Y-88544890D01*
X159634839Y-88572339D01*
X159607390Y-88594866D01*
X159576069Y-88611607D01*
X159542091Y-88621915D01*
X159500610Y-88626000D01*
X158899390Y-88626000D01*
X158857909Y-88621915D01*
X158823931Y-88611607D01*
X158792610Y-88594866D01*
X158765161Y-88572339D01*
X158742634Y-88544890D01*
X158725893Y-88513569D01*
X158715585Y-88479591D01*
X158711500Y-88438110D01*
X158711500Y-87761890D01*
X158715585Y-87720409D01*
X158725893Y-87686431D01*
X158742634Y-87655110D01*
X158765161Y-87627661D01*
X158792610Y-87605134D01*
X158823931Y-87588393D01*
X158857909Y-87578085D01*
X158899390Y-87574000D01*
X159500610Y-87574000D01*
X159542091Y-87578085D01*
X159542091Y-87578085D01*
G37*
G36*
X157967091Y-87578085D02*
G01*
X158001069Y-87588393D01*
X158032390Y-87605134D01*
X158059839Y-87627661D01*
X158082366Y-87655110D01*
X158099107Y-87686431D01*
X158109415Y-87720409D01*
X158113500Y-87761890D01*
X158113500Y-88438110D01*
X158109415Y-88479591D01*
X158099107Y-88513569D01*
X158082366Y-88544890D01*
X158059839Y-88572339D01*
X158032390Y-88594866D01*
X158001069Y-88611607D01*
X157967091Y-88621915D01*
X157925610Y-88626000D01*
X157324390Y-88626000D01*
X157282909Y-88621915D01*
X157248931Y-88611607D01*
X157217610Y-88594866D01*
X157190161Y-88572339D01*
X157167634Y-88544890D01*
X157150893Y-88513569D01*
X157140585Y-88479591D01*
X157136500Y-88438110D01*
X157136500Y-87761890D01*
X157140585Y-87720409D01*
X157150893Y-87686431D01*
X157167634Y-87655110D01*
X157190161Y-87627661D01*
X157217610Y-87605134D01*
X157248931Y-87588393D01*
X157282909Y-87578085D01*
X157324390Y-87574000D01*
X157925610Y-87574000D01*
X157967091Y-87578085D01*
X157967091Y-87578085D01*
G37*
G36*
X146479591Y-87415585D02*
G01*
X146513569Y-87425893D01*
X146544890Y-87442634D01*
X146572339Y-87465161D01*
X146594866Y-87492610D01*
X146611607Y-87523931D01*
X146621915Y-87557909D01*
X146626000Y-87599390D01*
X146626000Y-88200610D01*
X146621915Y-88242091D01*
X146611607Y-88276069D01*
X146594866Y-88307390D01*
X146572339Y-88334839D01*
X146544890Y-88357366D01*
X146513569Y-88374107D01*
X146479591Y-88384415D01*
X146438110Y-88388500D01*
X145761890Y-88388500D01*
X145720409Y-88384415D01*
X145686431Y-88374107D01*
X145655110Y-88357366D01*
X145627661Y-88334839D01*
X145605134Y-88307390D01*
X145588393Y-88276069D01*
X145578085Y-88242091D01*
X145574000Y-88200610D01*
X145574000Y-87599390D01*
X145578085Y-87557909D01*
X145588393Y-87523931D01*
X145605134Y-87492610D01*
X145627661Y-87465161D01*
X145655110Y-87442634D01*
X145686431Y-87425893D01*
X145720409Y-87415585D01*
X145761890Y-87411500D01*
X146438110Y-87411500D01*
X146479591Y-87415585D01*
X146479591Y-87415585D01*
G37*
G36*
X136042091Y-86578085D02*
G01*
X136076069Y-86588393D01*
X136107390Y-86605134D01*
X136134839Y-86627661D01*
X136157366Y-86655110D01*
X136174107Y-86686431D01*
X136184415Y-86720409D01*
X136188500Y-86761890D01*
X136188500Y-87438110D01*
X136184415Y-87479591D01*
X136174107Y-87513569D01*
X136157366Y-87544890D01*
X136134839Y-87572339D01*
X136107390Y-87594866D01*
X136076069Y-87611607D01*
X136042091Y-87621915D01*
X136000610Y-87626000D01*
X135399390Y-87626000D01*
X135357909Y-87621915D01*
X135323931Y-87611607D01*
X135292610Y-87594866D01*
X135265161Y-87572339D01*
X135242634Y-87544890D01*
X135225893Y-87513569D01*
X135215585Y-87479591D01*
X135211500Y-87438110D01*
X135211500Y-86761890D01*
X135215585Y-86720409D01*
X135225893Y-86686431D01*
X135242634Y-86655110D01*
X135265161Y-86627661D01*
X135292610Y-86605134D01*
X135323931Y-86588393D01*
X135357909Y-86578085D01*
X135399390Y-86574000D01*
X136000610Y-86574000D01*
X136042091Y-86578085D01*
X136042091Y-86578085D01*
G37*
G36*
X134467091Y-86578085D02*
G01*
X134501069Y-86588393D01*
X134532390Y-86605134D01*
X134559839Y-86627661D01*
X134582366Y-86655110D01*
X134599107Y-86686431D01*
X134609415Y-86720409D01*
X134613500Y-86761890D01*
X134613500Y-87438110D01*
X134609415Y-87479591D01*
X134599107Y-87513569D01*
X134582366Y-87544890D01*
X134559839Y-87572339D01*
X134532390Y-87594866D01*
X134501069Y-87611607D01*
X134467091Y-87621915D01*
X134425610Y-87626000D01*
X133824390Y-87626000D01*
X133782909Y-87621915D01*
X133748931Y-87611607D01*
X133717610Y-87594866D01*
X133690161Y-87572339D01*
X133667634Y-87544890D01*
X133650893Y-87513569D01*
X133640585Y-87479591D01*
X133636500Y-87438110D01*
X133636500Y-86761890D01*
X133640585Y-86720409D01*
X133650893Y-86686431D01*
X133667634Y-86655110D01*
X133690161Y-86627661D01*
X133717610Y-86605134D01*
X133748931Y-86588393D01*
X133782909Y-86578085D01*
X133824390Y-86574000D01*
X134425610Y-86574000D01*
X134467091Y-86578085D01*
X134467091Y-86578085D01*
G37*
G36*
X147279591Y-85890585D02*
G01*
X147313569Y-85900893D01*
X147344890Y-85917634D01*
X147372339Y-85940161D01*
X147394866Y-85967610D01*
X147411607Y-85998931D01*
X147421915Y-86032909D01*
X147426000Y-86074390D01*
X147426000Y-86675610D01*
X147421915Y-86717091D01*
X147411607Y-86751069D01*
X147394866Y-86782390D01*
X147372339Y-86809839D01*
X147344890Y-86832366D01*
X147313569Y-86849107D01*
X147279591Y-86859415D01*
X147238110Y-86863500D01*
X146561890Y-86863500D01*
X146520409Y-86859415D01*
X146486431Y-86849107D01*
X146455110Y-86832366D01*
X146427661Y-86809839D01*
X146405134Y-86782390D01*
X146388393Y-86751069D01*
X146378085Y-86717091D01*
X146374000Y-86675610D01*
X146374000Y-86074390D01*
X146378085Y-86032909D01*
X146388393Y-85998931D01*
X146405134Y-85967610D01*
X146427661Y-85940161D01*
X146455110Y-85917634D01*
X146486431Y-85900893D01*
X146520409Y-85890585D01*
X146561890Y-85886500D01*
X147238110Y-85886500D01*
X147279591Y-85890585D01*
X147279591Y-85890585D01*
G37*
G36*
X131979591Y-85303085D02*
G01*
X132013569Y-85313393D01*
X132044890Y-85330134D01*
X132072339Y-85352661D01*
X132094866Y-85380110D01*
X132111607Y-85411431D01*
X132121915Y-85445409D01*
X132126000Y-85486890D01*
X132126000Y-86088110D01*
X132121915Y-86129591D01*
X132111607Y-86163569D01*
X132094866Y-86194890D01*
X132072339Y-86222339D01*
X132044890Y-86244866D01*
X132013569Y-86261607D01*
X131979591Y-86271915D01*
X131938110Y-86276000D01*
X131261890Y-86276000D01*
X131220409Y-86271915D01*
X131186431Y-86261607D01*
X131155110Y-86244866D01*
X131127661Y-86222339D01*
X131105134Y-86194890D01*
X131088393Y-86163569D01*
X131078085Y-86129591D01*
X131074000Y-86088110D01*
X131074000Y-85486890D01*
X131078085Y-85445409D01*
X131088393Y-85411431D01*
X131105134Y-85380110D01*
X131127661Y-85352661D01*
X131155110Y-85330134D01*
X131186431Y-85313393D01*
X131220409Y-85303085D01*
X131261890Y-85299000D01*
X131938110Y-85299000D01*
X131979591Y-85303085D01*
X131979591Y-85303085D01*
G37*
G36*
X124979591Y-85290585D02*
G01*
X125013569Y-85300893D01*
X125044890Y-85317634D01*
X125072339Y-85340161D01*
X125094866Y-85367610D01*
X125111607Y-85398931D01*
X125121915Y-85432909D01*
X125126000Y-85474390D01*
X125126000Y-86075610D01*
X125121915Y-86117091D01*
X125111607Y-86151069D01*
X125094866Y-86182390D01*
X125072339Y-86209839D01*
X125044890Y-86232366D01*
X125013569Y-86249107D01*
X124979591Y-86259415D01*
X124938110Y-86263500D01*
X124261890Y-86263500D01*
X124220409Y-86259415D01*
X124186431Y-86249107D01*
X124155110Y-86232366D01*
X124127661Y-86209839D01*
X124105134Y-86182390D01*
X124088393Y-86151069D01*
X124078085Y-86117091D01*
X124074000Y-86075610D01*
X124074000Y-85474390D01*
X124078085Y-85432909D01*
X124088393Y-85398931D01*
X124105134Y-85367610D01*
X124127661Y-85340161D01*
X124155110Y-85317634D01*
X124186431Y-85300893D01*
X124220409Y-85290585D01*
X124261890Y-85286500D01*
X124938110Y-85286500D01*
X124979591Y-85290585D01*
X124979591Y-85290585D01*
G37*
G36*
X129479591Y-85290585D02*
G01*
X129513569Y-85300893D01*
X129544890Y-85317634D01*
X129572339Y-85340161D01*
X129594866Y-85367610D01*
X129611607Y-85398931D01*
X129621915Y-85432909D01*
X129626000Y-85474390D01*
X129626000Y-86075610D01*
X129621915Y-86117091D01*
X129611607Y-86151069D01*
X129594866Y-86182390D01*
X129572339Y-86209839D01*
X129544890Y-86232366D01*
X129513569Y-86249107D01*
X129479591Y-86259415D01*
X129438110Y-86263500D01*
X128761890Y-86263500D01*
X128720409Y-86259415D01*
X128686431Y-86249107D01*
X128655110Y-86232366D01*
X128627661Y-86209839D01*
X128605134Y-86182390D01*
X128588393Y-86151069D01*
X128578085Y-86117091D01*
X128574000Y-86075610D01*
X128574000Y-85474390D01*
X128578085Y-85432909D01*
X128588393Y-85398931D01*
X128605134Y-85367610D01*
X128627661Y-85340161D01*
X128655110Y-85317634D01*
X128686431Y-85300893D01*
X128720409Y-85290585D01*
X128761890Y-85286500D01*
X129438110Y-85286500D01*
X129479591Y-85290585D01*
X129479591Y-85290585D01*
G37*
G36*
X122079591Y-85290585D02*
G01*
X122113569Y-85300893D01*
X122144890Y-85317634D01*
X122172339Y-85340161D01*
X122194866Y-85367610D01*
X122211607Y-85398931D01*
X122221915Y-85432909D01*
X122226000Y-85474390D01*
X122226000Y-86075610D01*
X122221915Y-86117091D01*
X122211607Y-86151069D01*
X122194866Y-86182390D01*
X122172339Y-86209839D01*
X122144890Y-86232366D01*
X122113569Y-86249107D01*
X122079591Y-86259415D01*
X122038110Y-86263500D01*
X121361890Y-86263500D01*
X121320409Y-86259415D01*
X121286431Y-86249107D01*
X121255110Y-86232366D01*
X121227661Y-86209839D01*
X121205134Y-86182390D01*
X121188393Y-86151069D01*
X121178085Y-86117091D01*
X121174000Y-86075610D01*
X121174000Y-85474390D01*
X121178085Y-85432909D01*
X121188393Y-85398931D01*
X121205134Y-85367610D01*
X121227661Y-85340161D01*
X121255110Y-85317634D01*
X121286431Y-85300893D01*
X121320409Y-85290585D01*
X121361890Y-85286500D01*
X122038110Y-85286500D01*
X122079591Y-85290585D01*
X122079591Y-85290585D01*
G37*
G36*
X157884991Y-84681785D02*
G01*
X157918969Y-84692093D01*
X157950290Y-84708834D01*
X157977739Y-84731361D01*
X158000266Y-84758810D01*
X158017007Y-84790131D01*
X158027315Y-84824109D01*
X158031400Y-84865590D01*
X158031400Y-85466810D01*
X158027315Y-85508291D01*
X158017007Y-85542269D01*
X158000266Y-85573590D01*
X157977739Y-85601039D01*
X157950290Y-85623566D01*
X157918969Y-85640307D01*
X157884991Y-85650615D01*
X157843510Y-85654700D01*
X157167290Y-85654700D01*
X157125809Y-85650615D01*
X157091831Y-85640307D01*
X157060510Y-85623566D01*
X157033061Y-85601039D01*
X157010534Y-85573590D01*
X156993793Y-85542269D01*
X156983485Y-85508291D01*
X156979400Y-85466810D01*
X156979400Y-84865590D01*
X156983485Y-84824109D01*
X156993793Y-84790131D01*
X157010534Y-84758810D01*
X157033061Y-84731361D01*
X157060510Y-84708834D01*
X157091831Y-84692093D01*
X157125809Y-84681785D01*
X157167290Y-84677700D01*
X157843510Y-84677700D01*
X157884991Y-84681785D01*
X157884991Y-84681785D01*
G37*
G36*
X147279591Y-84315585D02*
G01*
X147313569Y-84325893D01*
X147344890Y-84342634D01*
X147372339Y-84365161D01*
X147394866Y-84392610D01*
X147411607Y-84423931D01*
X147421915Y-84457909D01*
X147426000Y-84499390D01*
X147426000Y-85100610D01*
X147421915Y-85142091D01*
X147411607Y-85176069D01*
X147394866Y-85207390D01*
X147372339Y-85234839D01*
X147344890Y-85257366D01*
X147313569Y-85274107D01*
X147279591Y-85284415D01*
X147238110Y-85288500D01*
X146561890Y-85288500D01*
X146520409Y-85284415D01*
X146486431Y-85274107D01*
X146455110Y-85257366D01*
X146427661Y-85234839D01*
X146405134Y-85207390D01*
X146388393Y-85176069D01*
X146378085Y-85142091D01*
X146374000Y-85100610D01*
X146374000Y-84499390D01*
X146378085Y-84457909D01*
X146388393Y-84423931D01*
X146405134Y-84392610D01*
X146427661Y-84365161D01*
X146455110Y-84342634D01*
X146486431Y-84325893D01*
X146520409Y-84315585D01*
X146561890Y-84311500D01*
X147238110Y-84311500D01*
X147279591Y-84315585D01*
X147279591Y-84315585D01*
G37*
G36*
X131979591Y-83728085D02*
G01*
X132013569Y-83738393D01*
X132044890Y-83755134D01*
X132072339Y-83777661D01*
X132094866Y-83805110D01*
X132111607Y-83836431D01*
X132121915Y-83870409D01*
X132126000Y-83911890D01*
X132126000Y-84513110D01*
X132121915Y-84554591D01*
X132111607Y-84588569D01*
X132094866Y-84619890D01*
X132072339Y-84647339D01*
X132044890Y-84669866D01*
X132013569Y-84686607D01*
X131979591Y-84696915D01*
X131938110Y-84701000D01*
X131261890Y-84701000D01*
X131220409Y-84696915D01*
X131186431Y-84686607D01*
X131155110Y-84669866D01*
X131127661Y-84647339D01*
X131105134Y-84619890D01*
X131088393Y-84588569D01*
X131078085Y-84554591D01*
X131074000Y-84513110D01*
X131074000Y-83911890D01*
X131078085Y-83870409D01*
X131088393Y-83836431D01*
X131105134Y-83805110D01*
X131127661Y-83777661D01*
X131155110Y-83755134D01*
X131186431Y-83738393D01*
X131220409Y-83728085D01*
X131261890Y-83724000D01*
X131938110Y-83724000D01*
X131979591Y-83728085D01*
X131979591Y-83728085D01*
G37*
G36*
X122079591Y-83715585D02*
G01*
X122113569Y-83725893D01*
X122144890Y-83742634D01*
X122172339Y-83765161D01*
X122194866Y-83792610D01*
X122211607Y-83823931D01*
X122221915Y-83857909D01*
X122226000Y-83899390D01*
X122226000Y-84500610D01*
X122221915Y-84542091D01*
X122211607Y-84576069D01*
X122194866Y-84607390D01*
X122172339Y-84634839D01*
X122144890Y-84657366D01*
X122113569Y-84674107D01*
X122079591Y-84684415D01*
X122038110Y-84688500D01*
X121361890Y-84688500D01*
X121320409Y-84684415D01*
X121286431Y-84674107D01*
X121255110Y-84657366D01*
X121227661Y-84634839D01*
X121205134Y-84607390D01*
X121188393Y-84576069D01*
X121178085Y-84542091D01*
X121174000Y-84500610D01*
X121174000Y-83899390D01*
X121178085Y-83857909D01*
X121188393Y-83823931D01*
X121205134Y-83792610D01*
X121227661Y-83765161D01*
X121255110Y-83742634D01*
X121286431Y-83725893D01*
X121320409Y-83715585D01*
X121361890Y-83711500D01*
X122038110Y-83711500D01*
X122079591Y-83715585D01*
X122079591Y-83715585D01*
G37*
G36*
X124979591Y-83715585D02*
G01*
X125013569Y-83725893D01*
X125044890Y-83742634D01*
X125072339Y-83765161D01*
X125094866Y-83792610D01*
X125111607Y-83823931D01*
X125121915Y-83857909D01*
X125126000Y-83899390D01*
X125126000Y-84500610D01*
X125121915Y-84542091D01*
X125111607Y-84576069D01*
X125094866Y-84607390D01*
X125072339Y-84634839D01*
X125044890Y-84657366D01*
X125013569Y-84674107D01*
X124979591Y-84684415D01*
X124938110Y-84688500D01*
X124261890Y-84688500D01*
X124220409Y-84684415D01*
X124186431Y-84674107D01*
X124155110Y-84657366D01*
X124127661Y-84634839D01*
X124105134Y-84607390D01*
X124088393Y-84576069D01*
X124078085Y-84542091D01*
X124074000Y-84500610D01*
X124074000Y-83899390D01*
X124078085Y-83857909D01*
X124088393Y-83823931D01*
X124105134Y-83792610D01*
X124127661Y-83765161D01*
X124155110Y-83742634D01*
X124186431Y-83725893D01*
X124220409Y-83715585D01*
X124261890Y-83711500D01*
X124938110Y-83711500D01*
X124979591Y-83715585D01*
X124979591Y-83715585D01*
G37*
G36*
X129479591Y-83715585D02*
G01*
X129513569Y-83725893D01*
X129544890Y-83742634D01*
X129572339Y-83765161D01*
X129594866Y-83792610D01*
X129611607Y-83823931D01*
X129621915Y-83857909D01*
X129626000Y-83899390D01*
X129626000Y-84500610D01*
X129621915Y-84542091D01*
X129611607Y-84576069D01*
X129594866Y-84607390D01*
X129572339Y-84634839D01*
X129544890Y-84657366D01*
X129513569Y-84674107D01*
X129479591Y-84684415D01*
X129438110Y-84688500D01*
X128761890Y-84688500D01*
X128720409Y-84684415D01*
X128686431Y-84674107D01*
X128655110Y-84657366D01*
X128627661Y-84634839D01*
X128605134Y-84607390D01*
X128588393Y-84576069D01*
X128578085Y-84542091D01*
X128574000Y-84500610D01*
X128574000Y-83899390D01*
X128578085Y-83857909D01*
X128588393Y-83823931D01*
X128605134Y-83792610D01*
X128627661Y-83765161D01*
X128655110Y-83742634D01*
X128686431Y-83725893D01*
X128720409Y-83715585D01*
X128761890Y-83711500D01*
X129438110Y-83711500D01*
X129479591Y-83715585D01*
X129479591Y-83715585D01*
G37*
G36*
X157884991Y-83106785D02*
G01*
X157918969Y-83117093D01*
X157950290Y-83133834D01*
X157977739Y-83156361D01*
X158000266Y-83183810D01*
X158017007Y-83215131D01*
X158027315Y-83249109D01*
X158031400Y-83290590D01*
X158031400Y-83891810D01*
X158027315Y-83933291D01*
X158017007Y-83967269D01*
X158000266Y-83998590D01*
X157977739Y-84026039D01*
X157950290Y-84048566D01*
X157918969Y-84065307D01*
X157884991Y-84075615D01*
X157843510Y-84079700D01*
X157167290Y-84079700D01*
X157125809Y-84075615D01*
X157091831Y-84065307D01*
X157060510Y-84048566D01*
X157033061Y-84026039D01*
X157010534Y-83998590D01*
X156993793Y-83967269D01*
X156983485Y-83933291D01*
X156979400Y-83891810D01*
X156979400Y-83290590D01*
X156983485Y-83249109D01*
X156993793Y-83215131D01*
X157010534Y-83183810D01*
X157033061Y-83156361D01*
X157060510Y-83133834D01*
X157091831Y-83117093D01*
X157125809Y-83106785D01*
X157167290Y-83102700D01*
X157843510Y-83102700D01*
X157884991Y-83106785D01*
X157884991Y-83106785D01*
G37*
G36*
X141667091Y-82978085D02*
G01*
X141701069Y-82988393D01*
X141732390Y-83005134D01*
X141759839Y-83027661D01*
X141782366Y-83055110D01*
X141799107Y-83086431D01*
X141809415Y-83120409D01*
X141813500Y-83161890D01*
X141813500Y-83838110D01*
X141809415Y-83879591D01*
X141799107Y-83913569D01*
X141782366Y-83944890D01*
X141759839Y-83972339D01*
X141732390Y-83994866D01*
X141701069Y-84011607D01*
X141667091Y-84021915D01*
X141625610Y-84026000D01*
X141024390Y-84026000D01*
X140982909Y-84021915D01*
X140948931Y-84011607D01*
X140917610Y-83994866D01*
X140890161Y-83972339D01*
X140867634Y-83944890D01*
X140850893Y-83913569D01*
X140840585Y-83879591D01*
X140836500Y-83838110D01*
X140836500Y-83161890D01*
X140840585Y-83120409D01*
X140850893Y-83086431D01*
X140867634Y-83055110D01*
X140890161Y-83027661D01*
X140917610Y-83005134D01*
X140948931Y-82988393D01*
X140982909Y-82978085D01*
X141024390Y-82974000D01*
X141625610Y-82974000D01*
X141667091Y-82978085D01*
X141667091Y-82978085D01*
G37*
G36*
X143242091Y-82978085D02*
G01*
X143276069Y-82988393D01*
X143307390Y-83005134D01*
X143334839Y-83027661D01*
X143357366Y-83055110D01*
X143374107Y-83086431D01*
X143384415Y-83120409D01*
X143388500Y-83161890D01*
X143388500Y-83838110D01*
X143384415Y-83879591D01*
X143374107Y-83913569D01*
X143357366Y-83944890D01*
X143334839Y-83972339D01*
X143307390Y-83994866D01*
X143276069Y-84011607D01*
X143242091Y-84021915D01*
X143200610Y-84026000D01*
X142599390Y-84026000D01*
X142557909Y-84021915D01*
X142523931Y-84011607D01*
X142492610Y-83994866D01*
X142465161Y-83972339D01*
X142442634Y-83944890D01*
X142425893Y-83913569D01*
X142415585Y-83879591D01*
X142411500Y-83838110D01*
X142411500Y-83161890D01*
X142415585Y-83120409D01*
X142425893Y-83086431D01*
X142442634Y-83055110D01*
X142465161Y-83027661D01*
X142492610Y-83005134D01*
X142523931Y-82988393D01*
X142557909Y-82978085D01*
X142599390Y-82974000D01*
X143200610Y-82974000D01*
X143242091Y-82978085D01*
X143242091Y-82978085D01*
G37*
G36*
X145479591Y-82815585D02*
G01*
X145513569Y-82825893D01*
X145544890Y-82842634D01*
X145572339Y-82865161D01*
X145594866Y-82892610D01*
X145611607Y-82923931D01*
X145621915Y-82957909D01*
X145626000Y-82999390D01*
X145626000Y-83600610D01*
X145621915Y-83642091D01*
X145611607Y-83676069D01*
X145594866Y-83707390D01*
X145572339Y-83734839D01*
X145544890Y-83757366D01*
X145513569Y-83774107D01*
X145479591Y-83784415D01*
X145438110Y-83788500D01*
X144761890Y-83788500D01*
X144720409Y-83784415D01*
X144686431Y-83774107D01*
X144655110Y-83757366D01*
X144627661Y-83734839D01*
X144605134Y-83707390D01*
X144588393Y-83676069D01*
X144578085Y-83642091D01*
X144574000Y-83600610D01*
X144574000Y-82999390D01*
X144578085Y-82957909D01*
X144588393Y-82923931D01*
X144605134Y-82892610D01*
X144627661Y-82865161D01*
X144655110Y-82842634D01*
X144686431Y-82825893D01*
X144720409Y-82815585D01*
X144761890Y-82811500D01*
X145438110Y-82811500D01*
X145479591Y-82815585D01*
X145479591Y-82815585D01*
G37*
G36*
X150772991Y-81608485D02*
G01*
X150806969Y-81618793D01*
X150838290Y-81635534D01*
X150865739Y-81658061D01*
X150888266Y-81685510D01*
X150905007Y-81716831D01*
X150915315Y-81750809D01*
X150919400Y-81792290D01*
X150919400Y-82393510D01*
X150915315Y-82434991D01*
X150905007Y-82468969D01*
X150888266Y-82500290D01*
X150865739Y-82527739D01*
X150838290Y-82550266D01*
X150806969Y-82567007D01*
X150772991Y-82577315D01*
X150731510Y-82581400D01*
X150055290Y-82581400D01*
X150013809Y-82577315D01*
X149979831Y-82567007D01*
X149948510Y-82550266D01*
X149921061Y-82527739D01*
X149898534Y-82500290D01*
X149881793Y-82468969D01*
X149871485Y-82434991D01*
X149867400Y-82393510D01*
X149867400Y-81792290D01*
X149871485Y-81750809D01*
X149881793Y-81716831D01*
X149898534Y-81685510D01*
X149921061Y-81658061D01*
X149948510Y-81635534D01*
X149979831Y-81618793D01*
X150013809Y-81608485D01*
X150055290Y-81604400D01*
X150731510Y-81604400D01*
X150772991Y-81608485D01*
X150772991Y-81608485D01*
G37*
G36*
X145479591Y-81240585D02*
G01*
X145513569Y-81250893D01*
X145544890Y-81267634D01*
X145572339Y-81290161D01*
X145594866Y-81317610D01*
X145611607Y-81348931D01*
X145621915Y-81382909D01*
X145626000Y-81424390D01*
X145626000Y-82025610D01*
X145621915Y-82067091D01*
X145611607Y-82101069D01*
X145594866Y-82132390D01*
X145572339Y-82159839D01*
X145544890Y-82182366D01*
X145513569Y-82199107D01*
X145479591Y-82209415D01*
X145438110Y-82213500D01*
X144761890Y-82213500D01*
X144720409Y-82209415D01*
X144686431Y-82199107D01*
X144655110Y-82182366D01*
X144627661Y-82159839D01*
X144605134Y-82132390D01*
X144588393Y-82101069D01*
X144578085Y-82067091D01*
X144574000Y-82025610D01*
X144574000Y-81424390D01*
X144578085Y-81382909D01*
X144588393Y-81348931D01*
X144605134Y-81317610D01*
X144627661Y-81290161D01*
X144655110Y-81267634D01*
X144686431Y-81250893D01*
X144720409Y-81240585D01*
X144761890Y-81236500D01*
X145438110Y-81236500D01*
X145479591Y-81240585D01*
X145479591Y-81240585D01*
G37*
G36*
X150772991Y-80033485D02*
G01*
X150806969Y-80043793D01*
X150838290Y-80060534D01*
X150865739Y-80083061D01*
X150888266Y-80110510D01*
X150905007Y-80141831D01*
X150915315Y-80175809D01*
X150919400Y-80217290D01*
X150919400Y-80818510D01*
X150915315Y-80859991D01*
X150905007Y-80893969D01*
X150888266Y-80925290D01*
X150865739Y-80952739D01*
X150838290Y-80975266D01*
X150806969Y-80992007D01*
X150772991Y-81002315D01*
X150731510Y-81006400D01*
X150055290Y-81006400D01*
X150013809Y-81002315D01*
X149979831Y-80992007D01*
X149948510Y-80975266D01*
X149921061Y-80952739D01*
X149898534Y-80925290D01*
X149881793Y-80893969D01*
X149871485Y-80859991D01*
X149867400Y-80818510D01*
X149867400Y-80217290D01*
X149871485Y-80175809D01*
X149881793Y-80141831D01*
X149898534Y-80110510D01*
X149921061Y-80083061D01*
X149948510Y-80060534D01*
X149979831Y-80043793D01*
X150013809Y-80033485D01*
X150055290Y-80029400D01*
X150731510Y-80029400D01*
X150772991Y-80033485D01*
X150772991Y-80033485D01*
G37*
G36*
X160892442Y-78683718D02*
G01*
X160958627Y-78690237D01*
X161128466Y-78741757D01*
X161284991Y-78825422D01*
X161320729Y-78854752D01*
X161422186Y-78938014D01*
X161505448Y-79039471D01*
X161534778Y-79075209D01*
X161618443Y-79231734D01*
X161669963Y-79401573D01*
X161687359Y-79578200D01*
X161669963Y-79754827D01*
X161618443Y-79924666D01*
X161534778Y-80081191D01*
X161520826Y-80098191D01*
X161422186Y-80218386D01*
X161320729Y-80301648D01*
X161284991Y-80330978D01*
X161128466Y-80414643D01*
X160958627Y-80466163D01*
X160892442Y-80472682D01*
X160826260Y-80479200D01*
X160737740Y-80479200D01*
X160671558Y-80472682D01*
X160605373Y-80466163D01*
X160435534Y-80414643D01*
X160279009Y-80330978D01*
X160243271Y-80301648D01*
X160141814Y-80218386D01*
X160043174Y-80098191D01*
X160029222Y-80081191D01*
X159945557Y-79924666D01*
X159894037Y-79754827D01*
X159876641Y-79578200D01*
X159894037Y-79401573D01*
X159945557Y-79231734D01*
X160029222Y-79075209D01*
X160058552Y-79039471D01*
X160141814Y-78938014D01*
X160243271Y-78854752D01*
X160279009Y-78825422D01*
X160435534Y-78741757D01*
X160605373Y-78690237D01*
X160671558Y-78683718D01*
X160737740Y-78677200D01*
X160826260Y-78677200D01*
X160892442Y-78683718D01*
X160892442Y-78683718D01*
G37*
G36*
X159143000Y-80479200D02*
G01*
X157341000Y-80479200D01*
X157341000Y-78677200D01*
X159143000Y-78677200D01*
X159143000Y-80479200D01*
X159143000Y-80479200D01*
G37*
G36*
X163432442Y-78683718D02*
G01*
X163498627Y-78690237D01*
X163668466Y-78741757D01*
X163824991Y-78825422D01*
X163860729Y-78854752D01*
X163962186Y-78938014D01*
X164045448Y-79039471D01*
X164074778Y-79075209D01*
X164158443Y-79231734D01*
X164209963Y-79401573D01*
X164227359Y-79578200D01*
X164209963Y-79754827D01*
X164158443Y-79924666D01*
X164074778Y-80081191D01*
X164060826Y-80098191D01*
X163962186Y-80218386D01*
X163860729Y-80301648D01*
X163824991Y-80330978D01*
X163668466Y-80414643D01*
X163498627Y-80466163D01*
X163432442Y-80472682D01*
X163366260Y-80479200D01*
X163277740Y-80479200D01*
X163211558Y-80472682D01*
X163145373Y-80466163D01*
X162975534Y-80414643D01*
X162819009Y-80330978D01*
X162783271Y-80301648D01*
X162681814Y-80218386D01*
X162583174Y-80098191D01*
X162569222Y-80081191D01*
X162485557Y-79924666D01*
X162434037Y-79754827D01*
X162416641Y-79578200D01*
X162434037Y-79401573D01*
X162485557Y-79231734D01*
X162569222Y-79075209D01*
X162598552Y-79039471D01*
X162681814Y-78938014D01*
X162783271Y-78854752D01*
X162819009Y-78825422D01*
X162975534Y-78741757D01*
X163145373Y-78690237D01*
X163211558Y-78683718D01*
X163277740Y-78677200D01*
X163366260Y-78677200D01*
X163432442Y-78683718D01*
X163432442Y-78683718D01*
G37*
G36*
X140679591Y-79290585D02*
G01*
X140713569Y-79300893D01*
X140744890Y-79317634D01*
X140772339Y-79340161D01*
X140794866Y-79367610D01*
X140811607Y-79398931D01*
X140821915Y-79432909D01*
X140826000Y-79474390D01*
X140826000Y-80075610D01*
X140821915Y-80117091D01*
X140811607Y-80151069D01*
X140794866Y-80182390D01*
X140772339Y-80209839D01*
X140744890Y-80232366D01*
X140713569Y-80249107D01*
X140679591Y-80259415D01*
X140638110Y-80263500D01*
X139961890Y-80263500D01*
X139920409Y-80259415D01*
X139886431Y-80249107D01*
X139855110Y-80232366D01*
X139827661Y-80209839D01*
X139805134Y-80182390D01*
X139788393Y-80151069D01*
X139778085Y-80117091D01*
X139774000Y-80075610D01*
X139774000Y-79474390D01*
X139778085Y-79432909D01*
X139788393Y-79398931D01*
X139805134Y-79367610D01*
X139827661Y-79340161D01*
X139855110Y-79317634D01*
X139886431Y-79300893D01*
X139920409Y-79290585D01*
X139961890Y-79286500D01*
X140638110Y-79286500D01*
X140679591Y-79290585D01*
X140679591Y-79290585D01*
G37*
G36*
X143635591Y-79271685D02*
G01*
X143669569Y-79281993D01*
X143700890Y-79298734D01*
X143728339Y-79321261D01*
X143750866Y-79348710D01*
X143767607Y-79380031D01*
X143777915Y-79414009D01*
X143782000Y-79455490D01*
X143782000Y-80056710D01*
X143777915Y-80098191D01*
X143767607Y-80132169D01*
X143750866Y-80163490D01*
X143728339Y-80190939D01*
X143700890Y-80213466D01*
X143669569Y-80230207D01*
X143635591Y-80240515D01*
X143594110Y-80244600D01*
X142917890Y-80244600D01*
X142876409Y-80240515D01*
X142842431Y-80230207D01*
X142811110Y-80213466D01*
X142783661Y-80190939D01*
X142761134Y-80163490D01*
X142744393Y-80132169D01*
X142734085Y-80098191D01*
X142730000Y-80056710D01*
X142730000Y-79455490D01*
X142734085Y-79414009D01*
X142744393Y-79380031D01*
X142761134Y-79348710D01*
X142783661Y-79321261D01*
X142811110Y-79298734D01*
X142842431Y-79281993D01*
X142876409Y-79271685D01*
X142917890Y-79267600D01*
X143594110Y-79267600D01*
X143635591Y-79271685D01*
X143635591Y-79271685D01*
G37*
G36*
X145667591Y-79246385D02*
G01*
X145701569Y-79256693D01*
X145732890Y-79273434D01*
X145760339Y-79295961D01*
X145782866Y-79323410D01*
X145799607Y-79354731D01*
X145809915Y-79388709D01*
X145814000Y-79430190D01*
X145814000Y-80031410D01*
X145809915Y-80072891D01*
X145799607Y-80106869D01*
X145782866Y-80138190D01*
X145760339Y-80165639D01*
X145732890Y-80188166D01*
X145701569Y-80204907D01*
X145667591Y-80215215D01*
X145626110Y-80219300D01*
X144949890Y-80219300D01*
X144908409Y-80215215D01*
X144874431Y-80204907D01*
X144843110Y-80188166D01*
X144815661Y-80165639D01*
X144793134Y-80138190D01*
X144776393Y-80106869D01*
X144766085Y-80072891D01*
X144762000Y-80031410D01*
X144762000Y-79430190D01*
X144766085Y-79388709D01*
X144776393Y-79354731D01*
X144793134Y-79323410D01*
X144815661Y-79295961D01*
X144843110Y-79273434D01*
X144874431Y-79256693D01*
X144908409Y-79246385D01*
X144949890Y-79242300D01*
X145626110Y-79242300D01*
X145667591Y-79246385D01*
X145667591Y-79246385D01*
G37*
G36*
X123547400Y-79821800D02*
G01*
X121745400Y-79821800D01*
X121745400Y-78019800D01*
X123547400Y-78019800D01*
X123547400Y-79821800D01*
X123547400Y-79821800D01*
G37*
G36*
X127836842Y-78026318D02*
G01*
X127903027Y-78032837D01*
X128072866Y-78084357D01*
X128229391Y-78168022D01*
X128265129Y-78197352D01*
X128366586Y-78280614D01*
X128449848Y-78382071D01*
X128479178Y-78417809D01*
X128562843Y-78574334D01*
X128614363Y-78744173D01*
X128631759Y-78920800D01*
X128614363Y-79097427D01*
X128562843Y-79267266D01*
X128562842Y-79267268D01*
X128560481Y-79271685D01*
X128479178Y-79423791D01*
X128466779Y-79438899D01*
X128366586Y-79560986D01*
X128265129Y-79644248D01*
X128229391Y-79673578D01*
X128072866Y-79757243D01*
X127903027Y-79808763D01*
X127836842Y-79815282D01*
X127770660Y-79821800D01*
X127682140Y-79821800D01*
X127615958Y-79815282D01*
X127549773Y-79808763D01*
X127379934Y-79757243D01*
X127223409Y-79673578D01*
X127187671Y-79644248D01*
X127086214Y-79560986D01*
X126986021Y-79438899D01*
X126973622Y-79423791D01*
X126892319Y-79271685D01*
X126889958Y-79267268D01*
X126889957Y-79267266D01*
X126838437Y-79097427D01*
X126821041Y-78920800D01*
X126838437Y-78744173D01*
X126889957Y-78574334D01*
X126973622Y-78417809D01*
X127002952Y-78382071D01*
X127086214Y-78280614D01*
X127187671Y-78197352D01*
X127223409Y-78168022D01*
X127379934Y-78084357D01*
X127549773Y-78032837D01*
X127615958Y-78026318D01*
X127682140Y-78019800D01*
X127770660Y-78019800D01*
X127836842Y-78026318D01*
X127836842Y-78026318D01*
G37*
G36*
X125296842Y-78026318D02*
G01*
X125363027Y-78032837D01*
X125532866Y-78084357D01*
X125689391Y-78168022D01*
X125725129Y-78197352D01*
X125826586Y-78280614D01*
X125909848Y-78382071D01*
X125939178Y-78417809D01*
X126022843Y-78574334D01*
X126074363Y-78744173D01*
X126091759Y-78920800D01*
X126074363Y-79097427D01*
X126022843Y-79267266D01*
X126022842Y-79267268D01*
X126020481Y-79271685D01*
X125939178Y-79423791D01*
X125926779Y-79438899D01*
X125826586Y-79560986D01*
X125725129Y-79644248D01*
X125689391Y-79673578D01*
X125532866Y-79757243D01*
X125363027Y-79808763D01*
X125296842Y-79815282D01*
X125230660Y-79821800D01*
X125142140Y-79821800D01*
X125075958Y-79815282D01*
X125009773Y-79808763D01*
X124839934Y-79757243D01*
X124683409Y-79673578D01*
X124647671Y-79644248D01*
X124546214Y-79560986D01*
X124446021Y-79438899D01*
X124433622Y-79423791D01*
X124352319Y-79271685D01*
X124349958Y-79267268D01*
X124349957Y-79267266D01*
X124298437Y-79097427D01*
X124281041Y-78920800D01*
X124298437Y-78744173D01*
X124349957Y-78574334D01*
X124433622Y-78417809D01*
X124462952Y-78382071D01*
X124546214Y-78280614D01*
X124647671Y-78197352D01*
X124683409Y-78168022D01*
X124839934Y-78084357D01*
X125009773Y-78032837D01*
X125075958Y-78026318D01*
X125142140Y-78019800D01*
X125230660Y-78019800D01*
X125296842Y-78026318D01*
X125296842Y-78026318D01*
G37*
G36*
X140679591Y-77715585D02*
G01*
X140713569Y-77725893D01*
X140744890Y-77742634D01*
X140772339Y-77765161D01*
X140794866Y-77792610D01*
X140811607Y-77823931D01*
X140821915Y-77857909D01*
X140826000Y-77899390D01*
X140826000Y-78500610D01*
X140821915Y-78542091D01*
X140811607Y-78576069D01*
X140794866Y-78607390D01*
X140772339Y-78634839D01*
X140744890Y-78657366D01*
X140713569Y-78674107D01*
X140679591Y-78684415D01*
X140638110Y-78688500D01*
X139961890Y-78688500D01*
X139920409Y-78684415D01*
X139886431Y-78674107D01*
X139855110Y-78657366D01*
X139827661Y-78634839D01*
X139805134Y-78607390D01*
X139788393Y-78576069D01*
X139778085Y-78542091D01*
X139774000Y-78500610D01*
X139774000Y-77899390D01*
X139778085Y-77857909D01*
X139788393Y-77823931D01*
X139805134Y-77792610D01*
X139827661Y-77765161D01*
X139855110Y-77742634D01*
X139886431Y-77725893D01*
X139920409Y-77715585D01*
X139961890Y-77711500D01*
X140638110Y-77711500D01*
X140679591Y-77715585D01*
X140679591Y-77715585D01*
G37*
G36*
X143635591Y-77696685D02*
G01*
X143669569Y-77706993D01*
X143700890Y-77723734D01*
X143728339Y-77746261D01*
X143750866Y-77773710D01*
X143767607Y-77805031D01*
X143777915Y-77839009D01*
X143782000Y-77880490D01*
X143782000Y-78481710D01*
X143777915Y-78523191D01*
X143767607Y-78557169D01*
X143750866Y-78588490D01*
X143728339Y-78615939D01*
X143700890Y-78638466D01*
X143669569Y-78655207D01*
X143635591Y-78665515D01*
X143594110Y-78669600D01*
X142917890Y-78669600D01*
X142876409Y-78665515D01*
X142842431Y-78655207D01*
X142811110Y-78638466D01*
X142783661Y-78615939D01*
X142761134Y-78588490D01*
X142744393Y-78557169D01*
X142734085Y-78523191D01*
X142730000Y-78481710D01*
X142730000Y-77880490D01*
X142734085Y-77839009D01*
X142744393Y-77805031D01*
X142761134Y-77773710D01*
X142783661Y-77746261D01*
X142811110Y-77723734D01*
X142842431Y-77706993D01*
X142876409Y-77696685D01*
X142917890Y-77692600D01*
X143594110Y-77692600D01*
X143635591Y-77696685D01*
X143635591Y-77696685D01*
G37*
G36*
X145667591Y-77671385D02*
G01*
X145701569Y-77681693D01*
X145732890Y-77698434D01*
X145760339Y-77720961D01*
X145782866Y-77748410D01*
X145799607Y-77779731D01*
X145809915Y-77813709D01*
X145814000Y-77855190D01*
X145814000Y-78456410D01*
X145809915Y-78497891D01*
X145799607Y-78531869D01*
X145782866Y-78563190D01*
X145760339Y-78590639D01*
X145732890Y-78613166D01*
X145701569Y-78629907D01*
X145667591Y-78640215D01*
X145626110Y-78644300D01*
X144949890Y-78644300D01*
X144908409Y-78640215D01*
X144874431Y-78629907D01*
X144843110Y-78613166D01*
X144815661Y-78590639D01*
X144793134Y-78563190D01*
X144776393Y-78531869D01*
X144766085Y-78497891D01*
X144762000Y-78456410D01*
X144762000Y-77855190D01*
X144766085Y-77813709D01*
X144776393Y-77779731D01*
X144793134Y-77748410D01*
X144815661Y-77720961D01*
X144843110Y-77698434D01*
X144874431Y-77681693D01*
X144908409Y-77671385D01*
X144949890Y-77667300D01*
X145626110Y-77667300D01*
X145667591Y-77671385D01*
X145667591Y-77671385D01*
G37*
G36*
X153859891Y-75551085D02*
G01*
X153893869Y-75561393D01*
X153925190Y-75578134D01*
X153952639Y-75600661D01*
X153975166Y-75628110D01*
X153991907Y-75659431D01*
X154002215Y-75693409D01*
X154006300Y-75734890D01*
X154006300Y-76411110D01*
X154002215Y-76452591D01*
X153991907Y-76486569D01*
X153975166Y-76517890D01*
X153952639Y-76545339D01*
X153925190Y-76567866D01*
X153893869Y-76584607D01*
X153859891Y-76594915D01*
X153818410Y-76599000D01*
X153217190Y-76599000D01*
X153175709Y-76594915D01*
X153141731Y-76584607D01*
X153110410Y-76567866D01*
X153082961Y-76545339D01*
X153060434Y-76517890D01*
X153043693Y-76486569D01*
X153033385Y-76452591D01*
X153029300Y-76411110D01*
X153029300Y-75734890D01*
X153033385Y-75693409D01*
X153043693Y-75659431D01*
X153060434Y-75628110D01*
X153082961Y-75600661D01*
X153110410Y-75578134D01*
X153141731Y-75561393D01*
X153175709Y-75551085D01*
X153217190Y-75547000D01*
X153818410Y-75547000D01*
X153859891Y-75551085D01*
X153859891Y-75551085D01*
G37*
G36*
X152284891Y-75551085D02*
G01*
X152318869Y-75561393D01*
X152350190Y-75578134D01*
X152377639Y-75600661D01*
X152400166Y-75628110D01*
X152416907Y-75659431D01*
X152427215Y-75693409D01*
X152431300Y-75734890D01*
X152431300Y-76411110D01*
X152427215Y-76452591D01*
X152416907Y-76486569D01*
X152400166Y-76517890D01*
X152377639Y-76545339D01*
X152350190Y-76567866D01*
X152318869Y-76584607D01*
X152284891Y-76594915D01*
X152243410Y-76599000D01*
X151642190Y-76599000D01*
X151600709Y-76594915D01*
X151566731Y-76584607D01*
X151535410Y-76567866D01*
X151507961Y-76545339D01*
X151485434Y-76517890D01*
X151468693Y-76486569D01*
X151458385Y-76452591D01*
X151454300Y-76411110D01*
X151454300Y-75734890D01*
X151458385Y-75693409D01*
X151468693Y-75659431D01*
X151485434Y-75628110D01*
X151507961Y-75600661D01*
X151535410Y-75578134D01*
X151566731Y-75561393D01*
X151600709Y-75551085D01*
X151642190Y-75547000D01*
X152243410Y-75547000D01*
X152284891Y-75551085D01*
X152284891Y-75551085D01*
G37*
G36*
X149091000Y-76117600D02*
G01*
X148089000Y-76117600D01*
X148089000Y-75215600D01*
X149091000Y-75215600D01*
X149091000Y-76117600D01*
X149091000Y-76117600D01*
G37*
G36*
X147091000Y-75167600D02*
G01*
X146089000Y-75167600D01*
X146089000Y-74265600D01*
X147091000Y-74265600D01*
X147091000Y-75167600D01*
X147091000Y-75167600D01*
G37*
G36*
X149091000Y-74217600D02*
G01*
X148089000Y-74217600D01*
X148089000Y-73315600D01*
X149091000Y-73315600D01*
X149091000Y-74217600D01*
X149091000Y-74217600D01*
G37*
G36*
X153834491Y-73112685D02*
G01*
X153868469Y-73122993D01*
X153899790Y-73139734D01*
X153927239Y-73162261D01*
X153949766Y-73189710D01*
X153966507Y-73221031D01*
X153976815Y-73255009D01*
X153980900Y-73296490D01*
X153980900Y-73972710D01*
X153976815Y-74014191D01*
X153966507Y-74048169D01*
X153949766Y-74079490D01*
X153927239Y-74106939D01*
X153899790Y-74129466D01*
X153868469Y-74146207D01*
X153834491Y-74156515D01*
X153793010Y-74160600D01*
X153191790Y-74160600D01*
X153150309Y-74156515D01*
X153116331Y-74146207D01*
X153085010Y-74129466D01*
X153057561Y-74106939D01*
X153035034Y-74079490D01*
X153018293Y-74048169D01*
X153007985Y-74014191D01*
X153003900Y-73972710D01*
X153003900Y-73296490D01*
X153007985Y-73255009D01*
X153018293Y-73221031D01*
X153035034Y-73189710D01*
X153057561Y-73162261D01*
X153085010Y-73139734D01*
X153116331Y-73122993D01*
X153150309Y-73112685D01*
X153191790Y-73108600D01*
X153793010Y-73108600D01*
X153834491Y-73112685D01*
X153834491Y-73112685D01*
G37*
G36*
X152259491Y-73112685D02*
G01*
X152293469Y-73122993D01*
X152324790Y-73139734D01*
X152352239Y-73162261D01*
X152374766Y-73189710D01*
X152391507Y-73221031D01*
X152401815Y-73255009D01*
X152405900Y-73296490D01*
X152405900Y-73972710D01*
X152401815Y-74014191D01*
X152391507Y-74048169D01*
X152374766Y-74079490D01*
X152352239Y-74106939D01*
X152324790Y-74129466D01*
X152293469Y-74146207D01*
X152259491Y-74156515D01*
X152218010Y-74160600D01*
X151616790Y-74160600D01*
X151575309Y-74156515D01*
X151541331Y-74146207D01*
X151510010Y-74129466D01*
X151482561Y-74106939D01*
X151460034Y-74079490D01*
X151443293Y-74048169D01*
X151432985Y-74014191D01*
X151428900Y-73972710D01*
X151428900Y-73296490D01*
X151432985Y-73255009D01*
X151443293Y-73221031D01*
X151460034Y-73189710D01*
X151482561Y-73162261D01*
X151510010Y-73139734D01*
X151541331Y-73122993D01*
X151575309Y-73112685D01*
X151616790Y-73108600D01*
X152218010Y-73108600D01*
X152259491Y-73112685D01*
X152259491Y-73112685D01*
G37*
M02*
