M48
; DRILL file {KiCad (5.1.4)-1} date 2/10/2020 2:57:19 PM
; FORMAT={-:-/ absolute / inch / decimal}
; #@! TF.CreationDate,2020-02-10T14:57:19-06:00
; #@! TF.GenerationSoftware,Kicad,Pcbnew,(5.1.4)-1
; #@! TF.FileFunction,Plated,1,2,PTH
FMAT,2
INCH
T1C0.0039
T2C0.0394
%
G90
G05
T1
X4.9488Y-4.0492
X5.011Y-3.952
X5.028Y-4.428
X5.028Y-5.216
X5.0839Y-4.0571
X5.096Y-4.01
X5.166Y-4.118
X5.166Y-4.362
X5.1781Y-4.5699
X5.184Y-4.366
X5.202Y-3.828
X5.204Y-5.184
X5.206Y-4.2759
X5.213Y-3.9882
X5.214Y-3.934
X5.218Y-4.308
X5.28Y-4.316
X5.298Y-4.28
X5.302Y-4.368
X5.306Y-4.316
X5.3061Y-4.1181
X5.3126Y-3.8303
X5.318Y-4.516
X5.32Y-4.3021
X5.3307Y-4.0169
X5.368Y-4.682
X5.376Y-4.3
X5.378Y-4.282
X5.38Y-3.82
X5.386Y-4.076
X5.3917Y-4.2409
X5.396Y-4.812
X5.418Y-4.052
X5.4213Y-4.2352
X5.456Y-3.78
X5.4665Y-4.5502
X5.4736Y-4.2287
X5.474Y-4.3772
X5.494Y-4.226
X5.496Y-4.134
X5.504Y-4.364
X5.506Y-3.918
X5.526Y-4.822
X5.534Y-3.976
X5.534Y-4.146
X5.566Y-4.392
X5.6Y-3.924
X5.616Y-4.364
X5.62Y-4.148
X5.626Y-4.294
X5.63Y-4.036
X5.646Y-4.134
X5.678Y-3.978
X5.68Y-4.032
X5.684Y-4.052
X5.688Y-4.8799
X5.734Y-4.388
X5.742Y-4.15
X5.764Y-4.228
X5.772Y-3.982
X5.782Y-4.556
X5.796Y-4.326
X5.816Y-4.406
X5.832Y-4.39
X5.8356Y-4.2303
X5.838Y-3.974
X5.84Y-4.344
X5.882Y-4.502
X5.9098Y-4.3961
X5.934Y-4.312
T2
X4.96Y-3.89
X5.06Y-3.89
X5.16Y-3.89
X5.704Y-3.89
X5.804Y-3.89
X5.904Y-3.89
X5.278Y-4.76
X5.278Y-4.86
X5.378Y-4.76
X5.378Y-4.86
X5.478Y-4.76
X5.478Y-4.86
X5.578Y-4.76
X5.578Y-4.86
T0
M30
