G04 #@! TF.GenerationSoftware,KiCad,Pcbnew,(5.1.4)-1*
G04 #@! TF.CreationDate,2020-02-10T13:41:17-06:00*
G04 #@! TF.ProjectId,aducm_board,61647563-6d5f-4626-9f61-72642e6b6963,rev?*
G04 #@! TF.SameCoordinates,Original*
G04 #@! TF.FileFunction,Soldermask,Top*
G04 #@! TF.FilePolarity,Negative*
%FSLAX46Y46*%
G04 Gerber Fmt 4.6, Leading zero omitted, Abs format (unit mm)*
G04 Created by KiCad (PCBNEW (5.1.4)-1) date 2020-02-10 13:41:17*
%MOMM*%
%LPD*%
G04 APERTURE LIST*
%ADD10C,0.100000*%
G04 APERTURE END LIST*
D10*
G36*
X131271800Y-133375800D02*
G01*
X129869800Y-133375800D01*
X129869800Y-131723800D01*
X131271800Y-131723800D01*
X131271800Y-133375800D01*
X131271800Y-133375800D01*
G37*
G36*
X126771800Y-133375800D02*
G01*
X125369800Y-133375800D01*
X125369800Y-131723800D01*
X126771800Y-131723800D01*
X126771800Y-133375800D01*
X126771800Y-133375800D01*
G37*
G36*
X126771800Y-125425800D02*
G01*
X125369800Y-125425800D01*
X125369800Y-123773800D01*
X126771800Y-123773800D01*
X126771800Y-125425800D01*
X126771800Y-125425800D01*
G37*
G36*
X131271800Y-125425800D02*
G01*
X129869800Y-125425800D01*
X129869800Y-123773800D01*
X131271800Y-123773800D01*
X131271800Y-125425800D01*
X131271800Y-125425800D01*
G37*
G36*
X141791643Y-122549519D02*
G01*
X141857827Y-122556037D01*
X142027666Y-122607557D01*
X142184191Y-122691222D01*
X142219929Y-122720552D01*
X142321386Y-122803814D01*
X142380339Y-122875650D01*
X142433978Y-122941009D01*
X142517643Y-123097534D01*
X142569163Y-123267373D01*
X142586559Y-123444000D01*
X142569163Y-123620627D01*
X142517643Y-123790466D01*
X142433978Y-123946991D01*
X142404648Y-123982729D01*
X142321386Y-124084186D01*
X142219929Y-124167448D01*
X142184191Y-124196778D01*
X142027666Y-124280443D01*
X141857827Y-124331963D01*
X141791642Y-124338482D01*
X141725460Y-124345000D01*
X141636940Y-124345000D01*
X141570758Y-124338482D01*
X141504573Y-124331963D01*
X141334734Y-124280443D01*
X141178209Y-124196778D01*
X141142471Y-124167448D01*
X141041014Y-124084186D01*
X140957752Y-123982729D01*
X140928422Y-123946991D01*
X140844757Y-123790466D01*
X140793237Y-123620627D01*
X140775841Y-123444000D01*
X140793237Y-123267373D01*
X140844757Y-123097534D01*
X140928422Y-122941009D01*
X140982061Y-122875650D01*
X141041014Y-122803814D01*
X141142471Y-122720552D01*
X141178209Y-122691222D01*
X141334734Y-122607557D01*
X141504573Y-122556037D01*
X141570757Y-122549519D01*
X141636940Y-122543000D01*
X141725460Y-122543000D01*
X141791643Y-122549519D01*
X141791643Y-122549519D01*
G37*
G36*
X139251643Y-122549519D02*
G01*
X139317827Y-122556037D01*
X139487666Y-122607557D01*
X139644191Y-122691222D01*
X139679929Y-122720552D01*
X139781386Y-122803814D01*
X139840339Y-122875650D01*
X139893978Y-122941009D01*
X139977643Y-123097534D01*
X140029163Y-123267373D01*
X140046559Y-123444000D01*
X140029163Y-123620627D01*
X139977643Y-123790466D01*
X139893978Y-123946991D01*
X139864648Y-123982729D01*
X139781386Y-124084186D01*
X139679929Y-124167448D01*
X139644191Y-124196778D01*
X139487666Y-124280443D01*
X139317827Y-124331963D01*
X139251642Y-124338482D01*
X139185460Y-124345000D01*
X139096940Y-124345000D01*
X139030758Y-124338482D01*
X138964573Y-124331963D01*
X138794734Y-124280443D01*
X138638209Y-124196778D01*
X138602471Y-124167448D01*
X138501014Y-124084186D01*
X138417752Y-123982729D01*
X138388422Y-123946991D01*
X138304757Y-123790466D01*
X138253237Y-123620627D01*
X138235841Y-123444000D01*
X138253237Y-123267373D01*
X138304757Y-123097534D01*
X138388422Y-122941009D01*
X138442061Y-122875650D01*
X138501014Y-122803814D01*
X138602471Y-122720552D01*
X138638209Y-122691222D01*
X138794734Y-122607557D01*
X138964573Y-122556037D01*
X139030757Y-122549519D01*
X139096940Y-122543000D01*
X139185460Y-122543000D01*
X139251643Y-122549519D01*
X139251643Y-122549519D01*
G37*
G36*
X136711643Y-122549519D02*
G01*
X136777827Y-122556037D01*
X136947666Y-122607557D01*
X137104191Y-122691222D01*
X137139929Y-122720552D01*
X137241386Y-122803814D01*
X137300339Y-122875650D01*
X137353978Y-122941009D01*
X137437643Y-123097534D01*
X137489163Y-123267373D01*
X137506559Y-123444000D01*
X137489163Y-123620627D01*
X137437643Y-123790466D01*
X137353978Y-123946991D01*
X137324648Y-123982729D01*
X137241386Y-124084186D01*
X137139929Y-124167448D01*
X137104191Y-124196778D01*
X136947666Y-124280443D01*
X136777827Y-124331963D01*
X136711642Y-124338482D01*
X136645460Y-124345000D01*
X136556940Y-124345000D01*
X136490758Y-124338482D01*
X136424573Y-124331963D01*
X136254734Y-124280443D01*
X136098209Y-124196778D01*
X136062471Y-124167448D01*
X135961014Y-124084186D01*
X135877752Y-123982729D01*
X135848422Y-123946991D01*
X135764757Y-123790466D01*
X135713237Y-123620627D01*
X135695841Y-123444000D01*
X135713237Y-123267373D01*
X135764757Y-123097534D01*
X135848422Y-122941009D01*
X135902061Y-122875650D01*
X135961014Y-122803814D01*
X136062471Y-122720552D01*
X136098209Y-122691222D01*
X136254734Y-122607557D01*
X136424573Y-122556037D01*
X136490757Y-122549519D01*
X136556940Y-122543000D01*
X136645460Y-122543000D01*
X136711643Y-122549519D01*
X136711643Y-122549519D01*
G37*
G36*
X134171643Y-122549519D02*
G01*
X134237827Y-122556037D01*
X134407666Y-122607557D01*
X134564191Y-122691222D01*
X134599929Y-122720552D01*
X134701386Y-122803814D01*
X134760339Y-122875650D01*
X134813978Y-122941009D01*
X134897643Y-123097534D01*
X134949163Y-123267373D01*
X134966559Y-123444000D01*
X134949163Y-123620627D01*
X134897643Y-123790466D01*
X134813978Y-123946991D01*
X134784648Y-123982729D01*
X134701386Y-124084186D01*
X134599929Y-124167448D01*
X134564191Y-124196778D01*
X134407666Y-124280443D01*
X134237827Y-124331963D01*
X134171642Y-124338482D01*
X134105460Y-124345000D01*
X134016940Y-124345000D01*
X133950758Y-124338482D01*
X133884573Y-124331963D01*
X133714734Y-124280443D01*
X133558209Y-124196778D01*
X133522471Y-124167448D01*
X133421014Y-124084186D01*
X133337752Y-123982729D01*
X133308422Y-123946991D01*
X133224757Y-123790466D01*
X133173237Y-123620627D01*
X133155841Y-123444000D01*
X133173237Y-123267373D01*
X133224757Y-123097534D01*
X133308422Y-122941009D01*
X133362061Y-122875650D01*
X133421014Y-122803814D01*
X133522471Y-122720552D01*
X133558209Y-122691222D01*
X133714734Y-122607557D01*
X133884573Y-122556037D01*
X133950757Y-122549519D01*
X134016940Y-122543000D01*
X134105460Y-122543000D01*
X134171643Y-122549519D01*
X134171643Y-122549519D01*
G37*
G36*
X131799191Y-122146985D02*
G01*
X131833169Y-122157293D01*
X131864490Y-122174034D01*
X131891939Y-122196561D01*
X131914466Y-122224010D01*
X131931207Y-122255331D01*
X131941515Y-122289309D01*
X131945600Y-122330790D01*
X131945600Y-122932010D01*
X131941515Y-122973491D01*
X131931207Y-123007469D01*
X131914466Y-123038790D01*
X131891939Y-123066239D01*
X131864490Y-123088766D01*
X131833169Y-123105507D01*
X131799191Y-123115815D01*
X131757710Y-123119900D01*
X131081490Y-123119900D01*
X131040009Y-123115815D01*
X131006031Y-123105507D01*
X130974710Y-123088766D01*
X130947261Y-123066239D01*
X130924734Y-123038790D01*
X130907993Y-123007469D01*
X130897685Y-122973491D01*
X130893600Y-122932010D01*
X130893600Y-122330790D01*
X130897685Y-122289309D01*
X130907993Y-122255331D01*
X130924734Y-122224010D01*
X130947261Y-122196561D01*
X130974710Y-122174034D01*
X131006031Y-122157293D01*
X131040009Y-122146985D01*
X131081490Y-122142900D01*
X131757710Y-122142900D01*
X131799191Y-122146985D01*
X131799191Y-122146985D01*
G37*
G36*
X128700391Y-122146985D02*
G01*
X128734369Y-122157293D01*
X128765690Y-122174034D01*
X128793139Y-122196561D01*
X128815666Y-122224010D01*
X128832407Y-122255331D01*
X128842715Y-122289309D01*
X128846800Y-122330790D01*
X128846800Y-122932010D01*
X128842715Y-122973491D01*
X128832407Y-123007469D01*
X128815666Y-123038790D01*
X128793139Y-123066239D01*
X128765690Y-123088766D01*
X128734369Y-123105507D01*
X128700391Y-123115815D01*
X128658910Y-123119900D01*
X127982690Y-123119900D01*
X127941209Y-123115815D01*
X127907231Y-123105507D01*
X127875910Y-123088766D01*
X127848461Y-123066239D01*
X127825934Y-123038790D01*
X127809193Y-123007469D01*
X127798885Y-122973491D01*
X127794800Y-122932010D01*
X127794800Y-122330790D01*
X127798885Y-122289309D01*
X127809193Y-122255331D01*
X127825934Y-122224010D01*
X127848461Y-122196561D01*
X127875910Y-122174034D01*
X127907231Y-122157293D01*
X127941209Y-122146985D01*
X127982690Y-122142900D01*
X128658910Y-122142900D01*
X128700391Y-122146985D01*
X128700391Y-122146985D01*
G37*
G36*
X125855591Y-122045385D02*
G01*
X125889569Y-122055693D01*
X125920890Y-122072434D01*
X125948339Y-122094961D01*
X125970866Y-122122410D01*
X125987607Y-122153731D01*
X125997915Y-122187709D01*
X126002000Y-122229190D01*
X126002000Y-122830410D01*
X125997915Y-122871891D01*
X125987607Y-122905869D01*
X125970866Y-122937190D01*
X125948339Y-122964639D01*
X125920890Y-122987166D01*
X125889569Y-123003907D01*
X125855591Y-123014215D01*
X125814110Y-123018300D01*
X125137890Y-123018300D01*
X125096409Y-123014215D01*
X125062431Y-123003907D01*
X125031110Y-122987166D01*
X125003661Y-122964639D01*
X124981134Y-122937190D01*
X124964393Y-122905869D01*
X124954085Y-122871891D01*
X124950000Y-122830410D01*
X124950000Y-122229190D01*
X124954085Y-122187709D01*
X124964393Y-122153731D01*
X124981134Y-122122410D01*
X125003661Y-122094961D01*
X125031110Y-122072434D01*
X125062431Y-122055693D01*
X125096409Y-122045385D01*
X125137890Y-122041300D01*
X125814110Y-122041300D01*
X125855591Y-122045385D01*
X125855591Y-122045385D01*
G37*
G36*
X139251643Y-120009519D02*
G01*
X139317827Y-120016037D01*
X139487666Y-120067557D01*
X139644191Y-120151222D01*
X139679929Y-120180552D01*
X139781386Y-120263814D01*
X139864648Y-120365271D01*
X139893978Y-120401009D01*
X139977643Y-120557534D01*
X140029163Y-120727373D01*
X140046559Y-120904000D01*
X140029163Y-121080627D01*
X139978785Y-121246701D01*
X139977642Y-121250468D01*
X139952828Y-121296891D01*
X139893978Y-121406991D01*
X139869885Y-121436348D01*
X139781386Y-121544186D01*
X139679929Y-121627448D01*
X139644191Y-121656778D01*
X139487666Y-121740443D01*
X139317827Y-121791963D01*
X139251642Y-121798482D01*
X139185460Y-121805000D01*
X139096940Y-121805000D01*
X139030758Y-121798482D01*
X138964573Y-121791963D01*
X138794734Y-121740443D01*
X138638209Y-121656778D01*
X138602471Y-121627448D01*
X138501014Y-121544186D01*
X138412515Y-121436348D01*
X138388422Y-121406991D01*
X138329572Y-121296891D01*
X138304758Y-121250468D01*
X138303615Y-121246701D01*
X138253237Y-121080627D01*
X138235841Y-120904000D01*
X138253237Y-120727373D01*
X138304757Y-120557534D01*
X138388422Y-120401009D01*
X138417752Y-120365271D01*
X138501014Y-120263814D01*
X138602471Y-120180552D01*
X138638209Y-120151222D01*
X138794734Y-120067557D01*
X138964573Y-120016037D01*
X139030757Y-120009519D01*
X139096940Y-120003000D01*
X139185460Y-120003000D01*
X139251643Y-120009519D01*
X139251643Y-120009519D01*
G37*
G36*
X142582200Y-121805000D02*
G01*
X140780200Y-121805000D01*
X140780200Y-120003000D01*
X142582200Y-120003000D01*
X142582200Y-121805000D01*
X142582200Y-121805000D01*
G37*
G36*
X136711643Y-120009519D02*
G01*
X136777827Y-120016037D01*
X136947666Y-120067557D01*
X137104191Y-120151222D01*
X137139929Y-120180552D01*
X137241386Y-120263814D01*
X137324648Y-120365271D01*
X137353978Y-120401009D01*
X137437643Y-120557534D01*
X137489163Y-120727373D01*
X137506559Y-120904000D01*
X137489163Y-121080627D01*
X137438785Y-121246701D01*
X137437642Y-121250468D01*
X137412828Y-121296891D01*
X137353978Y-121406991D01*
X137329885Y-121436348D01*
X137241386Y-121544186D01*
X137139929Y-121627448D01*
X137104191Y-121656778D01*
X136947666Y-121740443D01*
X136777827Y-121791963D01*
X136711642Y-121798482D01*
X136645460Y-121805000D01*
X136556940Y-121805000D01*
X136490758Y-121798482D01*
X136424573Y-121791963D01*
X136254734Y-121740443D01*
X136098209Y-121656778D01*
X136062471Y-121627448D01*
X135961014Y-121544186D01*
X135872515Y-121436348D01*
X135848422Y-121406991D01*
X135789572Y-121296891D01*
X135764758Y-121250468D01*
X135763615Y-121246701D01*
X135713237Y-121080627D01*
X135695841Y-120904000D01*
X135713237Y-120727373D01*
X135764757Y-120557534D01*
X135848422Y-120401009D01*
X135877752Y-120365271D01*
X135961014Y-120263814D01*
X136062471Y-120180552D01*
X136098209Y-120151222D01*
X136254734Y-120067557D01*
X136424573Y-120016037D01*
X136490757Y-120009519D01*
X136556940Y-120003000D01*
X136645460Y-120003000D01*
X136711643Y-120009519D01*
X136711643Y-120009519D01*
G37*
G36*
X134171643Y-120009519D02*
G01*
X134237827Y-120016037D01*
X134407666Y-120067557D01*
X134564191Y-120151222D01*
X134599929Y-120180552D01*
X134701386Y-120263814D01*
X134784648Y-120365271D01*
X134813978Y-120401009D01*
X134897643Y-120557534D01*
X134949163Y-120727373D01*
X134966559Y-120904000D01*
X134949163Y-121080627D01*
X134898785Y-121246701D01*
X134897642Y-121250468D01*
X134872828Y-121296891D01*
X134813978Y-121406991D01*
X134789885Y-121436348D01*
X134701386Y-121544186D01*
X134599929Y-121627448D01*
X134564191Y-121656778D01*
X134407666Y-121740443D01*
X134237827Y-121791963D01*
X134171642Y-121798482D01*
X134105460Y-121805000D01*
X134016940Y-121805000D01*
X133950758Y-121798482D01*
X133884573Y-121791963D01*
X133714734Y-121740443D01*
X133558209Y-121656778D01*
X133522471Y-121627448D01*
X133421014Y-121544186D01*
X133332515Y-121436348D01*
X133308422Y-121406991D01*
X133249572Y-121296891D01*
X133224758Y-121250468D01*
X133223615Y-121246701D01*
X133173237Y-121080627D01*
X133155841Y-120904000D01*
X133173237Y-120727373D01*
X133224757Y-120557534D01*
X133308422Y-120401009D01*
X133337752Y-120365271D01*
X133421014Y-120263814D01*
X133522471Y-120180552D01*
X133558209Y-120151222D01*
X133714734Y-120067557D01*
X133884573Y-120016037D01*
X133950757Y-120009519D01*
X134016940Y-120003000D01*
X134105460Y-120003000D01*
X134171643Y-120009519D01*
X134171643Y-120009519D01*
G37*
G36*
X128700391Y-120571985D02*
G01*
X128734369Y-120582293D01*
X128765690Y-120599034D01*
X128793139Y-120621561D01*
X128815666Y-120649010D01*
X128832407Y-120680331D01*
X128842715Y-120714309D01*
X128846800Y-120755790D01*
X128846800Y-121357010D01*
X128842715Y-121398491D01*
X128832407Y-121432469D01*
X128815666Y-121463790D01*
X128793139Y-121491239D01*
X128765690Y-121513766D01*
X128734369Y-121530507D01*
X128700391Y-121540815D01*
X128658910Y-121544900D01*
X127982690Y-121544900D01*
X127941209Y-121540815D01*
X127907231Y-121530507D01*
X127875910Y-121513766D01*
X127848461Y-121491239D01*
X127825934Y-121463790D01*
X127809193Y-121432469D01*
X127798885Y-121398491D01*
X127794800Y-121357010D01*
X127794800Y-120755790D01*
X127798885Y-120714309D01*
X127809193Y-120680331D01*
X127825934Y-120649010D01*
X127848461Y-120621561D01*
X127875910Y-120599034D01*
X127907231Y-120582293D01*
X127941209Y-120571985D01*
X127982690Y-120567900D01*
X128658910Y-120567900D01*
X128700391Y-120571985D01*
X128700391Y-120571985D01*
G37*
G36*
X131799191Y-120571985D02*
G01*
X131833169Y-120582293D01*
X131864490Y-120599034D01*
X131891939Y-120621561D01*
X131914466Y-120649010D01*
X131931207Y-120680331D01*
X131941515Y-120714309D01*
X131945600Y-120755790D01*
X131945600Y-121357010D01*
X131941515Y-121398491D01*
X131931207Y-121432469D01*
X131914466Y-121463790D01*
X131891939Y-121491239D01*
X131864490Y-121513766D01*
X131833169Y-121530507D01*
X131799191Y-121540815D01*
X131757710Y-121544900D01*
X131081490Y-121544900D01*
X131040009Y-121540815D01*
X131006031Y-121530507D01*
X130974710Y-121513766D01*
X130947261Y-121491239D01*
X130924734Y-121463790D01*
X130907993Y-121432469D01*
X130897685Y-121398491D01*
X130893600Y-121357010D01*
X130893600Y-120755790D01*
X130897685Y-120714309D01*
X130907993Y-120680331D01*
X130924734Y-120649010D01*
X130947261Y-120621561D01*
X130974710Y-120599034D01*
X131006031Y-120582293D01*
X131040009Y-120571985D01*
X131081490Y-120567900D01*
X131757710Y-120567900D01*
X131799191Y-120571985D01*
X131799191Y-120571985D01*
G37*
G36*
X125855591Y-120470385D02*
G01*
X125889569Y-120480693D01*
X125920890Y-120497434D01*
X125948339Y-120519961D01*
X125970866Y-120547410D01*
X125987607Y-120578731D01*
X125997915Y-120612709D01*
X126002000Y-120654190D01*
X126002000Y-121255410D01*
X125997915Y-121296891D01*
X125987607Y-121330869D01*
X125970866Y-121362190D01*
X125948339Y-121389639D01*
X125920890Y-121412166D01*
X125889569Y-121428907D01*
X125855591Y-121439215D01*
X125814110Y-121443300D01*
X125137890Y-121443300D01*
X125096409Y-121439215D01*
X125062431Y-121428907D01*
X125031110Y-121412166D01*
X125003661Y-121389639D01*
X124981134Y-121362190D01*
X124964393Y-121330869D01*
X124954085Y-121296891D01*
X124950000Y-121255410D01*
X124950000Y-120654190D01*
X124954085Y-120612709D01*
X124964393Y-120578731D01*
X124981134Y-120547410D01*
X125003661Y-120519961D01*
X125031110Y-120497434D01*
X125062431Y-120480693D01*
X125096409Y-120470385D01*
X125137890Y-120466300D01*
X125814110Y-120466300D01*
X125855591Y-120470385D01*
X125855591Y-120470385D01*
G37*
G36*
X144817291Y-118654885D02*
G01*
X144851269Y-118665193D01*
X144882590Y-118681934D01*
X144910039Y-118704461D01*
X144932566Y-118731910D01*
X144949307Y-118763231D01*
X144959615Y-118797209D01*
X144963700Y-118838690D01*
X144963700Y-119514910D01*
X144959615Y-119556391D01*
X144949307Y-119590369D01*
X144932566Y-119621690D01*
X144910039Y-119649139D01*
X144882590Y-119671666D01*
X144851269Y-119688407D01*
X144817291Y-119698715D01*
X144775810Y-119702800D01*
X144174590Y-119702800D01*
X144133109Y-119698715D01*
X144099131Y-119688407D01*
X144067810Y-119671666D01*
X144040361Y-119649139D01*
X144017834Y-119621690D01*
X144001093Y-119590369D01*
X143990785Y-119556391D01*
X143986700Y-119514910D01*
X143986700Y-118838690D01*
X143990785Y-118797209D01*
X144001093Y-118763231D01*
X144017834Y-118731910D01*
X144040361Y-118704461D01*
X144067810Y-118681934D01*
X144099131Y-118665193D01*
X144133109Y-118654885D01*
X144174590Y-118650800D01*
X144775810Y-118650800D01*
X144817291Y-118654885D01*
X144817291Y-118654885D01*
G37*
G36*
X146392291Y-118654885D02*
G01*
X146426269Y-118665193D01*
X146457590Y-118681934D01*
X146485039Y-118704461D01*
X146507566Y-118731910D01*
X146524307Y-118763231D01*
X146534615Y-118797209D01*
X146538700Y-118838690D01*
X146538700Y-119514910D01*
X146534615Y-119556391D01*
X146524307Y-119590369D01*
X146507566Y-119621690D01*
X146485039Y-119649139D01*
X146457590Y-119671666D01*
X146426269Y-119688407D01*
X146392291Y-119698715D01*
X146350810Y-119702800D01*
X145749590Y-119702800D01*
X145708109Y-119698715D01*
X145674131Y-119688407D01*
X145642810Y-119671666D01*
X145615361Y-119649139D01*
X145592834Y-119621690D01*
X145576093Y-119590369D01*
X145565785Y-119556391D01*
X145561700Y-119514910D01*
X145561700Y-118838690D01*
X145565785Y-118797209D01*
X145576093Y-118763231D01*
X145592834Y-118731910D01*
X145615361Y-118704461D01*
X145642810Y-118681934D01*
X145674131Y-118665193D01*
X145708109Y-118654885D01*
X145749590Y-118650800D01*
X146350810Y-118650800D01*
X146392291Y-118654885D01*
X146392291Y-118654885D01*
G37*
G36*
X127951691Y-118248485D02*
G01*
X127985669Y-118258793D01*
X128016990Y-118275534D01*
X128044439Y-118298061D01*
X128066966Y-118325510D01*
X128083707Y-118356831D01*
X128094015Y-118390809D01*
X128098100Y-118432290D01*
X128098100Y-119108510D01*
X128094015Y-119149991D01*
X128083707Y-119183969D01*
X128066966Y-119215290D01*
X128044439Y-119242739D01*
X128016990Y-119265266D01*
X127985669Y-119282007D01*
X127951691Y-119292315D01*
X127910210Y-119296400D01*
X127308990Y-119296400D01*
X127267509Y-119292315D01*
X127233531Y-119282007D01*
X127202210Y-119265266D01*
X127174761Y-119242739D01*
X127152234Y-119215290D01*
X127135493Y-119183969D01*
X127125185Y-119149991D01*
X127121100Y-119108510D01*
X127121100Y-118432290D01*
X127125185Y-118390809D01*
X127135493Y-118356831D01*
X127152234Y-118325510D01*
X127174761Y-118298061D01*
X127202210Y-118275534D01*
X127233531Y-118258793D01*
X127267509Y-118248485D01*
X127308990Y-118244400D01*
X127910210Y-118244400D01*
X127951691Y-118248485D01*
X127951691Y-118248485D01*
G37*
G36*
X126376691Y-118248485D02*
G01*
X126410669Y-118258793D01*
X126441990Y-118275534D01*
X126469439Y-118298061D01*
X126491966Y-118325510D01*
X126508707Y-118356831D01*
X126519015Y-118390809D01*
X126523100Y-118432290D01*
X126523100Y-119108510D01*
X126519015Y-119149991D01*
X126508707Y-119183969D01*
X126491966Y-119215290D01*
X126469439Y-119242739D01*
X126441990Y-119265266D01*
X126410669Y-119282007D01*
X126376691Y-119292315D01*
X126335210Y-119296400D01*
X125733990Y-119296400D01*
X125692509Y-119292315D01*
X125658531Y-119282007D01*
X125627210Y-119265266D01*
X125599761Y-119242739D01*
X125577234Y-119215290D01*
X125560493Y-119183969D01*
X125550185Y-119149991D01*
X125546100Y-119108510D01*
X125546100Y-118432290D01*
X125550185Y-118390809D01*
X125560493Y-118356831D01*
X125577234Y-118325510D01*
X125599761Y-118298061D01*
X125627210Y-118275534D01*
X125658531Y-118258793D01*
X125692509Y-118248485D01*
X125733990Y-118244400D01*
X126335210Y-118244400D01*
X126376691Y-118248485D01*
X126376691Y-118248485D01*
G37*
G36*
X129831091Y-117892885D02*
G01*
X129865069Y-117903193D01*
X129896390Y-117919934D01*
X129923839Y-117942461D01*
X129946366Y-117969910D01*
X129963107Y-118001231D01*
X129973415Y-118035209D01*
X129977500Y-118076690D01*
X129977500Y-118752910D01*
X129973415Y-118794391D01*
X129963107Y-118828369D01*
X129946366Y-118859690D01*
X129923839Y-118887139D01*
X129896390Y-118909666D01*
X129865069Y-118926407D01*
X129831091Y-118936715D01*
X129789610Y-118940800D01*
X129188390Y-118940800D01*
X129146909Y-118936715D01*
X129112931Y-118926407D01*
X129081610Y-118909666D01*
X129054161Y-118887139D01*
X129031634Y-118859690D01*
X129014893Y-118828369D01*
X129004585Y-118794391D01*
X129000500Y-118752910D01*
X129000500Y-118076690D01*
X129004585Y-118035209D01*
X129014893Y-118001231D01*
X129031634Y-117969910D01*
X129054161Y-117942461D01*
X129081610Y-117919934D01*
X129112931Y-117903193D01*
X129146909Y-117892885D01*
X129188390Y-117888800D01*
X129789610Y-117888800D01*
X129831091Y-117892885D01*
X129831091Y-117892885D01*
G37*
G36*
X131406091Y-117892885D02*
G01*
X131440069Y-117903193D01*
X131471390Y-117919934D01*
X131498839Y-117942461D01*
X131521366Y-117969910D01*
X131538107Y-118001231D01*
X131548415Y-118035209D01*
X131552500Y-118076690D01*
X131552500Y-118752910D01*
X131548415Y-118794391D01*
X131538107Y-118828369D01*
X131521366Y-118859690D01*
X131498839Y-118887139D01*
X131471390Y-118909666D01*
X131440069Y-118926407D01*
X131406091Y-118936715D01*
X131364610Y-118940800D01*
X130763390Y-118940800D01*
X130721909Y-118936715D01*
X130687931Y-118926407D01*
X130656610Y-118909666D01*
X130629161Y-118887139D01*
X130606634Y-118859690D01*
X130589893Y-118828369D01*
X130579585Y-118794391D01*
X130575500Y-118752910D01*
X130575500Y-118076690D01*
X130579585Y-118035209D01*
X130589893Y-118001231D01*
X130606634Y-117969910D01*
X130629161Y-117942461D01*
X130656610Y-117919934D01*
X130687931Y-117903193D01*
X130721909Y-117892885D01*
X130763390Y-117888800D01*
X131364610Y-117888800D01*
X131406091Y-117892885D01*
X131406091Y-117892885D01*
G37*
G36*
X139534291Y-117537285D02*
G01*
X139568269Y-117547593D01*
X139599590Y-117564334D01*
X139627039Y-117586861D01*
X139649566Y-117614310D01*
X139666307Y-117645631D01*
X139676615Y-117679609D01*
X139680700Y-117721090D01*
X139680700Y-118397310D01*
X139676615Y-118438791D01*
X139666307Y-118472769D01*
X139649566Y-118504090D01*
X139627039Y-118531539D01*
X139599590Y-118554066D01*
X139568269Y-118570807D01*
X139534291Y-118581115D01*
X139492810Y-118585200D01*
X138891590Y-118585200D01*
X138850109Y-118581115D01*
X138816131Y-118570807D01*
X138784810Y-118554066D01*
X138757361Y-118531539D01*
X138734834Y-118504090D01*
X138718093Y-118472769D01*
X138707785Y-118438791D01*
X138703700Y-118397310D01*
X138703700Y-117721090D01*
X138707785Y-117679609D01*
X138718093Y-117645631D01*
X138734834Y-117614310D01*
X138757361Y-117586861D01*
X138784810Y-117564334D01*
X138816131Y-117547593D01*
X138850109Y-117537285D01*
X138891590Y-117533200D01*
X139492810Y-117533200D01*
X139534291Y-117537285D01*
X139534291Y-117537285D01*
G37*
G36*
X137959291Y-117537285D02*
G01*
X137993269Y-117547593D01*
X138024590Y-117564334D01*
X138052039Y-117586861D01*
X138074566Y-117614310D01*
X138091307Y-117645631D01*
X138101615Y-117679609D01*
X138105700Y-117721090D01*
X138105700Y-118397310D01*
X138101615Y-118438791D01*
X138091307Y-118472769D01*
X138074566Y-118504090D01*
X138052039Y-118531539D01*
X138024590Y-118554066D01*
X137993269Y-118570807D01*
X137959291Y-118581115D01*
X137917810Y-118585200D01*
X137316590Y-118585200D01*
X137275109Y-118581115D01*
X137241131Y-118570807D01*
X137209810Y-118554066D01*
X137182361Y-118531539D01*
X137159834Y-118504090D01*
X137143093Y-118472769D01*
X137132785Y-118438791D01*
X137128700Y-118397310D01*
X137128700Y-117721090D01*
X137132785Y-117679609D01*
X137143093Y-117645631D01*
X137159834Y-117614310D01*
X137182361Y-117586861D01*
X137209810Y-117564334D01*
X137241131Y-117547593D01*
X137275109Y-117537285D01*
X137316590Y-117533200D01*
X137917810Y-117533200D01*
X137959291Y-117537285D01*
X137959291Y-117537285D01*
G37*
G36*
X134999591Y-117371785D02*
G01*
X135033569Y-117382093D01*
X135064890Y-117398834D01*
X135092339Y-117421361D01*
X135114866Y-117448810D01*
X135131607Y-117480131D01*
X135141915Y-117514109D01*
X135146000Y-117555590D01*
X135146000Y-118156810D01*
X135141915Y-118198291D01*
X135131607Y-118232269D01*
X135114866Y-118263590D01*
X135092339Y-118291039D01*
X135064890Y-118313566D01*
X135033569Y-118330307D01*
X134999591Y-118340615D01*
X134958110Y-118344700D01*
X134281890Y-118344700D01*
X134240409Y-118340615D01*
X134206431Y-118330307D01*
X134175110Y-118313566D01*
X134147661Y-118291039D01*
X134125134Y-118263590D01*
X134108393Y-118232269D01*
X134098085Y-118198291D01*
X134094000Y-118156810D01*
X134094000Y-117555590D01*
X134098085Y-117514109D01*
X134108393Y-117480131D01*
X134125134Y-117448810D01*
X134147661Y-117421361D01*
X134175110Y-117398834D01*
X134206431Y-117382093D01*
X134240409Y-117371785D01*
X134281890Y-117367700D01*
X134958110Y-117367700D01*
X134999591Y-117371785D01*
X134999591Y-117371785D01*
G37*
G36*
X150862491Y-116013285D02*
G01*
X150896469Y-116023593D01*
X150927790Y-116040334D01*
X150955239Y-116062861D01*
X150977766Y-116090310D01*
X150994507Y-116121631D01*
X151004815Y-116155609D01*
X151008900Y-116197090D01*
X151008900Y-116873310D01*
X151004815Y-116914791D01*
X150994507Y-116948769D01*
X150977766Y-116980090D01*
X150955239Y-117007539D01*
X150927790Y-117030066D01*
X150896469Y-117046807D01*
X150862491Y-117057115D01*
X150821010Y-117061200D01*
X150219790Y-117061200D01*
X150178309Y-117057115D01*
X150144331Y-117046807D01*
X150113010Y-117030066D01*
X150085561Y-117007539D01*
X150063034Y-116980090D01*
X150046293Y-116948769D01*
X150035985Y-116914791D01*
X150031900Y-116873310D01*
X150031900Y-116197090D01*
X150035985Y-116155609D01*
X150046293Y-116121631D01*
X150063034Y-116090310D01*
X150085561Y-116062861D01*
X150113010Y-116040334D01*
X150144331Y-116023593D01*
X150178309Y-116013285D01*
X150219790Y-116009200D01*
X150821010Y-116009200D01*
X150862491Y-116013285D01*
X150862491Y-116013285D01*
G37*
G36*
X147230391Y-116013285D02*
G01*
X147264369Y-116023593D01*
X147295690Y-116040334D01*
X147323139Y-116062861D01*
X147345666Y-116090310D01*
X147362407Y-116121631D01*
X147372715Y-116155609D01*
X147376800Y-116197090D01*
X147376800Y-116873310D01*
X147372715Y-116914791D01*
X147362407Y-116948769D01*
X147345666Y-116980090D01*
X147323139Y-117007539D01*
X147295690Y-117030066D01*
X147264369Y-117046807D01*
X147230391Y-117057115D01*
X147188910Y-117061200D01*
X146587690Y-117061200D01*
X146546209Y-117057115D01*
X146512231Y-117046807D01*
X146480910Y-117030066D01*
X146453461Y-117007539D01*
X146430934Y-116980090D01*
X146414193Y-116948769D01*
X146403885Y-116914791D01*
X146399800Y-116873310D01*
X146399800Y-116197090D01*
X146403885Y-116155609D01*
X146414193Y-116121631D01*
X146430934Y-116090310D01*
X146453461Y-116062861D01*
X146480910Y-116040334D01*
X146512231Y-116023593D01*
X146546209Y-116013285D01*
X146587690Y-116009200D01*
X147188910Y-116009200D01*
X147230391Y-116013285D01*
X147230391Y-116013285D01*
G37*
G36*
X145655391Y-116013285D02*
G01*
X145689369Y-116023593D01*
X145720690Y-116040334D01*
X145748139Y-116062861D01*
X145770666Y-116090310D01*
X145787407Y-116121631D01*
X145797715Y-116155609D01*
X145801800Y-116197090D01*
X145801800Y-116873310D01*
X145797715Y-116914791D01*
X145787407Y-116948769D01*
X145770666Y-116980090D01*
X145748139Y-117007539D01*
X145720690Y-117030066D01*
X145689369Y-117046807D01*
X145655391Y-117057115D01*
X145613910Y-117061200D01*
X145012690Y-117061200D01*
X144971209Y-117057115D01*
X144937231Y-117046807D01*
X144905910Y-117030066D01*
X144878461Y-117007539D01*
X144855934Y-116980090D01*
X144839193Y-116948769D01*
X144828885Y-116914791D01*
X144824800Y-116873310D01*
X144824800Y-116197090D01*
X144828885Y-116155609D01*
X144839193Y-116121631D01*
X144855934Y-116090310D01*
X144878461Y-116062861D01*
X144905910Y-116040334D01*
X144937231Y-116023593D01*
X144971209Y-116013285D01*
X145012690Y-116009200D01*
X145613910Y-116009200D01*
X145655391Y-116013285D01*
X145655391Y-116013285D01*
G37*
G36*
X149287491Y-116013285D02*
G01*
X149321469Y-116023593D01*
X149352790Y-116040334D01*
X149380239Y-116062861D01*
X149402766Y-116090310D01*
X149419507Y-116121631D01*
X149429815Y-116155609D01*
X149433900Y-116197090D01*
X149433900Y-116873310D01*
X149429815Y-116914791D01*
X149419507Y-116948769D01*
X149402766Y-116980090D01*
X149380239Y-117007539D01*
X149352790Y-117030066D01*
X149321469Y-117046807D01*
X149287491Y-117057115D01*
X149246010Y-117061200D01*
X148644790Y-117061200D01*
X148603309Y-117057115D01*
X148569331Y-117046807D01*
X148538010Y-117030066D01*
X148510561Y-117007539D01*
X148488034Y-116980090D01*
X148471293Y-116948769D01*
X148460985Y-116914791D01*
X148456900Y-116873310D01*
X148456900Y-116197090D01*
X148460985Y-116155609D01*
X148471293Y-116121631D01*
X148488034Y-116090310D01*
X148510561Y-116062861D01*
X148538010Y-116040334D01*
X148569331Y-116023593D01*
X148603309Y-116013285D01*
X148644790Y-116009200D01*
X149246010Y-116009200D01*
X149287491Y-116013285D01*
X149287491Y-116013285D01*
G37*
G36*
X134999591Y-115796785D02*
G01*
X135033569Y-115807093D01*
X135064890Y-115823834D01*
X135092339Y-115846361D01*
X135114866Y-115873810D01*
X135131607Y-115905131D01*
X135141915Y-115939109D01*
X135146000Y-115980590D01*
X135146000Y-116581810D01*
X135141915Y-116623291D01*
X135131607Y-116657269D01*
X135114866Y-116688590D01*
X135092339Y-116716039D01*
X135064890Y-116738566D01*
X135033569Y-116755307D01*
X134999591Y-116765615D01*
X134958110Y-116769700D01*
X134281890Y-116769700D01*
X134240409Y-116765615D01*
X134206431Y-116755307D01*
X134175110Y-116738566D01*
X134147661Y-116716039D01*
X134125134Y-116688590D01*
X134108393Y-116657269D01*
X134098085Y-116623291D01*
X134094000Y-116581810D01*
X134094000Y-115980590D01*
X134098085Y-115939109D01*
X134108393Y-115905131D01*
X134125134Y-115873810D01*
X134147661Y-115846361D01*
X134175110Y-115823834D01*
X134206431Y-115807093D01*
X134240409Y-115796785D01*
X134281890Y-115792700D01*
X134958110Y-115792700D01*
X134999591Y-115796785D01*
X134999591Y-115796785D01*
G37*
G36*
X126783091Y-114590885D02*
G01*
X126817069Y-114601193D01*
X126848390Y-114617934D01*
X126875839Y-114640461D01*
X126898366Y-114667910D01*
X126915107Y-114699231D01*
X126925415Y-114733209D01*
X126929500Y-114774690D01*
X126929500Y-115450910D01*
X126925415Y-115492391D01*
X126915107Y-115526369D01*
X126898366Y-115557690D01*
X126875839Y-115585139D01*
X126848390Y-115607666D01*
X126817069Y-115624407D01*
X126783091Y-115634715D01*
X126741610Y-115638800D01*
X126140390Y-115638800D01*
X126098909Y-115634715D01*
X126064931Y-115624407D01*
X126033610Y-115607666D01*
X126006161Y-115585139D01*
X125983634Y-115557690D01*
X125966893Y-115526369D01*
X125956585Y-115492391D01*
X125952500Y-115450910D01*
X125952500Y-114774690D01*
X125956585Y-114733209D01*
X125966893Y-114699231D01*
X125983634Y-114667910D01*
X126006161Y-114640461D01*
X126033610Y-114617934D01*
X126064931Y-114601193D01*
X126098909Y-114590885D01*
X126140390Y-114586800D01*
X126741610Y-114586800D01*
X126783091Y-114590885D01*
X126783091Y-114590885D01*
G37*
G36*
X128358091Y-114590885D02*
G01*
X128392069Y-114601193D01*
X128423390Y-114617934D01*
X128450839Y-114640461D01*
X128473366Y-114667910D01*
X128490107Y-114699231D01*
X128500415Y-114733209D01*
X128504500Y-114774690D01*
X128504500Y-115450910D01*
X128500415Y-115492391D01*
X128490107Y-115526369D01*
X128473366Y-115557690D01*
X128450839Y-115585139D01*
X128423390Y-115607666D01*
X128392069Y-115624407D01*
X128358091Y-115634715D01*
X128316610Y-115638800D01*
X127715390Y-115638800D01*
X127673909Y-115634715D01*
X127639931Y-115624407D01*
X127608610Y-115607666D01*
X127581161Y-115585139D01*
X127558634Y-115557690D01*
X127541893Y-115526369D01*
X127531585Y-115492391D01*
X127527500Y-115450910D01*
X127527500Y-114774690D01*
X127531585Y-114733209D01*
X127541893Y-114699231D01*
X127558634Y-114667910D01*
X127581161Y-114640461D01*
X127608610Y-114617934D01*
X127639931Y-114601193D01*
X127673909Y-114590885D01*
X127715390Y-114586800D01*
X128316610Y-114586800D01*
X128358091Y-114590885D01*
X128358091Y-114590885D01*
G37*
G36*
X131494391Y-113409385D02*
G01*
X131528369Y-113419693D01*
X131559690Y-113436434D01*
X131587139Y-113458961D01*
X131609666Y-113486410D01*
X131626407Y-113517731D01*
X131636715Y-113551709D01*
X131640800Y-113593190D01*
X131640800Y-114194410D01*
X131636715Y-114235891D01*
X131626407Y-114269869D01*
X131609666Y-114301190D01*
X131587139Y-114328639D01*
X131559690Y-114351166D01*
X131528369Y-114367907D01*
X131494391Y-114378215D01*
X131452910Y-114382300D01*
X130776690Y-114382300D01*
X130735209Y-114378215D01*
X130701231Y-114367907D01*
X130669910Y-114351166D01*
X130642461Y-114328639D01*
X130619934Y-114301190D01*
X130603193Y-114269869D01*
X130592885Y-114235891D01*
X130588800Y-114194410D01*
X130588800Y-113593190D01*
X130592885Y-113551709D01*
X130603193Y-113517731D01*
X130619934Y-113486410D01*
X130642461Y-113458961D01*
X130669910Y-113436434D01*
X130701231Y-113419693D01*
X130735209Y-113409385D01*
X130776690Y-113405300D01*
X131452910Y-113405300D01*
X131494391Y-113409385D01*
X131494391Y-113409385D01*
G37*
G36*
X133272391Y-113409185D02*
G01*
X133306369Y-113419493D01*
X133337690Y-113436234D01*
X133365139Y-113458761D01*
X133387666Y-113486210D01*
X133404407Y-113517531D01*
X133414715Y-113551509D01*
X133418800Y-113592990D01*
X133418800Y-114194210D01*
X133414715Y-114235691D01*
X133404407Y-114269669D01*
X133387666Y-114300990D01*
X133365139Y-114328439D01*
X133337690Y-114350966D01*
X133306369Y-114367707D01*
X133272391Y-114378015D01*
X133230910Y-114382100D01*
X132554690Y-114382100D01*
X132513209Y-114378015D01*
X132479231Y-114367707D01*
X132447910Y-114350966D01*
X132420461Y-114328439D01*
X132397934Y-114300990D01*
X132381193Y-114269669D01*
X132370885Y-114235691D01*
X132366800Y-114194210D01*
X132366800Y-113592990D01*
X132370885Y-113551509D01*
X132381193Y-113517531D01*
X132397934Y-113486210D01*
X132420461Y-113458761D01*
X132447910Y-113436234D01*
X132479231Y-113419493D01*
X132513209Y-113409185D01*
X132554690Y-113405100D01*
X133230910Y-113405100D01*
X133272391Y-113409185D01*
X133272391Y-113409185D01*
G37*
G36*
X139419191Y-113307785D02*
G01*
X139453169Y-113318093D01*
X139484490Y-113334834D01*
X139511939Y-113357361D01*
X139534466Y-113384810D01*
X139551207Y-113416131D01*
X139561515Y-113450109D01*
X139565600Y-113491590D01*
X139565600Y-114092810D01*
X139561515Y-114134291D01*
X139551207Y-114168269D01*
X139534466Y-114199590D01*
X139511939Y-114227039D01*
X139484490Y-114249566D01*
X139453169Y-114266307D01*
X139419191Y-114276615D01*
X139377710Y-114280700D01*
X138701490Y-114280700D01*
X138660009Y-114276615D01*
X138626031Y-114266307D01*
X138594710Y-114249566D01*
X138567261Y-114227039D01*
X138544734Y-114199590D01*
X138527993Y-114168269D01*
X138517685Y-114134291D01*
X138513600Y-114092810D01*
X138513600Y-113491590D01*
X138517685Y-113450109D01*
X138527993Y-113416131D01*
X138544734Y-113384810D01*
X138567261Y-113357361D01*
X138594710Y-113334834D01*
X138626031Y-113318093D01*
X138660009Y-113307785D01*
X138701490Y-113303700D01*
X139377710Y-113303700D01*
X139419191Y-113307785D01*
X139419191Y-113307785D01*
G37*
G36*
X151255591Y-113104585D02*
G01*
X151289569Y-113114893D01*
X151320890Y-113131634D01*
X151348339Y-113154161D01*
X151370866Y-113181610D01*
X151387607Y-113212931D01*
X151397915Y-113246909D01*
X151402000Y-113288390D01*
X151402000Y-113889610D01*
X151397915Y-113931091D01*
X151387607Y-113965069D01*
X151370866Y-113996390D01*
X151348339Y-114023839D01*
X151320890Y-114046366D01*
X151289569Y-114063107D01*
X151255591Y-114073415D01*
X151214110Y-114077500D01*
X150537890Y-114077500D01*
X150496409Y-114073415D01*
X150462431Y-114063107D01*
X150431110Y-114046366D01*
X150403661Y-114023839D01*
X150381134Y-113996390D01*
X150364393Y-113965069D01*
X150354085Y-113931091D01*
X150350000Y-113889610D01*
X150350000Y-113288390D01*
X150354085Y-113246909D01*
X150364393Y-113212931D01*
X150381134Y-113181610D01*
X150403661Y-113154161D01*
X150431110Y-113131634D01*
X150462431Y-113114893D01*
X150496409Y-113104585D01*
X150537890Y-113100500D01*
X151214110Y-113100500D01*
X151255591Y-113104585D01*
X151255591Y-113104585D01*
G37*
G36*
X146341091Y-112965285D02*
G01*
X146375069Y-112975593D01*
X146406390Y-112992334D01*
X146433839Y-113014861D01*
X146456366Y-113042310D01*
X146473107Y-113073631D01*
X146483415Y-113107609D01*
X146487500Y-113149090D01*
X146487500Y-113825310D01*
X146483415Y-113866791D01*
X146473107Y-113900769D01*
X146456366Y-113932090D01*
X146433839Y-113959539D01*
X146406390Y-113982066D01*
X146375069Y-113998807D01*
X146341091Y-114009115D01*
X146299610Y-114013200D01*
X145698390Y-114013200D01*
X145656909Y-114009115D01*
X145622931Y-113998807D01*
X145591610Y-113982066D01*
X145564161Y-113959539D01*
X145541634Y-113932090D01*
X145524893Y-113900769D01*
X145514585Y-113866791D01*
X145510500Y-113825310D01*
X145510500Y-113149090D01*
X145514585Y-113107609D01*
X145524893Y-113073631D01*
X145541634Y-113042310D01*
X145564161Y-113014861D01*
X145591610Y-112992334D01*
X145622931Y-112975593D01*
X145656909Y-112965285D01*
X145698390Y-112961200D01*
X146299610Y-112961200D01*
X146341091Y-112965285D01*
X146341091Y-112965285D01*
G37*
G36*
X144664891Y-112965285D02*
G01*
X144698869Y-112975593D01*
X144730190Y-112992334D01*
X144757639Y-113014861D01*
X144780166Y-113042310D01*
X144796907Y-113073631D01*
X144807215Y-113107609D01*
X144811300Y-113149090D01*
X144811300Y-113825310D01*
X144807215Y-113866791D01*
X144796907Y-113900769D01*
X144780166Y-113932090D01*
X144757639Y-113959539D01*
X144730190Y-113982066D01*
X144698869Y-113998807D01*
X144664891Y-114009115D01*
X144623410Y-114013200D01*
X144022190Y-114013200D01*
X143980709Y-114009115D01*
X143946731Y-113998807D01*
X143915410Y-113982066D01*
X143887961Y-113959539D01*
X143865434Y-113932090D01*
X143848693Y-113900769D01*
X143838385Y-113866791D01*
X143834300Y-113825310D01*
X143834300Y-113149090D01*
X143838385Y-113107609D01*
X143848693Y-113073631D01*
X143865434Y-113042310D01*
X143887961Y-113014861D01*
X143915410Y-112992334D01*
X143946731Y-112975593D01*
X143980709Y-112965285D01*
X144022190Y-112961200D01*
X144623410Y-112961200D01*
X144664891Y-112965285D01*
X144664891Y-112965285D01*
G37*
G36*
X143089891Y-112965285D02*
G01*
X143123869Y-112975593D01*
X143155190Y-112992334D01*
X143182639Y-113014861D01*
X143205166Y-113042310D01*
X143221907Y-113073631D01*
X143232215Y-113107609D01*
X143236300Y-113149090D01*
X143236300Y-113825310D01*
X143232215Y-113866791D01*
X143221907Y-113900769D01*
X143205166Y-113932090D01*
X143182639Y-113959539D01*
X143155190Y-113982066D01*
X143123869Y-113998807D01*
X143089891Y-114009115D01*
X143048410Y-114013200D01*
X142447190Y-114013200D01*
X142405709Y-114009115D01*
X142371731Y-113998807D01*
X142340410Y-113982066D01*
X142312961Y-113959539D01*
X142290434Y-113932090D01*
X142273693Y-113900769D01*
X142263385Y-113866791D01*
X142259300Y-113825310D01*
X142259300Y-113149090D01*
X142263385Y-113107609D01*
X142273693Y-113073631D01*
X142290434Y-113042310D01*
X142312961Y-113014861D01*
X142340410Y-112992334D01*
X142371731Y-112975593D01*
X142405709Y-112965285D01*
X142447190Y-112961200D01*
X143048410Y-112961200D01*
X143089891Y-112965285D01*
X143089891Y-112965285D01*
G37*
G36*
X147916091Y-112965285D02*
G01*
X147950069Y-112975593D01*
X147981390Y-112992334D01*
X148008839Y-113014861D01*
X148031366Y-113042310D01*
X148048107Y-113073631D01*
X148058415Y-113107609D01*
X148062500Y-113149090D01*
X148062500Y-113825310D01*
X148058415Y-113866791D01*
X148048107Y-113900769D01*
X148031366Y-113932090D01*
X148008839Y-113959539D01*
X147981390Y-113982066D01*
X147950069Y-113998807D01*
X147916091Y-114009115D01*
X147874610Y-114013200D01*
X147273390Y-114013200D01*
X147231909Y-114009115D01*
X147197931Y-113998807D01*
X147166610Y-113982066D01*
X147139161Y-113959539D01*
X147116634Y-113932090D01*
X147099893Y-113900769D01*
X147089585Y-113866791D01*
X147085500Y-113825310D01*
X147085500Y-113149090D01*
X147089585Y-113107609D01*
X147099893Y-113073631D01*
X147116634Y-113042310D01*
X147139161Y-113014861D01*
X147166610Y-112992334D01*
X147197931Y-112975593D01*
X147231909Y-112965285D01*
X147273390Y-112961200D01*
X147874610Y-112961200D01*
X147916091Y-112965285D01*
X147916091Y-112965285D01*
G37*
G36*
X131494391Y-111834385D02*
G01*
X131528369Y-111844693D01*
X131559690Y-111861434D01*
X131587139Y-111883961D01*
X131609666Y-111911410D01*
X131626407Y-111942731D01*
X131636715Y-111976709D01*
X131640800Y-112018190D01*
X131640800Y-112619410D01*
X131636715Y-112660891D01*
X131626407Y-112694869D01*
X131609666Y-112726190D01*
X131587139Y-112753639D01*
X131559690Y-112776166D01*
X131528369Y-112792907D01*
X131494391Y-112803215D01*
X131452910Y-112807300D01*
X130776690Y-112807300D01*
X130735209Y-112803215D01*
X130701231Y-112792907D01*
X130669910Y-112776166D01*
X130642461Y-112753639D01*
X130619934Y-112726190D01*
X130603193Y-112694869D01*
X130592885Y-112660891D01*
X130588800Y-112619410D01*
X130588800Y-112018190D01*
X130592885Y-111976709D01*
X130603193Y-111942731D01*
X130619934Y-111911410D01*
X130642461Y-111883961D01*
X130669910Y-111861434D01*
X130701231Y-111844693D01*
X130735209Y-111834385D01*
X130776690Y-111830300D01*
X131452910Y-111830300D01*
X131494391Y-111834385D01*
X131494391Y-111834385D01*
G37*
G36*
X133272391Y-111834185D02*
G01*
X133306369Y-111844493D01*
X133337690Y-111861234D01*
X133365139Y-111883761D01*
X133387666Y-111911210D01*
X133404407Y-111942531D01*
X133414715Y-111976509D01*
X133418800Y-112017990D01*
X133418800Y-112619210D01*
X133414715Y-112660691D01*
X133404407Y-112694669D01*
X133387666Y-112725990D01*
X133365139Y-112753439D01*
X133337690Y-112775966D01*
X133306369Y-112792707D01*
X133272391Y-112803015D01*
X133230910Y-112807100D01*
X132554690Y-112807100D01*
X132513209Y-112803015D01*
X132479231Y-112792707D01*
X132447910Y-112775966D01*
X132420461Y-112753439D01*
X132397934Y-112725990D01*
X132381193Y-112694669D01*
X132370885Y-112660691D01*
X132366800Y-112619210D01*
X132366800Y-112017990D01*
X132370885Y-111976509D01*
X132381193Y-111942531D01*
X132397934Y-111911210D01*
X132420461Y-111883761D01*
X132447910Y-111861234D01*
X132479231Y-111844493D01*
X132513209Y-111834185D01*
X132554690Y-111830100D01*
X133230910Y-111830100D01*
X133272391Y-111834185D01*
X133272391Y-111834185D01*
G37*
G36*
X139419191Y-111732785D02*
G01*
X139453169Y-111743093D01*
X139484490Y-111759834D01*
X139511939Y-111782361D01*
X139534466Y-111809810D01*
X139551207Y-111841131D01*
X139561515Y-111875109D01*
X139565600Y-111916590D01*
X139565600Y-112517810D01*
X139561515Y-112559291D01*
X139551207Y-112593269D01*
X139534466Y-112624590D01*
X139511939Y-112652039D01*
X139484490Y-112674566D01*
X139453169Y-112691307D01*
X139419191Y-112701615D01*
X139377710Y-112705700D01*
X138701490Y-112705700D01*
X138660009Y-112701615D01*
X138626031Y-112691307D01*
X138594710Y-112674566D01*
X138567261Y-112652039D01*
X138544734Y-112624590D01*
X138527993Y-112593269D01*
X138517685Y-112559291D01*
X138513600Y-112517810D01*
X138513600Y-111916590D01*
X138517685Y-111875109D01*
X138527993Y-111841131D01*
X138544734Y-111809810D01*
X138567261Y-111782361D01*
X138594710Y-111759834D01*
X138626031Y-111743093D01*
X138660009Y-111732785D01*
X138701490Y-111728700D01*
X139377710Y-111728700D01*
X139419191Y-111732785D01*
X139419191Y-111732785D01*
G37*
G36*
X126261991Y-111682185D02*
G01*
X126295969Y-111692493D01*
X126327290Y-111709234D01*
X126354739Y-111731761D01*
X126377266Y-111759210D01*
X126394007Y-111790531D01*
X126404315Y-111824509D01*
X126408400Y-111865990D01*
X126408400Y-112467210D01*
X126404315Y-112508691D01*
X126394007Y-112542669D01*
X126377266Y-112573990D01*
X126354739Y-112601439D01*
X126327290Y-112623966D01*
X126295969Y-112640707D01*
X126261991Y-112651015D01*
X126220510Y-112655100D01*
X125544290Y-112655100D01*
X125502809Y-112651015D01*
X125468831Y-112640707D01*
X125437510Y-112623966D01*
X125410061Y-112601439D01*
X125387534Y-112573990D01*
X125370793Y-112542669D01*
X125360485Y-112508691D01*
X125356400Y-112467210D01*
X125356400Y-111865990D01*
X125360485Y-111824509D01*
X125370793Y-111790531D01*
X125387534Y-111759210D01*
X125410061Y-111731761D01*
X125437510Y-111709234D01*
X125468831Y-111692493D01*
X125502809Y-111682185D01*
X125544290Y-111678100D01*
X126220510Y-111678100D01*
X126261991Y-111682185D01*
X126261991Y-111682185D01*
G37*
G36*
X151255591Y-111529585D02*
G01*
X151289569Y-111539893D01*
X151320890Y-111556634D01*
X151348339Y-111579161D01*
X151370866Y-111606610D01*
X151387607Y-111637931D01*
X151397915Y-111671909D01*
X151402000Y-111713390D01*
X151402000Y-112314610D01*
X151397915Y-112356091D01*
X151387607Y-112390069D01*
X151370866Y-112421390D01*
X151348339Y-112448839D01*
X151320890Y-112471366D01*
X151289569Y-112488107D01*
X151255591Y-112498415D01*
X151214110Y-112502500D01*
X150537890Y-112502500D01*
X150496409Y-112498415D01*
X150462431Y-112488107D01*
X150431110Y-112471366D01*
X150403661Y-112448839D01*
X150381134Y-112421390D01*
X150364393Y-112390069D01*
X150354085Y-112356091D01*
X150350000Y-112314610D01*
X150350000Y-111713390D01*
X150354085Y-111671909D01*
X150364393Y-111637931D01*
X150381134Y-111606610D01*
X150403661Y-111579161D01*
X150431110Y-111556634D01*
X150462431Y-111539893D01*
X150496409Y-111529585D01*
X150537890Y-111525500D01*
X151214110Y-111525500D01*
X151255591Y-111529585D01*
X151255591Y-111529585D01*
G37*
G36*
X147445591Y-110157985D02*
G01*
X147479569Y-110168293D01*
X147510890Y-110185034D01*
X147538339Y-110207561D01*
X147560866Y-110235010D01*
X147577607Y-110266331D01*
X147587915Y-110300309D01*
X147592000Y-110341790D01*
X147592000Y-110943010D01*
X147587915Y-110984491D01*
X147577607Y-111018469D01*
X147560866Y-111049790D01*
X147538339Y-111077239D01*
X147510890Y-111099766D01*
X147479569Y-111116507D01*
X147445591Y-111126815D01*
X147404110Y-111130900D01*
X146727890Y-111130900D01*
X146686409Y-111126815D01*
X146652431Y-111116507D01*
X146621110Y-111099766D01*
X146593661Y-111077239D01*
X146571134Y-111049790D01*
X146554393Y-111018469D01*
X146544085Y-110984491D01*
X146540000Y-110943010D01*
X146540000Y-110341790D01*
X146544085Y-110300309D01*
X146554393Y-110266331D01*
X146571134Y-110235010D01*
X146593661Y-110207561D01*
X146621110Y-110185034D01*
X146652431Y-110168293D01*
X146686409Y-110157985D01*
X146727890Y-110153900D01*
X147404110Y-110153900D01*
X147445591Y-110157985D01*
X147445591Y-110157985D01*
G37*
G36*
X126261991Y-110107185D02*
G01*
X126295969Y-110117493D01*
X126327290Y-110134234D01*
X126354739Y-110156761D01*
X126377266Y-110184210D01*
X126394007Y-110215531D01*
X126404315Y-110249509D01*
X126408400Y-110290990D01*
X126408400Y-110892210D01*
X126404315Y-110933691D01*
X126394007Y-110967669D01*
X126377266Y-110998990D01*
X126354739Y-111026439D01*
X126327290Y-111048966D01*
X126295969Y-111065707D01*
X126261991Y-111076015D01*
X126220510Y-111080100D01*
X125544290Y-111080100D01*
X125502809Y-111076015D01*
X125468831Y-111065707D01*
X125437510Y-111048966D01*
X125410061Y-111026439D01*
X125387534Y-110998990D01*
X125370793Y-110967669D01*
X125360485Y-110933691D01*
X125356400Y-110892210D01*
X125356400Y-110290990D01*
X125360485Y-110249509D01*
X125370793Y-110215531D01*
X125387534Y-110184210D01*
X125410061Y-110156761D01*
X125437510Y-110134234D01*
X125468831Y-110117493D01*
X125502809Y-110107185D01*
X125544290Y-110103100D01*
X126220510Y-110103100D01*
X126261991Y-110107185D01*
X126261991Y-110107185D01*
G37*
G36*
X129295200Y-110952400D02*
G01*
X128393200Y-110952400D01*
X128393200Y-109950400D01*
X129295200Y-109950400D01*
X129295200Y-110952400D01*
X129295200Y-110952400D01*
G37*
G36*
X128045200Y-110952400D02*
G01*
X127143200Y-110952400D01*
X127143200Y-109950400D01*
X128045200Y-109950400D01*
X128045200Y-110952400D01*
X128045200Y-110952400D01*
G37*
G36*
X145819991Y-109954985D02*
G01*
X145853969Y-109965293D01*
X145885290Y-109982034D01*
X145912739Y-110004561D01*
X145935266Y-110032010D01*
X145952007Y-110063331D01*
X145962315Y-110097309D01*
X145966400Y-110138790D01*
X145966400Y-110740010D01*
X145962315Y-110781491D01*
X145952007Y-110815469D01*
X145935266Y-110846790D01*
X145912739Y-110874239D01*
X145885290Y-110896766D01*
X145853969Y-110913507D01*
X145819991Y-110923815D01*
X145778510Y-110927900D01*
X145102290Y-110927900D01*
X145060809Y-110923815D01*
X145026831Y-110913507D01*
X144995510Y-110896766D01*
X144968061Y-110874239D01*
X144945534Y-110846790D01*
X144928793Y-110815469D01*
X144918485Y-110781491D01*
X144914400Y-110740010D01*
X144914400Y-110138790D01*
X144918485Y-110097309D01*
X144928793Y-110063331D01*
X144945534Y-110032010D01*
X144968061Y-110004561D01*
X144995510Y-109982034D01*
X145026831Y-109965293D01*
X145060809Y-109954985D01*
X145102290Y-109950900D01*
X145778510Y-109950900D01*
X145819991Y-109954985D01*
X145819991Y-109954985D01*
G37*
G36*
X140790400Y-110666000D02*
G01*
X135358400Y-110666000D01*
X135358400Y-107234999D01*
X136218400Y-107234999D01*
X136218400Y-109681001D01*
X136220802Y-109705387D01*
X136227915Y-109728836D01*
X136239466Y-109750447D01*
X136255011Y-109769389D01*
X136273953Y-109784934D01*
X136295564Y-109796485D01*
X136319013Y-109803598D01*
X136343399Y-109806000D01*
X139805401Y-109806000D01*
X139829787Y-109803598D01*
X139853236Y-109796485D01*
X139874847Y-109784934D01*
X139893789Y-109769389D01*
X139909334Y-109750447D01*
X139920885Y-109728836D01*
X139927998Y-109705387D01*
X139930400Y-109681001D01*
X139930400Y-107234999D01*
X139927998Y-107210613D01*
X139920885Y-107187164D01*
X139909334Y-107165553D01*
X139893789Y-107146611D01*
X139874847Y-107131066D01*
X139853236Y-107119515D01*
X139829787Y-107112402D01*
X139805401Y-107110000D01*
X136343399Y-107110000D01*
X136319013Y-107112402D01*
X136295564Y-107119515D01*
X136273953Y-107131066D01*
X136255011Y-107146611D01*
X136239466Y-107165553D01*
X136227915Y-107187164D01*
X136220802Y-107210613D01*
X136218400Y-107234999D01*
X135358400Y-107234999D01*
X135358400Y-106250000D01*
X140790400Y-106250000D01*
X140790400Y-110666000D01*
X140790400Y-110666000D01*
G37*
G36*
X138758400Y-109142000D02*
G01*
X137390400Y-109142000D01*
X137390400Y-108250999D01*
X137742400Y-108250999D01*
X137742400Y-108665001D01*
X137744802Y-108689387D01*
X137751915Y-108712836D01*
X137763466Y-108734447D01*
X137779011Y-108753389D01*
X137797953Y-108768934D01*
X137819564Y-108780485D01*
X137843013Y-108787598D01*
X137867399Y-108790000D01*
X138281401Y-108790000D01*
X138305787Y-108787598D01*
X138329236Y-108780485D01*
X138350847Y-108768934D01*
X138369789Y-108753389D01*
X138385334Y-108734447D01*
X138396885Y-108712836D01*
X138403998Y-108689387D01*
X138406400Y-108665001D01*
X138406400Y-108250999D01*
X138403998Y-108226613D01*
X138396885Y-108203164D01*
X138385334Y-108181553D01*
X138369789Y-108162611D01*
X138350847Y-108147066D01*
X138329236Y-108135515D01*
X138305787Y-108128402D01*
X138281401Y-108126000D01*
X137867399Y-108126000D01*
X137843013Y-108128402D01*
X137819564Y-108135515D01*
X137797953Y-108147066D01*
X137779011Y-108162611D01*
X137763466Y-108181553D01*
X137751915Y-108203164D01*
X137744802Y-108226613D01*
X137742400Y-108250999D01*
X137390400Y-108250999D01*
X137390400Y-107774000D01*
X138758400Y-107774000D01*
X138758400Y-109142000D01*
X138758400Y-109142000D01*
G37*
G36*
X126261991Y-108634185D02*
G01*
X126295969Y-108644493D01*
X126327290Y-108661234D01*
X126354739Y-108683761D01*
X126377266Y-108711210D01*
X126394007Y-108742531D01*
X126404315Y-108776509D01*
X126408400Y-108817990D01*
X126408400Y-109419210D01*
X126404315Y-109460691D01*
X126394007Y-109494669D01*
X126377266Y-109525990D01*
X126354739Y-109553439D01*
X126327290Y-109575966D01*
X126295969Y-109592707D01*
X126261991Y-109603015D01*
X126220510Y-109607100D01*
X125544290Y-109607100D01*
X125502809Y-109603015D01*
X125468831Y-109592707D01*
X125437510Y-109575966D01*
X125410061Y-109553439D01*
X125387534Y-109525990D01*
X125370793Y-109494669D01*
X125360485Y-109460691D01*
X125356400Y-109419210D01*
X125356400Y-108817990D01*
X125360485Y-108776509D01*
X125370793Y-108742531D01*
X125387534Y-108711210D01*
X125410061Y-108683761D01*
X125437510Y-108661234D01*
X125468831Y-108644493D01*
X125502809Y-108634185D01*
X125544290Y-108630100D01*
X126220510Y-108630100D01*
X126261991Y-108634185D01*
X126261991Y-108634185D01*
G37*
G36*
X147445591Y-108582985D02*
G01*
X147479569Y-108593293D01*
X147510890Y-108610034D01*
X147538339Y-108632561D01*
X147560866Y-108660010D01*
X147577607Y-108691331D01*
X147587915Y-108725309D01*
X147592000Y-108766790D01*
X147592000Y-109368010D01*
X147587915Y-109409491D01*
X147577607Y-109443469D01*
X147560866Y-109474790D01*
X147538339Y-109502239D01*
X147510890Y-109524766D01*
X147479569Y-109541507D01*
X147445591Y-109551815D01*
X147404110Y-109555900D01*
X146727890Y-109555900D01*
X146686409Y-109551815D01*
X146652431Y-109541507D01*
X146621110Y-109524766D01*
X146593661Y-109502239D01*
X146571134Y-109474790D01*
X146554393Y-109443469D01*
X146544085Y-109409491D01*
X146540000Y-109368010D01*
X146540000Y-108766790D01*
X146544085Y-108725309D01*
X146554393Y-108691331D01*
X146571134Y-108660010D01*
X146593661Y-108632561D01*
X146621110Y-108610034D01*
X146652431Y-108593293D01*
X146686409Y-108582985D01*
X146727890Y-108578900D01*
X147404110Y-108578900D01*
X147445591Y-108582985D01*
X147445591Y-108582985D01*
G37*
G36*
X145819991Y-108379985D02*
G01*
X145853969Y-108390293D01*
X145885290Y-108407034D01*
X145912739Y-108429561D01*
X145935266Y-108457010D01*
X145952007Y-108488331D01*
X145962315Y-108522309D01*
X145966400Y-108563790D01*
X145966400Y-109165010D01*
X145962315Y-109206491D01*
X145952007Y-109240469D01*
X145935266Y-109271790D01*
X145912739Y-109299239D01*
X145885290Y-109321766D01*
X145853969Y-109338507D01*
X145819991Y-109348815D01*
X145778510Y-109352900D01*
X145102290Y-109352900D01*
X145060809Y-109348815D01*
X145026831Y-109338507D01*
X144995510Y-109321766D01*
X144968061Y-109299239D01*
X144945534Y-109271790D01*
X144928793Y-109240469D01*
X144918485Y-109206491D01*
X144914400Y-109165010D01*
X144914400Y-108563790D01*
X144918485Y-108522309D01*
X144928793Y-108488331D01*
X144945534Y-108457010D01*
X144968061Y-108429561D01*
X144995510Y-108407034D01*
X145026831Y-108390293D01*
X145060809Y-108379985D01*
X145102290Y-108375900D01*
X145778510Y-108375900D01*
X145819991Y-108379985D01*
X145819991Y-108379985D01*
G37*
G36*
X128045200Y-109302400D02*
G01*
X127143200Y-109302400D01*
X127143200Y-108300400D01*
X128045200Y-108300400D01*
X128045200Y-109302400D01*
X128045200Y-109302400D01*
G37*
G36*
X129295200Y-109302400D02*
G01*
X128393200Y-109302400D01*
X128393200Y-108300400D01*
X129295200Y-108300400D01*
X129295200Y-109302400D01*
X129295200Y-109302400D01*
G37*
G36*
X150899991Y-107922985D02*
G01*
X150933969Y-107933293D01*
X150965290Y-107950034D01*
X150992739Y-107972561D01*
X151015266Y-108000010D01*
X151032007Y-108031331D01*
X151042315Y-108065309D01*
X151046400Y-108106790D01*
X151046400Y-108708010D01*
X151042315Y-108749491D01*
X151032007Y-108783469D01*
X151015266Y-108814790D01*
X150992739Y-108842239D01*
X150965290Y-108864766D01*
X150933969Y-108881507D01*
X150899991Y-108891815D01*
X150858510Y-108895900D01*
X150182290Y-108895900D01*
X150140809Y-108891815D01*
X150106831Y-108881507D01*
X150075510Y-108864766D01*
X150048061Y-108842239D01*
X150025534Y-108814790D01*
X150008793Y-108783469D01*
X149998485Y-108749491D01*
X149994400Y-108708010D01*
X149994400Y-108106790D01*
X149998485Y-108065309D01*
X150008793Y-108031331D01*
X150025534Y-108000010D01*
X150048061Y-107972561D01*
X150075510Y-107950034D01*
X150106831Y-107933293D01*
X150140809Y-107922985D01*
X150182290Y-107918900D01*
X150858510Y-107918900D01*
X150899991Y-107922985D01*
X150899991Y-107922985D01*
G37*
G36*
X126261991Y-107059185D02*
G01*
X126295969Y-107069493D01*
X126327290Y-107086234D01*
X126354739Y-107108761D01*
X126377266Y-107136210D01*
X126394007Y-107167531D01*
X126404315Y-107201509D01*
X126408400Y-107242990D01*
X126408400Y-107844210D01*
X126404315Y-107885691D01*
X126394007Y-107919669D01*
X126377266Y-107950990D01*
X126354739Y-107978439D01*
X126327290Y-108000966D01*
X126295969Y-108017707D01*
X126261991Y-108028015D01*
X126220510Y-108032100D01*
X125544290Y-108032100D01*
X125502809Y-108028015D01*
X125468831Y-108017707D01*
X125437510Y-108000966D01*
X125410061Y-107978439D01*
X125387534Y-107950990D01*
X125370793Y-107919669D01*
X125360485Y-107885691D01*
X125356400Y-107844210D01*
X125356400Y-107242990D01*
X125360485Y-107201509D01*
X125370793Y-107167531D01*
X125387534Y-107136210D01*
X125410061Y-107108761D01*
X125437510Y-107086234D01*
X125468831Y-107069493D01*
X125502809Y-107059185D01*
X125544290Y-107055100D01*
X126220510Y-107055100D01*
X126261991Y-107059185D01*
X126261991Y-107059185D01*
G37*
G36*
X145477691Y-106462885D02*
G01*
X145511669Y-106473193D01*
X145542990Y-106489934D01*
X145570439Y-106512461D01*
X145592966Y-106539910D01*
X145609707Y-106571231D01*
X145620015Y-106605209D01*
X145624100Y-106646690D01*
X145624100Y-107322910D01*
X145620015Y-107364391D01*
X145609707Y-107398369D01*
X145592966Y-107429690D01*
X145570439Y-107457139D01*
X145542990Y-107479666D01*
X145511669Y-107496407D01*
X145477691Y-107506715D01*
X145436210Y-107510800D01*
X144834990Y-107510800D01*
X144793509Y-107506715D01*
X144759531Y-107496407D01*
X144728210Y-107479666D01*
X144700761Y-107457139D01*
X144678234Y-107429690D01*
X144661493Y-107398369D01*
X144651185Y-107364391D01*
X144647100Y-107322910D01*
X144647100Y-106646690D01*
X144651185Y-106605209D01*
X144661493Y-106571231D01*
X144678234Y-106539910D01*
X144700761Y-106512461D01*
X144728210Y-106489934D01*
X144759531Y-106473193D01*
X144793509Y-106462885D01*
X144834990Y-106458800D01*
X145436210Y-106458800D01*
X145477691Y-106462885D01*
X145477691Y-106462885D01*
G37*
G36*
X143902691Y-106462885D02*
G01*
X143936669Y-106473193D01*
X143967990Y-106489934D01*
X143995439Y-106512461D01*
X144017966Y-106539910D01*
X144034707Y-106571231D01*
X144045015Y-106605209D01*
X144049100Y-106646690D01*
X144049100Y-107322910D01*
X144045015Y-107364391D01*
X144034707Y-107398369D01*
X144017966Y-107429690D01*
X143995439Y-107457139D01*
X143967990Y-107479666D01*
X143936669Y-107496407D01*
X143902691Y-107506715D01*
X143861210Y-107510800D01*
X143259990Y-107510800D01*
X143218509Y-107506715D01*
X143184531Y-107496407D01*
X143153210Y-107479666D01*
X143125761Y-107457139D01*
X143103234Y-107429690D01*
X143086493Y-107398369D01*
X143076185Y-107364391D01*
X143072100Y-107322910D01*
X143072100Y-106646690D01*
X143076185Y-106605209D01*
X143086493Y-106571231D01*
X143103234Y-106539910D01*
X143125761Y-106512461D01*
X143153210Y-106489934D01*
X143184531Y-106473193D01*
X143218509Y-106462885D01*
X143259990Y-106458800D01*
X143861210Y-106458800D01*
X143902691Y-106462885D01*
X143902691Y-106462885D01*
G37*
G36*
X150899991Y-106347985D02*
G01*
X150933969Y-106358293D01*
X150965290Y-106375034D01*
X150992739Y-106397561D01*
X151015266Y-106425010D01*
X151032007Y-106456331D01*
X151042315Y-106490309D01*
X151046400Y-106531790D01*
X151046400Y-107133010D01*
X151042315Y-107174491D01*
X151032007Y-107208469D01*
X151015266Y-107239790D01*
X150992739Y-107267239D01*
X150965290Y-107289766D01*
X150933969Y-107306507D01*
X150899991Y-107316815D01*
X150858510Y-107320900D01*
X150182290Y-107320900D01*
X150140809Y-107316815D01*
X150106831Y-107306507D01*
X150075510Y-107289766D01*
X150048061Y-107267239D01*
X150025534Y-107239790D01*
X150008793Y-107208469D01*
X149998485Y-107174491D01*
X149994400Y-107133010D01*
X149994400Y-106531790D01*
X149998485Y-106490309D01*
X150008793Y-106456331D01*
X150025534Y-106425010D01*
X150048061Y-106397561D01*
X150075510Y-106375034D01*
X150106831Y-106358293D01*
X150140809Y-106347985D01*
X150182290Y-106343900D01*
X150858510Y-106343900D01*
X150899991Y-106347985D01*
X150899991Y-106347985D01*
G37*
G36*
X132777891Y-105853285D02*
G01*
X132811869Y-105863593D01*
X132843190Y-105880334D01*
X132870639Y-105902861D01*
X132893166Y-105930310D01*
X132909907Y-105961631D01*
X132920215Y-105995609D01*
X132924300Y-106037090D01*
X132924300Y-106713310D01*
X132920215Y-106754791D01*
X132909907Y-106788769D01*
X132893166Y-106820090D01*
X132870639Y-106847539D01*
X132843190Y-106870066D01*
X132811869Y-106886807D01*
X132777891Y-106897115D01*
X132736410Y-106901200D01*
X132135190Y-106901200D01*
X132093709Y-106897115D01*
X132059731Y-106886807D01*
X132028410Y-106870066D01*
X132000961Y-106847539D01*
X131978434Y-106820090D01*
X131961693Y-106788769D01*
X131951385Y-106754791D01*
X131947300Y-106713310D01*
X131947300Y-106037090D01*
X131951385Y-105995609D01*
X131961693Y-105961631D01*
X131978434Y-105930310D01*
X132000961Y-105902861D01*
X132028410Y-105880334D01*
X132059731Y-105863593D01*
X132093709Y-105853285D01*
X132135190Y-105849200D01*
X132736410Y-105849200D01*
X132777891Y-105853285D01*
X132777891Y-105853285D01*
G37*
G36*
X131202891Y-105853285D02*
G01*
X131236869Y-105863593D01*
X131268190Y-105880334D01*
X131295639Y-105902861D01*
X131318166Y-105930310D01*
X131334907Y-105961631D01*
X131345215Y-105995609D01*
X131349300Y-106037090D01*
X131349300Y-106713310D01*
X131345215Y-106754791D01*
X131334907Y-106788769D01*
X131318166Y-106820090D01*
X131295639Y-106847539D01*
X131268190Y-106870066D01*
X131236869Y-106886807D01*
X131202891Y-106897115D01*
X131161410Y-106901200D01*
X130560190Y-106901200D01*
X130518709Y-106897115D01*
X130484731Y-106886807D01*
X130453410Y-106870066D01*
X130425961Y-106847539D01*
X130403434Y-106820090D01*
X130386693Y-106788769D01*
X130376385Y-106754791D01*
X130372300Y-106713310D01*
X130372300Y-106037090D01*
X130376385Y-105995609D01*
X130386693Y-105961631D01*
X130403434Y-105930310D01*
X130425961Y-105902861D01*
X130453410Y-105880334D01*
X130484731Y-105863593D01*
X130518709Y-105853285D01*
X130560190Y-105849200D01*
X131161410Y-105849200D01*
X131202891Y-105853285D01*
X131202891Y-105853285D01*
G37*
G36*
X147001491Y-105091285D02*
G01*
X147035469Y-105101593D01*
X147066790Y-105118334D01*
X147094239Y-105140861D01*
X147116766Y-105168310D01*
X147133507Y-105199631D01*
X147143815Y-105233609D01*
X147147900Y-105275090D01*
X147147900Y-105951310D01*
X147143815Y-105992791D01*
X147133507Y-106026769D01*
X147116766Y-106058090D01*
X147094239Y-106085539D01*
X147066790Y-106108066D01*
X147035469Y-106124807D01*
X147001491Y-106135115D01*
X146960010Y-106139200D01*
X146358790Y-106139200D01*
X146317309Y-106135115D01*
X146283331Y-106124807D01*
X146252010Y-106108066D01*
X146224561Y-106085539D01*
X146202034Y-106058090D01*
X146185293Y-106026769D01*
X146174985Y-105992791D01*
X146170900Y-105951310D01*
X146170900Y-105275090D01*
X146174985Y-105233609D01*
X146185293Y-105199631D01*
X146202034Y-105168310D01*
X146224561Y-105140861D01*
X146252010Y-105118334D01*
X146283331Y-105101593D01*
X146317309Y-105091285D01*
X146358790Y-105087200D01*
X146960010Y-105087200D01*
X147001491Y-105091285D01*
X147001491Y-105091285D01*
G37*
G36*
X148576491Y-105091285D02*
G01*
X148610469Y-105101593D01*
X148641790Y-105118334D01*
X148669239Y-105140861D01*
X148691766Y-105168310D01*
X148708507Y-105199631D01*
X148718815Y-105233609D01*
X148722900Y-105275090D01*
X148722900Y-105951310D01*
X148718815Y-105992791D01*
X148708507Y-106026769D01*
X148691766Y-106058090D01*
X148669239Y-106085539D01*
X148641790Y-106108066D01*
X148610469Y-106124807D01*
X148576491Y-106135115D01*
X148535010Y-106139200D01*
X147933790Y-106139200D01*
X147892309Y-106135115D01*
X147858331Y-106124807D01*
X147827010Y-106108066D01*
X147799561Y-106085539D01*
X147777034Y-106058090D01*
X147760293Y-106026769D01*
X147749985Y-105992791D01*
X147745900Y-105951310D01*
X147745900Y-105275090D01*
X147749985Y-105233609D01*
X147760293Y-105199631D01*
X147777034Y-105168310D01*
X147799561Y-105140861D01*
X147827010Y-105118334D01*
X147858331Y-105101593D01*
X147892309Y-105091285D01*
X147933790Y-105087200D01*
X148535010Y-105087200D01*
X148576491Y-105091285D01*
X148576491Y-105091285D01*
G37*
G36*
X138657191Y-104671585D02*
G01*
X138691169Y-104681893D01*
X138722490Y-104698634D01*
X138749939Y-104721161D01*
X138772466Y-104748610D01*
X138789207Y-104779931D01*
X138799515Y-104813909D01*
X138803600Y-104855390D01*
X138803600Y-105456610D01*
X138799515Y-105498091D01*
X138789207Y-105532069D01*
X138772466Y-105563390D01*
X138749939Y-105590839D01*
X138722490Y-105613366D01*
X138691169Y-105630107D01*
X138657191Y-105640415D01*
X138615710Y-105644500D01*
X137939490Y-105644500D01*
X137898009Y-105640415D01*
X137864031Y-105630107D01*
X137832710Y-105613366D01*
X137805261Y-105590839D01*
X137782734Y-105563390D01*
X137765993Y-105532069D01*
X137755685Y-105498091D01*
X137751600Y-105456610D01*
X137751600Y-104855390D01*
X137755685Y-104813909D01*
X137765993Y-104779931D01*
X137782734Y-104748610D01*
X137805261Y-104721161D01*
X137832710Y-104698634D01*
X137864031Y-104681893D01*
X137898009Y-104671585D01*
X137939490Y-104667500D01*
X138615710Y-104667500D01*
X138657191Y-104671585D01*
X138657191Y-104671585D01*
G37*
G36*
X125716291Y-104176885D02*
G01*
X125750269Y-104187193D01*
X125781590Y-104203934D01*
X125809039Y-104226461D01*
X125831566Y-104253910D01*
X125848307Y-104285231D01*
X125858615Y-104319209D01*
X125862700Y-104360690D01*
X125862700Y-105036910D01*
X125858615Y-105078391D01*
X125848307Y-105112369D01*
X125831566Y-105143690D01*
X125809039Y-105171139D01*
X125781590Y-105193666D01*
X125750269Y-105210407D01*
X125716291Y-105220715D01*
X125674810Y-105224800D01*
X125073590Y-105224800D01*
X125032109Y-105220715D01*
X124998131Y-105210407D01*
X124966810Y-105193666D01*
X124939361Y-105171139D01*
X124916834Y-105143690D01*
X124900093Y-105112369D01*
X124889785Y-105078391D01*
X124885700Y-105036910D01*
X124885700Y-104360690D01*
X124889785Y-104319209D01*
X124900093Y-104285231D01*
X124916834Y-104253910D01*
X124939361Y-104226461D01*
X124966810Y-104203934D01*
X124998131Y-104187193D01*
X125032109Y-104176885D01*
X125073590Y-104172800D01*
X125674810Y-104172800D01*
X125716291Y-104176885D01*
X125716291Y-104176885D01*
G37*
G36*
X127291291Y-104176885D02*
G01*
X127325269Y-104187193D01*
X127356590Y-104203934D01*
X127384039Y-104226461D01*
X127406566Y-104253910D01*
X127423307Y-104285231D01*
X127433615Y-104319209D01*
X127437700Y-104360690D01*
X127437700Y-105036910D01*
X127433615Y-105078391D01*
X127423307Y-105112369D01*
X127406566Y-105143690D01*
X127384039Y-105171139D01*
X127356590Y-105193666D01*
X127325269Y-105210407D01*
X127291291Y-105220715D01*
X127249810Y-105224800D01*
X126648590Y-105224800D01*
X126607109Y-105220715D01*
X126573131Y-105210407D01*
X126541810Y-105193666D01*
X126514361Y-105171139D01*
X126491834Y-105143690D01*
X126475093Y-105112369D01*
X126464785Y-105078391D01*
X126460700Y-105036910D01*
X126460700Y-104360690D01*
X126464785Y-104319209D01*
X126475093Y-104285231D01*
X126491834Y-104253910D01*
X126514361Y-104226461D01*
X126541810Y-104203934D01*
X126573131Y-104187193D01*
X126607109Y-104176885D01*
X126648590Y-104172800D01*
X127249810Y-104172800D01*
X127291291Y-104176885D01*
X127291291Y-104176885D01*
G37*
G36*
X129069091Y-103973685D02*
G01*
X129103069Y-103983993D01*
X129134390Y-104000734D01*
X129161839Y-104023261D01*
X129184366Y-104050710D01*
X129201107Y-104082031D01*
X129211415Y-104116009D01*
X129215500Y-104157490D01*
X129215500Y-104833710D01*
X129211415Y-104875191D01*
X129201107Y-104909169D01*
X129184366Y-104940490D01*
X129161839Y-104967939D01*
X129134390Y-104990466D01*
X129103069Y-105007207D01*
X129069091Y-105017515D01*
X129027610Y-105021600D01*
X128426390Y-105021600D01*
X128384909Y-105017515D01*
X128350931Y-105007207D01*
X128319610Y-104990466D01*
X128292161Y-104967939D01*
X128269634Y-104940490D01*
X128252893Y-104909169D01*
X128242585Y-104875191D01*
X128238500Y-104833710D01*
X128238500Y-104157490D01*
X128242585Y-104116009D01*
X128252893Y-104082031D01*
X128269634Y-104050710D01*
X128292161Y-104023261D01*
X128319610Y-104000734D01*
X128350931Y-103983993D01*
X128384909Y-103973685D01*
X128426390Y-103969600D01*
X129027610Y-103969600D01*
X129069091Y-103973685D01*
X129069091Y-103973685D01*
G37*
G36*
X130644091Y-103973685D02*
G01*
X130678069Y-103983993D01*
X130709390Y-104000734D01*
X130736839Y-104023261D01*
X130759366Y-104050710D01*
X130776107Y-104082031D01*
X130786415Y-104116009D01*
X130790500Y-104157490D01*
X130790500Y-104833710D01*
X130786415Y-104875191D01*
X130776107Y-104909169D01*
X130759366Y-104940490D01*
X130736839Y-104967939D01*
X130709390Y-104990466D01*
X130678069Y-105007207D01*
X130644091Y-105017515D01*
X130602610Y-105021600D01*
X130001390Y-105021600D01*
X129959909Y-105017515D01*
X129925931Y-105007207D01*
X129894610Y-104990466D01*
X129867161Y-104967939D01*
X129844634Y-104940490D01*
X129827893Y-104909169D01*
X129817585Y-104875191D01*
X129813500Y-104833710D01*
X129813500Y-104157490D01*
X129817585Y-104116009D01*
X129827893Y-104082031D01*
X129844634Y-104050710D01*
X129867161Y-104023261D01*
X129894610Y-104000734D01*
X129925931Y-103983993D01*
X129959909Y-103973685D01*
X130001390Y-103969600D01*
X130602610Y-103969600D01*
X130644091Y-103973685D01*
X130644091Y-103973685D01*
G37*
G36*
X147293191Y-103503185D02*
G01*
X147327169Y-103513493D01*
X147358490Y-103530234D01*
X147385939Y-103552761D01*
X147408466Y-103580210D01*
X147425207Y-103611531D01*
X147435515Y-103645509D01*
X147439600Y-103686990D01*
X147439600Y-104288210D01*
X147435515Y-104329691D01*
X147425207Y-104363669D01*
X147408466Y-104394990D01*
X147385939Y-104422439D01*
X147358490Y-104444966D01*
X147327169Y-104461707D01*
X147293191Y-104472015D01*
X147251710Y-104476100D01*
X146575490Y-104476100D01*
X146534009Y-104472015D01*
X146500031Y-104461707D01*
X146468710Y-104444966D01*
X146441261Y-104422439D01*
X146418734Y-104394990D01*
X146401993Y-104363669D01*
X146391685Y-104329691D01*
X146387600Y-104288210D01*
X146387600Y-103686990D01*
X146391685Y-103645509D01*
X146401993Y-103611531D01*
X146418734Y-103580210D01*
X146441261Y-103552761D01*
X146468710Y-103530234D01*
X146500031Y-103513493D01*
X146534009Y-103503185D01*
X146575490Y-103499100D01*
X147251710Y-103499100D01*
X147293191Y-103503185D01*
X147293191Y-103503185D01*
G37*
G36*
X149310200Y-104271000D02*
G01*
X148308200Y-104271000D01*
X148308200Y-103369000D01*
X149310200Y-103369000D01*
X149310200Y-104271000D01*
X149310200Y-104271000D01*
G37*
G36*
X138657191Y-103096585D02*
G01*
X138691169Y-103106893D01*
X138722490Y-103123634D01*
X138749939Y-103146161D01*
X138772466Y-103173610D01*
X138789207Y-103204931D01*
X138799515Y-103238909D01*
X138803600Y-103280390D01*
X138803600Y-103881610D01*
X138799515Y-103923091D01*
X138789207Y-103957069D01*
X138772466Y-103988390D01*
X138749939Y-104015839D01*
X138722490Y-104038366D01*
X138691169Y-104055107D01*
X138657191Y-104065415D01*
X138615710Y-104069500D01*
X137939490Y-104069500D01*
X137898009Y-104065415D01*
X137864031Y-104055107D01*
X137832710Y-104038366D01*
X137805261Y-104015839D01*
X137782734Y-103988390D01*
X137765993Y-103957069D01*
X137755685Y-103923091D01*
X137751600Y-103881610D01*
X137751600Y-103280390D01*
X137755685Y-103238909D01*
X137765993Y-103204931D01*
X137782734Y-103173610D01*
X137805261Y-103146161D01*
X137832710Y-103123634D01*
X137864031Y-103106893D01*
X137898009Y-103096585D01*
X137939490Y-103092500D01*
X138615710Y-103092500D01*
X138657191Y-103096585D01*
X138657191Y-103096585D01*
G37*
G36*
X134389991Y-102487185D02*
G01*
X134423969Y-102497493D01*
X134455290Y-102514234D01*
X134482739Y-102536761D01*
X134505266Y-102564210D01*
X134522007Y-102595531D01*
X134532315Y-102629509D01*
X134536400Y-102670990D01*
X134536400Y-103272210D01*
X134532315Y-103313691D01*
X134522007Y-103347669D01*
X134505266Y-103378990D01*
X134482739Y-103406439D01*
X134455290Y-103428966D01*
X134423969Y-103445707D01*
X134389991Y-103456015D01*
X134348510Y-103460100D01*
X133672290Y-103460100D01*
X133630809Y-103456015D01*
X133596831Y-103445707D01*
X133565510Y-103428966D01*
X133538061Y-103406439D01*
X133515534Y-103378990D01*
X133498793Y-103347669D01*
X133488485Y-103313691D01*
X133484400Y-103272210D01*
X133484400Y-102670990D01*
X133488485Y-102629509D01*
X133498793Y-102595531D01*
X133515534Y-102564210D01*
X133538061Y-102536761D01*
X133565510Y-102514234D01*
X133596831Y-102497493D01*
X133630809Y-102487185D01*
X133672290Y-102483100D01*
X134348510Y-102483100D01*
X134389991Y-102487185D01*
X134389991Y-102487185D01*
G37*
G36*
X151310200Y-103321000D02*
G01*
X150308200Y-103321000D01*
X150308200Y-102419000D01*
X151310200Y-102419000D01*
X151310200Y-103321000D01*
X151310200Y-103321000D01*
G37*
G36*
X141857591Y-102283985D02*
G01*
X141891569Y-102294293D01*
X141922890Y-102311034D01*
X141950339Y-102333561D01*
X141972866Y-102361010D01*
X141989607Y-102392331D01*
X141999915Y-102426309D01*
X142004000Y-102467790D01*
X142004000Y-103069010D01*
X141999915Y-103110491D01*
X141989607Y-103144469D01*
X141972866Y-103175790D01*
X141950339Y-103203239D01*
X141922890Y-103225766D01*
X141891569Y-103242507D01*
X141857591Y-103252815D01*
X141816110Y-103256900D01*
X141139890Y-103256900D01*
X141098409Y-103252815D01*
X141064431Y-103242507D01*
X141033110Y-103225766D01*
X141005661Y-103203239D01*
X140983134Y-103175790D01*
X140966393Y-103144469D01*
X140956085Y-103110491D01*
X140952000Y-103069010D01*
X140952000Y-102467790D01*
X140956085Y-102426309D01*
X140966393Y-102392331D01*
X140983134Y-102361010D01*
X141005661Y-102333561D01*
X141033110Y-102311034D01*
X141064431Y-102294293D01*
X141098409Y-102283985D01*
X141139890Y-102279900D01*
X141816110Y-102279900D01*
X141857591Y-102283985D01*
X141857591Y-102283985D01*
G37*
G36*
X147293191Y-101928185D02*
G01*
X147327169Y-101938493D01*
X147358490Y-101955234D01*
X147385939Y-101977761D01*
X147408466Y-102005210D01*
X147425207Y-102036531D01*
X147435515Y-102070509D01*
X147439600Y-102111990D01*
X147439600Y-102713210D01*
X147435515Y-102754691D01*
X147425207Y-102788669D01*
X147408466Y-102819990D01*
X147385939Y-102847439D01*
X147358490Y-102869966D01*
X147327169Y-102886707D01*
X147293191Y-102897015D01*
X147251710Y-102901100D01*
X146575490Y-102901100D01*
X146534009Y-102897015D01*
X146500031Y-102886707D01*
X146468710Y-102869966D01*
X146441261Y-102847439D01*
X146418734Y-102819990D01*
X146401993Y-102788669D01*
X146391685Y-102754691D01*
X146387600Y-102713210D01*
X146387600Y-102111990D01*
X146391685Y-102070509D01*
X146401993Y-102036531D01*
X146418734Y-102005210D01*
X146441261Y-101977761D01*
X146468710Y-101955234D01*
X146500031Y-101938493D01*
X146534009Y-101928185D01*
X146575490Y-101924100D01*
X147251710Y-101924100D01*
X147293191Y-101928185D01*
X147293191Y-101928185D01*
G37*
G36*
X149310200Y-102371000D02*
G01*
X148308200Y-102371000D01*
X148308200Y-101469000D01*
X149310200Y-101469000D01*
X149310200Y-102371000D01*
X149310200Y-102371000D01*
G37*
G36*
X127596091Y-100976485D02*
G01*
X127630069Y-100986793D01*
X127661390Y-101003534D01*
X127688839Y-101026061D01*
X127711366Y-101053510D01*
X127728107Y-101084831D01*
X127738415Y-101118809D01*
X127742500Y-101160290D01*
X127742500Y-101836510D01*
X127738415Y-101877991D01*
X127728107Y-101911969D01*
X127711366Y-101943290D01*
X127688839Y-101970739D01*
X127661390Y-101993266D01*
X127630069Y-102010007D01*
X127596091Y-102020315D01*
X127554610Y-102024400D01*
X126953390Y-102024400D01*
X126911909Y-102020315D01*
X126877931Y-102010007D01*
X126846610Y-101993266D01*
X126819161Y-101970739D01*
X126796634Y-101943290D01*
X126779893Y-101911969D01*
X126769585Y-101877991D01*
X126765500Y-101836510D01*
X126765500Y-101160290D01*
X126769585Y-101118809D01*
X126779893Y-101084831D01*
X126796634Y-101053510D01*
X126819161Y-101026061D01*
X126846610Y-101003534D01*
X126877931Y-100986793D01*
X126911909Y-100976485D01*
X126953390Y-100972400D01*
X127554610Y-100972400D01*
X127596091Y-100976485D01*
X127596091Y-100976485D01*
G37*
G36*
X126021091Y-100976485D02*
G01*
X126055069Y-100986793D01*
X126086390Y-101003534D01*
X126113839Y-101026061D01*
X126136366Y-101053510D01*
X126153107Y-101084831D01*
X126163415Y-101118809D01*
X126167500Y-101160290D01*
X126167500Y-101836510D01*
X126163415Y-101877991D01*
X126153107Y-101911969D01*
X126136366Y-101943290D01*
X126113839Y-101970739D01*
X126086390Y-101993266D01*
X126055069Y-102010007D01*
X126021091Y-102020315D01*
X125979610Y-102024400D01*
X125378390Y-102024400D01*
X125336909Y-102020315D01*
X125302931Y-102010007D01*
X125271610Y-101993266D01*
X125244161Y-101970739D01*
X125221634Y-101943290D01*
X125204893Y-101911969D01*
X125194585Y-101877991D01*
X125190500Y-101836510D01*
X125190500Y-101160290D01*
X125194585Y-101118809D01*
X125204893Y-101084831D01*
X125221634Y-101053510D01*
X125244161Y-101026061D01*
X125271610Y-101003534D01*
X125302931Y-100986793D01*
X125336909Y-100976485D01*
X125378390Y-100972400D01*
X125979610Y-100972400D01*
X126021091Y-100976485D01*
X126021091Y-100976485D01*
G37*
G36*
X134389991Y-100912185D02*
G01*
X134423969Y-100922493D01*
X134455290Y-100939234D01*
X134482739Y-100961761D01*
X134505266Y-100989210D01*
X134522007Y-101020531D01*
X134532315Y-101054509D01*
X134536400Y-101095990D01*
X134536400Y-101697210D01*
X134532315Y-101738691D01*
X134522007Y-101772669D01*
X134505266Y-101803990D01*
X134482739Y-101831439D01*
X134455290Y-101853966D01*
X134423969Y-101870707D01*
X134389991Y-101881015D01*
X134348510Y-101885100D01*
X133672290Y-101885100D01*
X133630809Y-101881015D01*
X133596831Y-101870707D01*
X133565510Y-101853966D01*
X133538061Y-101831439D01*
X133515534Y-101803990D01*
X133498793Y-101772669D01*
X133488485Y-101738691D01*
X133484400Y-101697210D01*
X133484400Y-101095990D01*
X133488485Y-101054509D01*
X133498793Y-101020531D01*
X133515534Y-100989210D01*
X133538061Y-100961761D01*
X133565510Y-100939234D01*
X133596831Y-100922493D01*
X133630809Y-100912185D01*
X133672290Y-100908100D01*
X134348510Y-100908100D01*
X134389991Y-100912185D01*
X134389991Y-100912185D01*
G37*
G36*
X141857591Y-100708985D02*
G01*
X141891569Y-100719293D01*
X141922890Y-100736034D01*
X141950339Y-100758561D01*
X141972866Y-100786010D01*
X141989607Y-100817331D01*
X141999915Y-100851309D01*
X142004000Y-100892790D01*
X142004000Y-101494010D01*
X141999915Y-101535491D01*
X141989607Y-101569469D01*
X141972866Y-101600790D01*
X141950339Y-101628239D01*
X141922890Y-101650766D01*
X141891569Y-101667507D01*
X141857591Y-101677815D01*
X141816110Y-101681900D01*
X141139890Y-101681900D01*
X141098409Y-101677815D01*
X141064431Y-101667507D01*
X141033110Y-101650766D01*
X141005661Y-101628239D01*
X140983134Y-101600790D01*
X140966393Y-101569469D01*
X140956085Y-101535491D01*
X140952000Y-101494010D01*
X140952000Y-100892790D01*
X140956085Y-100851309D01*
X140966393Y-100817331D01*
X140983134Y-100786010D01*
X141005661Y-100758561D01*
X141033110Y-100736034D01*
X141064431Y-100719293D01*
X141098409Y-100708985D01*
X141139890Y-100704900D01*
X141816110Y-100704900D01*
X141857591Y-100708985D01*
X141857591Y-100708985D01*
G37*
G36*
X138162291Y-99808085D02*
G01*
X138196269Y-99818393D01*
X138227590Y-99835134D01*
X138255039Y-99857661D01*
X138277566Y-99885110D01*
X138294307Y-99916431D01*
X138304615Y-99950409D01*
X138308700Y-99991890D01*
X138308700Y-100668110D01*
X138304615Y-100709591D01*
X138294307Y-100743569D01*
X138277566Y-100774890D01*
X138255039Y-100802339D01*
X138227590Y-100824866D01*
X138196269Y-100841607D01*
X138162291Y-100851915D01*
X138120810Y-100856000D01*
X137519590Y-100856000D01*
X137478109Y-100851915D01*
X137444131Y-100841607D01*
X137412810Y-100824866D01*
X137385361Y-100802339D01*
X137362834Y-100774890D01*
X137346093Y-100743569D01*
X137335785Y-100709591D01*
X137331700Y-100668110D01*
X137331700Y-99991890D01*
X137335785Y-99950409D01*
X137346093Y-99916431D01*
X137362834Y-99885110D01*
X137385361Y-99857661D01*
X137412810Y-99835134D01*
X137444131Y-99818393D01*
X137478109Y-99808085D01*
X137519590Y-99804000D01*
X138120810Y-99804000D01*
X138162291Y-99808085D01*
X138162291Y-99808085D01*
G37*
G36*
X139737291Y-99808085D02*
G01*
X139771269Y-99818393D01*
X139802590Y-99835134D01*
X139830039Y-99857661D01*
X139852566Y-99885110D01*
X139869307Y-99916431D01*
X139879615Y-99950409D01*
X139883700Y-99991890D01*
X139883700Y-100668110D01*
X139879615Y-100709591D01*
X139869307Y-100743569D01*
X139852566Y-100774890D01*
X139830039Y-100802339D01*
X139802590Y-100824866D01*
X139771269Y-100841607D01*
X139737291Y-100851915D01*
X139695810Y-100856000D01*
X139094590Y-100856000D01*
X139053109Y-100851915D01*
X139019131Y-100841607D01*
X138987810Y-100824866D01*
X138960361Y-100802339D01*
X138937834Y-100774890D01*
X138921093Y-100743569D01*
X138910785Y-100709591D01*
X138906700Y-100668110D01*
X138906700Y-99991890D01*
X138910785Y-99950409D01*
X138921093Y-99916431D01*
X138937834Y-99885110D01*
X138960361Y-99857661D01*
X138987810Y-99835134D01*
X139019131Y-99818393D01*
X139053109Y-99808085D01*
X139094590Y-99804000D01*
X139695810Y-99804000D01*
X139737291Y-99808085D01*
X139737291Y-99808085D01*
G37*
G36*
X134339191Y-99337785D02*
G01*
X134373169Y-99348093D01*
X134404490Y-99364834D01*
X134431939Y-99387361D01*
X134454466Y-99414810D01*
X134471207Y-99446131D01*
X134481515Y-99480109D01*
X134485600Y-99521590D01*
X134485600Y-100122810D01*
X134481515Y-100164291D01*
X134471207Y-100198269D01*
X134454466Y-100229590D01*
X134431939Y-100257039D01*
X134404490Y-100279566D01*
X134373169Y-100296307D01*
X134339191Y-100306615D01*
X134297710Y-100310700D01*
X133621490Y-100310700D01*
X133580009Y-100306615D01*
X133546031Y-100296307D01*
X133514710Y-100279566D01*
X133487261Y-100257039D01*
X133464734Y-100229590D01*
X133447993Y-100198269D01*
X133437685Y-100164291D01*
X133433600Y-100122810D01*
X133433600Y-99521590D01*
X133437685Y-99480109D01*
X133447993Y-99446131D01*
X133464734Y-99414810D01*
X133487261Y-99387361D01*
X133514710Y-99364834D01*
X133546031Y-99348093D01*
X133580009Y-99337785D01*
X133621490Y-99333700D01*
X134297710Y-99333700D01*
X134339191Y-99337785D01*
X134339191Y-99337785D01*
G37*
G36*
X128634442Y-97911518D02*
G01*
X128700627Y-97918037D01*
X128870466Y-97969557D01*
X129026991Y-98053222D01*
X129061936Y-98081901D01*
X129164186Y-98165814D01*
X129231113Y-98247366D01*
X129276778Y-98303009D01*
X129360443Y-98459534D01*
X129411963Y-98629373D01*
X129429359Y-98806000D01*
X129411963Y-98982627D01*
X129360443Y-99152466D01*
X129276778Y-99308991D01*
X129256500Y-99333700D01*
X129164186Y-99446186D01*
X129062729Y-99529448D01*
X129026991Y-99558778D01*
X128870466Y-99642443D01*
X128700627Y-99693963D01*
X128634442Y-99700482D01*
X128568260Y-99707000D01*
X128479740Y-99707000D01*
X128413558Y-99700482D01*
X128347373Y-99693963D01*
X128177534Y-99642443D01*
X128021009Y-99558778D01*
X127985271Y-99529448D01*
X127883814Y-99446186D01*
X127791500Y-99333700D01*
X127771222Y-99308991D01*
X127687557Y-99152466D01*
X127636037Y-98982627D01*
X127618641Y-98806000D01*
X127636037Y-98629373D01*
X127687557Y-98459534D01*
X127771222Y-98303009D01*
X127816887Y-98247366D01*
X127883814Y-98165814D01*
X127986064Y-98081901D01*
X128021009Y-98053222D01*
X128177534Y-97969557D01*
X128347373Y-97918037D01*
X128413558Y-97911518D01*
X128479740Y-97905000D01*
X128568260Y-97905000D01*
X128634442Y-97911518D01*
X128634442Y-97911518D01*
G37*
G36*
X150072042Y-97911518D02*
G01*
X150138227Y-97918037D01*
X150308066Y-97969557D01*
X150464591Y-98053222D01*
X150499536Y-98081901D01*
X150601786Y-98165814D01*
X150668713Y-98247366D01*
X150714378Y-98303009D01*
X150798043Y-98459534D01*
X150849563Y-98629373D01*
X150866959Y-98806000D01*
X150849563Y-98982627D01*
X150798043Y-99152466D01*
X150714378Y-99308991D01*
X150694100Y-99333700D01*
X150601786Y-99446186D01*
X150500329Y-99529448D01*
X150464591Y-99558778D01*
X150308066Y-99642443D01*
X150138227Y-99693963D01*
X150072042Y-99700482D01*
X150005860Y-99707000D01*
X149917340Y-99707000D01*
X149851158Y-99700482D01*
X149784973Y-99693963D01*
X149615134Y-99642443D01*
X149458609Y-99558778D01*
X149422871Y-99529448D01*
X149321414Y-99446186D01*
X149229100Y-99333700D01*
X149208822Y-99308991D01*
X149125157Y-99152466D01*
X149073637Y-98982627D01*
X149056241Y-98806000D01*
X149073637Y-98629373D01*
X149125157Y-98459534D01*
X149208822Y-98303009D01*
X149254487Y-98247366D01*
X149321414Y-98165814D01*
X149423664Y-98081901D01*
X149458609Y-98053222D01*
X149615134Y-97969557D01*
X149784973Y-97918037D01*
X149851158Y-97911518D01*
X149917340Y-97905000D01*
X150005860Y-97905000D01*
X150072042Y-97911518D01*
X150072042Y-97911518D01*
G37*
G36*
X147532042Y-97911518D02*
G01*
X147598227Y-97918037D01*
X147768066Y-97969557D01*
X147924591Y-98053222D01*
X147959536Y-98081901D01*
X148061786Y-98165814D01*
X148128713Y-98247366D01*
X148174378Y-98303009D01*
X148258043Y-98459534D01*
X148309563Y-98629373D01*
X148326959Y-98806000D01*
X148309563Y-98982627D01*
X148258043Y-99152466D01*
X148174378Y-99308991D01*
X148154100Y-99333700D01*
X148061786Y-99446186D01*
X147960329Y-99529448D01*
X147924591Y-99558778D01*
X147768066Y-99642443D01*
X147598227Y-99693963D01*
X147532042Y-99700482D01*
X147465860Y-99707000D01*
X147377340Y-99707000D01*
X147311158Y-99700482D01*
X147244973Y-99693963D01*
X147075134Y-99642443D01*
X146918609Y-99558778D01*
X146882871Y-99529448D01*
X146781414Y-99446186D01*
X146689100Y-99333700D01*
X146668822Y-99308991D01*
X146585157Y-99152466D01*
X146533637Y-98982627D01*
X146516241Y-98806000D01*
X146533637Y-98629373D01*
X146585157Y-98459534D01*
X146668822Y-98303009D01*
X146714487Y-98247366D01*
X146781414Y-98165814D01*
X146883664Y-98081901D01*
X146918609Y-98053222D01*
X147075134Y-97969557D01*
X147244973Y-97918037D01*
X147311158Y-97911518D01*
X147377340Y-97905000D01*
X147465860Y-97905000D01*
X147532042Y-97911518D01*
X147532042Y-97911518D01*
G37*
G36*
X145782600Y-99707000D02*
G01*
X143980600Y-99707000D01*
X143980600Y-97905000D01*
X145782600Y-97905000D01*
X145782600Y-99707000D01*
X145782600Y-99707000D01*
G37*
G36*
X131174442Y-97911518D02*
G01*
X131240627Y-97918037D01*
X131410466Y-97969557D01*
X131566991Y-98053222D01*
X131601936Y-98081901D01*
X131704186Y-98165814D01*
X131771113Y-98247366D01*
X131816778Y-98303009D01*
X131900443Y-98459534D01*
X131951963Y-98629373D01*
X131969359Y-98806000D01*
X131951963Y-98982627D01*
X131900443Y-99152466D01*
X131816778Y-99308991D01*
X131796500Y-99333700D01*
X131704186Y-99446186D01*
X131602729Y-99529448D01*
X131566991Y-99558778D01*
X131410466Y-99642443D01*
X131240627Y-99693963D01*
X131174442Y-99700482D01*
X131108260Y-99707000D01*
X131019740Y-99707000D01*
X130953558Y-99700482D01*
X130887373Y-99693963D01*
X130717534Y-99642443D01*
X130561009Y-99558778D01*
X130525271Y-99529448D01*
X130423814Y-99446186D01*
X130331500Y-99333700D01*
X130311222Y-99308991D01*
X130227557Y-99152466D01*
X130176037Y-98982627D01*
X130158641Y-98806000D01*
X130176037Y-98629373D01*
X130227557Y-98459534D01*
X130311222Y-98303009D01*
X130356887Y-98247366D01*
X130423814Y-98165814D01*
X130526064Y-98081901D01*
X130561009Y-98053222D01*
X130717534Y-97969557D01*
X130887373Y-97918037D01*
X130953558Y-97911518D01*
X131019740Y-97905000D01*
X131108260Y-97905000D01*
X131174442Y-97911518D01*
X131174442Y-97911518D01*
G37*
G36*
X126885000Y-99707000D02*
G01*
X125083000Y-99707000D01*
X125083000Y-97905000D01*
X126885000Y-97905000D01*
X126885000Y-99707000D01*
X126885000Y-99707000D01*
G37*
G36*
X137844391Y-98220185D02*
G01*
X137878369Y-98230493D01*
X137909690Y-98247234D01*
X137937139Y-98269761D01*
X137959666Y-98297210D01*
X137976407Y-98328531D01*
X137986715Y-98362509D01*
X137990800Y-98403990D01*
X137990800Y-99005210D01*
X137986715Y-99046691D01*
X137976407Y-99080669D01*
X137959666Y-99111990D01*
X137937139Y-99139439D01*
X137909690Y-99161966D01*
X137878369Y-99178707D01*
X137844391Y-99189015D01*
X137802910Y-99193100D01*
X137126690Y-99193100D01*
X137085209Y-99189015D01*
X137051231Y-99178707D01*
X137019910Y-99161966D01*
X136992461Y-99139439D01*
X136969934Y-99111990D01*
X136953193Y-99080669D01*
X136942885Y-99046691D01*
X136938800Y-99005210D01*
X136938800Y-98403990D01*
X136942885Y-98362509D01*
X136953193Y-98328531D01*
X136969934Y-98297210D01*
X136992461Y-98269761D01*
X137019910Y-98247234D01*
X137051231Y-98230493D01*
X137085209Y-98220185D01*
X137126690Y-98216100D01*
X137802910Y-98216100D01*
X137844391Y-98220185D01*
X137844391Y-98220185D01*
G37*
G36*
X134339191Y-97762785D02*
G01*
X134373169Y-97773093D01*
X134404490Y-97789834D01*
X134431939Y-97812361D01*
X134454466Y-97839810D01*
X134471207Y-97871131D01*
X134481515Y-97905109D01*
X134485600Y-97946590D01*
X134485600Y-98547810D01*
X134481515Y-98589291D01*
X134471207Y-98623269D01*
X134454466Y-98654590D01*
X134431939Y-98682039D01*
X134404490Y-98704566D01*
X134373169Y-98721307D01*
X134339191Y-98731615D01*
X134297710Y-98735700D01*
X133621490Y-98735700D01*
X133580009Y-98731615D01*
X133546031Y-98721307D01*
X133514710Y-98704566D01*
X133487261Y-98682039D01*
X133464734Y-98654590D01*
X133447993Y-98623269D01*
X133437685Y-98589291D01*
X133433600Y-98547810D01*
X133433600Y-97946590D01*
X133437685Y-97905109D01*
X133447993Y-97871131D01*
X133464734Y-97839810D01*
X133487261Y-97812361D01*
X133514710Y-97789834D01*
X133546031Y-97773093D01*
X133580009Y-97762785D01*
X133621490Y-97758700D01*
X134297710Y-97758700D01*
X134339191Y-97762785D01*
X134339191Y-97762785D01*
G37*
G36*
X142467191Y-97305585D02*
G01*
X142501169Y-97315893D01*
X142532490Y-97332634D01*
X142559939Y-97355161D01*
X142582466Y-97382610D01*
X142599207Y-97413931D01*
X142609515Y-97447909D01*
X142613600Y-97489390D01*
X142613600Y-98090610D01*
X142609515Y-98132091D01*
X142599207Y-98166069D01*
X142582466Y-98197390D01*
X142559939Y-98224839D01*
X142532490Y-98247366D01*
X142501169Y-98264107D01*
X142467191Y-98274415D01*
X142425710Y-98278500D01*
X141749490Y-98278500D01*
X141708009Y-98274415D01*
X141674031Y-98264107D01*
X141642710Y-98247366D01*
X141615261Y-98224839D01*
X141592734Y-98197390D01*
X141575993Y-98166069D01*
X141565685Y-98132091D01*
X141561600Y-98090610D01*
X141561600Y-97489390D01*
X141565685Y-97447909D01*
X141575993Y-97413931D01*
X141592734Y-97382610D01*
X141615261Y-97355161D01*
X141642710Y-97332634D01*
X141674031Y-97315893D01*
X141708009Y-97305585D01*
X141749490Y-97301500D01*
X142425710Y-97301500D01*
X142467191Y-97305585D01*
X142467191Y-97305585D01*
G37*
G36*
X137844391Y-96645185D02*
G01*
X137878369Y-96655493D01*
X137909690Y-96672234D01*
X137937139Y-96694761D01*
X137959666Y-96722210D01*
X137976407Y-96753531D01*
X137986715Y-96787509D01*
X137990800Y-96828990D01*
X137990800Y-97430210D01*
X137986715Y-97471691D01*
X137976407Y-97505669D01*
X137959666Y-97536990D01*
X137937139Y-97564439D01*
X137909690Y-97586966D01*
X137878369Y-97603707D01*
X137844391Y-97614015D01*
X137802910Y-97618100D01*
X137126690Y-97618100D01*
X137085209Y-97614015D01*
X137051231Y-97603707D01*
X137019910Y-97586966D01*
X136992461Y-97564439D01*
X136969934Y-97536990D01*
X136953193Y-97505669D01*
X136942885Y-97471691D01*
X136938800Y-97430210D01*
X136938800Y-96828990D01*
X136942885Y-96787509D01*
X136953193Y-96753531D01*
X136969934Y-96722210D01*
X136992461Y-96694761D01*
X137019910Y-96672234D01*
X137051231Y-96655493D01*
X137085209Y-96645185D01*
X137126690Y-96641100D01*
X137802910Y-96641100D01*
X137844391Y-96645185D01*
X137844391Y-96645185D01*
G37*
G36*
X134186791Y-96010285D02*
G01*
X134220769Y-96020593D01*
X134252090Y-96037334D01*
X134279539Y-96059861D01*
X134302066Y-96087310D01*
X134318807Y-96118631D01*
X134329115Y-96152609D01*
X134333200Y-96194090D01*
X134333200Y-96795310D01*
X134329115Y-96836791D01*
X134318807Y-96870769D01*
X134302066Y-96902090D01*
X134279539Y-96929539D01*
X134252090Y-96952066D01*
X134220769Y-96968807D01*
X134186791Y-96979115D01*
X134145310Y-96983200D01*
X133469090Y-96983200D01*
X133427609Y-96979115D01*
X133393631Y-96968807D01*
X133362310Y-96952066D01*
X133334861Y-96929539D01*
X133312334Y-96902090D01*
X133295593Y-96870769D01*
X133285285Y-96836791D01*
X133281200Y-96795310D01*
X133281200Y-96194090D01*
X133285285Y-96152609D01*
X133295593Y-96118631D01*
X133312334Y-96087310D01*
X133334861Y-96059861D01*
X133362310Y-96037334D01*
X133393631Y-96020593D01*
X133427609Y-96010285D01*
X133469090Y-96006200D01*
X134145310Y-96006200D01*
X134186791Y-96010285D01*
X134186791Y-96010285D01*
G37*
G36*
X142467191Y-95730585D02*
G01*
X142501169Y-95740893D01*
X142532490Y-95757634D01*
X142559939Y-95780161D01*
X142582466Y-95807610D01*
X142599207Y-95838931D01*
X142609515Y-95872909D01*
X142613600Y-95914390D01*
X142613600Y-96515610D01*
X142609515Y-96557091D01*
X142599207Y-96591069D01*
X142582466Y-96622390D01*
X142559939Y-96649839D01*
X142532490Y-96672366D01*
X142501169Y-96689107D01*
X142467191Y-96699415D01*
X142425710Y-96703500D01*
X141749490Y-96703500D01*
X141708009Y-96699415D01*
X141674031Y-96689107D01*
X141642710Y-96672366D01*
X141615261Y-96649839D01*
X141592734Y-96622390D01*
X141575993Y-96591069D01*
X141565685Y-96557091D01*
X141561600Y-96515610D01*
X141561600Y-95914390D01*
X141565685Y-95872909D01*
X141575993Y-95838931D01*
X141592734Y-95807610D01*
X141615261Y-95780161D01*
X141642710Y-95757634D01*
X141674031Y-95740893D01*
X141708009Y-95730585D01*
X141749490Y-95726500D01*
X142425710Y-95726500D01*
X142467191Y-95730585D01*
X142467191Y-95730585D01*
G37*
G36*
X137437991Y-94917985D02*
G01*
X137471969Y-94928293D01*
X137503290Y-94945034D01*
X137530739Y-94967561D01*
X137553266Y-94995010D01*
X137570007Y-95026331D01*
X137580315Y-95060309D01*
X137584400Y-95101790D01*
X137584400Y-95703010D01*
X137580315Y-95744491D01*
X137570007Y-95778469D01*
X137553266Y-95809790D01*
X137530739Y-95837239D01*
X137503290Y-95859766D01*
X137471969Y-95876507D01*
X137437991Y-95886815D01*
X137396510Y-95890900D01*
X136720290Y-95890900D01*
X136678809Y-95886815D01*
X136644831Y-95876507D01*
X136613510Y-95859766D01*
X136586061Y-95837239D01*
X136563534Y-95809790D01*
X136546793Y-95778469D01*
X136536485Y-95744491D01*
X136532400Y-95703010D01*
X136532400Y-95101790D01*
X136536485Y-95060309D01*
X136546793Y-95026331D01*
X136563534Y-94995010D01*
X136586061Y-94967561D01*
X136613510Y-94945034D01*
X136644831Y-94928293D01*
X136678809Y-94917985D01*
X136720290Y-94913900D01*
X137396510Y-94913900D01*
X137437991Y-94917985D01*
X137437991Y-94917985D01*
G37*
G36*
X134186791Y-94435285D02*
G01*
X134220769Y-94445593D01*
X134252090Y-94462334D01*
X134279539Y-94484861D01*
X134302066Y-94512310D01*
X134318807Y-94543631D01*
X134329115Y-94577609D01*
X134333200Y-94619090D01*
X134333200Y-95220310D01*
X134329115Y-95261791D01*
X134318807Y-95295769D01*
X134302066Y-95327090D01*
X134279539Y-95354539D01*
X134252090Y-95377066D01*
X134220769Y-95393807D01*
X134186791Y-95404115D01*
X134145310Y-95408200D01*
X133469090Y-95408200D01*
X133427609Y-95404115D01*
X133393631Y-95393807D01*
X133362310Y-95377066D01*
X133334861Y-95354539D01*
X133312334Y-95327090D01*
X133295593Y-95295769D01*
X133285285Y-95261791D01*
X133281200Y-95220310D01*
X133281200Y-94619090D01*
X133285285Y-94577609D01*
X133295593Y-94543631D01*
X133312334Y-94512310D01*
X133334861Y-94484861D01*
X133362310Y-94462334D01*
X133393631Y-94445593D01*
X133427609Y-94435285D01*
X133469090Y-94431200D01*
X134145310Y-94431200D01*
X134186791Y-94435285D01*
X134186791Y-94435285D01*
G37*
G36*
X137437991Y-93342985D02*
G01*
X137471969Y-93353293D01*
X137503290Y-93370034D01*
X137530739Y-93392561D01*
X137553266Y-93420010D01*
X137570007Y-93451331D01*
X137580315Y-93485309D01*
X137584400Y-93526790D01*
X137584400Y-94128010D01*
X137580315Y-94169491D01*
X137570007Y-94203469D01*
X137553266Y-94234790D01*
X137530739Y-94262239D01*
X137503290Y-94284766D01*
X137471969Y-94301507D01*
X137437991Y-94311815D01*
X137396510Y-94315900D01*
X136720290Y-94315900D01*
X136678809Y-94311815D01*
X136644831Y-94301507D01*
X136613510Y-94284766D01*
X136586061Y-94262239D01*
X136563534Y-94234790D01*
X136546793Y-94203469D01*
X136536485Y-94169491D01*
X136532400Y-94128010D01*
X136532400Y-93526790D01*
X136536485Y-93485309D01*
X136546793Y-93451331D01*
X136563534Y-93420010D01*
X136586061Y-93392561D01*
X136613510Y-93370034D01*
X136644831Y-93353293D01*
X136678809Y-93342985D01*
X136720290Y-93338900D01*
X137396510Y-93338900D01*
X137437991Y-93342985D01*
X137437991Y-93342985D01*
G37*
G36*
X142213191Y-91819185D02*
G01*
X142247169Y-91829493D01*
X142278490Y-91846234D01*
X142305939Y-91868761D01*
X142328466Y-91896210D01*
X142345207Y-91927531D01*
X142355515Y-91961509D01*
X142359600Y-92002990D01*
X142359600Y-92604210D01*
X142355515Y-92645691D01*
X142345207Y-92679669D01*
X142328466Y-92710990D01*
X142305939Y-92738439D01*
X142278490Y-92760966D01*
X142247169Y-92777707D01*
X142213191Y-92788015D01*
X142171710Y-92792100D01*
X141495490Y-92792100D01*
X141454009Y-92788015D01*
X141420031Y-92777707D01*
X141388710Y-92760966D01*
X141361261Y-92738439D01*
X141338734Y-92710990D01*
X141321993Y-92679669D01*
X141311685Y-92645691D01*
X141307600Y-92604210D01*
X141307600Y-92002990D01*
X141311685Y-91961509D01*
X141321993Y-91927531D01*
X141338734Y-91896210D01*
X141361261Y-91868761D01*
X141388710Y-91846234D01*
X141420031Y-91829493D01*
X141454009Y-91819185D01*
X141495490Y-91815100D01*
X142171710Y-91815100D01*
X142213191Y-91819185D01*
X142213191Y-91819185D01*
G37*
G36*
X135375000Y-92754600D02*
G01*
X134373000Y-92754600D01*
X134373000Y-91852600D01*
X135375000Y-91852600D01*
X135375000Y-92754600D01*
X135375000Y-92754600D01*
G37*
G36*
X139012791Y-91539885D02*
G01*
X139046769Y-91550193D01*
X139078090Y-91566934D01*
X139105539Y-91589461D01*
X139128066Y-91616910D01*
X139144807Y-91648231D01*
X139155115Y-91682209D01*
X139159200Y-91723690D01*
X139159200Y-92324910D01*
X139155115Y-92366391D01*
X139144807Y-92400369D01*
X139128066Y-92431690D01*
X139105539Y-92459139D01*
X139078090Y-92481666D01*
X139046769Y-92498407D01*
X139012791Y-92508715D01*
X138971310Y-92512800D01*
X138295090Y-92512800D01*
X138253609Y-92508715D01*
X138219631Y-92498407D01*
X138188310Y-92481666D01*
X138160861Y-92459139D01*
X138138334Y-92431690D01*
X138121593Y-92400369D01*
X138111285Y-92366391D01*
X138107200Y-92324910D01*
X138107200Y-91723690D01*
X138111285Y-91682209D01*
X138121593Y-91648231D01*
X138138334Y-91616910D01*
X138160861Y-91589461D01*
X138188310Y-91566934D01*
X138219631Y-91550193D01*
X138253609Y-91539885D01*
X138295090Y-91535800D01*
X138971310Y-91535800D01*
X139012791Y-91539885D01*
X139012791Y-91539885D01*
G37*
G36*
X137375000Y-91804600D02*
G01*
X136373000Y-91804600D01*
X136373000Y-90902600D01*
X137375000Y-90902600D01*
X137375000Y-91804600D01*
X137375000Y-91804600D01*
G37*
G36*
X142213191Y-90244185D02*
G01*
X142247169Y-90254493D01*
X142278490Y-90271234D01*
X142305939Y-90293761D01*
X142328466Y-90321210D01*
X142345207Y-90352531D01*
X142355515Y-90386509D01*
X142359600Y-90427990D01*
X142359600Y-91029210D01*
X142355515Y-91070691D01*
X142345207Y-91104669D01*
X142328466Y-91135990D01*
X142305939Y-91163439D01*
X142278490Y-91185966D01*
X142247169Y-91202707D01*
X142213191Y-91213015D01*
X142171710Y-91217100D01*
X141495490Y-91217100D01*
X141454009Y-91213015D01*
X141420031Y-91202707D01*
X141388710Y-91185966D01*
X141361261Y-91163439D01*
X141338734Y-91135990D01*
X141321993Y-91104669D01*
X141311685Y-91070691D01*
X141307600Y-91029210D01*
X141307600Y-90427990D01*
X141311685Y-90386509D01*
X141321993Y-90352531D01*
X141338734Y-90321210D01*
X141361261Y-90293761D01*
X141388710Y-90271234D01*
X141420031Y-90254493D01*
X141454009Y-90244185D01*
X141495490Y-90240100D01*
X142171710Y-90240100D01*
X142213191Y-90244185D01*
X142213191Y-90244185D01*
G37*
G36*
X139012791Y-89964885D02*
G01*
X139046769Y-89975193D01*
X139078090Y-89991934D01*
X139105539Y-90014461D01*
X139128066Y-90041910D01*
X139144807Y-90073231D01*
X139155115Y-90107209D01*
X139159200Y-90148690D01*
X139159200Y-90749910D01*
X139155115Y-90791391D01*
X139144807Y-90825369D01*
X139128066Y-90856690D01*
X139105539Y-90884139D01*
X139078090Y-90906666D01*
X139046769Y-90923407D01*
X139012791Y-90933715D01*
X138971310Y-90937800D01*
X138295090Y-90937800D01*
X138253609Y-90933715D01*
X138219631Y-90923407D01*
X138188310Y-90906666D01*
X138160861Y-90884139D01*
X138138334Y-90856690D01*
X138121593Y-90825369D01*
X138111285Y-90791391D01*
X138107200Y-90749910D01*
X138107200Y-90148690D01*
X138111285Y-90107209D01*
X138121593Y-90073231D01*
X138138334Y-90041910D01*
X138160861Y-90014461D01*
X138188310Y-89991934D01*
X138219631Y-89975193D01*
X138253609Y-89964885D01*
X138295090Y-89960800D01*
X138971310Y-89960800D01*
X139012791Y-89964885D01*
X139012791Y-89964885D01*
G37*
G36*
X135375000Y-90854600D02*
G01*
X134373000Y-90854600D01*
X134373000Y-89952600D01*
X135375000Y-89952600D01*
X135375000Y-90854600D01*
X135375000Y-90854600D01*
G37*
M02*
