G04 #@! TF.GenerationSoftware,KiCad,Pcbnew,5.1.5-52549c5~84~ubuntu18.04.1*
G04 #@! TF.CreationDate,2020-01-29T15:34:55-06:00*
G04 #@! TF.ProjectId,aducm_board,61647563-6d5f-4626-9f61-72642e6b6963,rev?*
G04 #@! TF.SameCoordinates,Original*
G04 #@! TF.FileFunction,Soldermask,Bot*
G04 #@! TF.FilePolarity,Negative*
%FSLAX46Y46*%
G04 Gerber Fmt 4.6, Leading zero omitted, Abs format (unit mm)*
G04 Created by KiCad (PCBNEW 5.1.5-52549c5~84~ubuntu18.04.1) date 2020-01-29 15:34:55*
%MOMM*%
%LPD*%
G04 APERTURE LIST*
%ADD10C,0.100000*%
G04 APERTURE END LIST*
D10*
G36*
X139254712Y-122547927D02*
G01*
X139404012Y-122577624D01*
X139567984Y-122645544D01*
X139715554Y-122744147D01*
X139841053Y-122869646D01*
X139939656Y-123017216D01*
X140007576Y-123181188D01*
X140042200Y-123355259D01*
X140042200Y-123532741D01*
X140007576Y-123706812D01*
X139939656Y-123870784D01*
X139841053Y-124018354D01*
X139715554Y-124143853D01*
X139567984Y-124242456D01*
X139404012Y-124310376D01*
X139254712Y-124340073D01*
X139229942Y-124345000D01*
X139052458Y-124345000D01*
X139027688Y-124340073D01*
X138878388Y-124310376D01*
X138714416Y-124242456D01*
X138566846Y-124143853D01*
X138441347Y-124018354D01*
X138342744Y-123870784D01*
X138274824Y-123706812D01*
X138240200Y-123532741D01*
X138240200Y-123355259D01*
X138274824Y-123181188D01*
X138342744Y-123017216D01*
X138441347Y-122869646D01*
X138566846Y-122744147D01*
X138714416Y-122645544D01*
X138878388Y-122577624D01*
X139027688Y-122547927D01*
X139052458Y-122543000D01*
X139229942Y-122543000D01*
X139254712Y-122547927D01*
G37*
G36*
X136714712Y-122547927D02*
G01*
X136864012Y-122577624D01*
X137027984Y-122645544D01*
X137175554Y-122744147D01*
X137301053Y-122869646D01*
X137399656Y-123017216D01*
X137467576Y-123181188D01*
X137502200Y-123355259D01*
X137502200Y-123532741D01*
X137467576Y-123706812D01*
X137399656Y-123870784D01*
X137301053Y-124018354D01*
X137175554Y-124143853D01*
X137027984Y-124242456D01*
X136864012Y-124310376D01*
X136714712Y-124340073D01*
X136689942Y-124345000D01*
X136512458Y-124345000D01*
X136487688Y-124340073D01*
X136338388Y-124310376D01*
X136174416Y-124242456D01*
X136026846Y-124143853D01*
X135901347Y-124018354D01*
X135802744Y-123870784D01*
X135734824Y-123706812D01*
X135700200Y-123532741D01*
X135700200Y-123355259D01*
X135734824Y-123181188D01*
X135802744Y-123017216D01*
X135901347Y-122869646D01*
X136026846Y-122744147D01*
X136174416Y-122645544D01*
X136338388Y-122577624D01*
X136487688Y-122547927D01*
X136512458Y-122543000D01*
X136689942Y-122543000D01*
X136714712Y-122547927D01*
G37*
G36*
X134174712Y-122547927D02*
G01*
X134324012Y-122577624D01*
X134487984Y-122645544D01*
X134635554Y-122744147D01*
X134761053Y-122869646D01*
X134859656Y-123017216D01*
X134927576Y-123181188D01*
X134962200Y-123355259D01*
X134962200Y-123532741D01*
X134927576Y-123706812D01*
X134859656Y-123870784D01*
X134761053Y-124018354D01*
X134635554Y-124143853D01*
X134487984Y-124242456D01*
X134324012Y-124310376D01*
X134174712Y-124340073D01*
X134149942Y-124345000D01*
X133972458Y-124345000D01*
X133947688Y-124340073D01*
X133798388Y-124310376D01*
X133634416Y-124242456D01*
X133486846Y-124143853D01*
X133361347Y-124018354D01*
X133262744Y-123870784D01*
X133194824Y-123706812D01*
X133160200Y-123532741D01*
X133160200Y-123355259D01*
X133194824Y-123181188D01*
X133262744Y-123017216D01*
X133361347Y-122869646D01*
X133486846Y-122744147D01*
X133634416Y-122645544D01*
X133798388Y-122577624D01*
X133947688Y-122547927D01*
X133972458Y-122543000D01*
X134149942Y-122543000D01*
X134174712Y-122547927D01*
G37*
G36*
X141794712Y-122547927D02*
G01*
X141944012Y-122577624D01*
X142107984Y-122645544D01*
X142255554Y-122744147D01*
X142381053Y-122869646D01*
X142479656Y-123017216D01*
X142547576Y-123181188D01*
X142582200Y-123355259D01*
X142582200Y-123532741D01*
X142547576Y-123706812D01*
X142479656Y-123870784D01*
X142381053Y-124018354D01*
X142255554Y-124143853D01*
X142107984Y-124242456D01*
X141944012Y-124310376D01*
X141794712Y-124340073D01*
X141769942Y-124345000D01*
X141592458Y-124345000D01*
X141567688Y-124340073D01*
X141418388Y-124310376D01*
X141254416Y-124242456D01*
X141106846Y-124143853D01*
X140981347Y-124018354D01*
X140882744Y-123870784D01*
X140814824Y-123706812D01*
X140780200Y-123532741D01*
X140780200Y-123355259D01*
X140814824Y-123181188D01*
X140882744Y-123017216D01*
X140981347Y-122869646D01*
X141106846Y-122744147D01*
X141254416Y-122645544D01*
X141418388Y-122577624D01*
X141567688Y-122547927D01*
X141592458Y-122543000D01*
X141769942Y-122543000D01*
X141794712Y-122547927D01*
G37*
G36*
X142582200Y-121805000D02*
G01*
X140780200Y-121805000D01*
X140780200Y-120003000D01*
X142582200Y-120003000D01*
X142582200Y-121805000D01*
G37*
G36*
X139254712Y-120007927D02*
G01*
X139404012Y-120037624D01*
X139567984Y-120105544D01*
X139715554Y-120204147D01*
X139841053Y-120329646D01*
X139939656Y-120477216D01*
X140007576Y-120641188D01*
X140042200Y-120815259D01*
X140042200Y-120992741D01*
X140007576Y-121166812D01*
X139939656Y-121330784D01*
X139841053Y-121478354D01*
X139715554Y-121603853D01*
X139567984Y-121702456D01*
X139404012Y-121770376D01*
X139254712Y-121800073D01*
X139229942Y-121805000D01*
X139052458Y-121805000D01*
X139027688Y-121800073D01*
X138878388Y-121770376D01*
X138714416Y-121702456D01*
X138566846Y-121603853D01*
X138441347Y-121478354D01*
X138342744Y-121330784D01*
X138274824Y-121166812D01*
X138240200Y-120992741D01*
X138240200Y-120815259D01*
X138274824Y-120641188D01*
X138342744Y-120477216D01*
X138441347Y-120329646D01*
X138566846Y-120204147D01*
X138714416Y-120105544D01*
X138878388Y-120037624D01*
X139027688Y-120007927D01*
X139052458Y-120003000D01*
X139229942Y-120003000D01*
X139254712Y-120007927D01*
G37*
G36*
X136714712Y-120007927D02*
G01*
X136864012Y-120037624D01*
X137027984Y-120105544D01*
X137175554Y-120204147D01*
X137301053Y-120329646D01*
X137399656Y-120477216D01*
X137467576Y-120641188D01*
X137502200Y-120815259D01*
X137502200Y-120992741D01*
X137467576Y-121166812D01*
X137399656Y-121330784D01*
X137301053Y-121478354D01*
X137175554Y-121603853D01*
X137027984Y-121702456D01*
X136864012Y-121770376D01*
X136714712Y-121800073D01*
X136689942Y-121805000D01*
X136512458Y-121805000D01*
X136487688Y-121800073D01*
X136338388Y-121770376D01*
X136174416Y-121702456D01*
X136026846Y-121603853D01*
X135901347Y-121478354D01*
X135802744Y-121330784D01*
X135734824Y-121166812D01*
X135700200Y-120992741D01*
X135700200Y-120815259D01*
X135734824Y-120641188D01*
X135802744Y-120477216D01*
X135901347Y-120329646D01*
X136026846Y-120204147D01*
X136174416Y-120105544D01*
X136338388Y-120037624D01*
X136487688Y-120007927D01*
X136512458Y-120003000D01*
X136689942Y-120003000D01*
X136714712Y-120007927D01*
G37*
G36*
X134174712Y-120007927D02*
G01*
X134324012Y-120037624D01*
X134487984Y-120105544D01*
X134635554Y-120204147D01*
X134761053Y-120329646D01*
X134859656Y-120477216D01*
X134927576Y-120641188D01*
X134962200Y-120815259D01*
X134962200Y-120992741D01*
X134927576Y-121166812D01*
X134859656Y-121330784D01*
X134761053Y-121478354D01*
X134635554Y-121603853D01*
X134487984Y-121702456D01*
X134324012Y-121770376D01*
X134174712Y-121800073D01*
X134149942Y-121805000D01*
X133972458Y-121805000D01*
X133947688Y-121800073D01*
X133798388Y-121770376D01*
X133634416Y-121702456D01*
X133486846Y-121603853D01*
X133361347Y-121478354D01*
X133262744Y-121330784D01*
X133194824Y-121166812D01*
X133160200Y-120992741D01*
X133160200Y-120815259D01*
X133194824Y-120641188D01*
X133262744Y-120477216D01*
X133361347Y-120329646D01*
X133486846Y-120204147D01*
X133634416Y-120105544D01*
X133798388Y-120037624D01*
X133947688Y-120007927D01*
X133972458Y-120003000D01*
X134149942Y-120003000D01*
X134174712Y-120007927D01*
G37*
G36*
X128637512Y-97909927D02*
G01*
X128786812Y-97939624D01*
X128950784Y-98007544D01*
X129098354Y-98106147D01*
X129223853Y-98231646D01*
X129322456Y-98379216D01*
X129390376Y-98543188D01*
X129425000Y-98717259D01*
X129425000Y-98894741D01*
X129390376Y-99068812D01*
X129322456Y-99232784D01*
X129223853Y-99380354D01*
X129098354Y-99505853D01*
X128950784Y-99604456D01*
X128786812Y-99672376D01*
X128637512Y-99702073D01*
X128612742Y-99707000D01*
X128435258Y-99707000D01*
X128410488Y-99702073D01*
X128261188Y-99672376D01*
X128097216Y-99604456D01*
X127949646Y-99505853D01*
X127824147Y-99380354D01*
X127725544Y-99232784D01*
X127657624Y-99068812D01*
X127623000Y-98894741D01*
X127623000Y-98717259D01*
X127657624Y-98543188D01*
X127725544Y-98379216D01*
X127824147Y-98231646D01*
X127949646Y-98106147D01*
X128097216Y-98007544D01*
X128261188Y-97939624D01*
X128410488Y-97909927D01*
X128435258Y-97905000D01*
X128612742Y-97905000D01*
X128637512Y-97909927D01*
G37*
G36*
X126885000Y-99707000D02*
G01*
X125083000Y-99707000D01*
X125083000Y-97905000D01*
X126885000Y-97905000D01*
X126885000Y-99707000D01*
G37*
G36*
X150075112Y-97909927D02*
G01*
X150224412Y-97939624D01*
X150388384Y-98007544D01*
X150535954Y-98106147D01*
X150661453Y-98231646D01*
X150760056Y-98379216D01*
X150827976Y-98543188D01*
X150862600Y-98717259D01*
X150862600Y-98894741D01*
X150827976Y-99068812D01*
X150760056Y-99232784D01*
X150661453Y-99380354D01*
X150535954Y-99505853D01*
X150388384Y-99604456D01*
X150224412Y-99672376D01*
X150075112Y-99702073D01*
X150050342Y-99707000D01*
X149872858Y-99707000D01*
X149848088Y-99702073D01*
X149698788Y-99672376D01*
X149534816Y-99604456D01*
X149387246Y-99505853D01*
X149261747Y-99380354D01*
X149163144Y-99232784D01*
X149095224Y-99068812D01*
X149060600Y-98894741D01*
X149060600Y-98717259D01*
X149095224Y-98543188D01*
X149163144Y-98379216D01*
X149261747Y-98231646D01*
X149387246Y-98106147D01*
X149534816Y-98007544D01*
X149698788Y-97939624D01*
X149848088Y-97909927D01*
X149872858Y-97905000D01*
X150050342Y-97905000D01*
X150075112Y-97909927D01*
G37*
G36*
X147535112Y-97909927D02*
G01*
X147684412Y-97939624D01*
X147848384Y-98007544D01*
X147995954Y-98106147D01*
X148121453Y-98231646D01*
X148220056Y-98379216D01*
X148287976Y-98543188D01*
X148322600Y-98717259D01*
X148322600Y-98894741D01*
X148287976Y-99068812D01*
X148220056Y-99232784D01*
X148121453Y-99380354D01*
X147995954Y-99505853D01*
X147848384Y-99604456D01*
X147684412Y-99672376D01*
X147535112Y-99702073D01*
X147510342Y-99707000D01*
X147332858Y-99707000D01*
X147308088Y-99702073D01*
X147158788Y-99672376D01*
X146994816Y-99604456D01*
X146847246Y-99505853D01*
X146721747Y-99380354D01*
X146623144Y-99232784D01*
X146555224Y-99068812D01*
X146520600Y-98894741D01*
X146520600Y-98717259D01*
X146555224Y-98543188D01*
X146623144Y-98379216D01*
X146721747Y-98231646D01*
X146847246Y-98106147D01*
X146994816Y-98007544D01*
X147158788Y-97939624D01*
X147308088Y-97909927D01*
X147332858Y-97905000D01*
X147510342Y-97905000D01*
X147535112Y-97909927D01*
G37*
G36*
X145782600Y-99707000D02*
G01*
X143980600Y-99707000D01*
X143980600Y-97905000D01*
X145782600Y-97905000D01*
X145782600Y-99707000D01*
G37*
G36*
X131177512Y-97909927D02*
G01*
X131326812Y-97939624D01*
X131490784Y-98007544D01*
X131638354Y-98106147D01*
X131763853Y-98231646D01*
X131862456Y-98379216D01*
X131930376Y-98543188D01*
X131965000Y-98717259D01*
X131965000Y-98894741D01*
X131930376Y-99068812D01*
X131862456Y-99232784D01*
X131763853Y-99380354D01*
X131638354Y-99505853D01*
X131490784Y-99604456D01*
X131326812Y-99672376D01*
X131177512Y-99702073D01*
X131152742Y-99707000D01*
X130975258Y-99707000D01*
X130950488Y-99702073D01*
X130801188Y-99672376D01*
X130637216Y-99604456D01*
X130489646Y-99505853D01*
X130364147Y-99380354D01*
X130265544Y-99232784D01*
X130197624Y-99068812D01*
X130163000Y-98894741D01*
X130163000Y-98717259D01*
X130197624Y-98543188D01*
X130265544Y-98379216D01*
X130364147Y-98231646D01*
X130489646Y-98106147D01*
X130637216Y-98007544D01*
X130801188Y-97939624D01*
X130950488Y-97909927D01*
X130975258Y-97905000D01*
X131152742Y-97905000D01*
X131177512Y-97909927D01*
G37*
M02*
