G04 #@! TF.GenerationSoftware,KiCad,Pcbnew,(5.1.4)-1*
G04 #@! TF.CreationDate,2020-02-10T14:57:17-06:00*
G04 #@! TF.ProjectId,aducm_board,61647563-6d5f-4626-9f61-72642e6b6963,rev?*
G04 #@! TF.SameCoordinates,Original*
G04 #@! TF.FileFunction,Soldermask,Bot*
G04 #@! TF.FilePolarity,Negative*
%FSLAX46Y46*%
G04 Gerber Fmt 4.6, Leading zero omitted, Abs format (unit mm)*
G04 Created by KiCad (PCBNEW (5.1.4)-1) date 2020-02-10 14:57:17*
%MOMM*%
%LPD*%
G04 APERTURE LIST*
%ADD10C,0.100000*%
G04 APERTURE END LIST*
D10*
G36*
X139251643Y-122549519D02*
G01*
X139317827Y-122556037D01*
X139487666Y-122607557D01*
X139644191Y-122691222D01*
X139679929Y-122720552D01*
X139781386Y-122803814D01*
X139864648Y-122905271D01*
X139893978Y-122941009D01*
X139977643Y-123097534D01*
X140029163Y-123267373D01*
X140046559Y-123444000D01*
X140029163Y-123620627D01*
X139977643Y-123790466D01*
X139893978Y-123946991D01*
X139864648Y-123982729D01*
X139781386Y-124084186D01*
X139679929Y-124167448D01*
X139644191Y-124196778D01*
X139487666Y-124280443D01*
X139317827Y-124331963D01*
X139251642Y-124338482D01*
X139185460Y-124345000D01*
X139096940Y-124345000D01*
X139030758Y-124338482D01*
X138964573Y-124331963D01*
X138794734Y-124280443D01*
X138638209Y-124196778D01*
X138602471Y-124167448D01*
X138501014Y-124084186D01*
X138417752Y-123982729D01*
X138388422Y-123946991D01*
X138304757Y-123790466D01*
X138253237Y-123620627D01*
X138235841Y-123444000D01*
X138253237Y-123267373D01*
X138304757Y-123097534D01*
X138388422Y-122941009D01*
X138417752Y-122905271D01*
X138501014Y-122803814D01*
X138602471Y-122720552D01*
X138638209Y-122691222D01*
X138794734Y-122607557D01*
X138964573Y-122556037D01*
X139030757Y-122549519D01*
X139096940Y-122543000D01*
X139185460Y-122543000D01*
X139251643Y-122549519D01*
X139251643Y-122549519D01*
G37*
G36*
X136711643Y-122549519D02*
G01*
X136777827Y-122556037D01*
X136947666Y-122607557D01*
X137104191Y-122691222D01*
X137139929Y-122720552D01*
X137241386Y-122803814D01*
X137324648Y-122905271D01*
X137353978Y-122941009D01*
X137437643Y-123097534D01*
X137489163Y-123267373D01*
X137506559Y-123444000D01*
X137489163Y-123620627D01*
X137437643Y-123790466D01*
X137353978Y-123946991D01*
X137324648Y-123982729D01*
X137241386Y-124084186D01*
X137139929Y-124167448D01*
X137104191Y-124196778D01*
X136947666Y-124280443D01*
X136777827Y-124331963D01*
X136711642Y-124338482D01*
X136645460Y-124345000D01*
X136556940Y-124345000D01*
X136490758Y-124338482D01*
X136424573Y-124331963D01*
X136254734Y-124280443D01*
X136098209Y-124196778D01*
X136062471Y-124167448D01*
X135961014Y-124084186D01*
X135877752Y-123982729D01*
X135848422Y-123946991D01*
X135764757Y-123790466D01*
X135713237Y-123620627D01*
X135695841Y-123444000D01*
X135713237Y-123267373D01*
X135764757Y-123097534D01*
X135848422Y-122941009D01*
X135877752Y-122905271D01*
X135961014Y-122803814D01*
X136062471Y-122720552D01*
X136098209Y-122691222D01*
X136254734Y-122607557D01*
X136424573Y-122556037D01*
X136490757Y-122549519D01*
X136556940Y-122543000D01*
X136645460Y-122543000D01*
X136711643Y-122549519D01*
X136711643Y-122549519D01*
G37*
G36*
X134171643Y-122549519D02*
G01*
X134237827Y-122556037D01*
X134407666Y-122607557D01*
X134564191Y-122691222D01*
X134599929Y-122720552D01*
X134701386Y-122803814D01*
X134784648Y-122905271D01*
X134813978Y-122941009D01*
X134897643Y-123097534D01*
X134949163Y-123267373D01*
X134966559Y-123444000D01*
X134949163Y-123620627D01*
X134897643Y-123790466D01*
X134813978Y-123946991D01*
X134784648Y-123982729D01*
X134701386Y-124084186D01*
X134599929Y-124167448D01*
X134564191Y-124196778D01*
X134407666Y-124280443D01*
X134237827Y-124331963D01*
X134171642Y-124338482D01*
X134105460Y-124345000D01*
X134016940Y-124345000D01*
X133950758Y-124338482D01*
X133884573Y-124331963D01*
X133714734Y-124280443D01*
X133558209Y-124196778D01*
X133522471Y-124167448D01*
X133421014Y-124084186D01*
X133337752Y-123982729D01*
X133308422Y-123946991D01*
X133224757Y-123790466D01*
X133173237Y-123620627D01*
X133155841Y-123444000D01*
X133173237Y-123267373D01*
X133224757Y-123097534D01*
X133308422Y-122941009D01*
X133337752Y-122905271D01*
X133421014Y-122803814D01*
X133522471Y-122720552D01*
X133558209Y-122691222D01*
X133714734Y-122607557D01*
X133884573Y-122556037D01*
X133950757Y-122549519D01*
X134016940Y-122543000D01*
X134105460Y-122543000D01*
X134171643Y-122549519D01*
X134171643Y-122549519D01*
G37*
G36*
X141791643Y-122549519D02*
G01*
X141857827Y-122556037D01*
X142027666Y-122607557D01*
X142184191Y-122691222D01*
X142219929Y-122720552D01*
X142321386Y-122803814D01*
X142404648Y-122905271D01*
X142433978Y-122941009D01*
X142517643Y-123097534D01*
X142569163Y-123267373D01*
X142586559Y-123444000D01*
X142569163Y-123620627D01*
X142517643Y-123790466D01*
X142433978Y-123946991D01*
X142404648Y-123982729D01*
X142321386Y-124084186D01*
X142219929Y-124167448D01*
X142184191Y-124196778D01*
X142027666Y-124280443D01*
X141857827Y-124331963D01*
X141791642Y-124338482D01*
X141725460Y-124345000D01*
X141636940Y-124345000D01*
X141570758Y-124338482D01*
X141504573Y-124331963D01*
X141334734Y-124280443D01*
X141178209Y-124196778D01*
X141142471Y-124167448D01*
X141041014Y-124084186D01*
X140957752Y-123982729D01*
X140928422Y-123946991D01*
X140844757Y-123790466D01*
X140793237Y-123620627D01*
X140775841Y-123444000D01*
X140793237Y-123267373D01*
X140844757Y-123097534D01*
X140928422Y-122941009D01*
X140957752Y-122905271D01*
X141041014Y-122803814D01*
X141142471Y-122720552D01*
X141178209Y-122691222D01*
X141334734Y-122607557D01*
X141504573Y-122556037D01*
X141570757Y-122549519D01*
X141636940Y-122543000D01*
X141725460Y-122543000D01*
X141791643Y-122549519D01*
X141791643Y-122549519D01*
G37*
G36*
X142582200Y-121805000D02*
G01*
X140780200Y-121805000D01*
X140780200Y-120003000D01*
X142582200Y-120003000D01*
X142582200Y-121805000D01*
X142582200Y-121805000D01*
G37*
G36*
X139251643Y-120009519D02*
G01*
X139317827Y-120016037D01*
X139487666Y-120067557D01*
X139644191Y-120151222D01*
X139679929Y-120180552D01*
X139781386Y-120263814D01*
X139864648Y-120365271D01*
X139893978Y-120401009D01*
X139977643Y-120557534D01*
X140029163Y-120727373D01*
X140046559Y-120904000D01*
X140029163Y-121080627D01*
X139977643Y-121250466D01*
X139893978Y-121406991D01*
X139864648Y-121442729D01*
X139781386Y-121544186D01*
X139679929Y-121627448D01*
X139644191Y-121656778D01*
X139487666Y-121740443D01*
X139317827Y-121791963D01*
X139251642Y-121798482D01*
X139185460Y-121805000D01*
X139096940Y-121805000D01*
X139030758Y-121798482D01*
X138964573Y-121791963D01*
X138794734Y-121740443D01*
X138638209Y-121656778D01*
X138602471Y-121627448D01*
X138501014Y-121544186D01*
X138417752Y-121442729D01*
X138388422Y-121406991D01*
X138304757Y-121250466D01*
X138253237Y-121080627D01*
X138235841Y-120904000D01*
X138253237Y-120727373D01*
X138304757Y-120557534D01*
X138388422Y-120401009D01*
X138417752Y-120365271D01*
X138501014Y-120263814D01*
X138602471Y-120180552D01*
X138638209Y-120151222D01*
X138794734Y-120067557D01*
X138964573Y-120016037D01*
X139030757Y-120009519D01*
X139096940Y-120003000D01*
X139185460Y-120003000D01*
X139251643Y-120009519D01*
X139251643Y-120009519D01*
G37*
G36*
X136711643Y-120009519D02*
G01*
X136777827Y-120016037D01*
X136947666Y-120067557D01*
X137104191Y-120151222D01*
X137139929Y-120180552D01*
X137241386Y-120263814D01*
X137324648Y-120365271D01*
X137353978Y-120401009D01*
X137437643Y-120557534D01*
X137489163Y-120727373D01*
X137506559Y-120904000D01*
X137489163Y-121080627D01*
X137437643Y-121250466D01*
X137353978Y-121406991D01*
X137324648Y-121442729D01*
X137241386Y-121544186D01*
X137139929Y-121627448D01*
X137104191Y-121656778D01*
X136947666Y-121740443D01*
X136777827Y-121791963D01*
X136711642Y-121798482D01*
X136645460Y-121805000D01*
X136556940Y-121805000D01*
X136490758Y-121798482D01*
X136424573Y-121791963D01*
X136254734Y-121740443D01*
X136098209Y-121656778D01*
X136062471Y-121627448D01*
X135961014Y-121544186D01*
X135877752Y-121442729D01*
X135848422Y-121406991D01*
X135764757Y-121250466D01*
X135713237Y-121080627D01*
X135695841Y-120904000D01*
X135713237Y-120727373D01*
X135764757Y-120557534D01*
X135848422Y-120401009D01*
X135877752Y-120365271D01*
X135961014Y-120263814D01*
X136062471Y-120180552D01*
X136098209Y-120151222D01*
X136254734Y-120067557D01*
X136424573Y-120016037D01*
X136490757Y-120009519D01*
X136556940Y-120003000D01*
X136645460Y-120003000D01*
X136711643Y-120009519D01*
X136711643Y-120009519D01*
G37*
G36*
X134171643Y-120009519D02*
G01*
X134237827Y-120016037D01*
X134407666Y-120067557D01*
X134564191Y-120151222D01*
X134599929Y-120180552D01*
X134701386Y-120263814D01*
X134784648Y-120365271D01*
X134813978Y-120401009D01*
X134897643Y-120557534D01*
X134949163Y-120727373D01*
X134966559Y-120904000D01*
X134949163Y-121080627D01*
X134897643Y-121250466D01*
X134813978Y-121406991D01*
X134784648Y-121442729D01*
X134701386Y-121544186D01*
X134599929Y-121627448D01*
X134564191Y-121656778D01*
X134407666Y-121740443D01*
X134237827Y-121791963D01*
X134171642Y-121798482D01*
X134105460Y-121805000D01*
X134016940Y-121805000D01*
X133950758Y-121798482D01*
X133884573Y-121791963D01*
X133714734Y-121740443D01*
X133558209Y-121656778D01*
X133522471Y-121627448D01*
X133421014Y-121544186D01*
X133337752Y-121442729D01*
X133308422Y-121406991D01*
X133224757Y-121250466D01*
X133173237Y-121080627D01*
X133155841Y-120904000D01*
X133173237Y-120727373D01*
X133224757Y-120557534D01*
X133308422Y-120401009D01*
X133337752Y-120365271D01*
X133421014Y-120263814D01*
X133522471Y-120180552D01*
X133558209Y-120151222D01*
X133714734Y-120067557D01*
X133884573Y-120016037D01*
X133950757Y-120009519D01*
X134016940Y-120003000D01*
X134105460Y-120003000D01*
X134171643Y-120009519D01*
X134171643Y-120009519D01*
G37*
G36*
X128634442Y-97911518D02*
G01*
X128700627Y-97918037D01*
X128870466Y-97969557D01*
X129026991Y-98053222D01*
X129062729Y-98082552D01*
X129164186Y-98165814D01*
X129247448Y-98267271D01*
X129276778Y-98303009D01*
X129360443Y-98459534D01*
X129411963Y-98629373D01*
X129429359Y-98806000D01*
X129411963Y-98982627D01*
X129360443Y-99152466D01*
X129276778Y-99308991D01*
X129247448Y-99344729D01*
X129164186Y-99446186D01*
X129062729Y-99529448D01*
X129026991Y-99558778D01*
X128870466Y-99642443D01*
X128700627Y-99693963D01*
X128634442Y-99700482D01*
X128568260Y-99707000D01*
X128479740Y-99707000D01*
X128413558Y-99700482D01*
X128347373Y-99693963D01*
X128177534Y-99642443D01*
X128021009Y-99558778D01*
X127985271Y-99529448D01*
X127883814Y-99446186D01*
X127800552Y-99344729D01*
X127771222Y-99308991D01*
X127687557Y-99152466D01*
X127636037Y-98982627D01*
X127618641Y-98806000D01*
X127636037Y-98629373D01*
X127687557Y-98459534D01*
X127771222Y-98303009D01*
X127800552Y-98267271D01*
X127883814Y-98165814D01*
X127985271Y-98082552D01*
X128021009Y-98053222D01*
X128177534Y-97969557D01*
X128347373Y-97918037D01*
X128413558Y-97911518D01*
X128479740Y-97905000D01*
X128568260Y-97905000D01*
X128634442Y-97911518D01*
X128634442Y-97911518D01*
G37*
G36*
X126885000Y-99707000D02*
G01*
X125083000Y-99707000D01*
X125083000Y-97905000D01*
X126885000Y-97905000D01*
X126885000Y-99707000D01*
X126885000Y-99707000D01*
G37*
G36*
X150072042Y-97911518D02*
G01*
X150138227Y-97918037D01*
X150308066Y-97969557D01*
X150464591Y-98053222D01*
X150500329Y-98082552D01*
X150601786Y-98165814D01*
X150685048Y-98267271D01*
X150714378Y-98303009D01*
X150798043Y-98459534D01*
X150849563Y-98629373D01*
X150866959Y-98806000D01*
X150849563Y-98982627D01*
X150798043Y-99152466D01*
X150714378Y-99308991D01*
X150685048Y-99344729D01*
X150601786Y-99446186D01*
X150500329Y-99529448D01*
X150464591Y-99558778D01*
X150308066Y-99642443D01*
X150138227Y-99693963D01*
X150072042Y-99700482D01*
X150005860Y-99707000D01*
X149917340Y-99707000D01*
X149851158Y-99700482D01*
X149784973Y-99693963D01*
X149615134Y-99642443D01*
X149458609Y-99558778D01*
X149422871Y-99529448D01*
X149321414Y-99446186D01*
X149238152Y-99344729D01*
X149208822Y-99308991D01*
X149125157Y-99152466D01*
X149073637Y-98982627D01*
X149056241Y-98806000D01*
X149073637Y-98629373D01*
X149125157Y-98459534D01*
X149208822Y-98303009D01*
X149238152Y-98267271D01*
X149321414Y-98165814D01*
X149422871Y-98082552D01*
X149458609Y-98053222D01*
X149615134Y-97969557D01*
X149784973Y-97918037D01*
X149851158Y-97911518D01*
X149917340Y-97905000D01*
X150005860Y-97905000D01*
X150072042Y-97911518D01*
X150072042Y-97911518D01*
G37*
G36*
X147532042Y-97911518D02*
G01*
X147598227Y-97918037D01*
X147768066Y-97969557D01*
X147924591Y-98053222D01*
X147960329Y-98082552D01*
X148061786Y-98165814D01*
X148145048Y-98267271D01*
X148174378Y-98303009D01*
X148258043Y-98459534D01*
X148309563Y-98629373D01*
X148326959Y-98806000D01*
X148309563Y-98982627D01*
X148258043Y-99152466D01*
X148174378Y-99308991D01*
X148145048Y-99344729D01*
X148061786Y-99446186D01*
X147960329Y-99529448D01*
X147924591Y-99558778D01*
X147768066Y-99642443D01*
X147598227Y-99693963D01*
X147532042Y-99700482D01*
X147465860Y-99707000D01*
X147377340Y-99707000D01*
X147311158Y-99700482D01*
X147244973Y-99693963D01*
X147075134Y-99642443D01*
X146918609Y-99558778D01*
X146882871Y-99529448D01*
X146781414Y-99446186D01*
X146698152Y-99344729D01*
X146668822Y-99308991D01*
X146585157Y-99152466D01*
X146533637Y-98982627D01*
X146516241Y-98806000D01*
X146533637Y-98629373D01*
X146585157Y-98459534D01*
X146668822Y-98303009D01*
X146698152Y-98267271D01*
X146781414Y-98165814D01*
X146882871Y-98082552D01*
X146918609Y-98053222D01*
X147075134Y-97969557D01*
X147244973Y-97918037D01*
X147311158Y-97911518D01*
X147377340Y-97905000D01*
X147465860Y-97905000D01*
X147532042Y-97911518D01*
X147532042Y-97911518D01*
G37*
G36*
X145782600Y-99707000D02*
G01*
X143980600Y-99707000D01*
X143980600Y-97905000D01*
X145782600Y-97905000D01*
X145782600Y-99707000D01*
X145782600Y-99707000D01*
G37*
G36*
X131174442Y-97911518D02*
G01*
X131240627Y-97918037D01*
X131410466Y-97969557D01*
X131566991Y-98053222D01*
X131602729Y-98082552D01*
X131704186Y-98165814D01*
X131787448Y-98267271D01*
X131816778Y-98303009D01*
X131900443Y-98459534D01*
X131951963Y-98629373D01*
X131969359Y-98806000D01*
X131951963Y-98982627D01*
X131900443Y-99152466D01*
X131816778Y-99308991D01*
X131787448Y-99344729D01*
X131704186Y-99446186D01*
X131602729Y-99529448D01*
X131566991Y-99558778D01*
X131410466Y-99642443D01*
X131240627Y-99693963D01*
X131174442Y-99700482D01*
X131108260Y-99707000D01*
X131019740Y-99707000D01*
X130953558Y-99700482D01*
X130887373Y-99693963D01*
X130717534Y-99642443D01*
X130561009Y-99558778D01*
X130525271Y-99529448D01*
X130423814Y-99446186D01*
X130340552Y-99344729D01*
X130311222Y-99308991D01*
X130227557Y-99152466D01*
X130176037Y-98982627D01*
X130158641Y-98806000D01*
X130176037Y-98629373D01*
X130227557Y-98459534D01*
X130311222Y-98303009D01*
X130340552Y-98267271D01*
X130423814Y-98165814D01*
X130525271Y-98082552D01*
X130561009Y-98053222D01*
X130717534Y-97969557D01*
X130887373Y-97918037D01*
X130953558Y-97911518D01*
X131019740Y-97905000D01*
X131108260Y-97905000D01*
X131174442Y-97911518D01*
X131174442Y-97911518D01*
G37*
M02*
