M48
; DRILL file {KiCad (5.1.4)-1} date 2/13/2020 1:02:55 PM
; FORMAT={-:-/ absolute / inch / decimal}
; #@! TF.CreationDate,2020-02-13T13:02:55-06:00
; #@! TF.GenerationSoftware,Kicad,Pcbnew,(5.1.4)-1
; #@! TF.FileFunction,Plated,1,2,PTH
FMAT,2
INCH
T1C0.0040
T2C0.0394
%
G90
G05
T1
X4.8819Y-3.7795
X4.9606Y-3.2717
X4.9606Y-3.4252
X5.1575Y-3.4843
X5.1614Y-3.2756
X5.2283Y-3.9331
X5.2677Y-3.7244
X5.2795Y-3.8071
X5.2992Y-3.2283
X5.3937Y-3.1496
X5.4449Y-3.5394
X5.4843Y-3.6811
X5.4921Y-3.5394
X5.5Y-4.5906
X5.5512Y-4.0551
X5.602Y-3.841
X5.6102Y-3.9173
X5.6102Y-4.5472
X5.6299Y-3.3858
X5.6772Y-3.1969
X5.722Y-3.772
X5.7244Y-3.6299
X5.7286Y-3.8519
X5.737Y-3.812
X5.74Y-3.795
X5.7428Y-3.7729
X5.746Y-3.851
X5.752Y-3.912
X5.771Y-3.166
X5.7717Y-4.3976
X5.778Y-3.768
X5.786Y-3.807
X5.7874Y-3.4646
X5.793Y-3.764
X5.8071Y-3.3071
X5.8071Y-3.5827
X5.811Y-3.6693
X5.812Y-3.764
X5.829Y-3.7676
X5.832Y-4.068
X5.842Y-3.78
X5.8661Y-3.2283
X5.925Y-3.825
X5.9252Y-3.0315
X5.9646Y-3.1102
X6.0827Y-3.5906
X6.1181Y-3.6102
X6.16Y-3.208
X6.1614Y-3.4449
X6.1614Y-3.7598
X6.2795Y-4.4252
X6.3465Y-4.4606
X6.46Y-3.522
T2
X5.6598Y-4.4984
X5.6598Y-4.5984
X5.7598Y-4.4984
X5.7598Y-4.5984
X5.8598Y-4.4984
X5.8598Y-4.5984
X5.9598Y-4.4984
X5.9598Y-4.5984
X6.23Y-3.133
X6.33Y-3.133
X6.43Y-3.133
X4.8286Y-3.1071
X4.9286Y-3.1071
X5.0286Y-3.1071
T0
M30
