G04 #@! TF.GenerationSoftware,KiCad,Pcbnew,5.1.5-52549c5~84~ubuntu18.04.1*
G04 #@! TF.CreationDate,2020-03-02T14:33:55-06:00*
G04 #@! TF.ProjectId,aducm_board,61647563-6d5f-4626-9f61-72642e6b6963,rev?*
G04 #@! TF.SameCoordinates,Original*
G04 #@! TF.FileFunction,Paste,Top*
G04 #@! TF.FilePolarity,Positive*
%FSLAX46Y46*%
G04 Gerber Fmt 4.6, Leading zero omitted, Abs format (unit mm)*
G04 Created by KiCad (PCBNEW 5.1.5-52549c5~84~ubuntu18.04.1) date 2020-03-02 14:33:55*
%MOMM*%
%LPD*%
G04 APERTURE LIST*
%ADD10R,0.800000X0.900000*%
%ADD11R,0.250000X0.250000*%
%ADD12R,1.300000X1.550000*%
%ADD13C,0.100000*%
%ADD14R,0.900000X0.800000*%
G04 APERTURE END LIST*
D10*
X138950000Y-106600000D03*
X137700000Y-108250000D03*
X138950000Y-108250000D03*
X137700000Y-106600000D03*
D11*
X146456400Y-96647000D03*
X147472400Y-96647000D03*
X146964400Y-97155000D03*
X146456400Y-97155000D03*
X147472400Y-97155000D03*
X146964400Y-96139000D03*
X146456400Y-96139000D03*
X147472400Y-96139000D03*
X148996400Y-97155000D03*
X148996400Y-95631000D03*
X148996400Y-96647000D03*
X148996400Y-97663000D03*
X148996400Y-96139000D03*
X149504400Y-95631000D03*
X149504400Y-97155000D03*
X149504400Y-97663000D03*
X149504400Y-96139000D03*
X149504400Y-96647000D03*
X144932400Y-96139000D03*
X144932400Y-97663000D03*
X144932400Y-95631000D03*
X144932400Y-96647000D03*
X144932400Y-97155000D03*
X144424400Y-96647000D03*
X144424400Y-95631000D03*
X144424400Y-96139000D03*
X144424400Y-97663000D03*
X144424400Y-97155000D03*
X147980400Y-98679000D03*
X145440400Y-98679000D03*
X146456400Y-98679000D03*
X147472400Y-98679000D03*
X148488400Y-98679000D03*
X145948400Y-98679000D03*
X146964400Y-98679000D03*
X144424400Y-98679000D03*
X148996400Y-98679000D03*
X149504400Y-98679000D03*
X144932400Y-98679000D03*
X146964400Y-98171000D03*
X146456400Y-98171000D03*
X147980400Y-98171000D03*
X147472400Y-98171000D03*
X144424400Y-98171000D03*
X144932400Y-98171000D03*
X148488400Y-98171000D03*
X145948400Y-98171000D03*
X149504400Y-98171000D03*
X145440400Y-98171000D03*
X148996400Y-98171000D03*
X146964400Y-95123000D03*
X146456400Y-95123000D03*
X147980400Y-95123000D03*
X147472400Y-95123000D03*
X144424400Y-95123000D03*
X144932400Y-95123000D03*
X148488400Y-95123000D03*
X145948400Y-95123000D03*
X149504400Y-95123000D03*
X145440400Y-95123000D03*
X148996400Y-95123000D03*
X148488400Y-94615000D03*
X149504400Y-94615000D03*
X148996400Y-94615000D03*
X146456400Y-94615000D03*
X146964400Y-94615000D03*
X147980400Y-94615000D03*
X147472400Y-94615000D03*
X145948400Y-94615000D03*
X145440400Y-94615000D03*
X144932400Y-94615000D03*
X144424400Y-94615000D03*
D12*
X164800000Y-115900000D03*
X164800000Y-123850000D03*
X160300000Y-115900000D03*
X160300000Y-123850000D03*
D13*
G36*
X153732591Y-73160653D02*
G01*
X153753826Y-73163803D01*
X153774650Y-73169019D01*
X153794862Y-73176251D01*
X153814268Y-73185430D01*
X153832681Y-73196466D01*
X153849924Y-73209254D01*
X153865830Y-73223670D01*
X153880246Y-73239576D01*
X153893034Y-73256819D01*
X153904070Y-73275232D01*
X153913249Y-73294638D01*
X153920481Y-73314850D01*
X153925697Y-73335674D01*
X153928847Y-73356909D01*
X153929900Y-73378350D01*
X153929900Y-73890850D01*
X153928847Y-73912291D01*
X153925697Y-73933526D01*
X153920481Y-73954350D01*
X153913249Y-73974562D01*
X153904070Y-73993968D01*
X153893034Y-74012381D01*
X153880246Y-74029624D01*
X153865830Y-74045530D01*
X153849924Y-74059946D01*
X153832681Y-74072734D01*
X153814268Y-74083770D01*
X153794862Y-74092949D01*
X153774650Y-74100181D01*
X153753826Y-74105397D01*
X153732591Y-74108547D01*
X153711150Y-74109600D01*
X153273650Y-74109600D01*
X153252209Y-74108547D01*
X153230974Y-74105397D01*
X153210150Y-74100181D01*
X153189938Y-74092949D01*
X153170532Y-74083770D01*
X153152119Y-74072734D01*
X153134876Y-74059946D01*
X153118970Y-74045530D01*
X153104554Y-74029624D01*
X153091766Y-74012381D01*
X153080730Y-73993968D01*
X153071551Y-73974562D01*
X153064319Y-73954350D01*
X153059103Y-73933526D01*
X153055953Y-73912291D01*
X153054900Y-73890850D01*
X153054900Y-73378350D01*
X153055953Y-73356909D01*
X153059103Y-73335674D01*
X153064319Y-73314850D01*
X153071551Y-73294638D01*
X153080730Y-73275232D01*
X153091766Y-73256819D01*
X153104554Y-73239576D01*
X153118970Y-73223670D01*
X153134876Y-73209254D01*
X153152119Y-73196466D01*
X153170532Y-73185430D01*
X153189938Y-73176251D01*
X153210150Y-73169019D01*
X153230974Y-73163803D01*
X153252209Y-73160653D01*
X153273650Y-73159600D01*
X153711150Y-73159600D01*
X153732591Y-73160653D01*
G37*
G36*
X152157591Y-73160653D02*
G01*
X152178826Y-73163803D01*
X152199650Y-73169019D01*
X152219862Y-73176251D01*
X152239268Y-73185430D01*
X152257681Y-73196466D01*
X152274924Y-73209254D01*
X152290830Y-73223670D01*
X152305246Y-73239576D01*
X152318034Y-73256819D01*
X152329070Y-73275232D01*
X152338249Y-73294638D01*
X152345481Y-73314850D01*
X152350697Y-73335674D01*
X152353847Y-73356909D01*
X152354900Y-73378350D01*
X152354900Y-73890850D01*
X152353847Y-73912291D01*
X152350697Y-73933526D01*
X152345481Y-73954350D01*
X152338249Y-73974562D01*
X152329070Y-73993968D01*
X152318034Y-74012381D01*
X152305246Y-74029624D01*
X152290830Y-74045530D01*
X152274924Y-74059946D01*
X152257681Y-74072734D01*
X152239268Y-74083770D01*
X152219862Y-74092949D01*
X152199650Y-74100181D01*
X152178826Y-74105397D01*
X152157591Y-74108547D01*
X152136150Y-74109600D01*
X151698650Y-74109600D01*
X151677209Y-74108547D01*
X151655974Y-74105397D01*
X151635150Y-74100181D01*
X151614938Y-74092949D01*
X151595532Y-74083770D01*
X151577119Y-74072734D01*
X151559876Y-74059946D01*
X151543970Y-74045530D01*
X151529554Y-74029624D01*
X151516766Y-74012381D01*
X151505730Y-73993968D01*
X151496551Y-73974562D01*
X151489319Y-73954350D01*
X151484103Y-73933526D01*
X151480953Y-73912291D01*
X151479900Y-73890850D01*
X151479900Y-73378350D01*
X151480953Y-73356909D01*
X151484103Y-73335674D01*
X151489319Y-73314850D01*
X151496551Y-73294638D01*
X151505730Y-73275232D01*
X151516766Y-73256819D01*
X151529554Y-73239576D01*
X151543970Y-73223670D01*
X151559876Y-73209254D01*
X151577119Y-73196466D01*
X151595532Y-73185430D01*
X151614938Y-73176251D01*
X151635150Y-73169019D01*
X151655974Y-73163803D01*
X151677209Y-73160653D01*
X151698650Y-73159600D01*
X152136150Y-73159600D01*
X152157591Y-73160653D01*
G37*
G36*
X145565691Y-79294353D02*
G01*
X145586926Y-79297503D01*
X145607750Y-79302719D01*
X145627962Y-79309951D01*
X145647368Y-79319130D01*
X145665781Y-79330166D01*
X145683024Y-79342954D01*
X145698930Y-79357370D01*
X145713346Y-79373276D01*
X145726134Y-79390519D01*
X145737170Y-79408932D01*
X145746349Y-79428338D01*
X145753581Y-79448550D01*
X145758797Y-79469374D01*
X145761947Y-79490609D01*
X145763000Y-79512050D01*
X145763000Y-79949550D01*
X145761947Y-79970991D01*
X145758797Y-79992226D01*
X145753581Y-80013050D01*
X145746349Y-80033262D01*
X145737170Y-80052668D01*
X145726134Y-80071081D01*
X145713346Y-80088324D01*
X145698930Y-80104230D01*
X145683024Y-80118646D01*
X145665781Y-80131434D01*
X145647368Y-80142470D01*
X145627962Y-80151649D01*
X145607750Y-80158881D01*
X145586926Y-80164097D01*
X145565691Y-80167247D01*
X145544250Y-80168300D01*
X145031750Y-80168300D01*
X145010309Y-80167247D01*
X144989074Y-80164097D01*
X144968250Y-80158881D01*
X144948038Y-80151649D01*
X144928632Y-80142470D01*
X144910219Y-80131434D01*
X144892976Y-80118646D01*
X144877070Y-80104230D01*
X144862654Y-80088324D01*
X144849866Y-80071081D01*
X144838830Y-80052668D01*
X144829651Y-80033262D01*
X144822419Y-80013050D01*
X144817203Y-79992226D01*
X144814053Y-79970991D01*
X144813000Y-79949550D01*
X144813000Y-79512050D01*
X144814053Y-79490609D01*
X144817203Y-79469374D01*
X144822419Y-79448550D01*
X144829651Y-79428338D01*
X144838830Y-79408932D01*
X144849866Y-79390519D01*
X144862654Y-79373276D01*
X144877070Y-79357370D01*
X144892976Y-79342954D01*
X144910219Y-79330166D01*
X144928632Y-79319130D01*
X144948038Y-79309951D01*
X144968250Y-79302719D01*
X144989074Y-79297503D01*
X145010309Y-79294353D01*
X145031750Y-79293300D01*
X145544250Y-79293300D01*
X145565691Y-79294353D01*
G37*
G36*
X145565691Y-77719353D02*
G01*
X145586926Y-77722503D01*
X145607750Y-77727719D01*
X145627962Y-77734951D01*
X145647368Y-77744130D01*
X145665781Y-77755166D01*
X145683024Y-77767954D01*
X145698930Y-77782370D01*
X145713346Y-77798276D01*
X145726134Y-77815519D01*
X145737170Y-77833932D01*
X145746349Y-77853338D01*
X145753581Y-77873550D01*
X145758797Y-77894374D01*
X145761947Y-77915609D01*
X145763000Y-77937050D01*
X145763000Y-78374550D01*
X145761947Y-78395991D01*
X145758797Y-78417226D01*
X145753581Y-78438050D01*
X145746349Y-78458262D01*
X145737170Y-78477668D01*
X145726134Y-78496081D01*
X145713346Y-78513324D01*
X145698930Y-78529230D01*
X145683024Y-78543646D01*
X145665781Y-78556434D01*
X145647368Y-78567470D01*
X145627962Y-78576649D01*
X145607750Y-78583881D01*
X145586926Y-78589097D01*
X145565691Y-78592247D01*
X145544250Y-78593300D01*
X145031750Y-78593300D01*
X145010309Y-78592247D01*
X144989074Y-78589097D01*
X144968250Y-78583881D01*
X144948038Y-78576649D01*
X144928632Y-78567470D01*
X144910219Y-78556434D01*
X144892976Y-78543646D01*
X144877070Y-78529230D01*
X144862654Y-78513324D01*
X144849866Y-78496081D01*
X144838830Y-78477668D01*
X144829651Y-78458262D01*
X144822419Y-78438050D01*
X144817203Y-78417226D01*
X144814053Y-78395991D01*
X144813000Y-78374550D01*
X144813000Y-77937050D01*
X144814053Y-77915609D01*
X144817203Y-77894374D01*
X144822419Y-77873550D01*
X144829651Y-77853338D01*
X144838830Y-77833932D01*
X144849866Y-77815519D01*
X144862654Y-77798276D01*
X144877070Y-77782370D01*
X144892976Y-77767954D01*
X144910219Y-77755166D01*
X144928632Y-77744130D01*
X144948038Y-77734951D01*
X144968250Y-77727719D01*
X144989074Y-77722503D01*
X145010309Y-77719353D01*
X145031750Y-77718300D01*
X145544250Y-77718300D01*
X145565691Y-77719353D01*
G37*
G36*
X140577691Y-79338553D02*
G01*
X140598926Y-79341703D01*
X140619750Y-79346919D01*
X140639962Y-79354151D01*
X140659368Y-79363330D01*
X140677781Y-79374366D01*
X140695024Y-79387154D01*
X140710930Y-79401570D01*
X140725346Y-79417476D01*
X140738134Y-79434719D01*
X140749170Y-79453132D01*
X140758349Y-79472538D01*
X140765581Y-79492750D01*
X140770797Y-79513574D01*
X140773947Y-79534809D01*
X140775000Y-79556250D01*
X140775000Y-79993750D01*
X140773947Y-80015191D01*
X140770797Y-80036426D01*
X140765581Y-80057250D01*
X140758349Y-80077462D01*
X140749170Y-80096868D01*
X140738134Y-80115281D01*
X140725346Y-80132524D01*
X140710930Y-80148430D01*
X140695024Y-80162846D01*
X140677781Y-80175634D01*
X140659368Y-80186670D01*
X140639962Y-80195849D01*
X140619750Y-80203081D01*
X140598926Y-80208297D01*
X140577691Y-80211447D01*
X140556250Y-80212500D01*
X140043750Y-80212500D01*
X140022309Y-80211447D01*
X140001074Y-80208297D01*
X139980250Y-80203081D01*
X139960038Y-80195849D01*
X139940632Y-80186670D01*
X139922219Y-80175634D01*
X139904976Y-80162846D01*
X139889070Y-80148430D01*
X139874654Y-80132524D01*
X139861866Y-80115281D01*
X139850830Y-80096868D01*
X139841651Y-80077462D01*
X139834419Y-80057250D01*
X139829203Y-80036426D01*
X139826053Y-80015191D01*
X139825000Y-79993750D01*
X139825000Y-79556250D01*
X139826053Y-79534809D01*
X139829203Y-79513574D01*
X139834419Y-79492750D01*
X139841651Y-79472538D01*
X139850830Y-79453132D01*
X139861866Y-79434719D01*
X139874654Y-79417476D01*
X139889070Y-79401570D01*
X139904976Y-79387154D01*
X139922219Y-79374366D01*
X139940632Y-79363330D01*
X139960038Y-79354151D01*
X139980250Y-79346919D01*
X140001074Y-79341703D01*
X140022309Y-79338553D01*
X140043750Y-79337500D01*
X140556250Y-79337500D01*
X140577691Y-79338553D01*
G37*
G36*
X140577691Y-77763553D02*
G01*
X140598926Y-77766703D01*
X140619750Y-77771919D01*
X140639962Y-77779151D01*
X140659368Y-77788330D01*
X140677781Y-77799366D01*
X140695024Y-77812154D01*
X140710930Y-77826570D01*
X140725346Y-77842476D01*
X140738134Y-77859719D01*
X140749170Y-77878132D01*
X140758349Y-77897538D01*
X140765581Y-77917750D01*
X140770797Y-77938574D01*
X140773947Y-77959809D01*
X140775000Y-77981250D01*
X140775000Y-78418750D01*
X140773947Y-78440191D01*
X140770797Y-78461426D01*
X140765581Y-78482250D01*
X140758349Y-78502462D01*
X140749170Y-78521868D01*
X140738134Y-78540281D01*
X140725346Y-78557524D01*
X140710930Y-78573430D01*
X140695024Y-78587846D01*
X140677781Y-78600634D01*
X140659368Y-78611670D01*
X140639962Y-78620849D01*
X140619750Y-78628081D01*
X140598926Y-78633297D01*
X140577691Y-78636447D01*
X140556250Y-78637500D01*
X140043750Y-78637500D01*
X140022309Y-78636447D01*
X140001074Y-78633297D01*
X139980250Y-78628081D01*
X139960038Y-78620849D01*
X139940632Y-78611670D01*
X139922219Y-78600634D01*
X139904976Y-78587846D01*
X139889070Y-78573430D01*
X139874654Y-78557524D01*
X139861866Y-78540281D01*
X139850830Y-78521868D01*
X139841651Y-78502462D01*
X139834419Y-78482250D01*
X139829203Y-78461426D01*
X139826053Y-78440191D01*
X139825000Y-78418750D01*
X139825000Y-77981250D01*
X139826053Y-77959809D01*
X139829203Y-77938574D01*
X139834419Y-77917750D01*
X139841651Y-77897538D01*
X139850830Y-77878132D01*
X139861866Y-77859719D01*
X139874654Y-77842476D01*
X139889070Y-77826570D01*
X139904976Y-77812154D01*
X139922219Y-77799366D01*
X139940632Y-77788330D01*
X139960038Y-77779151D01*
X139980250Y-77771919D01*
X140001074Y-77766703D01*
X140022309Y-77763553D01*
X140043750Y-77762500D01*
X140556250Y-77762500D01*
X140577691Y-77763553D01*
G37*
G36*
X123277691Y-88588553D02*
G01*
X123298926Y-88591703D01*
X123319750Y-88596919D01*
X123339962Y-88604151D01*
X123359368Y-88613330D01*
X123377781Y-88624366D01*
X123395024Y-88637154D01*
X123410930Y-88651570D01*
X123425346Y-88667476D01*
X123438134Y-88684719D01*
X123449170Y-88703132D01*
X123458349Y-88722538D01*
X123465581Y-88742750D01*
X123470797Y-88763574D01*
X123473947Y-88784809D01*
X123475000Y-88806250D01*
X123475000Y-89243750D01*
X123473947Y-89265191D01*
X123470797Y-89286426D01*
X123465581Y-89307250D01*
X123458349Y-89327462D01*
X123449170Y-89346868D01*
X123438134Y-89365281D01*
X123425346Y-89382524D01*
X123410930Y-89398430D01*
X123395024Y-89412846D01*
X123377781Y-89425634D01*
X123359368Y-89436670D01*
X123339962Y-89445849D01*
X123319750Y-89453081D01*
X123298926Y-89458297D01*
X123277691Y-89461447D01*
X123256250Y-89462500D01*
X122743750Y-89462500D01*
X122722309Y-89461447D01*
X122701074Y-89458297D01*
X122680250Y-89453081D01*
X122660038Y-89445849D01*
X122640632Y-89436670D01*
X122622219Y-89425634D01*
X122604976Y-89412846D01*
X122589070Y-89398430D01*
X122574654Y-89382524D01*
X122561866Y-89365281D01*
X122550830Y-89346868D01*
X122541651Y-89327462D01*
X122534419Y-89307250D01*
X122529203Y-89286426D01*
X122526053Y-89265191D01*
X122525000Y-89243750D01*
X122525000Y-88806250D01*
X122526053Y-88784809D01*
X122529203Y-88763574D01*
X122534419Y-88742750D01*
X122541651Y-88722538D01*
X122550830Y-88703132D01*
X122561866Y-88684719D01*
X122574654Y-88667476D01*
X122589070Y-88651570D01*
X122604976Y-88637154D01*
X122622219Y-88624366D01*
X122640632Y-88613330D01*
X122660038Y-88604151D01*
X122680250Y-88596919D01*
X122701074Y-88591703D01*
X122722309Y-88588553D01*
X122743750Y-88587500D01*
X123256250Y-88587500D01*
X123277691Y-88588553D01*
G37*
G36*
X123277691Y-90163553D02*
G01*
X123298926Y-90166703D01*
X123319750Y-90171919D01*
X123339962Y-90179151D01*
X123359368Y-90188330D01*
X123377781Y-90199366D01*
X123395024Y-90212154D01*
X123410930Y-90226570D01*
X123425346Y-90242476D01*
X123438134Y-90259719D01*
X123449170Y-90278132D01*
X123458349Y-90297538D01*
X123465581Y-90317750D01*
X123470797Y-90338574D01*
X123473947Y-90359809D01*
X123475000Y-90381250D01*
X123475000Y-90818750D01*
X123473947Y-90840191D01*
X123470797Y-90861426D01*
X123465581Y-90882250D01*
X123458349Y-90902462D01*
X123449170Y-90921868D01*
X123438134Y-90940281D01*
X123425346Y-90957524D01*
X123410930Y-90973430D01*
X123395024Y-90987846D01*
X123377781Y-91000634D01*
X123359368Y-91011670D01*
X123339962Y-91020849D01*
X123319750Y-91028081D01*
X123298926Y-91033297D01*
X123277691Y-91036447D01*
X123256250Y-91037500D01*
X122743750Y-91037500D01*
X122722309Y-91036447D01*
X122701074Y-91033297D01*
X122680250Y-91028081D01*
X122660038Y-91020849D01*
X122640632Y-91011670D01*
X122622219Y-91000634D01*
X122604976Y-90987846D01*
X122589070Y-90973430D01*
X122574654Y-90957524D01*
X122561866Y-90940281D01*
X122550830Y-90921868D01*
X122541651Y-90902462D01*
X122534419Y-90882250D01*
X122529203Y-90861426D01*
X122526053Y-90840191D01*
X122525000Y-90818750D01*
X122525000Y-90381250D01*
X122526053Y-90359809D01*
X122529203Y-90338574D01*
X122534419Y-90317750D01*
X122541651Y-90297538D01*
X122550830Y-90278132D01*
X122561866Y-90259719D01*
X122574654Y-90242476D01*
X122589070Y-90226570D01*
X122604976Y-90212154D01*
X122622219Y-90199366D01*
X122640632Y-90188330D01*
X122660038Y-90179151D01*
X122680250Y-90171919D01*
X122701074Y-90166703D01*
X122722309Y-90163553D01*
X122743750Y-90162500D01*
X123256250Y-90162500D01*
X123277691Y-90163553D01*
G37*
G36*
X129377691Y-83763553D02*
G01*
X129398926Y-83766703D01*
X129419750Y-83771919D01*
X129439962Y-83779151D01*
X129459368Y-83788330D01*
X129477781Y-83799366D01*
X129495024Y-83812154D01*
X129510930Y-83826570D01*
X129525346Y-83842476D01*
X129538134Y-83859719D01*
X129549170Y-83878132D01*
X129558349Y-83897538D01*
X129565581Y-83917750D01*
X129570797Y-83938574D01*
X129573947Y-83959809D01*
X129575000Y-83981250D01*
X129575000Y-84418750D01*
X129573947Y-84440191D01*
X129570797Y-84461426D01*
X129565581Y-84482250D01*
X129558349Y-84502462D01*
X129549170Y-84521868D01*
X129538134Y-84540281D01*
X129525346Y-84557524D01*
X129510930Y-84573430D01*
X129495024Y-84587846D01*
X129477781Y-84600634D01*
X129459368Y-84611670D01*
X129439962Y-84620849D01*
X129419750Y-84628081D01*
X129398926Y-84633297D01*
X129377691Y-84636447D01*
X129356250Y-84637500D01*
X128843750Y-84637500D01*
X128822309Y-84636447D01*
X128801074Y-84633297D01*
X128780250Y-84628081D01*
X128760038Y-84620849D01*
X128740632Y-84611670D01*
X128722219Y-84600634D01*
X128704976Y-84587846D01*
X128689070Y-84573430D01*
X128674654Y-84557524D01*
X128661866Y-84540281D01*
X128650830Y-84521868D01*
X128641651Y-84502462D01*
X128634419Y-84482250D01*
X128629203Y-84461426D01*
X128626053Y-84440191D01*
X128625000Y-84418750D01*
X128625000Y-83981250D01*
X128626053Y-83959809D01*
X128629203Y-83938574D01*
X128634419Y-83917750D01*
X128641651Y-83897538D01*
X128650830Y-83878132D01*
X128661866Y-83859719D01*
X128674654Y-83842476D01*
X128689070Y-83826570D01*
X128704976Y-83812154D01*
X128722219Y-83799366D01*
X128740632Y-83788330D01*
X128760038Y-83779151D01*
X128780250Y-83771919D01*
X128801074Y-83766703D01*
X128822309Y-83763553D01*
X128843750Y-83762500D01*
X129356250Y-83762500D01*
X129377691Y-83763553D01*
G37*
G36*
X129377691Y-85338553D02*
G01*
X129398926Y-85341703D01*
X129419750Y-85346919D01*
X129439962Y-85354151D01*
X129459368Y-85363330D01*
X129477781Y-85374366D01*
X129495024Y-85387154D01*
X129510930Y-85401570D01*
X129525346Y-85417476D01*
X129538134Y-85434719D01*
X129549170Y-85453132D01*
X129558349Y-85472538D01*
X129565581Y-85492750D01*
X129570797Y-85513574D01*
X129573947Y-85534809D01*
X129575000Y-85556250D01*
X129575000Y-85993750D01*
X129573947Y-86015191D01*
X129570797Y-86036426D01*
X129565581Y-86057250D01*
X129558349Y-86077462D01*
X129549170Y-86096868D01*
X129538134Y-86115281D01*
X129525346Y-86132524D01*
X129510930Y-86148430D01*
X129495024Y-86162846D01*
X129477781Y-86175634D01*
X129459368Y-86186670D01*
X129439962Y-86195849D01*
X129419750Y-86203081D01*
X129398926Y-86208297D01*
X129377691Y-86211447D01*
X129356250Y-86212500D01*
X128843750Y-86212500D01*
X128822309Y-86211447D01*
X128801074Y-86208297D01*
X128780250Y-86203081D01*
X128760038Y-86195849D01*
X128740632Y-86186670D01*
X128722219Y-86175634D01*
X128704976Y-86162846D01*
X128689070Y-86148430D01*
X128674654Y-86132524D01*
X128661866Y-86115281D01*
X128650830Y-86096868D01*
X128641651Y-86077462D01*
X128634419Y-86057250D01*
X128629203Y-86036426D01*
X128626053Y-86015191D01*
X128625000Y-85993750D01*
X128625000Y-85556250D01*
X128626053Y-85534809D01*
X128629203Y-85513574D01*
X128634419Y-85492750D01*
X128641651Y-85472538D01*
X128650830Y-85453132D01*
X128661866Y-85434719D01*
X128674654Y-85417476D01*
X128689070Y-85401570D01*
X128704976Y-85387154D01*
X128722219Y-85374366D01*
X128740632Y-85363330D01*
X128760038Y-85354151D01*
X128780250Y-85346919D01*
X128801074Y-85341703D01*
X128822309Y-85338553D01*
X128843750Y-85337500D01*
X129356250Y-85337500D01*
X129377691Y-85338553D01*
G37*
G36*
X123365191Y-92026053D02*
G01*
X123386426Y-92029203D01*
X123407250Y-92034419D01*
X123427462Y-92041651D01*
X123446868Y-92050830D01*
X123465281Y-92061866D01*
X123482524Y-92074654D01*
X123498430Y-92089070D01*
X123512846Y-92104976D01*
X123525634Y-92122219D01*
X123536670Y-92140632D01*
X123545849Y-92160038D01*
X123553081Y-92180250D01*
X123558297Y-92201074D01*
X123561447Y-92222309D01*
X123562500Y-92243750D01*
X123562500Y-92756250D01*
X123561447Y-92777691D01*
X123558297Y-92798926D01*
X123553081Y-92819750D01*
X123545849Y-92839962D01*
X123536670Y-92859368D01*
X123525634Y-92877781D01*
X123512846Y-92895024D01*
X123498430Y-92910930D01*
X123482524Y-92925346D01*
X123465281Y-92938134D01*
X123446868Y-92949170D01*
X123427462Y-92958349D01*
X123407250Y-92965581D01*
X123386426Y-92970797D01*
X123365191Y-92973947D01*
X123343750Y-92975000D01*
X122906250Y-92975000D01*
X122884809Y-92973947D01*
X122863574Y-92970797D01*
X122842750Y-92965581D01*
X122822538Y-92958349D01*
X122803132Y-92949170D01*
X122784719Y-92938134D01*
X122767476Y-92925346D01*
X122751570Y-92910930D01*
X122737154Y-92895024D01*
X122724366Y-92877781D01*
X122713330Y-92859368D01*
X122704151Y-92839962D01*
X122696919Y-92819750D01*
X122691703Y-92798926D01*
X122688553Y-92777691D01*
X122687500Y-92756250D01*
X122687500Y-92243750D01*
X122688553Y-92222309D01*
X122691703Y-92201074D01*
X122696919Y-92180250D01*
X122704151Y-92160038D01*
X122713330Y-92140632D01*
X122724366Y-92122219D01*
X122737154Y-92104976D01*
X122751570Y-92089070D01*
X122767476Y-92074654D01*
X122784719Y-92061866D01*
X122803132Y-92050830D01*
X122822538Y-92041651D01*
X122842750Y-92034419D01*
X122863574Y-92029203D01*
X122884809Y-92026053D01*
X122906250Y-92025000D01*
X123343750Y-92025000D01*
X123365191Y-92026053D01*
G37*
G36*
X124940191Y-92026053D02*
G01*
X124961426Y-92029203D01*
X124982250Y-92034419D01*
X125002462Y-92041651D01*
X125021868Y-92050830D01*
X125040281Y-92061866D01*
X125057524Y-92074654D01*
X125073430Y-92089070D01*
X125087846Y-92104976D01*
X125100634Y-92122219D01*
X125111670Y-92140632D01*
X125120849Y-92160038D01*
X125128081Y-92180250D01*
X125133297Y-92201074D01*
X125136447Y-92222309D01*
X125137500Y-92243750D01*
X125137500Y-92756250D01*
X125136447Y-92777691D01*
X125133297Y-92798926D01*
X125128081Y-92819750D01*
X125120849Y-92839962D01*
X125111670Y-92859368D01*
X125100634Y-92877781D01*
X125087846Y-92895024D01*
X125073430Y-92910930D01*
X125057524Y-92925346D01*
X125040281Y-92938134D01*
X125021868Y-92949170D01*
X125002462Y-92958349D01*
X124982250Y-92965581D01*
X124961426Y-92970797D01*
X124940191Y-92973947D01*
X124918750Y-92975000D01*
X124481250Y-92975000D01*
X124459809Y-92973947D01*
X124438574Y-92970797D01*
X124417750Y-92965581D01*
X124397538Y-92958349D01*
X124378132Y-92949170D01*
X124359719Y-92938134D01*
X124342476Y-92925346D01*
X124326570Y-92910930D01*
X124312154Y-92895024D01*
X124299366Y-92877781D01*
X124288330Y-92859368D01*
X124279151Y-92839962D01*
X124271919Y-92819750D01*
X124266703Y-92798926D01*
X124263553Y-92777691D01*
X124262500Y-92756250D01*
X124262500Y-92243750D01*
X124263553Y-92222309D01*
X124266703Y-92201074D01*
X124271919Y-92180250D01*
X124279151Y-92160038D01*
X124288330Y-92140632D01*
X124299366Y-92122219D01*
X124312154Y-92104976D01*
X124326570Y-92089070D01*
X124342476Y-92074654D01*
X124359719Y-92061866D01*
X124378132Y-92050830D01*
X124397538Y-92041651D01*
X124417750Y-92034419D01*
X124438574Y-92029203D01*
X124459809Y-92026053D01*
X124481250Y-92025000D01*
X124918750Y-92025000D01*
X124940191Y-92026053D01*
G37*
G36*
X155477691Y-88463553D02*
G01*
X155498926Y-88466703D01*
X155519750Y-88471919D01*
X155539962Y-88479151D01*
X155559368Y-88488330D01*
X155577781Y-88499366D01*
X155595024Y-88512154D01*
X155610930Y-88526570D01*
X155625346Y-88542476D01*
X155638134Y-88559719D01*
X155649170Y-88578132D01*
X155658349Y-88597538D01*
X155665581Y-88617750D01*
X155670797Y-88638574D01*
X155673947Y-88659809D01*
X155675000Y-88681250D01*
X155675000Y-89118750D01*
X155673947Y-89140191D01*
X155670797Y-89161426D01*
X155665581Y-89182250D01*
X155658349Y-89202462D01*
X155649170Y-89221868D01*
X155638134Y-89240281D01*
X155625346Y-89257524D01*
X155610930Y-89273430D01*
X155595024Y-89287846D01*
X155577781Y-89300634D01*
X155559368Y-89311670D01*
X155539962Y-89320849D01*
X155519750Y-89328081D01*
X155498926Y-89333297D01*
X155477691Y-89336447D01*
X155456250Y-89337500D01*
X154943750Y-89337500D01*
X154922309Y-89336447D01*
X154901074Y-89333297D01*
X154880250Y-89328081D01*
X154860038Y-89320849D01*
X154840632Y-89311670D01*
X154822219Y-89300634D01*
X154804976Y-89287846D01*
X154789070Y-89273430D01*
X154774654Y-89257524D01*
X154761866Y-89240281D01*
X154750830Y-89221868D01*
X154741651Y-89202462D01*
X154734419Y-89182250D01*
X154729203Y-89161426D01*
X154726053Y-89140191D01*
X154725000Y-89118750D01*
X154725000Y-88681250D01*
X154726053Y-88659809D01*
X154729203Y-88638574D01*
X154734419Y-88617750D01*
X154741651Y-88597538D01*
X154750830Y-88578132D01*
X154761866Y-88559719D01*
X154774654Y-88542476D01*
X154789070Y-88526570D01*
X154804976Y-88512154D01*
X154822219Y-88499366D01*
X154840632Y-88488330D01*
X154860038Y-88479151D01*
X154880250Y-88471919D01*
X154901074Y-88466703D01*
X154922309Y-88463553D01*
X154943750Y-88462500D01*
X155456250Y-88462500D01*
X155477691Y-88463553D01*
G37*
G36*
X155477691Y-90038553D02*
G01*
X155498926Y-90041703D01*
X155519750Y-90046919D01*
X155539962Y-90054151D01*
X155559368Y-90063330D01*
X155577781Y-90074366D01*
X155595024Y-90087154D01*
X155610930Y-90101570D01*
X155625346Y-90117476D01*
X155638134Y-90134719D01*
X155649170Y-90153132D01*
X155658349Y-90172538D01*
X155665581Y-90192750D01*
X155670797Y-90213574D01*
X155673947Y-90234809D01*
X155675000Y-90256250D01*
X155675000Y-90693750D01*
X155673947Y-90715191D01*
X155670797Y-90736426D01*
X155665581Y-90757250D01*
X155658349Y-90777462D01*
X155649170Y-90796868D01*
X155638134Y-90815281D01*
X155625346Y-90832524D01*
X155610930Y-90848430D01*
X155595024Y-90862846D01*
X155577781Y-90875634D01*
X155559368Y-90886670D01*
X155539962Y-90895849D01*
X155519750Y-90903081D01*
X155498926Y-90908297D01*
X155477691Y-90911447D01*
X155456250Y-90912500D01*
X154943750Y-90912500D01*
X154922309Y-90911447D01*
X154901074Y-90908297D01*
X154880250Y-90903081D01*
X154860038Y-90895849D01*
X154840632Y-90886670D01*
X154822219Y-90875634D01*
X154804976Y-90862846D01*
X154789070Y-90848430D01*
X154774654Y-90832524D01*
X154761866Y-90815281D01*
X154750830Y-90796868D01*
X154741651Y-90777462D01*
X154734419Y-90757250D01*
X154729203Y-90736426D01*
X154726053Y-90715191D01*
X154725000Y-90693750D01*
X154725000Y-90256250D01*
X154726053Y-90234809D01*
X154729203Y-90213574D01*
X154734419Y-90192750D01*
X154741651Y-90172538D01*
X154750830Y-90153132D01*
X154761866Y-90134719D01*
X154774654Y-90117476D01*
X154789070Y-90101570D01*
X154804976Y-90087154D01*
X154822219Y-90074366D01*
X154840632Y-90063330D01*
X154860038Y-90054151D01*
X154880250Y-90046919D01*
X154901074Y-90041703D01*
X154922309Y-90038553D01*
X154943750Y-90037500D01*
X155456250Y-90037500D01*
X155477691Y-90038553D01*
G37*
G36*
X138927691Y-115126053D02*
G01*
X138948926Y-115129203D01*
X138969750Y-115134419D01*
X138989962Y-115141651D01*
X139009368Y-115150830D01*
X139027781Y-115161866D01*
X139045024Y-115174654D01*
X139060930Y-115189070D01*
X139075346Y-115204976D01*
X139088134Y-115222219D01*
X139099170Y-115240632D01*
X139108349Y-115260038D01*
X139115581Y-115280250D01*
X139120797Y-115301074D01*
X139123947Y-115322309D01*
X139125000Y-115343750D01*
X139125000Y-115856250D01*
X139123947Y-115877691D01*
X139120797Y-115898926D01*
X139115581Y-115919750D01*
X139108349Y-115939962D01*
X139099170Y-115959368D01*
X139088134Y-115977781D01*
X139075346Y-115995024D01*
X139060930Y-116010930D01*
X139045024Y-116025346D01*
X139027781Y-116038134D01*
X139009368Y-116049170D01*
X138989962Y-116058349D01*
X138969750Y-116065581D01*
X138948926Y-116070797D01*
X138927691Y-116073947D01*
X138906250Y-116075000D01*
X138468750Y-116075000D01*
X138447309Y-116073947D01*
X138426074Y-116070797D01*
X138405250Y-116065581D01*
X138385038Y-116058349D01*
X138365632Y-116049170D01*
X138347219Y-116038134D01*
X138329976Y-116025346D01*
X138314070Y-116010930D01*
X138299654Y-115995024D01*
X138286866Y-115977781D01*
X138275830Y-115959368D01*
X138266651Y-115939962D01*
X138259419Y-115919750D01*
X138254203Y-115898926D01*
X138251053Y-115877691D01*
X138250000Y-115856250D01*
X138250000Y-115343750D01*
X138251053Y-115322309D01*
X138254203Y-115301074D01*
X138259419Y-115280250D01*
X138266651Y-115260038D01*
X138275830Y-115240632D01*
X138286866Y-115222219D01*
X138299654Y-115204976D01*
X138314070Y-115189070D01*
X138329976Y-115174654D01*
X138347219Y-115161866D01*
X138365632Y-115150830D01*
X138385038Y-115141651D01*
X138405250Y-115134419D01*
X138426074Y-115129203D01*
X138447309Y-115126053D01*
X138468750Y-115125000D01*
X138906250Y-115125000D01*
X138927691Y-115126053D01*
G37*
G36*
X137352691Y-115126053D02*
G01*
X137373926Y-115129203D01*
X137394750Y-115134419D01*
X137414962Y-115141651D01*
X137434368Y-115150830D01*
X137452781Y-115161866D01*
X137470024Y-115174654D01*
X137485930Y-115189070D01*
X137500346Y-115204976D01*
X137513134Y-115222219D01*
X137524170Y-115240632D01*
X137533349Y-115260038D01*
X137540581Y-115280250D01*
X137545797Y-115301074D01*
X137548947Y-115322309D01*
X137550000Y-115343750D01*
X137550000Y-115856250D01*
X137548947Y-115877691D01*
X137545797Y-115898926D01*
X137540581Y-115919750D01*
X137533349Y-115939962D01*
X137524170Y-115959368D01*
X137513134Y-115977781D01*
X137500346Y-115995024D01*
X137485930Y-116010930D01*
X137470024Y-116025346D01*
X137452781Y-116038134D01*
X137434368Y-116049170D01*
X137414962Y-116058349D01*
X137394750Y-116065581D01*
X137373926Y-116070797D01*
X137352691Y-116073947D01*
X137331250Y-116075000D01*
X136893750Y-116075000D01*
X136872309Y-116073947D01*
X136851074Y-116070797D01*
X136830250Y-116065581D01*
X136810038Y-116058349D01*
X136790632Y-116049170D01*
X136772219Y-116038134D01*
X136754976Y-116025346D01*
X136739070Y-116010930D01*
X136724654Y-115995024D01*
X136711866Y-115977781D01*
X136700830Y-115959368D01*
X136691651Y-115939962D01*
X136684419Y-115919750D01*
X136679203Y-115898926D01*
X136676053Y-115877691D01*
X136675000Y-115856250D01*
X136675000Y-115343750D01*
X136676053Y-115322309D01*
X136679203Y-115301074D01*
X136684419Y-115280250D01*
X136691651Y-115260038D01*
X136700830Y-115240632D01*
X136711866Y-115222219D01*
X136724654Y-115204976D01*
X136739070Y-115189070D01*
X136754976Y-115174654D01*
X136772219Y-115161866D01*
X136790632Y-115150830D01*
X136810038Y-115141651D01*
X136830250Y-115134419D01*
X136851074Y-115129203D01*
X136872309Y-115126053D01*
X136893750Y-115125000D01*
X137331250Y-115125000D01*
X137352691Y-115126053D01*
G37*
G36*
X139015191Y-111826053D02*
G01*
X139036426Y-111829203D01*
X139057250Y-111834419D01*
X139077462Y-111841651D01*
X139096868Y-111850830D01*
X139115281Y-111861866D01*
X139132524Y-111874654D01*
X139148430Y-111889070D01*
X139162846Y-111904976D01*
X139175634Y-111922219D01*
X139186670Y-111940632D01*
X139195849Y-111960038D01*
X139203081Y-111980250D01*
X139208297Y-112001074D01*
X139211447Y-112022309D01*
X139212500Y-112043750D01*
X139212500Y-112556250D01*
X139211447Y-112577691D01*
X139208297Y-112598926D01*
X139203081Y-112619750D01*
X139195849Y-112639962D01*
X139186670Y-112659368D01*
X139175634Y-112677781D01*
X139162846Y-112695024D01*
X139148430Y-112710930D01*
X139132524Y-112725346D01*
X139115281Y-112738134D01*
X139096868Y-112749170D01*
X139077462Y-112758349D01*
X139057250Y-112765581D01*
X139036426Y-112770797D01*
X139015191Y-112773947D01*
X138993750Y-112775000D01*
X138556250Y-112775000D01*
X138534809Y-112773947D01*
X138513574Y-112770797D01*
X138492750Y-112765581D01*
X138472538Y-112758349D01*
X138453132Y-112749170D01*
X138434719Y-112738134D01*
X138417476Y-112725346D01*
X138401570Y-112710930D01*
X138387154Y-112695024D01*
X138374366Y-112677781D01*
X138363330Y-112659368D01*
X138354151Y-112639962D01*
X138346919Y-112619750D01*
X138341703Y-112598926D01*
X138338553Y-112577691D01*
X138337500Y-112556250D01*
X138337500Y-112043750D01*
X138338553Y-112022309D01*
X138341703Y-112001074D01*
X138346919Y-111980250D01*
X138354151Y-111960038D01*
X138363330Y-111940632D01*
X138374366Y-111922219D01*
X138387154Y-111904976D01*
X138401570Y-111889070D01*
X138417476Y-111874654D01*
X138434719Y-111861866D01*
X138453132Y-111850830D01*
X138472538Y-111841651D01*
X138492750Y-111834419D01*
X138513574Y-111829203D01*
X138534809Y-111826053D01*
X138556250Y-111825000D01*
X138993750Y-111825000D01*
X139015191Y-111826053D01*
G37*
G36*
X137440191Y-111826053D02*
G01*
X137461426Y-111829203D01*
X137482250Y-111834419D01*
X137502462Y-111841651D01*
X137521868Y-111850830D01*
X137540281Y-111861866D01*
X137557524Y-111874654D01*
X137573430Y-111889070D01*
X137587846Y-111904976D01*
X137600634Y-111922219D01*
X137611670Y-111940632D01*
X137620849Y-111960038D01*
X137628081Y-111980250D01*
X137633297Y-112001074D01*
X137636447Y-112022309D01*
X137637500Y-112043750D01*
X137637500Y-112556250D01*
X137636447Y-112577691D01*
X137633297Y-112598926D01*
X137628081Y-112619750D01*
X137620849Y-112639962D01*
X137611670Y-112659368D01*
X137600634Y-112677781D01*
X137587846Y-112695024D01*
X137573430Y-112710930D01*
X137557524Y-112725346D01*
X137540281Y-112738134D01*
X137521868Y-112749170D01*
X137502462Y-112758349D01*
X137482250Y-112765581D01*
X137461426Y-112770797D01*
X137440191Y-112773947D01*
X137418750Y-112775000D01*
X136981250Y-112775000D01*
X136959809Y-112773947D01*
X136938574Y-112770797D01*
X136917750Y-112765581D01*
X136897538Y-112758349D01*
X136878132Y-112749170D01*
X136859719Y-112738134D01*
X136842476Y-112725346D01*
X136826570Y-112710930D01*
X136812154Y-112695024D01*
X136799366Y-112677781D01*
X136788330Y-112659368D01*
X136779151Y-112639962D01*
X136771919Y-112619750D01*
X136766703Y-112598926D01*
X136763553Y-112577691D01*
X136762500Y-112556250D01*
X136762500Y-112043750D01*
X136763553Y-112022309D01*
X136766703Y-112001074D01*
X136771919Y-111980250D01*
X136779151Y-111960038D01*
X136788330Y-111940632D01*
X136799366Y-111922219D01*
X136812154Y-111904976D01*
X136826570Y-111889070D01*
X136842476Y-111874654D01*
X136859719Y-111861866D01*
X136878132Y-111850830D01*
X136897538Y-111841651D01*
X136917750Y-111834419D01*
X136938574Y-111829203D01*
X136959809Y-111826053D01*
X136981250Y-111825000D01*
X137418750Y-111825000D01*
X137440191Y-111826053D01*
G37*
D14*
X146590000Y-74716600D03*
X148590000Y-73766600D03*
X148590000Y-75666600D03*
D10*
X128300000Y-91300000D03*
X127350000Y-89300000D03*
X129250000Y-89300000D03*
D13*
G36*
X143533691Y-77744653D02*
G01*
X143554926Y-77747803D01*
X143575750Y-77753019D01*
X143595962Y-77760251D01*
X143615368Y-77769430D01*
X143633781Y-77780466D01*
X143651024Y-77793254D01*
X143666930Y-77807670D01*
X143681346Y-77823576D01*
X143694134Y-77840819D01*
X143705170Y-77859232D01*
X143714349Y-77878638D01*
X143721581Y-77898850D01*
X143726797Y-77919674D01*
X143729947Y-77940909D01*
X143731000Y-77962350D01*
X143731000Y-78399850D01*
X143729947Y-78421291D01*
X143726797Y-78442526D01*
X143721581Y-78463350D01*
X143714349Y-78483562D01*
X143705170Y-78502968D01*
X143694134Y-78521381D01*
X143681346Y-78538624D01*
X143666930Y-78554530D01*
X143651024Y-78568946D01*
X143633781Y-78581734D01*
X143615368Y-78592770D01*
X143595962Y-78601949D01*
X143575750Y-78609181D01*
X143554926Y-78614397D01*
X143533691Y-78617547D01*
X143512250Y-78618600D01*
X142999750Y-78618600D01*
X142978309Y-78617547D01*
X142957074Y-78614397D01*
X142936250Y-78609181D01*
X142916038Y-78601949D01*
X142896632Y-78592770D01*
X142878219Y-78581734D01*
X142860976Y-78568946D01*
X142845070Y-78554530D01*
X142830654Y-78538624D01*
X142817866Y-78521381D01*
X142806830Y-78502968D01*
X142797651Y-78483562D01*
X142790419Y-78463350D01*
X142785203Y-78442526D01*
X142782053Y-78421291D01*
X142781000Y-78399850D01*
X142781000Y-77962350D01*
X142782053Y-77940909D01*
X142785203Y-77919674D01*
X142790419Y-77898850D01*
X142797651Y-77878638D01*
X142806830Y-77859232D01*
X142817866Y-77840819D01*
X142830654Y-77823576D01*
X142845070Y-77807670D01*
X142860976Y-77793254D01*
X142878219Y-77780466D01*
X142896632Y-77769430D01*
X142916038Y-77760251D01*
X142936250Y-77753019D01*
X142957074Y-77747803D01*
X142978309Y-77744653D01*
X142999750Y-77743600D01*
X143512250Y-77743600D01*
X143533691Y-77744653D01*
G37*
G36*
X143533691Y-79319653D02*
G01*
X143554926Y-79322803D01*
X143575750Y-79328019D01*
X143595962Y-79335251D01*
X143615368Y-79344430D01*
X143633781Y-79355466D01*
X143651024Y-79368254D01*
X143666930Y-79382670D01*
X143681346Y-79398576D01*
X143694134Y-79415819D01*
X143705170Y-79434232D01*
X143714349Y-79453638D01*
X143721581Y-79473850D01*
X143726797Y-79494674D01*
X143729947Y-79515909D01*
X143731000Y-79537350D01*
X143731000Y-79974850D01*
X143729947Y-79996291D01*
X143726797Y-80017526D01*
X143721581Y-80038350D01*
X143714349Y-80058562D01*
X143705170Y-80077968D01*
X143694134Y-80096381D01*
X143681346Y-80113624D01*
X143666930Y-80129530D01*
X143651024Y-80143946D01*
X143633781Y-80156734D01*
X143615368Y-80167770D01*
X143595962Y-80176949D01*
X143575750Y-80184181D01*
X143554926Y-80189397D01*
X143533691Y-80192547D01*
X143512250Y-80193600D01*
X142999750Y-80193600D01*
X142978309Y-80192547D01*
X142957074Y-80189397D01*
X142936250Y-80184181D01*
X142916038Y-80176949D01*
X142896632Y-80167770D01*
X142878219Y-80156734D01*
X142860976Y-80143946D01*
X142845070Y-80129530D01*
X142830654Y-80113624D01*
X142817866Y-80096381D01*
X142806830Y-80077968D01*
X142797651Y-80058562D01*
X142790419Y-80038350D01*
X142785203Y-80017526D01*
X142782053Y-79996291D01*
X142781000Y-79974850D01*
X142781000Y-79537350D01*
X142782053Y-79515909D01*
X142785203Y-79494674D01*
X142790419Y-79473850D01*
X142797651Y-79453638D01*
X142806830Y-79434232D01*
X142817866Y-79415819D01*
X142830654Y-79398576D01*
X142845070Y-79382670D01*
X142860976Y-79368254D01*
X142878219Y-79355466D01*
X142896632Y-79344430D01*
X142916038Y-79335251D01*
X142936250Y-79328019D01*
X142957074Y-79322803D01*
X142978309Y-79319653D01*
X142999750Y-79318600D01*
X143512250Y-79318600D01*
X143533691Y-79319653D01*
G37*
G36*
X152182991Y-75599053D02*
G01*
X152204226Y-75602203D01*
X152225050Y-75607419D01*
X152245262Y-75614651D01*
X152264668Y-75623830D01*
X152283081Y-75634866D01*
X152300324Y-75647654D01*
X152316230Y-75662070D01*
X152330646Y-75677976D01*
X152343434Y-75695219D01*
X152354470Y-75713632D01*
X152363649Y-75733038D01*
X152370881Y-75753250D01*
X152376097Y-75774074D01*
X152379247Y-75795309D01*
X152380300Y-75816750D01*
X152380300Y-76329250D01*
X152379247Y-76350691D01*
X152376097Y-76371926D01*
X152370881Y-76392750D01*
X152363649Y-76412962D01*
X152354470Y-76432368D01*
X152343434Y-76450781D01*
X152330646Y-76468024D01*
X152316230Y-76483930D01*
X152300324Y-76498346D01*
X152283081Y-76511134D01*
X152264668Y-76522170D01*
X152245262Y-76531349D01*
X152225050Y-76538581D01*
X152204226Y-76543797D01*
X152182991Y-76546947D01*
X152161550Y-76548000D01*
X151724050Y-76548000D01*
X151702609Y-76546947D01*
X151681374Y-76543797D01*
X151660550Y-76538581D01*
X151640338Y-76531349D01*
X151620932Y-76522170D01*
X151602519Y-76511134D01*
X151585276Y-76498346D01*
X151569370Y-76483930D01*
X151554954Y-76468024D01*
X151542166Y-76450781D01*
X151531130Y-76432368D01*
X151521951Y-76412962D01*
X151514719Y-76392750D01*
X151509503Y-76371926D01*
X151506353Y-76350691D01*
X151505300Y-76329250D01*
X151505300Y-75816750D01*
X151506353Y-75795309D01*
X151509503Y-75774074D01*
X151514719Y-75753250D01*
X151521951Y-75733038D01*
X151531130Y-75713632D01*
X151542166Y-75695219D01*
X151554954Y-75677976D01*
X151569370Y-75662070D01*
X151585276Y-75647654D01*
X151602519Y-75634866D01*
X151620932Y-75623830D01*
X151640338Y-75614651D01*
X151660550Y-75607419D01*
X151681374Y-75602203D01*
X151702609Y-75599053D01*
X151724050Y-75598000D01*
X152161550Y-75598000D01*
X152182991Y-75599053D01*
G37*
G36*
X153757991Y-75599053D02*
G01*
X153779226Y-75602203D01*
X153800050Y-75607419D01*
X153820262Y-75614651D01*
X153839668Y-75623830D01*
X153858081Y-75634866D01*
X153875324Y-75647654D01*
X153891230Y-75662070D01*
X153905646Y-75677976D01*
X153918434Y-75695219D01*
X153929470Y-75713632D01*
X153938649Y-75733038D01*
X153945881Y-75753250D01*
X153951097Y-75774074D01*
X153954247Y-75795309D01*
X153955300Y-75816750D01*
X153955300Y-76329250D01*
X153954247Y-76350691D01*
X153951097Y-76371926D01*
X153945881Y-76392750D01*
X153938649Y-76412962D01*
X153929470Y-76432368D01*
X153918434Y-76450781D01*
X153905646Y-76468024D01*
X153891230Y-76483930D01*
X153875324Y-76498346D01*
X153858081Y-76511134D01*
X153839668Y-76522170D01*
X153820262Y-76531349D01*
X153800050Y-76538581D01*
X153779226Y-76543797D01*
X153757991Y-76546947D01*
X153736550Y-76548000D01*
X153299050Y-76548000D01*
X153277609Y-76546947D01*
X153256374Y-76543797D01*
X153235550Y-76538581D01*
X153215338Y-76531349D01*
X153195932Y-76522170D01*
X153177519Y-76511134D01*
X153160276Y-76498346D01*
X153144370Y-76483930D01*
X153129954Y-76468024D01*
X153117166Y-76450781D01*
X153106130Y-76432368D01*
X153096951Y-76412962D01*
X153089719Y-76392750D01*
X153084503Y-76371926D01*
X153081353Y-76350691D01*
X153080300Y-76329250D01*
X153080300Y-75816750D01*
X153081353Y-75795309D01*
X153084503Y-75774074D01*
X153089719Y-75753250D01*
X153096951Y-75733038D01*
X153106130Y-75713632D01*
X153117166Y-75695219D01*
X153129954Y-75677976D01*
X153144370Y-75662070D01*
X153160276Y-75647654D01*
X153177519Y-75634866D01*
X153195932Y-75623830D01*
X153215338Y-75614651D01*
X153235550Y-75607419D01*
X153256374Y-75602203D01*
X153277609Y-75599053D01*
X153299050Y-75598000D01*
X153736550Y-75598000D01*
X153757991Y-75599053D01*
G37*
G36*
X157783091Y-84729753D02*
G01*
X157804326Y-84732903D01*
X157825150Y-84738119D01*
X157845362Y-84745351D01*
X157864768Y-84754530D01*
X157883181Y-84765566D01*
X157900424Y-84778354D01*
X157916330Y-84792770D01*
X157930746Y-84808676D01*
X157943534Y-84825919D01*
X157954570Y-84844332D01*
X157963749Y-84863738D01*
X157970981Y-84883950D01*
X157976197Y-84904774D01*
X157979347Y-84926009D01*
X157980400Y-84947450D01*
X157980400Y-85384950D01*
X157979347Y-85406391D01*
X157976197Y-85427626D01*
X157970981Y-85448450D01*
X157963749Y-85468662D01*
X157954570Y-85488068D01*
X157943534Y-85506481D01*
X157930746Y-85523724D01*
X157916330Y-85539630D01*
X157900424Y-85554046D01*
X157883181Y-85566834D01*
X157864768Y-85577870D01*
X157845362Y-85587049D01*
X157825150Y-85594281D01*
X157804326Y-85599497D01*
X157783091Y-85602647D01*
X157761650Y-85603700D01*
X157249150Y-85603700D01*
X157227709Y-85602647D01*
X157206474Y-85599497D01*
X157185650Y-85594281D01*
X157165438Y-85587049D01*
X157146032Y-85577870D01*
X157127619Y-85566834D01*
X157110376Y-85554046D01*
X157094470Y-85539630D01*
X157080054Y-85523724D01*
X157067266Y-85506481D01*
X157056230Y-85488068D01*
X157047051Y-85468662D01*
X157039819Y-85448450D01*
X157034603Y-85427626D01*
X157031453Y-85406391D01*
X157030400Y-85384950D01*
X157030400Y-84947450D01*
X157031453Y-84926009D01*
X157034603Y-84904774D01*
X157039819Y-84883950D01*
X157047051Y-84863738D01*
X157056230Y-84844332D01*
X157067266Y-84825919D01*
X157080054Y-84808676D01*
X157094470Y-84792770D01*
X157110376Y-84778354D01*
X157127619Y-84765566D01*
X157146032Y-84754530D01*
X157165438Y-84745351D01*
X157185650Y-84738119D01*
X157206474Y-84732903D01*
X157227709Y-84729753D01*
X157249150Y-84728700D01*
X157761650Y-84728700D01*
X157783091Y-84729753D01*
G37*
G36*
X157783091Y-83154753D02*
G01*
X157804326Y-83157903D01*
X157825150Y-83163119D01*
X157845362Y-83170351D01*
X157864768Y-83179530D01*
X157883181Y-83190566D01*
X157900424Y-83203354D01*
X157916330Y-83217770D01*
X157930746Y-83233676D01*
X157943534Y-83250919D01*
X157954570Y-83269332D01*
X157963749Y-83288738D01*
X157970981Y-83308950D01*
X157976197Y-83329774D01*
X157979347Y-83351009D01*
X157980400Y-83372450D01*
X157980400Y-83809950D01*
X157979347Y-83831391D01*
X157976197Y-83852626D01*
X157970981Y-83873450D01*
X157963749Y-83893662D01*
X157954570Y-83913068D01*
X157943534Y-83931481D01*
X157930746Y-83948724D01*
X157916330Y-83964630D01*
X157900424Y-83979046D01*
X157883181Y-83991834D01*
X157864768Y-84002870D01*
X157845362Y-84012049D01*
X157825150Y-84019281D01*
X157804326Y-84024497D01*
X157783091Y-84027647D01*
X157761650Y-84028700D01*
X157249150Y-84028700D01*
X157227709Y-84027647D01*
X157206474Y-84024497D01*
X157185650Y-84019281D01*
X157165438Y-84012049D01*
X157146032Y-84002870D01*
X157127619Y-83991834D01*
X157110376Y-83979046D01*
X157094470Y-83964630D01*
X157080054Y-83948724D01*
X157067266Y-83931481D01*
X157056230Y-83913068D01*
X157047051Y-83893662D01*
X157039819Y-83873450D01*
X157034603Y-83852626D01*
X157031453Y-83831391D01*
X157030400Y-83809950D01*
X157030400Y-83372450D01*
X157031453Y-83351009D01*
X157034603Y-83329774D01*
X157039819Y-83308950D01*
X157047051Y-83288738D01*
X157056230Y-83269332D01*
X157067266Y-83250919D01*
X157080054Y-83233676D01*
X157094470Y-83217770D01*
X157110376Y-83203354D01*
X157127619Y-83190566D01*
X157146032Y-83179530D01*
X157165438Y-83170351D01*
X157185650Y-83163119D01*
X157206474Y-83157903D01*
X157227709Y-83154753D01*
X157249150Y-83153700D01*
X157761650Y-83153700D01*
X157783091Y-83154753D01*
G37*
G36*
X131877691Y-85351053D02*
G01*
X131898926Y-85354203D01*
X131919750Y-85359419D01*
X131939962Y-85366651D01*
X131959368Y-85375830D01*
X131977781Y-85386866D01*
X131995024Y-85399654D01*
X132010930Y-85414070D01*
X132025346Y-85429976D01*
X132038134Y-85447219D01*
X132049170Y-85465632D01*
X132058349Y-85485038D01*
X132065581Y-85505250D01*
X132070797Y-85526074D01*
X132073947Y-85547309D01*
X132075000Y-85568750D01*
X132075000Y-86006250D01*
X132073947Y-86027691D01*
X132070797Y-86048926D01*
X132065581Y-86069750D01*
X132058349Y-86089962D01*
X132049170Y-86109368D01*
X132038134Y-86127781D01*
X132025346Y-86145024D01*
X132010930Y-86160930D01*
X131995024Y-86175346D01*
X131977781Y-86188134D01*
X131959368Y-86199170D01*
X131939962Y-86208349D01*
X131919750Y-86215581D01*
X131898926Y-86220797D01*
X131877691Y-86223947D01*
X131856250Y-86225000D01*
X131343750Y-86225000D01*
X131322309Y-86223947D01*
X131301074Y-86220797D01*
X131280250Y-86215581D01*
X131260038Y-86208349D01*
X131240632Y-86199170D01*
X131222219Y-86188134D01*
X131204976Y-86175346D01*
X131189070Y-86160930D01*
X131174654Y-86145024D01*
X131161866Y-86127781D01*
X131150830Y-86109368D01*
X131141651Y-86089962D01*
X131134419Y-86069750D01*
X131129203Y-86048926D01*
X131126053Y-86027691D01*
X131125000Y-86006250D01*
X131125000Y-85568750D01*
X131126053Y-85547309D01*
X131129203Y-85526074D01*
X131134419Y-85505250D01*
X131141651Y-85485038D01*
X131150830Y-85465632D01*
X131161866Y-85447219D01*
X131174654Y-85429976D01*
X131189070Y-85414070D01*
X131204976Y-85399654D01*
X131222219Y-85386866D01*
X131240632Y-85375830D01*
X131260038Y-85366651D01*
X131280250Y-85359419D01*
X131301074Y-85354203D01*
X131322309Y-85351053D01*
X131343750Y-85350000D01*
X131856250Y-85350000D01*
X131877691Y-85351053D01*
G37*
G36*
X131877691Y-83776053D02*
G01*
X131898926Y-83779203D01*
X131919750Y-83784419D01*
X131939962Y-83791651D01*
X131959368Y-83800830D01*
X131977781Y-83811866D01*
X131995024Y-83824654D01*
X132010930Y-83839070D01*
X132025346Y-83854976D01*
X132038134Y-83872219D01*
X132049170Y-83890632D01*
X132058349Y-83910038D01*
X132065581Y-83930250D01*
X132070797Y-83951074D01*
X132073947Y-83972309D01*
X132075000Y-83993750D01*
X132075000Y-84431250D01*
X132073947Y-84452691D01*
X132070797Y-84473926D01*
X132065581Y-84494750D01*
X132058349Y-84514962D01*
X132049170Y-84534368D01*
X132038134Y-84552781D01*
X132025346Y-84570024D01*
X132010930Y-84585930D01*
X131995024Y-84600346D01*
X131977781Y-84613134D01*
X131959368Y-84624170D01*
X131939962Y-84633349D01*
X131919750Y-84640581D01*
X131898926Y-84645797D01*
X131877691Y-84648947D01*
X131856250Y-84650000D01*
X131343750Y-84650000D01*
X131322309Y-84648947D01*
X131301074Y-84645797D01*
X131280250Y-84640581D01*
X131260038Y-84633349D01*
X131240632Y-84624170D01*
X131222219Y-84613134D01*
X131204976Y-84600346D01*
X131189070Y-84585930D01*
X131174654Y-84570024D01*
X131161866Y-84552781D01*
X131150830Y-84534368D01*
X131141651Y-84514962D01*
X131134419Y-84494750D01*
X131129203Y-84473926D01*
X131126053Y-84452691D01*
X131125000Y-84431250D01*
X131125000Y-83993750D01*
X131126053Y-83972309D01*
X131129203Y-83951074D01*
X131134419Y-83930250D01*
X131141651Y-83910038D01*
X131150830Y-83890632D01*
X131161866Y-83872219D01*
X131174654Y-83854976D01*
X131189070Y-83839070D01*
X131204976Y-83824654D01*
X131222219Y-83811866D01*
X131240632Y-83800830D01*
X131260038Y-83791651D01*
X131280250Y-83784419D01*
X131301074Y-83779203D01*
X131322309Y-83776053D01*
X131343750Y-83775000D01*
X131856250Y-83775000D01*
X131877691Y-83776053D01*
G37*
G36*
X124877691Y-85338553D02*
G01*
X124898926Y-85341703D01*
X124919750Y-85346919D01*
X124939962Y-85354151D01*
X124959368Y-85363330D01*
X124977781Y-85374366D01*
X124995024Y-85387154D01*
X125010930Y-85401570D01*
X125025346Y-85417476D01*
X125038134Y-85434719D01*
X125049170Y-85453132D01*
X125058349Y-85472538D01*
X125065581Y-85492750D01*
X125070797Y-85513574D01*
X125073947Y-85534809D01*
X125075000Y-85556250D01*
X125075000Y-85993750D01*
X125073947Y-86015191D01*
X125070797Y-86036426D01*
X125065581Y-86057250D01*
X125058349Y-86077462D01*
X125049170Y-86096868D01*
X125038134Y-86115281D01*
X125025346Y-86132524D01*
X125010930Y-86148430D01*
X124995024Y-86162846D01*
X124977781Y-86175634D01*
X124959368Y-86186670D01*
X124939962Y-86195849D01*
X124919750Y-86203081D01*
X124898926Y-86208297D01*
X124877691Y-86211447D01*
X124856250Y-86212500D01*
X124343750Y-86212500D01*
X124322309Y-86211447D01*
X124301074Y-86208297D01*
X124280250Y-86203081D01*
X124260038Y-86195849D01*
X124240632Y-86186670D01*
X124222219Y-86175634D01*
X124204976Y-86162846D01*
X124189070Y-86148430D01*
X124174654Y-86132524D01*
X124161866Y-86115281D01*
X124150830Y-86096868D01*
X124141651Y-86077462D01*
X124134419Y-86057250D01*
X124129203Y-86036426D01*
X124126053Y-86015191D01*
X124125000Y-85993750D01*
X124125000Y-85556250D01*
X124126053Y-85534809D01*
X124129203Y-85513574D01*
X124134419Y-85492750D01*
X124141651Y-85472538D01*
X124150830Y-85453132D01*
X124161866Y-85434719D01*
X124174654Y-85417476D01*
X124189070Y-85401570D01*
X124204976Y-85387154D01*
X124222219Y-85374366D01*
X124240632Y-85363330D01*
X124260038Y-85354151D01*
X124280250Y-85346919D01*
X124301074Y-85341703D01*
X124322309Y-85338553D01*
X124343750Y-85337500D01*
X124856250Y-85337500D01*
X124877691Y-85338553D01*
G37*
G36*
X124877691Y-83763553D02*
G01*
X124898926Y-83766703D01*
X124919750Y-83771919D01*
X124939962Y-83779151D01*
X124959368Y-83788330D01*
X124977781Y-83799366D01*
X124995024Y-83812154D01*
X125010930Y-83826570D01*
X125025346Y-83842476D01*
X125038134Y-83859719D01*
X125049170Y-83878132D01*
X125058349Y-83897538D01*
X125065581Y-83917750D01*
X125070797Y-83938574D01*
X125073947Y-83959809D01*
X125075000Y-83981250D01*
X125075000Y-84418750D01*
X125073947Y-84440191D01*
X125070797Y-84461426D01*
X125065581Y-84482250D01*
X125058349Y-84502462D01*
X125049170Y-84521868D01*
X125038134Y-84540281D01*
X125025346Y-84557524D01*
X125010930Y-84573430D01*
X124995024Y-84587846D01*
X124977781Y-84600634D01*
X124959368Y-84611670D01*
X124939962Y-84620849D01*
X124919750Y-84628081D01*
X124898926Y-84633297D01*
X124877691Y-84636447D01*
X124856250Y-84637500D01*
X124343750Y-84637500D01*
X124322309Y-84636447D01*
X124301074Y-84633297D01*
X124280250Y-84628081D01*
X124260038Y-84620849D01*
X124240632Y-84611670D01*
X124222219Y-84600634D01*
X124204976Y-84587846D01*
X124189070Y-84573430D01*
X124174654Y-84557524D01*
X124161866Y-84540281D01*
X124150830Y-84521868D01*
X124141651Y-84502462D01*
X124134419Y-84482250D01*
X124129203Y-84461426D01*
X124126053Y-84440191D01*
X124125000Y-84418750D01*
X124125000Y-83981250D01*
X124126053Y-83959809D01*
X124129203Y-83938574D01*
X124134419Y-83917750D01*
X124141651Y-83897538D01*
X124150830Y-83878132D01*
X124161866Y-83859719D01*
X124174654Y-83842476D01*
X124189070Y-83826570D01*
X124204976Y-83812154D01*
X124222219Y-83799366D01*
X124240632Y-83788330D01*
X124260038Y-83779151D01*
X124280250Y-83771919D01*
X124301074Y-83766703D01*
X124322309Y-83763553D01*
X124343750Y-83762500D01*
X124856250Y-83762500D01*
X124877691Y-83763553D01*
G37*
G36*
X121977691Y-85338553D02*
G01*
X121998926Y-85341703D01*
X122019750Y-85346919D01*
X122039962Y-85354151D01*
X122059368Y-85363330D01*
X122077781Y-85374366D01*
X122095024Y-85387154D01*
X122110930Y-85401570D01*
X122125346Y-85417476D01*
X122138134Y-85434719D01*
X122149170Y-85453132D01*
X122158349Y-85472538D01*
X122165581Y-85492750D01*
X122170797Y-85513574D01*
X122173947Y-85534809D01*
X122175000Y-85556250D01*
X122175000Y-85993750D01*
X122173947Y-86015191D01*
X122170797Y-86036426D01*
X122165581Y-86057250D01*
X122158349Y-86077462D01*
X122149170Y-86096868D01*
X122138134Y-86115281D01*
X122125346Y-86132524D01*
X122110930Y-86148430D01*
X122095024Y-86162846D01*
X122077781Y-86175634D01*
X122059368Y-86186670D01*
X122039962Y-86195849D01*
X122019750Y-86203081D01*
X121998926Y-86208297D01*
X121977691Y-86211447D01*
X121956250Y-86212500D01*
X121443750Y-86212500D01*
X121422309Y-86211447D01*
X121401074Y-86208297D01*
X121380250Y-86203081D01*
X121360038Y-86195849D01*
X121340632Y-86186670D01*
X121322219Y-86175634D01*
X121304976Y-86162846D01*
X121289070Y-86148430D01*
X121274654Y-86132524D01*
X121261866Y-86115281D01*
X121250830Y-86096868D01*
X121241651Y-86077462D01*
X121234419Y-86057250D01*
X121229203Y-86036426D01*
X121226053Y-86015191D01*
X121225000Y-85993750D01*
X121225000Y-85556250D01*
X121226053Y-85534809D01*
X121229203Y-85513574D01*
X121234419Y-85492750D01*
X121241651Y-85472538D01*
X121250830Y-85453132D01*
X121261866Y-85434719D01*
X121274654Y-85417476D01*
X121289070Y-85401570D01*
X121304976Y-85387154D01*
X121322219Y-85374366D01*
X121340632Y-85363330D01*
X121360038Y-85354151D01*
X121380250Y-85346919D01*
X121401074Y-85341703D01*
X121422309Y-85338553D01*
X121443750Y-85337500D01*
X121956250Y-85337500D01*
X121977691Y-85338553D01*
G37*
G36*
X121977691Y-83763553D02*
G01*
X121998926Y-83766703D01*
X122019750Y-83771919D01*
X122039962Y-83779151D01*
X122059368Y-83788330D01*
X122077781Y-83799366D01*
X122095024Y-83812154D01*
X122110930Y-83826570D01*
X122125346Y-83842476D01*
X122138134Y-83859719D01*
X122149170Y-83878132D01*
X122158349Y-83897538D01*
X122165581Y-83917750D01*
X122170797Y-83938574D01*
X122173947Y-83959809D01*
X122175000Y-83981250D01*
X122175000Y-84418750D01*
X122173947Y-84440191D01*
X122170797Y-84461426D01*
X122165581Y-84482250D01*
X122158349Y-84502462D01*
X122149170Y-84521868D01*
X122138134Y-84540281D01*
X122125346Y-84557524D01*
X122110930Y-84573430D01*
X122095024Y-84587846D01*
X122077781Y-84600634D01*
X122059368Y-84611670D01*
X122039962Y-84620849D01*
X122019750Y-84628081D01*
X121998926Y-84633297D01*
X121977691Y-84636447D01*
X121956250Y-84637500D01*
X121443750Y-84637500D01*
X121422309Y-84636447D01*
X121401074Y-84633297D01*
X121380250Y-84628081D01*
X121360038Y-84620849D01*
X121340632Y-84611670D01*
X121322219Y-84600634D01*
X121304976Y-84587846D01*
X121289070Y-84573430D01*
X121274654Y-84557524D01*
X121261866Y-84540281D01*
X121250830Y-84521868D01*
X121241651Y-84502462D01*
X121234419Y-84482250D01*
X121229203Y-84461426D01*
X121226053Y-84440191D01*
X121225000Y-84418750D01*
X121225000Y-83981250D01*
X121226053Y-83959809D01*
X121229203Y-83938574D01*
X121234419Y-83917750D01*
X121241651Y-83897538D01*
X121250830Y-83878132D01*
X121261866Y-83859719D01*
X121274654Y-83842476D01*
X121289070Y-83826570D01*
X121304976Y-83812154D01*
X121322219Y-83799366D01*
X121340632Y-83788330D01*
X121360038Y-83779151D01*
X121380250Y-83771919D01*
X121401074Y-83766703D01*
X121422309Y-83763553D01*
X121443750Y-83762500D01*
X121956250Y-83762500D01*
X121977691Y-83763553D01*
G37*
G36*
X157927691Y-110026053D02*
G01*
X157948926Y-110029203D01*
X157969750Y-110034419D01*
X157989962Y-110041651D01*
X158009368Y-110050830D01*
X158027781Y-110061866D01*
X158045024Y-110074654D01*
X158060930Y-110089070D01*
X158075346Y-110104976D01*
X158088134Y-110122219D01*
X158099170Y-110140632D01*
X158108349Y-110160038D01*
X158115581Y-110180250D01*
X158120797Y-110201074D01*
X158123947Y-110222309D01*
X158125000Y-110243750D01*
X158125000Y-110756250D01*
X158123947Y-110777691D01*
X158120797Y-110798926D01*
X158115581Y-110819750D01*
X158108349Y-110839962D01*
X158099170Y-110859368D01*
X158088134Y-110877781D01*
X158075346Y-110895024D01*
X158060930Y-110910930D01*
X158045024Y-110925346D01*
X158027781Y-110938134D01*
X158009368Y-110949170D01*
X157989962Y-110958349D01*
X157969750Y-110965581D01*
X157948926Y-110970797D01*
X157927691Y-110973947D01*
X157906250Y-110975000D01*
X157468750Y-110975000D01*
X157447309Y-110973947D01*
X157426074Y-110970797D01*
X157405250Y-110965581D01*
X157385038Y-110958349D01*
X157365632Y-110949170D01*
X157347219Y-110938134D01*
X157329976Y-110925346D01*
X157314070Y-110910930D01*
X157299654Y-110895024D01*
X157286866Y-110877781D01*
X157275830Y-110859368D01*
X157266651Y-110839962D01*
X157259419Y-110819750D01*
X157254203Y-110798926D01*
X157251053Y-110777691D01*
X157250000Y-110756250D01*
X157250000Y-110243750D01*
X157251053Y-110222309D01*
X157254203Y-110201074D01*
X157259419Y-110180250D01*
X157266651Y-110160038D01*
X157275830Y-110140632D01*
X157286866Y-110122219D01*
X157299654Y-110104976D01*
X157314070Y-110089070D01*
X157329976Y-110074654D01*
X157347219Y-110061866D01*
X157365632Y-110050830D01*
X157385038Y-110041651D01*
X157405250Y-110034419D01*
X157426074Y-110029203D01*
X157447309Y-110026053D01*
X157468750Y-110025000D01*
X157906250Y-110025000D01*
X157927691Y-110026053D01*
G37*
G36*
X156352691Y-110026053D02*
G01*
X156373926Y-110029203D01*
X156394750Y-110034419D01*
X156414962Y-110041651D01*
X156434368Y-110050830D01*
X156452781Y-110061866D01*
X156470024Y-110074654D01*
X156485930Y-110089070D01*
X156500346Y-110104976D01*
X156513134Y-110122219D01*
X156524170Y-110140632D01*
X156533349Y-110160038D01*
X156540581Y-110180250D01*
X156545797Y-110201074D01*
X156548947Y-110222309D01*
X156550000Y-110243750D01*
X156550000Y-110756250D01*
X156548947Y-110777691D01*
X156545797Y-110798926D01*
X156540581Y-110819750D01*
X156533349Y-110839962D01*
X156524170Y-110859368D01*
X156513134Y-110877781D01*
X156500346Y-110895024D01*
X156485930Y-110910930D01*
X156470024Y-110925346D01*
X156452781Y-110938134D01*
X156434368Y-110949170D01*
X156414962Y-110958349D01*
X156394750Y-110965581D01*
X156373926Y-110970797D01*
X156352691Y-110973947D01*
X156331250Y-110975000D01*
X155893750Y-110975000D01*
X155872309Y-110973947D01*
X155851074Y-110970797D01*
X155830250Y-110965581D01*
X155810038Y-110958349D01*
X155790632Y-110949170D01*
X155772219Y-110938134D01*
X155754976Y-110925346D01*
X155739070Y-110910930D01*
X155724654Y-110895024D01*
X155711866Y-110877781D01*
X155700830Y-110859368D01*
X155691651Y-110839962D01*
X155684419Y-110819750D01*
X155679203Y-110798926D01*
X155676053Y-110777691D01*
X155675000Y-110756250D01*
X155675000Y-110243750D01*
X155676053Y-110222309D01*
X155679203Y-110201074D01*
X155684419Y-110180250D01*
X155691651Y-110160038D01*
X155700830Y-110140632D01*
X155711866Y-110122219D01*
X155724654Y-110104976D01*
X155739070Y-110089070D01*
X155754976Y-110074654D01*
X155772219Y-110061866D01*
X155790632Y-110050830D01*
X155810038Y-110041651D01*
X155830250Y-110034419D01*
X155851074Y-110029203D01*
X155872309Y-110026053D01*
X155893750Y-110025000D01*
X156331250Y-110025000D01*
X156352691Y-110026053D01*
G37*
G36*
X133840191Y-101326053D02*
G01*
X133861426Y-101329203D01*
X133882250Y-101334419D01*
X133902462Y-101341651D01*
X133921868Y-101350830D01*
X133940281Y-101361866D01*
X133957524Y-101374654D01*
X133973430Y-101389070D01*
X133987846Y-101404976D01*
X134000634Y-101422219D01*
X134011670Y-101440632D01*
X134020849Y-101460038D01*
X134028081Y-101480250D01*
X134033297Y-101501074D01*
X134036447Y-101522309D01*
X134037500Y-101543750D01*
X134037500Y-102056250D01*
X134036447Y-102077691D01*
X134033297Y-102098926D01*
X134028081Y-102119750D01*
X134020849Y-102139962D01*
X134011670Y-102159368D01*
X134000634Y-102177781D01*
X133987846Y-102195024D01*
X133973430Y-102210930D01*
X133957524Y-102225346D01*
X133940281Y-102238134D01*
X133921868Y-102249170D01*
X133902462Y-102258349D01*
X133882250Y-102265581D01*
X133861426Y-102270797D01*
X133840191Y-102273947D01*
X133818750Y-102275000D01*
X133381250Y-102275000D01*
X133359809Y-102273947D01*
X133338574Y-102270797D01*
X133317750Y-102265581D01*
X133297538Y-102258349D01*
X133278132Y-102249170D01*
X133259719Y-102238134D01*
X133242476Y-102225346D01*
X133226570Y-102210930D01*
X133212154Y-102195024D01*
X133199366Y-102177781D01*
X133188330Y-102159368D01*
X133179151Y-102139962D01*
X133171919Y-102119750D01*
X133166703Y-102098926D01*
X133163553Y-102077691D01*
X133162500Y-102056250D01*
X133162500Y-101543750D01*
X133163553Y-101522309D01*
X133166703Y-101501074D01*
X133171919Y-101480250D01*
X133179151Y-101460038D01*
X133188330Y-101440632D01*
X133199366Y-101422219D01*
X133212154Y-101404976D01*
X133226570Y-101389070D01*
X133242476Y-101374654D01*
X133259719Y-101361866D01*
X133278132Y-101350830D01*
X133297538Y-101341651D01*
X133317750Y-101334419D01*
X133338574Y-101329203D01*
X133359809Y-101326053D01*
X133381250Y-101325000D01*
X133818750Y-101325000D01*
X133840191Y-101326053D01*
G37*
G36*
X135415191Y-101326053D02*
G01*
X135436426Y-101329203D01*
X135457250Y-101334419D01*
X135477462Y-101341651D01*
X135496868Y-101350830D01*
X135515281Y-101361866D01*
X135532524Y-101374654D01*
X135548430Y-101389070D01*
X135562846Y-101404976D01*
X135575634Y-101422219D01*
X135586670Y-101440632D01*
X135595849Y-101460038D01*
X135603081Y-101480250D01*
X135608297Y-101501074D01*
X135611447Y-101522309D01*
X135612500Y-101543750D01*
X135612500Y-102056250D01*
X135611447Y-102077691D01*
X135608297Y-102098926D01*
X135603081Y-102119750D01*
X135595849Y-102139962D01*
X135586670Y-102159368D01*
X135575634Y-102177781D01*
X135562846Y-102195024D01*
X135548430Y-102210930D01*
X135532524Y-102225346D01*
X135515281Y-102238134D01*
X135496868Y-102249170D01*
X135477462Y-102258349D01*
X135457250Y-102265581D01*
X135436426Y-102270797D01*
X135415191Y-102273947D01*
X135393750Y-102275000D01*
X134956250Y-102275000D01*
X134934809Y-102273947D01*
X134913574Y-102270797D01*
X134892750Y-102265581D01*
X134872538Y-102258349D01*
X134853132Y-102249170D01*
X134834719Y-102238134D01*
X134817476Y-102225346D01*
X134801570Y-102210930D01*
X134787154Y-102195024D01*
X134774366Y-102177781D01*
X134763330Y-102159368D01*
X134754151Y-102139962D01*
X134746919Y-102119750D01*
X134741703Y-102098926D01*
X134738553Y-102077691D01*
X134737500Y-102056250D01*
X134737500Y-101543750D01*
X134738553Y-101522309D01*
X134741703Y-101501074D01*
X134746919Y-101480250D01*
X134754151Y-101460038D01*
X134763330Y-101440632D01*
X134774366Y-101422219D01*
X134787154Y-101404976D01*
X134801570Y-101389070D01*
X134817476Y-101374654D01*
X134834719Y-101361866D01*
X134853132Y-101350830D01*
X134872538Y-101341651D01*
X134892750Y-101334419D01*
X134913574Y-101329203D01*
X134934809Y-101326053D01*
X134956250Y-101325000D01*
X135393750Y-101325000D01*
X135415191Y-101326053D01*
G37*
G36*
X129840191Y-103526053D02*
G01*
X129861426Y-103529203D01*
X129882250Y-103534419D01*
X129902462Y-103541651D01*
X129921868Y-103550830D01*
X129940281Y-103561866D01*
X129957524Y-103574654D01*
X129973430Y-103589070D01*
X129987846Y-103604976D01*
X130000634Y-103622219D01*
X130011670Y-103640632D01*
X130020849Y-103660038D01*
X130028081Y-103680250D01*
X130033297Y-103701074D01*
X130036447Y-103722309D01*
X130037500Y-103743750D01*
X130037500Y-104256250D01*
X130036447Y-104277691D01*
X130033297Y-104298926D01*
X130028081Y-104319750D01*
X130020849Y-104339962D01*
X130011670Y-104359368D01*
X130000634Y-104377781D01*
X129987846Y-104395024D01*
X129973430Y-104410930D01*
X129957524Y-104425346D01*
X129940281Y-104438134D01*
X129921868Y-104449170D01*
X129902462Y-104458349D01*
X129882250Y-104465581D01*
X129861426Y-104470797D01*
X129840191Y-104473947D01*
X129818750Y-104475000D01*
X129381250Y-104475000D01*
X129359809Y-104473947D01*
X129338574Y-104470797D01*
X129317750Y-104465581D01*
X129297538Y-104458349D01*
X129278132Y-104449170D01*
X129259719Y-104438134D01*
X129242476Y-104425346D01*
X129226570Y-104410930D01*
X129212154Y-104395024D01*
X129199366Y-104377781D01*
X129188330Y-104359368D01*
X129179151Y-104339962D01*
X129171919Y-104319750D01*
X129166703Y-104298926D01*
X129163553Y-104277691D01*
X129162500Y-104256250D01*
X129162500Y-103743750D01*
X129163553Y-103722309D01*
X129166703Y-103701074D01*
X129171919Y-103680250D01*
X129179151Y-103660038D01*
X129188330Y-103640632D01*
X129199366Y-103622219D01*
X129212154Y-103604976D01*
X129226570Y-103589070D01*
X129242476Y-103574654D01*
X129259719Y-103561866D01*
X129278132Y-103550830D01*
X129297538Y-103541651D01*
X129317750Y-103534419D01*
X129338574Y-103529203D01*
X129359809Y-103526053D01*
X129381250Y-103525000D01*
X129818750Y-103525000D01*
X129840191Y-103526053D01*
G37*
G36*
X131415191Y-103526053D02*
G01*
X131436426Y-103529203D01*
X131457250Y-103534419D01*
X131477462Y-103541651D01*
X131496868Y-103550830D01*
X131515281Y-103561866D01*
X131532524Y-103574654D01*
X131548430Y-103589070D01*
X131562846Y-103604976D01*
X131575634Y-103622219D01*
X131586670Y-103640632D01*
X131595849Y-103660038D01*
X131603081Y-103680250D01*
X131608297Y-103701074D01*
X131611447Y-103722309D01*
X131612500Y-103743750D01*
X131612500Y-104256250D01*
X131611447Y-104277691D01*
X131608297Y-104298926D01*
X131603081Y-104319750D01*
X131595849Y-104339962D01*
X131586670Y-104359368D01*
X131575634Y-104377781D01*
X131562846Y-104395024D01*
X131548430Y-104410930D01*
X131532524Y-104425346D01*
X131515281Y-104438134D01*
X131496868Y-104449170D01*
X131477462Y-104458349D01*
X131457250Y-104465581D01*
X131436426Y-104470797D01*
X131415191Y-104473947D01*
X131393750Y-104475000D01*
X130956250Y-104475000D01*
X130934809Y-104473947D01*
X130913574Y-104470797D01*
X130892750Y-104465581D01*
X130872538Y-104458349D01*
X130853132Y-104449170D01*
X130834719Y-104438134D01*
X130817476Y-104425346D01*
X130801570Y-104410930D01*
X130787154Y-104395024D01*
X130774366Y-104377781D01*
X130763330Y-104359368D01*
X130754151Y-104339962D01*
X130746919Y-104319750D01*
X130741703Y-104298926D01*
X130738553Y-104277691D01*
X130737500Y-104256250D01*
X130737500Y-103743750D01*
X130738553Y-103722309D01*
X130741703Y-103701074D01*
X130746919Y-103680250D01*
X130754151Y-103660038D01*
X130763330Y-103640632D01*
X130774366Y-103622219D01*
X130787154Y-103604976D01*
X130801570Y-103589070D01*
X130817476Y-103574654D01*
X130834719Y-103561866D01*
X130853132Y-103550830D01*
X130872538Y-103541651D01*
X130892750Y-103534419D01*
X130913574Y-103529203D01*
X130934809Y-103526053D01*
X130956250Y-103525000D01*
X131393750Y-103525000D01*
X131415191Y-103526053D01*
G37*
G36*
X157140191Y-106726053D02*
G01*
X157161426Y-106729203D01*
X157182250Y-106734419D01*
X157202462Y-106741651D01*
X157221868Y-106750830D01*
X157240281Y-106761866D01*
X157257524Y-106774654D01*
X157273430Y-106789070D01*
X157287846Y-106804976D01*
X157300634Y-106822219D01*
X157311670Y-106840632D01*
X157320849Y-106860038D01*
X157328081Y-106880250D01*
X157333297Y-106901074D01*
X157336447Y-106922309D01*
X157337500Y-106943750D01*
X157337500Y-107456250D01*
X157336447Y-107477691D01*
X157333297Y-107498926D01*
X157328081Y-107519750D01*
X157320849Y-107539962D01*
X157311670Y-107559368D01*
X157300634Y-107577781D01*
X157287846Y-107595024D01*
X157273430Y-107610930D01*
X157257524Y-107625346D01*
X157240281Y-107638134D01*
X157221868Y-107649170D01*
X157202462Y-107658349D01*
X157182250Y-107665581D01*
X157161426Y-107670797D01*
X157140191Y-107673947D01*
X157118750Y-107675000D01*
X156681250Y-107675000D01*
X156659809Y-107673947D01*
X156638574Y-107670797D01*
X156617750Y-107665581D01*
X156597538Y-107658349D01*
X156578132Y-107649170D01*
X156559719Y-107638134D01*
X156542476Y-107625346D01*
X156526570Y-107610930D01*
X156512154Y-107595024D01*
X156499366Y-107577781D01*
X156488330Y-107559368D01*
X156479151Y-107539962D01*
X156471919Y-107519750D01*
X156466703Y-107498926D01*
X156463553Y-107477691D01*
X156462500Y-107456250D01*
X156462500Y-106943750D01*
X156463553Y-106922309D01*
X156466703Y-106901074D01*
X156471919Y-106880250D01*
X156479151Y-106860038D01*
X156488330Y-106840632D01*
X156499366Y-106822219D01*
X156512154Y-106804976D01*
X156526570Y-106789070D01*
X156542476Y-106774654D01*
X156559719Y-106761866D01*
X156578132Y-106750830D01*
X156597538Y-106741651D01*
X156617750Y-106734419D01*
X156638574Y-106729203D01*
X156659809Y-106726053D01*
X156681250Y-106725000D01*
X157118750Y-106725000D01*
X157140191Y-106726053D01*
G37*
G36*
X155565191Y-106726053D02*
G01*
X155586426Y-106729203D01*
X155607250Y-106734419D01*
X155627462Y-106741651D01*
X155646868Y-106750830D01*
X155665281Y-106761866D01*
X155682524Y-106774654D01*
X155698430Y-106789070D01*
X155712846Y-106804976D01*
X155725634Y-106822219D01*
X155736670Y-106840632D01*
X155745849Y-106860038D01*
X155753081Y-106880250D01*
X155758297Y-106901074D01*
X155761447Y-106922309D01*
X155762500Y-106943750D01*
X155762500Y-107456250D01*
X155761447Y-107477691D01*
X155758297Y-107498926D01*
X155753081Y-107519750D01*
X155745849Y-107539962D01*
X155736670Y-107559368D01*
X155725634Y-107577781D01*
X155712846Y-107595024D01*
X155698430Y-107610930D01*
X155682524Y-107625346D01*
X155665281Y-107638134D01*
X155646868Y-107649170D01*
X155627462Y-107658349D01*
X155607250Y-107665581D01*
X155586426Y-107670797D01*
X155565191Y-107673947D01*
X155543750Y-107675000D01*
X155106250Y-107675000D01*
X155084809Y-107673947D01*
X155063574Y-107670797D01*
X155042750Y-107665581D01*
X155022538Y-107658349D01*
X155003132Y-107649170D01*
X154984719Y-107638134D01*
X154967476Y-107625346D01*
X154951570Y-107610930D01*
X154937154Y-107595024D01*
X154924366Y-107577781D01*
X154913330Y-107559368D01*
X154904151Y-107539962D01*
X154896919Y-107519750D01*
X154891703Y-107498926D01*
X154888553Y-107477691D01*
X154887500Y-107456250D01*
X154887500Y-106943750D01*
X154888553Y-106922309D01*
X154891703Y-106901074D01*
X154896919Y-106880250D01*
X154904151Y-106860038D01*
X154913330Y-106840632D01*
X154924366Y-106822219D01*
X154937154Y-106804976D01*
X154951570Y-106789070D01*
X154967476Y-106774654D01*
X154984719Y-106761866D01*
X155003132Y-106750830D01*
X155022538Y-106741651D01*
X155042750Y-106734419D01*
X155063574Y-106729203D01*
X155084809Y-106726053D01*
X155106250Y-106725000D01*
X155543750Y-106725000D01*
X155565191Y-106726053D01*
G37*
G36*
X150671091Y-81656453D02*
G01*
X150692326Y-81659603D01*
X150713150Y-81664819D01*
X150733362Y-81672051D01*
X150752768Y-81681230D01*
X150771181Y-81692266D01*
X150788424Y-81705054D01*
X150804330Y-81719470D01*
X150818746Y-81735376D01*
X150831534Y-81752619D01*
X150842570Y-81771032D01*
X150851749Y-81790438D01*
X150858981Y-81810650D01*
X150864197Y-81831474D01*
X150867347Y-81852709D01*
X150868400Y-81874150D01*
X150868400Y-82311650D01*
X150867347Y-82333091D01*
X150864197Y-82354326D01*
X150858981Y-82375150D01*
X150851749Y-82395362D01*
X150842570Y-82414768D01*
X150831534Y-82433181D01*
X150818746Y-82450424D01*
X150804330Y-82466330D01*
X150788424Y-82480746D01*
X150771181Y-82493534D01*
X150752768Y-82504570D01*
X150733362Y-82513749D01*
X150713150Y-82520981D01*
X150692326Y-82526197D01*
X150671091Y-82529347D01*
X150649650Y-82530400D01*
X150137150Y-82530400D01*
X150115709Y-82529347D01*
X150094474Y-82526197D01*
X150073650Y-82520981D01*
X150053438Y-82513749D01*
X150034032Y-82504570D01*
X150015619Y-82493534D01*
X149998376Y-82480746D01*
X149982470Y-82466330D01*
X149968054Y-82450424D01*
X149955266Y-82433181D01*
X149944230Y-82414768D01*
X149935051Y-82395362D01*
X149927819Y-82375150D01*
X149922603Y-82354326D01*
X149919453Y-82333091D01*
X149918400Y-82311650D01*
X149918400Y-81874150D01*
X149919453Y-81852709D01*
X149922603Y-81831474D01*
X149927819Y-81810650D01*
X149935051Y-81790438D01*
X149944230Y-81771032D01*
X149955266Y-81752619D01*
X149968054Y-81735376D01*
X149982470Y-81719470D01*
X149998376Y-81705054D01*
X150015619Y-81692266D01*
X150034032Y-81681230D01*
X150053438Y-81672051D01*
X150073650Y-81664819D01*
X150094474Y-81659603D01*
X150115709Y-81656453D01*
X150137150Y-81655400D01*
X150649650Y-81655400D01*
X150671091Y-81656453D01*
G37*
G36*
X150671091Y-80081453D02*
G01*
X150692326Y-80084603D01*
X150713150Y-80089819D01*
X150733362Y-80097051D01*
X150752768Y-80106230D01*
X150771181Y-80117266D01*
X150788424Y-80130054D01*
X150804330Y-80144470D01*
X150818746Y-80160376D01*
X150831534Y-80177619D01*
X150842570Y-80196032D01*
X150851749Y-80215438D01*
X150858981Y-80235650D01*
X150864197Y-80256474D01*
X150867347Y-80277709D01*
X150868400Y-80299150D01*
X150868400Y-80736650D01*
X150867347Y-80758091D01*
X150864197Y-80779326D01*
X150858981Y-80800150D01*
X150851749Y-80820362D01*
X150842570Y-80839768D01*
X150831534Y-80858181D01*
X150818746Y-80875424D01*
X150804330Y-80891330D01*
X150788424Y-80905746D01*
X150771181Y-80918534D01*
X150752768Y-80929570D01*
X150733362Y-80938749D01*
X150713150Y-80945981D01*
X150692326Y-80951197D01*
X150671091Y-80954347D01*
X150649650Y-80955400D01*
X150137150Y-80955400D01*
X150115709Y-80954347D01*
X150094474Y-80951197D01*
X150073650Y-80945981D01*
X150053438Y-80938749D01*
X150034032Y-80929570D01*
X150015619Y-80918534D01*
X149998376Y-80905746D01*
X149982470Y-80891330D01*
X149968054Y-80875424D01*
X149955266Y-80858181D01*
X149944230Y-80839768D01*
X149935051Y-80820362D01*
X149927819Y-80800150D01*
X149922603Y-80779326D01*
X149919453Y-80758091D01*
X149918400Y-80736650D01*
X149918400Y-80299150D01*
X149919453Y-80277709D01*
X149922603Y-80256474D01*
X149927819Y-80235650D01*
X149935051Y-80215438D01*
X149944230Y-80196032D01*
X149955266Y-80177619D01*
X149968054Y-80160376D01*
X149982470Y-80144470D01*
X149998376Y-80130054D01*
X150015619Y-80117266D01*
X150034032Y-80106230D01*
X150053438Y-80097051D01*
X150073650Y-80089819D01*
X150094474Y-80084603D01*
X150115709Y-80081453D01*
X150137150Y-80080400D01*
X150649650Y-80080400D01*
X150671091Y-80081453D01*
G37*
G36*
X145377691Y-82863553D02*
G01*
X145398926Y-82866703D01*
X145419750Y-82871919D01*
X145439962Y-82879151D01*
X145459368Y-82888330D01*
X145477781Y-82899366D01*
X145495024Y-82912154D01*
X145510930Y-82926570D01*
X145525346Y-82942476D01*
X145538134Y-82959719D01*
X145549170Y-82978132D01*
X145558349Y-82997538D01*
X145565581Y-83017750D01*
X145570797Y-83038574D01*
X145573947Y-83059809D01*
X145575000Y-83081250D01*
X145575000Y-83518750D01*
X145573947Y-83540191D01*
X145570797Y-83561426D01*
X145565581Y-83582250D01*
X145558349Y-83602462D01*
X145549170Y-83621868D01*
X145538134Y-83640281D01*
X145525346Y-83657524D01*
X145510930Y-83673430D01*
X145495024Y-83687846D01*
X145477781Y-83700634D01*
X145459368Y-83711670D01*
X145439962Y-83720849D01*
X145419750Y-83728081D01*
X145398926Y-83733297D01*
X145377691Y-83736447D01*
X145356250Y-83737500D01*
X144843750Y-83737500D01*
X144822309Y-83736447D01*
X144801074Y-83733297D01*
X144780250Y-83728081D01*
X144760038Y-83720849D01*
X144740632Y-83711670D01*
X144722219Y-83700634D01*
X144704976Y-83687846D01*
X144689070Y-83673430D01*
X144674654Y-83657524D01*
X144661866Y-83640281D01*
X144650830Y-83621868D01*
X144641651Y-83602462D01*
X144634419Y-83582250D01*
X144629203Y-83561426D01*
X144626053Y-83540191D01*
X144625000Y-83518750D01*
X144625000Y-83081250D01*
X144626053Y-83059809D01*
X144629203Y-83038574D01*
X144634419Y-83017750D01*
X144641651Y-82997538D01*
X144650830Y-82978132D01*
X144661866Y-82959719D01*
X144674654Y-82942476D01*
X144689070Y-82926570D01*
X144704976Y-82912154D01*
X144722219Y-82899366D01*
X144740632Y-82888330D01*
X144760038Y-82879151D01*
X144780250Y-82871919D01*
X144801074Y-82866703D01*
X144822309Y-82863553D01*
X144843750Y-82862500D01*
X145356250Y-82862500D01*
X145377691Y-82863553D01*
G37*
G36*
X145377691Y-81288553D02*
G01*
X145398926Y-81291703D01*
X145419750Y-81296919D01*
X145439962Y-81304151D01*
X145459368Y-81313330D01*
X145477781Y-81324366D01*
X145495024Y-81337154D01*
X145510930Y-81351570D01*
X145525346Y-81367476D01*
X145538134Y-81384719D01*
X145549170Y-81403132D01*
X145558349Y-81422538D01*
X145565581Y-81442750D01*
X145570797Y-81463574D01*
X145573947Y-81484809D01*
X145575000Y-81506250D01*
X145575000Y-81943750D01*
X145573947Y-81965191D01*
X145570797Y-81986426D01*
X145565581Y-82007250D01*
X145558349Y-82027462D01*
X145549170Y-82046868D01*
X145538134Y-82065281D01*
X145525346Y-82082524D01*
X145510930Y-82098430D01*
X145495024Y-82112846D01*
X145477781Y-82125634D01*
X145459368Y-82136670D01*
X145439962Y-82145849D01*
X145419750Y-82153081D01*
X145398926Y-82158297D01*
X145377691Y-82161447D01*
X145356250Y-82162500D01*
X144843750Y-82162500D01*
X144822309Y-82161447D01*
X144801074Y-82158297D01*
X144780250Y-82153081D01*
X144760038Y-82145849D01*
X144740632Y-82136670D01*
X144722219Y-82125634D01*
X144704976Y-82112846D01*
X144689070Y-82098430D01*
X144674654Y-82082524D01*
X144661866Y-82065281D01*
X144650830Y-82046868D01*
X144641651Y-82027462D01*
X144634419Y-82007250D01*
X144629203Y-81986426D01*
X144626053Y-81965191D01*
X144625000Y-81943750D01*
X144625000Y-81506250D01*
X144626053Y-81484809D01*
X144629203Y-81463574D01*
X144634419Y-81442750D01*
X144641651Y-81422538D01*
X144650830Y-81403132D01*
X144661866Y-81384719D01*
X144674654Y-81367476D01*
X144689070Y-81351570D01*
X144704976Y-81337154D01*
X144722219Y-81324366D01*
X144740632Y-81313330D01*
X144760038Y-81304151D01*
X144780250Y-81296919D01*
X144801074Y-81291703D01*
X144822309Y-81288553D01*
X144843750Y-81287500D01*
X145356250Y-81287500D01*
X145377691Y-81288553D01*
G37*
G36*
X164666491Y-96312053D02*
G01*
X164687726Y-96315203D01*
X164708550Y-96320419D01*
X164728762Y-96327651D01*
X164748168Y-96336830D01*
X164766581Y-96347866D01*
X164783824Y-96360654D01*
X164799730Y-96375070D01*
X164814146Y-96390976D01*
X164826934Y-96408219D01*
X164837970Y-96426632D01*
X164847149Y-96446038D01*
X164854381Y-96466250D01*
X164859597Y-96487074D01*
X164862747Y-96508309D01*
X164863800Y-96529750D01*
X164863800Y-96967250D01*
X164862747Y-96988691D01*
X164859597Y-97009926D01*
X164854381Y-97030750D01*
X164847149Y-97050962D01*
X164837970Y-97070368D01*
X164826934Y-97088781D01*
X164814146Y-97106024D01*
X164799730Y-97121930D01*
X164783824Y-97136346D01*
X164766581Y-97149134D01*
X164748168Y-97160170D01*
X164728762Y-97169349D01*
X164708550Y-97176581D01*
X164687726Y-97181797D01*
X164666491Y-97184947D01*
X164645050Y-97186000D01*
X164132550Y-97186000D01*
X164111109Y-97184947D01*
X164089874Y-97181797D01*
X164069050Y-97176581D01*
X164048838Y-97169349D01*
X164029432Y-97160170D01*
X164011019Y-97149134D01*
X163993776Y-97136346D01*
X163977870Y-97121930D01*
X163963454Y-97106024D01*
X163950666Y-97088781D01*
X163939630Y-97070368D01*
X163930451Y-97050962D01*
X163923219Y-97030750D01*
X163918003Y-97009926D01*
X163914853Y-96988691D01*
X163913800Y-96967250D01*
X163913800Y-96529750D01*
X163914853Y-96508309D01*
X163918003Y-96487074D01*
X163923219Y-96466250D01*
X163930451Y-96446038D01*
X163939630Y-96426632D01*
X163950666Y-96408219D01*
X163963454Y-96390976D01*
X163977870Y-96375070D01*
X163993776Y-96360654D01*
X164011019Y-96347866D01*
X164029432Y-96336830D01*
X164048838Y-96327651D01*
X164069050Y-96320419D01*
X164089874Y-96315203D01*
X164111109Y-96312053D01*
X164132550Y-96311000D01*
X164645050Y-96311000D01*
X164666491Y-96312053D01*
G37*
G36*
X164666491Y-97887053D02*
G01*
X164687726Y-97890203D01*
X164708550Y-97895419D01*
X164728762Y-97902651D01*
X164748168Y-97911830D01*
X164766581Y-97922866D01*
X164783824Y-97935654D01*
X164799730Y-97950070D01*
X164814146Y-97965976D01*
X164826934Y-97983219D01*
X164837970Y-98001632D01*
X164847149Y-98021038D01*
X164854381Y-98041250D01*
X164859597Y-98062074D01*
X164862747Y-98083309D01*
X164863800Y-98104750D01*
X164863800Y-98542250D01*
X164862747Y-98563691D01*
X164859597Y-98584926D01*
X164854381Y-98605750D01*
X164847149Y-98625962D01*
X164837970Y-98645368D01*
X164826934Y-98663781D01*
X164814146Y-98681024D01*
X164799730Y-98696930D01*
X164783824Y-98711346D01*
X164766581Y-98724134D01*
X164748168Y-98735170D01*
X164728762Y-98744349D01*
X164708550Y-98751581D01*
X164687726Y-98756797D01*
X164666491Y-98759947D01*
X164645050Y-98761000D01*
X164132550Y-98761000D01*
X164111109Y-98759947D01*
X164089874Y-98756797D01*
X164069050Y-98751581D01*
X164048838Y-98744349D01*
X164029432Y-98735170D01*
X164011019Y-98724134D01*
X163993776Y-98711346D01*
X163977870Y-98696930D01*
X163963454Y-98681024D01*
X163950666Y-98663781D01*
X163939630Y-98645368D01*
X163930451Y-98625962D01*
X163923219Y-98605750D01*
X163918003Y-98584926D01*
X163914853Y-98563691D01*
X163913800Y-98542250D01*
X163913800Y-98104750D01*
X163914853Y-98083309D01*
X163918003Y-98062074D01*
X163923219Y-98041250D01*
X163930451Y-98021038D01*
X163939630Y-98001632D01*
X163950666Y-97983219D01*
X163963454Y-97965976D01*
X163977870Y-97950070D01*
X163993776Y-97935654D01*
X164011019Y-97922866D01*
X164029432Y-97911830D01*
X164048838Y-97902651D01*
X164069050Y-97895419D01*
X164089874Y-97890203D01*
X164111109Y-97887053D01*
X164132550Y-97886000D01*
X164645050Y-97886000D01*
X164666491Y-97887053D01*
G37*
G36*
X131777691Y-95063553D02*
G01*
X131798926Y-95066703D01*
X131819750Y-95071919D01*
X131839962Y-95079151D01*
X131859368Y-95088330D01*
X131877781Y-95099366D01*
X131895024Y-95112154D01*
X131910930Y-95126570D01*
X131925346Y-95142476D01*
X131938134Y-95159719D01*
X131949170Y-95178132D01*
X131958349Y-95197538D01*
X131965581Y-95217750D01*
X131970797Y-95238574D01*
X131973947Y-95259809D01*
X131975000Y-95281250D01*
X131975000Y-95718750D01*
X131973947Y-95740191D01*
X131970797Y-95761426D01*
X131965581Y-95782250D01*
X131958349Y-95802462D01*
X131949170Y-95821868D01*
X131938134Y-95840281D01*
X131925346Y-95857524D01*
X131910930Y-95873430D01*
X131895024Y-95887846D01*
X131877781Y-95900634D01*
X131859368Y-95911670D01*
X131839962Y-95920849D01*
X131819750Y-95928081D01*
X131798926Y-95933297D01*
X131777691Y-95936447D01*
X131756250Y-95937500D01*
X131243750Y-95937500D01*
X131222309Y-95936447D01*
X131201074Y-95933297D01*
X131180250Y-95928081D01*
X131160038Y-95920849D01*
X131140632Y-95911670D01*
X131122219Y-95900634D01*
X131104976Y-95887846D01*
X131089070Y-95873430D01*
X131074654Y-95857524D01*
X131061866Y-95840281D01*
X131050830Y-95821868D01*
X131041651Y-95802462D01*
X131034419Y-95782250D01*
X131029203Y-95761426D01*
X131026053Y-95740191D01*
X131025000Y-95718750D01*
X131025000Y-95281250D01*
X131026053Y-95259809D01*
X131029203Y-95238574D01*
X131034419Y-95217750D01*
X131041651Y-95197538D01*
X131050830Y-95178132D01*
X131061866Y-95159719D01*
X131074654Y-95142476D01*
X131089070Y-95126570D01*
X131104976Y-95112154D01*
X131122219Y-95099366D01*
X131140632Y-95088330D01*
X131160038Y-95079151D01*
X131180250Y-95071919D01*
X131201074Y-95066703D01*
X131222309Y-95063553D01*
X131243750Y-95062500D01*
X131756250Y-95062500D01*
X131777691Y-95063553D01*
G37*
G36*
X131777691Y-93488553D02*
G01*
X131798926Y-93491703D01*
X131819750Y-93496919D01*
X131839962Y-93504151D01*
X131859368Y-93513330D01*
X131877781Y-93524366D01*
X131895024Y-93537154D01*
X131910930Y-93551570D01*
X131925346Y-93567476D01*
X131938134Y-93584719D01*
X131949170Y-93603132D01*
X131958349Y-93622538D01*
X131965581Y-93642750D01*
X131970797Y-93663574D01*
X131973947Y-93684809D01*
X131975000Y-93706250D01*
X131975000Y-94143750D01*
X131973947Y-94165191D01*
X131970797Y-94186426D01*
X131965581Y-94207250D01*
X131958349Y-94227462D01*
X131949170Y-94246868D01*
X131938134Y-94265281D01*
X131925346Y-94282524D01*
X131910930Y-94298430D01*
X131895024Y-94312846D01*
X131877781Y-94325634D01*
X131859368Y-94336670D01*
X131839962Y-94345849D01*
X131819750Y-94353081D01*
X131798926Y-94358297D01*
X131777691Y-94361447D01*
X131756250Y-94362500D01*
X131243750Y-94362500D01*
X131222309Y-94361447D01*
X131201074Y-94358297D01*
X131180250Y-94353081D01*
X131160038Y-94345849D01*
X131140632Y-94336670D01*
X131122219Y-94325634D01*
X131104976Y-94312846D01*
X131089070Y-94298430D01*
X131074654Y-94282524D01*
X131061866Y-94265281D01*
X131050830Y-94246868D01*
X131041651Y-94227462D01*
X131034419Y-94207250D01*
X131029203Y-94186426D01*
X131026053Y-94165191D01*
X131025000Y-94143750D01*
X131025000Y-93706250D01*
X131026053Y-93684809D01*
X131029203Y-93663574D01*
X131034419Y-93642750D01*
X131041651Y-93622538D01*
X131050830Y-93603132D01*
X131061866Y-93584719D01*
X131074654Y-93567476D01*
X131089070Y-93551570D01*
X131104976Y-93537154D01*
X131122219Y-93524366D01*
X131140632Y-93513330D01*
X131160038Y-93504151D01*
X131180250Y-93496919D01*
X131201074Y-93491703D01*
X131222309Y-93488553D01*
X131243750Y-93487500D01*
X131756250Y-93487500D01*
X131777691Y-93488553D01*
G37*
G36*
X164539491Y-92654353D02*
G01*
X164560726Y-92657503D01*
X164581550Y-92662719D01*
X164601762Y-92669951D01*
X164621168Y-92679130D01*
X164639581Y-92690166D01*
X164656824Y-92702954D01*
X164672730Y-92717370D01*
X164687146Y-92733276D01*
X164699934Y-92750519D01*
X164710970Y-92768932D01*
X164720149Y-92788338D01*
X164727381Y-92808550D01*
X164732597Y-92829374D01*
X164735747Y-92850609D01*
X164736800Y-92872050D01*
X164736800Y-93309550D01*
X164735747Y-93330991D01*
X164732597Y-93352226D01*
X164727381Y-93373050D01*
X164720149Y-93393262D01*
X164710970Y-93412668D01*
X164699934Y-93431081D01*
X164687146Y-93448324D01*
X164672730Y-93464230D01*
X164656824Y-93478646D01*
X164639581Y-93491434D01*
X164621168Y-93502470D01*
X164601762Y-93511649D01*
X164581550Y-93518881D01*
X164560726Y-93524097D01*
X164539491Y-93527247D01*
X164518050Y-93528300D01*
X164005550Y-93528300D01*
X163984109Y-93527247D01*
X163962874Y-93524097D01*
X163942050Y-93518881D01*
X163921838Y-93511649D01*
X163902432Y-93502470D01*
X163884019Y-93491434D01*
X163866776Y-93478646D01*
X163850870Y-93464230D01*
X163836454Y-93448324D01*
X163823666Y-93431081D01*
X163812630Y-93412668D01*
X163803451Y-93393262D01*
X163796219Y-93373050D01*
X163791003Y-93352226D01*
X163787853Y-93330991D01*
X163786800Y-93309550D01*
X163786800Y-92872050D01*
X163787853Y-92850609D01*
X163791003Y-92829374D01*
X163796219Y-92808550D01*
X163803451Y-92788338D01*
X163812630Y-92768932D01*
X163823666Y-92750519D01*
X163836454Y-92733276D01*
X163850870Y-92717370D01*
X163866776Y-92702954D01*
X163884019Y-92690166D01*
X163902432Y-92679130D01*
X163921838Y-92669951D01*
X163942050Y-92662719D01*
X163962874Y-92657503D01*
X163984109Y-92654353D01*
X164005550Y-92653300D01*
X164518050Y-92653300D01*
X164539491Y-92654353D01*
G37*
G36*
X164539491Y-94229353D02*
G01*
X164560726Y-94232503D01*
X164581550Y-94237719D01*
X164601762Y-94244951D01*
X164621168Y-94254130D01*
X164639581Y-94265166D01*
X164656824Y-94277954D01*
X164672730Y-94292370D01*
X164687146Y-94308276D01*
X164699934Y-94325519D01*
X164710970Y-94343932D01*
X164720149Y-94363338D01*
X164727381Y-94383550D01*
X164732597Y-94404374D01*
X164735747Y-94425609D01*
X164736800Y-94447050D01*
X164736800Y-94884550D01*
X164735747Y-94905991D01*
X164732597Y-94927226D01*
X164727381Y-94948050D01*
X164720149Y-94968262D01*
X164710970Y-94987668D01*
X164699934Y-95006081D01*
X164687146Y-95023324D01*
X164672730Y-95039230D01*
X164656824Y-95053646D01*
X164639581Y-95066434D01*
X164621168Y-95077470D01*
X164601762Y-95086649D01*
X164581550Y-95093881D01*
X164560726Y-95099097D01*
X164539491Y-95102247D01*
X164518050Y-95103300D01*
X164005550Y-95103300D01*
X163984109Y-95102247D01*
X163962874Y-95099097D01*
X163942050Y-95093881D01*
X163921838Y-95086649D01*
X163902432Y-95077470D01*
X163884019Y-95066434D01*
X163866776Y-95053646D01*
X163850870Y-95039230D01*
X163836454Y-95023324D01*
X163823666Y-95006081D01*
X163812630Y-94987668D01*
X163803451Y-94968262D01*
X163796219Y-94948050D01*
X163791003Y-94927226D01*
X163787853Y-94905991D01*
X163786800Y-94884550D01*
X163786800Y-94447050D01*
X163787853Y-94425609D01*
X163791003Y-94404374D01*
X163796219Y-94383550D01*
X163803451Y-94363338D01*
X163812630Y-94343932D01*
X163823666Y-94325519D01*
X163836454Y-94308276D01*
X163850870Y-94292370D01*
X163866776Y-94277954D01*
X163884019Y-94265166D01*
X163902432Y-94254130D01*
X163921838Y-94244951D01*
X163942050Y-94237719D01*
X163962874Y-94232503D01*
X163984109Y-94229353D01*
X164005550Y-94228300D01*
X164518050Y-94228300D01*
X164539491Y-94229353D01*
G37*
G36*
X164717291Y-101112753D02*
G01*
X164738526Y-101115903D01*
X164759350Y-101121119D01*
X164779562Y-101128351D01*
X164798968Y-101137530D01*
X164817381Y-101148566D01*
X164834624Y-101161354D01*
X164850530Y-101175770D01*
X164864946Y-101191676D01*
X164877734Y-101208919D01*
X164888770Y-101227332D01*
X164897949Y-101246738D01*
X164905181Y-101266950D01*
X164910397Y-101287774D01*
X164913547Y-101309009D01*
X164914600Y-101330450D01*
X164914600Y-101767950D01*
X164913547Y-101789391D01*
X164910397Y-101810626D01*
X164905181Y-101831450D01*
X164897949Y-101851662D01*
X164888770Y-101871068D01*
X164877734Y-101889481D01*
X164864946Y-101906724D01*
X164850530Y-101922630D01*
X164834624Y-101937046D01*
X164817381Y-101949834D01*
X164798968Y-101960870D01*
X164779562Y-101970049D01*
X164759350Y-101977281D01*
X164738526Y-101982497D01*
X164717291Y-101985647D01*
X164695850Y-101986700D01*
X164183350Y-101986700D01*
X164161909Y-101985647D01*
X164140674Y-101982497D01*
X164119850Y-101977281D01*
X164099638Y-101970049D01*
X164080232Y-101960870D01*
X164061819Y-101949834D01*
X164044576Y-101937046D01*
X164028670Y-101922630D01*
X164014254Y-101906724D01*
X164001466Y-101889481D01*
X163990430Y-101871068D01*
X163981251Y-101851662D01*
X163974019Y-101831450D01*
X163968803Y-101810626D01*
X163965653Y-101789391D01*
X163964600Y-101767950D01*
X163964600Y-101330450D01*
X163965653Y-101309009D01*
X163968803Y-101287774D01*
X163974019Y-101266950D01*
X163981251Y-101246738D01*
X163990430Y-101227332D01*
X164001466Y-101208919D01*
X164014254Y-101191676D01*
X164028670Y-101175770D01*
X164044576Y-101161354D01*
X164061819Y-101148566D01*
X164080232Y-101137530D01*
X164099638Y-101128351D01*
X164119850Y-101121119D01*
X164140674Y-101115903D01*
X164161909Y-101112753D01*
X164183350Y-101111700D01*
X164695850Y-101111700D01*
X164717291Y-101112753D01*
G37*
G36*
X164717291Y-99537753D02*
G01*
X164738526Y-99540903D01*
X164759350Y-99546119D01*
X164779562Y-99553351D01*
X164798968Y-99562530D01*
X164817381Y-99573566D01*
X164834624Y-99586354D01*
X164850530Y-99600770D01*
X164864946Y-99616676D01*
X164877734Y-99633919D01*
X164888770Y-99652332D01*
X164897949Y-99671738D01*
X164905181Y-99691950D01*
X164910397Y-99712774D01*
X164913547Y-99734009D01*
X164914600Y-99755450D01*
X164914600Y-100192950D01*
X164913547Y-100214391D01*
X164910397Y-100235626D01*
X164905181Y-100256450D01*
X164897949Y-100276662D01*
X164888770Y-100296068D01*
X164877734Y-100314481D01*
X164864946Y-100331724D01*
X164850530Y-100347630D01*
X164834624Y-100362046D01*
X164817381Y-100374834D01*
X164798968Y-100385870D01*
X164779562Y-100395049D01*
X164759350Y-100402281D01*
X164738526Y-100407497D01*
X164717291Y-100410647D01*
X164695850Y-100411700D01*
X164183350Y-100411700D01*
X164161909Y-100410647D01*
X164140674Y-100407497D01*
X164119850Y-100402281D01*
X164099638Y-100395049D01*
X164080232Y-100385870D01*
X164061819Y-100374834D01*
X164044576Y-100362046D01*
X164028670Y-100347630D01*
X164014254Y-100331724D01*
X164001466Y-100314481D01*
X163990430Y-100296068D01*
X163981251Y-100276662D01*
X163974019Y-100256450D01*
X163968803Y-100235626D01*
X163965653Y-100214391D01*
X163964600Y-100192950D01*
X163964600Y-99755450D01*
X163965653Y-99734009D01*
X163968803Y-99712774D01*
X163974019Y-99691950D01*
X163981251Y-99671738D01*
X163990430Y-99652332D01*
X164001466Y-99633919D01*
X164014254Y-99616676D01*
X164028670Y-99600770D01*
X164044576Y-99586354D01*
X164061819Y-99573566D01*
X164080232Y-99562530D01*
X164099638Y-99553351D01*
X164119850Y-99546119D01*
X164140674Y-99540903D01*
X164161909Y-99537753D01*
X164183350Y-99536700D01*
X164695850Y-99536700D01*
X164717291Y-99537753D01*
G37*
G36*
X167968491Y-101189053D02*
G01*
X167989726Y-101192203D01*
X168010550Y-101197419D01*
X168030762Y-101204651D01*
X168050168Y-101213830D01*
X168068581Y-101224866D01*
X168085824Y-101237654D01*
X168101730Y-101252070D01*
X168116146Y-101267976D01*
X168128934Y-101285219D01*
X168139970Y-101303632D01*
X168149149Y-101323038D01*
X168156381Y-101343250D01*
X168161597Y-101364074D01*
X168164747Y-101385309D01*
X168165800Y-101406750D01*
X168165800Y-101844250D01*
X168164747Y-101865691D01*
X168161597Y-101886926D01*
X168156381Y-101907750D01*
X168149149Y-101927962D01*
X168139970Y-101947368D01*
X168128934Y-101965781D01*
X168116146Y-101983024D01*
X168101730Y-101998930D01*
X168085824Y-102013346D01*
X168068581Y-102026134D01*
X168050168Y-102037170D01*
X168030762Y-102046349D01*
X168010550Y-102053581D01*
X167989726Y-102058797D01*
X167968491Y-102061947D01*
X167947050Y-102063000D01*
X167434550Y-102063000D01*
X167413109Y-102061947D01*
X167391874Y-102058797D01*
X167371050Y-102053581D01*
X167350838Y-102046349D01*
X167331432Y-102037170D01*
X167313019Y-102026134D01*
X167295776Y-102013346D01*
X167279870Y-101998930D01*
X167265454Y-101983024D01*
X167252666Y-101965781D01*
X167241630Y-101947368D01*
X167232451Y-101927962D01*
X167225219Y-101907750D01*
X167220003Y-101886926D01*
X167216853Y-101865691D01*
X167215800Y-101844250D01*
X167215800Y-101406750D01*
X167216853Y-101385309D01*
X167220003Y-101364074D01*
X167225219Y-101343250D01*
X167232451Y-101323038D01*
X167241630Y-101303632D01*
X167252666Y-101285219D01*
X167265454Y-101267976D01*
X167279870Y-101252070D01*
X167295776Y-101237654D01*
X167313019Y-101224866D01*
X167331432Y-101213830D01*
X167350838Y-101204651D01*
X167371050Y-101197419D01*
X167391874Y-101192203D01*
X167413109Y-101189053D01*
X167434550Y-101188000D01*
X167947050Y-101188000D01*
X167968491Y-101189053D01*
G37*
G36*
X167968491Y-99614053D02*
G01*
X167989726Y-99617203D01*
X168010550Y-99622419D01*
X168030762Y-99629651D01*
X168050168Y-99638830D01*
X168068581Y-99649866D01*
X168085824Y-99662654D01*
X168101730Y-99677070D01*
X168116146Y-99692976D01*
X168128934Y-99710219D01*
X168139970Y-99728632D01*
X168149149Y-99748038D01*
X168156381Y-99768250D01*
X168161597Y-99789074D01*
X168164747Y-99810309D01*
X168165800Y-99831750D01*
X168165800Y-100269250D01*
X168164747Y-100290691D01*
X168161597Y-100311926D01*
X168156381Y-100332750D01*
X168149149Y-100352962D01*
X168139970Y-100372368D01*
X168128934Y-100390781D01*
X168116146Y-100408024D01*
X168101730Y-100423930D01*
X168085824Y-100438346D01*
X168068581Y-100451134D01*
X168050168Y-100462170D01*
X168030762Y-100471349D01*
X168010550Y-100478581D01*
X167989726Y-100483797D01*
X167968491Y-100486947D01*
X167947050Y-100488000D01*
X167434550Y-100488000D01*
X167413109Y-100486947D01*
X167391874Y-100483797D01*
X167371050Y-100478581D01*
X167350838Y-100471349D01*
X167331432Y-100462170D01*
X167313019Y-100451134D01*
X167295776Y-100438346D01*
X167279870Y-100423930D01*
X167265454Y-100408024D01*
X167252666Y-100390781D01*
X167241630Y-100372368D01*
X167232451Y-100352962D01*
X167225219Y-100332750D01*
X167220003Y-100311926D01*
X167216853Y-100290691D01*
X167215800Y-100269250D01*
X167215800Y-99831750D01*
X167216853Y-99810309D01*
X167220003Y-99789074D01*
X167225219Y-99768250D01*
X167232451Y-99748038D01*
X167241630Y-99728632D01*
X167252666Y-99710219D01*
X167265454Y-99692976D01*
X167279870Y-99677070D01*
X167295776Y-99662654D01*
X167313019Y-99649866D01*
X167331432Y-99638830D01*
X167350838Y-99629651D01*
X167371050Y-99622419D01*
X167391874Y-99617203D01*
X167413109Y-99614053D01*
X167434550Y-99613000D01*
X167947050Y-99613000D01*
X167968491Y-99614053D01*
G37*
G36*
X131552691Y-96826053D02*
G01*
X131573926Y-96829203D01*
X131594750Y-96834419D01*
X131614962Y-96841651D01*
X131634368Y-96850830D01*
X131652781Y-96861866D01*
X131670024Y-96874654D01*
X131685930Y-96889070D01*
X131700346Y-96904976D01*
X131713134Y-96922219D01*
X131724170Y-96940632D01*
X131733349Y-96960038D01*
X131740581Y-96980250D01*
X131745797Y-97001074D01*
X131748947Y-97022309D01*
X131750000Y-97043750D01*
X131750000Y-97556250D01*
X131748947Y-97577691D01*
X131745797Y-97598926D01*
X131740581Y-97619750D01*
X131733349Y-97639962D01*
X131724170Y-97659368D01*
X131713134Y-97677781D01*
X131700346Y-97695024D01*
X131685930Y-97710930D01*
X131670024Y-97725346D01*
X131652781Y-97738134D01*
X131634368Y-97749170D01*
X131614962Y-97758349D01*
X131594750Y-97765581D01*
X131573926Y-97770797D01*
X131552691Y-97773947D01*
X131531250Y-97775000D01*
X131093750Y-97775000D01*
X131072309Y-97773947D01*
X131051074Y-97770797D01*
X131030250Y-97765581D01*
X131010038Y-97758349D01*
X130990632Y-97749170D01*
X130972219Y-97738134D01*
X130954976Y-97725346D01*
X130939070Y-97710930D01*
X130924654Y-97695024D01*
X130911866Y-97677781D01*
X130900830Y-97659368D01*
X130891651Y-97639962D01*
X130884419Y-97619750D01*
X130879203Y-97598926D01*
X130876053Y-97577691D01*
X130875000Y-97556250D01*
X130875000Y-97043750D01*
X130876053Y-97022309D01*
X130879203Y-97001074D01*
X130884419Y-96980250D01*
X130891651Y-96960038D01*
X130900830Y-96940632D01*
X130911866Y-96922219D01*
X130924654Y-96904976D01*
X130939070Y-96889070D01*
X130954976Y-96874654D01*
X130972219Y-96861866D01*
X130990632Y-96850830D01*
X131010038Y-96841651D01*
X131030250Y-96834419D01*
X131051074Y-96829203D01*
X131072309Y-96826053D01*
X131093750Y-96825000D01*
X131531250Y-96825000D01*
X131552691Y-96826053D01*
G37*
G36*
X133127691Y-96826053D02*
G01*
X133148926Y-96829203D01*
X133169750Y-96834419D01*
X133189962Y-96841651D01*
X133209368Y-96850830D01*
X133227781Y-96861866D01*
X133245024Y-96874654D01*
X133260930Y-96889070D01*
X133275346Y-96904976D01*
X133288134Y-96922219D01*
X133299170Y-96940632D01*
X133308349Y-96960038D01*
X133315581Y-96980250D01*
X133320797Y-97001074D01*
X133323947Y-97022309D01*
X133325000Y-97043750D01*
X133325000Y-97556250D01*
X133323947Y-97577691D01*
X133320797Y-97598926D01*
X133315581Y-97619750D01*
X133308349Y-97639962D01*
X133299170Y-97659368D01*
X133288134Y-97677781D01*
X133275346Y-97695024D01*
X133260930Y-97710930D01*
X133245024Y-97725346D01*
X133227781Y-97738134D01*
X133209368Y-97749170D01*
X133189962Y-97758349D01*
X133169750Y-97765581D01*
X133148926Y-97770797D01*
X133127691Y-97773947D01*
X133106250Y-97775000D01*
X132668750Y-97775000D01*
X132647309Y-97773947D01*
X132626074Y-97770797D01*
X132605250Y-97765581D01*
X132585038Y-97758349D01*
X132565632Y-97749170D01*
X132547219Y-97738134D01*
X132529976Y-97725346D01*
X132514070Y-97710930D01*
X132499654Y-97695024D01*
X132486866Y-97677781D01*
X132475830Y-97659368D01*
X132466651Y-97639962D01*
X132459419Y-97619750D01*
X132454203Y-97598926D01*
X132451053Y-97577691D01*
X132450000Y-97556250D01*
X132450000Y-97043750D01*
X132451053Y-97022309D01*
X132454203Y-97001074D01*
X132459419Y-96980250D01*
X132466651Y-96960038D01*
X132475830Y-96940632D01*
X132486866Y-96922219D01*
X132499654Y-96904976D01*
X132514070Y-96889070D01*
X132529976Y-96874654D01*
X132547219Y-96861866D01*
X132565632Y-96850830D01*
X132585038Y-96841651D01*
X132605250Y-96834419D01*
X132626074Y-96829203D01*
X132647309Y-96826053D01*
X132668750Y-96825000D01*
X133106250Y-96825000D01*
X133127691Y-96826053D01*
G37*
G36*
X147177691Y-84363553D02*
G01*
X147198926Y-84366703D01*
X147219750Y-84371919D01*
X147239962Y-84379151D01*
X147259368Y-84388330D01*
X147277781Y-84399366D01*
X147295024Y-84412154D01*
X147310930Y-84426570D01*
X147325346Y-84442476D01*
X147338134Y-84459719D01*
X147349170Y-84478132D01*
X147358349Y-84497538D01*
X147365581Y-84517750D01*
X147370797Y-84538574D01*
X147373947Y-84559809D01*
X147375000Y-84581250D01*
X147375000Y-85018750D01*
X147373947Y-85040191D01*
X147370797Y-85061426D01*
X147365581Y-85082250D01*
X147358349Y-85102462D01*
X147349170Y-85121868D01*
X147338134Y-85140281D01*
X147325346Y-85157524D01*
X147310930Y-85173430D01*
X147295024Y-85187846D01*
X147277781Y-85200634D01*
X147259368Y-85211670D01*
X147239962Y-85220849D01*
X147219750Y-85228081D01*
X147198926Y-85233297D01*
X147177691Y-85236447D01*
X147156250Y-85237500D01*
X146643750Y-85237500D01*
X146622309Y-85236447D01*
X146601074Y-85233297D01*
X146580250Y-85228081D01*
X146560038Y-85220849D01*
X146540632Y-85211670D01*
X146522219Y-85200634D01*
X146504976Y-85187846D01*
X146489070Y-85173430D01*
X146474654Y-85157524D01*
X146461866Y-85140281D01*
X146450830Y-85121868D01*
X146441651Y-85102462D01*
X146434419Y-85082250D01*
X146429203Y-85061426D01*
X146426053Y-85040191D01*
X146425000Y-85018750D01*
X146425000Y-84581250D01*
X146426053Y-84559809D01*
X146429203Y-84538574D01*
X146434419Y-84517750D01*
X146441651Y-84497538D01*
X146450830Y-84478132D01*
X146461866Y-84459719D01*
X146474654Y-84442476D01*
X146489070Y-84426570D01*
X146504976Y-84412154D01*
X146522219Y-84399366D01*
X146540632Y-84388330D01*
X146560038Y-84379151D01*
X146580250Y-84371919D01*
X146601074Y-84366703D01*
X146622309Y-84363553D01*
X146643750Y-84362500D01*
X147156250Y-84362500D01*
X147177691Y-84363553D01*
G37*
G36*
X147177691Y-85938553D02*
G01*
X147198926Y-85941703D01*
X147219750Y-85946919D01*
X147239962Y-85954151D01*
X147259368Y-85963330D01*
X147277781Y-85974366D01*
X147295024Y-85987154D01*
X147310930Y-86001570D01*
X147325346Y-86017476D01*
X147338134Y-86034719D01*
X147349170Y-86053132D01*
X147358349Y-86072538D01*
X147365581Y-86092750D01*
X147370797Y-86113574D01*
X147373947Y-86134809D01*
X147375000Y-86156250D01*
X147375000Y-86593750D01*
X147373947Y-86615191D01*
X147370797Y-86636426D01*
X147365581Y-86657250D01*
X147358349Y-86677462D01*
X147349170Y-86696868D01*
X147338134Y-86715281D01*
X147325346Y-86732524D01*
X147310930Y-86748430D01*
X147295024Y-86762846D01*
X147277781Y-86775634D01*
X147259368Y-86786670D01*
X147239962Y-86795849D01*
X147219750Y-86803081D01*
X147198926Y-86808297D01*
X147177691Y-86811447D01*
X147156250Y-86812500D01*
X146643750Y-86812500D01*
X146622309Y-86811447D01*
X146601074Y-86808297D01*
X146580250Y-86803081D01*
X146560038Y-86795849D01*
X146540632Y-86786670D01*
X146522219Y-86775634D01*
X146504976Y-86762846D01*
X146489070Y-86748430D01*
X146474654Y-86732524D01*
X146461866Y-86715281D01*
X146450830Y-86696868D01*
X146441651Y-86677462D01*
X146434419Y-86657250D01*
X146429203Y-86636426D01*
X146426053Y-86615191D01*
X146425000Y-86593750D01*
X146425000Y-86156250D01*
X146426053Y-86134809D01*
X146429203Y-86113574D01*
X146434419Y-86092750D01*
X146441651Y-86072538D01*
X146450830Y-86053132D01*
X146461866Y-86034719D01*
X146474654Y-86017476D01*
X146489070Y-86001570D01*
X146504976Y-85987154D01*
X146522219Y-85974366D01*
X146540632Y-85963330D01*
X146560038Y-85954151D01*
X146580250Y-85946919D01*
X146601074Y-85941703D01*
X146622309Y-85938553D01*
X146643750Y-85937500D01*
X147156250Y-85937500D01*
X147177691Y-85938553D01*
G37*
G36*
X143140191Y-83026053D02*
G01*
X143161426Y-83029203D01*
X143182250Y-83034419D01*
X143202462Y-83041651D01*
X143221868Y-83050830D01*
X143240281Y-83061866D01*
X143257524Y-83074654D01*
X143273430Y-83089070D01*
X143287846Y-83104976D01*
X143300634Y-83122219D01*
X143311670Y-83140632D01*
X143320849Y-83160038D01*
X143328081Y-83180250D01*
X143333297Y-83201074D01*
X143336447Y-83222309D01*
X143337500Y-83243750D01*
X143337500Y-83756250D01*
X143336447Y-83777691D01*
X143333297Y-83798926D01*
X143328081Y-83819750D01*
X143320849Y-83839962D01*
X143311670Y-83859368D01*
X143300634Y-83877781D01*
X143287846Y-83895024D01*
X143273430Y-83910930D01*
X143257524Y-83925346D01*
X143240281Y-83938134D01*
X143221868Y-83949170D01*
X143202462Y-83958349D01*
X143182250Y-83965581D01*
X143161426Y-83970797D01*
X143140191Y-83973947D01*
X143118750Y-83975000D01*
X142681250Y-83975000D01*
X142659809Y-83973947D01*
X142638574Y-83970797D01*
X142617750Y-83965581D01*
X142597538Y-83958349D01*
X142578132Y-83949170D01*
X142559719Y-83938134D01*
X142542476Y-83925346D01*
X142526570Y-83910930D01*
X142512154Y-83895024D01*
X142499366Y-83877781D01*
X142488330Y-83859368D01*
X142479151Y-83839962D01*
X142471919Y-83819750D01*
X142466703Y-83798926D01*
X142463553Y-83777691D01*
X142462500Y-83756250D01*
X142462500Y-83243750D01*
X142463553Y-83222309D01*
X142466703Y-83201074D01*
X142471919Y-83180250D01*
X142479151Y-83160038D01*
X142488330Y-83140632D01*
X142499366Y-83122219D01*
X142512154Y-83104976D01*
X142526570Y-83089070D01*
X142542476Y-83074654D01*
X142559719Y-83061866D01*
X142578132Y-83050830D01*
X142597538Y-83041651D01*
X142617750Y-83034419D01*
X142638574Y-83029203D01*
X142659809Y-83026053D01*
X142681250Y-83025000D01*
X143118750Y-83025000D01*
X143140191Y-83026053D01*
G37*
G36*
X141565191Y-83026053D02*
G01*
X141586426Y-83029203D01*
X141607250Y-83034419D01*
X141627462Y-83041651D01*
X141646868Y-83050830D01*
X141665281Y-83061866D01*
X141682524Y-83074654D01*
X141698430Y-83089070D01*
X141712846Y-83104976D01*
X141725634Y-83122219D01*
X141736670Y-83140632D01*
X141745849Y-83160038D01*
X141753081Y-83180250D01*
X141758297Y-83201074D01*
X141761447Y-83222309D01*
X141762500Y-83243750D01*
X141762500Y-83756250D01*
X141761447Y-83777691D01*
X141758297Y-83798926D01*
X141753081Y-83819750D01*
X141745849Y-83839962D01*
X141736670Y-83859368D01*
X141725634Y-83877781D01*
X141712846Y-83895024D01*
X141698430Y-83910930D01*
X141682524Y-83925346D01*
X141665281Y-83938134D01*
X141646868Y-83949170D01*
X141627462Y-83958349D01*
X141607250Y-83965581D01*
X141586426Y-83970797D01*
X141565191Y-83973947D01*
X141543750Y-83975000D01*
X141106250Y-83975000D01*
X141084809Y-83973947D01*
X141063574Y-83970797D01*
X141042750Y-83965581D01*
X141022538Y-83958349D01*
X141003132Y-83949170D01*
X140984719Y-83938134D01*
X140967476Y-83925346D01*
X140951570Y-83910930D01*
X140937154Y-83895024D01*
X140924366Y-83877781D01*
X140913330Y-83859368D01*
X140904151Y-83839962D01*
X140896919Y-83819750D01*
X140891703Y-83798926D01*
X140888553Y-83777691D01*
X140887500Y-83756250D01*
X140887500Y-83243750D01*
X140888553Y-83222309D01*
X140891703Y-83201074D01*
X140896919Y-83180250D01*
X140904151Y-83160038D01*
X140913330Y-83140632D01*
X140924366Y-83122219D01*
X140937154Y-83104976D01*
X140951570Y-83089070D01*
X140967476Y-83074654D01*
X140984719Y-83061866D01*
X141003132Y-83050830D01*
X141022538Y-83041651D01*
X141042750Y-83034419D01*
X141063574Y-83029203D01*
X141084809Y-83026053D01*
X141106250Y-83025000D01*
X141543750Y-83025000D01*
X141565191Y-83026053D01*
G37*
G36*
X146377691Y-87463553D02*
G01*
X146398926Y-87466703D01*
X146419750Y-87471919D01*
X146439962Y-87479151D01*
X146459368Y-87488330D01*
X146477781Y-87499366D01*
X146495024Y-87512154D01*
X146510930Y-87526570D01*
X146525346Y-87542476D01*
X146538134Y-87559719D01*
X146549170Y-87578132D01*
X146558349Y-87597538D01*
X146565581Y-87617750D01*
X146570797Y-87638574D01*
X146573947Y-87659809D01*
X146575000Y-87681250D01*
X146575000Y-88118750D01*
X146573947Y-88140191D01*
X146570797Y-88161426D01*
X146565581Y-88182250D01*
X146558349Y-88202462D01*
X146549170Y-88221868D01*
X146538134Y-88240281D01*
X146525346Y-88257524D01*
X146510930Y-88273430D01*
X146495024Y-88287846D01*
X146477781Y-88300634D01*
X146459368Y-88311670D01*
X146439962Y-88320849D01*
X146419750Y-88328081D01*
X146398926Y-88333297D01*
X146377691Y-88336447D01*
X146356250Y-88337500D01*
X145843750Y-88337500D01*
X145822309Y-88336447D01*
X145801074Y-88333297D01*
X145780250Y-88328081D01*
X145760038Y-88320849D01*
X145740632Y-88311670D01*
X145722219Y-88300634D01*
X145704976Y-88287846D01*
X145689070Y-88273430D01*
X145674654Y-88257524D01*
X145661866Y-88240281D01*
X145650830Y-88221868D01*
X145641651Y-88202462D01*
X145634419Y-88182250D01*
X145629203Y-88161426D01*
X145626053Y-88140191D01*
X145625000Y-88118750D01*
X145625000Y-87681250D01*
X145626053Y-87659809D01*
X145629203Y-87638574D01*
X145634419Y-87617750D01*
X145641651Y-87597538D01*
X145650830Y-87578132D01*
X145661866Y-87559719D01*
X145674654Y-87542476D01*
X145689070Y-87526570D01*
X145704976Y-87512154D01*
X145722219Y-87499366D01*
X145740632Y-87488330D01*
X145760038Y-87479151D01*
X145780250Y-87471919D01*
X145801074Y-87466703D01*
X145822309Y-87463553D01*
X145843750Y-87462500D01*
X146356250Y-87462500D01*
X146377691Y-87463553D01*
G37*
G36*
X146377691Y-89038553D02*
G01*
X146398926Y-89041703D01*
X146419750Y-89046919D01*
X146439962Y-89054151D01*
X146459368Y-89063330D01*
X146477781Y-89074366D01*
X146495024Y-89087154D01*
X146510930Y-89101570D01*
X146525346Y-89117476D01*
X146538134Y-89134719D01*
X146549170Y-89153132D01*
X146558349Y-89172538D01*
X146565581Y-89192750D01*
X146570797Y-89213574D01*
X146573947Y-89234809D01*
X146575000Y-89256250D01*
X146575000Y-89693750D01*
X146573947Y-89715191D01*
X146570797Y-89736426D01*
X146565581Y-89757250D01*
X146558349Y-89777462D01*
X146549170Y-89796868D01*
X146538134Y-89815281D01*
X146525346Y-89832524D01*
X146510930Y-89848430D01*
X146495024Y-89862846D01*
X146477781Y-89875634D01*
X146459368Y-89886670D01*
X146439962Y-89895849D01*
X146419750Y-89903081D01*
X146398926Y-89908297D01*
X146377691Y-89911447D01*
X146356250Y-89912500D01*
X145843750Y-89912500D01*
X145822309Y-89911447D01*
X145801074Y-89908297D01*
X145780250Y-89903081D01*
X145760038Y-89895849D01*
X145740632Y-89886670D01*
X145722219Y-89875634D01*
X145704976Y-89862846D01*
X145689070Y-89848430D01*
X145674654Y-89832524D01*
X145661866Y-89815281D01*
X145650830Y-89796868D01*
X145641651Y-89777462D01*
X145634419Y-89757250D01*
X145629203Y-89736426D01*
X145626053Y-89715191D01*
X145625000Y-89693750D01*
X145625000Y-89256250D01*
X145626053Y-89234809D01*
X145629203Y-89213574D01*
X145634419Y-89192750D01*
X145641651Y-89172538D01*
X145650830Y-89153132D01*
X145661866Y-89134719D01*
X145674654Y-89117476D01*
X145689070Y-89101570D01*
X145704976Y-89087154D01*
X145722219Y-89074366D01*
X145740632Y-89063330D01*
X145760038Y-89054151D01*
X145780250Y-89046919D01*
X145801074Y-89041703D01*
X145822309Y-89038553D01*
X145843750Y-89037500D01*
X146356250Y-89037500D01*
X146377691Y-89038553D01*
G37*
G36*
X163427691Y-111826053D02*
G01*
X163448926Y-111829203D01*
X163469750Y-111834419D01*
X163489962Y-111841651D01*
X163509368Y-111850830D01*
X163527781Y-111861866D01*
X163545024Y-111874654D01*
X163560930Y-111889070D01*
X163575346Y-111904976D01*
X163588134Y-111922219D01*
X163599170Y-111940632D01*
X163608349Y-111960038D01*
X163615581Y-111980250D01*
X163620797Y-112001074D01*
X163623947Y-112022309D01*
X163625000Y-112043750D01*
X163625000Y-112556250D01*
X163623947Y-112577691D01*
X163620797Y-112598926D01*
X163615581Y-112619750D01*
X163608349Y-112639962D01*
X163599170Y-112659368D01*
X163588134Y-112677781D01*
X163575346Y-112695024D01*
X163560930Y-112710930D01*
X163545024Y-112725346D01*
X163527781Y-112738134D01*
X163509368Y-112749170D01*
X163489962Y-112758349D01*
X163469750Y-112765581D01*
X163448926Y-112770797D01*
X163427691Y-112773947D01*
X163406250Y-112775000D01*
X162968750Y-112775000D01*
X162947309Y-112773947D01*
X162926074Y-112770797D01*
X162905250Y-112765581D01*
X162885038Y-112758349D01*
X162865632Y-112749170D01*
X162847219Y-112738134D01*
X162829976Y-112725346D01*
X162814070Y-112710930D01*
X162799654Y-112695024D01*
X162786866Y-112677781D01*
X162775830Y-112659368D01*
X162766651Y-112639962D01*
X162759419Y-112619750D01*
X162754203Y-112598926D01*
X162751053Y-112577691D01*
X162750000Y-112556250D01*
X162750000Y-112043750D01*
X162751053Y-112022309D01*
X162754203Y-112001074D01*
X162759419Y-111980250D01*
X162766651Y-111960038D01*
X162775830Y-111940632D01*
X162786866Y-111922219D01*
X162799654Y-111904976D01*
X162814070Y-111889070D01*
X162829976Y-111874654D01*
X162847219Y-111861866D01*
X162865632Y-111850830D01*
X162885038Y-111841651D01*
X162905250Y-111834419D01*
X162926074Y-111829203D01*
X162947309Y-111826053D01*
X162968750Y-111825000D01*
X163406250Y-111825000D01*
X163427691Y-111826053D01*
G37*
G36*
X161852691Y-111826053D02*
G01*
X161873926Y-111829203D01*
X161894750Y-111834419D01*
X161914962Y-111841651D01*
X161934368Y-111850830D01*
X161952781Y-111861866D01*
X161970024Y-111874654D01*
X161985930Y-111889070D01*
X162000346Y-111904976D01*
X162013134Y-111922219D01*
X162024170Y-111940632D01*
X162033349Y-111960038D01*
X162040581Y-111980250D01*
X162045797Y-112001074D01*
X162048947Y-112022309D01*
X162050000Y-112043750D01*
X162050000Y-112556250D01*
X162048947Y-112577691D01*
X162045797Y-112598926D01*
X162040581Y-112619750D01*
X162033349Y-112639962D01*
X162024170Y-112659368D01*
X162013134Y-112677781D01*
X162000346Y-112695024D01*
X161985930Y-112710930D01*
X161970024Y-112725346D01*
X161952781Y-112738134D01*
X161934368Y-112749170D01*
X161914962Y-112758349D01*
X161894750Y-112765581D01*
X161873926Y-112770797D01*
X161852691Y-112773947D01*
X161831250Y-112775000D01*
X161393750Y-112775000D01*
X161372309Y-112773947D01*
X161351074Y-112770797D01*
X161330250Y-112765581D01*
X161310038Y-112758349D01*
X161290632Y-112749170D01*
X161272219Y-112738134D01*
X161254976Y-112725346D01*
X161239070Y-112710930D01*
X161224654Y-112695024D01*
X161211866Y-112677781D01*
X161200830Y-112659368D01*
X161191651Y-112639962D01*
X161184419Y-112619750D01*
X161179203Y-112598926D01*
X161176053Y-112577691D01*
X161175000Y-112556250D01*
X161175000Y-112043750D01*
X161176053Y-112022309D01*
X161179203Y-112001074D01*
X161184419Y-111980250D01*
X161191651Y-111960038D01*
X161200830Y-111940632D01*
X161211866Y-111922219D01*
X161224654Y-111904976D01*
X161239070Y-111889070D01*
X161254976Y-111874654D01*
X161272219Y-111861866D01*
X161290632Y-111850830D01*
X161310038Y-111841651D01*
X161330250Y-111834419D01*
X161351074Y-111829203D01*
X161372309Y-111826053D01*
X161393750Y-111825000D01*
X161831250Y-111825000D01*
X161852691Y-111826053D01*
G37*
G36*
X163427691Y-108826053D02*
G01*
X163448926Y-108829203D01*
X163469750Y-108834419D01*
X163489962Y-108841651D01*
X163509368Y-108850830D01*
X163527781Y-108861866D01*
X163545024Y-108874654D01*
X163560930Y-108889070D01*
X163575346Y-108904976D01*
X163588134Y-108922219D01*
X163599170Y-108940632D01*
X163608349Y-108960038D01*
X163615581Y-108980250D01*
X163620797Y-109001074D01*
X163623947Y-109022309D01*
X163625000Y-109043750D01*
X163625000Y-109556250D01*
X163623947Y-109577691D01*
X163620797Y-109598926D01*
X163615581Y-109619750D01*
X163608349Y-109639962D01*
X163599170Y-109659368D01*
X163588134Y-109677781D01*
X163575346Y-109695024D01*
X163560930Y-109710930D01*
X163545024Y-109725346D01*
X163527781Y-109738134D01*
X163509368Y-109749170D01*
X163489962Y-109758349D01*
X163469750Y-109765581D01*
X163448926Y-109770797D01*
X163427691Y-109773947D01*
X163406250Y-109775000D01*
X162968750Y-109775000D01*
X162947309Y-109773947D01*
X162926074Y-109770797D01*
X162905250Y-109765581D01*
X162885038Y-109758349D01*
X162865632Y-109749170D01*
X162847219Y-109738134D01*
X162829976Y-109725346D01*
X162814070Y-109710930D01*
X162799654Y-109695024D01*
X162786866Y-109677781D01*
X162775830Y-109659368D01*
X162766651Y-109639962D01*
X162759419Y-109619750D01*
X162754203Y-109598926D01*
X162751053Y-109577691D01*
X162750000Y-109556250D01*
X162750000Y-109043750D01*
X162751053Y-109022309D01*
X162754203Y-109001074D01*
X162759419Y-108980250D01*
X162766651Y-108960038D01*
X162775830Y-108940632D01*
X162786866Y-108922219D01*
X162799654Y-108904976D01*
X162814070Y-108889070D01*
X162829976Y-108874654D01*
X162847219Y-108861866D01*
X162865632Y-108850830D01*
X162885038Y-108841651D01*
X162905250Y-108834419D01*
X162926074Y-108829203D01*
X162947309Y-108826053D01*
X162968750Y-108825000D01*
X163406250Y-108825000D01*
X163427691Y-108826053D01*
G37*
G36*
X161852691Y-108826053D02*
G01*
X161873926Y-108829203D01*
X161894750Y-108834419D01*
X161914962Y-108841651D01*
X161934368Y-108850830D01*
X161952781Y-108861866D01*
X161970024Y-108874654D01*
X161985930Y-108889070D01*
X162000346Y-108904976D01*
X162013134Y-108922219D01*
X162024170Y-108940632D01*
X162033349Y-108960038D01*
X162040581Y-108980250D01*
X162045797Y-109001074D01*
X162048947Y-109022309D01*
X162050000Y-109043750D01*
X162050000Y-109556250D01*
X162048947Y-109577691D01*
X162045797Y-109598926D01*
X162040581Y-109619750D01*
X162033349Y-109639962D01*
X162024170Y-109659368D01*
X162013134Y-109677781D01*
X162000346Y-109695024D01*
X161985930Y-109710930D01*
X161970024Y-109725346D01*
X161952781Y-109738134D01*
X161934368Y-109749170D01*
X161914962Y-109758349D01*
X161894750Y-109765581D01*
X161873926Y-109770797D01*
X161852691Y-109773947D01*
X161831250Y-109775000D01*
X161393750Y-109775000D01*
X161372309Y-109773947D01*
X161351074Y-109770797D01*
X161330250Y-109765581D01*
X161310038Y-109758349D01*
X161290632Y-109749170D01*
X161272219Y-109738134D01*
X161254976Y-109725346D01*
X161239070Y-109710930D01*
X161224654Y-109695024D01*
X161211866Y-109677781D01*
X161200830Y-109659368D01*
X161191651Y-109639962D01*
X161184419Y-109619750D01*
X161179203Y-109598926D01*
X161176053Y-109577691D01*
X161175000Y-109556250D01*
X161175000Y-109043750D01*
X161176053Y-109022309D01*
X161179203Y-109001074D01*
X161184419Y-108980250D01*
X161191651Y-108960038D01*
X161200830Y-108940632D01*
X161211866Y-108922219D01*
X161224654Y-108904976D01*
X161239070Y-108889070D01*
X161254976Y-108874654D01*
X161272219Y-108861866D01*
X161290632Y-108850830D01*
X161310038Y-108841651D01*
X161330250Y-108834419D01*
X161351074Y-108829203D01*
X161372309Y-108826053D01*
X161393750Y-108825000D01*
X161831250Y-108825000D01*
X161852691Y-108826053D01*
G37*
G36*
X163426891Y-105732453D02*
G01*
X163448126Y-105735603D01*
X163468950Y-105740819D01*
X163489162Y-105748051D01*
X163508568Y-105757230D01*
X163526981Y-105768266D01*
X163544224Y-105781054D01*
X163560130Y-105795470D01*
X163574546Y-105811376D01*
X163587334Y-105828619D01*
X163598370Y-105847032D01*
X163607549Y-105866438D01*
X163614781Y-105886650D01*
X163619997Y-105907474D01*
X163623147Y-105928709D01*
X163624200Y-105950150D01*
X163624200Y-106462650D01*
X163623147Y-106484091D01*
X163619997Y-106505326D01*
X163614781Y-106526150D01*
X163607549Y-106546362D01*
X163598370Y-106565768D01*
X163587334Y-106584181D01*
X163574546Y-106601424D01*
X163560130Y-106617330D01*
X163544224Y-106631746D01*
X163526981Y-106644534D01*
X163508568Y-106655570D01*
X163489162Y-106664749D01*
X163468950Y-106671981D01*
X163448126Y-106677197D01*
X163426891Y-106680347D01*
X163405450Y-106681400D01*
X162967950Y-106681400D01*
X162946509Y-106680347D01*
X162925274Y-106677197D01*
X162904450Y-106671981D01*
X162884238Y-106664749D01*
X162864832Y-106655570D01*
X162846419Y-106644534D01*
X162829176Y-106631746D01*
X162813270Y-106617330D01*
X162798854Y-106601424D01*
X162786066Y-106584181D01*
X162775030Y-106565768D01*
X162765851Y-106546362D01*
X162758619Y-106526150D01*
X162753403Y-106505326D01*
X162750253Y-106484091D01*
X162749200Y-106462650D01*
X162749200Y-105950150D01*
X162750253Y-105928709D01*
X162753403Y-105907474D01*
X162758619Y-105886650D01*
X162765851Y-105866438D01*
X162775030Y-105847032D01*
X162786066Y-105828619D01*
X162798854Y-105811376D01*
X162813270Y-105795470D01*
X162829176Y-105781054D01*
X162846419Y-105768266D01*
X162864832Y-105757230D01*
X162884238Y-105748051D01*
X162904450Y-105740819D01*
X162925274Y-105735603D01*
X162946509Y-105732453D01*
X162967950Y-105731400D01*
X163405450Y-105731400D01*
X163426891Y-105732453D01*
G37*
G36*
X161851891Y-105732453D02*
G01*
X161873126Y-105735603D01*
X161893950Y-105740819D01*
X161914162Y-105748051D01*
X161933568Y-105757230D01*
X161951981Y-105768266D01*
X161969224Y-105781054D01*
X161985130Y-105795470D01*
X161999546Y-105811376D01*
X162012334Y-105828619D01*
X162023370Y-105847032D01*
X162032549Y-105866438D01*
X162039781Y-105886650D01*
X162044997Y-105907474D01*
X162048147Y-105928709D01*
X162049200Y-105950150D01*
X162049200Y-106462650D01*
X162048147Y-106484091D01*
X162044997Y-106505326D01*
X162039781Y-106526150D01*
X162032549Y-106546362D01*
X162023370Y-106565768D01*
X162012334Y-106584181D01*
X161999546Y-106601424D01*
X161985130Y-106617330D01*
X161969224Y-106631746D01*
X161951981Y-106644534D01*
X161933568Y-106655570D01*
X161914162Y-106664749D01*
X161893950Y-106671981D01*
X161873126Y-106677197D01*
X161851891Y-106680347D01*
X161830450Y-106681400D01*
X161392950Y-106681400D01*
X161371509Y-106680347D01*
X161350274Y-106677197D01*
X161329450Y-106671981D01*
X161309238Y-106664749D01*
X161289832Y-106655570D01*
X161271419Y-106644534D01*
X161254176Y-106631746D01*
X161238270Y-106617330D01*
X161223854Y-106601424D01*
X161211066Y-106584181D01*
X161200030Y-106565768D01*
X161190851Y-106546362D01*
X161183619Y-106526150D01*
X161178403Y-106505326D01*
X161175253Y-106484091D01*
X161174200Y-106462650D01*
X161174200Y-105950150D01*
X161175253Y-105928709D01*
X161178403Y-105907474D01*
X161183619Y-105886650D01*
X161190851Y-105866438D01*
X161200030Y-105847032D01*
X161211066Y-105828619D01*
X161223854Y-105811376D01*
X161238270Y-105795470D01*
X161254176Y-105781054D01*
X161271419Y-105768266D01*
X161289832Y-105757230D01*
X161309238Y-105748051D01*
X161329450Y-105740819D01*
X161350274Y-105735603D01*
X161371509Y-105732453D01*
X161392950Y-105731400D01*
X161830450Y-105731400D01*
X161851891Y-105732453D01*
G37*
G36*
X133940191Y-109126053D02*
G01*
X133961426Y-109129203D01*
X133982250Y-109134419D01*
X134002462Y-109141651D01*
X134021868Y-109150830D01*
X134040281Y-109161866D01*
X134057524Y-109174654D01*
X134073430Y-109189070D01*
X134087846Y-109204976D01*
X134100634Y-109222219D01*
X134111670Y-109240632D01*
X134120849Y-109260038D01*
X134128081Y-109280250D01*
X134133297Y-109301074D01*
X134136447Y-109322309D01*
X134137500Y-109343750D01*
X134137500Y-109856250D01*
X134136447Y-109877691D01*
X134133297Y-109898926D01*
X134128081Y-109919750D01*
X134120849Y-109939962D01*
X134111670Y-109959368D01*
X134100634Y-109977781D01*
X134087846Y-109995024D01*
X134073430Y-110010930D01*
X134057524Y-110025346D01*
X134040281Y-110038134D01*
X134021868Y-110049170D01*
X134002462Y-110058349D01*
X133982250Y-110065581D01*
X133961426Y-110070797D01*
X133940191Y-110073947D01*
X133918750Y-110075000D01*
X133481250Y-110075000D01*
X133459809Y-110073947D01*
X133438574Y-110070797D01*
X133417750Y-110065581D01*
X133397538Y-110058349D01*
X133378132Y-110049170D01*
X133359719Y-110038134D01*
X133342476Y-110025346D01*
X133326570Y-110010930D01*
X133312154Y-109995024D01*
X133299366Y-109977781D01*
X133288330Y-109959368D01*
X133279151Y-109939962D01*
X133271919Y-109919750D01*
X133266703Y-109898926D01*
X133263553Y-109877691D01*
X133262500Y-109856250D01*
X133262500Y-109343750D01*
X133263553Y-109322309D01*
X133266703Y-109301074D01*
X133271919Y-109280250D01*
X133279151Y-109260038D01*
X133288330Y-109240632D01*
X133299366Y-109222219D01*
X133312154Y-109204976D01*
X133326570Y-109189070D01*
X133342476Y-109174654D01*
X133359719Y-109161866D01*
X133378132Y-109150830D01*
X133397538Y-109141651D01*
X133417750Y-109134419D01*
X133438574Y-109129203D01*
X133459809Y-109126053D01*
X133481250Y-109125000D01*
X133918750Y-109125000D01*
X133940191Y-109126053D01*
G37*
G36*
X135515191Y-109126053D02*
G01*
X135536426Y-109129203D01*
X135557250Y-109134419D01*
X135577462Y-109141651D01*
X135596868Y-109150830D01*
X135615281Y-109161866D01*
X135632524Y-109174654D01*
X135648430Y-109189070D01*
X135662846Y-109204976D01*
X135675634Y-109222219D01*
X135686670Y-109240632D01*
X135695849Y-109260038D01*
X135703081Y-109280250D01*
X135708297Y-109301074D01*
X135711447Y-109322309D01*
X135712500Y-109343750D01*
X135712500Y-109856250D01*
X135711447Y-109877691D01*
X135708297Y-109898926D01*
X135703081Y-109919750D01*
X135695849Y-109939962D01*
X135686670Y-109959368D01*
X135675634Y-109977781D01*
X135662846Y-109995024D01*
X135648430Y-110010930D01*
X135632524Y-110025346D01*
X135615281Y-110038134D01*
X135596868Y-110049170D01*
X135577462Y-110058349D01*
X135557250Y-110065581D01*
X135536426Y-110070797D01*
X135515191Y-110073947D01*
X135493750Y-110075000D01*
X135056250Y-110075000D01*
X135034809Y-110073947D01*
X135013574Y-110070797D01*
X134992750Y-110065581D01*
X134972538Y-110058349D01*
X134953132Y-110049170D01*
X134934719Y-110038134D01*
X134917476Y-110025346D01*
X134901570Y-110010930D01*
X134887154Y-109995024D01*
X134874366Y-109977781D01*
X134863330Y-109959368D01*
X134854151Y-109939962D01*
X134846919Y-109919750D01*
X134841703Y-109898926D01*
X134838553Y-109877691D01*
X134837500Y-109856250D01*
X134837500Y-109343750D01*
X134838553Y-109322309D01*
X134841703Y-109301074D01*
X134846919Y-109280250D01*
X134854151Y-109260038D01*
X134863330Y-109240632D01*
X134874366Y-109222219D01*
X134887154Y-109204976D01*
X134901570Y-109189070D01*
X134917476Y-109174654D01*
X134934719Y-109161866D01*
X134953132Y-109150830D01*
X134972538Y-109141651D01*
X134992750Y-109134419D01*
X135013574Y-109129203D01*
X135034809Y-109126053D01*
X135056250Y-109125000D01*
X135493750Y-109125000D01*
X135515191Y-109126053D01*
G37*
G36*
X134865191Y-89526053D02*
G01*
X134886426Y-89529203D01*
X134907250Y-89534419D01*
X134927462Y-89541651D01*
X134946868Y-89550830D01*
X134965281Y-89561866D01*
X134982524Y-89574654D01*
X134998430Y-89589070D01*
X135012846Y-89604976D01*
X135025634Y-89622219D01*
X135036670Y-89640632D01*
X135045849Y-89660038D01*
X135053081Y-89680250D01*
X135058297Y-89701074D01*
X135061447Y-89722309D01*
X135062500Y-89743750D01*
X135062500Y-90256250D01*
X135061447Y-90277691D01*
X135058297Y-90298926D01*
X135053081Y-90319750D01*
X135045849Y-90339962D01*
X135036670Y-90359368D01*
X135025634Y-90377781D01*
X135012846Y-90395024D01*
X134998430Y-90410930D01*
X134982524Y-90425346D01*
X134965281Y-90438134D01*
X134946868Y-90449170D01*
X134927462Y-90458349D01*
X134907250Y-90465581D01*
X134886426Y-90470797D01*
X134865191Y-90473947D01*
X134843750Y-90475000D01*
X134406250Y-90475000D01*
X134384809Y-90473947D01*
X134363574Y-90470797D01*
X134342750Y-90465581D01*
X134322538Y-90458349D01*
X134303132Y-90449170D01*
X134284719Y-90438134D01*
X134267476Y-90425346D01*
X134251570Y-90410930D01*
X134237154Y-90395024D01*
X134224366Y-90377781D01*
X134213330Y-90359368D01*
X134204151Y-90339962D01*
X134196919Y-90319750D01*
X134191703Y-90298926D01*
X134188553Y-90277691D01*
X134187500Y-90256250D01*
X134187500Y-89743750D01*
X134188553Y-89722309D01*
X134191703Y-89701074D01*
X134196919Y-89680250D01*
X134204151Y-89660038D01*
X134213330Y-89640632D01*
X134224366Y-89622219D01*
X134237154Y-89604976D01*
X134251570Y-89589070D01*
X134267476Y-89574654D01*
X134284719Y-89561866D01*
X134303132Y-89550830D01*
X134322538Y-89541651D01*
X134342750Y-89534419D01*
X134363574Y-89529203D01*
X134384809Y-89526053D01*
X134406250Y-89525000D01*
X134843750Y-89525000D01*
X134865191Y-89526053D01*
G37*
G36*
X136440191Y-89526053D02*
G01*
X136461426Y-89529203D01*
X136482250Y-89534419D01*
X136502462Y-89541651D01*
X136521868Y-89550830D01*
X136540281Y-89561866D01*
X136557524Y-89574654D01*
X136573430Y-89589070D01*
X136587846Y-89604976D01*
X136600634Y-89622219D01*
X136611670Y-89640632D01*
X136620849Y-89660038D01*
X136628081Y-89680250D01*
X136633297Y-89701074D01*
X136636447Y-89722309D01*
X136637500Y-89743750D01*
X136637500Y-90256250D01*
X136636447Y-90277691D01*
X136633297Y-90298926D01*
X136628081Y-90319750D01*
X136620849Y-90339962D01*
X136611670Y-90359368D01*
X136600634Y-90377781D01*
X136587846Y-90395024D01*
X136573430Y-90410930D01*
X136557524Y-90425346D01*
X136540281Y-90438134D01*
X136521868Y-90449170D01*
X136502462Y-90458349D01*
X136482250Y-90465581D01*
X136461426Y-90470797D01*
X136440191Y-90473947D01*
X136418750Y-90475000D01*
X135981250Y-90475000D01*
X135959809Y-90473947D01*
X135938574Y-90470797D01*
X135917750Y-90465581D01*
X135897538Y-90458349D01*
X135878132Y-90449170D01*
X135859719Y-90438134D01*
X135842476Y-90425346D01*
X135826570Y-90410930D01*
X135812154Y-90395024D01*
X135799366Y-90377781D01*
X135788330Y-90359368D01*
X135779151Y-90339962D01*
X135771919Y-90319750D01*
X135766703Y-90298926D01*
X135763553Y-90277691D01*
X135762500Y-90256250D01*
X135762500Y-89743750D01*
X135763553Y-89722309D01*
X135766703Y-89701074D01*
X135771919Y-89680250D01*
X135779151Y-89660038D01*
X135788330Y-89640632D01*
X135799366Y-89622219D01*
X135812154Y-89604976D01*
X135826570Y-89589070D01*
X135842476Y-89574654D01*
X135859719Y-89561866D01*
X135878132Y-89550830D01*
X135897538Y-89541651D01*
X135917750Y-89534419D01*
X135938574Y-89529203D01*
X135959809Y-89526053D01*
X135981250Y-89525000D01*
X136418750Y-89525000D01*
X136440191Y-89526053D01*
G37*
G36*
X134365191Y-86626053D02*
G01*
X134386426Y-86629203D01*
X134407250Y-86634419D01*
X134427462Y-86641651D01*
X134446868Y-86650830D01*
X134465281Y-86661866D01*
X134482524Y-86674654D01*
X134498430Y-86689070D01*
X134512846Y-86704976D01*
X134525634Y-86722219D01*
X134536670Y-86740632D01*
X134545849Y-86760038D01*
X134553081Y-86780250D01*
X134558297Y-86801074D01*
X134561447Y-86822309D01*
X134562500Y-86843750D01*
X134562500Y-87356250D01*
X134561447Y-87377691D01*
X134558297Y-87398926D01*
X134553081Y-87419750D01*
X134545849Y-87439962D01*
X134536670Y-87459368D01*
X134525634Y-87477781D01*
X134512846Y-87495024D01*
X134498430Y-87510930D01*
X134482524Y-87525346D01*
X134465281Y-87538134D01*
X134446868Y-87549170D01*
X134427462Y-87558349D01*
X134407250Y-87565581D01*
X134386426Y-87570797D01*
X134365191Y-87573947D01*
X134343750Y-87575000D01*
X133906250Y-87575000D01*
X133884809Y-87573947D01*
X133863574Y-87570797D01*
X133842750Y-87565581D01*
X133822538Y-87558349D01*
X133803132Y-87549170D01*
X133784719Y-87538134D01*
X133767476Y-87525346D01*
X133751570Y-87510930D01*
X133737154Y-87495024D01*
X133724366Y-87477781D01*
X133713330Y-87459368D01*
X133704151Y-87439962D01*
X133696919Y-87419750D01*
X133691703Y-87398926D01*
X133688553Y-87377691D01*
X133687500Y-87356250D01*
X133687500Y-86843750D01*
X133688553Y-86822309D01*
X133691703Y-86801074D01*
X133696919Y-86780250D01*
X133704151Y-86760038D01*
X133713330Y-86740632D01*
X133724366Y-86722219D01*
X133737154Y-86704976D01*
X133751570Y-86689070D01*
X133767476Y-86674654D01*
X133784719Y-86661866D01*
X133803132Y-86650830D01*
X133822538Y-86641651D01*
X133842750Y-86634419D01*
X133863574Y-86629203D01*
X133884809Y-86626053D01*
X133906250Y-86625000D01*
X134343750Y-86625000D01*
X134365191Y-86626053D01*
G37*
G36*
X135940191Y-86626053D02*
G01*
X135961426Y-86629203D01*
X135982250Y-86634419D01*
X136002462Y-86641651D01*
X136021868Y-86650830D01*
X136040281Y-86661866D01*
X136057524Y-86674654D01*
X136073430Y-86689070D01*
X136087846Y-86704976D01*
X136100634Y-86722219D01*
X136111670Y-86740632D01*
X136120849Y-86760038D01*
X136128081Y-86780250D01*
X136133297Y-86801074D01*
X136136447Y-86822309D01*
X136137500Y-86843750D01*
X136137500Y-87356250D01*
X136136447Y-87377691D01*
X136133297Y-87398926D01*
X136128081Y-87419750D01*
X136120849Y-87439962D01*
X136111670Y-87459368D01*
X136100634Y-87477781D01*
X136087846Y-87495024D01*
X136073430Y-87510930D01*
X136057524Y-87525346D01*
X136040281Y-87538134D01*
X136021868Y-87549170D01*
X136002462Y-87558349D01*
X135982250Y-87565581D01*
X135961426Y-87570797D01*
X135940191Y-87573947D01*
X135918750Y-87575000D01*
X135481250Y-87575000D01*
X135459809Y-87573947D01*
X135438574Y-87570797D01*
X135417750Y-87565581D01*
X135397538Y-87558349D01*
X135378132Y-87549170D01*
X135359719Y-87538134D01*
X135342476Y-87525346D01*
X135326570Y-87510930D01*
X135312154Y-87495024D01*
X135299366Y-87477781D01*
X135288330Y-87459368D01*
X135279151Y-87439962D01*
X135271919Y-87419750D01*
X135266703Y-87398926D01*
X135263553Y-87377691D01*
X135262500Y-87356250D01*
X135262500Y-86843750D01*
X135263553Y-86822309D01*
X135266703Y-86801074D01*
X135271919Y-86780250D01*
X135279151Y-86760038D01*
X135288330Y-86740632D01*
X135299366Y-86722219D01*
X135312154Y-86704976D01*
X135326570Y-86689070D01*
X135342476Y-86674654D01*
X135359719Y-86661866D01*
X135378132Y-86650830D01*
X135397538Y-86641651D01*
X135417750Y-86634419D01*
X135438574Y-86629203D01*
X135459809Y-86626053D01*
X135481250Y-86625000D01*
X135918750Y-86625000D01*
X135940191Y-86626053D01*
G37*
G36*
X159440191Y-87626053D02*
G01*
X159461426Y-87629203D01*
X159482250Y-87634419D01*
X159502462Y-87641651D01*
X159521868Y-87650830D01*
X159540281Y-87661866D01*
X159557524Y-87674654D01*
X159573430Y-87689070D01*
X159587846Y-87704976D01*
X159600634Y-87722219D01*
X159611670Y-87740632D01*
X159620849Y-87760038D01*
X159628081Y-87780250D01*
X159633297Y-87801074D01*
X159636447Y-87822309D01*
X159637500Y-87843750D01*
X159637500Y-88356250D01*
X159636447Y-88377691D01*
X159633297Y-88398926D01*
X159628081Y-88419750D01*
X159620849Y-88439962D01*
X159611670Y-88459368D01*
X159600634Y-88477781D01*
X159587846Y-88495024D01*
X159573430Y-88510930D01*
X159557524Y-88525346D01*
X159540281Y-88538134D01*
X159521868Y-88549170D01*
X159502462Y-88558349D01*
X159482250Y-88565581D01*
X159461426Y-88570797D01*
X159440191Y-88573947D01*
X159418750Y-88575000D01*
X158981250Y-88575000D01*
X158959809Y-88573947D01*
X158938574Y-88570797D01*
X158917750Y-88565581D01*
X158897538Y-88558349D01*
X158878132Y-88549170D01*
X158859719Y-88538134D01*
X158842476Y-88525346D01*
X158826570Y-88510930D01*
X158812154Y-88495024D01*
X158799366Y-88477781D01*
X158788330Y-88459368D01*
X158779151Y-88439962D01*
X158771919Y-88419750D01*
X158766703Y-88398926D01*
X158763553Y-88377691D01*
X158762500Y-88356250D01*
X158762500Y-87843750D01*
X158763553Y-87822309D01*
X158766703Y-87801074D01*
X158771919Y-87780250D01*
X158779151Y-87760038D01*
X158788330Y-87740632D01*
X158799366Y-87722219D01*
X158812154Y-87704976D01*
X158826570Y-87689070D01*
X158842476Y-87674654D01*
X158859719Y-87661866D01*
X158878132Y-87650830D01*
X158897538Y-87641651D01*
X158917750Y-87634419D01*
X158938574Y-87629203D01*
X158959809Y-87626053D01*
X158981250Y-87625000D01*
X159418750Y-87625000D01*
X159440191Y-87626053D01*
G37*
G36*
X157865191Y-87626053D02*
G01*
X157886426Y-87629203D01*
X157907250Y-87634419D01*
X157927462Y-87641651D01*
X157946868Y-87650830D01*
X157965281Y-87661866D01*
X157982524Y-87674654D01*
X157998430Y-87689070D01*
X158012846Y-87704976D01*
X158025634Y-87722219D01*
X158036670Y-87740632D01*
X158045849Y-87760038D01*
X158053081Y-87780250D01*
X158058297Y-87801074D01*
X158061447Y-87822309D01*
X158062500Y-87843750D01*
X158062500Y-88356250D01*
X158061447Y-88377691D01*
X158058297Y-88398926D01*
X158053081Y-88419750D01*
X158045849Y-88439962D01*
X158036670Y-88459368D01*
X158025634Y-88477781D01*
X158012846Y-88495024D01*
X157998430Y-88510930D01*
X157982524Y-88525346D01*
X157965281Y-88538134D01*
X157946868Y-88549170D01*
X157927462Y-88558349D01*
X157907250Y-88565581D01*
X157886426Y-88570797D01*
X157865191Y-88573947D01*
X157843750Y-88575000D01*
X157406250Y-88575000D01*
X157384809Y-88573947D01*
X157363574Y-88570797D01*
X157342750Y-88565581D01*
X157322538Y-88558349D01*
X157303132Y-88549170D01*
X157284719Y-88538134D01*
X157267476Y-88525346D01*
X157251570Y-88510930D01*
X157237154Y-88495024D01*
X157224366Y-88477781D01*
X157213330Y-88459368D01*
X157204151Y-88439962D01*
X157196919Y-88419750D01*
X157191703Y-88398926D01*
X157188553Y-88377691D01*
X157187500Y-88356250D01*
X157187500Y-87843750D01*
X157188553Y-87822309D01*
X157191703Y-87801074D01*
X157196919Y-87780250D01*
X157204151Y-87760038D01*
X157213330Y-87740632D01*
X157224366Y-87722219D01*
X157237154Y-87704976D01*
X157251570Y-87689070D01*
X157267476Y-87674654D01*
X157284719Y-87661866D01*
X157303132Y-87650830D01*
X157322538Y-87641651D01*
X157342750Y-87634419D01*
X157363574Y-87629203D01*
X157384809Y-87626053D01*
X157406250Y-87625000D01*
X157843750Y-87625000D01*
X157865191Y-87626053D01*
G37*
G36*
X128140191Y-100426053D02*
G01*
X128161426Y-100429203D01*
X128182250Y-100434419D01*
X128202462Y-100441651D01*
X128221868Y-100450830D01*
X128240281Y-100461866D01*
X128257524Y-100474654D01*
X128273430Y-100489070D01*
X128287846Y-100504976D01*
X128300634Y-100522219D01*
X128311670Y-100540632D01*
X128320849Y-100560038D01*
X128328081Y-100580250D01*
X128333297Y-100601074D01*
X128336447Y-100622309D01*
X128337500Y-100643750D01*
X128337500Y-101156250D01*
X128336447Y-101177691D01*
X128333297Y-101198926D01*
X128328081Y-101219750D01*
X128320849Y-101239962D01*
X128311670Y-101259368D01*
X128300634Y-101277781D01*
X128287846Y-101295024D01*
X128273430Y-101310930D01*
X128257524Y-101325346D01*
X128240281Y-101338134D01*
X128221868Y-101349170D01*
X128202462Y-101358349D01*
X128182250Y-101365581D01*
X128161426Y-101370797D01*
X128140191Y-101373947D01*
X128118750Y-101375000D01*
X127681250Y-101375000D01*
X127659809Y-101373947D01*
X127638574Y-101370797D01*
X127617750Y-101365581D01*
X127597538Y-101358349D01*
X127578132Y-101349170D01*
X127559719Y-101338134D01*
X127542476Y-101325346D01*
X127526570Y-101310930D01*
X127512154Y-101295024D01*
X127499366Y-101277781D01*
X127488330Y-101259368D01*
X127479151Y-101239962D01*
X127471919Y-101219750D01*
X127466703Y-101198926D01*
X127463553Y-101177691D01*
X127462500Y-101156250D01*
X127462500Y-100643750D01*
X127463553Y-100622309D01*
X127466703Y-100601074D01*
X127471919Y-100580250D01*
X127479151Y-100560038D01*
X127488330Y-100540632D01*
X127499366Y-100522219D01*
X127512154Y-100504976D01*
X127526570Y-100489070D01*
X127542476Y-100474654D01*
X127559719Y-100461866D01*
X127578132Y-100450830D01*
X127597538Y-100441651D01*
X127617750Y-100434419D01*
X127638574Y-100429203D01*
X127659809Y-100426053D01*
X127681250Y-100425000D01*
X128118750Y-100425000D01*
X128140191Y-100426053D01*
G37*
G36*
X129715191Y-100426053D02*
G01*
X129736426Y-100429203D01*
X129757250Y-100434419D01*
X129777462Y-100441651D01*
X129796868Y-100450830D01*
X129815281Y-100461866D01*
X129832524Y-100474654D01*
X129848430Y-100489070D01*
X129862846Y-100504976D01*
X129875634Y-100522219D01*
X129886670Y-100540632D01*
X129895849Y-100560038D01*
X129903081Y-100580250D01*
X129908297Y-100601074D01*
X129911447Y-100622309D01*
X129912500Y-100643750D01*
X129912500Y-101156250D01*
X129911447Y-101177691D01*
X129908297Y-101198926D01*
X129903081Y-101219750D01*
X129895849Y-101239962D01*
X129886670Y-101259368D01*
X129875634Y-101277781D01*
X129862846Y-101295024D01*
X129848430Y-101310930D01*
X129832524Y-101325346D01*
X129815281Y-101338134D01*
X129796868Y-101349170D01*
X129777462Y-101358349D01*
X129757250Y-101365581D01*
X129736426Y-101370797D01*
X129715191Y-101373947D01*
X129693750Y-101375000D01*
X129256250Y-101375000D01*
X129234809Y-101373947D01*
X129213574Y-101370797D01*
X129192750Y-101365581D01*
X129172538Y-101358349D01*
X129153132Y-101349170D01*
X129134719Y-101338134D01*
X129117476Y-101325346D01*
X129101570Y-101310930D01*
X129087154Y-101295024D01*
X129074366Y-101277781D01*
X129063330Y-101259368D01*
X129054151Y-101239962D01*
X129046919Y-101219750D01*
X129041703Y-101198926D01*
X129038553Y-101177691D01*
X129037500Y-101156250D01*
X129037500Y-100643750D01*
X129038553Y-100622309D01*
X129041703Y-100601074D01*
X129046919Y-100580250D01*
X129054151Y-100560038D01*
X129063330Y-100540632D01*
X129074366Y-100522219D01*
X129087154Y-100504976D01*
X129101570Y-100489070D01*
X129117476Y-100474654D01*
X129134719Y-100461866D01*
X129153132Y-100450830D01*
X129172538Y-100441651D01*
X129192750Y-100434419D01*
X129213574Y-100429203D01*
X129234809Y-100426053D01*
X129256250Y-100425000D01*
X129693750Y-100425000D01*
X129715191Y-100426053D01*
G37*
G36*
X127740191Y-94926053D02*
G01*
X127761426Y-94929203D01*
X127782250Y-94934419D01*
X127802462Y-94941651D01*
X127821868Y-94950830D01*
X127840281Y-94961866D01*
X127857524Y-94974654D01*
X127873430Y-94989070D01*
X127887846Y-95004976D01*
X127900634Y-95022219D01*
X127911670Y-95040632D01*
X127920849Y-95060038D01*
X127928081Y-95080250D01*
X127933297Y-95101074D01*
X127936447Y-95122309D01*
X127937500Y-95143750D01*
X127937500Y-95656250D01*
X127936447Y-95677691D01*
X127933297Y-95698926D01*
X127928081Y-95719750D01*
X127920849Y-95739962D01*
X127911670Y-95759368D01*
X127900634Y-95777781D01*
X127887846Y-95795024D01*
X127873430Y-95810930D01*
X127857524Y-95825346D01*
X127840281Y-95838134D01*
X127821868Y-95849170D01*
X127802462Y-95858349D01*
X127782250Y-95865581D01*
X127761426Y-95870797D01*
X127740191Y-95873947D01*
X127718750Y-95875000D01*
X127281250Y-95875000D01*
X127259809Y-95873947D01*
X127238574Y-95870797D01*
X127217750Y-95865581D01*
X127197538Y-95858349D01*
X127178132Y-95849170D01*
X127159719Y-95838134D01*
X127142476Y-95825346D01*
X127126570Y-95810930D01*
X127112154Y-95795024D01*
X127099366Y-95777781D01*
X127088330Y-95759368D01*
X127079151Y-95739962D01*
X127071919Y-95719750D01*
X127066703Y-95698926D01*
X127063553Y-95677691D01*
X127062500Y-95656250D01*
X127062500Y-95143750D01*
X127063553Y-95122309D01*
X127066703Y-95101074D01*
X127071919Y-95080250D01*
X127079151Y-95060038D01*
X127088330Y-95040632D01*
X127099366Y-95022219D01*
X127112154Y-95004976D01*
X127126570Y-94989070D01*
X127142476Y-94974654D01*
X127159719Y-94961866D01*
X127178132Y-94950830D01*
X127197538Y-94941651D01*
X127217750Y-94934419D01*
X127238574Y-94929203D01*
X127259809Y-94926053D01*
X127281250Y-94925000D01*
X127718750Y-94925000D01*
X127740191Y-94926053D01*
G37*
G36*
X129315191Y-94926053D02*
G01*
X129336426Y-94929203D01*
X129357250Y-94934419D01*
X129377462Y-94941651D01*
X129396868Y-94950830D01*
X129415281Y-94961866D01*
X129432524Y-94974654D01*
X129448430Y-94989070D01*
X129462846Y-95004976D01*
X129475634Y-95022219D01*
X129486670Y-95040632D01*
X129495849Y-95060038D01*
X129503081Y-95080250D01*
X129508297Y-95101074D01*
X129511447Y-95122309D01*
X129512500Y-95143750D01*
X129512500Y-95656250D01*
X129511447Y-95677691D01*
X129508297Y-95698926D01*
X129503081Y-95719750D01*
X129495849Y-95739962D01*
X129486670Y-95759368D01*
X129475634Y-95777781D01*
X129462846Y-95795024D01*
X129448430Y-95810930D01*
X129432524Y-95825346D01*
X129415281Y-95838134D01*
X129396868Y-95849170D01*
X129377462Y-95858349D01*
X129357250Y-95865581D01*
X129336426Y-95870797D01*
X129315191Y-95873947D01*
X129293750Y-95875000D01*
X128856250Y-95875000D01*
X128834809Y-95873947D01*
X128813574Y-95870797D01*
X128792750Y-95865581D01*
X128772538Y-95858349D01*
X128753132Y-95849170D01*
X128734719Y-95838134D01*
X128717476Y-95825346D01*
X128701570Y-95810930D01*
X128687154Y-95795024D01*
X128674366Y-95777781D01*
X128663330Y-95759368D01*
X128654151Y-95739962D01*
X128646919Y-95719750D01*
X128641703Y-95698926D01*
X128638553Y-95677691D01*
X128637500Y-95656250D01*
X128637500Y-95143750D01*
X128638553Y-95122309D01*
X128641703Y-95101074D01*
X128646919Y-95080250D01*
X128654151Y-95060038D01*
X128663330Y-95040632D01*
X128674366Y-95022219D01*
X128687154Y-95004976D01*
X128701570Y-94989070D01*
X128717476Y-94974654D01*
X128734719Y-94961866D01*
X128753132Y-94950830D01*
X128772538Y-94941651D01*
X128792750Y-94934419D01*
X128813574Y-94929203D01*
X128834809Y-94926053D01*
X128856250Y-94925000D01*
X129293750Y-94925000D01*
X129315191Y-94926053D01*
G37*
G36*
X133965191Y-105926053D02*
G01*
X133986426Y-105929203D01*
X134007250Y-105934419D01*
X134027462Y-105941651D01*
X134046868Y-105950830D01*
X134065281Y-105961866D01*
X134082524Y-105974654D01*
X134098430Y-105989070D01*
X134112846Y-106004976D01*
X134125634Y-106022219D01*
X134136670Y-106040632D01*
X134145849Y-106060038D01*
X134153081Y-106080250D01*
X134158297Y-106101074D01*
X134161447Y-106122309D01*
X134162500Y-106143750D01*
X134162500Y-106656250D01*
X134161447Y-106677691D01*
X134158297Y-106698926D01*
X134153081Y-106719750D01*
X134145849Y-106739962D01*
X134136670Y-106759368D01*
X134125634Y-106777781D01*
X134112846Y-106795024D01*
X134098430Y-106810930D01*
X134082524Y-106825346D01*
X134065281Y-106838134D01*
X134046868Y-106849170D01*
X134027462Y-106858349D01*
X134007250Y-106865581D01*
X133986426Y-106870797D01*
X133965191Y-106873947D01*
X133943750Y-106875000D01*
X133506250Y-106875000D01*
X133484809Y-106873947D01*
X133463574Y-106870797D01*
X133442750Y-106865581D01*
X133422538Y-106858349D01*
X133403132Y-106849170D01*
X133384719Y-106838134D01*
X133367476Y-106825346D01*
X133351570Y-106810930D01*
X133337154Y-106795024D01*
X133324366Y-106777781D01*
X133313330Y-106759368D01*
X133304151Y-106739962D01*
X133296919Y-106719750D01*
X133291703Y-106698926D01*
X133288553Y-106677691D01*
X133287500Y-106656250D01*
X133287500Y-106143750D01*
X133288553Y-106122309D01*
X133291703Y-106101074D01*
X133296919Y-106080250D01*
X133304151Y-106060038D01*
X133313330Y-106040632D01*
X133324366Y-106022219D01*
X133337154Y-106004976D01*
X133351570Y-105989070D01*
X133367476Y-105974654D01*
X133384719Y-105961866D01*
X133403132Y-105950830D01*
X133422538Y-105941651D01*
X133442750Y-105934419D01*
X133463574Y-105929203D01*
X133484809Y-105926053D01*
X133506250Y-105925000D01*
X133943750Y-105925000D01*
X133965191Y-105926053D01*
G37*
G36*
X135540191Y-105926053D02*
G01*
X135561426Y-105929203D01*
X135582250Y-105934419D01*
X135602462Y-105941651D01*
X135621868Y-105950830D01*
X135640281Y-105961866D01*
X135657524Y-105974654D01*
X135673430Y-105989070D01*
X135687846Y-106004976D01*
X135700634Y-106022219D01*
X135711670Y-106040632D01*
X135720849Y-106060038D01*
X135728081Y-106080250D01*
X135733297Y-106101074D01*
X135736447Y-106122309D01*
X135737500Y-106143750D01*
X135737500Y-106656250D01*
X135736447Y-106677691D01*
X135733297Y-106698926D01*
X135728081Y-106719750D01*
X135720849Y-106739962D01*
X135711670Y-106759368D01*
X135700634Y-106777781D01*
X135687846Y-106795024D01*
X135673430Y-106810930D01*
X135657524Y-106825346D01*
X135640281Y-106838134D01*
X135621868Y-106849170D01*
X135602462Y-106858349D01*
X135582250Y-106865581D01*
X135561426Y-106870797D01*
X135540191Y-106873947D01*
X135518750Y-106875000D01*
X135081250Y-106875000D01*
X135059809Y-106873947D01*
X135038574Y-106870797D01*
X135017750Y-106865581D01*
X134997538Y-106858349D01*
X134978132Y-106849170D01*
X134959719Y-106838134D01*
X134942476Y-106825346D01*
X134926570Y-106810930D01*
X134912154Y-106795024D01*
X134899366Y-106777781D01*
X134888330Y-106759368D01*
X134879151Y-106739962D01*
X134871919Y-106719750D01*
X134866703Y-106698926D01*
X134863553Y-106677691D01*
X134862500Y-106656250D01*
X134862500Y-106143750D01*
X134863553Y-106122309D01*
X134866703Y-106101074D01*
X134871919Y-106080250D01*
X134879151Y-106060038D01*
X134888330Y-106040632D01*
X134899366Y-106022219D01*
X134912154Y-106004976D01*
X134926570Y-105989070D01*
X134942476Y-105974654D01*
X134959719Y-105961866D01*
X134978132Y-105950830D01*
X134997538Y-105941651D01*
X135017750Y-105934419D01*
X135038574Y-105929203D01*
X135059809Y-105926053D01*
X135081250Y-105925000D01*
X135518750Y-105925000D01*
X135540191Y-105926053D01*
G37*
M02*
