G04 #@! TF.GenerationSoftware,KiCad,Pcbnew,(5.1.4)-1*
G04 #@! TF.CreationDate,2020-02-10T14:57:17-06:00*
G04 #@! TF.ProjectId,aducm_board,61647563-6d5f-4626-9f61-72642e6b6963,rev?*
G04 #@! TF.SameCoordinates,Original*
G04 #@! TF.FileFunction,Copper,L2,Bot*
G04 #@! TF.FilePolarity,Positive*
%FSLAX46Y46*%
G04 Gerber Fmt 4.6, Leading zero omitted, Abs format (unit mm)*
G04 Created by KiCad (PCBNEW (5.1.4)-1) date 2020-02-10 14:57:17*
%MOMM*%
%LPD*%
G04 APERTURE LIST*
%ADD10O,1.700000X1.700000*%
%ADD11R,1.700000X1.700000*%
%ADD12C,0.200000*%
%ADD13C,0.100000*%
%ADD14C,0.150000*%
%ADD15C,0.254000*%
G04 APERTURE END LIST*
D10*
X149961600Y-98806000D03*
X147421600Y-98806000D03*
D11*
X144881600Y-98806000D03*
D10*
X131064000Y-98806000D03*
X128524000Y-98806000D03*
D11*
X125984000Y-98806000D03*
D10*
X134061200Y-123444000D03*
X134061200Y-120904000D03*
X136601200Y-123444000D03*
X136601200Y-120904000D03*
X139141200Y-123444000D03*
X139141200Y-120904000D03*
X141681200Y-123444000D03*
D11*
X141681200Y-120904000D03*
D12*
X125700000Y-102850000D03*
X129130000Y-103050000D03*
X148225000Y-107450000D03*
X150723600Y-109524800D03*
X131525000Y-116075000D03*
X137700000Y-107575000D03*
X138850000Y-115575000D03*
X140360400Y-122478800D03*
X136950000Y-107720000D03*
X127280000Y-100380000D03*
X135400000Y-102030000D03*
X132410000Y-101300000D03*
X134940000Y-97290000D03*
X138582400Y-96012000D03*
X131216400Y-104597200D03*
X134775000Y-104600000D03*
X142646400Y-110845600D03*
X139547600Y-107340400D03*
X142748000Y-105359200D03*
X145846800Y-105410000D03*
X136550400Y-109220000D03*
X135128000Y-109274000D03*
X139852400Y-99517200D03*
X142900400Y-109067600D03*
X145643600Y-111455200D03*
X139801600Y-110845600D03*
X141376400Y-111556800D03*
X134112000Y-109626400D03*
X134670800Y-110947200D03*
X129438400Y-101854000D03*
X132435600Y-99923600D03*
X132130800Y-97231200D03*
X136652000Y-97028000D03*
X143408400Y-105003600D03*
X143002000Y-102514400D03*
X144373600Y-102920800D03*
X144272000Y-102412800D03*
X140563600Y-100990400D03*
X136347200Y-118922800D03*
X137058400Y-122224800D03*
X132181600Y-131673600D03*
X127711200Y-132486400D03*
X142240000Y-99669600D03*
X144221200Y-101041200D03*
X146608800Y-101142800D03*
X148285200Y-100939600D03*
X139040000Y-111180000D03*
X139030000Y-107410000D03*
X136804400Y-103530400D03*
X147218400Y-109880400D03*
X148132800Y-111506000D03*
X146862800Y-115722400D03*
X139598400Y-105003600D03*
X127711200Y-112471200D03*
X137617200Y-102920800D03*
X148336000Y-110337600D03*
X147726400Y-111912400D03*
X149402800Y-114350800D03*
X136601200Y-108762800D03*
X132232400Y-108607200D03*
X146405600Y-107391200D03*
X150110000Y-111660000D03*
X131673600Y-110896400D03*
X134569200Y-108712000D03*
X131216400Y-110794800D03*
X132537200Y-109423200D03*
X140563600Y-105308400D03*
X144475200Y-123949800D03*
X134772400Y-109626400D03*
X135077200Y-114706400D03*
D13*
X140716000Y-122478800D02*
X141681200Y-123444000D01*
X140360400Y-122478800D02*
X140716000Y-122478800D01*
X136218000Y-96012000D02*
X134940000Y-97290000D01*
X138582400Y-96012000D02*
X136218000Y-96012000D01*
X134366000Y-104597200D02*
X131216400Y-104597200D01*
X134366000Y-104597200D02*
X134772200Y-104597200D01*
X134772200Y-104597200D02*
X134775000Y-104600000D01*
X139547600Y-107340400D02*
X142340400Y-107340400D01*
X142646400Y-107646400D02*
X142646400Y-110845600D01*
X142340400Y-107340400D02*
X142646400Y-107646400D01*
X145796000Y-105359200D02*
X145846800Y-105410000D01*
X142748000Y-105359200D02*
X145796000Y-105359200D01*
X134061200Y-123444000D02*
X132842000Y-122224800D01*
X132842000Y-122224800D02*
X132842000Y-120091200D01*
X132842000Y-120091200D02*
X134162800Y-118770400D01*
X135483600Y-110286800D02*
X136550400Y-109220000D01*
X135483600Y-118719600D02*
X135483600Y-110286800D01*
X135483600Y-109629600D02*
X135483600Y-110286800D01*
X135128000Y-109274000D02*
X135483600Y-109629600D01*
X135432800Y-118770400D02*
X135483600Y-118719600D01*
X134162800Y-118770400D02*
X135432800Y-118770400D01*
X139852400Y-99517200D02*
X139852400Y-102362000D01*
X139852400Y-102362000D02*
X139700000Y-102514400D01*
X137524398Y-102514400D02*
X136863998Y-103174800D01*
X139700000Y-102514400D02*
X137524398Y-102514400D01*
X136863998Y-103174800D02*
X136398000Y-103174800D01*
X136398000Y-103174800D02*
X136296400Y-103276400D01*
X136296400Y-103276400D02*
X136296400Y-103835200D01*
X136296400Y-103835200D02*
X140157200Y-103835200D01*
X140157200Y-103835200D02*
X141020800Y-104698800D01*
X141020800Y-104698800D02*
X142849600Y-106527600D01*
X142849600Y-106527600D02*
X142849600Y-107289600D01*
X142849600Y-107289600D02*
X142849600Y-109016800D01*
X142849600Y-109016800D02*
X142900400Y-109067600D01*
X143256000Y-109067600D02*
X142900400Y-109067600D01*
X145643600Y-111455200D02*
X143256000Y-109067600D01*
X139801600Y-110845600D02*
X140665200Y-110845600D01*
X140665200Y-110845600D02*
X141376400Y-111556800D01*
X134112000Y-109626400D02*
X134670800Y-110185200D01*
X134670800Y-110185200D02*
X134670800Y-110947200D01*
X129438400Y-101854000D02*
X131368800Y-99923600D01*
X131368800Y-99923600D02*
X132435600Y-99923600D01*
X132030801Y-97131201D02*
X132130800Y-97231200D01*
X126708799Y-97131201D02*
X132030801Y-97131201D01*
X125984000Y-98806000D02*
X125984000Y-97856000D01*
X125984000Y-97856000D02*
X126708799Y-97131201D01*
X136652000Y-97120802D02*
X136652000Y-97028000D01*
X132266081Y-98806000D02*
X132743599Y-99283518D01*
X131064000Y-98806000D02*
X132266081Y-98806000D01*
X132743599Y-99283518D02*
X132743599Y-100629201D01*
X132743599Y-100629201D02*
X132847599Y-100733201D01*
X132847599Y-100733201D02*
X133039601Y-100733201D01*
X133039601Y-100733201D02*
X136652000Y-97120802D01*
X143408400Y-105003600D02*
X143002000Y-104597200D01*
X143002000Y-104597200D02*
X143002000Y-102514400D01*
X144373600Y-102920800D02*
X143764000Y-102311200D01*
X144881600Y-101193600D02*
X144881600Y-98806000D01*
X143764000Y-102311200D02*
X144881600Y-101193600D01*
X144272000Y-102412800D02*
X146710400Y-99974400D01*
X148793200Y-99974400D02*
X149961600Y-98806000D01*
X146710400Y-99974400D02*
X148793200Y-99974400D01*
X148437600Y-97282000D02*
X149961600Y-98806000D01*
X140563600Y-100990400D02*
X144272000Y-97282000D01*
X144272000Y-97282000D02*
X148437600Y-97282000D01*
X136347200Y-120650000D02*
X136601200Y-120904000D01*
X136347200Y-118922800D02*
X136347200Y-120650000D01*
X137820400Y-122224800D02*
X139141200Y-120904000D01*
X137058400Y-122224800D02*
X137820400Y-122224800D01*
X132040179Y-131673600D02*
X131379779Y-132334000D01*
X132181600Y-131673600D02*
X132040179Y-131673600D01*
X127863600Y-132334000D02*
X127711200Y-132486400D01*
X131379779Y-132334000D02*
X127863600Y-132334000D01*
X142240000Y-99669600D02*
X143611600Y-101041200D01*
X143611600Y-101041200D02*
X144221200Y-101041200D01*
X146608800Y-101142800D02*
X146812000Y-100939600D01*
X146812000Y-100939600D02*
X148285200Y-100939600D01*
X139040000Y-111180000D02*
X139040000Y-107420000D01*
X139040000Y-107420000D02*
X139030000Y-107410000D01*
D14*
X140303342Y-103530400D02*
X144418142Y-107645200D01*
X136804400Y-103530400D02*
X140303342Y-103530400D01*
X144418142Y-107645200D02*
X144983200Y-107645200D01*
X144983200Y-107645200D02*
X147218400Y-109880400D01*
X147991379Y-111506000D02*
X147889779Y-111607600D01*
X148132800Y-111506000D02*
X147991379Y-111506000D01*
X147889779Y-111607600D02*
X146913600Y-111607600D01*
X146913600Y-111607600D02*
X146862800Y-111658400D01*
X146862800Y-111658400D02*
X146862800Y-115722400D01*
D13*
X127711200Y-110277854D02*
X127711200Y-112471200D01*
X139598400Y-105003600D02*
X132985454Y-105003600D01*
X132985454Y-105003600D02*
X127711200Y-110277854D01*
D14*
X137617200Y-102920800D02*
X141782800Y-102920800D01*
X141782800Y-104727002D02*
X143786598Y-106730800D01*
X141782800Y-102920800D02*
X141782800Y-104727002D01*
X143786598Y-106730800D02*
X145592800Y-106730800D01*
X145592800Y-107543600D02*
X146507200Y-108458000D01*
X145592800Y-106730800D02*
X145592800Y-107543600D01*
X146507200Y-108458000D02*
X146507200Y-108508800D01*
X146507200Y-108508800D02*
X148336000Y-110337600D01*
D13*
X147726400Y-112674400D02*
X149402800Y-114350800D01*
X147726400Y-111912400D02*
X147726400Y-112674400D01*
X136451999Y-108912001D02*
X134318399Y-108912001D01*
X136601200Y-108762800D02*
X136451999Y-108912001D01*
X132737201Y-110493199D02*
X132737201Y-111610799D01*
X134318399Y-108912001D02*
X132737201Y-110493199D01*
X132737201Y-111610799D02*
X131210653Y-111610799D01*
X130505052Y-110803746D02*
X132232400Y-109076398D01*
X132232400Y-109076398D02*
X132232400Y-108607200D01*
X130505052Y-110905198D02*
X130505052Y-110803746D01*
X131210653Y-111610799D02*
X130505052Y-110905198D01*
X146405600Y-107391200D02*
X149352000Y-110337600D01*
X149352000Y-110902000D02*
X149352000Y-110337600D01*
X150110000Y-111660000D02*
X149352000Y-110902000D01*
X131673600Y-110896400D02*
X133858000Y-108712000D01*
X133858000Y-108712000D02*
X134569200Y-108712000D01*
X131216400Y-110794800D02*
X132537200Y-109474000D01*
X132537200Y-109474000D02*
X132537200Y-109423200D01*
X143660200Y-124764800D02*
X128320800Y-124764800D01*
X126187200Y-122631200D02*
X126187200Y-104038400D01*
X137016398Y-104038400D02*
X137321198Y-104343200D01*
X144475200Y-123949800D02*
X143660200Y-124764800D01*
X128320800Y-124764800D02*
X126187200Y-122631200D01*
X126187200Y-104038400D02*
X137016398Y-104038400D01*
X140563600Y-104638600D02*
X140275000Y-104350000D01*
X140563600Y-105308400D02*
X140563600Y-104638600D01*
X137321198Y-104343200D02*
X140275000Y-104350000D01*
X134772400Y-109626400D02*
X135077200Y-109931200D01*
X135077200Y-109931200D02*
X135077200Y-114706400D01*
D15*
G36*
X151722201Y-133637400D02*
G01*
X123258200Y-133637400D01*
X123258200Y-132424646D01*
X127084200Y-132424646D01*
X127084200Y-132548154D01*
X127108295Y-132669289D01*
X127155560Y-132783396D01*
X127224177Y-132886089D01*
X127311511Y-132973423D01*
X127414204Y-133042040D01*
X127528311Y-133089305D01*
X127649446Y-133113400D01*
X127772954Y-133113400D01*
X127894089Y-133089305D01*
X128008196Y-133042040D01*
X128110889Y-132973423D01*
X128173312Y-132911000D01*
X131351448Y-132911000D01*
X131379779Y-132913790D01*
X131408110Y-132911000D01*
X131408115Y-132911000D01*
X131437824Y-132908074D01*
X131492890Y-132902651D01*
X131537549Y-132889103D01*
X131601655Y-132869657D01*
X131701894Y-132816079D01*
X131789753Y-132743974D01*
X131807818Y-132721962D01*
X132229180Y-132300600D01*
X132243354Y-132300600D01*
X132364489Y-132276505D01*
X132478596Y-132229240D01*
X132581289Y-132160623D01*
X132668623Y-132073289D01*
X132737240Y-131970596D01*
X132784505Y-131856489D01*
X132808600Y-131735354D01*
X132808600Y-131611846D01*
X132784505Y-131490711D01*
X132737240Y-131376604D01*
X132668623Y-131273911D01*
X132581289Y-131186577D01*
X132478596Y-131117960D01*
X132364489Y-131070695D01*
X132243354Y-131046600D01*
X132119846Y-131046600D01*
X131998711Y-131070695D01*
X131885771Y-131117476D01*
X131862961Y-131124396D01*
X131818303Y-131137943D01*
X131718064Y-131191521D01*
X131630205Y-131263626D01*
X131612140Y-131285638D01*
X131140778Y-131757000D01*
X127891928Y-131757000D01*
X127863599Y-131754210D01*
X127835270Y-131757000D01*
X127835264Y-131757000D01*
X127750488Y-131765350D01*
X127641724Y-131798343D01*
X127541485Y-131851921D01*
X127477232Y-131904653D01*
X127414204Y-131930760D01*
X127311511Y-131999377D01*
X127224177Y-132086711D01*
X127155560Y-132189404D01*
X127108295Y-132303511D01*
X127084200Y-132424646D01*
X123258200Y-132424646D01*
X123258200Y-104038400D01*
X125607409Y-104038400D01*
X125610201Y-104066747D01*
X125610200Y-122602869D01*
X125607410Y-122631200D01*
X125618549Y-122744311D01*
X125633456Y-122793450D01*
X125651543Y-122853075D01*
X125705121Y-122953314D01*
X125777226Y-123041174D01*
X125799238Y-123059239D01*
X127892765Y-125152767D01*
X127910826Y-125174774D01*
X127932833Y-125192835D01*
X127932835Y-125192837D01*
X127952780Y-125209205D01*
X127998685Y-125246879D01*
X128098924Y-125300457D01*
X128207688Y-125333450D01*
X128292464Y-125341800D01*
X128292470Y-125341800D01*
X128320799Y-125344590D01*
X128349128Y-125341800D01*
X143631869Y-125341800D01*
X143660200Y-125344590D01*
X143688531Y-125341800D01*
X143688536Y-125341800D01*
X143718245Y-125338874D01*
X143773311Y-125333451D01*
X143817970Y-125319903D01*
X143882076Y-125300457D01*
X143982315Y-125246879D01*
X144070174Y-125174774D01*
X144088239Y-125152762D01*
X144709657Y-124531345D01*
X144772196Y-124505440D01*
X144874889Y-124436823D01*
X144962223Y-124349489D01*
X145030840Y-124246796D01*
X145078105Y-124132689D01*
X145102200Y-124011554D01*
X145102200Y-123888046D01*
X145078105Y-123766911D01*
X145030840Y-123652804D01*
X144962223Y-123550111D01*
X144874889Y-123462777D01*
X144772196Y-123394160D01*
X144658089Y-123346895D01*
X144536954Y-123322800D01*
X144413446Y-123322800D01*
X144292311Y-123346895D01*
X144178204Y-123394160D01*
X144075511Y-123462777D01*
X143988177Y-123550111D01*
X143919560Y-123652804D01*
X143893655Y-123715343D01*
X143421199Y-124187800D01*
X142958315Y-124187800D01*
X143025357Y-124075252D01*
X143122681Y-123800891D01*
X143002014Y-123571000D01*
X141808200Y-123571000D01*
X141808200Y-123591000D01*
X141554200Y-123591000D01*
X141554200Y-123571000D01*
X141534200Y-123571000D01*
X141534200Y-123317000D01*
X141554200Y-123317000D01*
X141554200Y-123297000D01*
X141808200Y-123297000D01*
X141808200Y-123317000D01*
X143002014Y-123317000D01*
X143122681Y-123087109D01*
X143025357Y-122812748D01*
X142876378Y-122562645D01*
X142681469Y-122346412D01*
X142589493Y-122277808D01*
X142634510Y-122273374D01*
X142733850Y-122243239D01*
X142825402Y-122194304D01*
X142905648Y-122128448D01*
X142971504Y-122048202D01*
X143020439Y-121956650D01*
X143050574Y-121857310D01*
X143060749Y-121754000D01*
X143060749Y-120054000D01*
X143050574Y-119950690D01*
X143020439Y-119851350D01*
X142971504Y-119759798D01*
X142905648Y-119679552D01*
X142825402Y-119613696D01*
X142733850Y-119564761D01*
X142634510Y-119534626D01*
X142531200Y-119524451D01*
X140831200Y-119524451D01*
X140727890Y-119534626D01*
X140628550Y-119564761D01*
X140536998Y-119613696D01*
X140456752Y-119679552D01*
X140390896Y-119759798D01*
X140341961Y-119851350D01*
X140311826Y-119950690D01*
X140301651Y-120054000D01*
X140301651Y-120153946D01*
X140291673Y-120135279D01*
X140119597Y-119925603D01*
X139909921Y-119753527D01*
X139670705Y-119625663D01*
X139411139Y-119546925D01*
X139208840Y-119527000D01*
X139073560Y-119527000D01*
X138871261Y-119546925D01*
X138611695Y-119625663D01*
X138372479Y-119753527D01*
X138162803Y-119925603D01*
X137990727Y-120135279D01*
X137871200Y-120358898D01*
X137751673Y-120135279D01*
X137579597Y-119925603D01*
X137369921Y-119753527D01*
X137130705Y-119625663D01*
X136924200Y-119563021D01*
X136924200Y-119168229D01*
X136950105Y-119105689D01*
X136974200Y-118984554D01*
X136974200Y-118861046D01*
X136950105Y-118739911D01*
X136902840Y-118625804D01*
X136834223Y-118523111D01*
X136746889Y-118435777D01*
X136644196Y-118367160D01*
X136530089Y-118319895D01*
X136408954Y-118295800D01*
X136285446Y-118295800D01*
X136164311Y-118319895D01*
X136060600Y-118362854D01*
X136060600Y-110525801D01*
X136784857Y-109801545D01*
X136847396Y-109775640D01*
X136950089Y-109707023D01*
X137037423Y-109619689D01*
X137106040Y-109516996D01*
X137153305Y-109402889D01*
X137177400Y-109281754D01*
X137177400Y-109158246D01*
X137157500Y-109058202D01*
X137204105Y-108945689D01*
X137228200Y-108824554D01*
X137228200Y-108701046D01*
X137204105Y-108579911D01*
X137156840Y-108465804D01*
X137088223Y-108363111D01*
X137000889Y-108275777D01*
X136898196Y-108207160D01*
X136784089Y-108159895D01*
X136662954Y-108135800D01*
X136539446Y-108135800D01*
X136418311Y-108159895D01*
X136304204Y-108207160D01*
X136201511Y-108275777D01*
X136142287Y-108335001D01*
X135071384Y-108335001D01*
X135056223Y-108312311D01*
X134968889Y-108224977D01*
X134866196Y-108156360D01*
X134752089Y-108109095D01*
X134630954Y-108085000D01*
X134507446Y-108085000D01*
X134386311Y-108109095D01*
X134323771Y-108135000D01*
X133886328Y-108135000D01*
X133857999Y-108132210D01*
X133829670Y-108135000D01*
X133829664Y-108135000D01*
X133744888Y-108143350D01*
X133636124Y-108176343D01*
X133535885Y-108229921D01*
X133514831Y-108247200D01*
X133470035Y-108283963D01*
X133470033Y-108283965D01*
X133448026Y-108302026D01*
X133429965Y-108324033D01*
X132865513Y-108888485D01*
X132834196Y-108867560D01*
X132809400Y-108857289D01*
X132809400Y-108852629D01*
X132835305Y-108790089D01*
X132859400Y-108668954D01*
X132859400Y-108545446D01*
X132835305Y-108424311D01*
X132788040Y-108310204D01*
X132719423Y-108207511D01*
X132632089Y-108120177D01*
X132529396Y-108051560D01*
X132415289Y-108004295D01*
X132294154Y-107980200D01*
X132170646Y-107980200D01*
X132049511Y-108004295D01*
X131935404Y-108051560D01*
X131832711Y-108120177D01*
X131745377Y-108207511D01*
X131676760Y-108310204D01*
X131629495Y-108424311D01*
X131605400Y-108545446D01*
X131605400Y-108668954D01*
X131629495Y-108790089D01*
X131650938Y-108841858D01*
X130117085Y-110375712D01*
X130095079Y-110393772D01*
X130077017Y-110415780D01*
X130077015Y-110415782D01*
X130070993Y-110423120D01*
X130022973Y-110481631D01*
X129969395Y-110581870D01*
X129959880Y-110613237D01*
X129936401Y-110690635D01*
X129931807Y-110737289D01*
X129928696Y-110768879D01*
X129925262Y-110803746D01*
X129928052Y-110832077D01*
X129928052Y-110876867D01*
X129925262Y-110905198D01*
X129928052Y-110933529D01*
X129928052Y-110933533D01*
X129929392Y-110947134D01*
X129936401Y-111018309D01*
X129952989Y-111072989D01*
X129969395Y-111127073D01*
X130022973Y-111227312D01*
X130095078Y-111315172D01*
X130117090Y-111333237D01*
X130782614Y-111998761D01*
X130800679Y-112020773D01*
X130888538Y-112092878D01*
X130949479Y-112125451D01*
X130988776Y-112146456D01*
X131097541Y-112179450D01*
X131210653Y-112190590D01*
X131238992Y-112187799D01*
X132708865Y-112187799D01*
X132737201Y-112190590D01*
X132765537Y-112187799D01*
X132850313Y-112179449D01*
X132959077Y-112146456D01*
X133059316Y-112092878D01*
X133147175Y-112020773D01*
X133219280Y-111932914D01*
X133272858Y-111832675D01*
X133305851Y-111723911D01*
X133316992Y-111610799D01*
X133314201Y-111582463D01*
X133314201Y-110732200D01*
X133849905Y-110196496D01*
X133877544Y-110207945D01*
X134093800Y-110424201D01*
X134093800Y-110701771D01*
X134067895Y-110764311D01*
X134043800Y-110885446D01*
X134043800Y-111008954D01*
X134067895Y-111130089D01*
X134115160Y-111244196D01*
X134183777Y-111346889D01*
X134271111Y-111434223D01*
X134373804Y-111502840D01*
X134487911Y-111550105D01*
X134500200Y-111552549D01*
X134500201Y-114460969D01*
X134474295Y-114523511D01*
X134450200Y-114644646D01*
X134450200Y-114768154D01*
X134474295Y-114889289D01*
X134521560Y-115003396D01*
X134590177Y-115106089D01*
X134677511Y-115193423D01*
X134780204Y-115262040D01*
X134894311Y-115309305D01*
X134906600Y-115311749D01*
X134906600Y-118193400D01*
X134191128Y-118193400D01*
X134162799Y-118190610D01*
X134134470Y-118193400D01*
X134134464Y-118193400D01*
X134049688Y-118201750D01*
X133940924Y-118234743D01*
X133840685Y-118288321D01*
X133752826Y-118360426D01*
X133734763Y-118382436D01*
X132454034Y-119663165D01*
X132432027Y-119681226D01*
X132413966Y-119703233D01*
X132413963Y-119703236D01*
X132390840Y-119731412D01*
X132359922Y-119769085D01*
X132315951Y-119851350D01*
X132306344Y-119869324D01*
X132273349Y-119978089D01*
X132262210Y-120091200D01*
X132265001Y-120119541D01*
X132265000Y-122196469D01*
X132262210Y-122224800D01*
X132273349Y-122337911D01*
X132292796Y-122402017D01*
X132306343Y-122446675D01*
X132359921Y-122546914D01*
X132432026Y-122634774D01*
X132454036Y-122652837D01*
X132767230Y-122966031D01*
X132704125Y-123174061D01*
X132677538Y-123444000D01*
X132704125Y-123713939D01*
X132782863Y-123973505D01*
X132897406Y-124187800D01*
X128559802Y-124187800D01*
X126764200Y-122392199D01*
X126764200Y-104615400D01*
X130589400Y-104615400D01*
X130589400Y-104658954D01*
X130613495Y-104780089D01*
X130660760Y-104894196D01*
X130729377Y-104996889D01*
X130816711Y-105084223D01*
X130919404Y-105152840D01*
X131033511Y-105200105D01*
X131154646Y-105224200D01*
X131278154Y-105224200D01*
X131399289Y-105200105D01*
X131461829Y-105174200D01*
X131998853Y-105174200D01*
X127323238Y-109849815D01*
X127301226Y-109867880D01*
X127229121Y-109955740D01*
X127175543Y-110055979D01*
X127167278Y-110083225D01*
X127142549Y-110164743D01*
X127137455Y-110216471D01*
X127135221Y-110239160D01*
X127131410Y-110277854D01*
X127134200Y-110306185D01*
X127134201Y-112225769D01*
X127108295Y-112288311D01*
X127084200Y-112409446D01*
X127084200Y-112532954D01*
X127108295Y-112654089D01*
X127155560Y-112768196D01*
X127224177Y-112870889D01*
X127311511Y-112958223D01*
X127414204Y-113026840D01*
X127528311Y-113074105D01*
X127649446Y-113098200D01*
X127772954Y-113098200D01*
X127894089Y-113074105D01*
X128008196Y-113026840D01*
X128110889Y-112958223D01*
X128198223Y-112870889D01*
X128266840Y-112768196D01*
X128314105Y-112654089D01*
X128338200Y-112532954D01*
X128338200Y-112409446D01*
X128314105Y-112288311D01*
X128288200Y-112225771D01*
X128288200Y-110516855D01*
X133224455Y-105580600D01*
X139352971Y-105580600D01*
X139415511Y-105606505D01*
X139536646Y-105630600D01*
X139660154Y-105630600D01*
X139781289Y-105606505D01*
X139895396Y-105559240D01*
X139968585Y-105510337D01*
X140007960Y-105605396D01*
X140076577Y-105708089D01*
X140163911Y-105795423D01*
X140266604Y-105864040D01*
X140380711Y-105911305D01*
X140501846Y-105935400D01*
X140625354Y-105935400D01*
X140746489Y-105911305D01*
X140860596Y-105864040D01*
X140963289Y-105795423D01*
X141050623Y-105708089D01*
X141116098Y-105610099D01*
X142269399Y-106763400D01*
X139793029Y-106763400D01*
X139730489Y-106737495D01*
X139609354Y-106713400D01*
X139485846Y-106713400D01*
X139364711Y-106737495D01*
X139250604Y-106784760D01*
X139215536Y-106808191D01*
X139212889Y-106807095D01*
X139091754Y-106783000D01*
X138968246Y-106783000D01*
X138847111Y-106807095D01*
X138733004Y-106854360D01*
X138630311Y-106922977D01*
X138542977Y-107010311D01*
X138474360Y-107113004D01*
X138427095Y-107227111D01*
X138403000Y-107348246D01*
X138403000Y-107471754D01*
X138427095Y-107592889D01*
X138463001Y-107679573D01*
X138463000Y-110934571D01*
X138437095Y-110997111D01*
X138413000Y-111118246D01*
X138413000Y-111241754D01*
X138437095Y-111362889D01*
X138484360Y-111476996D01*
X138552977Y-111579689D01*
X138640311Y-111667023D01*
X138743004Y-111735640D01*
X138857111Y-111782905D01*
X138978246Y-111807000D01*
X139101754Y-111807000D01*
X139222889Y-111782905D01*
X139336996Y-111735640D01*
X139439689Y-111667023D01*
X139527023Y-111579689D01*
X139595640Y-111476996D01*
X139609092Y-111444521D01*
X139618711Y-111448505D01*
X139739846Y-111472600D01*
X139863354Y-111472600D01*
X139984489Y-111448505D01*
X140047029Y-111422600D01*
X140426199Y-111422600D01*
X140794855Y-111791256D01*
X140820760Y-111853796D01*
X140889377Y-111956489D01*
X140976711Y-112043823D01*
X141079404Y-112112440D01*
X141193511Y-112159705D01*
X141314646Y-112183800D01*
X141438154Y-112183800D01*
X141559289Y-112159705D01*
X141673396Y-112112440D01*
X141776089Y-112043823D01*
X141863423Y-111956489D01*
X141932040Y-111853796D01*
X141979305Y-111739689D01*
X142003400Y-111618554D01*
X142003400Y-111495046D01*
X141979305Y-111373911D01*
X141932040Y-111259804D01*
X141863423Y-111157111D01*
X141776089Y-111069777D01*
X141673396Y-111001160D01*
X141610856Y-110975255D01*
X141093239Y-110457638D01*
X141075174Y-110435626D01*
X140987315Y-110363521D01*
X140887076Y-110309943D01*
X140822970Y-110290497D01*
X140778311Y-110276949D01*
X140721182Y-110271323D01*
X140693536Y-110268600D01*
X140693531Y-110268600D01*
X140665200Y-110265810D01*
X140636869Y-110268600D01*
X140047029Y-110268600D01*
X139984489Y-110242695D01*
X139863354Y-110218600D01*
X139739846Y-110218600D01*
X139618711Y-110242695D01*
X139617000Y-110243404D01*
X139617000Y-107965879D01*
X139730489Y-107943305D01*
X139793029Y-107917400D01*
X142069400Y-107917400D01*
X142069401Y-110600169D01*
X142043495Y-110662711D01*
X142019400Y-110783846D01*
X142019400Y-110907354D01*
X142043495Y-111028489D01*
X142090760Y-111142596D01*
X142159377Y-111245289D01*
X142246711Y-111332623D01*
X142349404Y-111401240D01*
X142463511Y-111448505D01*
X142584646Y-111472600D01*
X142708154Y-111472600D01*
X142829289Y-111448505D01*
X142943396Y-111401240D01*
X143046089Y-111332623D01*
X143133423Y-111245289D01*
X143202040Y-111142596D01*
X143249305Y-111028489D01*
X143273400Y-110907354D01*
X143273400Y-110783846D01*
X143249305Y-110662711D01*
X143223400Y-110600171D01*
X143223400Y-109851001D01*
X145062055Y-111689656D01*
X145087960Y-111752196D01*
X145156577Y-111854889D01*
X145243911Y-111942223D01*
X145346604Y-112010840D01*
X145460711Y-112058105D01*
X145581846Y-112082200D01*
X145705354Y-112082200D01*
X145826489Y-112058105D01*
X145940596Y-112010840D01*
X146043289Y-111942223D01*
X146130623Y-111854889D01*
X146199240Y-111752196D01*
X146246505Y-111638089D01*
X146270600Y-111516954D01*
X146270600Y-111393446D01*
X146246505Y-111272311D01*
X146199240Y-111158204D01*
X146130623Y-111055511D01*
X146043289Y-110968177D01*
X145940596Y-110899560D01*
X145878056Y-110873655D01*
X143684037Y-108679636D01*
X143665974Y-108657626D01*
X143578115Y-108585521D01*
X143477876Y-108531943D01*
X143426600Y-108516389D01*
X143426600Y-107505014D01*
X143971557Y-108049971D01*
X143990405Y-108072937D01*
X144082071Y-108148166D01*
X144186652Y-108204066D01*
X144300130Y-108238489D01*
X144388576Y-108247200D01*
X144388585Y-108247200D01*
X144418142Y-108250111D01*
X144447698Y-108247200D01*
X144733845Y-108247200D01*
X146661856Y-110175212D01*
X146662760Y-110177396D01*
X146731377Y-110280089D01*
X146818711Y-110367423D01*
X146921404Y-110436040D01*
X147035511Y-110483305D01*
X147156646Y-110507400D01*
X147280154Y-110507400D01*
X147401289Y-110483305D01*
X147515396Y-110436040D01*
X147555972Y-110408928D01*
X147779455Y-110632411D01*
X147780360Y-110634596D01*
X147848977Y-110737289D01*
X147936311Y-110824623D01*
X148029932Y-110887178D01*
X147949911Y-110903095D01*
X147943332Y-110905820D01*
X147873367Y-110912711D01*
X147759889Y-110947134D01*
X147655308Y-111003034D01*
X147652181Y-111005600D01*
X146943156Y-111005600D01*
X146913599Y-111002689D01*
X146884043Y-111005600D01*
X146884034Y-111005600D01*
X146795588Y-111014311D01*
X146682110Y-111048734D01*
X146577529Y-111104634D01*
X146485863Y-111179863D01*
X146467011Y-111202834D01*
X146458034Y-111211811D01*
X146435063Y-111230663D01*
X146359834Y-111322330D01*
X146303934Y-111426911D01*
X146269511Y-111540389D01*
X146260800Y-111628835D01*
X146260800Y-111628844D01*
X146257889Y-111658400D01*
X146260800Y-111687956D01*
X146260801Y-115537324D01*
X146259895Y-115539511D01*
X146235800Y-115660646D01*
X146235800Y-115784154D01*
X146259895Y-115905289D01*
X146307160Y-116019396D01*
X146375777Y-116122089D01*
X146463111Y-116209423D01*
X146565804Y-116278040D01*
X146679911Y-116325305D01*
X146801046Y-116349400D01*
X146924554Y-116349400D01*
X147045689Y-116325305D01*
X147159796Y-116278040D01*
X147262489Y-116209423D01*
X147349823Y-116122089D01*
X147418440Y-116019396D01*
X147465705Y-115905289D01*
X147489800Y-115784154D01*
X147489800Y-115660646D01*
X147465705Y-115539511D01*
X147464800Y-115537326D01*
X147464800Y-113228801D01*
X148821255Y-114585256D01*
X148847160Y-114647796D01*
X148915777Y-114750489D01*
X149003111Y-114837823D01*
X149105804Y-114906440D01*
X149219911Y-114953705D01*
X149341046Y-114977800D01*
X149464554Y-114977800D01*
X149585689Y-114953705D01*
X149699796Y-114906440D01*
X149802489Y-114837823D01*
X149889823Y-114750489D01*
X149958440Y-114647796D01*
X150005705Y-114533689D01*
X150029800Y-114412554D01*
X150029800Y-114289046D01*
X150005705Y-114167911D01*
X149958440Y-114053804D01*
X149889823Y-113951111D01*
X149802489Y-113863777D01*
X149699796Y-113795160D01*
X149637256Y-113769255D01*
X148303400Y-112435399D01*
X148303400Y-112157829D01*
X148325317Y-112104917D01*
X148429796Y-112061640D01*
X148532489Y-111993023D01*
X148619823Y-111905689D01*
X148688440Y-111802996D01*
X148735705Y-111688889D01*
X148759800Y-111567754D01*
X148759800Y-111444246D01*
X148735705Y-111323111D01*
X148688440Y-111209004D01*
X148619823Y-111106311D01*
X148532489Y-111018977D01*
X148438868Y-110956422D01*
X148518889Y-110940505D01*
X148632996Y-110893240D01*
X148735689Y-110824623D01*
X148775000Y-110785312D01*
X148775000Y-110873669D01*
X148772210Y-110902000D01*
X148775000Y-110930331D01*
X148775000Y-110930335D01*
X148775315Y-110933533D01*
X148783349Y-111015111D01*
X148799933Y-111069777D01*
X148816343Y-111123875D01*
X148869921Y-111224114D01*
X148942026Y-111311974D01*
X148964038Y-111330039D01*
X149528455Y-111894456D01*
X149554360Y-111956996D01*
X149622977Y-112059689D01*
X149710311Y-112147023D01*
X149813004Y-112215640D01*
X149927111Y-112262905D01*
X150048246Y-112287000D01*
X150171754Y-112287000D01*
X150292889Y-112262905D01*
X150406996Y-112215640D01*
X150509689Y-112147023D01*
X150597023Y-112059689D01*
X150665640Y-111956996D01*
X150712905Y-111842889D01*
X150737000Y-111721754D01*
X150737000Y-111598246D01*
X150712905Y-111477111D01*
X150665640Y-111363004D01*
X150597023Y-111260311D01*
X150509689Y-111172977D01*
X150406996Y-111104360D01*
X150344456Y-111078455D01*
X149929000Y-110662999D01*
X149929000Y-110365931D01*
X149931790Y-110337600D01*
X149928854Y-110307777D01*
X149925817Y-110276949D01*
X149920651Y-110224488D01*
X149900137Y-110156864D01*
X149887657Y-110115724D01*
X149834079Y-110015485D01*
X149761974Y-109927626D01*
X149739962Y-109909561D01*
X146987145Y-107156744D01*
X146961240Y-107094204D01*
X146892623Y-106991511D01*
X146805289Y-106904177D01*
X146702596Y-106835560D01*
X146588489Y-106788295D01*
X146467354Y-106764200D01*
X146343846Y-106764200D01*
X146222711Y-106788295D01*
X146194800Y-106799856D01*
X146194800Y-106760366D01*
X146197712Y-106730800D01*
X146186089Y-106612788D01*
X146151666Y-106499310D01*
X146095766Y-106394729D01*
X146020537Y-106303063D01*
X145928871Y-106227834D01*
X145824290Y-106171934D01*
X145710812Y-106137511D01*
X145622366Y-106128800D01*
X145592800Y-106125888D01*
X145563234Y-106128800D01*
X144035955Y-106128800D01*
X143843355Y-105936200D01*
X145505744Y-105936200D01*
X145549804Y-105965640D01*
X145663911Y-106012905D01*
X145785046Y-106037000D01*
X145908554Y-106037000D01*
X146029689Y-106012905D01*
X146143796Y-105965640D01*
X146246489Y-105897023D01*
X146333823Y-105809689D01*
X146402440Y-105706996D01*
X146449705Y-105592889D01*
X146473800Y-105471754D01*
X146473800Y-105348246D01*
X146449705Y-105227111D01*
X146402440Y-105113004D01*
X146333823Y-105010311D01*
X146246489Y-104922977D01*
X146143796Y-104854360D01*
X146029689Y-104807095D01*
X145908554Y-104783000D01*
X145832458Y-104783000D01*
X145824336Y-104782200D01*
X145824331Y-104782200D01*
X145796000Y-104779410D01*
X145767669Y-104782200D01*
X143995353Y-104782200D01*
X143964040Y-104706604D01*
X143895423Y-104603911D01*
X143808089Y-104516577D01*
X143705396Y-104447960D01*
X143642856Y-104422055D01*
X143579000Y-104358199D01*
X143579000Y-102942201D01*
X143792055Y-103155256D01*
X143817960Y-103217796D01*
X143886577Y-103320489D01*
X143973911Y-103407823D01*
X144076604Y-103476440D01*
X144190711Y-103523705D01*
X144311846Y-103547800D01*
X144435354Y-103547800D01*
X144556489Y-103523705D01*
X144670596Y-103476440D01*
X144773289Y-103407823D01*
X144860623Y-103320489D01*
X144929240Y-103217796D01*
X144976505Y-103103689D01*
X145000600Y-102982554D01*
X145000600Y-102859046D01*
X144976505Y-102737911D01*
X144929240Y-102623804D01*
X144908314Y-102592487D01*
X146056302Y-101444499D01*
X146121777Y-101542489D01*
X146209111Y-101629823D01*
X146311804Y-101698440D01*
X146425911Y-101745705D01*
X146547046Y-101769800D01*
X146670554Y-101769800D01*
X146791689Y-101745705D01*
X146905796Y-101698440D01*
X147008489Y-101629823D01*
X147095823Y-101542489D01*
X147113121Y-101516600D01*
X148039771Y-101516600D01*
X148102311Y-101542505D01*
X148223446Y-101566600D01*
X148346954Y-101566600D01*
X148468089Y-101542505D01*
X148582196Y-101495240D01*
X148684889Y-101426623D01*
X148772223Y-101339289D01*
X148840840Y-101236596D01*
X148888105Y-101122489D01*
X148912200Y-101001354D01*
X148912200Y-100877846D01*
X148888105Y-100756711D01*
X148840840Y-100642604D01*
X148780958Y-100552984D01*
X148793200Y-100554190D01*
X148821531Y-100551400D01*
X148821536Y-100551400D01*
X148851245Y-100548474D01*
X148906311Y-100543051D01*
X148950970Y-100529503D01*
X149015076Y-100510057D01*
X149115315Y-100456479D01*
X149203174Y-100384374D01*
X149221239Y-100362362D01*
X149483631Y-100099970D01*
X149691661Y-100163075D01*
X149893960Y-100183000D01*
X150029240Y-100183000D01*
X150231539Y-100163075D01*
X150491105Y-100084337D01*
X150730321Y-99956473D01*
X150939997Y-99784397D01*
X151112073Y-99574721D01*
X151239937Y-99335505D01*
X151318675Y-99075939D01*
X151345262Y-98806000D01*
X151318675Y-98536061D01*
X151239937Y-98276495D01*
X151112073Y-98037279D01*
X150939997Y-97827603D01*
X150730321Y-97655527D01*
X150491105Y-97527663D01*
X150231539Y-97448925D01*
X150029240Y-97429000D01*
X149893960Y-97429000D01*
X149691661Y-97448925D01*
X149483631Y-97512030D01*
X148865639Y-96894038D01*
X148847574Y-96872026D01*
X148759715Y-96799921D01*
X148659476Y-96746343D01*
X148595370Y-96726897D01*
X148550711Y-96713349D01*
X148495645Y-96707926D01*
X148465936Y-96705000D01*
X148465931Y-96705000D01*
X148437600Y-96702210D01*
X148409269Y-96705000D01*
X144300339Y-96705000D01*
X144272000Y-96702209D01*
X144158888Y-96713349D01*
X144050123Y-96746343D01*
X144024228Y-96760184D01*
X143949885Y-96799921D01*
X143862026Y-96872026D01*
X143843961Y-96894038D01*
X140429400Y-100308599D01*
X140429400Y-99762629D01*
X140455305Y-99700089D01*
X140479400Y-99578954D01*
X140479400Y-99455446D01*
X140455305Y-99334311D01*
X140408040Y-99220204D01*
X140339423Y-99117511D01*
X140252089Y-99030177D01*
X140149396Y-98961560D01*
X140035289Y-98914295D01*
X139914154Y-98890200D01*
X139790646Y-98890200D01*
X139669511Y-98914295D01*
X139555404Y-98961560D01*
X139452711Y-99030177D01*
X139365377Y-99117511D01*
X139296760Y-99220204D01*
X139249495Y-99334311D01*
X139225400Y-99455446D01*
X139225400Y-99578954D01*
X139249495Y-99700089D01*
X139275400Y-99762629D01*
X139275401Y-101937400D01*
X137552737Y-101937400D01*
X137524398Y-101934609D01*
X137411286Y-101945749D01*
X137347180Y-101965196D01*
X137302522Y-101978743D01*
X137202283Y-102032321D01*
X137114424Y-102104426D01*
X137096361Y-102126436D01*
X136624997Y-102597800D01*
X136426328Y-102597800D01*
X136397999Y-102595010D01*
X136369671Y-102597800D01*
X136369664Y-102597800D01*
X136284888Y-102606150D01*
X136176124Y-102639143D01*
X136075885Y-102692721D01*
X135988026Y-102764826D01*
X135969963Y-102786836D01*
X135908438Y-102848361D01*
X135886426Y-102866426D01*
X135814321Y-102954286D01*
X135760743Y-103054525D01*
X135758570Y-103061689D01*
X135727749Y-103163289D01*
X135722381Y-103217796D01*
X135719908Y-103242914D01*
X135716610Y-103276400D01*
X135719400Y-103304731D01*
X135719400Y-103461400D01*
X126215536Y-103461400D01*
X126187200Y-103458609D01*
X126158864Y-103461400D01*
X126074088Y-103469750D01*
X125965324Y-103502743D01*
X125865085Y-103556321D01*
X125777226Y-103628426D01*
X125705121Y-103716285D01*
X125651543Y-103816524D01*
X125618550Y-103925288D01*
X125607409Y-104038400D01*
X123258200Y-104038400D01*
X123258200Y-97956000D01*
X124604451Y-97956000D01*
X124604451Y-99656000D01*
X124614626Y-99759310D01*
X124644761Y-99858650D01*
X124693696Y-99950202D01*
X124759552Y-100030448D01*
X124839798Y-100096304D01*
X124931350Y-100145239D01*
X125030690Y-100175374D01*
X125134000Y-100185549D01*
X126834000Y-100185549D01*
X126937310Y-100175374D01*
X127036650Y-100145239D01*
X127128202Y-100096304D01*
X127208448Y-100030448D01*
X127274304Y-99950202D01*
X127323239Y-99858650D01*
X127353374Y-99759310D01*
X127363549Y-99656000D01*
X127363549Y-99556054D01*
X127373527Y-99574721D01*
X127545603Y-99784397D01*
X127755279Y-99956473D01*
X127994495Y-100084337D01*
X128254061Y-100163075D01*
X128456360Y-100183000D01*
X128591640Y-100183000D01*
X128793939Y-100163075D01*
X129053505Y-100084337D01*
X129292721Y-99956473D01*
X129502397Y-99784397D01*
X129674473Y-99574721D01*
X129794000Y-99351102D01*
X129913527Y-99574721D01*
X130085603Y-99784397D01*
X130295279Y-99956473D01*
X130441675Y-100034724D01*
X129203944Y-101272455D01*
X129141404Y-101298360D01*
X129038711Y-101366977D01*
X128951377Y-101454311D01*
X128882760Y-101557004D01*
X128835495Y-101671111D01*
X128811400Y-101792246D01*
X128811400Y-101915754D01*
X128835495Y-102036889D01*
X128882760Y-102150996D01*
X128951377Y-102253689D01*
X129038711Y-102341023D01*
X129141404Y-102409640D01*
X129255511Y-102456905D01*
X129376646Y-102481000D01*
X129500154Y-102481000D01*
X129621289Y-102456905D01*
X129735396Y-102409640D01*
X129838089Y-102341023D01*
X129925423Y-102253689D01*
X129994040Y-102150996D01*
X130019945Y-102088456D01*
X131607801Y-100500600D01*
X132166600Y-100500600D01*
X132166600Y-100600860D01*
X132163809Y-100629201D01*
X132174948Y-100742312D01*
X132206498Y-100846313D01*
X132207943Y-100851077D01*
X132261521Y-100951316D01*
X132264608Y-100955077D01*
X132315562Y-101017165D01*
X132315565Y-101017168D01*
X132333626Y-101039175D01*
X132355633Y-101057236D01*
X132419560Y-101121163D01*
X132437625Y-101143175D01*
X132525484Y-101215280D01*
X132625723Y-101268858D01*
X132734487Y-101301851D01*
X132819263Y-101310201D01*
X132819270Y-101310201D01*
X132847598Y-101312991D01*
X132875927Y-101310201D01*
X133011270Y-101310201D01*
X133039601Y-101312991D01*
X133067932Y-101310201D01*
X133067937Y-101310201D01*
X133097646Y-101307275D01*
X133152712Y-101301852D01*
X133200365Y-101287396D01*
X133261477Y-101268858D01*
X133361716Y-101215280D01*
X133449575Y-101143175D01*
X133467640Y-101121163D01*
X137039963Y-97548840D01*
X137061974Y-97530776D01*
X137134079Y-97442917D01*
X137154995Y-97403784D01*
X137207640Y-97324996D01*
X137254905Y-97210889D01*
X137279000Y-97089754D01*
X137279000Y-96966246D01*
X137254905Y-96845111D01*
X137207640Y-96731004D01*
X137139023Y-96628311D01*
X137051689Y-96540977D01*
X136948996Y-96472360D01*
X136834889Y-96425095D01*
X136713754Y-96401000D01*
X136590246Y-96401000D01*
X136469111Y-96425095D01*
X136355004Y-96472360D01*
X136252311Y-96540977D01*
X136164977Y-96628311D01*
X136096360Y-96731004D01*
X136049095Y-96845111D01*
X136033553Y-96923248D01*
X133320599Y-99636202D01*
X133320599Y-99311846D01*
X133323389Y-99283517D01*
X133320599Y-99255188D01*
X133320599Y-99255182D01*
X133312249Y-99170406D01*
X133279256Y-99061642D01*
X133225678Y-98961403D01*
X133153573Y-98873544D01*
X133131562Y-98855480D01*
X132694120Y-98418038D01*
X132676055Y-98396026D01*
X132588196Y-98323921D01*
X132487957Y-98270343D01*
X132423851Y-98250897D01*
X132379192Y-98237349D01*
X132324126Y-98231926D01*
X132318203Y-98231343D01*
X132214473Y-98037279D01*
X132067207Y-97857834D01*
X132069046Y-97858200D01*
X132192554Y-97858200D01*
X132313689Y-97834105D01*
X132427796Y-97786840D01*
X132530489Y-97718223D01*
X132617823Y-97630889D01*
X132686440Y-97528196D01*
X132733705Y-97414089D01*
X132757800Y-97292954D01*
X132757800Y-97169446D01*
X132733705Y-97048311D01*
X132686440Y-96934204D01*
X132617823Y-96831511D01*
X132530489Y-96744177D01*
X132427796Y-96675560D01*
X132314852Y-96628777D01*
X132252677Y-96595544D01*
X132188571Y-96576098D01*
X132143912Y-96562550D01*
X132088846Y-96557127D01*
X132059137Y-96554201D01*
X132059132Y-96554201D01*
X132030801Y-96551411D01*
X132002470Y-96554201D01*
X126737138Y-96554201D01*
X126708799Y-96551410D01*
X126595687Y-96562550D01*
X126486922Y-96595544D01*
X126461027Y-96609385D01*
X126386684Y-96649122D01*
X126298825Y-96721227D01*
X126280760Y-96743239D01*
X125597548Y-97426451D01*
X125134000Y-97426451D01*
X125030690Y-97436626D01*
X124931350Y-97466761D01*
X124839798Y-97515696D01*
X124759552Y-97581552D01*
X124693696Y-97661798D01*
X124644761Y-97753350D01*
X124614626Y-97852690D01*
X124604451Y-97956000D01*
X123258200Y-97956000D01*
X123258200Y-88460200D01*
X151722200Y-88460200D01*
X151722201Y-133637400D01*
X151722201Y-133637400D01*
G37*
X151722201Y-133637400D02*
X123258200Y-133637400D01*
X123258200Y-132424646D01*
X127084200Y-132424646D01*
X127084200Y-132548154D01*
X127108295Y-132669289D01*
X127155560Y-132783396D01*
X127224177Y-132886089D01*
X127311511Y-132973423D01*
X127414204Y-133042040D01*
X127528311Y-133089305D01*
X127649446Y-133113400D01*
X127772954Y-133113400D01*
X127894089Y-133089305D01*
X128008196Y-133042040D01*
X128110889Y-132973423D01*
X128173312Y-132911000D01*
X131351448Y-132911000D01*
X131379779Y-132913790D01*
X131408110Y-132911000D01*
X131408115Y-132911000D01*
X131437824Y-132908074D01*
X131492890Y-132902651D01*
X131537549Y-132889103D01*
X131601655Y-132869657D01*
X131701894Y-132816079D01*
X131789753Y-132743974D01*
X131807818Y-132721962D01*
X132229180Y-132300600D01*
X132243354Y-132300600D01*
X132364489Y-132276505D01*
X132478596Y-132229240D01*
X132581289Y-132160623D01*
X132668623Y-132073289D01*
X132737240Y-131970596D01*
X132784505Y-131856489D01*
X132808600Y-131735354D01*
X132808600Y-131611846D01*
X132784505Y-131490711D01*
X132737240Y-131376604D01*
X132668623Y-131273911D01*
X132581289Y-131186577D01*
X132478596Y-131117960D01*
X132364489Y-131070695D01*
X132243354Y-131046600D01*
X132119846Y-131046600D01*
X131998711Y-131070695D01*
X131885771Y-131117476D01*
X131862961Y-131124396D01*
X131818303Y-131137943D01*
X131718064Y-131191521D01*
X131630205Y-131263626D01*
X131612140Y-131285638D01*
X131140778Y-131757000D01*
X127891928Y-131757000D01*
X127863599Y-131754210D01*
X127835270Y-131757000D01*
X127835264Y-131757000D01*
X127750488Y-131765350D01*
X127641724Y-131798343D01*
X127541485Y-131851921D01*
X127477232Y-131904653D01*
X127414204Y-131930760D01*
X127311511Y-131999377D01*
X127224177Y-132086711D01*
X127155560Y-132189404D01*
X127108295Y-132303511D01*
X127084200Y-132424646D01*
X123258200Y-132424646D01*
X123258200Y-104038400D01*
X125607409Y-104038400D01*
X125610201Y-104066747D01*
X125610200Y-122602869D01*
X125607410Y-122631200D01*
X125618549Y-122744311D01*
X125633456Y-122793450D01*
X125651543Y-122853075D01*
X125705121Y-122953314D01*
X125777226Y-123041174D01*
X125799238Y-123059239D01*
X127892765Y-125152767D01*
X127910826Y-125174774D01*
X127932833Y-125192835D01*
X127932835Y-125192837D01*
X127952780Y-125209205D01*
X127998685Y-125246879D01*
X128098924Y-125300457D01*
X128207688Y-125333450D01*
X128292464Y-125341800D01*
X128292470Y-125341800D01*
X128320799Y-125344590D01*
X128349128Y-125341800D01*
X143631869Y-125341800D01*
X143660200Y-125344590D01*
X143688531Y-125341800D01*
X143688536Y-125341800D01*
X143718245Y-125338874D01*
X143773311Y-125333451D01*
X143817970Y-125319903D01*
X143882076Y-125300457D01*
X143982315Y-125246879D01*
X144070174Y-125174774D01*
X144088239Y-125152762D01*
X144709657Y-124531345D01*
X144772196Y-124505440D01*
X144874889Y-124436823D01*
X144962223Y-124349489D01*
X145030840Y-124246796D01*
X145078105Y-124132689D01*
X145102200Y-124011554D01*
X145102200Y-123888046D01*
X145078105Y-123766911D01*
X145030840Y-123652804D01*
X144962223Y-123550111D01*
X144874889Y-123462777D01*
X144772196Y-123394160D01*
X144658089Y-123346895D01*
X144536954Y-123322800D01*
X144413446Y-123322800D01*
X144292311Y-123346895D01*
X144178204Y-123394160D01*
X144075511Y-123462777D01*
X143988177Y-123550111D01*
X143919560Y-123652804D01*
X143893655Y-123715343D01*
X143421199Y-124187800D01*
X142958315Y-124187800D01*
X143025357Y-124075252D01*
X143122681Y-123800891D01*
X143002014Y-123571000D01*
X141808200Y-123571000D01*
X141808200Y-123591000D01*
X141554200Y-123591000D01*
X141554200Y-123571000D01*
X141534200Y-123571000D01*
X141534200Y-123317000D01*
X141554200Y-123317000D01*
X141554200Y-123297000D01*
X141808200Y-123297000D01*
X141808200Y-123317000D01*
X143002014Y-123317000D01*
X143122681Y-123087109D01*
X143025357Y-122812748D01*
X142876378Y-122562645D01*
X142681469Y-122346412D01*
X142589493Y-122277808D01*
X142634510Y-122273374D01*
X142733850Y-122243239D01*
X142825402Y-122194304D01*
X142905648Y-122128448D01*
X142971504Y-122048202D01*
X143020439Y-121956650D01*
X143050574Y-121857310D01*
X143060749Y-121754000D01*
X143060749Y-120054000D01*
X143050574Y-119950690D01*
X143020439Y-119851350D01*
X142971504Y-119759798D01*
X142905648Y-119679552D01*
X142825402Y-119613696D01*
X142733850Y-119564761D01*
X142634510Y-119534626D01*
X142531200Y-119524451D01*
X140831200Y-119524451D01*
X140727890Y-119534626D01*
X140628550Y-119564761D01*
X140536998Y-119613696D01*
X140456752Y-119679552D01*
X140390896Y-119759798D01*
X140341961Y-119851350D01*
X140311826Y-119950690D01*
X140301651Y-120054000D01*
X140301651Y-120153946D01*
X140291673Y-120135279D01*
X140119597Y-119925603D01*
X139909921Y-119753527D01*
X139670705Y-119625663D01*
X139411139Y-119546925D01*
X139208840Y-119527000D01*
X139073560Y-119527000D01*
X138871261Y-119546925D01*
X138611695Y-119625663D01*
X138372479Y-119753527D01*
X138162803Y-119925603D01*
X137990727Y-120135279D01*
X137871200Y-120358898D01*
X137751673Y-120135279D01*
X137579597Y-119925603D01*
X137369921Y-119753527D01*
X137130705Y-119625663D01*
X136924200Y-119563021D01*
X136924200Y-119168229D01*
X136950105Y-119105689D01*
X136974200Y-118984554D01*
X136974200Y-118861046D01*
X136950105Y-118739911D01*
X136902840Y-118625804D01*
X136834223Y-118523111D01*
X136746889Y-118435777D01*
X136644196Y-118367160D01*
X136530089Y-118319895D01*
X136408954Y-118295800D01*
X136285446Y-118295800D01*
X136164311Y-118319895D01*
X136060600Y-118362854D01*
X136060600Y-110525801D01*
X136784857Y-109801545D01*
X136847396Y-109775640D01*
X136950089Y-109707023D01*
X137037423Y-109619689D01*
X137106040Y-109516996D01*
X137153305Y-109402889D01*
X137177400Y-109281754D01*
X137177400Y-109158246D01*
X137157500Y-109058202D01*
X137204105Y-108945689D01*
X137228200Y-108824554D01*
X137228200Y-108701046D01*
X137204105Y-108579911D01*
X137156840Y-108465804D01*
X137088223Y-108363111D01*
X137000889Y-108275777D01*
X136898196Y-108207160D01*
X136784089Y-108159895D01*
X136662954Y-108135800D01*
X136539446Y-108135800D01*
X136418311Y-108159895D01*
X136304204Y-108207160D01*
X136201511Y-108275777D01*
X136142287Y-108335001D01*
X135071384Y-108335001D01*
X135056223Y-108312311D01*
X134968889Y-108224977D01*
X134866196Y-108156360D01*
X134752089Y-108109095D01*
X134630954Y-108085000D01*
X134507446Y-108085000D01*
X134386311Y-108109095D01*
X134323771Y-108135000D01*
X133886328Y-108135000D01*
X133857999Y-108132210D01*
X133829670Y-108135000D01*
X133829664Y-108135000D01*
X133744888Y-108143350D01*
X133636124Y-108176343D01*
X133535885Y-108229921D01*
X133514831Y-108247200D01*
X133470035Y-108283963D01*
X133470033Y-108283965D01*
X133448026Y-108302026D01*
X133429965Y-108324033D01*
X132865513Y-108888485D01*
X132834196Y-108867560D01*
X132809400Y-108857289D01*
X132809400Y-108852629D01*
X132835305Y-108790089D01*
X132859400Y-108668954D01*
X132859400Y-108545446D01*
X132835305Y-108424311D01*
X132788040Y-108310204D01*
X132719423Y-108207511D01*
X132632089Y-108120177D01*
X132529396Y-108051560D01*
X132415289Y-108004295D01*
X132294154Y-107980200D01*
X132170646Y-107980200D01*
X132049511Y-108004295D01*
X131935404Y-108051560D01*
X131832711Y-108120177D01*
X131745377Y-108207511D01*
X131676760Y-108310204D01*
X131629495Y-108424311D01*
X131605400Y-108545446D01*
X131605400Y-108668954D01*
X131629495Y-108790089D01*
X131650938Y-108841858D01*
X130117085Y-110375712D01*
X130095079Y-110393772D01*
X130077017Y-110415780D01*
X130077015Y-110415782D01*
X130070993Y-110423120D01*
X130022973Y-110481631D01*
X129969395Y-110581870D01*
X129959880Y-110613237D01*
X129936401Y-110690635D01*
X129931807Y-110737289D01*
X129928696Y-110768879D01*
X129925262Y-110803746D01*
X129928052Y-110832077D01*
X129928052Y-110876867D01*
X129925262Y-110905198D01*
X129928052Y-110933529D01*
X129928052Y-110933533D01*
X129929392Y-110947134D01*
X129936401Y-111018309D01*
X129952989Y-111072989D01*
X129969395Y-111127073D01*
X130022973Y-111227312D01*
X130095078Y-111315172D01*
X130117090Y-111333237D01*
X130782614Y-111998761D01*
X130800679Y-112020773D01*
X130888538Y-112092878D01*
X130949479Y-112125451D01*
X130988776Y-112146456D01*
X131097541Y-112179450D01*
X131210653Y-112190590D01*
X131238992Y-112187799D01*
X132708865Y-112187799D01*
X132737201Y-112190590D01*
X132765537Y-112187799D01*
X132850313Y-112179449D01*
X132959077Y-112146456D01*
X133059316Y-112092878D01*
X133147175Y-112020773D01*
X133219280Y-111932914D01*
X133272858Y-111832675D01*
X133305851Y-111723911D01*
X133316992Y-111610799D01*
X133314201Y-111582463D01*
X133314201Y-110732200D01*
X133849905Y-110196496D01*
X133877544Y-110207945D01*
X134093800Y-110424201D01*
X134093800Y-110701771D01*
X134067895Y-110764311D01*
X134043800Y-110885446D01*
X134043800Y-111008954D01*
X134067895Y-111130089D01*
X134115160Y-111244196D01*
X134183777Y-111346889D01*
X134271111Y-111434223D01*
X134373804Y-111502840D01*
X134487911Y-111550105D01*
X134500200Y-111552549D01*
X134500201Y-114460969D01*
X134474295Y-114523511D01*
X134450200Y-114644646D01*
X134450200Y-114768154D01*
X134474295Y-114889289D01*
X134521560Y-115003396D01*
X134590177Y-115106089D01*
X134677511Y-115193423D01*
X134780204Y-115262040D01*
X134894311Y-115309305D01*
X134906600Y-115311749D01*
X134906600Y-118193400D01*
X134191128Y-118193400D01*
X134162799Y-118190610D01*
X134134470Y-118193400D01*
X134134464Y-118193400D01*
X134049688Y-118201750D01*
X133940924Y-118234743D01*
X133840685Y-118288321D01*
X133752826Y-118360426D01*
X133734763Y-118382436D01*
X132454034Y-119663165D01*
X132432027Y-119681226D01*
X132413966Y-119703233D01*
X132413963Y-119703236D01*
X132390840Y-119731412D01*
X132359922Y-119769085D01*
X132315951Y-119851350D01*
X132306344Y-119869324D01*
X132273349Y-119978089D01*
X132262210Y-120091200D01*
X132265001Y-120119541D01*
X132265000Y-122196469D01*
X132262210Y-122224800D01*
X132273349Y-122337911D01*
X132292796Y-122402017D01*
X132306343Y-122446675D01*
X132359921Y-122546914D01*
X132432026Y-122634774D01*
X132454036Y-122652837D01*
X132767230Y-122966031D01*
X132704125Y-123174061D01*
X132677538Y-123444000D01*
X132704125Y-123713939D01*
X132782863Y-123973505D01*
X132897406Y-124187800D01*
X128559802Y-124187800D01*
X126764200Y-122392199D01*
X126764200Y-104615400D01*
X130589400Y-104615400D01*
X130589400Y-104658954D01*
X130613495Y-104780089D01*
X130660760Y-104894196D01*
X130729377Y-104996889D01*
X130816711Y-105084223D01*
X130919404Y-105152840D01*
X131033511Y-105200105D01*
X131154646Y-105224200D01*
X131278154Y-105224200D01*
X131399289Y-105200105D01*
X131461829Y-105174200D01*
X131998853Y-105174200D01*
X127323238Y-109849815D01*
X127301226Y-109867880D01*
X127229121Y-109955740D01*
X127175543Y-110055979D01*
X127167278Y-110083225D01*
X127142549Y-110164743D01*
X127137455Y-110216471D01*
X127135221Y-110239160D01*
X127131410Y-110277854D01*
X127134200Y-110306185D01*
X127134201Y-112225769D01*
X127108295Y-112288311D01*
X127084200Y-112409446D01*
X127084200Y-112532954D01*
X127108295Y-112654089D01*
X127155560Y-112768196D01*
X127224177Y-112870889D01*
X127311511Y-112958223D01*
X127414204Y-113026840D01*
X127528311Y-113074105D01*
X127649446Y-113098200D01*
X127772954Y-113098200D01*
X127894089Y-113074105D01*
X128008196Y-113026840D01*
X128110889Y-112958223D01*
X128198223Y-112870889D01*
X128266840Y-112768196D01*
X128314105Y-112654089D01*
X128338200Y-112532954D01*
X128338200Y-112409446D01*
X128314105Y-112288311D01*
X128288200Y-112225771D01*
X128288200Y-110516855D01*
X133224455Y-105580600D01*
X139352971Y-105580600D01*
X139415511Y-105606505D01*
X139536646Y-105630600D01*
X139660154Y-105630600D01*
X139781289Y-105606505D01*
X139895396Y-105559240D01*
X139968585Y-105510337D01*
X140007960Y-105605396D01*
X140076577Y-105708089D01*
X140163911Y-105795423D01*
X140266604Y-105864040D01*
X140380711Y-105911305D01*
X140501846Y-105935400D01*
X140625354Y-105935400D01*
X140746489Y-105911305D01*
X140860596Y-105864040D01*
X140963289Y-105795423D01*
X141050623Y-105708089D01*
X141116098Y-105610099D01*
X142269399Y-106763400D01*
X139793029Y-106763400D01*
X139730489Y-106737495D01*
X139609354Y-106713400D01*
X139485846Y-106713400D01*
X139364711Y-106737495D01*
X139250604Y-106784760D01*
X139215536Y-106808191D01*
X139212889Y-106807095D01*
X139091754Y-106783000D01*
X138968246Y-106783000D01*
X138847111Y-106807095D01*
X138733004Y-106854360D01*
X138630311Y-106922977D01*
X138542977Y-107010311D01*
X138474360Y-107113004D01*
X138427095Y-107227111D01*
X138403000Y-107348246D01*
X138403000Y-107471754D01*
X138427095Y-107592889D01*
X138463001Y-107679573D01*
X138463000Y-110934571D01*
X138437095Y-110997111D01*
X138413000Y-111118246D01*
X138413000Y-111241754D01*
X138437095Y-111362889D01*
X138484360Y-111476996D01*
X138552977Y-111579689D01*
X138640311Y-111667023D01*
X138743004Y-111735640D01*
X138857111Y-111782905D01*
X138978246Y-111807000D01*
X139101754Y-111807000D01*
X139222889Y-111782905D01*
X139336996Y-111735640D01*
X139439689Y-111667023D01*
X139527023Y-111579689D01*
X139595640Y-111476996D01*
X139609092Y-111444521D01*
X139618711Y-111448505D01*
X139739846Y-111472600D01*
X139863354Y-111472600D01*
X139984489Y-111448505D01*
X140047029Y-111422600D01*
X140426199Y-111422600D01*
X140794855Y-111791256D01*
X140820760Y-111853796D01*
X140889377Y-111956489D01*
X140976711Y-112043823D01*
X141079404Y-112112440D01*
X141193511Y-112159705D01*
X141314646Y-112183800D01*
X141438154Y-112183800D01*
X141559289Y-112159705D01*
X141673396Y-112112440D01*
X141776089Y-112043823D01*
X141863423Y-111956489D01*
X141932040Y-111853796D01*
X141979305Y-111739689D01*
X142003400Y-111618554D01*
X142003400Y-111495046D01*
X141979305Y-111373911D01*
X141932040Y-111259804D01*
X141863423Y-111157111D01*
X141776089Y-111069777D01*
X141673396Y-111001160D01*
X141610856Y-110975255D01*
X141093239Y-110457638D01*
X141075174Y-110435626D01*
X140987315Y-110363521D01*
X140887076Y-110309943D01*
X140822970Y-110290497D01*
X140778311Y-110276949D01*
X140721182Y-110271323D01*
X140693536Y-110268600D01*
X140693531Y-110268600D01*
X140665200Y-110265810D01*
X140636869Y-110268600D01*
X140047029Y-110268600D01*
X139984489Y-110242695D01*
X139863354Y-110218600D01*
X139739846Y-110218600D01*
X139618711Y-110242695D01*
X139617000Y-110243404D01*
X139617000Y-107965879D01*
X139730489Y-107943305D01*
X139793029Y-107917400D01*
X142069400Y-107917400D01*
X142069401Y-110600169D01*
X142043495Y-110662711D01*
X142019400Y-110783846D01*
X142019400Y-110907354D01*
X142043495Y-111028489D01*
X142090760Y-111142596D01*
X142159377Y-111245289D01*
X142246711Y-111332623D01*
X142349404Y-111401240D01*
X142463511Y-111448505D01*
X142584646Y-111472600D01*
X142708154Y-111472600D01*
X142829289Y-111448505D01*
X142943396Y-111401240D01*
X143046089Y-111332623D01*
X143133423Y-111245289D01*
X143202040Y-111142596D01*
X143249305Y-111028489D01*
X143273400Y-110907354D01*
X143273400Y-110783846D01*
X143249305Y-110662711D01*
X143223400Y-110600171D01*
X143223400Y-109851001D01*
X145062055Y-111689656D01*
X145087960Y-111752196D01*
X145156577Y-111854889D01*
X145243911Y-111942223D01*
X145346604Y-112010840D01*
X145460711Y-112058105D01*
X145581846Y-112082200D01*
X145705354Y-112082200D01*
X145826489Y-112058105D01*
X145940596Y-112010840D01*
X146043289Y-111942223D01*
X146130623Y-111854889D01*
X146199240Y-111752196D01*
X146246505Y-111638089D01*
X146270600Y-111516954D01*
X146270600Y-111393446D01*
X146246505Y-111272311D01*
X146199240Y-111158204D01*
X146130623Y-111055511D01*
X146043289Y-110968177D01*
X145940596Y-110899560D01*
X145878056Y-110873655D01*
X143684037Y-108679636D01*
X143665974Y-108657626D01*
X143578115Y-108585521D01*
X143477876Y-108531943D01*
X143426600Y-108516389D01*
X143426600Y-107505014D01*
X143971557Y-108049971D01*
X143990405Y-108072937D01*
X144082071Y-108148166D01*
X144186652Y-108204066D01*
X144300130Y-108238489D01*
X144388576Y-108247200D01*
X144388585Y-108247200D01*
X144418142Y-108250111D01*
X144447698Y-108247200D01*
X144733845Y-108247200D01*
X146661856Y-110175212D01*
X146662760Y-110177396D01*
X146731377Y-110280089D01*
X146818711Y-110367423D01*
X146921404Y-110436040D01*
X147035511Y-110483305D01*
X147156646Y-110507400D01*
X147280154Y-110507400D01*
X147401289Y-110483305D01*
X147515396Y-110436040D01*
X147555972Y-110408928D01*
X147779455Y-110632411D01*
X147780360Y-110634596D01*
X147848977Y-110737289D01*
X147936311Y-110824623D01*
X148029932Y-110887178D01*
X147949911Y-110903095D01*
X147943332Y-110905820D01*
X147873367Y-110912711D01*
X147759889Y-110947134D01*
X147655308Y-111003034D01*
X147652181Y-111005600D01*
X146943156Y-111005600D01*
X146913599Y-111002689D01*
X146884043Y-111005600D01*
X146884034Y-111005600D01*
X146795588Y-111014311D01*
X146682110Y-111048734D01*
X146577529Y-111104634D01*
X146485863Y-111179863D01*
X146467011Y-111202834D01*
X146458034Y-111211811D01*
X146435063Y-111230663D01*
X146359834Y-111322330D01*
X146303934Y-111426911D01*
X146269511Y-111540389D01*
X146260800Y-111628835D01*
X146260800Y-111628844D01*
X146257889Y-111658400D01*
X146260800Y-111687956D01*
X146260801Y-115537324D01*
X146259895Y-115539511D01*
X146235800Y-115660646D01*
X146235800Y-115784154D01*
X146259895Y-115905289D01*
X146307160Y-116019396D01*
X146375777Y-116122089D01*
X146463111Y-116209423D01*
X146565804Y-116278040D01*
X146679911Y-116325305D01*
X146801046Y-116349400D01*
X146924554Y-116349400D01*
X147045689Y-116325305D01*
X147159796Y-116278040D01*
X147262489Y-116209423D01*
X147349823Y-116122089D01*
X147418440Y-116019396D01*
X147465705Y-115905289D01*
X147489800Y-115784154D01*
X147489800Y-115660646D01*
X147465705Y-115539511D01*
X147464800Y-115537326D01*
X147464800Y-113228801D01*
X148821255Y-114585256D01*
X148847160Y-114647796D01*
X148915777Y-114750489D01*
X149003111Y-114837823D01*
X149105804Y-114906440D01*
X149219911Y-114953705D01*
X149341046Y-114977800D01*
X149464554Y-114977800D01*
X149585689Y-114953705D01*
X149699796Y-114906440D01*
X149802489Y-114837823D01*
X149889823Y-114750489D01*
X149958440Y-114647796D01*
X150005705Y-114533689D01*
X150029800Y-114412554D01*
X150029800Y-114289046D01*
X150005705Y-114167911D01*
X149958440Y-114053804D01*
X149889823Y-113951111D01*
X149802489Y-113863777D01*
X149699796Y-113795160D01*
X149637256Y-113769255D01*
X148303400Y-112435399D01*
X148303400Y-112157829D01*
X148325317Y-112104917D01*
X148429796Y-112061640D01*
X148532489Y-111993023D01*
X148619823Y-111905689D01*
X148688440Y-111802996D01*
X148735705Y-111688889D01*
X148759800Y-111567754D01*
X148759800Y-111444246D01*
X148735705Y-111323111D01*
X148688440Y-111209004D01*
X148619823Y-111106311D01*
X148532489Y-111018977D01*
X148438868Y-110956422D01*
X148518889Y-110940505D01*
X148632996Y-110893240D01*
X148735689Y-110824623D01*
X148775000Y-110785312D01*
X148775000Y-110873669D01*
X148772210Y-110902000D01*
X148775000Y-110930331D01*
X148775000Y-110930335D01*
X148775315Y-110933533D01*
X148783349Y-111015111D01*
X148799933Y-111069777D01*
X148816343Y-111123875D01*
X148869921Y-111224114D01*
X148942026Y-111311974D01*
X148964038Y-111330039D01*
X149528455Y-111894456D01*
X149554360Y-111956996D01*
X149622977Y-112059689D01*
X149710311Y-112147023D01*
X149813004Y-112215640D01*
X149927111Y-112262905D01*
X150048246Y-112287000D01*
X150171754Y-112287000D01*
X150292889Y-112262905D01*
X150406996Y-112215640D01*
X150509689Y-112147023D01*
X150597023Y-112059689D01*
X150665640Y-111956996D01*
X150712905Y-111842889D01*
X150737000Y-111721754D01*
X150737000Y-111598246D01*
X150712905Y-111477111D01*
X150665640Y-111363004D01*
X150597023Y-111260311D01*
X150509689Y-111172977D01*
X150406996Y-111104360D01*
X150344456Y-111078455D01*
X149929000Y-110662999D01*
X149929000Y-110365931D01*
X149931790Y-110337600D01*
X149928854Y-110307777D01*
X149925817Y-110276949D01*
X149920651Y-110224488D01*
X149900137Y-110156864D01*
X149887657Y-110115724D01*
X149834079Y-110015485D01*
X149761974Y-109927626D01*
X149739962Y-109909561D01*
X146987145Y-107156744D01*
X146961240Y-107094204D01*
X146892623Y-106991511D01*
X146805289Y-106904177D01*
X146702596Y-106835560D01*
X146588489Y-106788295D01*
X146467354Y-106764200D01*
X146343846Y-106764200D01*
X146222711Y-106788295D01*
X146194800Y-106799856D01*
X146194800Y-106760366D01*
X146197712Y-106730800D01*
X146186089Y-106612788D01*
X146151666Y-106499310D01*
X146095766Y-106394729D01*
X146020537Y-106303063D01*
X145928871Y-106227834D01*
X145824290Y-106171934D01*
X145710812Y-106137511D01*
X145622366Y-106128800D01*
X145592800Y-106125888D01*
X145563234Y-106128800D01*
X144035955Y-106128800D01*
X143843355Y-105936200D01*
X145505744Y-105936200D01*
X145549804Y-105965640D01*
X145663911Y-106012905D01*
X145785046Y-106037000D01*
X145908554Y-106037000D01*
X146029689Y-106012905D01*
X146143796Y-105965640D01*
X146246489Y-105897023D01*
X146333823Y-105809689D01*
X146402440Y-105706996D01*
X146449705Y-105592889D01*
X146473800Y-105471754D01*
X146473800Y-105348246D01*
X146449705Y-105227111D01*
X146402440Y-105113004D01*
X146333823Y-105010311D01*
X146246489Y-104922977D01*
X146143796Y-104854360D01*
X146029689Y-104807095D01*
X145908554Y-104783000D01*
X145832458Y-104783000D01*
X145824336Y-104782200D01*
X145824331Y-104782200D01*
X145796000Y-104779410D01*
X145767669Y-104782200D01*
X143995353Y-104782200D01*
X143964040Y-104706604D01*
X143895423Y-104603911D01*
X143808089Y-104516577D01*
X143705396Y-104447960D01*
X143642856Y-104422055D01*
X143579000Y-104358199D01*
X143579000Y-102942201D01*
X143792055Y-103155256D01*
X143817960Y-103217796D01*
X143886577Y-103320489D01*
X143973911Y-103407823D01*
X144076604Y-103476440D01*
X144190711Y-103523705D01*
X144311846Y-103547800D01*
X144435354Y-103547800D01*
X144556489Y-103523705D01*
X144670596Y-103476440D01*
X144773289Y-103407823D01*
X144860623Y-103320489D01*
X144929240Y-103217796D01*
X144976505Y-103103689D01*
X145000600Y-102982554D01*
X145000600Y-102859046D01*
X144976505Y-102737911D01*
X144929240Y-102623804D01*
X144908314Y-102592487D01*
X146056302Y-101444499D01*
X146121777Y-101542489D01*
X146209111Y-101629823D01*
X146311804Y-101698440D01*
X146425911Y-101745705D01*
X146547046Y-101769800D01*
X146670554Y-101769800D01*
X146791689Y-101745705D01*
X146905796Y-101698440D01*
X147008489Y-101629823D01*
X147095823Y-101542489D01*
X147113121Y-101516600D01*
X148039771Y-101516600D01*
X148102311Y-101542505D01*
X148223446Y-101566600D01*
X148346954Y-101566600D01*
X148468089Y-101542505D01*
X148582196Y-101495240D01*
X148684889Y-101426623D01*
X148772223Y-101339289D01*
X148840840Y-101236596D01*
X148888105Y-101122489D01*
X148912200Y-101001354D01*
X148912200Y-100877846D01*
X148888105Y-100756711D01*
X148840840Y-100642604D01*
X148780958Y-100552984D01*
X148793200Y-100554190D01*
X148821531Y-100551400D01*
X148821536Y-100551400D01*
X148851245Y-100548474D01*
X148906311Y-100543051D01*
X148950970Y-100529503D01*
X149015076Y-100510057D01*
X149115315Y-100456479D01*
X149203174Y-100384374D01*
X149221239Y-100362362D01*
X149483631Y-100099970D01*
X149691661Y-100163075D01*
X149893960Y-100183000D01*
X150029240Y-100183000D01*
X150231539Y-100163075D01*
X150491105Y-100084337D01*
X150730321Y-99956473D01*
X150939997Y-99784397D01*
X151112073Y-99574721D01*
X151239937Y-99335505D01*
X151318675Y-99075939D01*
X151345262Y-98806000D01*
X151318675Y-98536061D01*
X151239937Y-98276495D01*
X151112073Y-98037279D01*
X150939997Y-97827603D01*
X150730321Y-97655527D01*
X150491105Y-97527663D01*
X150231539Y-97448925D01*
X150029240Y-97429000D01*
X149893960Y-97429000D01*
X149691661Y-97448925D01*
X149483631Y-97512030D01*
X148865639Y-96894038D01*
X148847574Y-96872026D01*
X148759715Y-96799921D01*
X148659476Y-96746343D01*
X148595370Y-96726897D01*
X148550711Y-96713349D01*
X148495645Y-96707926D01*
X148465936Y-96705000D01*
X148465931Y-96705000D01*
X148437600Y-96702210D01*
X148409269Y-96705000D01*
X144300339Y-96705000D01*
X144272000Y-96702209D01*
X144158888Y-96713349D01*
X144050123Y-96746343D01*
X144024228Y-96760184D01*
X143949885Y-96799921D01*
X143862026Y-96872026D01*
X143843961Y-96894038D01*
X140429400Y-100308599D01*
X140429400Y-99762629D01*
X140455305Y-99700089D01*
X140479400Y-99578954D01*
X140479400Y-99455446D01*
X140455305Y-99334311D01*
X140408040Y-99220204D01*
X140339423Y-99117511D01*
X140252089Y-99030177D01*
X140149396Y-98961560D01*
X140035289Y-98914295D01*
X139914154Y-98890200D01*
X139790646Y-98890200D01*
X139669511Y-98914295D01*
X139555404Y-98961560D01*
X139452711Y-99030177D01*
X139365377Y-99117511D01*
X139296760Y-99220204D01*
X139249495Y-99334311D01*
X139225400Y-99455446D01*
X139225400Y-99578954D01*
X139249495Y-99700089D01*
X139275400Y-99762629D01*
X139275401Y-101937400D01*
X137552737Y-101937400D01*
X137524398Y-101934609D01*
X137411286Y-101945749D01*
X137347180Y-101965196D01*
X137302522Y-101978743D01*
X137202283Y-102032321D01*
X137114424Y-102104426D01*
X137096361Y-102126436D01*
X136624997Y-102597800D01*
X136426328Y-102597800D01*
X136397999Y-102595010D01*
X136369671Y-102597800D01*
X136369664Y-102597800D01*
X136284888Y-102606150D01*
X136176124Y-102639143D01*
X136075885Y-102692721D01*
X135988026Y-102764826D01*
X135969963Y-102786836D01*
X135908438Y-102848361D01*
X135886426Y-102866426D01*
X135814321Y-102954286D01*
X135760743Y-103054525D01*
X135758570Y-103061689D01*
X135727749Y-103163289D01*
X135722381Y-103217796D01*
X135719908Y-103242914D01*
X135716610Y-103276400D01*
X135719400Y-103304731D01*
X135719400Y-103461400D01*
X126215536Y-103461400D01*
X126187200Y-103458609D01*
X126158864Y-103461400D01*
X126074088Y-103469750D01*
X125965324Y-103502743D01*
X125865085Y-103556321D01*
X125777226Y-103628426D01*
X125705121Y-103716285D01*
X125651543Y-103816524D01*
X125618550Y-103925288D01*
X125607409Y-104038400D01*
X123258200Y-104038400D01*
X123258200Y-97956000D01*
X124604451Y-97956000D01*
X124604451Y-99656000D01*
X124614626Y-99759310D01*
X124644761Y-99858650D01*
X124693696Y-99950202D01*
X124759552Y-100030448D01*
X124839798Y-100096304D01*
X124931350Y-100145239D01*
X125030690Y-100175374D01*
X125134000Y-100185549D01*
X126834000Y-100185549D01*
X126937310Y-100175374D01*
X127036650Y-100145239D01*
X127128202Y-100096304D01*
X127208448Y-100030448D01*
X127274304Y-99950202D01*
X127323239Y-99858650D01*
X127353374Y-99759310D01*
X127363549Y-99656000D01*
X127363549Y-99556054D01*
X127373527Y-99574721D01*
X127545603Y-99784397D01*
X127755279Y-99956473D01*
X127994495Y-100084337D01*
X128254061Y-100163075D01*
X128456360Y-100183000D01*
X128591640Y-100183000D01*
X128793939Y-100163075D01*
X129053505Y-100084337D01*
X129292721Y-99956473D01*
X129502397Y-99784397D01*
X129674473Y-99574721D01*
X129794000Y-99351102D01*
X129913527Y-99574721D01*
X130085603Y-99784397D01*
X130295279Y-99956473D01*
X130441675Y-100034724D01*
X129203944Y-101272455D01*
X129141404Y-101298360D01*
X129038711Y-101366977D01*
X128951377Y-101454311D01*
X128882760Y-101557004D01*
X128835495Y-101671111D01*
X128811400Y-101792246D01*
X128811400Y-101915754D01*
X128835495Y-102036889D01*
X128882760Y-102150996D01*
X128951377Y-102253689D01*
X129038711Y-102341023D01*
X129141404Y-102409640D01*
X129255511Y-102456905D01*
X129376646Y-102481000D01*
X129500154Y-102481000D01*
X129621289Y-102456905D01*
X129735396Y-102409640D01*
X129838089Y-102341023D01*
X129925423Y-102253689D01*
X129994040Y-102150996D01*
X130019945Y-102088456D01*
X131607801Y-100500600D01*
X132166600Y-100500600D01*
X132166600Y-100600860D01*
X132163809Y-100629201D01*
X132174948Y-100742312D01*
X132206498Y-100846313D01*
X132207943Y-100851077D01*
X132261521Y-100951316D01*
X132264608Y-100955077D01*
X132315562Y-101017165D01*
X132315565Y-101017168D01*
X132333626Y-101039175D01*
X132355633Y-101057236D01*
X132419560Y-101121163D01*
X132437625Y-101143175D01*
X132525484Y-101215280D01*
X132625723Y-101268858D01*
X132734487Y-101301851D01*
X132819263Y-101310201D01*
X132819270Y-101310201D01*
X132847598Y-101312991D01*
X132875927Y-101310201D01*
X133011270Y-101310201D01*
X133039601Y-101312991D01*
X133067932Y-101310201D01*
X133067937Y-101310201D01*
X133097646Y-101307275D01*
X133152712Y-101301852D01*
X133200365Y-101287396D01*
X133261477Y-101268858D01*
X133361716Y-101215280D01*
X133449575Y-101143175D01*
X133467640Y-101121163D01*
X137039963Y-97548840D01*
X137061974Y-97530776D01*
X137134079Y-97442917D01*
X137154995Y-97403784D01*
X137207640Y-97324996D01*
X137254905Y-97210889D01*
X137279000Y-97089754D01*
X137279000Y-96966246D01*
X137254905Y-96845111D01*
X137207640Y-96731004D01*
X137139023Y-96628311D01*
X137051689Y-96540977D01*
X136948996Y-96472360D01*
X136834889Y-96425095D01*
X136713754Y-96401000D01*
X136590246Y-96401000D01*
X136469111Y-96425095D01*
X136355004Y-96472360D01*
X136252311Y-96540977D01*
X136164977Y-96628311D01*
X136096360Y-96731004D01*
X136049095Y-96845111D01*
X136033553Y-96923248D01*
X133320599Y-99636202D01*
X133320599Y-99311846D01*
X133323389Y-99283517D01*
X133320599Y-99255188D01*
X133320599Y-99255182D01*
X133312249Y-99170406D01*
X133279256Y-99061642D01*
X133225678Y-98961403D01*
X133153573Y-98873544D01*
X133131562Y-98855480D01*
X132694120Y-98418038D01*
X132676055Y-98396026D01*
X132588196Y-98323921D01*
X132487957Y-98270343D01*
X132423851Y-98250897D01*
X132379192Y-98237349D01*
X132324126Y-98231926D01*
X132318203Y-98231343D01*
X132214473Y-98037279D01*
X132067207Y-97857834D01*
X132069046Y-97858200D01*
X132192554Y-97858200D01*
X132313689Y-97834105D01*
X132427796Y-97786840D01*
X132530489Y-97718223D01*
X132617823Y-97630889D01*
X132686440Y-97528196D01*
X132733705Y-97414089D01*
X132757800Y-97292954D01*
X132757800Y-97169446D01*
X132733705Y-97048311D01*
X132686440Y-96934204D01*
X132617823Y-96831511D01*
X132530489Y-96744177D01*
X132427796Y-96675560D01*
X132314852Y-96628777D01*
X132252677Y-96595544D01*
X132188571Y-96576098D01*
X132143912Y-96562550D01*
X132088846Y-96557127D01*
X132059137Y-96554201D01*
X132059132Y-96554201D01*
X132030801Y-96551411D01*
X132002470Y-96554201D01*
X126737138Y-96554201D01*
X126708799Y-96551410D01*
X126595687Y-96562550D01*
X126486922Y-96595544D01*
X126461027Y-96609385D01*
X126386684Y-96649122D01*
X126298825Y-96721227D01*
X126280760Y-96743239D01*
X125597548Y-97426451D01*
X125134000Y-97426451D01*
X125030690Y-97436626D01*
X124931350Y-97466761D01*
X124839798Y-97515696D01*
X124759552Y-97581552D01*
X124693696Y-97661798D01*
X124644761Y-97753350D01*
X124614626Y-97852690D01*
X124604451Y-97956000D01*
X123258200Y-97956000D01*
X123258200Y-88460200D01*
X151722200Y-88460200D01*
X151722201Y-133637400D01*
G36*
X140301651Y-121754000D02*
G01*
X140311826Y-121857310D01*
X140341961Y-121956650D01*
X140390896Y-122048202D01*
X140456752Y-122128448D01*
X140536998Y-122194304D01*
X140628550Y-122243239D01*
X140727890Y-122273374D01*
X140772907Y-122277808D01*
X140680931Y-122346412D01*
X140486022Y-122562645D01*
X140351858Y-122787877D01*
X140291673Y-122675279D01*
X140119597Y-122465603D01*
X139909921Y-122293527D01*
X139686302Y-122174000D01*
X139909921Y-122054473D01*
X140119597Y-121882397D01*
X140291673Y-121672721D01*
X140301651Y-121654054D01*
X140301651Y-121754000D01*
X140301651Y-121754000D01*
G37*
X140301651Y-121754000D02*
X140311826Y-121857310D01*
X140341961Y-121956650D01*
X140390896Y-122048202D01*
X140456752Y-122128448D01*
X140536998Y-122194304D01*
X140628550Y-122243239D01*
X140727890Y-122273374D01*
X140772907Y-122277808D01*
X140680931Y-122346412D01*
X140486022Y-122562645D01*
X140351858Y-122787877D01*
X140291673Y-122675279D01*
X140119597Y-122465603D01*
X139909921Y-122293527D01*
X139686302Y-122174000D01*
X139909921Y-122054473D01*
X140119597Y-121882397D01*
X140291673Y-121672721D01*
X140301651Y-121654054D01*
X140301651Y-121754000D01*
M02*
