%TF.GenerationSoftware,KiCad,Pcbnew,(5.1.2)-1*%
%TF.CreationDate,2022-05-17T10:19:51-05:00*%
%TF.ProjectId,aducm_board,61647563-6d5f-4626-9f61-72642e6b6963,1.6*%
%TF.SameCoordinates,Original*%
%TF.FileFunction,Legend,Top*%
%TF.FilePolarity,Positive*%
%FSLAX46Y46*%
G04 Gerber Fmt 4.6, Leading zero omitted, Abs format (unit mm)*
G04 Created by KiCad (PCBNEW (5.1.2)-1) date 2022-05-17 10:19:51*
%MOMM*%
%LPD*%
G04 APERTURE LIST*
%ADD10C,0.050000*%
%ADD11C,0.120000*%
%ADD12C,0.150000*%
%ADD13C,0.050800*%
G04 APERTURE END LIST*
D10*
X145592857Y-136206190D02*
X145307142Y-136206190D01*
X145450000Y-136206190D02*
X145450000Y-135706190D01*
X145402380Y-135777619D01*
X145354761Y-135825238D01*
X145307142Y-135849047D01*
X133367857Y-123276190D02*
X133082142Y-123276190D01*
X133225000Y-123276190D02*
X133225000Y-122776190D01*
X133177380Y-122847619D01*
X133129761Y-122895238D01*
X133082142Y-122919047D01*
X150616190Y-109926190D02*
X151116190Y-109759523D01*
X150616190Y-109592857D01*
X150854285Y-109259523D02*
X150878095Y-109188095D01*
X150901904Y-109164285D01*
X150949523Y-109140476D01*
X151020952Y-109140476D01*
X151068571Y-109164285D01*
X151092380Y-109188095D01*
X151116190Y-109235714D01*
X151116190Y-109426190D01*
X150616190Y-109426190D01*
X150616190Y-109259523D01*
X150640000Y-109211904D01*
X150663809Y-109188095D01*
X150711428Y-109164285D01*
X150759047Y-109164285D01*
X150806666Y-109188095D01*
X150830476Y-109211904D01*
X150854285Y-109259523D01*
X150854285Y-109426190D01*
X151116190Y-108926190D02*
X150616190Y-108926190D01*
X150973333Y-108711904D02*
X150973333Y-108473809D01*
X151116190Y-108759523D02*
X150616190Y-108592857D01*
X151116190Y-108426190D01*
X151092380Y-108283333D02*
X151116190Y-108211904D01*
X151116190Y-108092857D01*
X151092380Y-108045238D01*
X151068571Y-108021428D01*
X151020952Y-107997619D01*
X150973333Y-107997619D01*
X150925714Y-108021428D01*
X150901904Y-108045238D01*
X150878095Y-108092857D01*
X150854285Y-108188095D01*
X150830476Y-108235714D01*
X150806666Y-108259523D01*
X150759047Y-108283333D01*
X150711428Y-108283333D01*
X150663809Y-108259523D01*
X150640000Y-108235714D01*
X150616190Y-108188095D01*
X150616190Y-108069047D01*
X150640000Y-107997619D01*
X151116190Y-107521428D02*
X151116190Y-107807142D01*
X151116190Y-107664285D02*
X150616190Y-107664285D01*
X150687619Y-107711904D01*
X150735238Y-107759523D01*
X150759047Y-107807142D01*
X149758571Y-109569047D02*
X149782380Y-109592857D01*
X149806190Y-109664285D01*
X149806190Y-109711904D01*
X149782380Y-109783333D01*
X149734761Y-109830952D01*
X149687142Y-109854762D01*
X149591904Y-109878571D01*
X149520476Y-109878571D01*
X149425238Y-109854762D01*
X149377619Y-109830952D01*
X149330000Y-109783333D01*
X149306190Y-109711904D01*
X149306190Y-109664285D01*
X149330000Y-109592857D01*
X149353809Y-109569047D01*
X149544285Y-109354762D02*
X149544285Y-109188095D01*
X149806190Y-109116666D02*
X149806190Y-109354762D01*
X149306190Y-109354762D01*
X149306190Y-109116666D01*
X149806190Y-108640476D02*
X149806190Y-108926190D01*
X149806190Y-108783333D02*
X149306190Y-108783333D01*
X149377619Y-108830952D01*
X149425238Y-108878571D01*
X149449047Y-108926190D01*
X148476190Y-109569047D02*
X148238095Y-109735714D01*
X148476190Y-109854762D02*
X147976190Y-109854762D01*
X147976190Y-109664285D01*
X148000000Y-109616666D01*
X148023809Y-109592857D01*
X148071428Y-109569047D01*
X148142857Y-109569047D01*
X148190476Y-109592857D01*
X148214285Y-109616666D01*
X148238095Y-109664285D01*
X148238095Y-109854762D01*
X148214285Y-109354762D02*
X148214285Y-109188095D01*
X148476190Y-109116666D02*
X148476190Y-109354762D01*
X147976190Y-109354762D01*
X147976190Y-109116666D01*
X148476190Y-108640476D02*
X148476190Y-108926190D01*
X148476190Y-108783333D02*
X147976190Y-108783333D01*
X148047619Y-108830952D01*
X148095238Y-108878571D01*
X148119047Y-108926190D01*
X146716190Y-109926190D02*
X147216190Y-109759523D01*
X146716190Y-109592857D01*
X146716190Y-109473809D02*
X146716190Y-109140476D01*
X147216190Y-109473809D01*
X147216190Y-109140476D01*
X146954285Y-108949999D02*
X146954285Y-108783333D01*
X147216190Y-108711904D02*
X147216190Y-108949999D01*
X146716190Y-108949999D01*
X146716190Y-108711904D01*
X147216190Y-108211904D02*
X146978095Y-108378571D01*
X147216190Y-108497618D02*
X146716190Y-108497618D01*
X146716190Y-108307142D01*
X146740000Y-108259523D01*
X146763809Y-108235714D01*
X146811428Y-108211904D01*
X146882857Y-108211904D01*
X146930476Y-108235714D01*
X146954285Y-108259523D01*
X146978095Y-108307142D01*
X146978095Y-108497618D01*
X146716190Y-107902380D02*
X146716190Y-107807142D01*
X146740000Y-107759523D01*
X146787619Y-107711904D01*
X146882857Y-107688095D01*
X147049523Y-107688095D01*
X147144761Y-107711904D01*
X147192380Y-107759523D01*
X147216190Y-107807142D01*
X147216190Y-107902380D01*
X147192380Y-107949999D01*
X147144761Y-107997618D01*
X147049523Y-108021428D01*
X146882857Y-108021428D01*
X146787619Y-107997618D01*
X146740000Y-107949999D01*
X146716190Y-107902380D01*
X147216190Y-107211904D02*
X147216190Y-107497618D01*
X147216190Y-107354761D02*
X146716190Y-107354761D01*
X146787619Y-107402380D01*
X146835238Y-107449999D01*
X146859047Y-107497618D01*
X145316190Y-109902380D02*
X145816190Y-109783332D01*
X145459047Y-109688094D01*
X145816190Y-109592856D01*
X145316190Y-109473809D01*
X145554285Y-109283332D02*
X145554285Y-109116666D01*
X145816190Y-109045237D02*
X145816190Y-109283332D01*
X145316190Y-109283332D01*
X145316190Y-109045237D01*
X145816190Y-108569047D02*
X145816190Y-108854761D01*
X145816190Y-108711904D02*
X145316190Y-108711904D01*
X145387619Y-108759523D01*
X145435238Y-108807142D01*
X145459047Y-108854761D01*
X137166190Y-109902380D02*
X137666190Y-109783332D01*
X137309047Y-109688094D01*
X137666190Y-109592856D01*
X137166190Y-109473809D01*
X137404285Y-109283332D02*
X137404285Y-109116666D01*
X137666190Y-109045237D02*
X137666190Y-109283332D01*
X137166190Y-109283332D01*
X137166190Y-109045237D01*
X137166190Y-108735713D02*
X137166190Y-108688094D01*
X137190000Y-108640475D01*
X137213809Y-108616666D01*
X137261428Y-108592856D01*
X137356666Y-108569047D01*
X137475714Y-108569047D01*
X137570952Y-108592856D01*
X137618571Y-108616666D01*
X137642380Y-108640475D01*
X137666190Y-108688094D01*
X137666190Y-108735713D01*
X137642380Y-108783332D01*
X137618571Y-108807142D01*
X137570952Y-108830951D01*
X137475714Y-108854761D01*
X137356666Y-108854761D01*
X137261428Y-108830951D01*
X137213809Y-108807142D01*
X137190000Y-108783332D01*
X137166190Y-108735713D01*
X135106190Y-109569047D02*
X134868095Y-109735714D01*
X135106190Y-109854762D02*
X134606190Y-109854762D01*
X134606190Y-109664285D01*
X134630000Y-109616666D01*
X134653809Y-109592857D01*
X134701428Y-109569047D01*
X134772857Y-109569047D01*
X134820476Y-109592857D01*
X134844285Y-109616666D01*
X134868095Y-109664285D01*
X134868095Y-109854762D01*
X134844285Y-109354762D02*
X134844285Y-109188095D01*
X135106190Y-109116666D02*
X135106190Y-109354762D01*
X134606190Y-109354762D01*
X134606190Y-109116666D01*
X134606190Y-108807143D02*
X134606190Y-108759524D01*
X134630000Y-108711904D01*
X134653809Y-108688095D01*
X134701428Y-108664285D01*
X134796666Y-108640476D01*
X134915714Y-108640476D01*
X135010952Y-108664285D01*
X135058571Y-108688095D01*
X135082380Y-108711904D01*
X135106190Y-108759524D01*
X135106190Y-108807143D01*
X135082380Y-108854762D01*
X135058571Y-108878571D01*
X135010952Y-108902381D01*
X134915714Y-108926190D01*
X134796666Y-108926190D01*
X134701428Y-108902381D01*
X134653809Y-108878571D01*
X134630000Y-108854762D01*
X134606190Y-108807143D01*
X133668571Y-109569047D02*
X133692380Y-109592857D01*
X133716190Y-109664285D01*
X133716190Y-109711904D01*
X133692380Y-109783333D01*
X133644761Y-109830952D01*
X133597142Y-109854762D01*
X133501904Y-109878571D01*
X133430476Y-109878571D01*
X133335238Y-109854762D01*
X133287619Y-109830952D01*
X133240000Y-109783333D01*
X133216190Y-109711904D01*
X133216190Y-109664285D01*
X133240000Y-109592857D01*
X133263809Y-109569047D01*
X133454285Y-109354762D02*
X133454285Y-109188095D01*
X133716190Y-109116666D02*
X133716190Y-109354762D01*
X133216190Y-109354762D01*
X133216190Y-109116666D01*
X133216190Y-108807143D02*
X133216190Y-108759524D01*
X133240000Y-108711904D01*
X133263809Y-108688095D01*
X133311428Y-108664285D01*
X133406666Y-108640476D01*
X133525714Y-108640476D01*
X133620952Y-108664285D01*
X133668571Y-108688095D01*
X133692380Y-108711904D01*
X133716190Y-108759524D01*
X133716190Y-108807143D01*
X133692380Y-108854762D01*
X133668571Y-108878571D01*
X133620952Y-108902381D01*
X133525714Y-108926190D01*
X133406666Y-108926190D01*
X133311428Y-108902381D01*
X133263809Y-108878571D01*
X133240000Y-108854762D01*
X133216190Y-108807143D01*
X131936190Y-109926190D02*
X132436190Y-109759523D01*
X131936190Y-109592857D01*
X132174285Y-109259523D02*
X132198095Y-109188095D01*
X132221904Y-109164285D01*
X132269523Y-109140476D01*
X132340952Y-109140476D01*
X132388571Y-109164285D01*
X132412380Y-109188095D01*
X132436190Y-109235714D01*
X132436190Y-109426190D01*
X131936190Y-109426190D01*
X131936190Y-109259523D01*
X131960000Y-109211904D01*
X131983809Y-109188095D01*
X132031428Y-109164285D01*
X132079047Y-109164285D01*
X132126666Y-109188095D01*
X132150476Y-109211904D01*
X132174285Y-109259523D01*
X132174285Y-109426190D01*
X132436190Y-108926190D02*
X131936190Y-108926190D01*
X132293333Y-108711904D02*
X132293333Y-108473809D01*
X132436190Y-108759523D02*
X131936190Y-108592857D01*
X132436190Y-108426190D01*
X132412380Y-108283333D02*
X132436190Y-108211904D01*
X132436190Y-108092857D01*
X132412380Y-108045238D01*
X132388571Y-108021428D01*
X132340952Y-107997619D01*
X132293333Y-107997619D01*
X132245714Y-108021428D01*
X132221904Y-108045238D01*
X132198095Y-108092857D01*
X132174285Y-108188095D01*
X132150476Y-108235714D01*
X132126666Y-108259523D01*
X132079047Y-108283333D01*
X132031428Y-108283333D01*
X131983809Y-108259523D01*
X131960000Y-108235714D01*
X131936190Y-108188095D01*
X131936190Y-108069047D01*
X131960000Y-107997619D01*
X131936190Y-107688095D02*
X131936190Y-107640476D01*
X131960000Y-107592857D01*
X131983809Y-107569047D01*
X132031428Y-107545238D01*
X132126666Y-107521428D01*
X132245714Y-107521428D01*
X132340952Y-107545238D01*
X132388571Y-107569047D01*
X132412380Y-107592857D01*
X132436190Y-107640476D01*
X132436190Y-107688095D01*
X132412380Y-107735714D01*
X132388571Y-107759523D01*
X132340952Y-107783333D01*
X132245714Y-107807142D01*
X132126666Y-107807142D01*
X132031428Y-107783333D01*
X131983809Y-107759523D01*
X131960000Y-107735714D01*
X131936190Y-107688095D01*
X134000857Y-118590190D02*
X133715142Y-118590190D01*
X133858000Y-118590190D02*
X133858000Y-118090190D01*
X133810380Y-118161619D01*
X133762761Y-118209238D01*
X133715142Y-118233047D01*
X135886190Y-109926190D02*
X136386190Y-109759523D01*
X135886190Y-109592857D01*
X135886190Y-109473809D02*
X135886190Y-109140476D01*
X136386190Y-109473809D01*
X136386190Y-109140476D01*
X136124285Y-108949999D02*
X136124285Y-108783333D01*
X136386190Y-108711904D02*
X136386190Y-108949999D01*
X135886190Y-108949999D01*
X135886190Y-108711904D01*
X136386190Y-108211904D02*
X136148095Y-108378571D01*
X136386190Y-108497618D02*
X135886190Y-108497618D01*
X135886190Y-108307142D01*
X135910000Y-108259523D01*
X135933809Y-108235714D01*
X135981428Y-108211904D01*
X136052857Y-108211904D01*
X136100476Y-108235714D01*
X136124285Y-108259523D01*
X136148095Y-108307142D01*
X136148095Y-108497618D01*
X135886190Y-107902380D02*
X135886190Y-107807142D01*
X135910000Y-107759523D01*
X135957619Y-107711904D01*
X136052857Y-107688095D01*
X136219523Y-107688095D01*
X136314761Y-107711904D01*
X136362380Y-107759523D01*
X136386190Y-107807142D01*
X136386190Y-107902380D01*
X136362380Y-107949999D01*
X136314761Y-107997618D01*
X136219523Y-108021428D01*
X136052857Y-108021428D01*
X135957619Y-107997618D01*
X135910000Y-107949999D01*
X135886190Y-107902380D01*
X135886190Y-107378571D02*
X135886190Y-107330952D01*
X135910000Y-107283333D01*
X135933809Y-107259523D01*
X135981428Y-107235714D01*
X136076666Y-107211904D01*
X136195714Y-107211904D01*
X136290952Y-107235714D01*
X136338571Y-107259523D01*
X136362380Y-107283333D01*
X136386190Y-107330952D01*
X136386190Y-107378571D01*
X136362380Y-107426190D01*
X136338571Y-107449999D01*
X136290952Y-107473809D01*
X136195714Y-107497618D01*
X136076666Y-107497618D01*
X135981428Y-107473809D01*
X135933809Y-107449999D01*
X135910000Y-107426190D01*
X135886190Y-107378571D01*
X145899523Y-87021428D02*
X145923333Y-86997619D01*
X145994761Y-86973809D01*
X146042380Y-86973809D01*
X146113809Y-86997619D01*
X146161428Y-87045238D01*
X146185238Y-87092857D01*
X146209047Y-87188095D01*
X146209047Y-87259523D01*
X146185238Y-87354761D01*
X146161428Y-87402380D01*
X146113809Y-87450000D01*
X146042380Y-87473809D01*
X145994761Y-87473809D01*
X145923333Y-87450000D01*
X145899523Y-87426190D01*
X145685238Y-87235714D02*
X145518571Y-87235714D01*
X145447142Y-86973809D02*
X145685238Y-86973809D01*
X145685238Y-87473809D01*
X145447142Y-87473809D01*
X144970952Y-86973809D02*
X145256666Y-86973809D01*
X145113809Y-86973809D02*
X145113809Y-87473809D01*
X145161428Y-87402380D01*
X145209047Y-87354761D01*
X145256666Y-87330952D01*
X148782856Y-87473809D02*
X148663808Y-86973809D01*
X148568570Y-87330952D01*
X148473332Y-86973809D01*
X148354285Y-87473809D01*
X148163808Y-87235714D02*
X147997142Y-87235714D01*
X147925713Y-86973809D02*
X148163808Y-86973809D01*
X148163808Y-87473809D01*
X147925713Y-87473809D01*
X147449523Y-86973809D02*
X147735237Y-86973809D01*
X147592380Y-86973809D02*
X147592380Y-87473809D01*
X147639999Y-87402380D01*
X147687618Y-87354761D01*
X147735237Y-87330952D01*
X150959523Y-86973809D02*
X151126190Y-87211904D01*
X151245238Y-86973809D02*
X151245238Y-87473809D01*
X151054761Y-87473809D01*
X151007142Y-87450000D01*
X150983333Y-87426190D01*
X150959523Y-87378571D01*
X150959523Y-87307142D01*
X150983333Y-87259523D01*
X151007142Y-87235714D01*
X151054761Y-87211904D01*
X151245238Y-87211904D01*
X150745238Y-87235714D02*
X150578571Y-87235714D01*
X150507142Y-86973809D02*
X150745238Y-86973809D01*
X150745238Y-87473809D01*
X150507142Y-87473809D01*
X150030952Y-86973809D02*
X150316666Y-86973809D01*
X150173809Y-86973809D02*
X150173809Y-87473809D01*
X150221428Y-87402380D01*
X150269047Y-87354761D01*
X150316666Y-87330952D01*
X151590476Y-99116190D02*
X151423809Y-98878095D01*
X151304761Y-99116190D02*
X151304761Y-98616190D01*
X151495238Y-98616190D01*
X151542857Y-98640000D01*
X151566666Y-98663809D01*
X151590476Y-98711428D01*
X151590476Y-98782857D01*
X151566666Y-98830476D01*
X151542857Y-98854285D01*
X151495238Y-98878095D01*
X151304761Y-98878095D01*
X151804761Y-98854285D02*
X151971428Y-98854285D01*
X152042857Y-99116190D02*
X151804761Y-99116190D01*
X151804761Y-98616190D01*
X152042857Y-98616190D01*
X152519047Y-99116190D02*
X152233333Y-99116190D01*
X152376190Y-99116190D02*
X152376190Y-98616190D01*
X152328571Y-98687619D01*
X152280952Y-98735238D01*
X152233333Y-98759047D01*
X146510476Y-99068571D02*
X146486666Y-99092380D01*
X146415238Y-99116190D01*
X146367619Y-99116190D01*
X146296190Y-99092380D01*
X146248571Y-99044761D01*
X146224761Y-98997142D01*
X146200952Y-98901904D01*
X146200952Y-98830476D01*
X146224761Y-98735238D01*
X146248571Y-98687619D01*
X146296190Y-98640000D01*
X146367619Y-98616190D01*
X146415238Y-98616190D01*
X146486666Y-98640000D01*
X146510476Y-98663809D01*
X146724761Y-98854285D02*
X146891428Y-98854285D01*
X146962857Y-99116190D02*
X146724761Y-99116190D01*
X146724761Y-98616190D01*
X146962857Y-98616190D01*
X147439047Y-99116190D02*
X147153333Y-99116190D01*
X147296190Y-99116190D02*
X147296190Y-98616190D01*
X147248571Y-98687619D01*
X147200952Y-98735238D01*
X147153333Y-98759047D01*
X148681428Y-98616190D02*
X148800476Y-99116190D01*
X148895714Y-98759047D01*
X148990952Y-99116190D01*
X149110000Y-98616190D01*
X149300476Y-98854285D02*
X149467142Y-98854285D01*
X149538571Y-99116190D02*
X149300476Y-99116190D01*
X149300476Y-98616190D01*
X149538571Y-98616190D01*
X150014761Y-99116190D02*
X149729047Y-99116190D01*
X149871904Y-99116190D02*
X149871904Y-98616190D01*
X149824285Y-98687619D01*
X149776666Y-98735238D01*
X149729047Y-98759047D01*
X130810476Y-99068571D02*
X130786666Y-99092380D01*
X130715238Y-99116190D01*
X130667619Y-99116190D01*
X130596190Y-99092380D01*
X130548571Y-99044761D01*
X130524761Y-98997142D01*
X130500952Y-98901904D01*
X130500952Y-98830476D01*
X130524761Y-98735238D01*
X130548571Y-98687619D01*
X130596190Y-98640000D01*
X130667619Y-98616190D01*
X130715238Y-98616190D01*
X130786666Y-98640000D01*
X130810476Y-98663809D01*
X131024761Y-98854285D02*
X131191428Y-98854285D01*
X131262857Y-99116190D02*
X131024761Y-99116190D01*
X131024761Y-98616190D01*
X131262857Y-98616190D01*
X131572380Y-98616190D02*
X131620000Y-98616190D01*
X131667619Y-98640000D01*
X131691428Y-98663809D01*
X131715238Y-98711428D01*
X131739047Y-98806666D01*
X131739047Y-98925714D01*
X131715238Y-99020952D01*
X131691428Y-99068571D01*
X131667619Y-99092380D01*
X131620000Y-99116190D01*
X131572380Y-99116190D01*
X131524761Y-99092380D01*
X131500952Y-99068571D01*
X131477142Y-99020952D01*
X131453333Y-98925714D01*
X131453333Y-98806666D01*
X131477142Y-98711428D01*
X131500952Y-98663809D01*
X131524761Y-98640000D01*
X131572380Y-98616190D01*
X132981428Y-98580475D02*
X133100476Y-99080475D01*
X133195714Y-98723332D01*
X133290952Y-99080475D01*
X133410000Y-98580475D01*
X133600476Y-98818570D02*
X133767142Y-98818570D01*
X133838571Y-99080475D02*
X133600476Y-99080475D01*
X133600476Y-98580475D01*
X133838571Y-98580475D01*
X134148095Y-98580475D02*
X134195714Y-98580475D01*
X134243333Y-98604285D01*
X134267142Y-98628094D01*
X134290952Y-98675713D01*
X134314761Y-98770951D01*
X134314761Y-98889999D01*
X134290952Y-98985237D01*
X134267142Y-99032856D01*
X134243333Y-99056665D01*
X134195714Y-99080475D01*
X134148095Y-99080475D01*
X134100476Y-99056665D01*
X134076666Y-99032856D01*
X134052857Y-98985237D01*
X134029047Y-98889999D01*
X134029047Y-98770951D01*
X134052857Y-98675713D01*
X134076666Y-98628094D01*
X134100476Y-98604285D01*
X134148095Y-98580475D01*
X135890476Y-99116190D02*
X135723809Y-98878095D01*
X135604761Y-99116190D02*
X135604761Y-98616190D01*
X135795238Y-98616190D01*
X135842857Y-98640000D01*
X135866666Y-98663809D01*
X135890476Y-98711428D01*
X135890476Y-98782857D01*
X135866666Y-98830476D01*
X135842857Y-98854285D01*
X135795238Y-98878095D01*
X135604761Y-98878095D01*
X136104761Y-98854285D02*
X136271428Y-98854285D01*
X136342857Y-99116190D02*
X136104761Y-99116190D01*
X136104761Y-98616190D01*
X136342857Y-98616190D01*
X136652380Y-98616190D02*
X136700000Y-98616190D01*
X136747619Y-98640000D01*
X136771428Y-98663809D01*
X136795238Y-98711428D01*
X136819047Y-98806666D01*
X136819047Y-98925714D01*
X136795238Y-99020952D01*
X136771428Y-99068571D01*
X136747619Y-99092380D01*
X136700000Y-99116190D01*
X136652380Y-99116190D01*
X136604761Y-99092380D01*
X136580952Y-99068571D01*
X136557142Y-99020952D01*
X136533333Y-98925714D01*
X136533333Y-98806666D01*
X136557142Y-98711428D01*
X136580952Y-98663809D01*
X136604761Y-98640000D01*
X136652380Y-98616190D01*
X135229523Y-86973809D02*
X135396190Y-87211904D01*
X135515238Y-86973809D02*
X135515238Y-87473809D01*
X135324761Y-87473809D01*
X135277142Y-87450000D01*
X135253333Y-87426190D01*
X135229523Y-87378571D01*
X135229523Y-87307142D01*
X135253333Y-87259523D01*
X135277142Y-87235714D01*
X135324761Y-87211904D01*
X135515238Y-87211904D01*
X135015238Y-87235714D02*
X134848571Y-87235714D01*
X134777142Y-86973809D02*
X135015238Y-86973809D01*
X135015238Y-87473809D01*
X134777142Y-87473809D01*
X134467619Y-87473809D02*
X134420000Y-87473809D01*
X134372380Y-87450000D01*
X134348571Y-87426190D01*
X134324761Y-87378571D01*
X134300952Y-87283333D01*
X134300952Y-87164285D01*
X134324761Y-87069047D01*
X134348571Y-87021428D01*
X134372380Y-86997619D01*
X134420000Y-86973809D01*
X134467619Y-86973809D01*
X134515238Y-86997619D01*
X134539047Y-87021428D01*
X134562857Y-87069047D01*
X134586666Y-87164285D01*
X134586666Y-87283333D01*
X134562857Y-87378571D01*
X134539047Y-87426190D01*
X134515238Y-87450000D01*
X134467619Y-87473809D01*
X133052856Y-87473809D02*
X132933808Y-86973809D01*
X132838570Y-87330952D01*
X132743332Y-86973809D01*
X132624285Y-87473809D01*
X132433808Y-87235714D02*
X132267142Y-87235714D01*
X132195713Y-86973809D02*
X132433808Y-86973809D01*
X132433808Y-87473809D01*
X132195713Y-87473809D01*
X131886189Y-87473809D02*
X131838570Y-87473809D01*
X131790951Y-87450000D01*
X131767142Y-87426190D01*
X131743332Y-87378571D01*
X131719523Y-87283333D01*
X131719523Y-87164285D01*
X131743332Y-87069047D01*
X131767142Y-87021428D01*
X131790951Y-86997619D01*
X131838570Y-86973809D01*
X131886189Y-86973809D01*
X131933808Y-86997619D01*
X131957618Y-87021428D01*
X131981427Y-87069047D01*
X132005237Y-87164285D01*
X132005237Y-87283333D01*
X131981427Y-87378571D01*
X131957618Y-87426190D01*
X131933808Y-87450000D01*
X131886189Y-87473809D01*
X130179523Y-87021428D02*
X130203333Y-86997619D01*
X130274761Y-86973809D01*
X130322380Y-86973809D01*
X130393809Y-86997619D01*
X130441428Y-87045238D01*
X130465238Y-87092857D01*
X130489047Y-87188095D01*
X130489047Y-87259523D01*
X130465238Y-87354761D01*
X130441428Y-87402380D01*
X130393809Y-87450000D01*
X130322380Y-87473809D01*
X130274761Y-87473809D01*
X130203333Y-87450000D01*
X130179523Y-87426190D01*
X129965238Y-87235714D02*
X129798571Y-87235714D01*
X129727142Y-86973809D02*
X129965238Y-86973809D01*
X129965238Y-87473809D01*
X129727142Y-87473809D01*
X129417619Y-87473809D02*
X129370000Y-87473809D01*
X129322380Y-87450000D01*
X129298571Y-87426190D01*
X129274761Y-87378571D01*
X129250952Y-87283333D01*
X129250952Y-87164285D01*
X129274761Y-87069047D01*
X129298571Y-87021428D01*
X129322380Y-86997619D01*
X129370000Y-86973809D01*
X129417619Y-86973809D01*
X129465238Y-86997619D01*
X129489047Y-87021428D01*
X129512857Y-87069047D01*
X129536666Y-87164285D01*
X129536666Y-87283333D01*
X129512857Y-87378571D01*
X129489047Y-87426190D01*
X129465238Y-87450000D01*
X129417619Y-87473809D01*
X138262857Y-115126190D02*
X137977142Y-115126190D01*
X138120000Y-115126190D02*
X138120000Y-114626190D01*
X138072380Y-114697619D01*
X138024761Y-114745238D01*
X137977142Y-114769047D01*
X151717857Y-125626190D02*
X151432142Y-125626190D01*
X151575000Y-125626190D02*
X151575000Y-125126190D01*
X151527380Y-125197619D01*
X151479761Y-125245238D01*
X151432142Y-125269047D01*
D11*
%TO.C,C41*%
X149170000Y-124117836D02*
X149170000Y-123902164D01*
X149890000Y-124117836D02*
X149890000Y-123902164D01*
D12*
%TO.C,TP4*%
X141800000Y-101470000D02*
X146000000Y-101470000D01*
X146000000Y-101470000D02*
X146000000Y-103870000D01*
X146000000Y-103870000D02*
X141800000Y-103870000D01*
X141800000Y-103870000D02*
X141800000Y-101470000D01*
%TO.C,TP3*%
X136990000Y-101470000D02*
X141190000Y-101470000D01*
X141190000Y-101470000D02*
X141190000Y-103870000D01*
X141190000Y-103870000D02*
X136990000Y-103870000D01*
X136990000Y-103870000D02*
X136990000Y-101470000D01*
D11*
%TO.C,U3*%
X151870000Y-127270000D02*
X151870000Y-128770000D01*
X148650000Y-125770000D02*
X148650000Y-128770000D01*
%TO.C,C36*%
X144240000Y-136841837D02*
X144240000Y-136626165D01*
X144960000Y-136841837D02*
X144960000Y-136626165D01*
%TO.C,R22*%
X147272500Y-110696359D02*
X147272500Y-111003641D01*
X146512500Y-110696359D02*
X146512500Y-111003641D01*
%TO.C,U1*%
X138452000Y-120322000D02*
X138452000Y-115242000D01*
X144548000Y-120322000D02*
X138452000Y-120322000D01*
X144548000Y-115242000D02*
X144548000Y-120322000D01*
X138452000Y-115242000D02*
X144548000Y-115242000D01*
D12*
%TO.C,TP2*%
X137000000Y-105710000D02*
X141200000Y-105710000D01*
X141200000Y-105710000D02*
X141200000Y-108110000D01*
X141200000Y-108110000D02*
X137000000Y-108110000D01*
X137000000Y-108110000D02*
X137000000Y-105710000D01*
D11*
%TO.C,R21*%
X151210000Y-110696359D02*
X151210000Y-111003641D01*
X150450000Y-110696359D02*
X150450000Y-111003641D01*
%TO.C,R20*%
X149897500Y-110696359D02*
X149897500Y-111003641D01*
X149137500Y-110696359D02*
X149137500Y-111003641D01*
%TO.C,R19*%
X145200000Y-111003641D02*
X145200000Y-110696359D01*
X145960000Y-111003641D02*
X145960000Y-110696359D01*
%TO.C,R18*%
X147825000Y-111003641D02*
X147825000Y-110696359D01*
X148585000Y-111003641D02*
X148585000Y-110696359D01*
%TO.C,R17*%
X132530000Y-110696359D02*
X132530000Y-111003641D01*
X131770000Y-110696359D02*
X131770000Y-111003641D01*
%TO.C,R16*%
X136467500Y-110696359D02*
X136467500Y-111003641D01*
X135707500Y-110696359D02*
X135707500Y-111003641D01*
%TO.C,R15*%
X135155000Y-110696359D02*
X135155000Y-111003641D01*
X134395000Y-110696359D02*
X134395000Y-111003641D01*
%TO.C,R14*%
X137780000Y-110696359D02*
X137780000Y-111003641D01*
X137020000Y-110696359D02*
X137020000Y-111003641D01*
%TO.C,R13*%
X133842500Y-110696359D02*
X133842500Y-111003641D01*
X133082500Y-110696359D02*
X133082500Y-111003641D01*
%TO.C,J1*%
X136750000Y-143970000D02*
X138250000Y-143970000D01*
X136750000Y-143970000D02*
X136750000Y-151230000D01*
X146250000Y-143970000D02*
X146250000Y-151230000D01*
X144750000Y-143970000D02*
X146250000Y-143970000D01*
%TO.C,C44*%
X130747836Y-102250000D02*
X130532164Y-102250000D01*
X130747836Y-101530000D02*
X130532164Y-101530000D01*
%TO.C,Y1*%
X134135000Y-119425000D02*
X134135000Y-118635000D01*
X134315000Y-120065000D02*
X134315000Y-120285000D01*
X136535000Y-120065000D02*
X136535000Y-120285000D01*
X134925000Y-118635000D02*
X134135000Y-118635000D01*
D12*
%TO.C,TP1*%
X141800000Y-105710000D02*
X146000000Y-105710000D01*
X146000000Y-105710000D02*
X146000000Y-108110000D01*
X146000000Y-108110000D02*
X141800000Y-108110000D01*
X141800000Y-108110000D02*
X141800000Y-105710000D01*
D11*
%TO.C,SW1*%
X132740000Y-135290000D02*
X132740000Y-135040000D01*
X132740000Y-135040000D02*
X139040000Y-135040000D01*
X139040000Y-135040000D02*
X139040000Y-135290000D01*
X132740000Y-139790000D02*
X132740000Y-137190000D01*
X139040000Y-141690000D02*
X139040000Y-141940000D01*
X139040000Y-141940000D02*
X132740000Y-141940000D01*
X132740000Y-141940000D02*
X132740000Y-141690000D01*
X139040000Y-137190000D02*
X139040000Y-139790000D01*
%TO.C,R3*%
X152573641Y-121225000D02*
X152266359Y-121225000D01*
X152573641Y-121985000D02*
X152266359Y-121985000D01*
%TO.C,R2*%
X152573641Y-115910000D02*
X152266359Y-115910000D01*
X152573641Y-115150000D02*
X152266359Y-115150000D01*
%TO.C,R1*%
X152040000Y-118723641D02*
X152040000Y-118416359D01*
X152800000Y-118723641D02*
X152800000Y-118416359D01*
%TO.C,J3*%
X145490000Y-95550000D02*
X153230000Y-95550000D01*
X153230000Y-95550000D02*
X153230000Y-92890000D01*
X153230000Y-92890000D02*
X145490000Y-92890000D01*
X145490000Y-92890000D02*
X145490000Y-95550000D01*
X146440000Y-92890000D02*
X146440000Y-86890000D01*
X146440000Y-86890000D02*
X147200000Y-86890000D01*
X147200000Y-86890000D02*
X147200000Y-92890000D01*
X146500000Y-92890000D02*
X146500000Y-86890000D01*
X146620000Y-92890000D02*
X146620000Y-86890000D01*
X146740000Y-92890000D02*
X146740000Y-86890000D01*
X146860000Y-92890000D02*
X146860000Y-86890000D01*
X146980000Y-92890000D02*
X146980000Y-86890000D01*
X147100000Y-92890000D02*
X147100000Y-86890000D01*
X146440000Y-95880000D02*
X146440000Y-95550000D01*
X147200000Y-95880000D02*
X147200000Y-95550000D01*
X148090000Y-95550000D02*
X148090000Y-92890000D01*
X148980000Y-92890000D02*
X148980000Y-86890000D01*
X148980000Y-86890000D02*
X149740000Y-86890000D01*
X149740000Y-86890000D02*
X149740000Y-92890000D01*
X148980000Y-95947071D02*
X148980000Y-95550000D01*
X149740000Y-95947071D02*
X149740000Y-95550000D01*
X150630000Y-95550000D02*
X150630000Y-92890000D01*
X151520000Y-92890000D02*
X151520000Y-86890000D01*
X151520000Y-86890000D02*
X152280000Y-86890000D01*
X152280000Y-86890000D02*
X152280000Y-92890000D01*
X151520000Y-95947071D02*
X151520000Y-95550000D01*
X152280000Y-95947071D02*
X152280000Y-95550000D01*
X146820000Y-98260000D02*
X145550000Y-98260000D01*
X145550000Y-98260000D02*
X145550000Y-96990000D01*
%TO.C,J4*%
X129790000Y-95550000D02*
X137530000Y-95550000D01*
X137530000Y-95550000D02*
X137530000Y-92890000D01*
X137530000Y-92890000D02*
X129790000Y-92890000D01*
X129790000Y-92890000D02*
X129790000Y-95550000D01*
X130740000Y-92890000D02*
X130740000Y-86890000D01*
X130740000Y-86890000D02*
X131500000Y-86890000D01*
X131500000Y-86890000D02*
X131500000Y-92890000D01*
X130800000Y-92890000D02*
X130800000Y-86890000D01*
X130920000Y-92890000D02*
X130920000Y-86890000D01*
X131040000Y-92890000D02*
X131040000Y-86890000D01*
X131160000Y-92890000D02*
X131160000Y-86890000D01*
X131280000Y-92890000D02*
X131280000Y-86890000D01*
X131400000Y-92890000D02*
X131400000Y-86890000D01*
X130740000Y-95880000D02*
X130740000Y-95550000D01*
X131500000Y-95880000D02*
X131500000Y-95550000D01*
X132390000Y-95550000D02*
X132390000Y-92890000D01*
X133280000Y-92890000D02*
X133280000Y-86890000D01*
X133280000Y-86890000D02*
X134040000Y-86890000D01*
X134040000Y-86890000D02*
X134040000Y-92890000D01*
X133280000Y-95947071D02*
X133280000Y-95550000D01*
X134040000Y-95947071D02*
X134040000Y-95550000D01*
X134930000Y-95550000D02*
X134930000Y-92890000D01*
X135820000Y-92890000D02*
X135820000Y-86890000D01*
X135820000Y-86890000D02*
X136580000Y-86890000D01*
X136580000Y-86890000D02*
X136580000Y-92890000D01*
X135820000Y-95947071D02*
X135820000Y-95550000D01*
X136580000Y-95947071D02*
X136580000Y-95550000D01*
X131120000Y-98260000D02*
X129850000Y-98260000D01*
X129850000Y-98260000D02*
X129850000Y-96990000D01*
%TO.C,C43*%
X150892164Y-124130000D02*
X151107836Y-124130000D01*
X150892164Y-124850000D02*
X151107836Y-124850000D01*
%TO.C,C42*%
X149880000Y-130312164D02*
X149880000Y-130527836D01*
X149160000Y-130312164D02*
X149160000Y-130527836D01*
%TO.C,C40*%
X153010000Y-126202164D02*
X153010000Y-126417836D01*
X152290000Y-126202164D02*
X152290000Y-126417836D01*
%TO.C,C39*%
X151392164Y-129730000D02*
X151607836Y-129730000D01*
X151392164Y-130450000D02*
X151607836Y-130450000D01*
%TO.C,C38*%
X153060000Y-140301837D02*
X153060000Y-140086165D01*
X152340000Y-140301837D02*
X152340000Y-140086165D01*
%TO.C,C37*%
X151487836Y-143174000D02*
X151272164Y-143174000D01*
X151487836Y-142454000D02*
X151272164Y-142454000D01*
%TO.C,C33*%
X147192164Y-101530000D02*
X147407836Y-101530000D01*
X147192164Y-102250000D02*
X147407836Y-102250000D01*
%TO.C,C13*%
X152292164Y-114100000D02*
X152507836Y-114100000D01*
X152292164Y-114820000D02*
X152507836Y-114820000D01*
%TO.C,C12*%
X152292164Y-122320000D02*
X152507836Y-122320000D01*
X152292164Y-123040000D02*
X152507836Y-123040000D01*
%TO.C,C11*%
X152292164Y-113040000D02*
X152507836Y-113040000D01*
X152292164Y-113760000D02*
X152507836Y-113760000D01*
%TO.C,C10*%
X146142164Y-117680000D02*
X146357836Y-117680000D01*
X146142164Y-118400000D02*
X146357836Y-118400000D01*
%TO.C,C7*%
X135677836Y-123060000D02*
X135462164Y-123060000D01*
X135677836Y-122340000D02*
X135462164Y-122340000D01*
%TO.C,C1*%
X133510000Y-119722164D02*
X133510000Y-119937836D01*
X132790000Y-119722164D02*
X132790000Y-119937836D01*
%TO.C,U2*%
X150735000Y-136354001D02*
X151210000Y-136354001D01*
X151210000Y-136354001D02*
X151210000Y-136829001D01*
X146465000Y-141574001D02*
X145990000Y-141574001D01*
X145990000Y-141574001D02*
X145990000Y-141099001D01*
X150735000Y-141574001D02*
X151210000Y-141574001D01*
X151210000Y-141574001D02*
X151210000Y-141099001D01*
X146465000Y-136354001D02*
X145990000Y-136354001D01*
%TO.C,C41*%
D13*
X148872357Y-124310242D02*
X148895338Y-124333223D01*
X148918319Y-124402166D01*
X148918319Y-124448128D01*
X148895338Y-124517071D01*
X148849376Y-124563033D01*
X148803414Y-124586014D01*
X148711490Y-124608995D01*
X148642547Y-124608995D01*
X148550623Y-124586014D01*
X148504661Y-124563033D01*
X148458700Y-124517071D01*
X148435719Y-124448128D01*
X148435719Y-124402166D01*
X148458700Y-124333223D01*
X148481680Y-124310242D01*
X148596585Y-123896585D02*
X148918319Y-123896585D01*
X148412738Y-124011490D02*
X148757452Y-124126395D01*
X148757452Y-123827642D01*
X148918319Y-123391004D02*
X148918319Y-123666776D01*
X148918319Y-123528890D02*
X148435719Y-123528890D01*
X148504661Y-123574852D01*
X148550623Y-123620814D01*
X148573604Y-123666776D01*
%TO.C,TP4*%
X143271004Y-100555719D02*
X143546776Y-100555719D01*
X143408890Y-101038319D02*
X143408890Y-100555719D01*
X143707642Y-101038319D02*
X143707642Y-100555719D01*
X143891490Y-100555719D01*
X143937452Y-100578700D01*
X143960433Y-100601680D01*
X143983414Y-100647642D01*
X143983414Y-100716585D01*
X143960433Y-100762547D01*
X143937452Y-100785528D01*
X143891490Y-100808509D01*
X143707642Y-100808509D01*
X144397071Y-100716585D02*
X144397071Y-101038319D01*
X144282166Y-100532738D02*
X144167261Y-100877452D01*
X144466014Y-100877452D01*
%TO.C,TP3*%
X138481004Y-100625719D02*
X138756776Y-100625719D01*
X138618890Y-101108319D02*
X138618890Y-100625719D01*
X138917642Y-101108319D02*
X138917642Y-100625719D01*
X139101490Y-100625719D01*
X139147452Y-100648700D01*
X139170433Y-100671680D01*
X139193414Y-100717642D01*
X139193414Y-100786585D01*
X139170433Y-100832547D01*
X139147452Y-100855528D01*
X139101490Y-100878509D01*
X138917642Y-100878509D01*
X139354280Y-100625719D02*
X139653033Y-100625719D01*
X139492166Y-100809566D01*
X139561109Y-100809566D01*
X139607071Y-100832547D01*
X139630052Y-100855528D01*
X139653033Y-100901490D01*
X139653033Y-101016395D01*
X139630052Y-101062357D01*
X139607071Y-101085338D01*
X139561109Y-101108319D01*
X139423223Y-101108319D01*
X139377261Y-101085338D01*
X139354280Y-101062357D01*
%TO.C,U3*%
X152286304Y-128005719D02*
X152286304Y-128396395D01*
X152309285Y-128442357D01*
X152332266Y-128465338D01*
X152378228Y-128488319D01*
X152470152Y-128488319D01*
X152516114Y-128465338D01*
X152539095Y-128442357D01*
X152562076Y-128396395D01*
X152562076Y-128005719D01*
X152745923Y-128005719D02*
X153044676Y-128005719D01*
X152883809Y-128189566D01*
X152952752Y-128189566D01*
X152998714Y-128212547D01*
X153021695Y-128235528D01*
X153044676Y-128281490D01*
X153044676Y-128396395D01*
X153021695Y-128442357D01*
X152998714Y-128465338D01*
X152952752Y-128488319D01*
X152814866Y-128488319D01*
X152768904Y-128465338D01*
X152745923Y-128442357D01*
%TO.C,C36*%
X143872357Y-137024243D02*
X143895338Y-137047224D01*
X143918319Y-137116167D01*
X143918319Y-137162129D01*
X143895338Y-137231072D01*
X143849376Y-137277034D01*
X143803414Y-137300015D01*
X143711490Y-137322996D01*
X143642547Y-137322996D01*
X143550623Y-137300015D01*
X143504661Y-137277034D01*
X143458700Y-137231072D01*
X143435719Y-137162129D01*
X143435719Y-137116167D01*
X143458700Y-137047224D01*
X143481680Y-137024243D01*
X143435719Y-136863377D02*
X143435719Y-136564624D01*
X143619566Y-136725491D01*
X143619566Y-136656548D01*
X143642547Y-136610586D01*
X143665528Y-136587605D01*
X143711490Y-136564624D01*
X143826395Y-136564624D01*
X143872357Y-136587605D01*
X143895338Y-136610586D01*
X143918319Y-136656548D01*
X143918319Y-136794434D01*
X143895338Y-136840396D01*
X143872357Y-136863377D01*
X143435719Y-136150967D02*
X143435719Y-136242891D01*
X143458700Y-136288853D01*
X143481680Y-136311834D01*
X143550623Y-136357796D01*
X143642547Y-136380777D01*
X143826395Y-136380777D01*
X143872357Y-136357796D01*
X143895338Y-136334815D01*
X143918319Y-136288853D01*
X143918319Y-136196929D01*
X143895338Y-136150967D01*
X143872357Y-136127986D01*
X143826395Y-136105005D01*
X143711490Y-136105005D01*
X143665528Y-136127986D01*
X143642547Y-136150967D01*
X143619566Y-136196929D01*
X143619566Y-136288853D01*
X143642547Y-136334815D01*
X143665528Y-136357796D01*
X143711490Y-136380777D01*
%TO.C,R22*%
X147080819Y-112786242D02*
X146851009Y-112947109D01*
X147080819Y-113062014D02*
X146598219Y-113062014D01*
X146598219Y-112878166D01*
X146621200Y-112832204D01*
X146644180Y-112809223D01*
X146690142Y-112786242D01*
X146759085Y-112786242D01*
X146805047Y-112809223D01*
X146828028Y-112832204D01*
X146851009Y-112878166D01*
X146851009Y-113062014D01*
X146644180Y-112602395D02*
X146621200Y-112579414D01*
X146598219Y-112533452D01*
X146598219Y-112418547D01*
X146621200Y-112372585D01*
X146644180Y-112349604D01*
X146690142Y-112326623D01*
X146736104Y-112326623D01*
X146805047Y-112349604D01*
X147080819Y-112625376D01*
X147080819Y-112326623D01*
X146644180Y-112142776D02*
X146621200Y-112119795D01*
X146598219Y-112073833D01*
X146598219Y-111958928D01*
X146621200Y-111912966D01*
X146644180Y-111889985D01*
X146690142Y-111867004D01*
X146736104Y-111867004D01*
X146805047Y-111889985D01*
X147080819Y-112165757D01*
X147080819Y-111867004D01*
%TO.C,U1*%
X144922304Y-114555719D02*
X144922304Y-114946395D01*
X144945285Y-114992357D01*
X144968266Y-115015338D01*
X145014228Y-115038319D01*
X145106152Y-115038319D01*
X145152114Y-115015338D01*
X145175095Y-114992357D01*
X145198076Y-114946395D01*
X145198076Y-114555719D01*
X145680676Y-115038319D02*
X145404904Y-115038319D01*
X145542790Y-115038319D02*
X145542790Y-114555719D01*
X145496828Y-114624661D01*
X145450866Y-114670623D01*
X145404904Y-114693604D01*
%TO.C,TP2*%
X138501004Y-108365719D02*
X138776776Y-108365719D01*
X138638890Y-108848319D02*
X138638890Y-108365719D01*
X138937642Y-108848319D02*
X138937642Y-108365719D01*
X139121490Y-108365719D01*
X139167452Y-108388700D01*
X139190433Y-108411680D01*
X139213414Y-108457642D01*
X139213414Y-108526585D01*
X139190433Y-108572547D01*
X139167452Y-108595528D01*
X139121490Y-108618509D01*
X138937642Y-108618509D01*
X139397261Y-108411680D02*
X139420242Y-108388700D01*
X139466204Y-108365719D01*
X139581109Y-108365719D01*
X139627071Y-108388700D01*
X139650052Y-108411680D01*
X139673033Y-108457642D01*
X139673033Y-108503604D01*
X139650052Y-108572547D01*
X139374280Y-108848319D01*
X139673033Y-108848319D01*
%TO.C,R21*%
X151058319Y-112786242D02*
X150828509Y-112947109D01*
X151058319Y-113062014D02*
X150575719Y-113062014D01*
X150575719Y-112878166D01*
X150598700Y-112832204D01*
X150621680Y-112809223D01*
X150667642Y-112786242D01*
X150736585Y-112786242D01*
X150782547Y-112809223D01*
X150805528Y-112832204D01*
X150828509Y-112878166D01*
X150828509Y-113062014D01*
X150621680Y-112602395D02*
X150598700Y-112579414D01*
X150575719Y-112533452D01*
X150575719Y-112418547D01*
X150598700Y-112372585D01*
X150621680Y-112349604D01*
X150667642Y-112326623D01*
X150713604Y-112326623D01*
X150782547Y-112349604D01*
X151058319Y-112625376D01*
X151058319Y-112326623D01*
X151058319Y-111867004D02*
X151058319Y-112142776D01*
X151058319Y-112004890D02*
X150575719Y-112004890D01*
X150644661Y-112050852D01*
X150690623Y-112096814D01*
X150713604Y-112142776D01*
%TO.C,R20*%
X149745819Y-112786242D02*
X149516009Y-112947109D01*
X149745819Y-113062014D02*
X149263219Y-113062014D01*
X149263219Y-112878166D01*
X149286200Y-112832204D01*
X149309180Y-112809223D01*
X149355142Y-112786242D01*
X149424085Y-112786242D01*
X149470047Y-112809223D01*
X149493028Y-112832204D01*
X149516009Y-112878166D01*
X149516009Y-113062014D01*
X149309180Y-112602395D02*
X149286200Y-112579414D01*
X149263219Y-112533452D01*
X149263219Y-112418547D01*
X149286200Y-112372585D01*
X149309180Y-112349604D01*
X149355142Y-112326623D01*
X149401104Y-112326623D01*
X149470047Y-112349604D01*
X149745819Y-112625376D01*
X149745819Y-112326623D01*
X149263219Y-112027871D02*
X149263219Y-111981909D01*
X149286200Y-111935947D01*
X149309180Y-111912966D01*
X149355142Y-111889985D01*
X149447066Y-111867004D01*
X149561971Y-111867004D01*
X149653895Y-111889985D01*
X149699857Y-111912966D01*
X149722838Y-111935947D01*
X149745819Y-111981909D01*
X149745819Y-112027871D01*
X149722838Y-112073833D01*
X149699857Y-112096814D01*
X149653895Y-112119795D01*
X149561971Y-112142776D01*
X149447066Y-112142776D01*
X149355142Y-112119795D01*
X149309180Y-112096814D01*
X149286200Y-112073833D01*
X149263219Y-112027871D01*
%TO.C,R19*%
X145738319Y-112786242D02*
X145508509Y-112947109D01*
X145738319Y-113062014D02*
X145255719Y-113062014D01*
X145255719Y-112878166D01*
X145278700Y-112832204D01*
X145301680Y-112809223D01*
X145347642Y-112786242D01*
X145416585Y-112786242D01*
X145462547Y-112809223D01*
X145485528Y-112832204D01*
X145508509Y-112878166D01*
X145508509Y-113062014D01*
X145738319Y-112326623D02*
X145738319Y-112602395D01*
X145738319Y-112464509D02*
X145255719Y-112464509D01*
X145324661Y-112510471D01*
X145370623Y-112556433D01*
X145393604Y-112602395D01*
X145738319Y-112096814D02*
X145738319Y-112004890D01*
X145715338Y-111958928D01*
X145692357Y-111935947D01*
X145623414Y-111889985D01*
X145531490Y-111867004D01*
X145347642Y-111867004D01*
X145301680Y-111889985D01*
X145278700Y-111912966D01*
X145255719Y-111958928D01*
X145255719Y-112050852D01*
X145278700Y-112096814D01*
X145301680Y-112119795D01*
X145347642Y-112142776D01*
X145462547Y-112142776D01*
X145508509Y-112119795D01*
X145531490Y-112096814D01*
X145554471Y-112050852D01*
X145554471Y-111958928D01*
X145531490Y-111912966D01*
X145508509Y-111889985D01*
X145462547Y-111867004D01*
%TO.C,R18*%
X148413319Y-112786242D02*
X148183509Y-112947109D01*
X148413319Y-113062014D02*
X147930719Y-113062014D01*
X147930719Y-112878166D01*
X147953700Y-112832204D01*
X147976680Y-112809223D01*
X148022642Y-112786242D01*
X148091585Y-112786242D01*
X148137547Y-112809223D01*
X148160528Y-112832204D01*
X148183509Y-112878166D01*
X148183509Y-113062014D01*
X148413319Y-112326623D02*
X148413319Y-112602395D01*
X148413319Y-112464509D02*
X147930719Y-112464509D01*
X147999661Y-112510471D01*
X148045623Y-112556433D01*
X148068604Y-112602395D01*
X148137547Y-112050852D02*
X148114566Y-112096814D01*
X148091585Y-112119795D01*
X148045623Y-112142776D01*
X148022642Y-112142776D01*
X147976680Y-112119795D01*
X147953700Y-112096814D01*
X147930719Y-112050852D01*
X147930719Y-111958928D01*
X147953700Y-111912966D01*
X147976680Y-111889985D01*
X148022642Y-111867004D01*
X148045623Y-111867004D01*
X148091585Y-111889985D01*
X148114566Y-111912966D01*
X148137547Y-111958928D01*
X148137547Y-112050852D01*
X148160528Y-112096814D01*
X148183509Y-112119795D01*
X148229471Y-112142776D01*
X148321395Y-112142776D01*
X148367357Y-112119795D01*
X148390338Y-112096814D01*
X148413319Y-112050852D01*
X148413319Y-111958928D01*
X148390338Y-111912966D01*
X148367357Y-111889985D01*
X148321395Y-111867004D01*
X148229471Y-111867004D01*
X148183509Y-111889985D01*
X148160528Y-111912966D01*
X148137547Y-111958928D01*
%TO.C,R17*%
X132368319Y-112786242D02*
X132138509Y-112947109D01*
X132368319Y-113062014D02*
X131885719Y-113062014D01*
X131885719Y-112878166D01*
X131908700Y-112832204D01*
X131931680Y-112809223D01*
X131977642Y-112786242D01*
X132046585Y-112786242D01*
X132092547Y-112809223D01*
X132115528Y-112832204D01*
X132138509Y-112878166D01*
X132138509Y-113062014D01*
X132368319Y-112326623D02*
X132368319Y-112602395D01*
X132368319Y-112464509D02*
X131885719Y-112464509D01*
X131954661Y-112510471D01*
X132000623Y-112556433D01*
X132023604Y-112602395D01*
X131885719Y-112165757D02*
X131885719Y-111844023D01*
X132368319Y-112050852D01*
%TO.C,R16*%
X136305819Y-112786242D02*
X136076009Y-112947109D01*
X136305819Y-113062014D02*
X135823219Y-113062014D01*
X135823219Y-112878166D01*
X135846200Y-112832204D01*
X135869180Y-112809223D01*
X135915142Y-112786242D01*
X135984085Y-112786242D01*
X136030047Y-112809223D01*
X136053028Y-112832204D01*
X136076009Y-112878166D01*
X136076009Y-113062014D01*
X136305819Y-112326623D02*
X136305819Y-112602395D01*
X136305819Y-112464509D02*
X135823219Y-112464509D01*
X135892161Y-112510471D01*
X135938123Y-112556433D01*
X135961104Y-112602395D01*
X135823219Y-111912966D02*
X135823219Y-112004890D01*
X135846200Y-112050852D01*
X135869180Y-112073833D01*
X135938123Y-112119795D01*
X136030047Y-112142776D01*
X136213895Y-112142776D01*
X136259857Y-112119795D01*
X136282838Y-112096814D01*
X136305819Y-112050852D01*
X136305819Y-111958928D01*
X136282838Y-111912966D01*
X136259857Y-111889985D01*
X136213895Y-111867004D01*
X136098990Y-111867004D01*
X136053028Y-111889985D01*
X136030047Y-111912966D01*
X136007066Y-111958928D01*
X136007066Y-112050852D01*
X136030047Y-112096814D01*
X136053028Y-112119795D01*
X136098990Y-112142776D01*
%TO.C,R15*%
X134983319Y-112786242D02*
X134753509Y-112947109D01*
X134983319Y-113062014D02*
X134500719Y-113062014D01*
X134500719Y-112878166D01*
X134523700Y-112832204D01*
X134546680Y-112809223D01*
X134592642Y-112786242D01*
X134661585Y-112786242D01*
X134707547Y-112809223D01*
X134730528Y-112832204D01*
X134753509Y-112878166D01*
X134753509Y-113062014D01*
X134983319Y-112326623D02*
X134983319Y-112602395D01*
X134983319Y-112464509D02*
X134500719Y-112464509D01*
X134569661Y-112510471D01*
X134615623Y-112556433D01*
X134638604Y-112602395D01*
X134500719Y-111889985D02*
X134500719Y-112119795D01*
X134730528Y-112142776D01*
X134707547Y-112119795D01*
X134684566Y-112073833D01*
X134684566Y-111958928D01*
X134707547Y-111912966D01*
X134730528Y-111889985D01*
X134776490Y-111867004D01*
X134891395Y-111867004D01*
X134937357Y-111889985D01*
X134960338Y-111912966D01*
X134983319Y-111958928D01*
X134983319Y-112073833D01*
X134960338Y-112119795D01*
X134937357Y-112142776D01*
%TO.C,R14*%
X137618319Y-112786242D02*
X137388509Y-112947109D01*
X137618319Y-113062014D02*
X137135719Y-113062014D01*
X137135719Y-112878166D01*
X137158700Y-112832204D01*
X137181680Y-112809223D01*
X137227642Y-112786242D01*
X137296585Y-112786242D01*
X137342547Y-112809223D01*
X137365528Y-112832204D01*
X137388509Y-112878166D01*
X137388509Y-113062014D01*
X137618319Y-112326623D02*
X137618319Y-112602395D01*
X137618319Y-112464509D02*
X137135719Y-112464509D01*
X137204661Y-112510471D01*
X137250623Y-112556433D01*
X137273604Y-112602395D01*
X137296585Y-111912966D02*
X137618319Y-111912966D01*
X137112738Y-112027871D02*
X137457452Y-112142776D01*
X137457452Y-111844023D01*
%TO.C,R13*%
X133712819Y-112786242D02*
X133483009Y-112947109D01*
X133712819Y-113062014D02*
X133230219Y-113062014D01*
X133230219Y-112878166D01*
X133253200Y-112832204D01*
X133276180Y-112809223D01*
X133322142Y-112786242D01*
X133391085Y-112786242D01*
X133437047Y-112809223D01*
X133460028Y-112832204D01*
X133483009Y-112878166D01*
X133483009Y-113062014D01*
X133712819Y-112326623D02*
X133712819Y-112602395D01*
X133712819Y-112464509D02*
X133230219Y-112464509D01*
X133299161Y-112510471D01*
X133345123Y-112556433D01*
X133368104Y-112602395D01*
X133230219Y-112165757D02*
X133230219Y-111867004D01*
X133414066Y-112027871D01*
X133414066Y-111958928D01*
X133437047Y-111912966D01*
X133460028Y-111889985D01*
X133505990Y-111867004D01*
X133620895Y-111867004D01*
X133666857Y-111889985D01*
X133689838Y-111912966D01*
X133712819Y-111958928D01*
X133712819Y-112096814D01*
X133689838Y-112142776D01*
X133666857Y-112165757D01*
%TO.C,J1*%
X141339133Y-142715719D02*
X141339133Y-143060433D01*
X141316152Y-143129376D01*
X141270190Y-143175338D01*
X141201247Y-143198319D01*
X141155285Y-143198319D01*
X141821733Y-143198319D02*
X141545961Y-143198319D01*
X141683847Y-143198319D02*
X141683847Y-142715719D01*
X141637885Y-142784661D01*
X141591923Y-142830623D01*
X141545961Y-142853604D01*
%TO.C,C44*%
X130249757Y-102962357D02*
X130226776Y-102985338D01*
X130157833Y-103008319D01*
X130111871Y-103008319D01*
X130042928Y-102985338D01*
X129996966Y-102939376D01*
X129973985Y-102893414D01*
X129951004Y-102801490D01*
X129951004Y-102732547D01*
X129973985Y-102640623D01*
X129996966Y-102594661D01*
X130042928Y-102548700D01*
X130111871Y-102525719D01*
X130157833Y-102525719D01*
X130226776Y-102548700D01*
X130249757Y-102571680D01*
X130663414Y-102686585D02*
X130663414Y-103008319D01*
X130548509Y-102502738D02*
X130433604Y-102847452D01*
X130732357Y-102847452D01*
X131123033Y-102686585D02*
X131123033Y-103008319D01*
X131008128Y-102502738D02*
X130893223Y-102847452D01*
X131191976Y-102847452D01*
%TO.C,Y1*%
X133720190Y-121788509D02*
X133720190Y-122018319D01*
X133559323Y-121535719D02*
X133720190Y-121788509D01*
X133881057Y-121535719D01*
X134294714Y-122018319D02*
X134018942Y-122018319D01*
X134156828Y-122018319D02*
X134156828Y-121535719D01*
X134110866Y-121604661D01*
X134064904Y-121650623D01*
X134018942Y-121673604D01*
%TO.C,TP1*%
X143281004Y-108345719D02*
X143556776Y-108345719D01*
X143418890Y-108828319D02*
X143418890Y-108345719D01*
X143717642Y-108828319D02*
X143717642Y-108345719D01*
X143901490Y-108345719D01*
X143947452Y-108368700D01*
X143970433Y-108391680D01*
X143993414Y-108437642D01*
X143993414Y-108506585D01*
X143970433Y-108552547D01*
X143947452Y-108575528D01*
X143901490Y-108598509D01*
X143717642Y-108598509D01*
X144453033Y-108828319D02*
X144177261Y-108828319D01*
X144315147Y-108828319D02*
X144315147Y-108345719D01*
X144269185Y-108414661D01*
X144223223Y-108460623D01*
X144177261Y-108483604D01*
%TO.C,SW1*%
X135246533Y-134185338D02*
X135315476Y-134208319D01*
X135430380Y-134208319D01*
X135476342Y-134185338D01*
X135499323Y-134162357D01*
X135522304Y-134116395D01*
X135522304Y-134070433D01*
X135499323Y-134024471D01*
X135476342Y-134001490D01*
X135430380Y-133978509D01*
X135338457Y-133955528D01*
X135292495Y-133932547D01*
X135269514Y-133909566D01*
X135246533Y-133863604D01*
X135246533Y-133817642D01*
X135269514Y-133771680D01*
X135292495Y-133748700D01*
X135338457Y-133725719D01*
X135453361Y-133725719D01*
X135522304Y-133748700D01*
X135683171Y-133725719D02*
X135798076Y-134208319D01*
X135890000Y-133863604D01*
X135981923Y-134208319D01*
X136096828Y-133725719D01*
X136533466Y-134208319D02*
X136257695Y-134208319D01*
X136395580Y-134208319D02*
X136395580Y-133725719D01*
X136349619Y-133794661D01*
X136303657Y-133840623D01*
X136257695Y-133863604D01*
%TO.C,R3*%
X151006394Y-121883319D02*
X150845528Y-121653509D01*
X150730623Y-121883319D02*
X150730623Y-121400719D01*
X150914470Y-121400719D01*
X150960432Y-121423700D01*
X150983413Y-121446680D01*
X151006394Y-121492642D01*
X151006394Y-121561585D01*
X150983413Y-121607547D01*
X150960432Y-121630528D01*
X150914470Y-121653509D01*
X150730623Y-121653509D01*
X151167261Y-121400719D02*
X151466013Y-121400719D01*
X151305147Y-121584566D01*
X151374089Y-121584566D01*
X151420051Y-121607547D01*
X151443032Y-121630528D01*
X151466013Y-121676490D01*
X151466013Y-121791395D01*
X151443032Y-121837357D01*
X151420051Y-121860338D01*
X151374089Y-121883319D01*
X151236204Y-121883319D01*
X151190242Y-121860338D01*
X151167261Y-121837357D01*
%TO.C,R2*%
X150829566Y-115748319D02*
X150668700Y-115518509D01*
X150553795Y-115748319D02*
X150553795Y-115265719D01*
X150737642Y-115265719D01*
X150783604Y-115288700D01*
X150806585Y-115311680D01*
X150829566Y-115357642D01*
X150829566Y-115426585D01*
X150806585Y-115472547D01*
X150783604Y-115495528D01*
X150737642Y-115518509D01*
X150553795Y-115518509D01*
X151013414Y-115311680D02*
X151036395Y-115288700D01*
X151082357Y-115265719D01*
X151197261Y-115265719D01*
X151243223Y-115288700D01*
X151266204Y-115311680D01*
X151289185Y-115357642D01*
X151289185Y-115403604D01*
X151266204Y-115472547D01*
X150990433Y-115748319D01*
X151289185Y-115748319D01*
%TO.C,R1*%
X151818319Y-118650433D02*
X151588509Y-118811300D01*
X151818319Y-118926204D02*
X151335719Y-118926204D01*
X151335719Y-118742357D01*
X151358700Y-118696395D01*
X151381680Y-118673414D01*
X151427642Y-118650433D01*
X151496585Y-118650433D01*
X151542547Y-118673414D01*
X151565528Y-118696395D01*
X151588509Y-118742357D01*
X151588509Y-118926204D01*
X151818319Y-118190814D02*
X151818319Y-118466585D01*
X151818319Y-118328700D02*
X151335719Y-118328700D01*
X151404661Y-118374661D01*
X151450623Y-118420623D01*
X151473604Y-118466585D01*
%TO.C,J3*%
X144415719Y-96570866D02*
X144760433Y-96570866D01*
X144829376Y-96593847D01*
X144875338Y-96639809D01*
X144898319Y-96708752D01*
X144898319Y-96754714D01*
X144415719Y-96387019D02*
X144415719Y-96088266D01*
X144599566Y-96249133D01*
X144599566Y-96180190D01*
X144622547Y-96134228D01*
X144645528Y-96111247D01*
X144691490Y-96088266D01*
X144806395Y-96088266D01*
X144852357Y-96111247D01*
X144875338Y-96134228D01*
X144898319Y-96180190D01*
X144898319Y-96318076D01*
X144875338Y-96364038D01*
X144852357Y-96387019D01*
%TO.C,J4*%
X137865719Y-96620866D02*
X138210433Y-96620866D01*
X138279376Y-96643847D01*
X138325338Y-96689809D01*
X138348319Y-96758752D01*
X138348319Y-96804714D01*
X138026585Y-96184228D02*
X138348319Y-96184228D01*
X137842738Y-96299133D02*
X138187452Y-96414038D01*
X138187452Y-96115285D01*
%TO.C,FB5*%
X151025528Y-100682166D02*
X151025528Y-100843033D01*
X151278319Y-100843033D02*
X150795719Y-100843033D01*
X150795719Y-100613223D01*
X151025528Y-100268509D02*
X151048509Y-100199566D01*
X151071490Y-100176585D01*
X151117452Y-100153604D01*
X151186395Y-100153604D01*
X151232357Y-100176585D01*
X151255338Y-100199566D01*
X151278319Y-100245528D01*
X151278319Y-100429376D01*
X150795719Y-100429376D01*
X150795719Y-100268509D01*
X150818700Y-100222547D01*
X150841680Y-100199566D01*
X150887642Y-100176585D01*
X150933604Y-100176585D01*
X150979566Y-100199566D01*
X151002547Y-100222547D01*
X151025528Y-100268509D01*
X151025528Y-100429376D01*
X150795719Y-99716966D02*
X150795719Y-99946776D01*
X151025528Y-99969757D01*
X151002547Y-99946776D01*
X150979566Y-99900814D01*
X150979566Y-99785909D01*
X151002547Y-99739947D01*
X151025528Y-99716966D01*
X151071490Y-99693985D01*
X151186395Y-99693985D01*
X151232357Y-99716966D01*
X151255338Y-99739947D01*
X151278319Y-99785909D01*
X151278319Y-99900814D01*
X151255338Y-99946776D01*
X151232357Y-99969757D01*
%TO.C,FB4*%
X148485528Y-100702166D02*
X148485528Y-100863033D01*
X148738319Y-100863033D02*
X148255719Y-100863033D01*
X148255719Y-100633223D01*
X148485528Y-100288509D02*
X148508509Y-100219566D01*
X148531490Y-100196585D01*
X148577452Y-100173604D01*
X148646395Y-100173604D01*
X148692357Y-100196585D01*
X148715338Y-100219566D01*
X148738319Y-100265528D01*
X148738319Y-100449376D01*
X148255719Y-100449376D01*
X148255719Y-100288509D01*
X148278700Y-100242547D01*
X148301680Y-100219566D01*
X148347642Y-100196585D01*
X148393604Y-100196585D01*
X148439566Y-100219566D01*
X148462547Y-100242547D01*
X148485528Y-100288509D01*
X148485528Y-100449376D01*
X148416585Y-99759947D02*
X148738319Y-99759947D01*
X148232738Y-99874852D02*
X148577452Y-99989757D01*
X148577452Y-99691004D01*
%TO.C,FB3*%
X145945528Y-100692166D02*
X145945528Y-100853033D01*
X146198319Y-100853033D02*
X145715719Y-100853033D01*
X145715719Y-100623223D01*
X145945528Y-100278509D02*
X145968509Y-100209566D01*
X145991490Y-100186585D01*
X146037452Y-100163604D01*
X146106395Y-100163604D01*
X146152357Y-100186585D01*
X146175338Y-100209566D01*
X146198319Y-100255528D01*
X146198319Y-100439376D01*
X145715719Y-100439376D01*
X145715719Y-100278509D01*
X145738700Y-100232547D01*
X145761680Y-100209566D01*
X145807642Y-100186585D01*
X145853604Y-100186585D01*
X145899566Y-100209566D01*
X145922547Y-100232547D01*
X145945528Y-100278509D01*
X145945528Y-100439376D01*
X145715719Y-100002738D02*
X145715719Y-99703985D01*
X145899566Y-99864852D01*
X145899566Y-99795909D01*
X145922547Y-99749947D01*
X145945528Y-99726966D01*
X145991490Y-99703985D01*
X146106395Y-99703985D01*
X146152357Y-99726966D01*
X146175338Y-99749947D01*
X146198319Y-99795909D01*
X146198319Y-99933795D01*
X146175338Y-99979757D01*
X146152357Y-100002738D01*
%TO.C,FB8*%
X135265528Y-100792166D02*
X135265528Y-100953033D01*
X135518319Y-100953033D02*
X135035719Y-100953033D01*
X135035719Y-100723223D01*
X135265528Y-100378509D02*
X135288509Y-100309566D01*
X135311490Y-100286585D01*
X135357452Y-100263604D01*
X135426395Y-100263604D01*
X135472357Y-100286585D01*
X135495338Y-100309566D01*
X135518319Y-100355528D01*
X135518319Y-100539376D01*
X135035719Y-100539376D01*
X135035719Y-100378509D01*
X135058700Y-100332547D01*
X135081680Y-100309566D01*
X135127642Y-100286585D01*
X135173604Y-100286585D01*
X135219566Y-100309566D01*
X135242547Y-100332547D01*
X135265528Y-100378509D01*
X135265528Y-100539376D01*
X135242547Y-99987833D02*
X135219566Y-100033795D01*
X135196585Y-100056776D01*
X135150623Y-100079757D01*
X135127642Y-100079757D01*
X135081680Y-100056776D01*
X135058700Y-100033795D01*
X135035719Y-99987833D01*
X135035719Y-99895909D01*
X135058700Y-99849947D01*
X135081680Y-99826966D01*
X135127642Y-99803985D01*
X135150623Y-99803985D01*
X135196585Y-99826966D01*
X135219566Y-99849947D01*
X135242547Y-99895909D01*
X135242547Y-99987833D01*
X135265528Y-100033795D01*
X135288509Y-100056776D01*
X135334471Y-100079757D01*
X135426395Y-100079757D01*
X135472357Y-100056776D01*
X135495338Y-100033795D01*
X135518319Y-99987833D01*
X135518319Y-99895909D01*
X135495338Y-99849947D01*
X135472357Y-99826966D01*
X135426395Y-99803985D01*
X135334471Y-99803985D01*
X135288509Y-99826966D01*
X135265528Y-99849947D01*
X135242547Y-99895909D01*
%TO.C,FB7*%
X132665528Y-100692166D02*
X132665528Y-100853033D01*
X132918319Y-100853033D02*
X132435719Y-100853033D01*
X132435719Y-100623223D01*
X132665528Y-100278509D02*
X132688509Y-100209566D01*
X132711490Y-100186585D01*
X132757452Y-100163604D01*
X132826395Y-100163604D01*
X132872357Y-100186585D01*
X132895338Y-100209566D01*
X132918319Y-100255528D01*
X132918319Y-100439376D01*
X132435719Y-100439376D01*
X132435719Y-100278509D01*
X132458700Y-100232547D01*
X132481680Y-100209566D01*
X132527642Y-100186585D01*
X132573604Y-100186585D01*
X132619566Y-100209566D01*
X132642547Y-100232547D01*
X132665528Y-100278509D01*
X132665528Y-100439376D01*
X132435719Y-100002738D02*
X132435719Y-99681004D01*
X132918319Y-99887833D01*
%TO.C,FB6*%
X130065528Y-100792166D02*
X130065528Y-100953033D01*
X130318319Y-100953033D02*
X129835719Y-100953033D01*
X129835719Y-100723223D01*
X130065528Y-100378509D02*
X130088509Y-100309566D01*
X130111490Y-100286585D01*
X130157452Y-100263604D01*
X130226395Y-100263604D01*
X130272357Y-100286585D01*
X130295338Y-100309566D01*
X130318319Y-100355528D01*
X130318319Y-100539376D01*
X129835719Y-100539376D01*
X129835719Y-100378509D01*
X129858700Y-100332547D01*
X129881680Y-100309566D01*
X129927642Y-100286585D01*
X129973604Y-100286585D01*
X130019566Y-100309566D01*
X130042547Y-100332547D01*
X130065528Y-100378509D01*
X130065528Y-100539376D01*
X129835719Y-99849947D02*
X129835719Y-99941871D01*
X129858700Y-99987833D01*
X129881680Y-100010814D01*
X129950623Y-100056776D01*
X130042547Y-100079757D01*
X130226395Y-100079757D01*
X130272357Y-100056776D01*
X130295338Y-100033795D01*
X130318319Y-99987833D01*
X130318319Y-99895909D01*
X130295338Y-99849947D01*
X130272357Y-99826966D01*
X130226395Y-99803985D01*
X130111490Y-99803985D01*
X130065528Y-99826966D01*
X130042547Y-99849947D01*
X130019566Y-99895909D01*
X130019566Y-99987833D01*
X130042547Y-100033795D01*
X130065528Y-100056776D01*
X130111490Y-100079757D01*
%TO.C,FB2*%
X150477833Y-120475528D02*
X150316966Y-120475528D01*
X150316966Y-120728319D02*
X150316966Y-120245719D01*
X150546776Y-120245719D01*
X150891490Y-120475528D02*
X150960433Y-120498509D01*
X150983414Y-120521490D01*
X151006395Y-120567452D01*
X151006395Y-120636395D01*
X150983414Y-120682357D01*
X150960433Y-120705338D01*
X150914471Y-120728319D01*
X150730623Y-120728319D01*
X150730623Y-120245719D01*
X150891490Y-120245719D01*
X150937452Y-120268700D01*
X150960433Y-120291680D01*
X150983414Y-120337642D01*
X150983414Y-120383604D01*
X150960433Y-120429566D01*
X150937452Y-120452547D01*
X150891490Y-120475528D01*
X150730623Y-120475528D01*
X151190242Y-120291680D02*
X151213223Y-120268700D01*
X151259185Y-120245719D01*
X151374090Y-120245719D01*
X151420052Y-120268700D01*
X151443033Y-120291680D01*
X151466014Y-120337642D01*
X151466014Y-120383604D01*
X151443033Y-120452547D01*
X151167261Y-120728319D01*
X151466014Y-120728319D01*
%TO.C,FB1*%
X150477833Y-116595528D02*
X150316966Y-116595528D01*
X150316966Y-116848319D02*
X150316966Y-116365719D01*
X150546776Y-116365719D01*
X150891490Y-116595528D02*
X150960433Y-116618509D01*
X150983414Y-116641490D01*
X151006395Y-116687452D01*
X151006395Y-116756395D01*
X150983414Y-116802357D01*
X150960433Y-116825338D01*
X150914471Y-116848319D01*
X150730623Y-116848319D01*
X150730623Y-116365719D01*
X150891490Y-116365719D01*
X150937452Y-116388700D01*
X150960433Y-116411680D01*
X150983414Y-116457642D01*
X150983414Y-116503604D01*
X150960433Y-116549566D01*
X150937452Y-116572547D01*
X150891490Y-116595528D01*
X150730623Y-116595528D01*
X151466014Y-116848319D02*
X151190242Y-116848319D01*
X151328128Y-116848319D02*
X151328128Y-116365719D01*
X151282166Y-116434661D01*
X151236204Y-116480623D01*
X151190242Y-116503604D01*
%TO.C,C43*%
X150689757Y-123762357D02*
X150666776Y-123785338D01*
X150597833Y-123808319D01*
X150551871Y-123808319D01*
X150482928Y-123785338D01*
X150436966Y-123739376D01*
X150413985Y-123693414D01*
X150391004Y-123601490D01*
X150391004Y-123532547D01*
X150413985Y-123440623D01*
X150436966Y-123394661D01*
X150482928Y-123348700D01*
X150551871Y-123325719D01*
X150597833Y-123325719D01*
X150666776Y-123348700D01*
X150689757Y-123371680D01*
X151103414Y-123486585D02*
X151103414Y-123808319D01*
X150988509Y-123302738D02*
X150873604Y-123647452D01*
X151172357Y-123647452D01*
X151310242Y-123325719D02*
X151608995Y-123325719D01*
X151448128Y-123509566D01*
X151517071Y-123509566D01*
X151563033Y-123532547D01*
X151586014Y-123555528D01*
X151608995Y-123601490D01*
X151608995Y-123716395D01*
X151586014Y-123762357D01*
X151563033Y-123785338D01*
X151517071Y-123808319D01*
X151379185Y-123808319D01*
X151333223Y-123785338D01*
X151310242Y-123762357D01*
%TO.C,C42*%
X149672357Y-132360242D02*
X149695338Y-132383223D01*
X149718319Y-132452166D01*
X149718319Y-132498128D01*
X149695338Y-132567071D01*
X149649376Y-132613033D01*
X149603414Y-132636014D01*
X149511490Y-132658995D01*
X149442547Y-132658995D01*
X149350623Y-132636014D01*
X149304661Y-132613033D01*
X149258700Y-132567071D01*
X149235719Y-132498128D01*
X149235719Y-132452166D01*
X149258700Y-132383223D01*
X149281680Y-132360242D01*
X149396585Y-131946585D02*
X149718319Y-131946585D01*
X149212738Y-132061490D02*
X149557452Y-132176395D01*
X149557452Y-131877642D01*
X149281680Y-131716776D02*
X149258700Y-131693795D01*
X149235719Y-131647833D01*
X149235719Y-131532928D01*
X149258700Y-131486966D01*
X149281680Y-131463985D01*
X149327642Y-131441004D01*
X149373604Y-131441004D01*
X149442547Y-131463985D01*
X149718319Y-131739757D01*
X149718319Y-131441004D01*
%TO.C,C40*%
X153722357Y-126620242D02*
X153745338Y-126643223D01*
X153768319Y-126712166D01*
X153768319Y-126758128D01*
X153745338Y-126827071D01*
X153699376Y-126873033D01*
X153653414Y-126896014D01*
X153561490Y-126918995D01*
X153492547Y-126918995D01*
X153400623Y-126896014D01*
X153354661Y-126873033D01*
X153308700Y-126827071D01*
X153285719Y-126758128D01*
X153285719Y-126712166D01*
X153308700Y-126643223D01*
X153331680Y-126620242D01*
X153446585Y-126206585D02*
X153768319Y-126206585D01*
X153262738Y-126321490D02*
X153607452Y-126436395D01*
X153607452Y-126137642D01*
X153285719Y-125861871D02*
X153285719Y-125815909D01*
X153308700Y-125769947D01*
X153331680Y-125746966D01*
X153377642Y-125723985D01*
X153469566Y-125701004D01*
X153584471Y-125701004D01*
X153676395Y-125723985D01*
X153722357Y-125746966D01*
X153745338Y-125769947D01*
X153768319Y-125815909D01*
X153768319Y-125861871D01*
X153745338Y-125907833D01*
X153722357Y-125930814D01*
X153676395Y-125953795D01*
X153584471Y-125976776D01*
X153469566Y-125976776D01*
X153377642Y-125953795D01*
X153331680Y-125930814D01*
X153308700Y-125907833D01*
X153285719Y-125861871D01*
%TO.C,C39*%
X151189757Y-131172357D02*
X151166776Y-131195338D01*
X151097833Y-131218319D01*
X151051871Y-131218319D01*
X150982928Y-131195338D01*
X150936966Y-131149376D01*
X150913985Y-131103414D01*
X150891004Y-131011490D01*
X150891004Y-130942547D01*
X150913985Y-130850623D01*
X150936966Y-130804661D01*
X150982928Y-130758700D01*
X151051871Y-130735719D01*
X151097833Y-130735719D01*
X151166776Y-130758700D01*
X151189757Y-130781680D01*
X151350623Y-130735719D02*
X151649376Y-130735719D01*
X151488509Y-130919566D01*
X151557452Y-130919566D01*
X151603414Y-130942547D01*
X151626395Y-130965528D01*
X151649376Y-131011490D01*
X151649376Y-131126395D01*
X151626395Y-131172357D01*
X151603414Y-131195338D01*
X151557452Y-131218319D01*
X151419566Y-131218319D01*
X151373604Y-131195338D01*
X151350623Y-131172357D01*
X151879185Y-131218319D02*
X151971109Y-131218319D01*
X152017071Y-131195338D01*
X152040052Y-131172357D01*
X152086014Y-131103414D01*
X152108995Y-131011490D01*
X152108995Y-130827642D01*
X152086014Y-130781680D01*
X152063033Y-130758700D01*
X152017071Y-130735719D01*
X151925147Y-130735719D01*
X151879185Y-130758700D01*
X151856204Y-130781680D01*
X151833223Y-130827642D01*
X151833223Y-130942547D01*
X151856204Y-130988509D01*
X151879185Y-131011490D01*
X151925147Y-131034471D01*
X152017071Y-131034471D01*
X152063033Y-131011490D01*
X152086014Y-130988509D01*
X152108995Y-130942547D01*
%TO.C,C38*%
X152872357Y-138824242D02*
X152895338Y-138847223D01*
X152918319Y-138916166D01*
X152918319Y-138962128D01*
X152895338Y-139031071D01*
X152849376Y-139077033D01*
X152803414Y-139100014D01*
X152711490Y-139122995D01*
X152642547Y-139122995D01*
X152550623Y-139100014D01*
X152504661Y-139077033D01*
X152458700Y-139031071D01*
X152435719Y-138962128D01*
X152435719Y-138916166D01*
X152458700Y-138847223D01*
X152481680Y-138824242D01*
X152435719Y-138663376D02*
X152435719Y-138364623D01*
X152619566Y-138525490D01*
X152619566Y-138456547D01*
X152642547Y-138410585D01*
X152665528Y-138387604D01*
X152711490Y-138364623D01*
X152826395Y-138364623D01*
X152872357Y-138387604D01*
X152895338Y-138410585D01*
X152918319Y-138456547D01*
X152918319Y-138594433D01*
X152895338Y-138640395D01*
X152872357Y-138663376D01*
X152642547Y-138088852D02*
X152619566Y-138134814D01*
X152596585Y-138157795D01*
X152550623Y-138180776D01*
X152527642Y-138180776D01*
X152481680Y-138157795D01*
X152458700Y-138134814D01*
X152435719Y-138088852D01*
X152435719Y-137996928D01*
X152458700Y-137950966D01*
X152481680Y-137927985D01*
X152527642Y-137905004D01*
X152550623Y-137905004D01*
X152596585Y-137927985D01*
X152619566Y-137950966D01*
X152642547Y-137996928D01*
X152642547Y-138088852D01*
X152665528Y-138134814D01*
X152688509Y-138157795D01*
X152734471Y-138180776D01*
X152826395Y-138180776D01*
X152872357Y-138157795D01*
X152895338Y-138134814D01*
X152918319Y-138088852D01*
X152918319Y-137996928D01*
X152895338Y-137950966D01*
X152872357Y-137927985D01*
X152826395Y-137905004D01*
X152734471Y-137905004D01*
X152688509Y-137927985D01*
X152665528Y-137950966D01*
X152642547Y-137996928D01*
%TO.C,C37*%
X151069757Y-144146357D02*
X151046776Y-144169338D01*
X150977833Y-144192319D01*
X150931871Y-144192319D01*
X150862928Y-144169338D01*
X150816966Y-144123376D01*
X150793985Y-144077414D01*
X150771004Y-143985490D01*
X150771004Y-143916547D01*
X150793985Y-143824623D01*
X150816966Y-143778661D01*
X150862928Y-143732700D01*
X150931871Y-143709719D01*
X150977833Y-143709719D01*
X151046776Y-143732700D01*
X151069757Y-143755680D01*
X151230623Y-143709719D02*
X151529376Y-143709719D01*
X151368509Y-143893566D01*
X151437452Y-143893566D01*
X151483414Y-143916547D01*
X151506395Y-143939528D01*
X151529376Y-143985490D01*
X151529376Y-144100395D01*
X151506395Y-144146357D01*
X151483414Y-144169338D01*
X151437452Y-144192319D01*
X151299566Y-144192319D01*
X151253604Y-144169338D01*
X151230623Y-144146357D01*
X151690242Y-143709719D02*
X152011976Y-143709719D01*
X151805147Y-144192319D01*
%TO.C,C33*%
X146989757Y-102982357D02*
X146966776Y-103005338D01*
X146897833Y-103028319D01*
X146851871Y-103028319D01*
X146782928Y-103005338D01*
X146736966Y-102959376D01*
X146713985Y-102913414D01*
X146691004Y-102821490D01*
X146691004Y-102752547D01*
X146713985Y-102660623D01*
X146736966Y-102614661D01*
X146782928Y-102568700D01*
X146851871Y-102545719D01*
X146897833Y-102545719D01*
X146966776Y-102568700D01*
X146989757Y-102591680D01*
X147150623Y-102545719D02*
X147449376Y-102545719D01*
X147288509Y-102729566D01*
X147357452Y-102729566D01*
X147403414Y-102752547D01*
X147426395Y-102775528D01*
X147449376Y-102821490D01*
X147449376Y-102936395D01*
X147426395Y-102982357D01*
X147403414Y-103005338D01*
X147357452Y-103028319D01*
X147219566Y-103028319D01*
X147173604Y-103005338D01*
X147150623Y-102982357D01*
X147610242Y-102545719D02*
X147908995Y-102545719D01*
X147748128Y-102729566D01*
X147817071Y-102729566D01*
X147863033Y-102752547D01*
X147886014Y-102775528D01*
X147908995Y-102821490D01*
X147908995Y-102936395D01*
X147886014Y-102982357D01*
X147863033Y-103005338D01*
X147817071Y-103028319D01*
X147679185Y-103028319D01*
X147633223Y-103005338D01*
X147610242Y-102982357D01*
%TO.C,C13*%
X150409757Y-114632357D02*
X150386776Y-114655338D01*
X150317833Y-114678319D01*
X150271871Y-114678319D01*
X150202928Y-114655338D01*
X150156966Y-114609376D01*
X150133985Y-114563414D01*
X150111004Y-114471490D01*
X150111004Y-114402547D01*
X150133985Y-114310623D01*
X150156966Y-114264661D01*
X150202928Y-114218700D01*
X150271871Y-114195719D01*
X150317833Y-114195719D01*
X150386776Y-114218700D01*
X150409757Y-114241680D01*
X150869376Y-114678319D02*
X150593604Y-114678319D01*
X150731490Y-114678319D02*
X150731490Y-114195719D01*
X150685528Y-114264661D01*
X150639566Y-114310623D01*
X150593604Y-114333604D01*
X151030242Y-114195719D02*
X151328995Y-114195719D01*
X151168128Y-114379566D01*
X151237071Y-114379566D01*
X151283033Y-114402547D01*
X151306014Y-114425528D01*
X151328995Y-114471490D01*
X151328995Y-114586395D01*
X151306014Y-114632357D01*
X151283033Y-114655338D01*
X151237071Y-114678319D01*
X151099185Y-114678319D01*
X151053223Y-114655338D01*
X151030242Y-114632357D01*
%TO.C,C12*%
X150546776Y-122842357D02*
X150523795Y-122865338D01*
X150454852Y-122888319D01*
X150408890Y-122888319D01*
X150339947Y-122865338D01*
X150293985Y-122819376D01*
X150271004Y-122773414D01*
X150248023Y-122681490D01*
X150248023Y-122612547D01*
X150271004Y-122520623D01*
X150293985Y-122474661D01*
X150339947Y-122428700D01*
X150408890Y-122405719D01*
X150454852Y-122405719D01*
X150523795Y-122428700D01*
X150546776Y-122451680D01*
X151006395Y-122888319D02*
X150730623Y-122888319D01*
X150868509Y-122888319D02*
X150868509Y-122405719D01*
X150822547Y-122474661D01*
X150776585Y-122520623D01*
X150730623Y-122543604D01*
X151190242Y-122451680D02*
X151213223Y-122428700D01*
X151259185Y-122405719D01*
X151374090Y-122405719D01*
X151420052Y-122428700D01*
X151443033Y-122451680D01*
X151466014Y-122497642D01*
X151466014Y-122543604D01*
X151443033Y-122612547D01*
X151167261Y-122888319D01*
X151466014Y-122888319D01*
%TO.C,C11*%
X150409757Y-113572357D02*
X150386776Y-113595338D01*
X150317833Y-113618319D01*
X150271871Y-113618319D01*
X150202928Y-113595338D01*
X150156966Y-113549376D01*
X150133985Y-113503414D01*
X150111004Y-113411490D01*
X150111004Y-113342547D01*
X150133985Y-113250623D01*
X150156966Y-113204661D01*
X150202928Y-113158700D01*
X150271871Y-113135719D01*
X150317833Y-113135719D01*
X150386776Y-113158700D01*
X150409757Y-113181680D01*
X150869376Y-113618319D02*
X150593604Y-113618319D01*
X150731490Y-113618319D02*
X150731490Y-113135719D01*
X150685528Y-113204661D01*
X150639566Y-113250623D01*
X150593604Y-113273604D01*
X151328995Y-113618319D02*
X151053223Y-113618319D01*
X151191109Y-113618319D02*
X151191109Y-113135719D01*
X151145147Y-113204661D01*
X151099185Y-113250623D01*
X151053223Y-113273604D01*
%TO.C,C10*%
X145939757Y-117392357D02*
X145916776Y-117415338D01*
X145847833Y-117438319D01*
X145801871Y-117438319D01*
X145732928Y-117415338D01*
X145686966Y-117369376D01*
X145663985Y-117323414D01*
X145641004Y-117231490D01*
X145641004Y-117162547D01*
X145663985Y-117070623D01*
X145686966Y-117024661D01*
X145732928Y-116978700D01*
X145801871Y-116955719D01*
X145847833Y-116955719D01*
X145916776Y-116978700D01*
X145939757Y-117001680D01*
X146399376Y-117438319D02*
X146123604Y-117438319D01*
X146261490Y-117438319D02*
X146261490Y-116955719D01*
X146215528Y-117024661D01*
X146169566Y-117070623D01*
X146123604Y-117093604D01*
X146698128Y-116955719D02*
X146744090Y-116955719D01*
X146790052Y-116978700D01*
X146813033Y-117001680D01*
X146836014Y-117047642D01*
X146858995Y-117139566D01*
X146858995Y-117254471D01*
X146836014Y-117346395D01*
X146813033Y-117392357D01*
X146790052Y-117415338D01*
X146744090Y-117438319D01*
X146698128Y-117438319D01*
X146652166Y-117415338D01*
X146629185Y-117392357D01*
X146606204Y-117346395D01*
X146583223Y-117254471D01*
X146583223Y-117139566D01*
X146606204Y-117047642D01*
X146629185Y-117001680D01*
X146652166Y-116978700D01*
X146698128Y-116955719D01*
%TO.C,C7*%
X135459566Y-123772357D02*
X135436585Y-123795338D01*
X135367642Y-123818319D01*
X135321680Y-123818319D01*
X135252738Y-123795338D01*
X135206776Y-123749376D01*
X135183795Y-123703414D01*
X135160814Y-123611490D01*
X135160814Y-123542547D01*
X135183795Y-123450623D01*
X135206776Y-123404661D01*
X135252738Y-123358700D01*
X135321680Y-123335719D01*
X135367642Y-123335719D01*
X135436585Y-123358700D01*
X135459566Y-123381680D01*
X135620433Y-123335719D02*
X135942166Y-123335719D01*
X135735338Y-123818319D01*
%TO.C,C1*%
X132572357Y-119890433D02*
X132595338Y-119913414D01*
X132618319Y-119982357D01*
X132618319Y-120028319D01*
X132595338Y-120097261D01*
X132549376Y-120143223D01*
X132503414Y-120166204D01*
X132411490Y-120189185D01*
X132342547Y-120189185D01*
X132250623Y-120166204D01*
X132204661Y-120143223D01*
X132158700Y-120097261D01*
X132135719Y-120028319D01*
X132135719Y-119982357D01*
X132158700Y-119913414D01*
X132181680Y-119890433D01*
X132618319Y-119430814D02*
X132618319Y-119706585D01*
X132618319Y-119568700D02*
X132135719Y-119568700D01*
X132204661Y-119614661D01*
X132250623Y-119660623D01*
X132273604Y-119706585D01*
%TO.C,U2*%
X148232304Y-134879720D02*
X148232304Y-135270396D01*
X148255285Y-135316358D01*
X148278266Y-135339339D01*
X148324228Y-135362320D01*
X148416152Y-135362320D01*
X148462114Y-135339339D01*
X148485095Y-135316358D01*
X148508076Y-135270396D01*
X148508076Y-134879720D01*
X148714904Y-134925681D02*
X148737885Y-134902701D01*
X148783847Y-134879720D01*
X148898752Y-134879720D01*
X148944714Y-134902701D01*
X148967695Y-134925681D01*
X148990676Y-134971643D01*
X148990676Y-135017605D01*
X148967695Y-135086548D01*
X148691923Y-135362320D01*
X148990676Y-135362320D01*
%TD*%
M02*
