M48
; DRILL file {KiCad (5.1.2)-1} date 5/17/2022 10:19:54 AM
; FORMAT={-:-/ absolute / metric / decimal}
; #@! TF.CreationDate,2022-05-17T10:19:54-05:00
; #@! TF.GenerationSoftware,Kicad,Pcbnew,(5.1.2)-1
; #@! TF.FileFunction,Plated,1,4,PTH
FMAT,2
METRIC
T1C0.152
T2C0.254
T3C0.500
T4C1.000
T5C3.200
%
G90
G05
T1
X137.75Y-120.625
X138.0Y-121.4
X138.15Y-126.7
X138.16Y-118.8
X138.55Y-127.11
X139.05Y-120.6
X139.3Y-114.7
X139.35Y-126.7
X139.75Y-127.11
X140.0Y-113.6
X140.15Y-126.2
X140.358Y-122.15
X140.55Y-118.71
X140.55Y-126.7
X140.95Y-127.11
X141.0Y-113.45
X141.35Y-126.2
X141.52Y-117.77
X141.7Y-113.95
X141.75Y-126.7
X141.94Y-118.84
X142.05Y-112.3
X142.15Y-127.11
X142.2Y-114.6
X142.2Y-121.2
X142.4Y-115.1
X142.46Y-117.28
X142.47Y-117.78
X142.55Y-126.2
X142.65Y-112.3
X142.65Y-120.5
X142.65Y-132.3
X143.18Y-114.39
X143.25Y-132.3
X143.35Y-126.7
X143.7Y-115.0
X143.75Y-127.11
X143.95Y-132.25
X144.15Y-126.2
X144.2Y-114.75
X144.5Y-129.7
X144.6Y-132.25
X144.75Y-114.75
X144.95Y-129.28
X145.15Y-115.1
X145.5Y-115.5
X145.9Y-115.9
X146.3Y-133.95
X146.3Y-134.6
X147.25Y-116.0
T2
X129.93Y-152.81
X129.96Y-87.38
X129.96Y-89.92
X129.96Y-92.46
X129.96Y-107.27
X129.96Y-109.81
X129.96Y-112.35
X129.96Y-114.74
X129.96Y-117.28
X129.96Y-118.63
X129.96Y-121.25
X129.96Y-128.78
X129.96Y-131.32
X129.96Y-133.86
X129.96Y-136.4
X129.96Y-138.94
X129.96Y-141.48
X131.56Y-104.77
X132.08Y-133.62
X132.09Y-129.31
X132.15Y-112.03
X132.4Y-106.9
X132.425Y-98.775
X132.425Y-100.45
X132.62Y-138.94
X132.62Y-152.81
X132.65Y-87.38
X132.65Y-89.92
X132.65Y-92.46
X133.35Y-133.8
X133.46Y-112.03
X133.46Y-126.88
X133.52Y-130.34
X133.6Y-132.58
X133.65Y-121.5
X133.825Y-118.475
X134.1Y-107.8
X134.1Y-116.9
X134.1Y-123.95
X134.78Y-112.03
X134.95Y-98.775
X134.95Y-100.45
X135.05Y-132.55
X135.08Y-115.68
X135.16Y-138.94
X135.16Y-141.48
X135.16Y-152.81
X135.19Y-87.38
X135.19Y-89.92
X135.19Y-92.46
X135.45Y-129.675
X135.45Y-133.65
X135.575Y-123.775
X136.09Y-112.03
X136.25Y-129.34
X136.8Y-104.92
X136.85Y-116.93
X136.92Y-117.58
X136.95Y-122.7
X137.1Y-118.65
X137.31Y-133.66
X137.4Y-109.74
X137.4Y-112.03
X137.55Y-116.45
X137.59Y-112.77
X137.7Y-129.97
X137.7Y-138.94
X137.7Y-141.48
X137.73Y-87.38
X137.73Y-89.92
X138.05Y-109.25
X138.19Y-129.5
X138.32Y-133.37
X138.39Y-125.04
X138.95Y-129.74
X139.29Y-133.11
X139.56Y-129.49
X139.9Y-116.75
X140.1Y-118.3
X140.15Y-129.49
X140.16Y-132.81
X140.24Y-138.94
X140.24Y-147.73
X140.24Y-150.27
X140.24Y-152.81
X140.27Y-87.38
X140.27Y-89.92
X140.27Y-98.21
X140.45Y-117.3
X140.72Y-145.21
X140.75Y-130.13
X140.88Y-132.41
X141.05Y-108.7
X141.5Y-105.3
X141.7Y-134.62
X141.75Y-145.04
X141.85Y-122.1
X142.05Y-108.7
X142.57Y-118.3
X142.78Y-138.94
X142.78Y-141.48
X142.78Y-147.73
X142.78Y-150.27
X142.78Y-152.81
X142.8Y-135.5
X142.81Y-87.38
X142.81Y-89.92
X142.81Y-98.21
X142.95Y-129.32
X143.05Y-118.0
X143.475Y-129.975
X143.52Y-121.95
X143.64Y-121.33
X143.65Y-136.65
X143.75Y-134.9
X143.77Y-120.8
X143.8Y-112.3
X143.95Y-134.25
X144.05Y-124.6
X144.54Y-117.36
X144.55Y-118.29
X144.7Y-120.8
X144.77Y-119.49
X144.77Y-120.09
X145.0Y-112.3
X145.0Y-117.8
X145.04Y-125.58
X145.05Y-109.25
X145.32Y-134.88
X145.35Y-87.38
X145.35Y-89.92
X145.55Y-136.574
X145.58Y-109.74
X145.6Y-125.28
X146.24Y-111.96
X146.8Y-102.7
X147.05Y-119.03
X147.4Y-118.15
X147.55Y-111.96
X147.86Y-152.81
X147.89Y-87.38
X147.89Y-89.92
X147.89Y-92.46
X147.95Y-130.6
X147.95Y-132.3
X147.95Y-133.6
X147.95Y-134.6
X148.0Y-131.6
X148.1Y-98.775
X148.1Y-107.55
X148.12Y-117.61
X148.17Y-114.67
X148.2Y-108.75
X148.54Y-125.42
X148.55Y-100.75
X148.79Y-117.27
X148.84Y-114.59
X148.86Y-111.94
X148.99Y-113.94
X149.15Y-131.8
X149.65Y-133.25
X149.7Y-106.15
X149.7Y-107.25
X149.71Y-113.81
X150.18Y-111.93
X150.4Y-152.81
X150.43Y-87.38
X150.43Y-89.92
X150.43Y-92.46
X150.6Y-98.775
X150.75Y-103.15
X150.75Y-104.6
X150.8Y-134.55
X150.83Y-113.07
X150.83Y-114.046
X151.4Y-141.514
X151.92Y-112.72
X152.0Y-140.214
X152.35Y-137.2
X152.45Y-141.8
X152.5Y-123.9
X153.07Y-87.38
X153.07Y-89.92
X153.07Y-92.46
X153.07Y-104.74
X153.07Y-107.28
X153.07Y-109.82
X153.07Y-112.35
X153.07Y-124.75
X153.07Y-128.78
X153.07Y-131.32
X153.07Y-152.81
X153.26Y-117.46
X153.27Y-119.68
T4
X146.82Y-96.99
X149.36Y-96.99
X151.9Y-96.99
X131.12Y-96.99
X133.66Y-96.99
X136.2Y-96.99
T5
X141.5Y-94.2
X150.026Y-146.8
X132.974Y-146.8
T3
G00X137.01Y-151.88
M15
G01X137.01Y-152.48
M16
G05
G00X137.37Y-145.93
M15
G01X137.37Y-146.53
M16
G05
G00X145.63Y-145.93
M15
G01X145.63Y-146.53
M16
G05
G00X145.99Y-151.88
M15
G01X145.99Y-152.48
M16
G05
T0
M30
