%TF.GenerationSoftware,KiCad,Pcbnew,(5.1.2)-1*%
%TF.CreationDate,2022-05-17T10:19:51-05:00*%
%TF.ProjectId,aducm_board,61647563-6d5f-4626-9f61-72642e6b6963,1.6*%
%TF.SameCoordinates,Original*%
%TF.FileFunction,Paste,Bot*%
%TF.FilePolarity,Positive*%
%FSLAX46Y46*%
G04 Gerber Fmt 4.6, Leading zero omitted, Abs format (unit mm)*
G04 Created by KiCad (PCBNEW (5.1.2)-1) date 2022-05-17 10:19:51*
%MOMM*%
%LPD*%
G04 APERTURE LIST*
%ADD10C,0.100000*%
%ADD11C,0.540000*%
%ADD12R,0.500000X1.200000*%
%ADD13R,0.196660X1.350000*%
%ADD14C,0.560000*%
G04 APERTURE END LIST*
D10*
%TO.C,R5*%
G36*
X135088232Y-122390650D02*
G01*
X135101337Y-122392594D01*
X135114188Y-122395813D01*
X135126662Y-122400276D01*
X135138639Y-122405941D01*
X135150002Y-122412752D01*
X135160643Y-122420644D01*
X135170459Y-122429541D01*
X135179356Y-122439357D01*
X135187248Y-122449998D01*
X135194059Y-122461361D01*
X135199724Y-122473338D01*
X135204187Y-122485812D01*
X135207406Y-122498663D01*
X135209350Y-122511768D01*
X135210000Y-122525000D01*
X135210000Y-122895000D01*
X135209350Y-122908232D01*
X135207406Y-122921337D01*
X135204187Y-122934188D01*
X135199724Y-122946662D01*
X135194059Y-122958639D01*
X135187248Y-122970002D01*
X135179356Y-122980643D01*
X135170459Y-122990459D01*
X135160643Y-122999356D01*
X135150002Y-123007248D01*
X135138639Y-123014059D01*
X135126662Y-123019724D01*
X135114188Y-123024187D01*
X135101337Y-123027406D01*
X135088232Y-123029350D01*
X135075000Y-123030000D01*
X134805000Y-123030000D01*
X134791768Y-123029350D01*
X134778663Y-123027406D01*
X134765812Y-123024187D01*
X134753338Y-123019724D01*
X134741361Y-123014059D01*
X134729998Y-123007248D01*
X134719357Y-122999356D01*
X134709541Y-122990459D01*
X134700644Y-122980643D01*
X134692752Y-122970002D01*
X134685941Y-122958639D01*
X134680276Y-122946662D01*
X134675813Y-122934188D01*
X134672594Y-122921337D01*
X134670650Y-122908232D01*
X134670000Y-122895000D01*
X134670000Y-122525000D01*
X134670650Y-122511768D01*
X134672594Y-122498663D01*
X134675813Y-122485812D01*
X134680276Y-122473338D01*
X134685941Y-122461361D01*
X134692752Y-122449998D01*
X134700644Y-122439357D01*
X134709541Y-122429541D01*
X134719357Y-122420644D01*
X134729998Y-122412752D01*
X134741361Y-122405941D01*
X134753338Y-122400276D01*
X134765812Y-122395813D01*
X134778663Y-122392594D01*
X134791768Y-122390650D01*
X134805000Y-122390000D01*
X135075000Y-122390000D01*
X135088232Y-122390650D01*
X135088232Y-122390650D01*
G37*
D11*
X134940000Y-122710000D03*
D10*
G36*
X136108232Y-122390650D02*
G01*
X136121337Y-122392594D01*
X136134188Y-122395813D01*
X136146662Y-122400276D01*
X136158639Y-122405941D01*
X136170002Y-122412752D01*
X136180643Y-122420644D01*
X136190459Y-122429541D01*
X136199356Y-122439357D01*
X136207248Y-122449998D01*
X136214059Y-122461361D01*
X136219724Y-122473338D01*
X136224187Y-122485812D01*
X136227406Y-122498663D01*
X136229350Y-122511768D01*
X136230000Y-122525000D01*
X136230000Y-122895000D01*
X136229350Y-122908232D01*
X136227406Y-122921337D01*
X136224187Y-122934188D01*
X136219724Y-122946662D01*
X136214059Y-122958639D01*
X136207248Y-122970002D01*
X136199356Y-122980643D01*
X136190459Y-122990459D01*
X136180643Y-122999356D01*
X136170002Y-123007248D01*
X136158639Y-123014059D01*
X136146662Y-123019724D01*
X136134188Y-123024187D01*
X136121337Y-123027406D01*
X136108232Y-123029350D01*
X136095000Y-123030000D01*
X135825000Y-123030000D01*
X135811768Y-123029350D01*
X135798663Y-123027406D01*
X135785812Y-123024187D01*
X135773338Y-123019724D01*
X135761361Y-123014059D01*
X135749998Y-123007248D01*
X135739357Y-122999356D01*
X135729541Y-122990459D01*
X135720644Y-122980643D01*
X135712752Y-122970002D01*
X135705941Y-122958639D01*
X135700276Y-122946662D01*
X135695813Y-122934188D01*
X135692594Y-122921337D01*
X135690650Y-122908232D01*
X135690000Y-122895000D01*
X135690000Y-122525000D01*
X135690650Y-122511768D01*
X135692594Y-122498663D01*
X135695813Y-122485812D01*
X135700276Y-122473338D01*
X135705941Y-122461361D01*
X135712752Y-122449998D01*
X135720644Y-122439357D01*
X135729541Y-122429541D01*
X135739357Y-122420644D01*
X135749998Y-122412752D01*
X135761361Y-122405941D01*
X135773338Y-122400276D01*
X135785812Y-122395813D01*
X135798663Y-122392594D01*
X135811768Y-122390650D01*
X135825000Y-122390000D01*
X136095000Y-122390000D01*
X136108232Y-122390650D01*
X136108232Y-122390650D01*
G37*
D11*
X135960000Y-122710000D03*
%TD*%
D12*
%TO.C,J2*%
X148700000Y-128965000D03*
X148700000Y-130365000D03*
X134250000Y-128965000D03*
X134250000Y-130365000D03*
D13*
X136550000Y-128190000D03*
X136950000Y-128190000D03*
X137350000Y-128190000D03*
X137750000Y-128190000D03*
X138150000Y-128190000D03*
X138550000Y-128190000D03*
X138950000Y-128190000D03*
X139350000Y-128190000D03*
X139750000Y-128190000D03*
X140150000Y-128190000D03*
X140550000Y-128190000D03*
X140950000Y-128190000D03*
X141350000Y-128190000D03*
X141750000Y-128190000D03*
X142150000Y-128190000D03*
X142550000Y-128190000D03*
X142950000Y-128190000D03*
X143350000Y-128190000D03*
X143750000Y-128190000D03*
X144150000Y-128190000D03*
X144550000Y-128190000D03*
X144950000Y-128190000D03*
X145350000Y-128190000D03*
X145750000Y-128190000D03*
X146150000Y-128190000D03*
X136750000Y-131140000D03*
X137150000Y-131140000D03*
X137550000Y-131140000D03*
X137950000Y-131140000D03*
X138350000Y-131140000D03*
X138750000Y-131140000D03*
X139150000Y-131140000D03*
X139550000Y-131140000D03*
X139950000Y-131140000D03*
X140350000Y-131140000D03*
X140750000Y-131140000D03*
X141150000Y-131140000D03*
X141550000Y-131140000D03*
X141950000Y-131140000D03*
X142350000Y-131140000D03*
X142750000Y-131140000D03*
X143150000Y-131140000D03*
X143550000Y-131140000D03*
X143950000Y-131140000D03*
X144350000Y-131140000D03*
X144750000Y-131140000D03*
X145150000Y-131140000D03*
X145550000Y-131140000D03*
X145950000Y-131140000D03*
X146350000Y-131140000D03*
%TD*%
D10*
%TO.C,C23*%
G36*
X148893722Y-117730674D02*
G01*
X148907313Y-117732690D01*
X148920640Y-117736028D01*
X148933576Y-117740657D01*
X148945996Y-117746531D01*
X148957780Y-117753594D01*
X148968815Y-117761779D01*
X148978995Y-117771005D01*
X148988221Y-117781185D01*
X148996406Y-117792220D01*
X149003469Y-117804004D01*
X149009343Y-117816424D01*
X149013972Y-117829360D01*
X149017310Y-117842687D01*
X149019326Y-117856278D01*
X149020000Y-117870000D01*
X149020000Y-118210000D01*
X149019326Y-118223722D01*
X149017310Y-118237313D01*
X149013972Y-118250640D01*
X149009343Y-118263576D01*
X149003469Y-118275996D01*
X148996406Y-118287780D01*
X148988221Y-118298815D01*
X148978995Y-118308995D01*
X148968815Y-118318221D01*
X148957780Y-118326406D01*
X148945996Y-118333469D01*
X148933576Y-118339343D01*
X148920640Y-118343972D01*
X148907313Y-118347310D01*
X148893722Y-118349326D01*
X148880000Y-118350000D01*
X148600000Y-118350000D01*
X148586278Y-118349326D01*
X148572687Y-118347310D01*
X148559360Y-118343972D01*
X148546424Y-118339343D01*
X148534004Y-118333469D01*
X148522220Y-118326406D01*
X148511185Y-118318221D01*
X148501005Y-118308995D01*
X148491779Y-118298815D01*
X148483594Y-118287780D01*
X148476531Y-118275996D01*
X148470657Y-118263576D01*
X148466028Y-118250640D01*
X148462690Y-118237313D01*
X148460674Y-118223722D01*
X148460000Y-118210000D01*
X148460000Y-117870000D01*
X148460674Y-117856278D01*
X148462690Y-117842687D01*
X148466028Y-117829360D01*
X148470657Y-117816424D01*
X148476531Y-117804004D01*
X148483594Y-117792220D01*
X148491779Y-117781185D01*
X148501005Y-117771005D01*
X148511185Y-117761779D01*
X148522220Y-117753594D01*
X148534004Y-117746531D01*
X148546424Y-117740657D01*
X148559360Y-117736028D01*
X148572687Y-117732690D01*
X148586278Y-117730674D01*
X148600000Y-117730000D01*
X148880000Y-117730000D01*
X148893722Y-117730674D01*
X148893722Y-117730674D01*
G37*
D14*
X148740000Y-118040000D03*
D10*
G36*
X149853722Y-117730674D02*
G01*
X149867313Y-117732690D01*
X149880640Y-117736028D01*
X149893576Y-117740657D01*
X149905996Y-117746531D01*
X149917780Y-117753594D01*
X149928815Y-117761779D01*
X149938995Y-117771005D01*
X149948221Y-117781185D01*
X149956406Y-117792220D01*
X149963469Y-117804004D01*
X149969343Y-117816424D01*
X149973972Y-117829360D01*
X149977310Y-117842687D01*
X149979326Y-117856278D01*
X149980000Y-117870000D01*
X149980000Y-118210000D01*
X149979326Y-118223722D01*
X149977310Y-118237313D01*
X149973972Y-118250640D01*
X149969343Y-118263576D01*
X149963469Y-118275996D01*
X149956406Y-118287780D01*
X149948221Y-118298815D01*
X149938995Y-118308995D01*
X149928815Y-118318221D01*
X149917780Y-118326406D01*
X149905996Y-118333469D01*
X149893576Y-118339343D01*
X149880640Y-118343972D01*
X149867313Y-118347310D01*
X149853722Y-118349326D01*
X149840000Y-118350000D01*
X149560000Y-118350000D01*
X149546278Y-118349326D01*
X149532687Y-118347310D01*
X149519360Y-118343972D01*
X149506424Y-118339343D01*
X149494004Y-118333469D01*
X149482220Y-118326406D01*
X149471185Y-118318221D01*
X149461005Y-118308995D01*
X149451779Y-118298815D01*
X149443594Y-118287780D01*
X149436531Y-118275996D01*
X149430657Y-118263576D01*
X149426028Y-118250640D01*
X149422690Y-118237313D01*
X149420674Y-118223722D01*
X149420000Y-118210000D01*
X149420000Y-117870000D01*
X149420674Y-117856278D01*
X149422690Y-117842687D01*
X149426028Y-117829360D01*
X149430657Y-117816424D01*
X149436531Y-117804004D01*
X149443594Y-117792220D01*
X149451779Y-117781185D01*
X149461005Y-117771005D01*
X149471185Y-117761779D01*
X149482220Y-117753594D01*
X149494004Y-117746531D01*
X149506424Y-117740657D01*
X149519360Y-117736028D01*
X149532687Y-117732690D01*
X149546278Y-117730674D01*
X149560000Y-117730000D01*
X149840000Y-117730000D01*
X149853722Y-117730674D01*
X149853722Y-117730674D01*
G37*
D14*
X149700000Y-118040000D03*
%TD*%
D10*
%TO.C,C8*%
G36*
X135123722Y-118840674D02*
G01*
X135137313Y-118842690D01*
X135150640Y-118846028D01*
X135163576Y-118850657D01*
X135175996Y-118856531D01*
X135187780Y-118863594D01*
X135198815Y-118871779D01*
X135208995Y-118881005D01*
X135218221Y-118891185D01*
X135226406Y-118902220D01*
X135233469Y-118914004D01*
X135239343Y-118926424D01*
X135243972Y-118939360D01*
X135247310Y-118952687D01*
X135249326Y-118966278D01*
X135250000Y-118980000D01*
X135250000Y-119320000D01*
X135249326Y-119333722D01*
X135247310Y-119347313D01*
X135243972Y-119360640D01*
X135239343Y-119373576D01*
X135233469Y-119385996D01*
X135226406Y-119397780D01*
X135218221Y-119408815D01*
X135208995Y-119418995D01*
X135198815Y-119428221D01*
X135187780Y-119436406D01*
X135175996Y-119443469D01*
X135163576Y-119449343D01*
X135150640Y-119453972D01*
X135137313Y-119457310D01*
X135123722Y-119459326D01*
X135110000Y-119460000D01*
X134830000Y-119460000D01*
X134816278Y-119459326D01*
X134802687Y-119457310D01*
X134789360Y-119453972D01*
X134776424Y-119449343D01*
X134764004Y-119443469D01*
X134752220Y-119436406D01*
X134741185Y-119428221D01*
X134731005Y-119418995D01*
X134721779Y-119408815D01*
X134713594Y-119397780D01*
X134706531Y-119385996D01*
X134700657Y-119373576D01*
X134696028Y-119360640D01*
X134692690Y-119347313D01*
X134690674Y-119333722D01*
X134690000Y-119320000D01*
X134690000Y-118980000D01*
X134690674Y-118966278D01*
X134692690Y-118952687D01*
X134696028Y-118939360D01*
X134700657Y-118926424D01*
X134706531Y-118914004D01*
X134713594Y-118902220D01*
X134721779Y-118891185D01*
X134731005Y-118881005D01*
X134741185Y-118871779D01*
X134752220Y-118863594D01*
X134764004Y-118856531D01*
X134776424Y-118850657D01*
X134789360Y-118846028D01*
X134802687Y-118842690D01*
X134816278Y-118840674D01*
X134830000Y-118840000D01*
X135110000Y-118840000D01*
X135123722Y-118840674D01*
X135123722Y-118840674D01*
G37*
D14*
X134970000Y-119150000D03*
D10*
G36*
X136083722Y-118840674D02*
G01*
X136097313Y-118842690D01*
X136110640Y-118846028D01*
X136123576Y-118850657D01*
X136135996Y-118856531D01*
X136147780Y-118863594D01*
X136158815Y-118871779D01*
X136168995Y-118881005D01*
X136178221Y-118891185D01*
X136186406Y-118902220D01*
X136193469Y-118914004D01*
X136199343Y-118926424D01*
X136203972Y-118939360D01*
X136207310Y-118952687D01*
X136209326Y-118966278D01*
X136210000Y-118980000D01*
X136210000Y-119320000D01*
X136209326Y-119333722D01*
X136207310Y-119347313D01*
X136203972Y-119360640D01*
X136199343Y-119373576D01*
X136193469Y-119385996D01*
X136186406Y-119397780D01*
X136178221Y-119408815D01*
X136168995Y-119418995D01*
X136158815Y-119428221D01*
X136147780Y-119436406D01*
X136135996Y-119443469D01*
X136123576Y-119449343D01*
X136110640Y-119453972D01*
X136097313Y-119457310D01*
X136083722Y-119459326D01*
X136070000Y-119460000D01*
X135790000Y-119460000D01*
X135776278Y-119459326D01*
X135762687Y-119457310D01*
X135749360Y-119453972D01*
X135736424Y-119449343D01*
X135724004Y-119443469D01*
X135712220Y-119436406D01*
X135701185Y-119428221D01*
X135691005Y-119418995D01*
X135681779Y-119408815D01*
X135673594Y-119397780D01*
X135666531Y-119385996D01*
X135660657Y-119373576D01*
X135656028Y-119360640D01*
X135652690Y-119347313D01*
X135650674Y-119333722D01*
X135650000Y-119320000D01*
X135650000Y-118980000D01*
X135650674Y-118966278D01*
X135652690Y-118952687D01*
X135656028Y-118939360D01*
X135660657Y-118926424D01*
X135666531Y-118914004D01*
X135673594Y-118902220D01*
X135681779Y-118891185D01*
X135691005Y-118881005D01*
X135701185Y-118871779D01*
X135712220Y-118863594D01*
X135724004Y-118856531D01*
X135736424Y-118850657D01*
X135749360Y-118846028D01*
X135762687Y-118842690D01*
X135776278Y-118840674D01*
X135790000Y-118840000D01*
X136070000Y-118840000D01*
X136083722Y-118840674D01*
X136083722Y-118840674D01*
G37*
D14*
X135930000Y-119150000D03*
%TD*%
D10*
%TO.C,C9*%
G36*
X142033722Y-123530674D02*
G01*
X142047313Y-123532690D01*
X142060640Y-123536028D01*
X142073576Y-123540657D01*
X142085996Y-123546531D01*
X142097780Y-123553594D01*
X142108815Y-123561779D01*
X142118995Y-123571005D01*
X142128221Y-123581185D01*
X142136406Y-123592220D01*
X142143469Y-123604004D01*
X142149343Y-123616424D01*
X142153972Y-123629360D01*
X142157310Y-123642687D01*
X142159326Y-123656278D01*
X142160000Y-123670000D01*
X142160000Y-123950000D01*
X142159326Y-123963722D01*
X142157310Y-123977313D01*
X142153972Y-123990640D01*
X142149343Y-124003576D01*
X142143469Y-124015996D01*
X142136406Y-124027780D01*
X142128221Y-124038815D01*
X142118995Y-124048995D01*
X142108815Y-124058221D01*
X142097780Y-124066406D01*
X142085996Y-124073469D01*
X142073576Y-124079343D01*
X142060640Y-124083972D01*
X142047313Y-124087310D01*
X142033722Y-124089326D01*
X142020000Y-124090000D01*
X141680000Y-124090000D01*
X141666278Y-124089326D01*
X141652687Y-124087310D01*
X141639360Y-124083972D01*
X141626424Y-124079343D01*
X141614004Y-124073469D01*
X141602220Y-124066406D01*
X141591185Y-124058221D01*
X141581005Y-124048995D01*
X141571779Y-124038815D01*
X141563594Y-124027780D01*
X141556531Y-124015996D01*
X141550657Y-124003576D01*
X141546028Y-123990640D01*
X141542690Y-123977313D01*
X141540674Y-123963722D01*
X141540000Y-123950000D01*
X141540000Y-123670000D01*
X141540674Y-123656278D01*
X141542690Y-123642687D01*
X141546028Y-123629360D01*
X141550657Y-123616424D01*
X141556531Y-123604004D01*
X141563594Y-123592220D01*
X141571779Y-123581185D01*
X141581005Y-123571005D01*
X141591185Y-123561779D01*
X141602220Y-123553594D01*
X141614004Y-123546531D01*
X141626424Y-123540657D01*
X141639360Y-123536028D01*
X141652687Y-123532690D01*
X141666278Y-123530674D01*
X141680000Y-123530000D01*
X142020000Y-123530000D01*
X142033722Y-123530674D01*
X142033722Y-123530674D01*
G37*
D14*
X141850000Y-123810000D03*
D10*
G36*
X142033722Y-122570674D02*
G01*
X142047313Y-122572690D01*
X142060640Y-122576028D01*
X142073576Y-122580657D01*
X142085996Y-122586531D01*
X142097780Y-122593594D01*
X142108815Y-122601779D01*
X142118995Y-122611005D01*
X142128221Y-122621185D01*
X142136406Y-122632220D01*
X142143469Y-122644004D01*
X142149343Y-122656424D01*
X142153972Y-122669360D01*
X142157310Y-122682687D01*
X142159326Y-122696278D01*
X142160000Y-122710000D01*
X142160000Y-122990000D01*
X142159326Y-123003722D01*
X142157310Y-123017313D01*
X142153972Y-123030640D01*
X142149343Y-123043576D01*
X142143469Y-123055996D01*
X142136406Y-123067780D01*
X142128221Y-123078815D01*
X142118995Y-123088995D01*
X142108815Y-123098221D01*
X142097780Y-123106406D01*
X142085996Y-123113469D01*
X142073576Y-123119343D01*
X142060640Y-123123972D01*
X142047313Y-123127310D01*
X142033722Y-123129326D01*
X142020000Y-123130000D01*
X141680000Y-123130000D01*
X141666278Y-123129326D01*
X141652687Y-123127310D01*
X141639360Y-123123972D01*
X141626424Y-123119343D01*
X141614004Y-123113469D01*
X141602220Y-123106406D01*
X141591185Y-123098221D01*
X141581005Y-123088995D01*
X141571779Y-123078815D01*
X141563594Y-123067780D01*
X141556531Y-123055996D01*
X141550657Y-123043576D01*
X141546028Y-123030640D01*
X141542690Y-123017313D01*
X141540674Y-123003722D01*
X141540000Y-122990000D01*
X141540000Y-122710000D01*
X141540674Y-122696278D01*
X141542690Y-122682687D01*
X141546028Y-122669360D01*
X141550657Y-122656424D01*
X141556531Y-122644004D01*
X141563594Y-122632220D01*
X141571779Y-122621185D01*
X141581005Y-122611005D01*
X141591185Y-122601779D01*
X141602220Y-122593594D01*
X141614004Y-122586531D01*
X141626424Y-122580657D01*
X141639360Y-122576028D01*
X141652687Y-122572690D01*
X141666278Y-122570674D01*
X141680000Y-122570000D01*
X142020000Y-122570000D01*
X142033722Y-122570674D01*
X142033722Y-122570674D01*
G37*
D14*
X141850000Y-122850000D03*
%TD*%
D10*
%TO.C,C27*%
G36*
X145473722Y-121630674D02*
G01*
X145487313Y-121632690D01*
X145500640Y-121636028D01*
X145513576Y-121640657D01*
X145525996Y-121646531D01*
X145537780Y-121653594D01*
X145548815Y-121661779D01*
X145558995Y-121671005D01*
X145568221Y-121681185D01*
X145576406Y-121692220D01*
X145583469Y-121704004D01*
X145589343Y-121716424D01*
X145593972Y-121729360D01*
X145597310Y-121742687D01*
X145599326Y-121756278D01*
X145600000Y-121770000D01*
X145600000Y-122110000D01*
X145599326Y-122123722D01*
X145597310Y-122137313D01*
X145593972Y-122150640D01*
X145589343Y-122163576D01*
X145583469Y-122175996D01*
X145576406Y-122187780D01*
X145568221Y-122198815D01*
X145558995Y-122208995D01*
X145548815Y-122218221D01*
X145537780Y-122226406D01*
X145525996Y-122233469D01*
X145513576Y-122239343D01*
X145500640Y-122243972D01*
X145487313Y-122247310D01*
X145473722Y-122249326D01*
X145460000Y-122250000D01*
X145180000Y-122250000D01*
X145166278Y-122249326D01*
X145152687Y-122247310D01*
X145139360Y-122243972D01*
X145126424Y-122239343D01*
X145114004Y-122233469D01*
X145102220Y-122226406D01*
X145091185Y-122218221D01*
X145081005Y-122208995D01*
X145071779Y-122198815D01*
X145063594Y-122187780D01*
X145056531Y-122175996D01*
X145050657Y-122163576D01*
X145046028Y-122150640D01*
X145042690Y-122137313D01*
X145040674Y-122123722D01*
X145040000Y-122110000D01*
X145040000Y-121770000D01*
X145040674Y-121756278D01*
X145042690Y-121742687D01*
X145046028Y-121729360D01*
X145050657Y-121716424D01*
X145056531Y-121704004D01*
X145063594Y-121692220D01*
X145071779Y-121681185D01*
X145081005Y-121671005D01*
X145091185Y-121661779D01*
X145102220Y-121653594D01*
X145114004Y-121646531D01*
X145126424Y-121640657D01*
X145139360Y-121636028D01*
X145152687Y-121632690D01*
X145166278Y-121630674D01*
X145180000Y-121630000D01*
X145460000Y-121630000D01*
X145473722Y-121630674D01*
X145473722Y-121630674D01*
G37*
D14*
X145320000Y-121940000D03*
D10*
G36*
X144513722Y-121630674D02*
G01*
X144527313Y-121632690D01*
X144540640Y-121636028D01*
X144553576Y-121640657D01*
X144565996Y-121646531D01*
X144577780Y-121653594D01*
X144588815Y-121661779D01*
X144598995Y-121671005D01*
X144608221Y-121681185D01*
X144616406Y-121692220D01*
X144623469Y-121704004D01*
X144629343Y-121716424D01*
X144633972Y-121729360D01*
X144637310Y-121742687D01*
X144639326Y-121756278D01*
X144640000Y-121770000D01*
X144640000Y-122110000D01*
X144639326Y-122123722D01*
X144637310Y-122137313D01*
X144633972Y-122150640D01*
X144629343Y-122163576D01*
X144623469Y-122175996D01*
X144616406Y-122187780D01*
X144608221Y-122198815D01*
X144598995Y-122208995D01*
X144588815Y-122218221D01*
X144577780Y-122226406D01*
X144565996Y-122233469D01*
X144553576Y-122239343D01*
X144540640Y-122243972D01*
X144527313Y-122247310D01*
X144513722Y-122249326D01*
X144500000Y-122250000D01*
X144220000Y-122250000D01*
X144206278Y-122249326D01*
X144192687Y-122247310D01*
X144179360Y-122243972D01*
X144166424Y-122239343D01*
X144154004Y-122233469D01*
X144142220Y-122226406D01*
X144131185Y-122218221D01*
X144121005Y-122208995D01*
X144111779Y-122198815D01*
X144103594Y-122187780D01*
X144096531Y-122175996D01*
X144090657Y-122163576D01*
X144086028Y-122150640D01*
X144082690Y-122137313D01*
X144080674Y-122123722D01*
X144080000Y-122110000D01*
X144080000Y-121770000D01*
X144080674Y-121756278D01*
X144082690Y-121742687D01*
X144086028Y-121729360D01*
X144090657Y-121716424D01*
X144096531Y-121704004D01*
X144103594Y-121692220D01*
X144111779Y-121681185D01*
X144121005Y-121671005D01*
X144131185Y-121661779D01*
X144142220Y-121653594D01*
X144154004Y-121646531D01*
X144166424Y-121640657D01*
X144179360Y-121636028D01*
X144192687Y-121632690D01*
X144206278Y-121630674D01*
X144220000Y-121630000D01*
X144500000Y-121630000D01*
X144513722Y-121630674D01*
X144513722Y-121630674D01*
G37*
D14*
X144360000Y-121940000D03*
%TD*%
D10*
%TO.C,C31*%
G36*
X145473722Y-122810674D02*
G01*
X145487313Y-122812690D01*
X145500640Y-122816028D01*
X145513576Y-122820657D01*
X145525996Y-122826531D01*
X145537780Y-122833594D01*
X145548815Y-122841779D01*
X145558995Y-122851005D01*
X145568221Y-122861185D01*
X145576406Y-122872220D01*
X145583469Y-122884004D01*
X145589343Y-122896424D01*
X145593972Y-122909360D01*
X145597310Y-122922687D01*
X145599326Y-122936278D01*
X145600000Y-122950000D01*
X145600000Y-123290000D01*
X145599326Y-123303722D01*
X145597310Y-123317313D01*
X145593972Y-123330640D01*
X145589343Y-123343576D01*
X145583469Y-123355996D01*
X145576406Y-123367780D01*
X145568221Y-123378815D01*
X145558995Y-123388995D01*
X145548815Y-123398221D01*
X145537780Y-123406406D01*
X145525996Y-123413469D01*
X145513576Y-123419343D01*
X145500640Y-123423972D01*
X145487313Y-123427310D01*
X145473722Y-123429326D01*
X145460000Y-123430000D01*
X145180000Y-123430000D01*
X145166278Y-123429326D01*
X145152687Y-123427310D01*
X145139360Y-123423972D01*
X145126424Y-123419343D01*
X145114004Y-123413469D01*
X145102220Y-123406406D01*
X145091185Y-123398221D01*
X145081005Y-123388995D01*
X145071779Y-123378815D01*
X145063594Y-123367780D01*
X145056531Y-123355996D01*
X145050657Y-123343576D01*
X145046028Y-123330640D01*
X145042690Y-123317313D01*
X145040674Y-123303722D01*
X145040000Y-123290000D01*
X145040000Y-122950000D01*
X145040674Y-122936278D01*
X145042690Y-122922687D01*
X145046028Y-122909360D01*
X145050657Y-122896424D01*
X145056531Y-122884004D01*
X145063594Y-122872220D01*
X145071779Y-122861185D01*
X145081005Y-122851005D01*
X145091185Y-122841779D01*
X145102220Y-122833594D01*
X145114004Y-122826531D01*
X145126424Y-122820657D01*
X145139360Y-122816028D01*
X145152687Y-122812690D01*
X145166278Y-122810674D01*
X145180000Y-122810000D01*
X145460000Y-122810000D01*
X145473722Y-122810674D01*
X145473722Y-122810674D01*
G37*
D14*
X145320000Y-123120000D03*
D10*
G36*
X144513722Y-122810674D02*
G01*
X144527313Y-122812690D01*
X144540640Y-122816028D01*
X144553576Y-122820657D01*
X144565996Y-122826531D01*
X144577780Y-122833594D01*
X144588815Y-122841779D01*
X144598995Y-122851005D01*
X144608221Y-122861185D01*
X144616406Y-122872220D01*
X144623469Y-122884004D01*
X144629343Y-122896424D01*
X144633972Y-122909360D01*
X144637310Y-122922687D01*
X144639326Y-122936278D01*
X144640000Y-122950000D01*
X144640000Y-123290000D01*
X144639326Y-123303722D01*
X144637310Y-123317313D01*
X144633972Y-123330640D01*
X144629343Y-123343576D01*
X144623469Y-123355996D01*
X144616406Y-123367780D01*
X144608221Y-123378815D01*
X144598995Y-123388995D01*
X144588815Y-123398221D01*
X144577780Y-123406406D01*
X144565996Y-123413469D01*
X144553576Y-123419343D01*
X144540640Y-123423972D01*
X144527313Y-123427310D01*
X144513722Y-123429326D01*
X144500000Y-123430000D01*
X144220000Y-123430000D01*
X144206278Y-123429326D01*
X144192687Y-123427310D01*
X144179360Y-123423972D01*
X144166424Y-123419343D01*
X144154004Y-123413469D01*
X144142220Y-123406406D01*
X144131185Y-123398221D01*
X144121005Y-123388995D01*
X144111779Y-123378815D01*
X144103594Y-123367780D01*
X144096531Y-123355996D01*
X144090657Y-123343576D01*
X144086028Y-123330640D01*
X144082690Y-123317313D01*
X144080674Y-123303722D01*
X144080000Y-123290000D01*
X144080000Y-122950000D01*
X144080674Y-122936278D01*
X144082690Y-122922687D01*
X144086028Y-122909360D01*
X144090657Y-122896424D01*
X144096531Y-122884004D01*
X144103594Y-122872220D01*
X144111779Y-122861185D01*
X144121005Y-122851005D01*
X144131185Y-122841779D01*
X144142220Y-122833594D01*
X144154004Y-122826531D01*
X144166424Y-122820657D01*
X144179360Y-122816028D01*
X144192687Y-122812690D01*
X144206278Y-122810674D01*
X144220000Y-122810000D01*
X144500000Y-122810000D01*
X144513722Y-122810674D01*
X144513722Y-122810674D01*
G37*
D14*
X144360000Y-123120000D03*
%TD*%
D10*
%TO.C,C21*%
G36*
X146633722Y-122730674D02*
G01*
X146647313Y-122732690D01*
X146660640Y-122736028D01*
X146673576Y-122740657D01*
X146685996Y-122746531D01*
X146697780Y-122753594D01*
X146708815Y-122761779D01*
X146718995Y-122771005D01*
X146728221Y-122781185D01*
X146736406Y-122792220D01*
X146743469Y-122804004D01*
X146749343Y-122816424D01*
X146753972Y-122829360D01*
X146757310Y-122842687D01*
X146759326Y-122856278D01*
X146760000Y-122870000D01*
X146760000Y-123150000D01*
X146759326Y-123163722D01*
X146757310Y-123177313D01*
X146753972Y-123190640D01*
X146749343Y-123203576D01*
X146743469Y-123215996D01*
X146736406Y-123227780D01*
X146728221Y-123238815D01*
X146718995Y-123248995D01*
X146708815Y-123258221D01*
X146697780Y-123266406D01*
X146685996Y-123273469D01*
X146673576Y-123279343D01*
X146660640Y-123283972D01*
X146647313Y-123287310D01*
X146633722Y-123289326D01*
X146620000Y-123290000D01*
X146280000Y-123290000D01*
X146266278Y-123289326D01*
X146252687Y-123287310D01*
X146239360Y-123283972D01*
X146226424Y-123279343D01*
X146214004Y-123273469D01*
X146202220Y-123266406D01*
X146191185Y-123258221D01*
X146181005Y-123248995D01*
X146171779Y-123238815D01*
X146163594Y-123227780D01*
X146156531Y-123215996D01*
X146150657Y-123203576D01*
X146146028Y-123190640D01*
X146142690Y-123177313D01*
X146140674Y-123163722D01*
X146140000Y-123150000D01*
X146140000Y-122870000D01*
X146140674Y-122856278D01*
X146142690Y-122842687D01*
X146146028Y-122829360D01*
X146150657Y-122816424D01*
X146156531Y-122804004D01*
X146163594Y-122792220D01*
X146171779Y-122781185D01*
X146181005Y-122771005D01*
X146191185Y-122761779D01*
X146202220Y-122753594D01*
X146214004Y-122746531D01*
X146226424Y-122740657D01*
X146239360Y-122736028D01*
X146252687Y-122732690D01*
X146266278Y-122730674D01*
X146280000Y-122730000D01*
X146620000Y-122730000D01*
X146633722Y-122730674D01*
X146633722Y-122730674D01*
G37*
D14*
X146450000Y-123010000D03*
D10*
G36*
X146633722Y-121770674D02*
G01*
X146647313Y-121772690D01*
X146660640Y-121776028D01*
X146673576Y-121780657D01*
X146685996Y-121786531D01*
X146697780Y-121793594D01*
X146708815Y-121801779D01*
X146718995Y-121811005D01*
X146728221Y-121821185D01*
X146736406Y-121832220D01*
X146743469Y-121844004D01*
X146749343Y-121856424D01*
X146753972Y-121869360D01*
X146757310Y-121882687D01*
X146759326Y-121896278D01*
X146760000Y-121910000D01*
X146760000Y-122190000D01*
X146759326Y-122203722D01*
X146757310Y-122217313D01*
X146753972Y-122230640D01*
X146749343Y-122243576D01*
X146743469Y-122255996D01*
X146736406Y-122267780D01*
X146728221Y-122278815D01*
X146718995Y-122288995D01*
X146708815Y-122298221D01*
X146697780Y-122306406D01*
X146685996Y-122313469D01*
X146673576Y-122319343D01*
X146660640Y-122323972D01*
X146647313Y-122327310D01*
X146633722Y-122329326D01*
X146620000Y-122330000D01*
X146280000Y-122330000D01*
X146266278Y-122329326D01*
X146252687Y-122327310D01*
X146239360Y-122323972D01*
X146226424Y-122319343D01*
X146214004Y-122313469D01*
X146202220Y-122306406D01*
X146191185Y-122298221D01*
X146181005Y-122288995D01*
X146171779Y-122278815D01*
X146163594Y-122267780D01*
X146156531Y-122255996D01*
X146150657Y-122243576D01*
X146146028Y-122230640D01*
X146142690Y-122217313D01*
X146140674Y-122203722D01*
X146140000Y-122190000D01*
X146140000Y-121910000D01*
X146140674Y-121896278D01*
X146142690Y-121882687D01*
X146146028Y-121869360D01*
X146150657Y-121856424D01*
X146156531Y-121844004D01*
X146163594Y-121832220D01*
X146171779Y-121821185D01*
X146181005Y-121811005D01*
X146191185Y-121801779D01*
X146202220Y-121793594D01*
X146214004Y-121786531D01*
X146226424Y-121780657D01*
X146239360Y-121776028D01*
X146252687Y-121772690D01*
X146266278Y-121770674D01*
X146280000Y-121770000D01*
X146620000Y-121770000D01*
X146633722Y-121770674D01*
X146633722Y-121770674D01*
G37*
D14*
X146450000Y-122050000D03*
%TD*%
D10*
%TO.C,R4*%
G36*
X142208232Y-109140650D02*
G01*
X142221337Y-109142594D01*
X142234188Y-109145813D01*
X142246662Y-109150276D01*
X142258639Y-109155941D01*
X142270002Y-109162752D01*
X142280643Y-109170644D01*
X142290459Y-109179541D01*
X142299356Y-109189357D01*
X142307248Y-109199998D01*
X142314059Y-109211361D01*
X142319724Y-109223338D01*
X142324187Y-109235812D01*
X142327406Y-109248663D01*
X142329350Y-109261768D01*
X142330000Y-109275000D01*
X142330000Y-109645000D01*
X142329350Y-109658232D01*
X142327406Y-109671337D01*
X142324187Y-109684188D01*
X142319724Y-109696662D01*
X142314059Y-109708639D01*
X142307248Y-109720002D01*
X142299356Y-109730643D01*
X142290459Y-109740459D01*
X142280643Y-109749356D01*
X142270002Y-109757248D01*
X142258639Y-109764059D01*
X142246662Y-109769724D01*
X142234188Y-109774187D01*
X142221337Y-109777406D01*
X142208232Y-109779350D01*
X142195000Y-109780000D01*
X141925000Y-109780000D01*
X141911768Y-109779350D01*
X141898663Y-109777406D01*
X141885812Y-109774187D01*
X141873338Y-109769724D01*
X141861361Y-109764059D01*
X141849998Y-109757248D01*
X141839357Y-109749356D01*
X141829541Y-109740459D01*
X141820644Y-109730643D01*
X141812752Y-109720002D01*
X141805941Y-109708639D01*
X141800276Y-109696662D01*
X141795813Y-109684188D01*
X141792594Y-109671337D01*
X141790650Y-109658232D01*
X141790000Y-109645000D01*
X141790000Y-109275000D01*
X141790650Y-109261768D01*
X141792594Y-109248663D01*
X141795813Y-109235812D01*
X141800276Y-109223338D01*
X141805941Y-109211361D01*
X141812752Y-109199998D01*
X141820644Y-109189357D01*
X141829541Y-109179541D01*
X141839357Y-109170644D01*
X141849998Y-109162752D01*
X141861361Y-109155941D01*
X141873338Y-109150276D01*
X141885812Y-109145813D01*
X141898663Y-109142594D01*
X141911768Y-109140650D01*
X141925000Y-109140000D01*
X142195000Y-109140000D01*
X142208232Y-109140650D01*
X142208232Y-109140650D01*
G37*
D11*
X142060000Y-109460000D03*
D10*
G36*
X141188232Y-109140650D02*
G01*
X141201337Y-109142594D01*
X141214188Y-109145813D01*
X141226662Y-109150276D01*
X141238639Y-109155941D01*
X141250002Y-109162752D01*
X141260643Y-109170644D01*
X141270459Y-109179541D01*
X141279356Y-109189357D01*
X141287248Y-109199998D01*
X141294059Y-109211361D01*
X141299724Y-109223338D01*
X141304187Y-109235812D01*
X141307406Y-109248663D01*
X141309350Y-109261768D01*
X141310000Y-109275000D01*
X141310000Y-109645000D01*
X141309350Y-109658232D01*
X141307406Y-109671337D01*
X141304187Y-109684188D01*
X141299724Y-109696662D01*
X141294059Y-109708639D01*
X141287248Y-109720002D01*
X141279356Y-109730643D01*
X141270459Y-109740459D01*
X141260643Y-109749356D01*
X141250002Y-109757248D01*
X141238639Y-109764059D01*
X141226662Y-109769724D01*
X141214188Y-109774187D01*
X141201337Y-109777406D01*
X141188232Y-109779350D01*
X141175000Y-109780000D01*
X140905000Y-109780000D01*
X140891768Y-109779350D01*
X140878663Y-109777406D01*
X140865812Y-109774187D01*
X140853338Y-109769724D01*
X140841361Y-109764059D01*
X140829998Y-109757248D01*
X140819357Y-109749356D01*
X140809541Y-109740459D01*
X140800644Y-109730643D01*
X140792752Y-109720002D01*
X140785941Y-109708639D01*
X140780276Y-109696662D01*
X140775813Y-109684188D01*
X140772594Y-109671337D01*
X140770650Y-109658232D01*
X140770000Y-109645000D01*
X140770000Y-109275000D01*
X140770650Y-109261768D01*
X140772594Y-109248663D01*
X140775813Y-109235812D01*
X140780276Y-109223338D01*
X140785941Y-109211361D01*
X140792752Y-109199998D01*
X140800644Y-109189357D01*
X140809541Y-109179541D01*
X140819357Y-109170644D01*
X140829998Y-109162752D01*
X140841361Y-109155941D01*
X140853338Y-109150276D01*
X140865812Y-109145813D01*
X140878663Y-109142594D01*
X140891768Y-109140650D01*
X140905000Y-109140000D01*
X141175000Y-109140000D01*
X141188232Y-109140650D01*
X141188232Y-109140650D01*
G37*
D11*
X141040000Y-109460000D03*
%TD*%
D10*
%TO.C,C29*%
G36*
X135323722Y-117100674D02*
G01*
X135337313Y-117102690D01*
X135350640Y-117106028D01*
X135363576Y-117110657D01*
X135375996Y-117116531D01*
X135387780Y-117123594D01*
X135398815Y-117131779D01*
X135408995Y-117141005D01*
X135418221Y-117151185D01*
X135426406Y-117162220D01*
X135433469Y-117174004D01*
X135439343Y-117186424D01*
X135443972Y-117199360D01*
X135447310Y-117212687D01*
X135449326Y-117226278D01*
X135450000Y-117240000D01*
X135450000Y-117580000D01*
X135449326Y-117593722D01*
X135447310Y-117607313D01*
X135443972Y-117620640D01*
X135439343Y-117633576D01*
X135433469Y-117645996D01*
X135426406Y-117657780D01*
X135418221Y-117668815D01*
X135408995Y-117678995D01*
X135398815Y-117688221D01*
X135387780Y-117696406D01*
X135375996Y-117703469D01*
X135363576Y-117709343D01*
X135350640Y-117713972D01*
X135337313Y-117717310D01*
X135323722Y-117719326D01*
X135310000Y-117720000D01*
X135030000Y-117720000D01*
X135016278Y-117719326D01*
X135002687Y-117717310D01*
X134989360Y-117713972D01*
X134976424Y-117709343D01*
X134964004Y-117703469D01*
X134952220Y-117696406D01*
X134941185Y-117688221D01*
X134931005Y-117678995D01*
X134921779Y-117668815D01*
X134913594Y-117657780D01*
X134906531Y-117645996D01*
X134900657Y-117633576D01*
X134896028Y-117620640D01*
X134892690Y-117607313D01*
X134890674Y-117593722D01*
X134890000Y-117580000D01*
X134890000Y-117240000D01*
X134890674Y-117226278D01*
X134892690Y-117212687D01*
X134896028Y-117199360D01*
X134900657Y-117186424D01*
X134906531Y-117174004D01*
X134913594Y-117162220D01*
X134921779Y-117151185D01*
X134931005Y-117141005D01*
X134941185Y-117131779D01*
X134952220Y-117123594D01*
X134964004Y-117116531D01*
X134976424Y-117110657D01*
X134989360Y-117106028D01*
X135002687Y-117102690D01*
X135016278Y-117100674D01*
X135030000Y-117100000D01*
X135310000Y-117100000D01*
X135323722Y-117100674D01*
X135323722Y-117100674D01*
G37*
D14*
X135170000Y-117410000D03*
D10*
G36*
X136283722Y-117100674D02*
G01*
X136297313Y-117102690D01*
X136310640Y-117106028D01*
X136323576Y-117110657D01*
X136335996Y-117116531D01*
X136347780Y-117123594D01*
X136358815Y-117131779D01*
X136368995Y-117141005D01*
X136378221Y-117151185D01*
X136386406Y-117162220D01*
X136393469Y-117174004D01*
X136399343Y-117186424D01*
X136403972Y-117199360D01*
X136407310Y-117212687D01*
X136409326Y-117226278D01*
X136410000Y-117240000D01*
X136410000Y-117580000D01*
X136409326Y-117593722D01*
X136407310Y-117607313D01*
X136403972Y-117620640D01*
X136399343Y-117633576D01*
X136393469Y-117645996D01*
X136386406Y-117657780D01*
X136378221Y-117668815D01*
X136368995Y-117678995D01*
X136358815Y-117688221D01*
X136347780Y-117696406D01*
X136335996Y-117703469D01*
X136323576Y-117709343D01*
X136310640Y-117713972D01*
X136297313Y-117717310D01*
X136283722Y-117719326D01*
X136270000Y-117720000D01*
X135990000Y-117720000D01*
X135976278Y-117719326D01*
X135962687Y-117717310D01*
X135949360Y-117713972D01*
X135936424Y-117709343D01*
X135924004Y-117703469D01*
X135912220Y-117696406D01*
X135901185Y-117688221D01*
X135891005Y-117678995D01*
X135881779Y-117668815D01*
X135873594Y-117657780D01*
X135866531Y-117645996D01*
X135860657Y-117633576D01*
X135856028Y-117620640D01*
X135852690Y-117607313D01*
X135850674Y-117593722D01*
X135850000Y-117580000D01*
X135850000Y-117240000D01*
X135850674Y-117226278D01*
X135852690Y-117212687D01*
X135856028Y-117199360D01*
X135860657Y-117186424D01*
X135866531Y-117174004D01*
X135873594Y-117162220D01*
X135881779Y-117151185D01*
X135891005Y-117141005D01*
X135901185Y-117131779D01*
X135912220Y-117123594D01*
X135924004Y-117116531D01*
X135936424Y-117110657D01*
X135949360Y-117106028D01*
X135962687Y-117102690D01*
X135976278Y-117100674D01*
X135990000Y-117100000D01*
X136270000Y-117100000D01*
X136283722Y-117100674D01*
X136283722Y-117100674D01*
G37*
D14*
X136130000Y-117410000D03*
%TD*%
D10*
%TO.C,C28*%
G36*
X135123722Y-120690674D02*
G01*
X135137313Y-120692690D01*
X135150640Y-120696028D01*
X135163576Y-120700657D01*
X135175996Y-120706531D01*
X135187780Y-120713594D01*
X135198815Y-120721779D01*
X135208995Y-120731005D01*
X135218221Y-120741185D01*
X135226406Y-120752220D01*
X135233469Y-120764004D01*
X135239343Y-120776424D01*
X135243972Y-120789360D01*
X135247310Y-120802687D01*
X135249326Y-120816278D01*
X135250000Y-120830000D01*
X135250000Y-121170000D01*
X135249326Y-121183722D01*
X135247310Y-121197313D01*
X135243972Y-121210640D01*
X135239343Y-121223576D01*
X135233469Y-121235996D01*
X135226406Y-121247780D01*
X135218221Y-121258815D01*
X135208995Y-121268995D01*
X135198815Y-121278221D01*
X135187780Y-121286406D01*
X135175996Y-121293469D01*
X135163576Y-121299343D01*
X135150640Y-121303972D01*
X135137313Y-121307310D01*
X135123722Y-121309326D01*
X135110000Y-121310000D01*
X134830000Y-121310000D01*
X134816278Y-121309326D01*
X134802687Y-121307310D01*
X134789360Y-121303972D01*
X134776424Y-121299343D01*
X134764004Y-121293469D01*
X134752220Y-121286406D01*
X134741185Y-121278221D01*
X134731005Y-121268995D01*
X134721779Y-121258815D01*
X134713594Y-121247780D01*
X134706531Y-121235996D01*
X134700657Y-121223576D01*
X134696028Y-121210640D01*
X134692690Y-121197313D01*
X134690674Y-121183722D01*
X134690000Y-121170000D01*
X134690000Y-120830000D01*
X134690674Y-120816278D01*
X134692690Y-120802687D01*
X134696028Y-120789360D01*
X134700657Y-120776424D01*
X134706531Y-120764004D01*
X134713594Y-120752220D01*
X134721779Y-120741185D01*
X134731005Y-120731005D01*
X134741185Y-120721779D01*
X134752220Y-120713594D01*
X134764004Y-120706531D01*
X134776424Y-120700657D01*
X134789360Y-120696028D01*
X134802687Y-120692690D01*
X134816278Y-120690674D01*
X134830000Y-120690000D01*
X135110000Y-120690000D01*
X135123722Y-120690674D01*
X135123722Y-120690674D01*
G37*
D14*
X134970000Y-121000000D03*
D10*
G36*
X136083722Y-120690674D02*
G01*
X136097313Y-120692690D01*
X136110640Y-120696028D01*
X136123576Y-120700657D01*
X136135996Y-120706531D01*
X136147780Y-120713594D01*
X136158815Y-120721779D01*
X136168995Y-120731005D01*
X136178221Y-120741185D01*
X136186406Y-120752220D01*
X136193469Y-120764004D01*
X136199343Y-120776424D01*
X136203972Y-120789360D01*
X136207310Y-120802687D01*
X136209326Y-120816278D01*
X136210000Y-120830000D01*
X136210000Y-121170000D01*
X136209326Y-121183722D01*
X136207310Y-121197313D01*
X136203972Y-121210640D01*
X136199343Y-121223576D01*
X136193469Y-121235996D01*
X136186406Y-121247780D01*
X136178221Y-121258815D01*
X136168995Y-121268995D01*
X136158815Y-121278221D01*
X136147780Y-121286406D01*
X136135996Y-121293469D01*
X136123576Y-121299343D01*
X136110640Y-121303972D01*
X136097313Y-121307310D01*
X136083722Y-121309326D01*
X136070000Y-121310000D01*
X135790000Y-121310000D01*
X135776278Y-121309326D01*
X135762687Y-121307310D01*
X135749360Y-121303972D01*
X135736424Y-121299343D01*
X135724004Y-121293469D01*
X135712220Y-121286406D01*
X135701185Y-121278221D01*
X135691005Y-121268995D01*
X135681779Y-121258815D01*
X135673594Y-121247780D01*
X135666531Y-121235996D01*
X135660657Y-121223576D01*
X135656028Y-121210640D01*
X135652690Y-121197313D01*
X135650674Y-121183722D01*
X135650000Y-121170000D01*
X135650000Y-120830000D01*
X135650674Y-120816278D01*
X135652690Y-120802687D01*
X135656028Y-120789360D01*
X135660657Y-120776424D01*
X135666531Y-120764004D01*
X135673594Y-120752220D01*
X135681779Y-120741185D01*
X135691005Y-120731005D01*
X135701185Y-120721779D01*
X135712220Y-120713594D01*
X135724004Y-120706531D01*
X135736424Y-120700657D01*
X135749360Y-120696028D01*
X135762687Y-120692690D01*
X135776278Y-120690674D01*
X135790000Y-120690000D01*
X136070000Y-120690000D01*
X136083722Y-120690674D01*
X136083722Y-120690674D01*
G37*
D14*
X135930000Y-121000000D03*
%TD*%
D10*
%TO.C,C20*%
G36*
X143983722Y-110430674D02*
G01*
X143997313Y-110432690D01*
X144010640Y-110436028D01*
X144023576Y-110440657D01*
X144035996Y-110446531D01*
X144047780Y-110453594D01*
X144058815Y-110461779D01*
X144068995Y-110471005D01*
X144078221Y-110481185D01*
X144086406Y-110492220D01*
X144093469Y-110504004D01*
X144099343Y-110516424D01*
X144103972Y-110529360D01*
X144107310Y-110542687D01*
X144109326Y-110556278D01*
X144110000Y-110570000D01*
X144110000Y-110850000D01*
X144109326Y-110863722D01*
X144107310Y-110877313D01*
X144103972Y-110890640D01*
X144099343Y-110903576D01*
X144093469Y-110915996D01*
X144086406Y-110927780D01*
X144078221Y-110938815D01*
X144068995Y-110948995D01*
X144058815Y-110958221D01*
X144047780Y-110966406D01*
X144035996Y-110973469D01*
X144023576Y-110979343D01*
X144010640Y-110983972D01*
X143997313Y-110987310D01*
X143983722Y-110989326D01*
X143970000Y-110990000D01*
X143630000Y-110990000D01*
X143616278Y-110989326D01*
X143602687Y-110987310D01*
X143589360Y-110983972D01*
X143576424Y-110979343D01*
X143564004Y-110973469D01*
X143552220Y-110966406D01*
X143541185Y-110958221D01*
X143531005Y-110948995D01*
X143521779Y-110938815D01*
X143513594Y-110927780D01*
X143506531Y-110915996D01*
X143500657Y-110903576D01*
X143496028Y-110890640D01*
X143492690Y-110877313D01*
X143490674Y-110863722D01*
X143490000Y-110850000D01*
X143490000Y-110570000D01*
X143490674Y-110556278D01*
X143492690Y-110542687D01*
X143496028Y-110529360D01*
X143500657Y-110516424D01*
X143506531Y-110504004D01*
X143513594Y-110492220D01*
X143521779Y-110481185D01*
X143531005Y-110471005D01*
X143541185Y-110461779D01*
X143552220Y-110453594D01*
X143564004Y-110446531D01*
X143576424Y-110440657D01*
X143589360Y-110436028D01*
X143602687Y-110432690D01*
X143616278Y-110430674D01*
X143630000Y-110430000D01*
X143970000Y-110430000D01*
X143983722Y-110430674D01*
X143983722Y-110430674D01*
G37*
D14*
X143800000Y-110710000D03*
D10*
G36*
X143983722Y-111390674D02*
G01*
X143997313Y-111392690D01*
X144010640Y-111396028D01*
X144023576Y-111400657D01*
X144035996Y-111406531D01*
X144047780Y-111413594D01*
X144058815Y-111421779D01*
X144068995Y-111431005D01*
X144078221Y-111441185D01*
X144086406Y-111452220D01*
X144093469Y-111464004D01*
X144099343Y-111476424D01*
X144103972Y-111489360D01*
X144107310Y-111502687D01*
X144109326Y-111516278D01*
X144110000Y-111530000D01*
X144110000Y-111810000D01*
X144109326Y-111823722D01*
X144107310Y-111837313D01*
X144103972Y-111850640D01*
X144099343Y-111863576D01*
X144093469Y-111875996D01*
X144086406Y-111887780D01*
X144078221Y-111898815D01*
X144068995Y-111908995D01*
X144058815Y-111918221D01*
X144047780Y-111926406D01*
X144035996Y-111933469D01*
X144023576Y-111939343D01*
X144010640Y-111943972D01*
X143997313Y-111947310D01*
X143983722Y-111949326D01*
X143970000Y-111950000D01*
X143630000Y-111950000D01*
X143616278Y-111949326D01*
X143602687Y-111947310D01*
X143589360Y-111943972D01*
X143576424Y-111939343D01*
X143564004Y-111933469D01*
X143552220Y-111926406D01*
X143541185Y-111918221D01*
X143531005Y-111908995D01*
X143521779Y-111898815D01*
X143513594Y-111887780D01*
X143506531Y-111875996D01*
X143500657Y-111863576D01*
X143496028Y-111850640D01*
X143492690Y-111837313D01*
X143490674Y-111823722D01*
X143490000Y-111810000D01*
X143490000Y-111530000D01*
X143490674Y-111516278D01*
X143492690Y-111502687D01*
X143496028Y-111489360D01*
X143500657Y-111476424D01*
X143506531Y-111464004D01*
X143513594Y-111452220D01*
X143521779Y-111441185D01*
X143531005Y-111431005D01*
X143541185Y-111421779D01*
X143552220Y-111413594D01*
X143564004Y-111406531D01*
X143576424Y-111400657D01*
X143589360Y-111396028D01*
X143602687Y-111392690D01*
X143616278Y-111390674D01*
X143630000Y-111390000D01*
X143970000Y-111390000D01*
X143983722Y-111390674D01*
X143983722Y-111390674D01*
G37*
D14*
X143800000Y-111670000D03*
%TD*%
D10*
%TO.C,C19*%
G36*
X139483722Y-110450674D02*
G01*
X139497313Y-110452690D01*
X139510640Y-110456028D01*
X139523576Y-110460657D01*
X139535996Y-110466531D01*
X139547780Y-110473594D01*
X139558815Y-110481779D01*
X139568995Y-110491005D01*
X139578221Y-110501185D01*
X139586406Y-110512220D01*
X139593469Y-110524004D01*
X139599343Y-110536424D01*
X139603972Y-110549360D01*
X139607310Y-110562687D01*
X139609326Y-110576278D01*
X139610000Y-110590000D01*
X139610000Y-110870000D01*
X139609326Y-110883722D01*
X139607310Y-110897313D01*
X139603972Y-110910640D01*
X139599343Y-110923576D01*
X139593469Y-110935996D01*
X139586406Y-110947780D01*
X139578221Y-110958815D01*
X139568995Y-110968995D01*
X139558815Y-110978221D01*
X139547780Y-110986406D01*
X139535996Y-110993469D01*
X139523576Y-110999343D01*
X139510640Y-111003972D01*
X139497313Y-111007310D01*
X139483722Y-111009326D01*
X139470000Y-111010000D01*
X139130000Y-111010000D01*
X139116278Y-111009326D01*
X139102687Y-111007310D01*
X139089360Y-111003972D01*
X139076424Y-110999343D01*
X139064004Y-110993469D01*
X139052220Y-110986406D01*
X139041185Y-110978221D01*
X139031005Y-110968995D01*
X139021779Y-110958815D01*
X139013594Y-110947780D01*
X139006531Y-110935996D01*
X139000657Y-110923576D01*
X138996028Y-110910640D01*
X138992690Y-110897313D01*
X138990674Y-110883722D01*
X138990000Y-110870000D01*
X138990000Y-110590000D01*
X138990674Y-110576278D01*
X138992690Y-110562687D01*
X138996028Y-110549360D01*
X139000657Y-110536424D01*
X139006531Y-110524004D01*
X139013594Y-110512220D01*
X139021779Y-110501185D01*
X139031005Y-110491005D01*
X139041185Y-110481779D01*
X139052220Y-110473594D01*
X139064004Y-110466531D01*
X139076424Y-110460657D01*
X139089360Y-110456028D01*
X139102687Y-110452690D01*
X139116278Y-110450674D01*
X139130000Y-110450000D01*
X139470000Y-110450000D01*
X139483722Y-110450674D01*
X139483722Y-110450674D01*
G37*
D14*
X139300000Y-110730000D03*
D10*
G36*
X139483722Y-111410674D02*
G01*
X139497313Y-111412690D01*
X139510640Y-111416028D01*
X139523576Y-111420657D01*
X139535996Y-111426531D01*
X139547780Y-111433594D01*
X139558815Y-111441779D01*
X139568995Y-111451005D01*
X139578221Y-111461185D01*
X139586406Y-111472220D01*
X139593469Y-111484004D01*
X139599343Y-111496424D01*
X139603972Y-111509360D01*
X139607310Y-111522687D01*
X139609326Y-111536278D01*
X139610000Y-111550000D01*
X139610000Y-111830000D01*
X139609326Y-111843722D01*
X139607310Y-111857313D01*
X139603972Y-111870640D01*
X139599343Y-111883576D01*
X139593469Y-111895996D01*
X139586406Y-111907780D01*
X139578221Y-111918815D01*
X139568995Y-111928995D01*
X139558815Y-111938221D01*
X139547780Y-111946406D01*
X139535996Y-111953469D01*
X139523576Y-111959343D01*
X139510640Y-111963972D01*
X139497313Y-111967310D01*
X139483722Y-111969326D01*
X139470000Y-111970000D01*
X139130000Y-111970000D01*
X139116278Y-111969326D01*
X139102687Y-111967310D01*
X139089360Y-111963972D01*
X139076424Y-111959343D01*
X139064004Y-111953469D01*
X139052220Y-111946406D01*
X139041185Y-111938221D01*
X139031005Y-111928995D01*
X139021779Y-111918815D01*
X139013594Y-111907780D01*
X139006531Y-111895996D01*
X139000657Y-111883576D01*
X138996028Y-111870640D01*
X138992690Y-111857313D01*
X138990674Y-111843722D01*
X138990000Y-111830000D01*
X138990000Y-111550000D01*
X138990674Y-111536278D01*
X138992690Y-111522687D01*
X138996028Y-111509360D01*
X139000657Y-111496424D01*
X139006531Y-111484004D01*
X139013594Y-111472220D01*
X139021779Y-111461185D01*
X139031005Y-111451005D01*
X139041185Y-111441779D01*
X139052220Y-111433594D01*
X139064004Y-111426531D01*
X139076424Y-111420657D01*
X139089360Y-111416028D01*
X139102687Y-111412690D01*
X139116278Y-111410674D01*
X139130000Y-111410000D01*
X139470000Y-111410000D01*
X139483722Y-111410674D01*
X139483722Y-111410674D01*
G37*
D14*
X139300000Y-111690000D03*
%TD*%
D10*
%TO.C,C25*%
G36*
X146243722Y-118750674D02*
G01*
X146257313Y-118752690D01*
X146270640Y-118756028D01*
X146283576Y-118760657D01*
X146295996Y-118766531D01*
X146307780Y-118773594D01*
X146318815Y-118781779D01*
X146328995Y-118791005D01*
X146338221Y-118801185D01*
X146346406Y-118812220D01*
X146353469Y-118824004D01*
X146359343Y-118836424D01*
X146363972Y-118849360D01*
X146367310Y-118862687D01*
X146369326Y-118876278D01*
X146370000Y-118890000D01*
X146370000Y-119170000D01*
X146369326Y-119183722D01*
X146367310Y-119197313D01*
X146363972Y-119210640D01*
X146359343Y-119223576D01*
X146353469Y-119235996D01*
X146346406Y-119247780D01*
X146338221Y-119258815D01*
X146328995Y-119268995D01*
X146318815Y-119278221D01*
X146307780Y-119286406D01*
X146295996Y-119293469D01*
X146283576Y-119299343D01*
X146270640Y-119303972D01*
X146257313Y-119307310D01*
X146243722Y-119309326D01*
X146230000Y-119310000D01*
X145890000Y-119310000D01*
X145876278Y-119309326D01*
X145862687Y-119307310D01*
X145849360Y-119303972D01*
X145836424Y-119299343D01*
X145824004Y-119293469D01*
X145812220Y-119286406D01*
X145801185Y-119278221D01*
X145791005Y-119268995D01*
X145781779Y-119258815D01*
X145773594Y-119247780D01*
X145766531Y-119235996D01*
X145760657Y-119223576D01*
X145756028Y-119210640D01*
X145752690Y-119197313D01*
X145750674Y-119183722D01*
X145750000Y-119170000D01*
X145750000Y-118890000D01*
X145750674Y-118876278D01*
X145752690Y-118862687D01*
X145756028Y-118849360D01*
X145760657Y-118836424D01*
X145766531Y-118824004D01*
X145773594Y-118812220D01*
X145781779Y-118801185D01*
X145791005Y-118791005D01*
X145801185Y-118781779D01*
X145812220Y-118773594D01*
X145824004Y-118766531D01*
X145836424Y-118760657D01*
X145849360Y-118756028D01*
X145862687Y-118752690D01*
X145876278Y-118750674D01*
X145890000Y-118750000D01*
X146230000Y-118750000D01*
X146243722Y-118750674D01*
X146243722Y-118750674D01*
G37*
D14*
X146060000Y-119030000D03*
D10*
G36*
X146243722Y-119710674D02*
G01*
X146257313Y-119712690D01*
X146270640Y-119716028D01*
X146283576Y-119720657D01*
X146295996Y-119726531D01*
X146307780Y-119733594D01*
X146318815Y-119741779D01*
X146328995Y-119751005D01*
X146338221Y-119761185D01*
X146346406Y-119772220D01*
X146353469Y-119784004D01*
X146359343Y-119796424D01*
X146363972Y-119809360D01*
X146367310Y-119822687D01*
X146369326Y-119836278D01*
X146370000Y-119850000D01*
X146370000Y-120130000D01*
X146369326Y-120143722D01*
X146367310Y-120157313D01*
X146363972Y-120170640D01*
X146359343Y-120183576D01*
X146353469Y-120195996D01*
X146346406Y-120207780D01*
X146338221Y-120218815D01*
X146328995Y-120228995D01*
X146318815Y-120238221D01*
X146307780Y-120246406D01*
X146295996Y-120253469D01*
X146283576Y-120259343D01*
X146270640Y-120263972D01*
X146257313Y-120267310D01*
X146243722Y-120269326D01*
X146230000Y-120270000D01*
X145890000Y-120270000D01*
X145876278Y-120269326D01*
X145862687Y-120267310D01*
X145849360Y-120263972D01*
X145836424Y-120259343D01*
X145824004Y-120253469D01*
X145812220Y-120246406D01*
X145801185Y-120238221D01*
X145791005Y-120228995D01*
X145781779Y-120218815D01*
X145773594Y-120207780D01*
X145766531Y-120195996D01*
X145760657Y-120183576D01*
X145756028Y-120170640D01*
X145752690Y-120157313D01*
X145750674Y-120143722D01*
X145750000Y-120130000D01*
X145750000Y-119850000D01*
X145750674Y-119836278D01*
X145752690Y-119822687D01*
X145756028Y-119809360D01*
X145760657Y-119796424D01*
X145766531Y-119784004D01*
X145773594Y-119772220D01*
X145781779Y-119761185D01*
X145791005Y-119751005D01*
X145801185Y-119741779D01*
X145812220Y-119733594D01*
X145824004Y-119726531D01*
X145836424Y-119720657D01*
X145849360Y-119716028D01*
X145862687Y-119712690D01*
X145876278Y-119710674D01*
X145890000Y-119710000D01*
X146230000Y-119710000D01*
X146243722Y-119710674D01*
X146243722Y-119710674D01*
G37*
D14*
X146060000Y-119990000D03*
%TD*%
D10*
%TO.C,C22*%
G36*
X136863722Y-115090674D02*
G01*
X136877313Y-115092690D01*
X136890640Y-115096028D01*
X136903576Y-115100657D01*
X136915996Y-115106531D01*
X136927780Y-115113594D01*
X136938815Y-115121779D01*
X136948995Y-115131005D01*
X136958221Y-115141185D01*
X136966406Y-115152220D01*
X136973469Y-115164004D01*
X136979343Y-115176424D01*
X136983972Y-115189360D01*
X136987310Y-115202687D01*
X136989326Y-115216278D01*
X136990000Y-115230000D01*
X136990000Y-115570000D01*
X136989326Y-115583722D01*
X136987310Y-115597313D01*
X136983972Y-115610640D01*
X136979343Y-115623576D01*
X136973469Y-115635996D01*
X136966406Y-115647780D01*
X136958221Y-115658815D01*
X136948995Y-115668995D01*
X136938815Y-115678221D01*
X136927780Y-115686406D01*
X136915996Y-115693469D01*
X136903576Y-115699343D01*
X136890640Y-115703972D01*
X136877313Y-115707310D01*
X136863722Y-115709326D01*
X136850000Y-115710000D01*
X136570000Y-115710000D01*
X136556278Y-115709326D01*
X136542687Y-115707310D01*
X136529360Y-115703972D01*
X136516424Y-115699343D01*
X136504004Y-115693469D01*
X136492220Y-115686406D01*
X136481185Y-115678221D01*
X136471005Y-115668995D01*
X136461779Y-115658815D01*
X136453594Y-115647780D01*
X136446531Y-115635996D01*
X136440657Y-115623576D01*
X136436028Y-115610640D01*
X136432690Y-115597313D01*
X136430674Y-115583722D01*
X136430000Y-115570000D01*
X136430000Y-115230000D01*
X136430674Y-115216278D01*
X136432690Y-115202687D01*
X136436028Y-115189360D01*
X136440657Y-115176424D01*
X136446531Y-115164004D01*
X136453594Y-115152220D01*
X136461779Y-115141185D01*
X136471005Y-115131005D01*
X136481185Y-115121779D01*
X136492220Y-115113594D01*
X136504004Y-115106531D01*
X136516424Y-115100657D01*
X136529360Y-115096028D01*
X136542687Y-115092690D01*
X136556278Y-115090674D01*
X136570000Y-115090000D01*
X136850000Y-115090000D01*
X136863722Y-115090674D01*
X136863722Y-115090674D01*
G37*
D14*
X136710000Y-115400000D03*
D10*
G36*
X135903722Y-115090674D02*
G01*
X135917313Y-115092690D01*
X135930640Y-115096028D01*
X135943576Y-115100657D01*
X135955996Y-115106531D01*
X135967780Y-115113594D01*
X135978815Y-115121779D01*
X135988995Y-115131005D01*
X135998221Y-115141185D01*
X136006406Y-115152220D01*
X136013469Y-115164004D01*
X136019343Y-115176424D01*
X136023972Y-115189360D01*
X136027310Y-115202687D01*
X136029326Y-115216278D01*
X136030000Y-115230000D01*
X136030000Y-115570000D01*
X136029326Y-115583722D01*
X136027310Y-115597313D01*
X136023972Y-115610640D01*
X136019343Y-115623576D01*
X136013469Y-115635996D01*
X136006406Y-115647780D01*
X135998221Y-115658815D01*
X135988995Y-115668995D01*
X135978815Y-115678221D01*
X135967780Y-115686406D01*
X135955996Y-115693469D01*
X135943576Y-115699343D01*
X135930640Y-115703972D01*
X135917313Y-115707310D01*
X135903722Y-115709326D01*
X135890000Y-115710000D01*
X135610000Y-115710000D01*
X135596278Y-115709326D01*
X135582687Y-115707310D01*
X135569360Y-115703972D01*
X135556424Y-115699343D01*
X135544004Y-115693469D01*
X135532220Y-115686406D01*
X135521185Y-115678221D01*
X135511005Y-115668995D01*
X135501779Y-115658815D01*
X135493594Y-115647780D01*
X135486531Y-115635996D01*
X135480657Y-115623576D01*
X135476028Y-115610640D01*
X135472690Y-115597313D01*
X135470674Y-115583722D01*
X135470000Y-115570000D01*
X135470000Y-115230000D01*
X135470674Y-115216278D01*
X135472690Y-115202687D01*
X135476028Y-115189360D01*
X135480657Y-115176424D01*
X135486531Y-115164004D01*
X135493594Y-115152220D01*
X135501779Y-115141185D01*
X135511005Y-115131005D01*
X135521185Y-115121779D01*
X135532220Y-115113594D01*
X135544004Y-115106531D01*
X135556424Y-115100657D01*
X135569360Y-115096028D01*
X135582687Y-115092690D01*
X135596278Y-115090674D01*
X135610000Y-115090000D01*
X135890000Y-115090000D01*
X135903722Y-115090674D01*
X135903722Y-115090674D01*
G37*
D14*
X135750000Y-115400000D03*
%TD*%
D10*
%TO.C,C18*%
G36*
X146883722Y-117730674D02*
G01*
X146897313Y-117732690D01*
X146910640Y-117736028D01*
X146923576Y-117740657D01*
X146935996Y-117746531D01*
X146947780Y-117753594D01*
X146958815Y-117761779D01*
X146968995Y-117771005D01*
X146978221Y-117781185D01*
X146986406Y-117792220D01*
X146993469Y-117804004D01*
X146999343Y-117816424D01*
X147003972Y-117829360D01*
X147007310Y-117842687D01*
X147009326Y-117856278D01*
X147010000Y-117870000D01*
X147010000Y-118210000D01*
X147009326Y-118223722D01*
X147007310Y-118237313D01*
X147003972Y-118250640D01*
X146999343Y-118263576D01*
X146993469Y-118275996D01*
X146986406Y-118287780D01*
X146978221Y-118298815D01*
X146968995Y-118308995D01*
X146958815Y-118318221D01*
X146947780Y-118326406D01*
X146935996Y-118333469D01*
X146923576Y-118339343D01*
X146910640Y-118343972D01*
X146897313Y-118347310D01*
X146883722Y-118349326D01*
X146870000Y-118350000D01*
X146590000Y-118350000D01*
X146576278Y-118349326D01*
X146562687Y-118347310D01*
X146549360Y-118343972D01*
X146536424Y-118339343D01*
X146524004Y-118333469D01*
X146512220Y-118326406D01*
X146501185Y-118318221D01*
X146491005Y-118308995D01*
X146481779Y-118298815D01*
X146473594Y-118287780D01*
X146466531Y-118275996D01*
X146460657Y-118263576D01*
X146456028Y-118250640D01*
X146452690Y-118237313D01*
X146450674Y-118223722D01*
X146450000Y-118210000D01*
X146450000Y-117870000D01*
X146450674Y-117856278D01*
X146452690Y-117842687D01*
X146456028Y-117829360D01*
X146460657Y-117816424D01*
X146466531Y-117804004D01*
X146473594Y-117792220D01*
X146481779Y-117781185D01*
X146491005Y-117771005D01*
X146501185Y-117761779D01*
X146512220Y-117753594D01*
X146524004Y-117746531D01*
X146536424Y-117740657D01*
X146549360Y-117736028D01*
X146562687Y-117732690D01*
X146576278Y-117730674D01*
X146590000Y-117730000D01*
X146870000Y-117730000D01*
X146883722Y-117730674D01*
X146883722Y-117730674D01*
G37*
D14*
X146730000Y-118040000D03*
D10*
G36*
X145923722Y-117730674D02*
G01*
X145937313Y-117732690D01*
X145950640Y-117736028D01*
X145963576Y-117740657D01*
X145975996Y-117746531D01*
X145987780Y-117753594D01*
X145998815Y-117761779D01*
X146008995Y-117771005D01*
X146018221Y-117781185D01*
X146026406Y-117792220D01*
X146033469Y-117804004D01*
X146039343Y-117816424D01*
X146043972Y-117829360D01*
X146047310Y-117842687D01*
X146049326Y-117856278D01*
X146050000Y-117870000D01*
X146050000Y-118210000D01*
X146049326Y-118223722D01*
X146047310Y-118237313D01*
X146043972Y-118250640D01*
X146039343Y-118263576D01*
X146033469Y-118275996D01*
X146026406Y-118287780D01*
X146018221Y-118298815D01*
X146008995Y-118308995D01*
X145998815Y-118318221D01*
X145987780Y-118326406D01*
X145975996Y-118333469D01*
X145963576Y-118339343D01*
X145950640Y-118343972D01*
X145937313Y-118347310D01*
X145923722Y-118349326D01*
X145910000Y-118350000D01*
X145630000Y-118350000D01*
X145616278Y-118349326D01*
X145602687Y-118347310D01*
X145589360Y-118343972D01*
X145576424Y-118339343D01*
X145564004Y-118333469D01*
X145552220Y-118326406D01*
X145541185Y-118318221D01*
X145531005Y-118308995D01*
X145521779Y-118298815D01*
X145513594Y-118287780D01*
X145506531Y-118275996D01*
X145500657Y-118263576D01*
X145496028Y-118250640D01*
X145492690Y-118237313D01*
X145490674Y-118223722D01*
X145490000Y-118210000D01*
X145490000Y-117870000D01*
X145490674Y-117856278D01*
X145492690Y-117842687D01*
X145496028Y-117829360D01*
X145500657Y-117816424D01*
X145506531Y-117804004D01*
X145513594Y-117792220D01*
X145521779Y-117781185D01*
X145531005Y-117771005D01*
X145541185Y-117761779D01*
X145552220Y-117753594D01*
X145564004Y-117746531D01*
X145576424Y-117740657D01*
X145589360Y-117736028D01*
X145602687Y-117732690D01*
X145616278Y-117730674D01*
X145630000Y-117730000D01*
X145910000Y-117730000D01*
X145923722Y-117730674D01*
X145923722Y-117730674D01*
G37*
D14*
X145770000Y-118040000D03*
%TD*%
D10*
%TO.C,C17*%
G36*
X135343722Y-116090674D02*
G01*
X135357313Y-116092690D01*
X135370640Y-116096028D01*
X135383576Y-116100657D01*
X135395996Y-116106531D01*
X135407780Y-116113594D01*
X135418815Y-116121779D01*
X135428995Y-116131005D01*
X135438221Y-116141185D01*
X135446406Y-116152220D01*
X135453469Y-116164004D01*
X135459343Y-116176424D01*
X135463972Y-116189360D01*
X135467310Y-116202687D01*
X135469326Y-116216278D01*
X135470000Y-116230000D01*
X135470000Y-116570000D01*
X135469326Y-116583722D01*
X135467310Y-116597313D01*
X135463972Y-116610640D01*
X135459343Y-116623576D01*
X135453469Y-116635996D01*
X135446406Y-116647780D01*
X135438221Y-116658815D01*
X135428995Y-116668995D01*
X135418815Y-116678221D01*
X135407780Y-116686406D01*
X135395996Y-116693469D01*
X135383576Y-116699343D01*
X135370640Y-116703972D01*
X135357313Y-116707310D01*
X135343722Y-116709326D01*
X135330000Y-116710000D01*
X135050000Y-116710000D01*
X135036278Y-116709326D01*
X135022687Y-116707310D01*
X135009360Y-116703972D01*
X134996424Y-116699343D01*
X134984004Y-116693469D01*
X134972220Y-116686406D01*
X134961185Y-116678221D01*
X134951005Y-116668995D01*
X134941779Y-116658815D01*
X134933594Y-116647780D01*
X134926531Y-116635996D01*
X134920657Y-116623576D01*
X134916028Y-116610640D01*
X134912690Y-116597313D01*
X134910674Y-116583722D01*
X134910000Y-116570000D01*
X134910000Y-116230000D01*
X134910674Y-116216278D01*
X134912690Y-116202687D01*
X134916028Y-116189360D01*
X134920657Y-116176424D01*
X134926531Y-116164004D01*
X134933594Y-116152220D01*
X134941779Y-116141185D01*
X134951005Y-116131005D01*
X134961185Y-116121779D01*
X134972220Y-116113594D01*
X134984004Y-116106531D01*
X134996424Y-116100657D01*
X135009360Y-116096028D01*
X135022687Y-116092690D01*
X135036278Y-116090674D01*
X135050000Y-116090000D01*
X135330000Y-116090000D01*
X135343722Y-116090674D01*
X135343722Y-116090674D01*
G37*
D14*
X135190000Y-116400000D03*
D10*
G36*
X136303722Y-116090674D02*
G01*
X136317313Y-116092690D01*
X136330640Y-116096028D01*
X136343576Y-116100657D01*
X136355996Y-116106531D01*
X136367780Y-116113594D01*
X136378815Y-116121779D01*
X136388995Y-116131005D01*
X136398221Y-116141185D01*
X136406406Y-116152220D01*
X136413469Y-116164004D01*
X136419343Y-116176424D01*
X136423972Y-116189360D01*
X136427310Y-116202687D01*
X136429326Y-116216278D01*
X136430000Y-116230000D01*
X136430000Y-116570000D01*
X136429326Y-116583722D01*
X136427310Y-116597313D01*
X136423972Y-116610640D01*
X136419343Y-116623576D01*
X136413469Y-116635996D01*
X136406406Y-116647780D01*
X136398221Y-116658815D01*
X136388995Y-116668995D01*
X136378815Y-116678221D01*
X136367780Y-116686406D01*
X136355996Y-116693469D01*
X136343576Y-116699343D01*
X136330640Y-116703972D01*
X136317313Y-116707310D01*
X136303722Y-116709326D01*
X136290000Y-116710000D01*
X136010000Y-116710000D01*
X135996278Y-116709326D01*
X135982687Y-116707310D01*
X135969360Y-116703972D01*
X135956424Y-116699343D01*
X135944004Y-116693469D01*
X135932220Y-116686406D01*
X135921185Y-116678221D01*
X135911005Y-116668995D01*
X135901779Y-116658815D01*
X135893594Y-116647780D01*
X135886531Y-116635996D01*
X135880657Y-116623576D01*
X135876028Y-116610640D01*
X135872690Y-116597313D01*
X135870674Y-116583722D01*
X135870000Y-116570000D01*
X135870000Y-116230000D01*
X135870674Y-116216278D01*
X135872690Y-116202687D01*
X135876028Y-116189360D01*
X135880657Y-116176424D01*
X135886531Y-116164004D01*
X135893594Y-116152220D01*
X135901779Y-116141185D01*
X135911005Y-116131005D01*
X135921185Y-116121779D01*
X135932220Y-116113594D01*
X135944004Y-116106531D01*
X135956424Y-116100657D01*
X135969360Y-116096028D01*
X135982687Y-116092690D01*
X135996278Y-116090674D01*
X136010000Y-116090000D01*
X136290000Y-116090000D01*
X136303722Y-116090674D01*
X136303722Y-116090674D01*
G37*
D14*
X136150000Y-116400000D03*
%TD*%
D10*
%TO.C,C16*%
G36*
X141733722Y-111390674D02*
G01*
X141747313Y-111392690D01*
X141760640Y-111396028D01*
X141773576Y-111400657D01*
X141785996Y-111406531D01*
X141797780Y-111413594D01*
X141808815Y-111421779D01*
X141818995Y-111431005D01*
X141828221Y-111441185D01*
X141836406Y-111452220D01*
X141843469Y-111464004D01*
X141849343Y-111476424D01*
X141853972Y-111489360D01*
X141857310Y-111502687D01*
X141859326Y-111516278D01*
X141860000Y-111530000D01*
X141860000Y-111810000D01*
X141859326Y-111823722D01*
X141857310Y-111837313D01*
X141853972Y-111850640D01*
X141849343Y-111863576D01*
X141843469Y-111875996D01*
X141836406Y-111887780D01*
X141828221Y-111898815D01*
X141818995Y-111908995D01*
X141808815Y-111918221D01*
X141797780Y-111926406D01*
X141785996Y-111933469D01*
X141773576Y-111939343D01*
X141760640Y-111943972D01*
X141747313Y-111947310D01*
X141733722Y-111949326D01*
X141720000Y-111950000D01*
X141380000Y-111950000D01*
X141366278Y-111949326D01*
X141352687Y-111947310D01*
X141339360Y-111943972D01*
X141326424Y-111939343D01*
X141314004Y-111933469D01*
X141302220Y-111926406D01*
X141291185Y-111918221D01*
X141281005Y-111908995D01*
X141271779Y-111898815D01*
X141263594Y-111887780D01*
X141256531Y-111875996D01*
X141250657Y-111863576D01*
X141246028Y-111850640D01*
X141242690Y-111837313D01*
X141240674Y-111823722D01*
X141240000Y-111810000D01*
X141240000Y-111530000D01*
X141240674Y-111516278D01*
X141242690Y-111502687D01*
X141246028Y-111489360D01*
X141250657Y-111476424D01*
X141256531Y-111464004D01*
X141263594Y-111452220D01*
X141271779Y-111441185D01*
X141281005Y-111431005D01*
X141291185Y-111421779D01*
X141302220Y-111413594D01*
X141314004Y-111406531D01*
X141326424Y-111400657D01*
X141339360Y-111396028D01*
X141352687Y-111392690D01*
X141366278Y-111390674D01*
X141380000Y-111390000D01*
X141720000Y-111390000D01*
X141733722Y-111390674D01*
X141733722Y-111390674D01*
G37*
D14*
X141550000Y-111670000D03*
D10*
G36*
X141733722Y-110430674D02*
G01*
X141747313Y-110432690D01*
X141760640Y-110436028D01*
X141773576Y-110440657D01*
X141785996Y-110446531D01*
X141797780Y-110453594D01*
X141808815Y-110461779D01*
X141818995Y-110471005D01*
X141828221Y-110481185D01*
X141836406Y-110492220D01*
X141843469Y-110504004D01*
X141849343Y-110516424D01*
X141853972Y-110529360D01*
X141857310Y-110542687D01*
X141859326Y-110556278D01*
X141860000Y-110570000D01*
X141860000Y-110850000D01*
X141859326Y-110863722D01*
X141857310Y-110877313D01*
X141853972Y-110890640D01*
X141849343Y-110903576D01*
X141843469Y-110915996D01*
X141836406Y-110927780D01*
X141828221Y-110938815D01*
X141818995Y-110948995D01*
X141808815Y-110958221D01*
X141797780Y-110966406D01*
X141785996Y-110973469D01*
X141773576Y-110979343D01*
X141760640Y-110983972D01*
X141747313Y-110987310D01*
X141733722Y-110989326D01*
X141720000Y-110990000D01*
X141380000Y-110990000D01*
X141366278Y-110989326D01*
X141352687Y-110987310D01*
X141339360Y-110983972D01*
X141326424Y-110979343D01*
X141314004Y-110973469D01*
X141302220Y-110966406D01*
X141291185Y-110958221D01*
X141281005Y-110948995D01*
X141271779Y-110938815D01*
X141263594Y-110927780D01*
X141256531Y-110915996D01*
X141250657Y-110903576D01*
X141246028Y-110890640D01*
X141242690Y-110877313D01*
X141240674Y-110863722D01*
X141240000Y-110850000D01*
X141240000Y-110570000D01*
X141240674Y-110556278D01*
X141242690Y-110542687D01*
X141246028Y-110529360D01*
X141250657Y-110516424D01*
X141256531Y-110504004D01*
X141263594Y-110492220D01*
X141271779Y-110481185D01*
X141281005Y-110471005D01*
X141291185Y-110461779D01*
X141302220Y-110453594D01*
X141314004Y-110446531D01*
X141326424Y-110440657D01*
X141339360Y-110436028D01*
X141352687Y-110432690D01*
X141366278Y-110430674D01*
X141380000Y-110430000D01*
X141720000Y-110430000D01*
X141733722Y-110430674D01*
X141733722Y-110430674D01*
G37*
D14*
X141550000Y-110710000D03*
%TD*%
D10*
%TO.C,C15*%
G36*
X142858722Y-110430674D02*
G01*
X142872313Y-110432690D01*
X142885640Y-110436028D01*
X142898576Y-110440657D01*
X142910996Y-110446531D01*
X142922780Y-110453594D01*
X142933815Y-110461779D01*
X142943995Y-110471005D01*
X142953221Y-110481185D01*
X142961406Y-110492220D01*
X142968469Y-110504004D01*
X142974343Y-110516424D01*
X142978972Y-110529360D01*
X142982310Y-110542687D01*
X142984326Y-110556278D01*
X142985000Y-110570000D01*
X142985000Y-110850000D01*
X142984326Y-110863722D01*
X142982310Y-110877313D01*
X142978972Y-110890640D01*
X142974343Y-110903576D01*
X142968469Y-110915996D01*
X142961406Y-110927780D01*
X142953221Y-110938815D01*
X142943995Y-110948995D01*
X142933815Y-110958221D01*
X142922780Y-110966406D01*
X142910996Y-110973469D01*
X142898576Y-110979343D01*
X142885640Y-110983972D01*
X142872313Y-110987310D01*
X142858722Y-110989326D01*
X142845000Y-110990000D01*
X142505000Y-110990000D01*
X142491278Y-110989326D01*
X142477687Y-110987310D01*
X142464360Y-110983972D01*
X142451424Y-110979343D01*
X142439004Y-110973469D01*
X142427220Y-110966406D01*
X142416185Y-110958221D01*
X142406005Y-110948995D01*
X142396779Y-110938815D01*
X142388594Y-110927780D01*
X142381531Y-110915996D01*
X142375657Y-110903576D01*
X142371028Y-110890640D01*
X142367690Y-110877313D01*
X142365674Y-110863722D01*
X142365000Y-110850000D01*
X142365000Y-110570000D01*
X142365674Y-110556278D01*
X142367690Y-110542687D01*
X142371028Y-110529360D01*
X142375657Y-110516424D01*
X142381531Y-110504004D01*
X142388594Y-110492220D01*
X142396779Y-110481185D01*
X142406005Y-110471005D01*
X142416185Y-110461779D01*
X142427220Y-110453594D01*
X142439004Y-110446531D01*
X142451424Y-110440657D01*
X142464360Y-110436028D01*
X142477687Y-110432690D01*
X142491278Y-110430674D01*
X142505000Y-110430000D01*
X142845000Y-110430000D01*
X142858722Y-110430674D01*
X142858722Y-110430674D01*
G37*
D14*
X142675000Y-110710000D03*
D10*
G36*
X142858722Y-111390674D02*
G01*
X142872313Y-111392690D01*
X142885640Y-111396028D01*
X142898576Y-111400657D01*
X142910996Y-111406531D01*
X142922780Y-111413594D01*
X142933815Y-111421779D01*
X142943995Y-111431005D01*
X142953221Y-111441185D01*
X142961406Y-111452220D01*
X142968469Y-111464004D01*
X142974343Y-111476424D01*
X142978972Y-111489360D01*
X142982310Y-111502687D01*
X142984326Y-111516278D01*
X142985000Y-111530000D01*
X142985000Y-111810000D01*
X142984326Y-111823722D01*
X142982310Y-111837313D01*
X142978972Y-111850640D01*
X142974343Y-111863576D01*
X142968469Y-111875996D01*
X142961406Y-111887780D01*
X142953221Y-111898815D01*
X142943995Y-111908995D01*
X142933815Y-111918221D01*
X142922780Y-111926406D01*
X142910996Y-111933469D01*
X142898576Y-111939343D01*
X142885640Y-111943972D01*
X142872313Y-111947310D01*
X142858722Y-111949326D01*
X142845000Y-111950000D01*
X142505000Y-111950000D01*
X142491278Y-111949326D01*
X142477687Y-111947310D01*
X142464360Y-111943972D01*
X142451424Y-111939343D01*
X142439004Y-111933469D01*
X142427220Y-111926406D01*
X142416185Y-111918221D01*
X142406005Y-111908995D01*
X142396779Y-111898815D01*
X142388594Y-111887780D01*
X142381531Y-111875996D01*
X142375657Y-111863576D01*
X142371028Y-111850640D01*
X142367690Y-111837313D01*
X142365674Y-111823722D01*
X142365000Y-111810000D01*
X142365000Y-111530000D01*
X142365674Y-111516278D01*
X142367690Y-111502687D01*
X142371028Y-111489360D01*
X142375657Y-111476424D01*
X142381531Y-111464004D01*
X142388594Y-111452220D01*
X142396779Y-111441185D01*
X142406005Y-111431005D01*
X142416185Y-111421779D01*
X142427220Y-111413594D01*
X142439004Y-111406531D01*
X142451424Y-111400657D01*
X142464360Y-111396028D01*
X142477687Y-111392690D01*
X142491278Y-111390674D01*
X142505000Y-111390000D01*
X142845000Y-111390000D01*
X142858722Y-111390674D01*
X142858722Y-111390674D01*
G37*
D14*
X142675000Y-111670000D03*
%TD*%
D10*
%TO.C,C14*%
G36*
X140608722Y-111410674D02*
G01*
X140622313Y-111412690D01*
X140635640Y-111416028D01*
X140648576Y-111420657D01*
X140660996Y-111426531D01*
X140672780Y-111433594D01*
X140683815Y-111441779D01*
X140693995Y-111451005D01*
X140703221Y-111461185D01*
X140711406Y-111472220D01*
X140718469Y-111484004D01*
X140724343Y-111496424D01*
X140728972Y-111509360D01*
X140732310Y-111522687D01*
X140734326Y-111536278D01*
X140735000Y-111550000D01*
X140735000Y-111830000D01*
X140734326Y-111843722D01*
X140732310Y-111857313D01*
X140728972Y-111870640D01*
X140724343Y-111883576D01*
X140718469Y-111895996D01*
X140711406Y-111907780D01*
X140703221Y-111918815D01*
X140693995Y-111928995D01*
X140683815Y-111938221D01*
X140672780Y-111946406D01*
X140660996Y-111953469D01*
X140648576Y-111959343D01*
X140635640Y-111963972D01*
X140622313Y-111967310D01*
X140608722Y-111969326D01*
X140595000Y-111970000D01*
X140255000Y-111970000D01*
X140241278Y-111969326D01*
X140227687Y-111967310D01*
X140214360Y-111963972D01*
X140201424Y-111959343D01*
X140189004Y-111953469D01*
X140177220Y-111946406D01*
X140166185Y-111938221D01*
X140156005Y-111928995D01*
X140146779Y-111918815D01*
X140138594Y-111907780D01*
X140131531Y-111895996D01*
X140125657Y-111883576D01*
X140121028Y-111870640D01*
X140117690Y-111857313D01*
X140115674Y-111843722D01*
X140115000Y-111830000D01*
X140115000Y-111550000D01*
X140115674Y-111536278D01*
X140117690Y-111522687D01*
X140121028Y-111509360D01*
X140125657Y-111496424D01*
X140131531Y-111484004D01*
X140138594Y-111472220D01*
X140146779Y-111461185D01*
X140156005Y-111451005D01*
X140166185Y-111441779D01*
X140177220Y-111433594D01*
X140189004Y-111426531D01*
X140201424Y-111420657D01*
X140214360Y-111416028D01*
X140227687Y-111412690D01*
X140241278Y-111410674D01*
X140255000Y-111410000D01*
X140595000Y-111410000D01*
X140608722Y-111410674D01*
X140608722Y-111410674D01*
G37*
D14*
X140425000Y-111690000D03*
D10*
G36*
X140608722Y-110450674D02*
G01*
X140622313Y-110452690D01*
X140635640Y-110456028D01*
X140648576Y-110460657D01*
X140660996Y-110466531D01*
X140672780Y-110473594D01*
X140683815Y-110481779D01*
X140693995Y-110491005D01*
X140703221Y-110501185D01*
X140711406Y-110512220D01*
X140718469Y-110524004D01*
X140724343Y-110536424D01*
X140728972Y-110549360D01*
X140732310Y-110562687D01*
X140734326Y-110576278D01*
X140735000Y-110590000D01*
X140735000Y-110870000D01*
X140734326Y-110883722D01*
X140732310Y-110897313D01*
X140728972Y-110910640D01*
X140724343Y-110923576D01*
X140718469Y-110935996D01*
X140711406Y-110947780D01*
X140703221Y-110958815D01*
X140693995Y-110968995D01*
X140683815Y-110978221D01*
X140672780Y-110986406D01*
X140660996Y-110993469D01*
X140648576Y-110999343D01*
X140635640Y-111003972D01*
X140622313Y-111007310D01*
X140608722Y-111009326D01*
X140595000Y-111010000D01*
X140255000Y-111010000D01*
X140241278Y-111009326D01*
X140227687Y-111007310D01*
X140214360Y-111003972D01*
X140201424Y-110999343D01*
X140189004Y-110993469D01*
X140177220Y-110986406D01*
X140166185Y-110978221D01*
X140156005Y-110968995D01*
X140146779Y-110958815D01*
X140138594Y-110947780D01*
X140131531Y-110935996D01*
X140125657Y-110923576D01*
X140121028Y-110910640D01*
X140117690Y-110897313D01*
X140115674Y-110883722D01*
X140115000Y-110870000D01*
X140115000Y-110590000D01*
X140115674Y-110576278D01*
X140117690Y-110562687D01*
X140121028Y-110549360D01*
X140125657Y-110536424D01*
X140131531Y-110524004D01*
X140138594Y-110512220D01*
X140146779Y-110501185D01*
X140156005Y-110491005D01*
X140166185Y-110481779D01*
X140177220Y-110473594D01*
X140189004Y-110466531D01*
X140201424Y-110460657D01*
X140214360Y-110456028D01*
X140227687Y-110452690D01*
X140241278Y-110450674D01*
X140255000Y-110450000D01*
X140595000Y-110450000D01*
X140608722Y-110450674D01*
X140608722Y-110450674D01*
G37*
D14*
X140425000Y-110730000D03*
%TD*%
D10*
%TO.C,C6*%
G36*
X148963722Y-116140674D02*
G01*
X148977313Y-116142690D01*
X148990640Y-116146028D01*
X149003576Y-116150657D01*
X149015996Y-116156531D01*
X149027780Y-116163594D01*
X149038815Y-116171779D01*
X149048995Y-116181005D01*
X149058221Y-116191185D01*
X149066406Y-116202220D01*
X149073469Y-116214004D01*
X149079343Y-116226424D01*
X149083972Y-116239360D01*
X149087310Y-116252687D01*
X149089326Y-116266278D01*
X149090000Y-116280000D01*
X149090000Y-116620000D01*
X149089326Y-116633722D01*
X149087310Y-116647313D01*
X149083972Y-116660640D01*
X149079343Y-116673576D01*
X149073469Y-116685996D01*
X149066406Y-116697780D01*
X149058221Y-116708815D01*
X149048995Y-116718995D01*
X149038815Y-116728221D01*
X149027780Y-116736406D01*
X149015996Y-116743469D01*
X149003576Y-116749343D01*
X148990640Y-116753972D01*
X148977313Y-116757310D01*
X148963722Y-116759326D01*
X148950000Y-116760000D01*
X148670000Y-116760000D01*
X148656278Y-116759326D01*
X148642687Y-116757310D01*
X148629360Y-116753972D01*
X148616424Y-116749343D01*
X148604004Y-116743469D01*
X148592220Y-116736406D01*
X148581185Y-116728221D01*
X148571005Y-116718995D01*
X148561779Y-116708815D01*
X148553594Y-116697780D01*
X148546531Y-116685996D01*
X148540657Y-116673576D01*
X148536028Y-116660640D01*
X148532690Y-116647313D01*
X148530674Y-116633722D01*
X148530000Y-116620000D01*
X148530000Y-116280000D01*
X148530674Y-116266278D01*
X148532690Y-116252687D01*
X148536028Y-116239360D01*
X148540657Y-116226424D01*
X148546531Y-116214004D01*
X148553594Y-116202220D01*
X148561779Y-116191185D01*
X148571005Y-116181005D01*
X148581185Y-116171779D01*
X148592220Y-116163594D01*
X148604004Y-116156531D01*
X148616424Y-116150657D01*
X148629360Y-116146028D01*
X148642687Y-116142690D01*
X148656278Y-116140674D01*
X148670000Y-116140000D01*
X148950000Y-116140000D01*
X148963722Y-116140674D01*
X148963722Y-116140674D01*
G37*
D14*
X148810000Y-116450000D03*
D10*
G36*
X148003722Y-116140674D02*
G01*
X148017313Y-116142690D01*
X148030640Y-116146028D01*
X148043576Y-116150657D01*
X148055996Y-116156531D01*
X148067780Y-116163594D01*
X148078815Y-116171779D01*
X148088995Y-116181005D01*
X148098221Y-116191185D01*
X148106406Y-116202220D01*
X148113469Y-116214004D01*
X148119343Y-116226424D01*
X148123972Y-116239360D01*
X148127310Y-116252687D01*
X148129326Y-116266278D01*
X148130000Y-116280000D01*
X148130000Y-116620000D01*
X148129326Y-116633722D01*
X148127310Y-116647313D01*
X148123972Y-116660640D01*
X148119343Y-116673576D01*
X148113469Y-116685996D01*
X148106406Y-116697780D01*
X148098221Y-116708815D01*
X148088995Y-116718995D01*
X148078815Y-116728221D01*
X148067780Y-116736406D01*
X148055996Y-116743469D01*
X148043576Y-116749343D01*
X148030640Y-116753972D01*
X148017313Y-116757310D01*
X148003722Y-116759326D01*
X147990000Y-116760000D01*
X147710000Y-116760000D01*
X147696278Y-116759326D01*
X147682687Y-116757310D01*
X147669360Y-116753972D01*
X147656424Y-116749343D01*
X147644004Y-116743469D01*
X147632220Y-116736406D01*
X147621185Y-116728221D01*
X147611005Y-116718995D01*
X147601779Y-116708815D01*
X147593594Y-116697780D01*
X147586531Y-116685996D01*
X147580657Y-116673576D01*
X147576028Y-116660640D01*
X147572690Y-116647313D01*
X147570674Y-116633722D01*
X147570000Y-116620000D01*
X147570000Y-116280000D01*
X147570674Y-116266278D01*
X147572690Y-116252687D01*
X147576028Y-116239360D01*
X147580657Y-116226424D01*
X147586531Y-116214004D01*
X147593594Y-116202220D01*
X147601779Y-116191185D01*
X147611005Y-116181005D01*
X147621185Y-116171779D01*
X147632220Y-116163594D01*
X147644004Y-116156531D01*
X147656424Y-116150657D01*
X147669360Y-116146028D01*
X147682687Y-116142690D01*
X147696278Y-116140674D01*
X147710000Y-116140000D01*
X147990000Y-116140000D01*
X148003722Y-116140674D01*
X148003722Y-116140674D01*
G37*
D14*
X147850000Y-116450000D03*
%TD*%
D10*
%TO.C,C5*%
G36*
X144433722Y-109150674D02*
G01*
X144447313Y-109152690D01*
X144460640Y-109156028D01*
X144473576Y-109160657D01*
X144485996Y-109166531D01*
X144497780Y-109173594D01*
X144508815Y-109181779D01*
X144518995Y-109191005D01*
X144528221Y-109201185D01*
X144536406Y-109212220D01*
X144543469Y-109224004D01*
X144549343Y-109236424D01*
X144553972Y-109249360D01*
X144557310Y-109262687D01*
X144559326Y-109276278D01*
X144560000Y-109290000D01*
X144560000Y-109630000D01*
X144559326Y-109643722D01*
X144557310Y-109657313D01*
X144553972Y-109670640D01*
X144549343Y-109683576D01*
X144543469Y-109695996D01*
X144536406Y-109707780D01*
X144528221Y-109718815D01*
X144518995Y-109728995D01*
X144508815Y-109738221D01*
X144497780Y-109746406D01*
X144485996Y-109753469D01*
X144473576Y-109759343D01*
X144460640Y-109763972D01*
X144447313Y-109767310D01*
X144433722Y-109769326D01*
X144420000Y-109770000D01*
X144140000Y-109770000D01*
X144126278Y-109769326D01*
X144112687Y-109767310D01*
X144099360Y-109763972D01*
X144086424Y-109759343D01*
X144074004Y-109753469D01*
X144062220Y-109746406D01*
X144051185Y-109738221D01*
X144041005Y-109728995D01*
X144031779Y-109718815D01*
X144023594Y-109707780D01*
X144016531Y-109695996D01*
X144010657Y-109683576D01*
X144006028Y-109670640D01*
X144002690Y-109657313D01*
X144000674Y-109643722D01*
X144000000Y-109630000D01*
X144000000Y-109290000D01*
X144000674Y-109276278D01*
X144002690Y-109262687D01*
X144006028Y-109249360D01*
X144010657Y-109236424D01*
X144016531Y-109224004D01*
X144023594Y-109212220D01*
X144031779Y-109201185D01*
X144041005Y-109191005D01*
X144051185Y-109181779D01*
X144062220Y-109173594D01*
X144074004Y-109166531D01*
X144086424Y-109160657D01*
X144099360Y-109156028D01*
X144112687Y-109152690D01*
X144126278Y-109150674D01*
X144140000Y-109150000D01*
X144420000Y-109150000D01*
X144433722Y-109150674D01*
X144433722Y-109150674D01*
G37*
D14*
X144280000Y-109460000D03*
D10*
G36*
X143473722Y-109150674D02*
G01*
X143487313Y-109152690D01*
X143500640Y-109156028D01*
X143513576Y-109160657D01*
X143525996Y-109166531D01*
X143537780Y-109173594D01*
X143548815Y-109181779D01*
X143558995Y-109191005D01*
X143568221Y-109201185D01*
X143576406Y-109212220D01*
X143583469Y-109224004D01*
X143589343Y-109236424D01*
X143593972Y-109249360D01*
X143597310Y-109262687D01*
X143599326Y-109276278D01*
X143600000Y-109290000D01*
X143600000Y-109630000D01*
X143599326Y-109643722D01*
X143597310Y-109657313D01*
X143593972Y-109670640D01*
X143589343Y-109683576D01*
X143583469Y-109695996D01*
X143576406Y-109707780D01*
X143568221Y-109718815D01*
X143558995Y-109728995D01*
X143548815Y-109738221D01*
X143537780Y-109746406D01*
X143525996Y-109753469D01*
X143513576Y-109759343D01*
X143500640Y-109763972D01*
X143487313Y-109767310D01*
X143473722Y-109769326D01*
X143460000Y-109770000D01*
X143180000Y-109770000D01*
X143166278Y-109769326D01*
X143152687Y-109767310D01*
X143139360Y-109763972D01*
X143126424Y-109759343D01*
X143114004Y-109753469D01*
X143102220Y-109746406D01*
X143091185Y-109738221D01*
X143081005Y-109728995D01*
X143071779Y-109718815D01*
X143063594Y-109707780D01*
X143056531Y-109695996D01*
X143050657Y-109683576D01*
X143046028Y-109670640D01*
X143042690Y-109657313D01*
X143040674Y-109643722D01*
X143040000Y-109630000D01*
X143040000Y-109290000D01*
X143040674Y-109276278D01*
X143042690Y-109262687D01*
X143046028Y-109249360D01*
X143050657Y-109236424D01*
X143056531Y-109224004D01*
X143063594Y-109212220D01*
X143071779Y-109201185D01*
X143081005Y-109191005D01*
X143091185Y-109181779D01*
X143102220Y-109173594D01*
X143114004Y-109166531D01*
X143126424Y-109160657D01*
X143139360Y-109156028D01*
X143152687Y-109152690D01*
X143166278Y-109150674D01*
X143180000Y-109150000D01*
X143460000Y-109150000D01*
X143473722Y-109150674D01*
X143473722Y-109150674D01*
G37*
D14*
X143320000Y-109460000D03*
%TD*%
D10*
%TO.C,C4*%
G36*
X146883722Y-116340674D02*
G01*
X146897313Y-116342690D01*
X146910640Y-116346028D01*
X146923576Y-116350657D01*
X146935996Y-116356531D01*
X146947780Y-116363594D01*
X146958815Y-116371779D01*
X146968995Y-116381005D01*
X146978221Y-116391185D01*
X146986406Y-116402220D01*
X146993469Y-116414004D01*
X146999343Y-116426424D01*
X147003972Y-116439360D01*
X147007310Y-116452687D01*
X147009326Y-116466278D01*
X147010000Y-116480000D01*
X147010000Y-116820000D01*
X147009326Y-116833722D01*
X147007310Y-116847313D01*
X147003972Y-116860640D01*
X146999343Y-116873576D01*
X146993469Y-116885996D01*
X146986406Y-116897780D01*
X146978221Y-116908815D01*
X146968995Y-116918995D01*
X146958815Y-116928221D01*
X146947780Y-116936406D01*
X146935996Y-116943469D01*
X146923576Y-116949343D01*
X146910640Y-116953972D01*
X146897313Y-116957310D01*
X146883722Y-116959326D01*
X146870000Y-116960000D01*
X146590000Y-116960000D01*
X146576278Y-116959326D01*
X146562687Y-116957310D01*
X146549360Y-116953972D01*
X146536424Y-116949343D01*
X146524004Y-116943469D01*
X146512220Y-116936406D01*
X146501185Y-116928221D01*
X146491005Y-116918995D01*
X146481779Y-116908815D01*
X146473594Y-116897780D01*
X146466531Y-116885996D01*
X146460657Y-116873576D01*
X146456028Y-116860640D01*
X146452690Y-116847313D01*
X146450674Y-116833722D01*
X146450000Y-116820000D01*
X146450000Y-116480000D01*
X146450674Y-116466278D01*
X146452690Y-116452687D01*
X146456028Y-116439360D01*
X146460657Y-116426424D01*
X146466531Y-116414004D01*
X146473594Y-116402220D01*
X146481779Y-116391185D01*
X146491005Y-116381005D01*
X146501185Y-116371779D01*
X146512220Y-116363594D01*
X146524004Y-116356531D01*
X146536424Y-116350657D01*
X146549360Y-116346028D01*
X146562687Y-116342690D01*
X146576278Y-116340674D01*
X146590000Y-116340000D01*
X146870000Y-116340000D01*
X146883722Y-116340674D01*
X146883722Y-116340674D01*
G37*
D14*
X146730000Y-116650000D03*
D10*
G36*
X145923722Y-116340674D02*
G01*
X145937313Y-116342690D01*
X145950640Y-116346028D01*
X145963576Y-116350657D01*
X145975996Y-116356531D01*
X145987780Y-116363594D01*
X145998815Y-116371779D01*
X146008995Y-116381005D01*
X146018221Y-116391185D01*
X146026406Y-116402220D01*
X146033469Y-116414004D01*
X146039343Y-116426424D01*
X146043972Y-116439360D01*
X146047310Y-116452687D01*
X146049326Y-116466278D01*
X146050000Y-116480000D01*
X146050000Y-116820000D01*
X146049326Y-116833722D01*
X146047310Y-116847313D01*
X146043972Y-116860640D01*
X146039343Y-116873576D01*
X146033469Y-116885996D01*
X146026406Y-116897780D01*
X146018221Y-116908815D01*
X146008995Y-116918995D01*
X145998815Y-116928221D01*
X145987780Y-116936406D01*
X145975996Y-116943469D01*
X145963576Y-116949343D01*
X145950640Y-116953972D01*
X145937313Y-116957310D01*
X145923722Y-116959326D01*
X145910000Y-116960000D01*
X145630000Y-116960000D01*
X145616278Y-116959326D01*
X145602687Y-116957310D01*
X145589360Y-116953972D01*
X145576424Y-116949343D01*
X145564004Y-116943469D01*
X145552220Y-116936406D01*
X145541185Y-116928221D01*
X145531005Y-116918995D01*
X145521779Y-116908815D01*
X145513594Y-116897780D01*
X145506531Y-116885996D01*
X145500657Y-116873576D01*
X145496028Y-116860640D01*
X145492690Y-116847313D01*
X145490674Y-116833722D01*
X145490000Y-116820000D01*
X145490000Y-116480000D01*
X145490674Y-116466278D01*
X145492690Y-116452687D01*
X145496028Y-116439360D01*
X145500657Y-116426424D01*
X145506531Y-116414004D01*
X145513594Y-116402220D01*
X145521779Y-116391185D01*
X145531005Y-116381005D01*
X145541185Y-116371779D01*
X145552220Y-116363594D01*
X145564004Y-116356531D01*
X145576424Y-116350657D01*
X145589360Y-116346028D01*
X145602687Y-116342690D01*
X145616278Y-116340674D01*
X145630000Y-116340000D01*
X145910000Y-116340000D01*
X145923722Y-116340674D01*
X145923722Y-116340674D01*
G37*
D14*
X145770000Y-116650000D03*
%TD*%
D10*
%TO.C,C3*%
G36*
X138973722Y-109150674D02*
G01*
X138987313Y-109152690D01*
X139000640Y-109156028D01*
X139013576Y-109160657D01*
X139025996Y-109166531D01*
X139037780Y-109173594D01*
X139048815Y-109181779D01*
X139058995Y-109191005D01*
X139068221Y-109201185D01*
X139076406Y-109212220D01*
X139083469Y-109224004D01*
X139089343Y-109236424D01*
X139093972Y-109249360D01*
X139097310Y-109262687D01*
X139099326Y-109276278D01*
X139100000Y-109290000D01*
X139100000Y-109630000D01*
X139099326Y-109643722D01*
X139097310Y-109657313D01*
X139093972Y-109670640D01*
X139089343Y-109683576D01*
X139083469Y-109695996D01*
X139076406Y-109707780D01*
X139068221Y-109718815D01*
X139058995Y-109728995D01*
X139048815Y-109738221D01*
X139037780Y-109746406D01*
X139025996Y-109753469D01*
X139013576Y-109759343D01*
X139000640Y-109763972D01*
X138987313Y-109767310D01*
X138973722Y-109769326D01*
X138960000Y-109770000D01*
X138680000Y-109770000D01*
X138666278Y-109769326D01*
X138652687Y-109767310D01*
X138639360Y-109763972D01*
X138626424Y-109759343D01*
X138614004Y-109753469D01*
X138602220Y-109746406D01*
X138591185Y-109738221D01*
X138581005Y-109728995D01*
X138571779Y-109718815D01*
X138563594Y-109707780D01*
X138556531Y-109695996D01*
X138550657Y-109683576D01*
X138546028Y-109670640D01*
X138542690Y-109657313D01*
X138540674Y-109643722D01*
X138540000Y-109630000D01*
X138540000Y-109290000D01*
X138540674Y-109276278D01*
X138542690Y-109262687D01*
X138546028Y-109249360D01*
X138550657Y-109236424D01*
X138556531Y-109224004D01*
X138563594Y-109212220D01*
X138571779Y-109201185D01*
X138581005Y-109191005D01*
X138591185Y-109181779D01*
X138602220Y-109173594D01*
X138614004Y-109166531D01*
X138626424Y-109160657D01*
X138639360Y-109156028D01*
X138652687Y-109152690D01*
X138666278Y-109150674D01*
X138680000Y-109150000D01*
X138960000Y-109150000D01*
X138973722Y-109150674D01*
X138973722Y-109150674D01*
G37*
D14*
X138820000Y-109460000D03*
D10*
G36*
X139933722Y-109150674D02*
G01*
X139947313Y-109152690D01*
X139960640Y-109156028D01*
X139973576Y-109160657D01*
X139985996Y-109166531D01*
X139997780Y-109173594D01*
X140008815Y-109181779D01*
X140018995Y-109191005D01*
X140028221Y-109201185D01*
X140036406Y-109212220D01*
X140043469Y-109224004D01*
X140049343Y-109236424D01*
X140053972Y-109249360D01*
X140057310Y-109262687D01*
X140059326Y-109276278D01*
X140060000Y-109290000D01*
X140060000Y-109630000D01*
X140059326Y-109643722D01*
X140057310Y-109657313D01*
X140053972Y-109670640D01*
X140049343Y-109683576D01*
X140043469Y-109695996D01*
X140036406Y-109707780D01*
X140028221Y-109718815D01*
X140018995Y-109728995D01*
X140008815Y-109738221D01*
X139997780Y-109746406D01*
X139985996Y-109753469D01*
X139973576Y-109759343D01*
X139960640Y-109763972D01*
X139947313Y-109767310D01*
X139933722Y-109769326D01*
X139920000Y-109770000D01*
X139640000Y-109770000D01*
X139626278Y-109769326D01*
X139612687Y-109767310D01*
X139599360Y-109763972D01*
X139586424Y-109759343D01*
X139574004Y-109753469D01*
X139562220Y-109746406D01*
X139551185Y-109738221D01*
X139541005Y-109728995D01*
X139531779Y-109718815D01*
X139523594Y-109707780D01*
X139516531Y-109695996D01*
X139510657Y-109683576D01*
X139506028Y-109670640D01*
X139502690Y-109657313D01*
X139500674Y-109643722D01*
X139500000Y-109630000D01*
X139500000Y-109290000D01*
X139500674Y-109276278D01*
X139502690Y-109262687D01*
X139506028Y-109249360D01*
X139510657Y-109236424D01*
X139516531Y-109224004D01*
X139523594Y-109212220D01*
X139531779Y-109201185D01*
X139541005Y-109191005D01*
X139551185Y-109181779D01*
X139562220Y-109173594D01*
X139574004Y-109166531D01*
X139586424Y-109160657D01*
X139599360Y-109156028D01*
X139612687Y-109152690D01*
X139626278Y-109150674D01*
X139640000Y-109150000D01*
X139920000Y-109150000D01*
X139933722Y-109150674D01*
X139933722Y-109150674D01*
G37*
D14*
X139780000Y-109460000D03*
%TD*%
D10*
%TO.C,C2*%
G36*
X136483722Y-114100674D02*
G01*
X136497313Y-114102690D01*
X136510640Y-114106028D01*
X136523576Y-114110657D01*
X136535996Y-114116531D01*
X136547780Y-114123594D01*
X136558815Y-114131779D01*
X136568995Y-114141005D01*
X136578221Y-114151185D01*
X136586406Y-114162220D01*
X136593469Y-114174004D01*
X136599343Y-114186424D01*
X136603972Y-114199360D01*
X136607310Y-114212687D01*
X136609326Y-114226278D01*
X136610000Y-114240000D01*
X136610000Y-114580000D01*
X136609326Y-114593722D01*
X136607310Y-114607313D01*
X136603972Y-114620640D01*
X136599343Y-114633576D01*
X136593469Y-114645996D01*
X136586406Y-114657780D01*
X136578221Y-114668815D01*
X136568995Y-114678995D01*
X136558815Y-114688221D01*
X136547780Y-114696406D01*
X136535996Y-114703469D01*
X136523576Y-114709343D01*
X136510640Y-114713972D01*
X136497313Y-114717310D01*
X136483722Y-114719326D01*
X136470000Y-114720000D01*
X136190000Y-114720000D01*
X136176278Y-114719326D01*
X136162687Y-114717310D01*
X136149360Y-114713972D01*
X136136424Y-114709343D01*
X136124004Y-114703469D01*
X136112220Y-114696406D01*
X136101185Y-114688221D01*
X136091005Y-114678995D01*
X136081779Y-114668815D01*
X136073594Y-114657780D01*
X136066531Y-114645996D01*
X136060657Y-114633576D01*
X136056028Y-114620640D01*
X136052690Y-114607313D01*
X136050674Y-114593722D01*
X136050000Y-114580000D01*
X136050000Y-114240000D01*
X136050674Y-114226278D01*
X136052690Y-114212687D01*
X136056028Y-114199360D01*
X136060657Y-114186424D01*
X136066531Y-114174004D01*
X136073594Y-114162220D01*
X136081779Y-114151185D01*
X136091005Y-114141005D01*
X136101185Y-114131779D01*
X136112220Y-114123594D01*
X136124004Y-114116531D01*
X136136424Y-114110657D01*
X136149360Y-114106028D01*
X136162687Y-114102690D01*
X136176278Y-114100674D01*
X136190000Y-114100000D01*
X136470000Y-114100000D01*
X136483722Y-114100674D01*
X136483722Y-114100674D01*
G37*
D14*
X136330000Y-114410000D03*
D10*
G36*
X137443722Y-114100674D02*
G01*
X137457313Y-114102690D01*
X137470640Y-114106028D01*
X137483576Y-114110657D01*
X137495996Y-114116531D01*
X137507780Y-114123594D01*
X137518815Y-114131779D01*
X137528995Y-114141005D01*
X137538221Y-114151185D01*
X137546406Y-114162220D01*
X137553469Y-114174004D01*
X137559343Y-114186424D01*
X137563972Y-114199360D01*
X137567310Y-114212687D01*
X137569326Y-114226278D01*
X137570000Y-114240000D01*
X137570000Y-114580000D01*
X137569326Y-114593722D01*
X137567310Y-114607313D01*
X137563972Y-114620640D01*
X137559343Y-114633576D01*
X137553469Y-114645996D01*
X137546406Y-114657780D01*
X137538221Y-114668815D01*
X137528995Y-114678995D01*
X137518815Y-114688221D01*
X137507780Y-114696406D01*
X137495996Y-114703469D01*
X137483576Y-114709343D01*
X137470640Y-114713972D01*
X137457313Y-114717310D01*
X137443722Y-114719326D01*
X137430000Y-114720000D01*
X137150000Y-114720000D01*
X137136278Y-114719326D01*
X137122687Y-114717310D01*
X137109360Y-114713972D01*
X137096424Y-114709343D01*
X137084004Y-114703469D01*
X137072220Y-114696406D01*
X137061185Y-114688221D01*
X137051005Y-114678995D01*
X137041779Y-114668815D01*
X137033594Y-114657780D01*
X137026531Y-114645996D01*
X137020657Y-114633576D01*
X137016028Y-114620640D01*
X137012690Y-114607313D01*
X137010674Y-114593722D01*
X137010000Y-114580000D01*
X137010000Y-114240000D01*
X137010674Y-114226278D01*
X137012690Y-114212687D01*
X137016028Y-114199360D01*
X137020657Y-114186424D01*
X137026531Y-114174004D01*
X137033594Y-114162220D01*
X137041779Y-114151185D01*
X137051005Y-114141005D01*
X137061185Y-114131779D01*
X137072220Y-114123594D01*
X137084004Y-114116531D01*
X137096424Y-114110657D01*
X137109360Y-114106028D01*
X137122687Y-114102690D01*
X137136278Y-114100674D01*
X137150000Y-114100000D01*
X137430000Y-114100000D01*
X137443722Y-114100674D01*
X137443722Y-114100674D01*
G37*
D14*
X137290000Y-114410000D03*
%TD*%
M02*
